<?xml version="1.0" encoding="utf-8"?>
<!-- Generator: Adobe Illustrator 16.0.3, SVG Export Plug-In . SVG Version: 6.00 Build 0)  -->
<!DOCTYPE svg PUBLIC "-//W3C//DTD SVG 1.1//EN" "http://www.w3.org/Graphics/SVG/1.1/DTD/svg11.dtd">
<svg version="1.1" id="Layer_1" xmlns="http://www.w3.org/2000/svg" xmlns:xlink="http://www.w3.org/1999/xlink" x="0px" y="0px"
	 width="822.047px" height="822.047px" viewBox="0 0 822.047 822.047" enable-background="new 0 0 822.047 822.047"
	 xml:space="preserve">
<rect fill="#013F54" width="822.047" height="822.047"/>
<g>
	<g>
		<path fill="#FC8119" d="M175.76,538.048c0.688,0.192,1.378,0.386,2.208,0.618c0.174-2.533-1.772-4.145-2.356-6.252
			c-0.225-0.816-0.912-1.658-0.017-2.37c0.711-0.565,1.436,0.052,2.055,0.395c3.387,1.88,6.767,3.775,10.122,5.711
			c46.011,26.543,92.015,53.096,138.026,79.64c1.948,1.124,3.855,2.346,5.889,3.29c3.992,1.86,7.139,0.927,8.94-2.464
			c1.77-3.331,0.885-5.844-3.252-8.232c-14.5-8.38-29.065-16.646-43.576-25.011c-41.577-23.974-83.075-48.085-124.781-71.833
			c-5.998-3.416-9.677-7.563-11.889-14.105c-6.354-18.771-11.835-37.716-14.413-57.412c-2.104-16.065-2.792-32.186-1.467-48.352
			c0.323-3.928,0.662-3.953,4.128-1.931c17.703,10.327,35.402,20.657,53.121,30.952c1.282,0.746,2.661,1.447,4.086,1.8
			c3.417,0.847,6.889-0.897,7.88-4.013c1.047-3.291-0.232-5.894-3.115-7.6c-5.377-3.182-10.828-6.236-16.24-9.359
			c-13.964-8.061-27.831-16.293-41.938-24.093c-4.44-2.455-7.804-4.663-5.372-10.338c1.202,1.68,3.3,1.837,4.934,2.797
			c12.241,7.2,24.558,14.273,36.853,21.381c0.971,0.561,1.925,1.173,2.952,1.607c3.563,1.513,6.269-0.338,6.163-4.176
			c-0.024-0.868-0.105-1.735-0.158-2.606c5.401,3.02,10.813,6.024,16.203,9.066c3.854,2.179,7.472,2.326,9.629,0.111
			c2.84-2.918,2.109-6.058,0.271-9.177c-0.712-1.297-2.061-1.759-3.231-2.434c-21.668-12.508-43.332-25.022-65.033-37.47
			c-1.794-1.03-3.2-2.245-4.022-4.128c1.375-6.288,3.279-12.359,5.652-18.392c2.248-5.71,4.325-11.508,6.637-17.219
			c5.824-14.372,13.433-27.775,21.52-40.951c4.089-6.663,8.39-13.141,13.609-18.979c10.814,5.297,17.477,13.505,19.442,25.719
			c1.66,10.316,1.778,20.634,1.45,30.972c-0.498,15.728-0.93,31.526,1.288,47.062c2.694,18.896,7.163,37.495,17.514,54.015
			c1.391,2.223,1.1,3.628-0.967,4.944c-3.62,2.306-6.474,5.488-9.477,8.473c-9.243,9.186-20.067,15.561-32.734,18.688
			c-9.257,2.285-17.073,6.329-20.467,16.054c-9.341-0.317-14.249,9.55-13.484,18.354c1.146,13.206,10.052,21.843,22.287,25.761
			c15.687,5.026,28.901-0.587,41.114-10.075c7.357-5.718,14.274-11.998,22.125-17.075c0.511-0.331,1.107-0.532,1.663-0.794
			c11.101,17.188,24.533,32.357,39.73,46.017c8.003,7.195,16.687,13.428,25.685,19.327c10.743,7.04,22.397,11.896,34.458,16.027
			c4.297,1.474,9.419,1.329,12.606,5.18c4.836,5.838,8.076,12.454,9.322,20.08c1.407,8.598-0.062,17.183,0.459,25.785
			c1.194,19.695,18.473,34.75,38.087,31.406c7.534-1.285,16.047-2.276,18.218-12.168c0.115-0.521,0.746-0.93,1.135-1.393
			c0.473,0.02,0.943,0.039,1.408,0.059c-0.004-0.001,0.095,0.059,0.095,0.059c4.224,0.268,8.116,1.592,11.44,4.166
			c4.947,3.832,10.525,5.625,16.688,5.521c5.993-0.102,10.047,2.595,12.001,8.142c0.828,2.356,1.846,2.47,3.829,1.554
			c11.263-5.201,17.638-14.133,18.964-26.25c1.455-13.313-4.207-23.711-14.998-31.297c-11.986-8.425-25.508-9.848-39.638-8.234
			c-1.444,0.165-2.91,0.758-4.401,0.213c-1.004-0.793-1.262-1.773-0.816-2.984c1.033-2.803,1.933-5.662,3.078-8.417
			c4.287-10.299,7.285-20.965,8.656-32.019c0.843-6.794,0.59-6.678,7.209-8.24c2.658-0.627,3.896,0.092,4.836,2.487
			c1.088,2.784,2.506,5.409,4.596,7.649c11.961,12.849,27.578,16.37,43.994,9.939c2.16-0.846,4.48-2.459,6.77-1.441
			c4.772,2.117,8.686,0.629,12.514-2.095c8.719,10.072,17.71,12.034,28.341,5.218c8.671-5.557,11.972-14.385,11.442-24.4
			c-0.684-13.01-8.197-21.381-19.531-26.855c3.321,1.818,4.639-0.277,5.867-2.916c1.244-2.67,1.021-4.737-1.643-6.376
			c-3.531-2.171-7.546-2.677-11.47-3.116c-3.563-0.399-3.263-1.618-1.623-3.898c3.267-4.557,6.674-9.033,9.636-13.783
			c7.598-12.188,14.545-24.737,20.07-38.027c0.777-1.876,1.513-3.672,3.974-1.797c10.612,8.085,21.366,15.977,32.549,23.271
			c12.882,8.4,26.194,14.882,42.362,12.439c3.931-0.593,5.74-2.412,6.96-5.635c0.877-2.31,1.163-4.891,3.146-6.678l-0.197,0.18
			c0,0-0.177-0.198-0.175-0.197c0.656,0.203,1.118-0.063,1.468-0.605c2.46-1.643,5.048-3.126,7.358-4.961
			c5.348-4.237,6.055-10.367,1.914-15.738c-0.569-0.742-1.005-1.316-0.803-2.301c2.303-11.174-2.452-20.072-9.154-28.347
			c-0.309-0.382-0.51-0.853-0.961-1.626c5.168,0.948,9.927,2.916,15.07,2.221c0.768-0.104,1.781,0.809,2.523,1.437
			c2.664,2.263,5.863,3.216,9.082,2.381c3.379-0.876,3.578,0.927,3.638,3.196c0.273,10.524-0.004,21.034-0.674,31.54
			c-1.081,16.938-3.981,33.603-8.62,49.877c-5.027,17.632-11.206,34.894-20.014,51.063c-5.342,9.238-10.689,18.491-16.037,27.744
			c-5.867,9.766-12.996,18.588-20.408,27.195c-6.094,7.078-12.349,13.99-19.196,20.373c-17.833,16.624-37.39,30.691-59.364,41.416
			c-16.355,7.982-33.227,14.455-50.747,19.337c-23.04,6.421-46.532,9.84-70.391,10.942c-2.478,0.113-4.956,0.171-7.437,0.199
			c-4.715,0.057-8.991-1.09-13.096-3.649c-6.992-4.36-14.245-8.313-21.414-12.388c-5.526-3.139-9.982-1.414-11.234,4.729
			c-0.562,2.753-1.664,2.671-3.817,2.347c-13.732-2.06-26.882-6.103-39.93-10.797c-20.334-7.314-39.416-17.043-57.233-29.142
			c-10.697-7.263-20.882-15.288-30.409-24.116c-6.481-6.006-12.86-12.069-18.157-19.161c0.167-0.28,0.334-0.56,0.502-0.841
			c1.938,1.119,3.877,2.238,5.815,3.357c27.596,15.937,55.191,31.873,82.794,47.799c1.296,0.748,2.586,1.563,3.973,2.091
			c3.209,1.229,6.761-0.134,8.361-3.058c1.576-2.881,0.697-6.582-2.124-8.613c-1.008-0.727-2.134-1.295-3.216-1.921
			c-39.383-22.767-78.768-45.53-118.143-68.308c-1.292-0.748-2.506-1.629-3.745-2.441c0.11-2.03-1.798-2.104-2.914-2.848
			c-4.768-3.176-10.404-5.23-13.799-10.893C174.71,543.337,174.112,539.589,175.76,538.048z M342.625,646.477
			c-0.007,0.012-0.012,0.021-0.018,0.031c-1.84-1.063-3.632-2.218-5.528-3.165c-3.257-1.622-6.051-0.823-8.146,2.172
			c-2.132,3.05-2.042,5.751,0.771,8.244c3.677,3.254,8.082,5.46,12.6,7.245c3.281,1.294,6.633-0.532,7.98-3.689
			c1.276-2.996,0.22-6.112-2.799-8.018C345.904,648.299,344.248,647.413,342.625,646.477z"/>
		<path fill="#FC8119" d="M248.559,194.814c25.737-18.482,53.858-32.027,84.217-41.088c20.152-6.014,40.705-9.215,61.685-9.821
			c26.21-0.759,52.065,1.821,77.612,7.871c32.435,7.68,62.329,21.067,89.877,39.653c16.69,11.262,31.765,24.49,45.513,39.253
			c4.501,4.832,8.678,9.903,12.928,14.931c0.674,0.798,1.117,1.637,1.301,2.912c-2.598,0.213-5.04-0.634-7.536-0.896
			c-8.729-0.923-17,0.863-24.962,4.365c-0.552,0.244-1.005,0.766-1.697,0.423c-2.568-0.517-5.113-1.249-7.705-1.522
			c-16.965-1.781-32.073,3.95-45.92,12.772c-15.719,10.015-27.746,23.817-36.959,40.048c-4.319,7.607-8.631,15.225-13.178,22.697
			c-4.33,7.117-10.562,12.303-17.989,15.936c-13.245,6.477-27.192,5.651-41.104,3.176c-12.922-2.299-25.508-5.915-37.96-10.161
			c-21.289-7.261-40.886-17.286-57.467-32.715c-8.558-7.965-15.774-16.934-21.234-27.352c-6.25-11.927-11.452-24.351-17.903-36.192
			c-7.656-14.052-17.464-26.052-30.334-35.569C255.945,200.723,252.284,197.727,248.559,194.814z"/>
	</g>
	<g>
		<path fill="#FC8119" d="M478.257,377.264c0.121-0.018,0.263-0.086,0.363-0.047c4.587,1.782,4.501,1.787,4.313-3.283
			c-0.063-1.666-0.58-3.461,0.473-5.059c1.105-1.758,2.219-1.545,3.488-0.121c1.766,1.977,3.527,3.982,6.344,5.262
			c0.291-5.119-2.336-9.68-1.111-14.49c1.343,0.041,1.718,1.295,2.502,2.021c0.723,0.668,1.334,1.457,1.996,2.191
			c0.165-3.932,0.211-7.877,0.553-11.795c0.121-1.382,0.091-3.03,1.461-4.053c2.414,3.986,3.842,8.737,8.81,11.445
			c-0.51-4.428-3.263-8.074-1.671-12.234c0.88,0.672,1.758,1.342,2.831,2.161c1.114-4.61-0.55-9.466,1.14-13.987
			c2.982,2.438,4.474,6.447,8.336,8.025c0.777-3.12-2.252-5.63-1.094-8.69c1.01-5.343-0.539-11.088,2.551-16.102
			c0.694,3.289,1.502,6.53,3.821,9.646c1.099-14.016,2.966-20.064,7.802-25.135c0.25,3.146,0.432,6.06,0.741,8.96
			c0.122,1.13-0.325,2.942,1.39,2.96c1.126,0.011,1.387-1.586,1.601-2.695c1.513-7.83,5.669-14.313,10.45-20.469
			c0.748-0.963,1.576-2.461,2.877-1.994c1.67,0.601,0.834,2.479,0.725,3.645c-0.241,2.59-0.472,5.062,1.165,7.801
			c0.565-1.172,0.896-1.96,1.316-2.699c4.593-8.099,8.493-16.775,17.712-20.984c2.065-0.943,3.709-2.498,5.318-4.066
			c1.248,2.09,2.351,4.221,1.979,6.788c1.23,1.509,2.213,0.786,3.468-0.139c2.124-1.565,3.672-3.673,5.571-5.428
			c16.149-14.913,41.222-8.954,48.648,11.791c1.377,3.844,3.357,5.503,7.027,6.601c8.543,2.555,9.566,5.124,6.512,13.358
			c-0.808,2.181-2.461,4.224-2.035,6.842c1.406-0.021,1.944-0.946,2.652-1.62c9.148-8.674,11.781-8.785,21.68-0.908
			c0.391,0.31,0.758,0.652,1.119,0.996c3.537,3.362,3.496,3.67-0.322,6.776c-4.518,3.677-8.373,7.921-11.089,13.171
			c4.239-3.127,8.782-5.656,13.148-8.463c2.731-1.756,9.521-2.217,12.028-0.209c8.477,6.785,14.445,14.889,12.983,26.552
			c-0.149,1.209-0.204,2.832,1.019,2.771c4.867-0.249,4.534,3.645,5.372,6.443c1.229,4.102-1.339,11.936-4.354,14.08
			c-7.001-0.156-13.729-2.03-20.528-3.385c-13.287-2.647-26.402-6.181-39.08-10.815c-12.463-4.559-25.021-9.089-36.777-15.435
			c-4.378-2.363-8.992-4.324-13.366-6.637c-9.012-4.768-17.662-10.252-24.669-17.871c-2.518-2.734-5.676-4.524-8.951-5.994
			c-3.912-1.754-7.888,0.495-9.658,5.048c-0.764,1.968-1.535,3.936-2.307,5.901c-1.4,0.582-3.685,0.008-3.891,2.161
			c-0.168,1.764,1.833,2.144,3.021,2.962c3.189,2.193,6.416,4.35,9.141,7.125c8.528,8.688,14.834,19.094,22.061,28.777
			c7.611,10.195,15.246,20.35,24.004,29.602c9.163,9.679,18.463,19.231,28.514,27.998c1.993,1.738,4.031,4.094,7.309,3.345
			c2.64,1.87,5.29,3.724,7.906,5.628c0.561,0.408,1.39,0.843,0.994,1.76c-0.35,0.813-1.298,0.816-1.959,0.853
			c-6.416,0.354-12.738-0.423-18.467-3.359c-14.482-7.42-27.771-16.731-40.891-26.309c-10.075-7.353-19.649-15.283-28.537-24.03
			c-8.592-8.453-14.988-18.143-16.484-30.424c-0.447-3.668-0.502-7.383,0.352-11.038c0.221-0.95,0.746-1.968-0.197-2.791
			c-1.068-0.935-2.209-0.306-3.146,0.196c-1.954,1.049-3.683,2.293-5.039,4.239c-7.157,10.272-6.456,21.237-3.386,32.559
			c1.521,5.612,5.034,10.185,8.063,15.994c-10.001-1.427-15.213-8.317-20.919-14.645c0.173,4.718,4.846,14.354,8.892,18.692
			c3.658,3.923,7.514,7.6,11.948,10.65c0.64,0.439,1.836,0.824,1.356,1.912c-0.374,0.85-1.404,0.855-2.312,0.902
			c-3.04,0.16-5.98-0.229-8.69-1.655c-2.868-1.513-5.629-3.235-8.521-4.699c-2.825-1.431-4.362-4.397-7.741-6.276
			c3.1,11.879,11.79,18.564,20.727,26.243c-13.652,1.534-21.607-6.485-29.703-14.593c0.057,4.145,3.209,10.858,6.426,14.402
			c3.604,3.97,7.074,8.049,11.844,10.746c0.912,0.516,2.203,1.309,1.619,2.592c-0.604,1.33-2.104,0.799-2.997,0.383
			c-6.55-3.051-13.749-4.787-19.759-8.844c-3.225-2.174-5.502-5.65-7.766-8.91c-0.039,0.033-0.084,0.061-0.129,0.09
			c0.076-0.002,0.155,0,0.231,0c-0.435,3.623,1.379,6.698,2.512,9.918c0.597,1.693,0.618,3.159-1.249,3.582
			c-6.088,1.377-9.92,5.82-13.996,9.943c-1.789,1.81-4.021,4.009-6.272,3.32c-2.505-0.768-1.667-4.066-1.752-6.284
			c-0.151-3.955,0.489-7.917-0.004-11.89c-0.64-5.162-2.607-9.722-5.676-13.917c-1.745-2.385-2.728-1.626-3.486,0.521
			c-3.657,10.337-5.319,20.951-4.214,31.925c-2.744,4.019-1.932,8.093,0.258,11.873c2.516,4.346,6.693,6.393,11.611,6.185
			c8.563-0.363,16.152-3.579,22.813-8.906c4.856-3.883,9.836-6.951,16.361-4.24c-2.338,0.695-4.768,1.084-6.885,2.457
			c-0.938,0.607-2.283,0.912-2.408,2.129c-0.152,1.514,1.499,1.408,2.381,1.902c4.39,2.46,5.272,3.828,5.133,8.898
			c-5.852-4.29-12.111-4.766-18.394-1.979c-3.138,1.389-5.848,3.734-8.813,5.542c-15.281,9.315-27.59,4.017-36.752-8.826
			c-5.252-7.362-8.236-15.946-9.382-24.876c-1.058-8.238,0.323-16.392,4.038-23.939c1.705-3.461,3.826-6.713,6.181-10.791
			c-4.632,0.364-7.388,2.848-9.79,5.133c-10.229,9.713-14.052,21.803-11.906,35.677c1.736,11.233,6.336,21.387,13.237,30.327
			c3.984,5.164,5.294,11.787,9.835,16.578c1.051,1.107,0.355,1.922-1.309,1.908c-6.197-0.049-10.094-3.927-13.387-8.351
			c-6.196-8.32-10.136-17.733-12.295-27.933c-1.23,3.504-0.601,12.558,0.682,18.364c1.444,6.542,3.476,12.751,7.201,18.382
			c1.1,1.661,0.686,2.209-1.688,2.478c-7.288,0.827-10.896-3.114-13.162-9.112c-1.838-4.86-3.619-9.752-5.137-14.719
			c-1.514-4.954-2.379-10.074-2.988-15.713c-1.995,3.224-1.654,6.563-1.943,9.612c-0.807,8.534-0.457,17.041,2.607,25.212
			c0.789,2.108,0.238,2.476-1.988,2.258c-7.963-0.781-10.949-3.99-11.311-12.611c-0.319-7.621,0.844-15.102,2.488-22.48
			c3.012-13.521,3.941-27.077,0.746-40.643c-2.346-9.961-6.048-19.393-13.748-26.614c-3.583-3.359-7.535-6.209-12.862-5.937
			c-6.947-3.556-12.325-4.563-15.629-2.888c13.672,10.106,24.218,22.579,29.73,38.896c0.099,0.293,0.559,0.465,0.849,0.693
			c1.97,14.664-0.342,28.807-4.89,42.75c-2.621,8.036-6.73,15.282-11.006,22.471c-5.768,9.703-13.207,17.711-23.503,22.723
			c-7.866,3.828-15.892,4.613-24.082,0.968c-10.384-4.621-18.329-12.237-25.64-20.681c-7.721-8.915-15.081-18.112-22.443-27.318
			c-1.686-2.106-3.901-3.895-6.15-5.422c-4.651-3.164-9.398-2.66-14.386-0.292c-11.5,5.462-21.394,13.433-32.126,20.085
			c-6.51,4.032-13.026,7.573-21.021,7.291c-5.671-0.199-10.181-2.505-14.755-7.224c7.446-0.221,12.983-3.589,18.85-6.089
			c1.013-0.432,1.943-0.533,1.327-1.973c-1.742-4.071,0.468-4.928,4.023-5.683c13.267-2.819,23.982-10.331,33.884-19.201
			c1.474-1.319,3.011-2.566,4.522-3.851c0.531,1.357,0.528,1.354,2,0.539c5.131-2.846,10.175-5.936,16.238-6.4
			c4.982-0.377,10.344,1.053,11.777,5.485c1.81,5.597,4.758,6.818,9.908,7.943c6.786,1.484,12.015,6.347,16.615,11.617
			c7.356,8.423,12.041,18.289,15.785,28.688c0.313,0.871,0.297,2.017,1.771,2.307c0.581-2.14,1.154-4.266,1.73-6.392
			c2.89-4.795,3.38-10.121,3.007-15.494c-0.229-3.29,1.154-3.636,3.712-2.908c2.262,0.642,4.52,1.298,7.396,2.126
			c-2.71-4.916-6.604-7.596-10.903-9.769c-3.375-1.706-6.472-3.417-7.619-7.564c-0.558-2.024,0.031-2.199,1.564-2.771
			c4.613-1.721,9.276-0.703,13.923-0.539c1.608,0.059,3.206,0.396,4.78,0.602c-3.435-4.509-8.054-5.003-14.359-7.364
			c-2.74-1.027-5.709-1.806-8.787-1.429c-2.102,0.256-3.476-0.604-3.304-2.887c0.158-2.117-1.079-4.713,2.523-5.602
			c8.146-2.011,16.249-1.588,24.393-0.261c0.732,0.119,1.461,0.263,2.258,0.192c-6.591-4.225-13.39-7.864-21.51-8.091
			c-1.228-0.034-2.532-0.097-3.655-0.527c-1.593-0.611-4.537,2.294-4.799-1.75c-0.289-4.487,1.291-6.817,4.671-7.769
			c5.107-1.434,10.089-0.039,15.118,0.324c1.18,0.083,2.336,0.778,3.822,0.038c-5.155-3.721-10.519-6.547-16.499-8.022
			c-2.771-0.684-3.64-1.432-2.204-4.484c4.057-8.621,10.244-15.516,17.211-22.174c-3.013-0.02-3.013-0.02-9.87,4.764
			c1.618-5.118,4.611-9.047,7.282-14.043c-9.7,1.792-16.799,6.377-23.075,12.837c-6.2,6.38-9.838,14.347-14.339,21.892
			c-8.918-12.391-4.725-42.607,18.511-59.379c-9.653,2.597-17.569,6.476-24.386,12.777c-5.748,5.313-10.355,11.322-13.659,18.389
			c-0.409,0.874-0.775,2.219-1.809,2.184c-1.313-0.046-1.358-1.549-1.652-2.55c-4.045-13.677-0.774-26.021,6.978-37.5
			c2.7-3.999,5.8-7.67,9.77-10.591c-13.942,0.725-23.432,8.211-30.081,20.133c-7.148-12.563,0.962-31.271,19.755-45.74
			c-5.496-1.941-10.163,0.026-14.887,1.271c-5.134,1.354-8.1,5.98-12.552,8.473c-3.423-12.137,2.858-22.287,20.255-32.608
			c-7.195-2.365-13.444-0.271-19.625,2.401c-1.117,0.482-2.573,1.734-3.227,1.395c-1.221-0.638-0.793-2.369-0.683-3.699
			c0.617-7.434,4.948-12.488,10.661-16.658c1.365-0.995,3.15-1.476,4.225-3.406c-6.297-1.928-11.755-0.185-16.717,3.015
			c-2.108,1.358-2.531,0.931-3.3-1.001c-2.325-5.836,0.17-11.951,7.013-16.822c0.495-0.354,1.018-0.668,1.633-1.066
			c-4.614-1.512-10.51-0.197-14.346,3.41c-1.754,1.65-2.638,1.672-3.882-0.508c-3.48-6.097-3.135-7.825,3.594-14.987
			c-3.807-1.317-9.161,0.155-13.092,3.656c-0.979,0.871-1.654,2.403-3.354,1.247c-1.507-1.025-3.438-1.751-3.22-4.104
			c0.161-1.732,0.444-3.453,0.6-5.187c0.218-2.441-0.817-3.287-3.114-2.256c-2.362,1.063-4.037,2.906-5.378,5.051
			c-0.954,1.524-2.102,2.097-3.728,1.095c-7.064-4.356-14.786-2.412-22.287-2.216c-3.045,0.079-6.07,0.887-9.103,1.361
			c9.099-5.508,19.249-7.734,29.564-9.379c7.127-1.139,14.216,0.072,21.2,1.108c10.738,1.594,19.913,7.082,28.523,13.36
			c1.938,1.414,5.104,3.651,1.879,6.988c-0.485,0.359-0.503,0.577,0.176,0.588c5.436,1.169,10.008,3.833,13.519,8.143
			c3.627,4.451,3.419,5.575-1.133,8.027c0.752,1.473,2.334,1.747,3.574,2.487c4.695,2.802,7.778,6.912,9.585,11.992
			c0.761,2.14,0.385,3.662-2.445,3.672c-1.668,0.006-3.423,0.078-5.213,1.046c1.028,1.477,2.458,1.6,3.699,1.928
			c2.578,0.685,4.854,1.954,7.063,3.374c0.813,0.522,2.01,1.136,1.287,2.303c-1.216,1.965,0.057,3.015,1.211,4.144
			c1.273,1.244,2.178,2.731,2.944,4.305c1.177,2.415,0.527,3.692-2.288,3.168c-1.664-0.31-3.167-0.519-4.372,1.254
			c1.914,1.083,3.794,1.889,5.907,2.253c2.733,0.47,5.249,1.594,7.544,3.142c0.777,0.523,2.05,1.445,0.813,2.307
			c-3.253,2.269-0.915,3.235,0.762,4.56c1.265,1.001,2.381,2.191,3.591,3.268c2.232,1.986,1.872,2.959-1,3.945
			c-3.402,1.169-7.025,2.375-8.605,6.498c2.391-0.231,4.562-1.099,6.815-1.595c7.75-1.703,13.529,0.336,17.239,5.762
			c1.681,2.458,1.955,4.279-1.002,6.125c-2.923,1.824-5.93,3.735-7.688,6.932l-0.007-0.031c2.294,0.541,4.062-0.925,5.979-1.673
			c5.062-1.974,10.179-2.322,15.419-0.976c0.697,0.18,1.618,0.289,1.771,1.15c0.164,0.922-0.67,1.235-1.375,1.473
			c-1.17,0.394-2.901,0.654-2.635,2.106c0.325,1.77,2.299,1.727,3.738,1.735c3.417,0.023,6.573,0.799,10.044,2.691
			c-6.568,3.195-11.801,7.191-14.327,13.942c0.286,0.046,0.451,0.125,0.513,0.077c0.585-0.468,1.135-0.984,1.729-1.438
			c6.718-5.135,13.796-8.957,22.742-6.836c3.914,0.928,4.209,1.271,1.756,4.326c-2.108,2.624-3.362,5.539-4.271,9.4
			c1.384-0.994,2.148-1.615,2.979-2.129c4.25-2.627,8.416-5.477,13.802-5.028c2.393,0.201,3.253,0.705,1.435,3.097
			c-1.782,2.343-3.861,4.681-4.383,8.368c1.547-0.934,2.586-1.608,3.668-2.206c3.422-1.888,6.92-3.384,10.998-3.153
			c2.731,0.155,3.545,1.152,2.673,3.79c-0.817,2.479-1.711,4.976-1.646,7.656c0.019,0.763,0.081,1.558,1.013,1.754
			c0.737,0.156,1.096-0.461,1.469-0.943c1.222-1.577,2.326-3.259,3.656-4.737c2.308-2.558,4.381-2.452,5.903,0.51
			c1.407,2.737,2.533,5.616,2.843,8.798c0.35,3.59,0.094,7.285,1.308,11.716c0.695-1.55,1.049-2.193,1.282-2.878
			c1.369-4.023,2.777-8.058,5.059-11.649c0.926-1.458,1.898-3.579,4.173-3.248c2.206,0.321,3.202,2.156,3.959,4.101
			c1.425,3.652,1.708,7.533,2.398,11.333c0.611,3.374,0.726,6.873,2.212,10.083c1.133-0.458,0.938-1.325,1.112-2.014
			c1.433-5.673,2.302-11.525,5.387-16.67c2.655-4.428,5.798-4.414,8.245,0.225c1.689,3.207,2.764,6.67,3.528,10.236
			c0.641,2.983,0.614,6.157,2.188,9.137c1.409-0.949,1.363-2.288,1.668-3.425c1.227-4.583,2.222-9.245,4.545-13.454
			c3.241-5.875,7.057-6.432,11.957-1.828c3.773,3.547,5.644,8.156,7.262,12.892c0.94,2.743,1.381,5.683,3.399,8.25
			c0.953-1.957,0.617-3.729,0.731-5.432c0.388-5.733,0.579-11.489,2.915-16.89c1.521-3.518,3.207-4.139,6.349-1.966
			c4.034,2.79,7.325,6.392,10.474,10.12c1.184,1.4,2.273,2.893,5.004,3.82C479.425,385.494,478.188,381.457,478.257,377.264z
			 M609.838,312.517c9.239-1.577,15.122-7.19,17.127-16.042c2.303-10.154-5.74-21.501-15.714-22.801
			c-10.63-1.385-22.196,4.984-23.233,16.902c-0.171,1.947-0.146,3.91-0.211,5.867c-2.303,1.295-3.976,2.734-2.258,5.728
			c2.531,4.411,5.707,8.224,10.486,10.125C600.509,314.08,605.194,315.451,609.838,312.517z M691.139,351.445
			c2.691-4.533,1.883-11.922-1.711-15.939c-1.314-1.471-2.537-3.092-4.661-3.59c-2.831-0.662-4.732,0.648-5.665,3.051
			c-0.721,1.854-3.046,4.305,0.935,5.644c1.245,0.419,0.894,1.938,1.064,3.007c0.356,2.202,0.557,4.432,0.978,6.618
			c0.451,2.34,2.026,3.769,4.351,3.958C688.599,354.373,690.236,353.23,691.139,351.445z"/>
		<path fill="#F5C469" d="M248.559,194.814c3.725,2.912,7.387,5.909,11.187,8.719c12.868,9.519,22.677,21.519,30.333,35.57
			c6.452,11.841,11.654,24.266,17.904,36.192c5.459,10.418,12.676,19.387,21.234,27.351c16.579,15.429,36.177,25.453,57.466,32.716
			c12.453,4.247,25.039,7.862,37.959,10.161c13.914,2.475,27.859,3.299,41.106-3.177c7.427-3.634,13.659-8.817,17.989-15.935
			c4.547-7.473,8.859-15.089,13.178-22.697c9.213-16.229,21.24-30.034,36.96-40.047c13.845-8.824,28.953-14.553,45.918-12.773
			c2.593,0.271,5.136,1.004,7.705,1.521c-4.801,4.114-9.711,7.162-16.503,8.1c-19.579,2.703-35.959,11.993-49.376,26.599
			c-8.944,9.735-15.699,20.901-22.118,32.333c-4.951,8.817-10.077,17.5-17.857,24.256c-14.377,12.482-31.359,15.74-49.501,12.945
			c-31.733-4.891-62.268-13.683-89.795-30.899c-17.851-11.165-32.387-25.628-42.304-44.359c-4.095-7.736-7.965-15.617-11.475-23.635
			c-10.47-23.911-25.616-43.571-49.828-55.515C241.461,198.637,245.566,197.438,248.559,194.814z"/>
		<path fill="#F5C469" d="M478.257,377.264c-0.069,4.193,1.168,8.23,2.261,12.869c-2.73-0.926-3.822-2.42-5.004-3.819
			c-3.147-3.729-6.439-7.331-10.473-10.12c-3.143-2.172-4.828-1.551-6.349,1.965c-2.337,5.402-2.528,11.158-2.915,16.891
			c-0.115,1.703,0.221,3.475-0.732,5.432c-2.019-2.566-2.461-5.508-3.398-8.25c-1.619-4.736-3.488-9.345-7.262-12.891
			c-4.9-4.604-8.717-4.049-11.957,1.827c-2.323,4.208-3.318,8.871-4.545,13.454c-0.306,1.138-0.26,2.476-1.668,3.424
			c-1.574-2.979-1.547-6.152-2.188-9.137c-0.766-3.566-1.838-7.027-3.529-10.236c-2.447-4.638-5.59-4.651-8.244-0.223
			c-3.085,5.145-3.953,10.996-5.387,16.67c-0.174,0.688,0.02,1.555-1.113,2.013c-1.485-3.21-1.6-6.708-2.212-10.083
			c-0.69-3.801-0.974-7.682-2.397-11.332c-0.758-1.947-1.754-3.781-3.959-4.103c-2.274-0.33-3.248,1.791-4.174,3.249
			c-2.281,3.592-3.689,7.626-5.059,11.649c-0.232,0.684-0.586,1.328-1.281,2.877c-1.217-4.431-0.96-8.127-1.309-11.715
			c-0.311-3.182-1.436-6.061-2.843-8.798c-1.522-2.961-3.596-3.067-5.903-0.51c-1.331,1.477-2.435,3.16-3.656,4.736
			c-0.373,0.482-0.732,1.101-1.469,0.944c-0.931-0.198-0.993-0.991-1.013-1.755c-0.065-2.681,0.829-5.178,1.646-7.655
			c0.873-2.639,0.059-3.636-2.673-3.791c-4.078-0.229-7.578,1.267-10.997,3.155c-1.084,0.597-2.122,1.271-3.669,2.205
			c0.522-3.688,2.602-6.025,4.383-8.368c1.818-2.393,0.958-2.896-1.435-3.097c-5.387-0.45-9.553,2.4-13.802,5.028
			c-0.832,0.515-1.596,1.136-2.979,2.128c0.91-3.86,2.163-6.776,4.271-9.399c2.454-3.056,2.158-3.399-1.756-4.327
			c-8.946-2.12-16.024,1.701-22.742,6.838c-0.595,0.453-1.144,0.969-1.729,1.436c-0.063,0.05-0.229-0.029-0.514-0.075
			c2.526-6.751,7.759-10.749,14.327-13.943c-3.471-1.893-6.627-2.669-10.044-2.691c-1.44-0.009-3.413,0.034-3.738-1.735
			c-0.266-1.452,1.464-1.713,2.635-2.107c0.705-0.236,1.539-0.551,1.375-1.473c-0.153-0.86-1.074-0.971-1.771-1.149
			c-5.24-1.347-10.357-0.999-15.419,0.976c-1.918,0.748-3.685,2.214-5.979,1.673l0.007,0.031c1.758-3.196,4.765-5.107,7.688-6.933
			c2.957-1.845,2.683-3.666,1.002-6.125c-3.708-5.425-9.488-7.464-17.239-5.762c-2.254,0.496-4.425,1.363-6.816,1.596
			c1.581-4.123,5.204-5.33,8.606-6.498c2.871-0.986,3.23-1.959,1-3.945c-1.208-1.076-2.325-2.266-3.591-3.268
			c-1.677-1.325-4.014-2.291-0.761-4.559c1.236-0.863-0.038-1.784-0.813-2.308c-2.295-1.548-4.812-2.672-7.545-3.142
			c-2.112-0.363-3.992-1.17-5.907-2.252c1.205-1.774,2.708-1.565,4.372-1.255c2.816,0.525,3.464-0.753,2.288-3.168
			c-0.765-1.573-1.671-3.06-2.944-4.305c-1.154-1.13-2.427-2.181-1.211-4.144c0.722-1.167-0.475-1.779-1.288-2.303
			c-2.209-1.42-4.485-2.69-7.063-3.373c-1.24-0.33-2.67-0.453-3.699-1.928c1.789-0.968,3.545-1.041,5.213-1.047
			c2.829-0.01,3.206-1.533,2.445-3.672c-1.807-5.081-4.89-9.19-9.585-11.993c-1.24-0.739-2.822-1.014-3.575-2.486
			c4.552-2.452,4.76-3.576,1.133-8.027c-3.51-4.31-8.082-6.973-13.519-8.143c-0.054-0.198-0.112-0.396-0.177-0.591
			c3.227-3.334,0.061-5.572-1.877-6.986c-8.61-6.277-17.785-11.767-28.523-13.359c-6.983-1.037-14.073-2.247-21.2-1.109
			c-10.315,1.646-20.465,3.871-29.564,9.38c-2.406,0.822-4.636,2.355-7.901,1.943c8.18-8.419,17.483-14.227,28.308-17.128
			c26.958-7.229,49.226,2.035,68.448,20.587c11.737,11.327,18.609,25.826,25.204,40.445c5.135,11.385,10.494,22.661,18.051,32.715
			c11.016,14.651,24.163,27.012,40.245,35.896c31.756,17.541,65.753,28.192,101.872,31.723c11.227,1.098,22.186-0.903,32.542-5.494
			c1.972-0.873,2.262-0.441,2.567,1.4C476.658,369.998,477.509,373.622,478.257,377.264z"/>
		<path fill="#F5C469" d="M171.83,452.445c3.394-9.724,11.209-13.766,20.468-16.053c12.666-3.128,23.491-9.502,32.734-18.689
			c3.002-2.984,5.857-6.167,9.476-8.471c2.068-1.318,2.358-2.723,0.967-4.944c-10.35-16.521-14.818-35.12-17.514-54.015
			c-2.214-15.538-1.785-31.334-1.287-47.062c0.328-10.338,0.209-20.655-1.45-30.972c-1.965-12.215-8.628-20.423-19.442-25.719
			c0.597-0.793,1.196-1.588,1.794-2.381l-0.02,0.027c4.394-6.488,4.366-6.447,10.818-2.152
			c11.621,7.736,16.325,19.301,18.055,32.498c1.627,12.428,1.19,24.918,0.977,37.396c-0.364,21.296,0.759,42.424,6.638,63.071
			c3.521,12.368,9.26,23.654,16.258,34.359c0.704,1.077,2.049,2.335-0.296,3.055c-9.063,2.78-14.941,9.825-21.586,15.893
			c-9.627,8.79-20.323,15.644-33.428,18.159c-5.577,1.073-11.192,2.428-12.119,9.654c-0.201,1.56-1.779,1.917-3.286,1.805
			C175.906,457.637,173.183,456.018,171.83,452.445z"/>
		<path fill="#F5C469" d="M425.237,618.879c-0.39,0.465-1.021,0.873-1.136,1.393c-2.172,9.889-10.686,10.883-18.217,12.168
			c-19.615,3.343-36.896-11.713-38.088-31.406c-0.521-8.602,0.949-17.186-0.459-25.786c-1.25-7.624-4.486-14.241-9.322-20.079
			c-3.187-3.85-8.308-3.708-12.605-5.181c-12.062-4.132-23.712-8.987-34.458-16.027c-9-5.897-17.682-12.129-25.684-19.327
			c-15.198-13.659-28.63-28.827-39.73-46.017c0.249-0.274,0.446-0.634,0.753-0.813c8.854-5.205,6.547-5.63,12.421,1.95
			c10.095,13.028,20.356,25.925,32.872,36.727c19.703,17.003,41.548,30.223,67.201,36.23c2.989,0.698,4.7,2.73,6.435,4.791
			c9.653,11.474,14.393,24.607,13.366,39.719c-0.389,5.715-0.775,11.444,0.342,17.158c2.419,12.384,12.573,19.479,24.985,17.457
			c4.364-0.71,8.379-2.406,12.438-3.996C419.526,616.594,422.561,616.051,425.237,618.879z"/>
		<path fill="#F5C469" d="M651.541,445.132c-1.98,1.788-2.268,4.37-3.145,6.679c-1.221,3.222-3.031,5.042-6.959,5.635
			c-16.169,2.441-29.482-4.039-42.365-12.44c-11.183-7.294-21.934-15.185-32.548-23.271c-2.462-1.876-3.194-0.079-3.974,1.797
			c-5.525,13.289-12.473,25.84-20.07,38.025c-2.96,4.752-6.369,9.227-9.635,13.783c-1.639,2.285-1.941,3.5,1.623,3.899
			c3.924,0.44,7.939,0.946,11.47,3.117c2.665,1.64,2.886,3.708,1.642,6.376c-1.229,2.639-2.546,4.734-5.867,2.916
			c-11.215-4.631-22.397-3.672-33.564,0.352c-2.344,0.846-4.783,1.435-7.115,2.311c-1.905,0.714-1.873,0.037-1.904-1.652
			c-0.073-4.229,1.191-6.68,5.643-8.357c12.276-4.627,19.995-14.645,26.871-25.148c10.607-16.203,19.232-33.46,25.988-51.633
			c0.416-1.119,1.188-2.107,1.982-3.484c11.916,8.701,23.631,17.727,35.839,26.021c9.956,6.764,19.72,14.146,32.034,16.507
			c7.574,1.452,15.004,1.527,22.272-1.384C650.383,444.932,650.939,444.828,651.541,445.132z"/>
		<path fill="#F5C469" d="M521.461,537.686c-3.828,2.724-7.742,4.215-12.514,2.095c-2.287-1.017-4.605,0.595-6.768,1.442
			c-16.418,6.429-32.034,2.909-43.996-9.94c-2.088-2.239-3.506-4.864-4.594-7.649c-0.941-2.395-2.178-3.113-4.838-2.486
			c-6.619,1.563-6.367,1.446-7.209,8.24c-1.371,11.053-4.368,21.717-8.656,32.018c-1.146,2.756-2.044,5.614-3.076,8.418
			c-0.447,1.209-0.188,2.191,0.814,2.982c-4.16,1.142-8.318,2.28-12.639,3.463c-0.791-3.553,0.423-6.639,1.634-9.52
			c6.913-16.449,12.144-33.266,12.104-51.336c-0.004-1.509,0.707-1.734,2.039-1.932c8.264-1.222,16.53-2.52,24.455-5.27
			c2.828-0.98,2.156,1.023,2.32,2.297c1.715,13.38,10.642,22.32,23.314,23.229c6.903,0.497,13.25-1.968,19.685-3.882
			c3.464-1.029,6.853-2.318,10.333-3.287c3.041-0.85,6.145-1.07,9.141,0.357c2.24,1.068,2.828,2.63,1.523,4.84
			C523.405,533.682,521.735,535.324,521.461,537.686z"/>
		<path fill="#F5C469" d="M113.328,541.83c-19.683-11.364-39.366-22.729-59.048-34.093c-1.082-0.624-2.192-1.207-3.223-1.907
			c-2.183-1.479-2.623-3.581-1.729-5.92c0.903-2.361,2.909-2.879,5.204-2.7c1.697,0.131,3.024,1.118,4.422,1.925
			c39.477,22.784,78.952,45.572,118.422,68.368c1.398,0.808,2.88,1.505,3.932,2.815c1.602,1.992,1.886,4.125,0.33,6.182
			c-1.558,2.061-3.721,2.449-5.999,1.258c-2.319-1.217-4.55-2.604-6.821-3.916c-18.492-10.678-36.985-21.354-55.479-32.031
			C113.335,541.817,113.332,541.824,113.328,541.83z"/>
		<path fill="#F5C469" d="M699.871,372.881c3.016-2.143,5.586-9.976,4.354-14.08c-0.838-2.799-0.504-6.692-5.372-6.443
			c-1.221,0.063-1.167-1.562-1.019-2.77c1.463-11.664-4.506-19.768-12.983-26.553c-2.507-2.007-9.296-1.545-12.026,0.21
			c-4.367,2.806-8.911,5.336-13.149,8.462c2.715-5.248,6.569-9.494,11.089-13.171c3.818-3.106,3.858-3.413,0.324-6.776
			c-0.361-0.344-0.73-0.686-1.121-0.996c-9.9-7.878-12.531-7.766-21.68,0.909c-0.709,0.673-1.246,1.597-2.653,1.62
			c-0.425-2.619,1.228-4.663,2.036-6.843c3.053-8.235,2.029-10.806-6.51-13.358c-3.672-1.098-5.65-2.756-7.029-6.601
			c-7.429-20.745-32.5-26.703-48.647-11.79c-1.902,1.754-3.45,3.859-5.573,5.428c-1.254,0.925-2.236,1.648-3.465,0.139
			c5.072-5.994,10.143-11.926,17.229-15.779c19.154-10.417,40.785,1.385,44.578,18.953c0.361,1.678,1.066,2.693,3.027,3.229
			c10.759,2.937,20.256,8.357,29.482,14.586c4.914,3.318,9.937,6.455,14.687,10.049c16.96,12.832,25.849,33.229,19.347,53.984
			c-0.553,1.764-0.8,3.626-1.154,5.449C703.211,372.936,702,373.697,699.871,372.881z"/>
		<path fill="#F5C469" d="M449.909,736.126c-15.155-8.75-30.311-17.499-45.464-26.253c-0.865-0.5-1.743-0.99-2.555-1.568
			c-2.502-1.785-3.32-4.297-1.759-6.858c1.595-2.616,4.165-2.87,6.862-1.31c10.171,5.881,20.357,11.738,30.533,17.611
			c20.678,11.936,41.354,23.874,62.027,35.813c0.758,0.439,1.533,0.855,2.246,1.357c2.648,1.869,3.6,4.9,2.039,7.108
			c-1.941,2.745-4.329,2.767-7.172,1.108c-15.553-9.06-31.16-18.027-46.748-27.027C449.917,736.112,449.912,736.119,449.909,736.126
			z"/>
		<path fill="#FC8119" d="M466.596,601.633c-11.199-5.14-22.811-6.615-34.775-3.42c-7.821,2.088-15.701,4.117-22.963,7.845
			c-4.822,2.476-10.219,2.491-13.274-0.368c-2.817-2.635-3.169-6.347-3.36-9.832c-0.474-8.669,0.677-17.037,5.938-24.365
			c0.466-0.648,1.268-1.264,0.859-2.372c-2.477-0.649-3.66,1.633-5.454,2.496c-1.614-3.158,0.009-6.682,3.7-8.054
			c0.573-0.213,1.194-0.426,1.794-0.429c7.386-0.048,7.099-0.659,6.065,6.264c-0.976,6.529-0.82,13.092-0.129,19.682
			c0.361,3.44,1.904,3.721,4.697,3.071c5.98-1.387,11.738-3.83,18.004-3.914c-0.031,4.74-0.031,4.746,4.941,4.236
			c1.365-0.141,2.72-0.354,4.084-0.485C448.072,590.885,458.242,593.447,466.596,601.633z"/>
		<path fill="#F5C469" d="M95.721,475.066c-12.22-7.055-24.444-14.105-36.657-21.172c-1.081-0.625-2.154-1.272-3.161-2.006
			c-2.798-2.025-3.722-4.882-2.05-6.98c2.031-2.552,4.616-2.527,7.306-0.975c14.165,8.183,28.33,16.369,42.5,24.545
			c11.573,6.677,23.153,13.343,34.732,20.012c0.325,0.188,0.678,0.33,0.981,0.546c2.5,1.776,3.947,5.885,2.709,7.649
			c-1.575,2.244-4.666,2.487-8.093,0.516c-12.773-7.348-25.528-14.726-38.29-22.094C95.706,475.092,95.713,475.08,95.721,475.066z"
			/>
		<path fill="#F5C469" d="M175.76,538.048c-1.647,1.541-1.05,5.289-5.129,4.559c3.395,5.663,9.033,7.718,13.799,10.894
			c1.116,0.743,3.025,0.816,2.914,2.847c-25.733-14.923-51.459-29.833-77.175-44.761c-9.076-5.267-18.149-10.537-27.177-15.883
			c-1.893-1.122-4.161-1.818-5.312-3.963c4.421,2.545,8.867,5.045,13.247,7.662c1.802,1.075,2.754,0.886,3.679-1.161
			c0.844-1.87,1.119-4.623,4.262-4.386c10.509,5.992,21.04,11.944,31.526,17.976C145.532,520.541,160.639,529.307,175.76,538.048z"
			/>
		<path fill="#F5C469" d="M634.695,425.664c-3.277,0.749-5.316-1.606-7.31-3.346c-10.05-8.766-19.351-18.318-28.514-27.998
			c-8.757-9.25-16.392-19.403-24.003-29.601c-7.229-9.685-13.535-20.091-22.062-28.776c-2.725-2.776-5.95-4.931-9.14-7.127
			c-1.189-0.816-3.189-1.195-3.021-2.96c0.204-2.155,2.489-1.581,3.89-2.161c6.815,0.137,11.297,4.338,15.137,9.177
			c9.707,12.231,18.279,25.288,27.129,38.134c11.705,16.992,24.577,32.994,39.418,47.336
			C628.876,420.91,631.922,423.158,634.695,425.664z"/>
		<path fill="#FC8119" d="M541.516,529.229c-0.102,1.152-1.059,1.541-2.244,2.456c0.383-3.571-0.059-6.697-1.465-9.593
			c-3.93-8.113-11.316-10-19.289-9.966c-9.062,0.038-17.369,3.962-26.041,6.035c-2.896,0.692-5.746,1.557-8.771,1.206
			c-3.43-0.396-6.822-3.336-7.451-6.42c-0.861-4.218,0.532-7.541,4.045-9.6c0.311-0.182,0.673-0.271,1.012-0.404
			c1.936-0.746,3.871-3.096,5.575-2.359c2.396,1.034-0.107,3.579,0.248,5.553c0.483,2.707,0.843,3.922,4.174,2.984
			c5.9-1.658,11.771-3.717,18.03-3.779c0.637,2.377,2.495,1.5,3.988,1.447c7.094-0.247,14.188-0.526,20.611,3.339
			C541.447,514.639,544.702,522.852,541.516,529.229z"/>
		<path fill="#F5C469" d="M317.07,479.342c-0.576,2.127-1.149,4.254-1.729,6.392c-1.472-0.291-1.455-1.437-1.771-2.307
			c-3.743-10.399-8.43-20.266-15.785-28.688c-4.601-5.271-9.828-10.135-16.615-11.617c-5.151-1.122-8.1-2.345-9.909-7.943
			c-1.433-4.432-6.794-5.864-11.777-5.485c-6.063,0.464-11.106,3.555-16.238,6.4c-1.472,0.815-1.47,0.817-2-0.539
			c4.49-4.747,9.269-9.097,15.638-11.228c9.041-3.027,17.48,0.729,21.092,9.471c0.528,1.276,1.092,1.967,2.57,2.228
			c11.774,2.06,19.935,9.242,26.157,18.945c3.827,5.97,6.958,12.286,8.544,19.284C315.643,475.999,316.451,477.649,317.07,479.342z"
			/>
		<path fill="#F5C469" d="M574.462,273.477c-1.61,1.568-3.255,3.125-5.319,4.067c-9.218,4.207-13.119,12.885-17.712,20.983
			c-0.42,0.739-0.749,1.529-1.315,2.699c-1.637-2.738-1.406-5.211-1.166-7.801c0.109-1.164,0.946-3.044-0.725-3.645
			c-1.301-0.467-2.129,1.032-2.877,1.994c-4.781,6.156-8.938,12.639-10.45,20.469c-0.214,1.107-0.474,2.706-1.601,2.695
			c-1.713-0.016-1.267-1.828-1.39-2.96c-0.31-2.899-0.491-5.813-0.739-8.958c-4.838,5.068-6.705,11.117-7.803,25.133
			c-2.318-3.115-3.129-6.355-3.822-9.645c-0.559-4.101,0.332-8.022,2.551-11.352c9.051-13.593,20.197-24.955,35.793-30.889
			C563.113,274.281,568.512,271.846,574.462,273.477z"/>
		<path fill="#F5C469" d="M194.546,386.091c0.053,0.871,0.133,1.739,0.158,2.605c0.105,3.839-2.6,5.692-6.163,4.177
			c-1.027-0.434-1.981-1.047-2.952-1.606c-12.295-7.108-24.612-14.181-36.853-21.381c-1.634-0.96-3.732-1.12-4.935-2.798
			c0.389-2.438,0.814-4.889,1.151-7.349c0.293-2.134,1.075-2.345,2.921-1.235C163.365,367.812,179.286,376.392,194.546,386.091z"/>
		<path fill="#F5C469" d="M95.051,423.688c-6.166-3.56-12.325-7.129-18.498-10.674c-2.043-1.175-3.076-2.828-2.758-5.244
			c0.239-1.809,1.267-2.825,2.913-3.533c1.504-0.646,2.679-0.071,3.868,0.598c12.617,7.119,25.242,14.221,37.813,21.423
			c2.623,1.502,3.892,5.352,2.483,7.296c-2.047,2.828-4.703,2.284-7.31,0.791c-6.176-3.539-12.333-7.113-18.499-10.673
			C95.057,423.677,95.054,423.683,95.051,423.688z"/>
		<path fill="#F5C469" d="M101.504,399.005c-5.514-3.184-11.038-6.348-16.536-9.558c-3.165-1.848-4.094-4.471-2.603-7.078
			c1.371-2.398,4.162-3.015,7.189-1.296c11.073,6.284,22.115,12.626,33.132,19.009c2.928,1.699,4.031,5.051,2.606,7.233
			c-1.587,2.435-4.326,2.849-7.551,1.015c-5.427-3.082-10.816-6.231-16.223-9.353C101.514,398.988,101.509,398.996,101.504,399.005z
			"/>
		<path fill="#F5C469" d="M505.313,447.959c-6.523-2.711-11.504,0.357-16.361,4.24c-6.658,5.327-14.248,8.544-22.813,8.906
			c-4.918,0.209-9.097-1.84-11.61-6.186c-2.188-3.781-3.001-7.855-0.257-11.873c0.181,0.464,0.42,0.91,0.534,1.391
			c3.361,13.963,14.319,13.025,22.975,9.098c4.385-1.988,7.452-5.766,11.212-8.606c4.198-3.175,8.77-4.622,13.938-2.333
			c2.729,1.209,4.804,3.004,5.792,6.114C507.353,449.26,506.432,448.059,505.313,447.959z"/>
		<path fill="#F5C469" d="M114.897,321.813c-3.569-2.063-7.153-4.1-10.704-6.192c-2.777-1.637-2.994-4.03-1.707-6.69
			c1.316-2.722,3.504-2.982,5.899-1.621c7.382,4.195,14.752,8.413,22.04,12.768c2.62,1.564,3.275,4.009,1.611,6.712
			c-1.65,2.68-3.928,2.665-6.434,1.212C122.04,325.93,118.465,323.876,114.897,321.813z"/>
		<path fill="#F5C469" d="M378.645,417c-0.291-0.229-0.75-0.4-0.849-0.693c-5.514-16.317-16.059-28.791-29.729-38.896
			c3.301-1.676,8.682-0.669,15.628,2.888c12.399,8.668,14.895,21.717,15.694,35.5C379.412,416.183,378.906,416.598,378.645,417z"/>
		<path fill="#F5C469" d="M130.844,290.305c2.92,1.687,5.865,3.332,8.754,5.07c2.785,1.676,4.093,5.054,2.628,7.284
			c-1.789,2.725-4.549,2.512-6.967,1.204c-6.367-3.438-12.698-6.971-18.828-10.809c-2.184-1.366-2.265-4.004-0.989-6.304
			c1.244-2.24,3.167-3.248,5.602-1.946c3.303,1.764,6.503,3.719,9.747,5.592C130.809,290.366,130.827,290.336,130.844,290.305z"/>
		<path fill="#FC8119" d="M665.504,597.195c-6.083-3.439-12.217-6.799-18.225-10.361c-2.5-1.482-3.678-3.604-1.859-6.587
			c1.814-2.977,3.938-2.874,6.608-1.265c5.562,3.345,11.476,6.098,16.761,9.902c-0.54,1.096,0.434,1.459,0.953,2.097
			c1.648,2.021,0.641,5.152-1.841,5.697C667.105,596.854,666.171,596.377,665.504,597.195z"/>
		<path fill="#FC8119" d="M243.703,171.822c-0.679,4.958-3.443,6.579-7.616,4.264c-5.316-2.953-10.542-6.072-15.791-9.149
			c-2.176-1.273-3.719-2.991-3.083-5.741c0.642-2.775,2.682-3.564,5.281-3.377c2.019,1.203,4.096,2.32,6.046,3.627
			C233.629,164.854,239.799,166.686,243.703,171.822z"/>
		<path fill="#F5C469" d="M466.596,601.633c-8.354-8.186-18.521-10.75-29.873-9.645c-1.363,0.132-2.719,0.344-4.084,0.485
			c-4.974,0.508-4.974,0.502-4.94-4.237c9.286-2.461,18.613-3.607,28.025-0.721c5.272,1.617,9.291,4.727,11.248,10.061
			C467.471,598.939,468.256,600.426,466.596,601.633z"/>
		<path fill="#F5C469" d="M685.594,537.033c2.27,1.311,4.594,2.54,6.797,3.953c2.508,1.609,3.067,3.941,1.535,6.453
			c-1.49,2.445-3.795,3.279-6.424,1.831c-4.701-2.593-9.379-5.234-13.947-8.051c-2.638-1.626-3.135-4.122-1.529-6.794
			c1.572-2.613,3.881-2.926,6.444-1.528c2.411,1.315,4.763,2.733,7.142,4.106C685.605,537.014,685.6,537.023,685.594,537.033z"/>
		<path fill="#F5C469" d="M502.807,692.805c1.939,1.125,3.897,2.221,5.823,3.373c2.745,1.646,2.652,4.021,1.409,6.477
			c-1.213,2.397-3.295,3.046-5.67,1.879c-4.475-2.2-8.778-4.719-12.842-7.618c-2.348-1.676-2.566-4.001-1.035-6.229
			c1.5-2.184,3.635-2.946,6.168-1.442C498.696,690.452,500.758,691.616,502.807,692.805z"/>
		<path fill="#F5C469" d="M541.516,529.229c3.187-6.377-0.066-14.592-7.575-19.105c-6.424-3.863-13.519-3.585-20.612-3.34
			c-1.493,0.053-3.353,0.932-3.99-1.445c8.268-2.833,16.631-4.178,25.199-1.424c9.409,3.026,14.242,13.031,10.482,21.805
			C544.365,527.245,543.977,529.361,541.516,529.229z"/>
		<path fill="#F5C469" d="M710.382,442.342c1.833,1.059,3.704,2.055,5.491,3.191c2.292,1.456,3.235,3.612,1.992,6.082
			c-1.291,2.559-3.844,3.527-6.342,2.328c-4.142-1.992-8.178-4.292-11.966-6.89c-2.37-1.624-2.181-4.294-0.817-6.7
			c1.416-2.495,3.564-2.424,5.78-1.304c1.997,1.011,3.894,2.219,5.835,3.34C710.363,442.373,710.373,442.357,710.382,442.342z"/>
		<path fill="#FC8119" d="M671.429,560.794c2.259,1.304,4.567,2.532,6.765,3.934c2.439,1.554,2.678,3.955,1.371,6.175
			c-1.35,2.297-3.584,2.946-6.09,1.507c-4.309-2.479-8.648-4.911-12.909-7.472c-2.471-1.482-3.438-3.873-1.915-6.338
			s3.912-3.283,6.709-1.458c1.975,1.289,4.076,2.382,6.121,3.562C671.463,560.734,671.445,560.765,671.429,560.794z"/>
		<path fill="#F5C469" d="M715.392,414.9c1.731,1,3.532,1.895,5.176,3.021c2.479,1.701,2.798,4.084,1.37,6.567
			c-1.418,2.468-3.691,2.953-6.113,1.635c-3.729-2.03-7.361-4.241-11.012-6.411c-2.711-1.611-2.86-4.043-1.5-6.453
			c1.381-2.437,3.756-2.798,6.186-1.639c2.023,0.965,3.912,2.216,5.858,3.34C715.367,414.942,715.379,414.922,715.392,414.9z"/>
		<path fill="#FC8119" d="M689.298,519.527c-1.718-0.992-3.454-1.963-5.157-2.986c-2.436-1.461-2.543-3.748-1.34-5.814
			c1.176-2.028,3.451-3.228,5.719-2.142c3.684,1.765,7.271,3.819,10.632,6.138c2.316,1.598,2.558,4.168,1.098,6.608
			c-1.438,2.405-3.608,2.37-5.835,1.246c-1.77-0.892-3.449-1.965-5.17-2.958C689.262,519.589,689.279,519.559,689.298,519.527z"/>
		<path fill="#FC8119" d="M98.868,493.855c-3.143-0.238-3.418,2.517-4.262,4.386c-0.923,2.045-1.876,2.236-3.679,1.161
			c-4.379-2.617-8.826-5.117-13.247-7.662c-2.326-2.081-1.07-4.154,0.335-5.847c1.791-2.157,4.258-1.829,6.437-0.59
			C89.307,488.067,94.069,490.994,98.868,493.855z"/>
		<path fill="#FC8119" d="M625.072,620.69c-1.729-0.998-3.494-1.936-5.174-3.007c-2.383-1.521-2.419-3.673-1.108-5.842
			c1.321-2.191,3.354-3.027,5.741-1.775c3.201,1.678,6.354,3.463,9.445,5.343c2.676,1.628,2.564,4.062,1.303,6.487
			c-1.292,2.482-3.395,2.701-5.715,1.493c-1.549-0.805-3.033-1.73-4.545-2.604C625.037,620.753,625.055,620.722,625.072,620.69z"/>
		<path fill="#FC8119" d="M438.738,607.953c10.832-2.43,22.84,2.041,25.884,9.525C454.938,617.236,446.614,613.934,438.738,607.953z
			"/>
		<path fill="#F5C469" d="M492.127,359.525c-1.225,4.811,1.402,9.373,1.11,14.491c-2.815-1.28-4.577-3.286-6.343-5.263
			c-1.27-1.423-2.384-1.637-3.488,0.123c-1.533-7.299,0.088-11.063,7.324-16.014C491.229,355.234,491.678,357.381,492.127,359.525z"
			/>
		<path fill="#FC8119" d="M393.605,553.958c2.47-3.421,11.086-6.03,14.941-4.438c2.896,1.198,1.366,3.63,1.232,5.521
			c-0.113,1.573-0.85,2.505-3.032,2.129c-3.813-0.656-7.677-1.51-11.616-0.86c-0.729,0.12-1.572,0.278-2.084-0.399
			C392.449,555.119,393.2,554.551,393.605,553.958z"/>
		<path fill="#F5C469" d="M495.057,726.844c-1.564,2.857-4.764,3.789-7.684,2.242c-2.808-1.486-4.076-5.461-2.553-7.998
			c1.632-2.718,4.99-3.527,7.834-1.889C495.552,720.871,496.563,724.089,495.057,726.844z"/>
		<path fill="#F5C469" d="M702.402,467.457c3.219,1.865,4.35,5.396,2.639,8.252c-1.629,2.716-5.282,3.486-8.219,1.729
			c-2.853-1.706-3.846-5.362-2.195-8.083C696.289,466.616,699.568,465.814,702.402,467.457z"/>
		<path fill="#F5C469" d="M516.99,334.61c-1.158,3.061,1.871,5.571,1.094,8.69c-3.863-1.578-5.355-5.589-8.336-8.025
			c-1.043-5.646-0.616-7.598,3.559-14.852c0.42,4.7,2.059,8.294,2.85,12.141c-0.014,0.815,0.15,1.566,0.756,2.164L516.99,334.61z"/>
		<path fill="#FC8119" d="M404.014,541.281c-2.504-0.753-2.243-1.453-1.406-2.447c1.859-2.209,4.295-3.411,7.033-3.838
			c1.92-0.299,4.408-0.633,5.268,1.598c0.799,2.079-0.521,4.306-1.064,6.43c-0.168,0.656-1.052,0.754-1.617,0.566
			C409.195,542.581,406.222,541.385,404.014,541.281z"/>
		<path fill="#F5C469" d="M20.667,476.949c2.459,1.384,3.431,4.734,1.896,7.05c-1.712,2.584-3.999,3.091-6.731,1.511
			c-2.6-1.504-3.514-4.498-2.061-6.94C15.07,476.388,18.314,475.627,20.667,476.949z"/>
		<path fill="#F5C469" d="M546.192,780.183c2.51,1.349,3.59,4.628,2.317,7.03c-1.314,2.486-4.455,3.301-7.049,1.828
			c-2.52-1.43-3.417-4.499-2.063-7.037C540.608,779.745,543.791,778.891,546.192,780.183z"/>
		<path fill="#F5C469" d="M505.775,347.102c-1.592,4.158,1.16,7.807,1.671,12.234c-4.966-2.707-6.396-7.459-8.81-11.445
			c-0.675-4.073,2.539-6.42,4.188-10.168C504.555,341.074,503.891,344.52,505.775,347.102z"/>
		<path fill="#F5C469" d="M464.939,709.789c-0.976,2.156-2.693,2.895-4.954,2.58c0.452-0.759,0.374-1.426-0.353-1.975
			c2.185-2.852-0.956-3.715-2.017-5.338c-0.37-0.572-1.06-0.844-1.481-0.146c-0.955,1.562-0.068,3.071,0.403,4.541
			c0.476,1.486,1.917,0.628,2.862,1.006c-0.344,0.803-0.064,1.412,0.584,1.911c-4.127-0.804-6.135-3.334-5.438-6.862
			c0.484-2.456,3.563-4.521,6.272-4.213c3.292,0.377,5.136,3.096,4.761,7.036c-1.463-1.142-0.811-3.462-2.484-4.479
			c-0.797-0.483-1.98-1.545-2.451-0.223c-0.75,2.108,1.823,3.563,1.713,5.859C462.311,710.465,464.018,709.805,464.939,709.789z"/>
		<path fill="#F5C469" d="M667.09,287.18c-4.959-2.995-9.591-5.09-14.449-6.586c-2.919-0.896-2.918-3.643-4.636-5.604
			C656.027,274.866,663.885,279.794,667.09,287.18z"/>
		<path fill="#FC8119" d="M518.992,775.193c-1.76-1.33-3.086-2.909-1.748-5.304c1.248-2.235,3.245-2.731,5.394-1.563
			c2.114,1.149,2.845,3.128,1.812,5.394C523.305,776.23,521.254,776.078,518.992,775.193z"/>
		<path fill="#F5C469" d="M148.363,342.063c0.822,1.884,2.228,3.097,4.022,4.127c21.702,12.448,43.365,24.963,65.032,37.47
			c1.17,0.676,2.518,1.14,3.231,2.435c-23.197-13.352-46.403-26.687-69.566-40.095C149.695,345.195,147.102,344.854,148.363,342.063
			z"/>
		<path fill="#F5C469" d="M140.232,266.033c2.024,1.43,3.198,3.075,2.04,5.437c-1.014,2.065-4.352,2.952-6.147,1.574
			c-1.901-1.463-2.378-3.61-1.243-5.646C136.098,265.22,138.176,265.063,140.232,266.033z"/>
		<path fill="#F5C469" d="M577.379,719.693c-2.414-1.662-2.914-3.706-1.74-5.992c1.207-2.353,3.33-2.574,5.408-1.386
			c2.288,1.304,2.844,3.496,1.611,5.787C581.443,720.364,579.379,720.445,577.379,719.693z"/>
		<path fill="#F5C469" d="M645.494,415.277c-1.064,1.843-1.826,3.55-3.841,1.99c-1.62-1.256-4.248-2.045-3.583-4.762
			c0.418-1.701,7.637-5.199,8.166-4.289C647.731,410.788,646.074,413.26,645.494,415.277z"/>
		<path fill="#FC8119" d="M726.928,492.332c-2.108-1.262-2.887-2.898-1.807-5.054c1.074-2.146,2.919-2.663,4.925-1.527
			c1.882,1.065,2.904,2.833,1.731,4.978C730.693,492.715,728.984,493.445,726.928,492.332z"/>
		<path fill="#FC8119" d="M51.808,472.182c-1.395,1.461-2.998,2.724-5.118,1.489c-1.957-1.142-2.571-3.123-1.618-5.158
			c1.083-2.307,3.202-2.181,5.093-1.22C52.08,468.263,52.437,470.072,51.808,472.182z"/>
		<path fill="#F5C469" d="M633.711,660.559c-1.362,2.146-3.357,2.654-5.446,1.449c-2.04-1.178-2.919-3.211-1.621-5.416
			c1.239-2.109,3.253-2.697,5.451-1.436C634.235,656.387,634.867,658.23,633.711,660.559z"/>
		<path fill="#F5C469" d="M627.906,366.854c-1.496,2.206-7.138,4.703-8.11,3.423c-1.608-2.115-1.165-5.262,0.21-6.584
			c2.5-2.408,4.867,1.258,7.496,1.537C628.527,365.336,628.342,366.188,627.906,366.854z"/>
		<path fill="#F5C469" d="M646.618,372.004c0.113,0.065,0.716,0.272,0.701,0.428c-0.249,2.83-2.718,3.625-4.685,4.697
			c-1.12,0.609-2.977,1.472-3.42-0.997c-0.263-1.456-0.359-2.945-0.477-4.423c-0.115-1.463,0.482-2.087,1.992-1.587
			C642.609,370.745,644.502,371.33,646.618,372.004z"/>
		<path fill="#F5C469" d="M89.851,342.376c1.781,1.417,3.049,2.89,1.626,5.136c-1.369,2.162-3.474,2.672-5.476,1.442
			c-2.102-1.292-2.221-3.648-0.948-5.584C86.183,341.65,88.039,341.252,89.851,342.376z M90.406,347.033
			c0.679-1.407-0.087-2.16-1.086-2.777c-1.084-0.665-2.399-1.316-3.175,0.121c-0.557,1.033-0.531,2.533,0.671,3.309
			C88.128,348.531,89.371,347.884,90.406,347.033z"/>
		<path fill="#F5C469" d="M619.286,390.494c-1.253,0.572-0.801,3.792-3.1,2.404c-1.696-1.025-3.743-2.502-3.547-5.062
			c0.06-0.78,6.971-2.93,7.534-2.305C621.885,387.441,619.627,388.754,619.286,390.494z"/>
		<path fill="#F5C469" d="M657.983,376.078c2.559-0.805,4.741,0.682,7.036,1.115c1.183,0.225,1.23,1.168,0.438,1.938
			c-1.881,1.821-3.689,5.026-6.473,3.753C656.904,381.932,657.746,378.657,657.983,376.078z"/>
		<path fill="#F5C469" d="M631.37,403.891c-1.112,0.702-0.956,3.863-3.28,1.9c-1.412-1.195-3.918-2.051-3.287-4.668
			c0.266-1.096,6.367-2.973,7.125-2.204C633.68,400.692,631.757,402.219,631.37,403.891z"/>
		<path fill="#F5C469" d="M683.226,383.57c-1.624,1.786-3.214,4.44-5.685,3.059c-1.863-1.042-1.428-3.964-1.412-6.146
			c0.004-0.565,6.365,0.035,7.264,0.729C684.613,382.156,683.751,382.896,683.226,383.57z"/>
		<path fill="#FC8119" d="M417.086,521.766c0.096,2.137,1.813,4.678-0.545,5.779c-1.045,0.492-4.408-1.078-4.433-1.798
			C412.003,522.877,415.873,523.941,417.086,521.766z"/>
		<path fill="#F5C469" d="M602.518,353.535c2.5,0.994,3.953,3.413,6.845,4.094c-1.964,2.721-4.546,3.193-7.136,3.43
			c-1.513,0.137-1.832-0.871-1.372-2.223C601.432,357.129,601.938,355.398,602.518,353.535z"/>
		<path fill="#F5C469" d="M608.454,372.92c-1.472,2.843-1.481,6.162-4.409,6.154c-1.356-0.006-3.811-3.068-3.016-4.502
			C602.289,372.297,605.375,373.197,608.454,372.92z"/>
		<path fill="#F5C469" d="M665.504,597.195c0.667-0.818,1.602-0.342,2.396-0.518c2.482-0.547,3.489-3.678,1.84-5.697
			c-0.521-0.638-1.492-1.002-0.952-2.098c3.315,1.658,4.663,4.193,3.216,6.645C670.491,598.094,668.334,599.23,665.504,597.195z"/>
		<path fill="#F5C469" d="M635.961,560.996c5.348-9.256,10.697-18.508,16.037-27.744
			C647.146,542.797,642.331,552.347,635.961,560.996z"/>
		<path fill="#F5C469" d="M243.703,171.822c-3.903-5.137-10.074-6.969-15.163-10.377c-1.951-1.307-4.027-2.424-6.046-3.628
			c6.229,1.876,11.146,6.223,16.913,8.976C241.526,167.805,243.646,168.975,243.703,171.822z"/>
		<path fill="#F5C469" d="M426.74,618.994c0,0-0.1-0.06-0.095-0.059C426.65,618.936,426.74,618.994,426.74,618.994z"/>
		<polygon fill="#FC8119" points="197.556,244.168 197.575,244.141 197.532,243.999 		"/>
		<path fill="#F5C469" d="M652.637,444.51c-0.348,0.545-0.811,0.809-1.467,0.604C651.514,444.563,652.025,444.41,652.637,444.51z"/>
		<path fill="#FC8119" d="M516.912,334.729c-0.605-0.598-0.77-1.35-0.756-2.164C517.217,333.004,518.437,333.386,516.912,334.729z"
			/>
		<path fill="#013F54" d="M342.625,646.477c1.623,0.937,3.278,1.822,4.86,2.824c3.018,1.902,4.076,5.021,2.8,8.017
			c-1.349,3.154-4.701,4.983-7.981,3.688c-4.519-1.783-8.925-3.99-12.6-7.244c-2.814-2.494-2.902-5.193-0.771-8.244
			c2.094-2.996,4.889-3.795,8.146-2.172c1.897,0.945,3.689,2.102,5.528,3.164C342.613,646.497,342.62,646.486,342.625,646.477z"/>
		<path fill="#013F54" d="M587.807,296.445c0.065-1.957,0.041-3.92,0.21-5.867c1.038-11.918,12.604-18.288,23.233-16.902
			c9.976,1.299,18.018,12.645,15.715,22.801c-2.004,8.85-7.889,14.463-17.129,16.043
			C596.615,311.859,592.279,308.696,587.807,296.445z M604.803,295.955c2.418,1.365,5.389,0.588,6.754-1.764
			c1.572-2.703,0.783-5.051-2.224-6.746c-2.696-1.523-4.728-0.769-6.237,1.773C601.646,291.661,602.409,294.605,604.803,295.955z"/>
		<path fill="#013F54" d="M691.139,351.445c-0.903,1.785-2.54,2.928-4.71,2.748c-2.324-0.189-3.901-1.619-4.351-3.958
			c-0.421-2.187-0.621-4.417-0.978-6.618c-0.171-1.066,0.181-2.588-1.064-3.007c-3.98-1.339-1.654-3.791-0.935-5.644
			c0.932-2.402,2.834-3.713,5.665-3.051c2.124,0.498,3.347,2.119,4.661,3.59C693.021,339.523,693.832,346.914,691.139,351.445z"/>
		<path fill="#F5C469" d="M587.807,296.445c4.473,12.251,8.809,15.416,22.027,16.072c-4.641,2.932-9.328,1.563-13.801-0.22
			c-4.779-1.901-7.953-5.714-10.486-10.124C583.831,299.18,585.504,297.74,587.807,296.445z"/>
		<path fill="#F5C469" d="M299.862,335.918l0.007,0.031L299.862,335.918z"/>
		<path fill="#013F54" d="M488.41,415.93c-0.076,0-0.154,0-0.23,0c0.045-0.027,0.09-0.055,0.129-0.088
			C488.303,415.836,488.41,415.93,488.41,415.93z"/>
		<path fill="#F5C469" d="M248.063,236.913c-0.679-0.011-0.66-0.23-0.176-0.589C247.952,236.517,248.009,236.715,248.063,236.913z"
			/>
		<path fill="#FC8119" d="M459.399,710.457c-0.946-0.379-2.385,0.479-2.861-1.006c-0.474-1.471-1.358-2.979-0.403-4.541
			c0.424-0.697,1.11-0.425,1.481,0.146c1.061,1.623,4.2,2.488,2.017,5.338L459.399,710.457z"/>
		<path fill="#FC8119" d="M464.939,709.789c-0.923,0.017-2.629,0.677-2.582-0.301c0.109-2.297-2.465-3.752-1.715-5.86
			c0.473-1.321,1.657-0.261,2.451,0.224c1.675,1.018,1.023,3.338,2.484,4.48C465.367,708.813,465.152,709.301,464.939,709.789z"/>
		<path fill="#FC8119" d="M459.633,710.393c0.728,0.549,0.805,1.216,0.354,1.975h-0.001c-0.649-0.498-0.929-1.107-0.585-1.91
			C459.399,710.457,459.633,710.393,459.633,710.393z"/>
		<path fill="#FC8119" d="M90.406,347.033c-1.037,0.85-2.279,1.5-3.591,0.651c-1.202-0.774-1.228-2.275-0.671-3.308
			c0.777-1.439,2.092-0.788,3.175-0.121C90.32,344.873,91.086,345.627,90.406,347.033z"/>
		<path fill="#F5C469" d="M604.803,295.955c-2.394-1.35-3.156-4.294-1.707-6.736c1.508-2.543,3.541-3.297,6.237-1.773
			c3.007,1.697,3.796,4.043,2.224,6.746C610.191,296.544,607.221,297.32,604.803,295.955z"/>
	</g>
</g>
</svg>
