<?xml version="1.0" encoding="utf-8"?>
<!-- Generator: Adobe Illustrator 16.0.3, SVG Export Plug-In . SVG Version: 6.00 Build 0)  -->
<!DOCTYPE svg PUBLIC "-//W3C//DTD SVG 1.1//EN" "http://www.w3.org/Graphics/SVG/1.1/DTD/svg11.dtd">
<svg version="1.1" id="Layer_1" xmlns="http://www.w3.org/2000/svg" xmlns:xlink="http://www.w3.org/1999/xlink" x="0px" y="0px"
	 width="822.047px" height="822.047px" viewBox="0 0 822.047 822.047" enable-background="new 0 0 822.047 822.047"
	 xml:space="preserve">
<rect fill="#013F54" width="822.047" height="822.047"/>
<g>
	<g>
		<path fill="#FC8119" d="M143.767,403.398c0.5,0.512,1.001,1.023,1.603,1.64c1.417-2.106,0.538-4.476,1.085-6.593
			c0.213-0.819,0.04-1.892,1.17-2.061c0.898-0.135,1.217,0.762,1.582,1.368c1.993,3.322,3.972,6.653,5.911,10.007
			c26.575,45.993,53.139,91.99,79.714,137.983c1.125,1.947,2.166,3.959,3.455,5.794c2.527,3.607,5.719,4.372,8.975,2.336
			c3.198-1.999,3.688-4.617,1.299-8.755c-8.368-14.508-16.848-28.949-25.232-43.448c-24.02-41.55-47.902-83.18-72.147-124.6
			c-3.486-5.957-4.599-11.389-3.243-18.16c3.883-19.432,8.608-38.58,16.225-56.927c6.21-14.965,13.675-29.269,22.905-42.606
			c2.244-3.24,2.55-3.093,4.541,0.392c10.167,17.795,20.331,35.591,30.528,53.366c0.737,1.287,1.581,2.584,2.639,3.602
			c2.536,2.441,6.415,2.667,8.831,0.465c2.552-2.326,2.746-5.221,1.102-8.139c-3.065-5.444-6.259-10.815-9.385-16.226
			c-8.063-13.963-15.955-28.025-24.273-41.834c-2.618-4.347-4.427-7.94,0.517-11.639c0.201,2.056,1.94,3.241,2.875,4.89
			c7.001,12.355,14.131,24.64,21.226,36.942c0.561,0.972,1.081,1.979,1.753,2.868c2.329,3.091,5.598,2.842,7.425-0.535
			c0.413-0.764,0.777-1.556,1.167-2.336c3.168,5.315,6.353,10.624,9.499,15.953c2.249,3.814,5.308,5.75,8.283,4.911
			c3.919-1.106,4.855-4.192,4.824-7.812c0.031-1.479-0.906-2.554-1.582-3.723c-12.511-21.667-25.015-43.337-37.585-64.967
			c-1.039-1.79-1.648-3.544-1.419-5.586c4.334-4.758,9.02-9.064,14.09-13.102c4.801-3.821,9.499-7.804,14.357-11.594
			c12.229-9.535,25.521-17.338,39.112-24.705c6.873-3.726,13.836-7.185,21.275-9.631c6.717,9.994,8.383,20.434,3.978,31.994
			c-3.721,9.764-8.776,18.759-14.229,27.548c-8.295,13.371-16.568,26.838-22.416,41.399c-7.115,17.713-12.544,36.054-11.84,55.535
			c0.093,2.621-0.861,3.692-3.31,3.799c-4.288,0.187-8.351,1.516-12.443,2.599c-12.597,3.334-25.159,3.442-37.692-0.183
			c-9.16-2.649-17.95-3.056-25.752,3.669c-7.931-4.945-17.115,1.146-20.855,9.153c-5.61,12.01-2.216,23.943,6.42,33.453
			c11.072,12.196,25.323,13.942,40.644,11.832c9.23-1.273,18.361-3.254,27.698-3.726c0.608-0.031,1.225,0.093,1.837,0.144
			c1.019,20.437,5.067,40.289,11.399,59.717c3.333,10.233,7.737,19.973,12.58,29.58c5.784,11.469,13.449,21.501,21.828,31.109
			c2.984,3.425,7.493,5.861,8.327,10.789c1.269,7.473,0.767,14.823-1.967,22.051c-3.08,8.149-8.645,14.85-12.495,22.561
			c-8.813,17.653-1.377,39.33,17.281,46.241c7.167,2.654,15.035,6.052,21.861-1.429c0.361-0.395,1.111-0.432,1.679-0.639
			c0.399,0.254,0.797,0.506,1.19,0.755c-0.002-0.003,0.053,0.099,0.053,0.099c3.524,2.344,6.233,5.436,7.825,9.328
			c2.369,5.791,6.303,10.134,11.692,13.125c5.241,2.909,7.404,7.271,6.323,13.052c-0.461,2.454,0.363,3.062,2.539,3.261
			c12.354,1.127,22.341-3.422,29.548-13.252c7.917-10.803,8.212-22.638,2.66-34.604c-6.168-13.289-17.167-21.281-30.21-26.949
			c-1.333-0.58-2.899-0.799-3.918-2.017c-0.473-1.188-0.206-2.167,0.785-2.993c2.296-1.91,4.505-3.937,6.875-5.75
			c8.862-6.775,16.792-14.514,23.506-23.4c4.126-5.463,3.85-5.488,10.363-3.531c2.615,0.785,3.328,2.027,2.944,4.571
			c-0.45,2.955-0.534,5.938,0.155,8.923c3.934,17.107,15.698,27.966,33.131,30.604c2.293,0.348,5.109,0.11,6.582,2.137
			c3.075,4.22,7.208,4.888,11.885,4.442c2.515,13.082,9.32,19.277,21.936,18.689c10.287-0.477,17.561-6.472,22.109-15.41
			c5.913-11.608,3.592-22.615-3.486-33.023c1.967,3.236,4.155,2.08,6.539,0.408c2.412-1.689,3.253-3.592,1.766-6.343
			c-1.973-3.646-5.197-6.091-8.375-8.434c-2.887-2.128-2.018-3.032,0.543-4.188c5.107-2.313,10.297-4.486,15.236-7.118
			c12.674-6.756,24.965-14.151,36.395-22.898c1.611-1.236,3.146-2.424,4.34,0.432c5.148,12.307,10.516,24.519,16.553,36.428
			c6.956,13.715,15.244,25.984,30.467,31.953c3.701,1.453,6.178,0.781,8.846-1.399c1.914-1.562,3.452-3.653,6.063-4.21l-0.261,0.057
			c0,0-0.054-0.26-0.053-0.258c0.467,0.504,1,0.505,1.574,0.209c2.951-0.191,5.934-0.183,8.853-0.616
			c6.75-0.996,10.427-5.951,9.526-12.673c-0.121-0.928-0.211-1.643,0.456-2.395c7.581-8.525,7.912-18.608,6.245-29.125
			c-0.076-0.485-0.016-0.994-0.02-1.889c4.002,3.404,7.139,7.488,11.941,9.458c0.717,0.294,1.139,1.591,1.467,2.506
			c1.176,3.292,3.471,5.716,6.676,6.603c3.363,0.932,2.635,2.592,1.552,4.587c-5.025,9.251-10.521,18.214-16.354,26.978
			c-9.404,14.129-20.248,27.11-32.402,38.885c-13.17,12.756-27.152,24.615-42.865,34.215c-9.244,5.33-18.502,10.67-27.76,16.01
			c-9.965,5.523-20.549,9.6-31.271,13.348c-8.816,3.082-17.689,5.941-26.812,8.045c-23.756,5.48-47.726,7.885-72.119,6.186
			c-18.155-1.266-36.002-4.096-53.617-8.627c-23.164-5.96-45.218-14.745-66.431-25.72c-2.202-1.141-4.377-2.33-6.54-3.546
			c-4.111-2.309-7.242-5.439-9.516-9.708c-3.875-7.272-8.18-14.322-12.351-21.435c-3.216-5.481-7.938-6.216-12.094-1.521
			c-1.863,2.104-2.777,1.48-4.479,0.123c-10.863-8.648-20.229-18.725-29.182-29.314c-13.953-16.502-25.613-34.468-34.995-53.854
			c-5.632-11.639-10.44-23.682-14.276-36.09c-2.61-8.441-5.103-16.883-6.144-25.673c0.285-0.159,0.569-0.317,0.855-0.478
			c1.119,1.939,2.238,3.877,3.358,5.816c15.931,27.599,31.86,55.197,47.802,82.791c0.749,1.296,1.458,2.646,2.395,3.798
			c2.165,2.669,5.922,3.265,8.77,1.532c2.805-1.707,3.895-5.352,2.468-8.521c-0.51-1.133-1.201-2.188-1.825-3.271
			c-22.724-39.408-45.449-78.814-68.161-118.228c-0.746-1.294-1.356-2.664-2.023-3.987c1.111-1.703-0.505-2.721-1.099-3.922
			c-2.541-5.135-6.396-9.732-6.504-16.334C140.213,407.454,141.57,403.91,143.767,403.398z M234.063,580.733
			c-0.012,0.007-0.021,0.012-0.032,0.019c-1.062-1.84-2.036-3.736-3.205-5.506c-2.01-3.033-4.828-3.738-8.141-2.191
			c-3.372,1.574-4.645,3.959-3.454,7.525c1.558,4.656,4.269,8.77,7.289,12.574c2.194,2.761,6.011,2.855,8.756,0.795
			c2.604-1.957,3.247-5.184,1.584-8.344C235.991,583.951,235,582.355,234.063,580.733z"/>
		<path fill="#FC8119" d="M378.43,142.55c31.53-3.138,62.656-0.808,93.479,6.525c20.459,4.868,39.858,12.372,58.331,22.337
			c23.077,12.447,44.179,27.609,63.278,45.623c24.25,22.867,43.445,49.408,58.01,79.279c8.823,18.098,15.264,37.091,19.788,56.75
			c1.481,6.436,2.563,12.915,3.73,19.395c0.185,1.027,0.149,1.976-0.329,3.172c-2.356-1.115-4.049-3.068-6.078-4.545
			c-7.1-5.164-15.154-7.752-23.801-8.7c-0.6-0.064-1.253,0.161-1.682-0.482c-1.965-1.731-3.803-3.638-5.911-5.171
			c-13.802-10.025-29.751-12.615-46.153-11.898c-18.621,0.813-35.938,6.753-52.032,16.203c-7.544,4.428-15.087,8.869-22.761,13.066
			c-7.309,3.999-15.298,5.375-23.547,4.807c-14.709-1.014-26.375-8.702-37.186-17.803c-10.041-8.451-19.133-17.876-27.793-27.779
			c-14.807-16.932-26.766-35.413-33.411-57.065c-3.429-11.177-5.194-22.552-4.714-34.305c0.551-13.453,2.258-26.813,2.592-40.295
			c0.395-15.997-2.1-31.294-8.486-45.971C381.873,151.359,380.2,146.934,378.43,142.55z"/>
	</g>
	<g>
		<path fill="#FC8119" d="M486.129,415.404c0.114,0.045,0.271,0.057,0.338,0.141c3.082,3.837,3.005,3.799,5.378-0.687
			c0.778-1.474,1.228-3.287,2.938-4.145c1.836-0.97,2.693-0.229,3.082,1.64c0.541,2.594,1.063,5.213,2.862,7.729
			c2.812-4.288,2.817-9.551,6.282-13.104c1.143,0.706,0.841,1.979,1.156,3.001c0.293,0.94,0.428,1.93,0.633,2.896
			c2.109-3.322,4.121-6.717,6.377-9.938c0.795-1.136,1.594-2.579,3.291-2.779c0.098,4.659-1.041,9.487,1.906,14.317
			c1.773-4.09,1.213-8.625,4.671-11.432c0.426,1.021,0.852,2.041,1.371,3.287c3.271-3.436,4.257-8.473,7.98-11.543
			c1.364,3.602,0.651,7.82,3.206,11.117c2.234-2.313,0.865-6.001,3.398-8.072c3.546-4.122,5.077-9.872,10.26-12.669
			c-1.043,3.195-1.965,6.406-1.514,10.264c7.96-11.589,12.602-15.894,19.324-17.866c-1.355,2.85-2.656,5.463-3.838,8.13
			c-0.459,1.04-1.753,2.386-0.276,3.259c0.97,0.572,1.993-0.681,2.733-1.534c5.225-6.024,12.066-9.562,19.285-12.501
			c1.129-0.461,2.596-1.344,3.488-0.289c1.146,1.355-0.518,2.563-1.195,3.519c-1.504,2.122-2.939,4.147-2.891,7.339
			c1.075-0.732,1.756-1.25,2.489-1.68c8.026-4.718,15.743-10.281,25.831-9.317c2.261,0.216,4.461-0.31,6.639-0.862
			c0.037,2.434-0.074,4.83-1.68,6.867c0.311,1.922,1.523,1.787,3.072,1.614c2.622-0.294,5.016-1.345,7.539-1.915
			c21.441-4.84,40.176,12.856,36.234,34.535c-0.729,4.018,0.156,6.445,2.786,9.23c6.121,6.484,5.723,9.221-1.04,14.824
			c-1.789,1.485-4.243,2.428-5.184,4.908c1.229,0.684,2.157,0.152,3.107-0.077c12.26-2.938,14.596-1.718,19.229,10.054
			c0.184,0.463,0.33,0.943,0.472,1.422c1.382,4.68,1.192,4.926-3.667,5.707c-5.751,0.926-11.212,2.674-16.189,5.862
			c5.235-0.589,10.434-0.507,15.619-0.755c3.243-0.154,9.354,2.84,10.521,5.833c3.947,10.114,5.065,20.116-2.032,29.486
			c-0.733,0.972-1.593,2.351-0.503,2.909c4.34,2.217,2.104,5.423,1.43,8.266c-0.985,4.167-7.127,9.667-10.81,10.018
			c-5.985-3.637-10.875-8.623-16.086-13.196c-10.183-8.937-19.774-18.554-28.437-28.906c-8.514-10.179-17.124-20.382-24.133-31.755
			c-2.609-4.236-5.625-8.242-8.257-12.432c-5.421-8.635-10.17-17.709-12.429-27.811c-0.813-3.627-2.652-6.756-4.755-9.667
			c-2.511-3.476-7.079-3.515-10.888-0.458c-1.646,1.322-3.298,2.641-4.949,3.958c-1.504-0.196-3.194-1.835-4.449-0.073
			c-1.027,1.443,0.516,2.772,1.136,4.075c1.665,3.494,3.382,6.976,4.354,10.741c3.042,11.787,3.3,23.952,4.716,35.951
			c1.494,12.636,3.029,25.247,5.987,37.639c3.097,12.963,6.374,25.886,10.694,38.504c0.857,2.502,1.445,5.561,4.658,6.551
			c1.35,2.939,2.719,5.869,4.032,8.826c0.281,0.635,0.782,1.426-0.019,2.021c-0.71,0.529-1.532,0.059-2.123-0.241
			c-5.733-2.901-10.82-6.735-14.313-12.143c-8.832-13.667-15.686-28.376-22.259-43.229c-5.049-11.404-9.375-23.061-12.698-35.079
			c-3.215-11.616-3.909-23.206,0.936-34.59c1.447-3.4,3.257-6.646,5.824-9.384c0.666-0.713,1.629-1.331,1.225-2.516
			c-0.459-1.344-1.761-1.369-2.824-1.403c-2.216-0.069-4.335,0.145-6.482,1.151c-11.335,5.318-16.211,15.164-19.212,26.504
			c-1.488,5.621-0.732,11.338-1.014,17.883c-7.948-6.235-9.017-14.809-10.794-23.142c-2.209,4.173-2.98,14.854-1.646,20.634
			c1.207,5.227,2.707,10.338,5.022,15.197c0.335,0.701,1.179,1.633,0.219,2.335c-0.749,0.549-1.644,0.038-2.453-0.374
			c-2.713-1.382-5.065-3.188-6.698-5.779c-1.728-2.744-3.258-5.616-5.029-8.33c-1.731-2.651-1.579-5.989-3.566-9.306
			c-3.255,11.837,0.929,21.972,4.828,33.091c-12.59-5.498-15.47-16.42-18.427-27.49c-2.023,3.618-2.65,11.009-1.636,15.686
			c1.135,5.24,2.102,10.508,4.883,15.229c0.533,0.902,1.254,2.235,0.107,3.055c-1.188,0.85-2.223-0.36-2.787-1.167
			c-4.147-5.917-9.514-11.021-12.69-17.538c-1.706-3.495-1.939-7.645-2.271-11.6c-0.05,0.01-0.103,0.01-0.156,0.014
			c0.067,0.036,0.135,0.077,0.201,0.115c-2.188,2.92-2.155,6.49-2.784,9.846c-0.33,1.764-1.044,3.045-2.872,2.477
			c-5.961-1.852-11.502,0.081-17.094,1.613c-2.453,0.673-5.486,1.461-7.092-0.26c-1.785-1.918,0.59-4.355,1.625-6.318
			c1.846-3.502,4.382-6.612,5.941-10.299c2.027-4.791,2.603-9.723,2.043-14.891c-0.318-2.938-1.549-2.771-3.279-1.293
			c-8.336,7.124-15.082,15.485-19.611,25.541c-4.387,2.108-5.72,6.043-5.714,10.412c0.006,5.021,2.601,8.883,6.964,11.161
			c7.597,3.967,15.777,4.977,24.209,3.693c6.146-0.935,11.994-1.103,16.289,4.509c-2.372-0.567-4.67-1.445-7.19-1.314
			c-1.116,0.057-2.434-0.352-3.15,0.639c-0.889,1.235,0.595,1.969,1.11,2.838c2.572,4.326,2.652,5.952-0.004,10.273
			c-2.922-6.642-8.105-10.184-14.939-10.91c-3.412-0.367-6.932,0.311-10.404,0.393c-17.891,0.427-25.901-10.316-27.414-26.02
			c-0.867-9.002,0.84-17.928,4.313-26.234c3.203-7.664,8.476-14.034,15.467-18.713c3.207-2.145,6.67-3.9,10.748-6.256
			c-4.193-2-7.822-1.227-11.045-0.449c-13.715,3.297-23.07,11.855-28.149,24.943c-4.112,10.598-5.206,21.689-3.7,32.883
			c0.869,6.465-1.309,12.855,0.229,19.275c0.356,1.484-0.652,1.842-2.087,0.998c-5.343-3.141-6.778-8.447-7.418-13.926
			c-1.206-10.304,0.089-20.426,3.318-30.338c-2.817,2.42-6.799,10.575-8.592,16.245c-2.02,6.388-3.365,12.78-2.955,19.52
			c0.122,1.989-0.511,2.256-2.7,1.302c-6.725-2.928-7.878-8.145-6.842-14.473c0.838-5.128,1.742-10.254,2.911-15.314
			c1.166-5.047,2.977-9.914,5.269-15.102c-3.339,1.793-4.714,4.855-6.489,7.352c-4.965,6.988-8.916,14.529-10.348,23.139
			c-0.371,2.221-1.031,2.263-2.851,0.961c-6.505-4.658-7.487-8.93-3.489-16.577c3.534-6.76,8.281-12.656,13.395-18.224
			c9.369-10.205,16.953-21.479,20.967-34.825c2.949-9.8,4.459-19.818,1.401-29.923c-1.423-4.7-3.42-9.145-8.17-11.572
			c-4.239-6.553-8.394-10.113-12.092-10.314c6.788,15.588,9.684,31.662,6.299,48.549c-0.061,0.303,0.251,0.682,0.388,1.024
			c-5.626,13.685-14.7,24.776-25.61,34.578c-6.288,5.649-13.47,9.869-20.767,13.957c-9.847,5.52-20.293,8.734-31.715,7.927
			c-8.727-0.617-16.069-3.95-21.339-11.203c-6.683-9.193-9.755-19.762-11.864-30.729c-2.229-11.581-4.004-23.226-5.777-34.88
			c-0.407-2.667-1.432-5.324-2.616-7.771c-2.446-5.064-6.809-7.002-12.313-7.445c-12.689-1.02-25.244,0.937-37.865,1.331
			c-7.654,0.237-15.068,0.046-21.851-4.196c-4.812-3.008-7.564-7.26-9.167-13.634c6.559,3.532,13.038,3.384,19.369,4.151
			c1.093,0.133,1.949,0.51,2.136-1.045c0.527-4.396,2.869-4.033,6.326-2.909c12.899,4.192,25.935,3.044,38.945,0.313
			c1.936-0.406,3.891-0.717,5.842-1.074c-0.219,1.441-0.22,1.438,1.463,1.468c5.867,0.101,11.78-0.053,17.263,2.575
			c4.503,2.165,8.432,6.085,7.457,10.64c-1.231,5.752,0.711,8.284,4.609,11.833c5.135,4.68,7.231,11.504,8.581,18.369
			c2.159,10.972,1.283,21.859-0.674,32.737c-0.164,0.911-0.75,1.896,0.38,2.883c1.573-1.563,3.132-3.117,4.694-4.67
			c4.9-2.708,7.988-7.075,10.351-11.915c1.447-2.964,2.817-2.572,4.669-0.662c1.639,1.687,3.265,3.383,5.342,5.539
			c0.111-5.613-1.921-9.88-4.558-13.912c-2.07-3.165-3.896-6.195-2.816-10.36c0.529-2.032,1.126-1.889,2.74-1.617
			c4.855,0.816,8.385,4.028,12.327,6.494c1.363,0.854,2.579,1.946,3.838,2.911c-0.72-5.622-4.474-8.359-8.753-13.557
			c-1.859-2.26-4.041-4.419-6.895-5.631c-1.948-0.829-2.708-2.262-1.417-4.152c1.195-1.754,1.422-4.621,4.985-3.59
			c8.061,2.332,14.866,6.75,21.255,11.972c0.575,0.469,1.134,0.958,1.86,1.296c-3.596-6.955-7.664-13.506-14.583-17.762
			c-1.046-0.645-2.145-1.351-2.902-2.285c-1.074-1.326-5.077-0.281-3.281-3.914c1.994-4.031,4.527-5.26,7.93-4.393
			c5.139,1.312,8.757,5.011,12.93,7.84c0.98,0.661,1.634,1.842,3.291,1.943c-2.604-5.799-5.836-10.929-10.277-15.197
			c-2.059-1.977-2.437-3.06,0.333-4.985c7.824-5.438,16.629-8.314,25.992-10.598c-2.6-1.522-2.6-1.522-10.929-0.81
			c3.96-3.623,8.517-5.528,13.328-8.52c-9.296-3.298-17.737-2.877-26.402-0.421c-8.559,2.426-15.693,7.506-23.363,11.79
			c-1.528-15.19,17.211-39.263,45.721-42.169c-9.659-2.577-18.454-3.177-27.508-1.128c-7.635,1.729-14.629,4.629-21.023,9.097
			c-0.791,0.552-1.78,1.534-2.658,0.986c-1.114-0.696-0.402-2.021-0.156-3.034c3.335-13.867,12.339-22.922,24.792-28.987
			c4.338-2.113,8.858-3.742,13.756-4.287c-12.437-6.344-24.398-4.605-36.117,2.396c0.091-14.454,16.469-26.601,39.979-29.734
			c-3.789-4.43-8.814-5.06-13.528-6.343c-5.123-1.396-10.005,1.129-15.106,1.062c3.104-12.223,13.619-17.872,33.846-18.112
			c-5.048-5.646-11.507-6.956-18.197-7.733c-1.209-0.141-3.095,0.216-3.492-0.405c-0.739-1.163,0.498-2.448,1.258-3.546
			c4.251-6.129,10.529-8.341,17.562-9.096c1.68-0.179,3.466,0.298,5.362-0.837c-4.489-4.817-10.087-6.038-15.985-5.748
			c-2.504,0.122-2.657-0.46-2.357-2.517c0.904-6.217,6.123-10.266,14.484-11.063c0.605-0.059,1.215-0.069,1.947-0.106
			c-3.24-3.616-9.003-5.426-14.129-4.22c-2.345,0.552-3.121,0.129-3.108-2.381c0.035-7.021,1.197-8.345,10.606-11.183
			c-2.639-3.044-8.011-4.446-13.167-3.38c-1.283,0.265-2.634,1.254-3.528-0.597c-0.792-1.642-2.102-3.235-0.736-5.165
			c1.005-1.42,2.111-2.768,3.113-4.191c1.41-2.006,0.936-3.256-1.568-3.511c-2.577-0.261-4.949,0.499-7.184,1.685
			c-1.588,0.844-2.869,0.766-3.776-0.916c-3.94-7.305-11.599-9.481-18.193-13.062c-2.676-1.454-5.7-2.267-8.563-3.372
			c10.634-0.221,20.537,2.926,30.293,6.659c6.741,2.577,12.275,7.171,17.806,11.561c8.503,6.749,13.704,16.09,18.021,25.831
			c0.971,2.193,2.594,5.715-1.867,6.992c-0.6,0.068-0.725,0.248-0.142,0.597c4.123,3.73,6.751,8.324,7.636,13.812
			c0.916,5.668,0.173,6.537-4.995,6.385c-0.085,1.651,1.148,2.681,1.852,3.941c2.666,4.773,3.28,9.875,2.305,15.179
			c-0.411,2.233-1.498,3.363-3.953,1.957c-1.448-0.829-3.004-1.644-5.038-1.701c0.152,1.793,1.33,2.614,2.239,3.519
			c1.891,1.883,3.227,4.12,4.43,6.454c0.442,0.858,1.173,1.989-0.037,2.638c-2.036,1.094-1.458,2.64-1.022,4.194
			c0.48,1.714,0.52,3.454,0.397,5.2c-0.188,2.68-1.39,3.461-3.565,1.6c-1.286-1.1-2.483-2.032-4.413-1.1
			c1.116,1.895,2.341,3.532,3.989,4.904c2.132,1.773,3.749,4.005,4.963,6.492c0.411,0.843,1.053,2.277-0.449,2.404
			c-3.951,0.339-2.41,2.346-1.62,4.33c0.595,1.5,0.966,3.088,1.476,4.625c0.939,2.837,0.142,3.499-2.839,2.917
			c-3.53-0.688-7.271-1.456-10.701,1.325c2.186,0.995,4.5,1.33,6.7,2.026c7.564,2.4,11.549,7.056,12.048,13.609
			c0.227,2.969-0.447,4.684-3.93,4.804c-3.444,0.118-7.003,0.27-10.124,2.158l0.009-0.03c1.716,1.616,3.98,1.23,6.014,1.541
			c5.37,0.821,9.977,3.078,13.841,6.864c0.514,0.504,1.256,1.06,0.958,1.882c-0.319,0.88-1.198,0.735-1.927,0.588
			c-1.21-0.244-2.839-0.884-3.335,0.507c-0.604,1.694,1.127,2.645,2.369,3.372c2.947,1.728,5.293,3.978,7.353,7.353
			c-7.286-0.517-13.815,0.328-19.379,4.911c0.225,0.183,0.328,0.334,0.406,0.323c0.741-0.112,1.475-0.285,2.216-0.381
			c8.385-1.088,16.427-0.858,23.113,5.451c2.925,2.76,3.01,3.205-0.643,4.625c-3.138,1.218-5.681,3.115-8.399,6.005
			c1.696-0.169,2.668-0.324,3.645-0.354c4.994-0.15,10.026-0.535,14.468,2.546c1.971,1.371,2.465,2.237-0.307,3.399
			c-2.715,1.138-5.684,2.123-7.979,5.056c1.807-0.035,3.043-0.1,4.279-0.076c3.907,0.076,7.685,0.529,11.102,2.768
			c2.287,1.5,2.494,2.771,0.419,4.619c-1.947,1.737-3.97,3.453-5.253,5.807c-0.365,0.67-0.709,1.39,0,2.025
			c0.561,0.504,1.18,0.149,1.744-0.082c1.846-0.755,3.643-1.659,5.535-2.274c3.276-1.061,5.02,0.067,4.857,3.394
			c-0.15,3.074-0.615,6.13-1.938,9.041c-1.492,3.283-3.561,6.355-4.725,10.799c1.377-0.994,2.004-1.375,2.549-1.851
			c3.197-2.8,6.434-5.589,10.205-7.56c1.531-0.799,3.434-2.15,5.238-0.727c1.75,1.382,1.695,3.469,1.379,5.531
			c-0.593,3.875-2.288,7.378-3.59,11.014c-1.158,3.228-2.809,6.314-3.126,9.838c1.21,0.17,1.476-0.678,1.97-1.188
			c4.078-4.197,7.756-8.83,13-11.743c4.514-2.507,7.229-0.924,7.028,4.317c-0.14,3.621-0.941,7.158-2.063,10.629
			c-0.937,2.904-2.546,5.639-2.674,9.006c1.695-0.117,2.325-1.3,3.157-2.132c3.354-3.355,6.547-6.896,10.662-9.379
			c5.745-3.468,9.328-2.042,11.27,4.396c1.494,4.958,0.81,9.885-0.156,14.795c-0.558,2.846-1.646,5.611-1.182,8.845
			c1.805-1.218,2.399-2.921,3.35-4.339c3.202-4.771,6.246-9.66,10.969-13.169c3.077-2.286,4.848-1.98,6.481,1.472
			c2.099,4.434,3.147,9.198,4.011,14.002c0.324,1.805,0.521,3.641,2.423,5.811C483.025,423.115,483.973,419.001,486.129,415.404z
			 M632.455,425.122c8.791,3.254,16.691,1.334,22.854-5.329c7.072-7.643,5.779-21.49-2.208-27.604
			c-8.513-6.514-21.715-6.781-28.571,3.021c-1.122,1.602-2.082,3.313-3.117,4.976c-2.641-0.03-4.81,0.38-4.818,3.831
			c-0.014,5.086,0.83,9.976,4.019,14.012C623.595,421.812,626.967,425.342,632.455,425.122z M683.399,499.486
			c4.598-2.581,7.592-9.384,6.488-14.66c-0.403-1.931-0.651-3.946-2.241-5.439c-2.121-1.988-4.424-1.805-6.432-0.19
			c-1.551,1.245-4.791,2.205-2.013,5.354c0.868,0.985-0.195,2.126-0.581,3.137c-0.793,2.085-1.734,4.115-2.463,6.221
			c-0.779,2.252-0.129,4.276,1.789,5.603C679.736,500.751,681.726,500.58,683.399,499.486z"/>
		<path fill="#F5C469" d="M378.43,142.55c1.77,4.384,3.443,8.812,5.329,13.144c6.384,14.678,8.88,29.975,8.484,45.972
			c-0.332,13.48-2.039,26.842-2.59,40.295c-0.481,11.753,1.283,23.128,4.713,34.304c6.645,21.651,18.604,40.132,33.41,57.066
			c8.661,9.904,17.754,19.328,27.793,27.779c10.813,9.1,22.478,16.786,37.188,17.802c8.248,0.566,16.238-0.807,23.547-4.806
			c7.674-4.197,15.217-8.637,22.76-13.066c16.094-9.449,33.412-15.391,52.032-16.202c16.402-0.72,32.351,1.874,46.153,11.897
			c2.109,1.531,3.945,3.437,5.912,5.17c-6.215,1.162-11.991,1.347-18.342-1.237c-18.309-7.448-37.139-7.593-56.061-1.653
			c-12.613,3.959-24.047,10.252-35.321,16.942c-8.696,5.161-17.478,10.117-27.593,12.077c-18.692,3.622-35.028-2.048-49.342-13.539
			c-25.037-20.102-47.084-42.983-62.315-71.657c-9.877-18.595-15.234-38.388-14.457-59.568c0.322-8.747,0.911-17.508,1.879-26.206
			c2.888-25.942-0.398-50.542-15.395-72.991C370.372,142.311,374.526,143.324,378.43,142.55z"/>
		<path fill="#F5C469" d="M486.129,415.404c-2.156,3.597-3.104,7.711-4.477,12.275c-1.901-2.168-2.1-4.008-2.424-5.811
			c-0.861-4.803-1.91-9.568-4.01-14c-1.635-3.452-3.405-3.757-6.48-1.473c-4.725,3.51-7.768,8.398-10.969,13.17
			c-0.951,1.418-1.547,3.119-3.351,4.338c-0.465-3.232,0.622-6,1.182-8.844c0.966-4.912,1.651-9.837,0.157-14.795
			c-1.942-6.438-5.525-7.864-11.27-4.396c-4.115,2.482-7.309,6.022-10.662,9.379c-0.834,0.833-1.463,2.015-3.157,2.132
			c0.126-3.367,1.737-6.102,2.674-9.008c1.12-3.471,1.923-7.004,2.062-10.629c0.199-5.24-2.515-6.823-7.027-4.314
			c-5.244,2.912-8.922,7.546-13,11.742c-0.494,0.51-0.761,1.357-1.971,1.188c0.318-3.523,1.969-6.609,3.125-9.838
			c1.303-3.637,2.998-7.141,3.59-11.014c0.318-2.064,0.372-4.151-1.377-5.531c-1.805-1.424-3.708-0.074-5.238,0.727
			c-3.772,1.97-7.009,4.76-10.206,7.559c-0.544,0.477-1.172,0.857-2.548,1.852c1.161-4.445,3.231-7.519,4.724-10.8
			c1.321-2.911,1.786-5.967,1.937-9.04c0.162-3.326-1.58-4.455-4.857-3.394c-1.891,0.613-3.688,1.519-5.534,2.273
			c-0.564,0.231-1.185,0.587-1.745,0.083c-0.707-0.637-0.363-1.354,0.001-2.026c1.284-2.354,3.308-4.069,5.253-5.806
			c2.076-1.85,1.869-3.12-0.419-4.62c-3.417-2.237-7.196-2.692-11.101-2.766c-1.238-0.025-2.475,0.04-4.281,0.075
			c2.297-2.933,5.266-3.918,7.98-5.057c2.771-1.162,2.277-2.028,0.305-3.398c-4.439-3.084-9.473-2.698-14.467-2.547
			c-0.978,0.03-1.95,0.186-3.644,0.354c2.718-2.889,5.261-4.787,8.399-6.005c3.652-1.419,3.568-1.865,0.643-4.625
			c-6.688-6.31-14.728-6.539-23.114-5.449c-0.741,0.095-1.475,0.267-2.214,0.379c-0.079,0.012-0.184-0.14-0.407-0.322
			c5.563-4.583,12.094-5.429,19.379-4.911c-2.06-3.375-4.405-5.625-7.353-7.354c-1.242-0.728-2.973-1.677-2.369-3.371
			c0.496-1.391,2.124-0.752,3.336-0.508c0.729,0.148,1.608,0.293,1.927-0.588c0.297-0.822-0.445-1.378-0.959-1.881
			c-3.865-3.786-8.47-6.045-13.841-6.865c-2.035-0.311-4.298,0.075-6.014-1.54l-0.009,0.03c3.121-1.889,6.68-2.041,10.124-2.16
			c3.483-0.119,4.156-1.833,3.931-4.803c-0.5-6.553-4.485-11.208-12.049-13.609c-2.2-0.697-4.514-1.032-6.7-2.026
			c3.43-2.78,7.171-2.015,10.702-1.324c2.979,0.581,3.777-0.081,2.838-2.917c-0.508-1.536-0.88-3.125-1.477-4.625
			c-0.79-1.986-2.331-3.991,1.62-4.329c1.502-0.129,0.86-1.563,0.45-2.405c-1.214-2.487-2.831-4.719-4.963-6.492
			c-1.647-1.371-2.873-3.01-3.99-4.904c1.931-0.934,3.128-0.002,4.414,1.1c2.176,1.862,3.376,1.08,3.565-1.6
			c0.124-1.745,0.083-3.485-0.397-5.201c-0.435-1.555-1.011-3.102,1.022-4.193c1.208-0.649,0.479-1.778,0.037-2.639
			c-1.203-2.334-2.539-4.572-4.431-6.452c-0.909-0.906-2.086-1.728-2.239-3.519c2.033,0.057,3.591,0.871,5.039,1.7
			c2.455,1.406,3.543,0.275,3.953-1.958c0.976-5.304,0.36-10.404-2.304-15.179c-0.705-1.261-1.938-2.289-1.853-3.94
			c5.168,0.152,5.91-0.718,4.995-6.386c-0.885-5.487-3.513-10.079-7.636-13.811c0.052-0.199,0.101-0.399,0.142-0.601
			c4.461-1.273,2.839-4.795,1.867-6.989c-4.318-9.741-9.519-19.083-18.022-25.831c-5.529-4.39-11.064-8.982-17.805-11.561
			c-9.757-3.732-19.659-6.88-30.293-6.659c-2.495-0.491-5.192-0.278-7.814-2.268c11.293-3.201,22.254-3.579,33.079-0.679
			c26.961,7.218,41.613,26.375,48.984,52.052c4.501,15.679,3.203,31.671,1.605,47.629c-1.245,12.427-2.243,24.872-0.725,37.357
			c2.214,18.196,7.419,35.474,16.905,51.208c18.731,31.069,42.848,57.293,72.363,78.409c9.174,6.563,19.664,10.311,30.929,11.513
			c2.144,0.23,2.179,0.749,1.523,2.496C488.378,408.313,487.303,411.877,486.129,415.404z"/>
		<path fill="#F5C469" d="M183.165,327.3c7.801-6.724,16.59-6.317,25.752-3.668c12.533,3.624,25.095,3.517,37.694,0.182
			c4.092-1.083,8.156-2.412,12.441-2.599c2.45-0.107,3.403-1.179,3.31-3.798c-0.703-19.483,4.727-37.824,11.84-55.535
			c5.852-14.563,14.121-28.028,22.416-41.399c5.453-8.79,10.509-17.784,14.23-27.548c4.406-11.562,2.739-22.001-3.978-31.994
			c0.914-0.389,1.83-0.777,2.744-1.165l-0.03,0.014c7.049-3.422,7.005-3.4,10.445,3.545c6.196,12.511,4.487,24.878-0.613,37.172
			c-4.805,11.576-11.429,22.175-17.853,32.875c-10.963,18.261-20.555,37.119-25.788,57.939c-3.135,12.472-3.808,25.115-3.1,37.886
			c0.071,1.285,0.607,3.047-1.783,2.497c-9.239-2.123-17.853,1.038-26.641,2.971c-12.732,2.799-25.421,3.387-38.029-0.988
			c-5.366-1.858-10.906-3.493-15.322,2.302c-0.954,1.251-2.499,0.771-3.748-0.079C184.099,333.834,182.55,331.07,183.165,327.3z"/>
		<path fill="#F5C469" d="M319.405,598.139c-0.57,0.209-1.321,0.246-1.68,0.639c-6.825,7.479-14.695,4.082-21.86,1.43
			c-18.659-6.913-26.096-28.592-17.282-46.243c3.85-7.71,9.415-14.408,12.496-22.561c2.73-7.228,3.235-14.577,1.966-22.051
			c-0.835-4.927-5.341-7.364-8.326-10.789c-8.38-9.609-16.042-19.64-21.829-31.109c-4.845-9.607-9.248-19.345-12.579-29.58
			c-6.333-19.428-10.381-39.279-11.399-59.717c0.353-0.113,0.703-0.325,1.059-0.327c10.271-0.08,8.485-1.602,9.782,7.9
			c2.229,16.33,4.667,32.629,10.105,48.242c8.562,24.576,20.87,46.947,40.083,64.977c2.239,2.099,2.705,4.715,3.177,7.367
			c2.624,14.763,0.161,28.507-8.284,41.08c-3.194,4.754-6.394,9.523-8.283,15.03c-4.097,11.935,1.149,23.155,12.909,27.61
			c4.134,1.568,8.459,2.105,12.769,2.758C315.602,593.305,318.501,594.352,319.405,598.139z"/>
		<path fill="#F5C469" d="M602.264,560.822c-2.609,0.558-4.148,2.65-6.063,4.211c-2.668,2.18-5.146,2.852-8.844,1.4
			c-15.224-5.971-23.514-18.238-30.469-31.956c-6.038-11.908-11.403-24.117-16.553-36.427c-1.193-2.855-2.727-1.666-4.34-0.431
			c-11.43,8.745-23.721,16.142-36.395,22.896c-4.939,2.635-10.129,4.807-15.234,7.119c-2.563,1.16-3.432,2.061-0.545,4.188
			c3.178,2.344,6.402,4.79,8.375,8.435c1.488,2.752,0.645,4.654-1.767,6.343c-2.384,1.671-4.571,2.827-6.539-0.408
			c-7.397-9.618-17.562-14.379-29.243-16.478c-2.453-0.439-4.859-1.149-7.317-1.557c-2.007-0.335-1.641-0.904-0.823-2.383
			c2.051-3.699,4.371-5.189,9.065-4.417c12.945,2.131,24.639-2.685,35.845-8.344c17.289-8.729,33.387-19.36,48.323-31.722
			c0.92-0.761,2.083-1.23,3.459-2.025c5.97,13.493,11.603,27.166,18.026,40.454c5.24,10.835,10.005,22.111,19.489,30.313
			c5.833,5.045,12.23,8.825,19.98,9.938C601.361,560.069,601.895,560.258,602.264,560.822z"/>
		<path fill="#F5C469" d="M443.334,575.936c-4.677,0.445-8.813-0.221-11.885-4.443c-1.472-2.023-4.285-1.787-6.582-2.135
			c-17.432-2.641-29.196-13.497-33.131-30.605c-0.688-2.984-0.604-5.966-0.154-8.922c0.383-2.545-0.328-3.785-2.945-4.572
			c-6.514-1.957-6.238-1.932-10.364,3.531c-6.714,8.887-14.642,16.623-23.505,23.4c-2.37,1.814-4.578,3.84-6.873,5.752
			c-0.992,0.824-1.259,1.804-0.786,2.99c-4.173-1.092-8.344-2.185-12.677-3.32c1.091-3.473,3.686-5.538,6.175-7.428
			c14.211-10.789,27.149-22.736,36.151-38.406c0.751-1.309,1.479-1.148,2.731-0.652c7.767,3.074,15.576,6.083,23.814,7.664
			c2.939,0.564,1.355,1.964,0.86,3.148c-5.204,12.445-1.944,24.651,8.576,31.775c5.729,3.882,12.459,4.92,18.988,6.48
			c3.515,0.84,7.094,1.418,10.593,2.319c3.059,0.784,5.855,2.146,7.736,4.88c1.406,2.045,1.135,3.691-1.1,4.953
			C447.02,573.44,444.752,574.027,443.334,575.936z"/>
		<path fill="#F5C469" d="M87.809,375.459c-11.364-19.684-22.728-39.367-34.09-59.05c-0.625-1.081-1.295-2.142-1.838-3.264
			c-1.15-2.372-0.48-4.412,1.462-5.991c1.962-1.594,3.958-1.038,5.857,0.264c1.404,0.962,2.06,2.48,2.867,3.878
			c22.796,39.47,45.588,78.942,68.373,118.42c0.807,1.398,1.742,2.743,1.998,4.403c0.391,2.527-0.429,4.516-2.805,5.52
			c-2.379,1.006-4.447,0.26-5.824-1.91c-1.4-2.214-2.638-4.531-3.949-6.803c-10.676-18.493-21.353-36.985-32.03-55.479
			C87.821,375.451,87.814,375.455,87.809,375.459z"/>
		<path fill="#F5C469" d="M680.244,522.416c3.684-0.348,9.826-5.847,10.811-10.018c0.674-2.843,2.91-6.047-1.431-8.266
			c-1.089-0.557-0.229-1.936,0.503-2.908c7.099-9.369,5.981-19.372,2.032-29.486c-1.167-2.992-7.278-5.986-10.521-5.832
			c-5.185,0.246-10.385,0.166-15.618,0.754c4.976-3.188,10.437-4.938,16.188-5.862c4.859-0.78,5.048-1.026,3.669-5.706
			c-0.142-0.479-0.29-0.959-0.473-1.424c-4.636-11.772-6.97-12.99-19.229-10.053c-0.951,0.229-1.878,0.76-3.108,0.077
			c0.942-2.481,3.395-3.425,5.185-4.908c6.762-5.605,7.16-8.343,1.042-14.823c-2.632-2.787-3.516-5.212-2.788-9.23
			c3.939-21.681-14.793-39.377-36.234-34.535c-2.524,0.568-4.918,1.617-7.541,1.914c-1.548,0.174-2.76,0.31-3.069-1.612
			c7.39-2.655,14.747-5.257,22.81-5.051c21.797,0.556,34.629,21.592,29.13,38.702c-0.526,1.635-0.423,2.866,1.007,4.311
			c7.85,7.922,13.363,17.365,18.24,27.373c2.596,5.33,5.377,10.559,7.694,16.045c8.271,19.594,5.771,41.701-10.237,56.426
			c-1.361,1.251-2.506,2.74-3.725,4.143C683.109,524.133,681.68,524.188,680.244,522.416z"/>
		<path fill="#F5C469" d="M282.148,712.014c-8.75-15.154-17.5-30.31-26.247-45.467c-0.499-0.866-1.014-1.729-1.428-2.637
			c-1.274-2.797-0.727-5.381,1.906-6.818c2.689-1.469,5.042-0.402,6.598,2.297c5.868,10.179,11.761,20.345,17.637,30.519
			c11.94,20.676,23.876,41.353,35.811,62.028c0.437,0.76,0.9,1.508,1.267,2.299c1.359,2.943,0.667,6.043-1.788,7.176
			c-3.054,1.406-5.133,0.23-6.766-2.627c-8.939-15.621-17.972-31.191-26.971-46.779C282.162,712.006,282.154,712.01,282.148,712.014
			z"/>
		<path fill="#FC8119" d="M363.846,603.883c-7.129-10.051-16.447-17.135-28.407-20.35c-7.817-2.102-15.656-4.285-23.809-4.688
			c-5.414-0.268-10.095-2.952-11.312-6.956c-1.123-3.69,0.429-7.081,2.006-10.194c3.924-7.745,9.104-14.417,17.325-18.133
			c0.728-0.328,1.729-0.461,1.93-1.625c-1.82-1.801-3.986-0.416-5.971-0.564c0.181-3.543,3.348-5.783,7.231-5.125
			c0.603,0.102,1.248,0.229,1.768,0.525c6.42,3.652,6.477,2.979,2.121,8.457c-4.109,5.167-7.256,10.928-9.953,16.98
			c-1.407,3.16-0.211,4.175,2.532,5.009c5.873,1.789,12.081,2.552,17.549,5.612c-2.397,4.09-2.4,4.095,2.161,6.139
			c1.252,0.562,2.532,1.055,3.779,1.623C353.178,585.313,360.705,592.617,363.846,603.883z"/>
		<path fill="#F5C469" d="M105.942,308.836c-7.055-12.22-14.117-24.438-21.16-36.664c-0.623-1.082-1.229-2.18-1.734-3.318
			c-1.411-3.152-0.783-6.089,1.714-7.07c3.035-1.194,5.261,0.119,6.814,2.81c8.176,14.168,16.35,28.341,24.534,42.506
			c6.684,11.569,13.379,23.132,20.073,34.696c0.188,0.325,0.422,0.625,0.577,0.964c1.277,2.788,0.476,7.07-1.479,7.979
			c-2.486,1.156-5.284-0.179-7.267-3.601c-7.388-12.749-14.745-25.517-22.113-38.278
			C105.917,308.85,105.929,308.844,105.942,308.836z"/>
		<path fill="#F5C469" d="M143.767,403.398c-2.197,0.512-3.554,4.056-6.721,1.384c0.108,6.602,3.964,11.2,6.503,16.333
			c0.595,1.202,2.212,2.221,1.101,3.923c-14.824-25.79-29.649-51.566-44.455-77.352c-5.227-9.099-10.449-18.2-15.595-27.344
			c-1.079-1.918-2.694-3.655-2.619-6.088c2.556,4.415,5.157,8.803,7.641,13.259c1.022,1.832,1.942,2.145,3.766,0.834
			c1.666-1.197,3.28-3.444,5.884-1.667c6.105,10.444,12.249,20.864,18.315,31.331C126.343,373.123,135.043,388.269,143.767,403.398z
			"/>
		<path fill="#F5C469" d="M597.408,535.539c-3.212-0.99-3.801-4.049-4.656-6.553c-4.321-12.615-7.6-25.539-10.695-38.503
			c-2.959-12.39-4.494-25-5.986-37.637c-1.418-12.001-1.677-24.167-4.718-35.952c-0.972-3.766-2.688-7.244-4.353-10.742
			c-0.621-1.301-2.164-2.629-1.135-4.072c1.254-1.766,2.945-0.125,4.449,0.072c5.834,3.526,7.613,9.405,8.52,15.516
			c2.291,15.447,3.187,31.04,4.428,46.59c1.641,20.568,4.787,40.862,10.469,60.703C594.746,528.513,596.26,531.982,597.408,535.539z
			"/>
		<path fill="#FC8119" d="M464.931,578.639c-0.664,0.947-1.687,0.806-3.171,1.005c2.117-2.901,3.297-5.829,3.527-9.04
			c0.653-8.99-4.801-14.318-11.723-18.275c-7.865-4.497-17.022-5.253-25.569-7.793c-2.854-0.849-5.755-1.525-8.199-3.342
			c-2.772-2.057-4.24-6.301-3.243-9.285c1.363-4.084,4.232-6.265,8.303-6.291c0.36-0.002,0.719,0.102,1.078,0.156
			c2.05,0.32,4.9-0.746,6.008,0.744c1.559,2.093-1.882,3.045-2.561,4.932c-0.936,2.587-1.231,3.818,2.122,4.672
			c5.938,1.514,12.052,2.666,17.505,5.742c-0.638,2.377,1.41,2.547,2.73,3.248c6.266,3.332,12.549,6.638,16.18,13.197
			C472.166,565.97,470.879,574.709,464.931,578.639z"/>
		<path fill="#F5C469" d="M295.498,423.213c-1.562,1.554-3.122,3.109-4.693,4.671c-1.129-0.989-0.542-1.972-0.38-2.884
			c1.958-10.877,2.833-21.765,0.674-32.736c-1.35-6.865-3.444-13.691-8.581-18.369c-3.9-3.547-5.843-6.08-4.61-11.833
			c0.976-4.555-2.951-8.476-7.456-10.64c-5.483-2.629-11.396-2.475-17.263-2.575c-1.683-0.03-1.682-0.027-1.463-1.468
			c6.262-1.866,12.575-3.243,19.156-1.904c9.344,1.898,14.774,9.372,13.531,18.748c-0.181,1.369-0.038,2.249,1.112,3.215
			c9.167,7.67,12.643,17.971,13.18,29.485c0.33,7.083-0.118,14.118-2.243,20.972C295.934,419.604,295.809,421.438,295.498,423.213z"
			/>
		<path fill="#F5C469" d="M621.339,373.625c-2.179,0.553-4.382,1.078-6.64,0.862c-10.087-0.966-17.805,4.599-25.831,9.315
			c-0.733,0.431-1.413,0.951-2.489,1.681c-0.048-3.19,1.388-5.216,2.891-7.339c0.677-0.953,2.342-2.163,1.195-3.519
			c-0.894-1.055-2.36-0.171-3.488,0.288c-7.22,2.941-14.061,6.477-19.285,12.502c-0.738,0.852-1.764,2.106-2.734,1.533
			c-1.475-0.869-0.182-2.216,0.277-3.258c1.182-2.666,2.48-5.28,3.838-8.127c-6.723,1.97-11.365,6.275-19.323,17.863
			c-0.45-3.856,0.468-7.068,1.513-10.264c1.566-3.83,4.299-6.781,7.885-8.555c14.635-7.246,29.969-11.514,46.441-8.854
			C611.108,368.646,617.002,369.236,621.339,373.625z"/>
		<path fill="#F5C469" d="M236.015,281.193c-0.39,0.781-0.754,1.572-1.166,2.336c-1.828,3.377-5.098,3.629-7.426,0.535
			c-0.673-0.889-1.192-1.897-1.753-2.867c-7.094-12.304-14.225-24.587-21.225-36.943c-0.935-1.648-2.672-2.836-2.875-4.89
			c1.556-1.917,3.149-3.827,4.671-5.789c1.321-1.701,2.103-1.493,3.148,0.391C218.151,249.772,227.649,265.164,236.015,281.193z"/>
		<path fill="#F5C469" d="M131.051,264.006c-3.56-6.166-7.109-12.337-10.683-18.494c-1.182-2.038-1.25-3.986,0.233-5.92
			c1.111-1.447,2.51-1.813,4.289-1.604c1.626,0.191,2.355,1.277,3.051,2.451c7.367,12.474,14.75,24.938,22.035,37.459
			c1.521,2.613,0.694,6.58-1.497,7.561c-3.187,1.426-5.215-0.373-6.727-2.97c-3.579-6.153-7.125-12.327-10.684-18.493
			C131.062,263.999,131.056,264.002,131.051,264.006z"/>
		<path fill="#F5C469" d="M148.981,245.856c-3.184-5.515-6.385-11.017-9.542-16.545c-1.817-3.183-1.31-5.919,1.285-7.431
			c2.387-1.393,5.112-0.53,6.875,2.472c6.448,10.979,12.839,21.992,19.189,33.028c1.686,2.936,0.965,6.39-1.36,7.567
			c-2.592,1.315-5.17,0.304-7.047-2.896c-3.159-5.384-6.251-10.806-9.373-16.211C148.999,245.847,148.99,245.852,148.981,245.856z"
			/>
		<path fill="#F5C469" d="M474.213,490.156c-4.295-5.609-10.142-5.443-16.289-4.509c-8.43,1.284-16.611,0.274-24.21-3.693
			c-4.364-2.278-6.958-6.142-6.962-11.162c-0.005-4.368,1.328-8.304,5.714-10.411c-0.075,0.492-0.091,0.998-0.232,1.472
			c-4.071,13.772,5.888,18.44,15.348,19.366c4.792,0.471,9.337-1.268,14.013-1.848c5.224-0.65,9.906,0.383,13.238,4.949
			c1.759,2.412,2.658,5.003,1.959,8.191C475.329,492.303,475.132,490.802,474.213,490.156z"/>
		<path fill="#F5C469" d="M199.176,185.702c-2.06-3.571-4.145-7.127-6.173-10.715c-1.587-2.806-0.578-4.987,1.867-6.647
			c2.501-1.699,4.526-0.831,5.919,1.546c4.295,7.324,8.569,14.661,12.704,22.077c1.486,2.664,0.832,5.109-1.96,6.618
			c-2.769,1.495-4.734,0.344-6.178-2.168C203.303,192.839,201.235,189.273,199.176,185.702z"/>
		<path fill="#F5C469" d="M379.995,400.011c-0.137-0.343-0.449-0.722-0.389-1.024c3.383-16.889,0.488-32.964-6.298-48.549
			c3.697,0.199,7.853,3.762,12.09,10.314c6.404,13.706,2.041,26.255-4.159,38.591C381.067,399.687,380.422,399.793,379.995,400.011z
			"/>
		<path fill="#F5C469" d="M228.741,166.389c1.686,2.922,3.414,5.818,5.046,8.769c1.574,2.844,1.018,6.423-1.366,7.622
			c-2.911,1.466-5.195-0.099-6.636-2.44c-3.795-6.161-7.512-12.386-10.901-18.774c-1.208-2.275,0.04-4.601,2.295-5.954
			c2.198-1.317,4.367-1.229,5.825,1.115c1.979,3.179,3.772,6.473,5.646,9.717C228.68,166.425,228.71,166.407,228.741,166.389z"/>
		<path fill="#FC8119" d="M538.324,699.494c-3.549-6.021-7.181-11.996-10.602-18.086c-1.424-2.533-1.384-4.959,1.683-6.634
			c3.06-1.671,4.847-0.521,6.355,2.209c3.144,5.677,6.89,11.019,9.563,16.956c-1.016,0.679-0.354,1.48-0.223,2.293
			c0.417,2.574-2.021,4.781-4.443,4.013C539.883,699.998,539.311,699.119,538.324,699.494z"/>
		<path fill="#FC8119" d="M385.721,120.21c-3.067,3.954-6.271,3.976-8.728-0.116c-3.128-5.216-6.094-10.529-9.101-15.819
			c-1.248-2.19-1.725-4.45,0.201-6.514c1.943-2.082,4.104-1.746,6.262-0.284c1.146,2.052,2.387,4.058,3.422,6.164
			C380.48,109.138,384.908,113.81,385.721,120.21z"/>
		<path fill="#F5C469" d="M363.846,603.883c-3.142-11.266-10.665-18.57-21.049-23.289c-1.247-0.567-2.526-1.062-3.779-1.621
			c-4.562-2.047-4.559-2.053-2.16-6.141c9.272,2.512,17.923,6.184,24.631,13.389c3.757,4.037,5.683,8.739,4.71,14.337
			C365.95,601.988,365.887,603.668,363.846,603.883z"/>
		<path fill="#F5C469" d="M585.804,657.438c1.31,2.27,2.708,4.496,3.909,6.821c1.367,2.647,0.686,4.947-1.896,6.356
			c-2.514,1.373-4.926,0.942-6.479-1.627c-2.775-4.596-5.506-9.223-8.054-13.945c-1.472-2.727-0.653-5.137,2.073-6.648
			c2.668-1.477,4.823-0.594,6.345,1.898c1.431,2.346,2.758,4.749,4.132,7.127C585.824,657.426,585.813,657.432,585.804,657.438z"/>
		<path fill="#F5C469" d="M349.62,700.945c1.117,1.944,2.265,3.872,3.356,5.833c1.554,2.798,0.286,4.809-2.018,6.313
			c-2.25,1.47-4.376,0.99-5.85-1.208c-2.775-4.143-5.243-8.476-7.312-13.019c-1.195-2.625-0.222-4.748,2.218-5.911
			c2.391-1.142,4.621-0.734,6.063,1.835C347.236,696.854,348.439,698.892,349.62,700.945z"/>
		<path fill="#F5C469" d="M464.931,578.639c5.948-3.93,7.238-12.67,2.993-20.333c-3.633-6.558-9.916-9.864-16.182-13.198
			c-1.319-0.701-3.369-0.87-2.732-3.248c8.576,1.682,16.491,4.698,22.535,11.367c6.635,7.326,5.818,18.406-1.824,24.125
			C468.391,578.346,466.996,579.984,464.931,578.639z"/>
		<path fill="#F5C469" d="M654.617,587.826c1.058,1.833,2.18,3.631,3.159,5.51c1.257,2.406,0.995,4.746-1.315,6.263
			c-2.398,1.57-5.093,1.133-6.656-1.155c-2.591-3.795-4.937-7.805-6.918-11.949c-1.24-2.592,0.258-4.809,2.643-6.211
			c2.473-1.453,4.299-0.316,5.657,1.762c1.224,1.873,2.263,3.867,3.384,5.809C654.585,587.844,654.602,587.835,654.617,587.826z"/>
		<path fill="#FC8119" d="M561.656,670.932c1.305,2.259,2.689,4.477,3.891,6.789c1.336,2.565,0.342,4.764-1.899,6.033
			c-2.317,1.314-4.577,0.76-6.027-1.74c-2.491-4.301-5.034-8.577-7.444-12.925c-1.398-2.52-1.041-5.073,1.512-6.446
			c2.551-1.373,5.029-0.888,6.539,2.092c1.064,2.104,2.338,4.101,3.52,6.145C561.715,670.897,561.686,670.915,561.656,670.932z"/>
		<path fill="#F5C469" d="M672.676,566.566c1,1.73,2.111,3.406,2.972,5.204c1.297,2.713,0.381,4.936-2.097,6.372
			c-2.463,1.429-4.674,0.712-6.112-1.641c-2.214-3.623-4.255-7.354-6.331-11.059c-1.542-2.75-0.455-4.931,1.928-6.338
			c2.414-1.42,4.652-0.545,6.176,1.674c1.271,1.848,2.281,3.875,3.404,5.821C672.634,566.59,672.654,566.578,672.676,566.566z"/>
		<path fill="#FC8119" d="M597.765,644.129c-0.991-1.719-2.011-3.428-2.974-5.165c-1.379-2.483-0.328-4.518,1.747-5.706
			c2.032-1.168,4.603-1.068,6.023,1.006c2.308,3.369,4.388,6.943,6.139,10.631c1.207,2.541,0.131,4.889-2.354,6.271
			c-2.448,1.363-4.31,0.248-5.677-1.838c-1.086-1.657-2.004-3.426-2.998-5.146C597.702,644.164,597.732,644.146,597.765,644.129z"/>
		<path fill="#FC8119" d="M99.273,326.681c-2.603-1.777-4.218,0.471-5.884,1.667c-1.822,1.31-2.743,0.999-3.766-0.834
			c-2.484-4.456-5.085-8.844-7.641-13.259c-0.974-2.965,1.15-4.133,3.214-4.896c2.629-0.973,4.602,0.545,5.87,2.708
			C93.887,316.888,96.548,321.804,99.273,326.681z"/>
		<path fill="#FC8119" d="M491.563,699.625c-0.998-1.729-2.059-3.423-2.979-5.19c-1.303-2.509-0.258-4.39,1.961-5.613
			c2.24-1.237,4.418-0.944,5.86,1.333c1.934,3.054,3.771,6.176,5.509,9.35c1.503,2.748,0.189,4.8-2.115,6.27
			c-2.36,1.504-4.291,0.643-5.696-1.564c-0.938-1.471-1.762-3.016-2.634-4.527C491.5,699.662,491.531,699.644,491.563,699.625z"/>
		<path fill="#FC8119" d="M336.561,595.428c10.596,3.313,18.759,13.188,17.653,21.191
			C345.948,611.566,340.391,604.545,336.561,595.428z"/>
		<path fill="#F5C469" d="M507.01,406.978c-3.465,3.554-3.471,8.818-6.283,13.104c-1.799-2.516-2.32-5.135-2.861-7.729
			c-0.389-1.867-1.246-2.609-3.083-1.638c2.321-7.088,5.608-9.538,14.35-10.206C508.378,402.813,507.693,404.896,507.01,406.978z"/>
		<path fill="#FC8119" d="M324.472,526.1c3.849-1.727,12.616,0.321,15.158,3.629c1.909,2.485-0.632,3.826-1.693,5.396
			c-0.885,1.306-1.988,1.744-3.69,0.328c-2.975-2.476-5.894-5.146-9.63-6.554c-0.691-0.261-1.5-0.545-1.605-1.388
			C322.89,526.527,323.825,526.41,324.472,526.1z"/>
		<path fill="#F5C469" d="M325.888,726.549c-2.783,1.693-6.02,0.9-7.775-1.899c-1.688-2.691-0.8-6.768,1.788-8.203
			c2.772-1.538,6.085-0.56,7.729,2.281C329.304,721.624,328.57,724.916,325.888,726.549z"/>
		<path fill="#F5C469" d="M635.148,605.586c1.855,3.225,1.068,6.85-1.841,8.467c-2.769,1.537-6.317,0.377-7.982-2.611
			c-1.617-2.904-0.649-6.567,2.14-8.099C630.274,601.802,633.516,602.747,635.148,605.586z"/>
		<path fill="#F5C469" d="M541,397.832c-2.533,2.071-1.165,5.76-3.398,8.072c-2.557-3.298-1.843-7.518-3.206-11.117
			c1.921-5.412,3.266-6.889,10.508-11.083c-1.986,4.28-2.364,8.212-3.603,11.938c-0.42,0.699-0.652,1.432-0.428,2.252L541,397.832z"
			/>
		<path fill="#FC8119" d="M339.824,520.326c-1.792-1.904-1.216-2.381,0.006-2.822c2.715-0.984,5.425-0.807,8.01,0.192
			c1.812,0.701,4.134,1.656,3.763,4.018c-0.348,2.2-2.604,3.468-4.137,5.036c-0.474,0.484-1.288,0.127-1.684-0.318
			C343.662,524.043,341.685,521.52,339.824,520.326z"/>
		<path fill="#F5C469" d="M40.002,272.939c1.438,2.428,0.604,5.815-1.883,7.053c-2.775,1.382-5.008,0.678-6.584-2.057
			c-1.5-2.603-0.794-5.652,1.686-7.041C35.436,269.654,38.626,270.618,40.002,272.939z"/>
		<path fill="#F5C469" d="M343.504,798.311c1.499,2.422,0.795,5.803-1.508,7.246c-2.381,1.496-5.509,0.631-7.019-1.941
			c-1.467-2.498-0.709-5.604,1.732-7.125C338.887,795.139,342.07,795.99,343.504,798.311z"/>
		<path fill="#F5C469" d="M525.042,403.042c-3.458,2.806-2.898,7.341-4.67,11.431c-2.946-4.827-1.81-9.657-1.907-14.316
			c1.453-3.865,5.409-4.291,8.711-6.712C526.998,397.212,524.701,399.863,525.042,403.042z"/>
		<path fill="#F5C469" d="M308.333,696.721c-1.923,1.38-3.78,1.16-5.581-0.242c0.771-0.432,1.037-1.049,0.682-1.887
			c3.318-1.377,1.029-3.695,0.922-5.631c-0.034-0.681-0.496-1.261-1.209-0.867c-1.608,0.874-1.595,2.625-1.921,4.134
			c-0.331,1.524,1.346,1.503,1.976,2.302c-0.699,0.523-0.762,1.191-0.45,1.947c-3.172-2.76-3.646-5.955-1.278-8.662
			c1.647-1.885,5.346-2.134,7.539-0.512c2.662,1.973,2.899,5.249,0.604,8.475c-0.696-1.721,1.029-3.404,0.088-5.122
			c-0.448-0.817-0.943-2.328-2.012-1.419c-1.704,1.451-0.202,3.997-1.446,5.932C305.719,695.992,307.527,696.273,308.333,696.721z"
			/>
		<path fill="#F5C469" d="M694.705,431.806c-2.797-5.073-5.76-9.204-9.22-12.929c-2.08-2.235-0.706-4.613-1.213-7.17
			C691.281,415.61,695.623,423.807,694.705,431.806z"/>
		<path fill="#FC8119" d="M322.442,780.389c-0.859-2.031-1.218-4.063,1.138-5.467c2.198-1.313,4.176-0.743,5.453,1.343
			c1.256,2.052,0.899,4.132-1.128,5.577C325.659,783.443,323.958,782.286,322.442,780.389z"/>
		<path fill="#F5C469" d="M218.033,219.972c-0.229,2.043,0.381,3.796,1.42,5.586c12.57,21.631,25.074,43.301,37.584,64.966
			c0.676,1.17,1.611,2.246,1.581,3.724c-13.413-23.161-26.843-46.313-40.199-69.506
			C217.621,223.351,215.545,221.758,218.033,219.972z"/>
		<path fill="#F5C469" d="M249.007,150.063c1.038,2.25,1.232,4.263-0.952,5.728c-1.911,1.282-5.245,0.381-6.111-1.71
			c-0.915-2.218-0.254-4.315,1.746-5.511C245.833,147.291,247.711,148.194,249.007,150.063z"/>
		<path fill="#F5C469" d="M400.757,761.518c-1.26-2.646-0.671-4.666,1.489-6.059c2.221-1.435,4.171-0.564,5.376,1.504
			c1.33,2.272,0.715,4.449-1.498,5.816C403.941,764.131,402.113,763.169,400.757,761.518z"/>
		<path fill="#F5C469" d="M611.954,531.943c-1.843,1.064-3.356,2.161-4.321-0.197c-0.775-1.896-2.656-3.895-0.723-5.914
			c1.213-1.265,9.214-0.686,9.217,0.368C616.137,529.174,613.465,530.486,611.954,531.943z"/>
		<path fill="#FC8119" d="M643.951,639.392c-1.195-2.147-1.051-3.954,0.961-5.28c2.004-1.32,3.859-0.847,5.029,1.141
			c1.098,1.863,1.099,3.904-0.989,5.176C647.02,641.605,645.175,641.385,643.951,639.392z"/>
		<path fill="#FC8119" d="M69.354,284.381c-1.938,0.567-3.958,0.859-5.177-1.27c-1.124-1.967-0.665-3.99,1.178-5.275
			c2.091-1.457,3.864-0.288,5.021,1.489C71.55,281.123,70.954,282.869,69.354,284.381z"/>
		<path fill="#F5C469" d="M479.109,738.472c-2.254,1.178-4.234,0.62-5.441-1.468c-1.178-2.04-0.922-4.24,1.305-5.502
			c2.127-1.207,4.165-0.709,5.438,1.482C481.649,735.121,481.274,737.033,479.109,738.472z"/>
		<path fill="#F5C469" d="M620.934,481.215c-2.398,1.162-8.532,0.504-8.734-1.092c-0.336-2.636,1.621-5.139,3.474-5.597
			c3.369-0.835,3.586,3.522,5.724,5.079C622.231,480.209,621.645,480.854,620.934,481.215z"/>
		<path fill="#F5C469" d="M634.564,495.029c0.065,0.113,0.484,0.594,0.394,0.721c-1.631,2.327-4.167,1.781-6.405,1.727
			c-1.275-0.033-3.314-0.214-2.464-2.574c0.501-1.392,1.161-2.73,1.799-4.068c0.632-1.324,1.462-1.566,2.519-0.378
			C631.723,491.936,633.068,493.389,634.564,495.029z"/>
		<path fill="#F5C469" d="M167.204,190.987c0.834,2.118,1.195,4.026-1.16,5.261c-2.267,1.188-4.345,0.577-5.463-1.488
			c-1.174-2.17-0.099-4.271,1.971-5.311C164.39,188.525,166.197,189.107,167.204,190.987z M165.356,195.299
			c1.292-0.88,1.005-1.914,0.448-2.949c-0.606-1.117-1.42-2.34-2.811-1.482c-0.999,0.616-1.727,1.929-1.073,3.201
			C162.634,195.457,164.034,195.518,165.356,195.299z"/>
		<path fill="#F5C469" d="M601.648,497.377c-1.371-0.131-2.589,2.883-3.886,0.532c-0.956-1.736-1.991-4.038-0.541-6.157
			c0.442-0.646,7.501,0.948,7.677,1.771C605.426,496.032,602.814,496.04,601.648,497.377z"/>
		<path fill="#F5C469" d="M642.37,504.24c2.618,0.583,3.765,2.961,5.536,4.484c0.912,0.785,0.48,1.627-0.591,1.897
			c-2.54,0.637-5.708,2.509-7.481,0.014C638.509,508.771,640.875,506.355,642.37,504.24z"/>
		<path fill="#F5C469" d="M605.416,515.021c-1.314,0.052-2.76,2.868-3.791,0.005c-0.625-1.74-2.367-3.734-0.513-5.686
			c0.778-0.816,7.001,0.609,7.272,1.654C609.016,513.405,606.587,513.766,605.416,515.021z"/>
		<path fill="#F5C469" d="M660.484,523.35c-2.3,0.735-5.004,2.239-6.453-0.193c-1.092-1.834,0.746-4.146,1.852-6.029
			c0.285-0.487,5.494,3.214,5.926,4.264C662.393,522.819,661.276,523.029,660.484,523.35z"/>
		<path fill="#FC8119" d="M360.903,509.961c-0.985,1.898-0.769,4.957-3.361,4.732c-1.151-0.096-3.279-3.138-2.94-3.773
			C355.945,508.382,358.765,511.238,360.903,509.961z"/>
		<path fill="#F5C469" d="M605.606,456.984c1.668,2.111,1.718,4.934,3.881,6.969c-3.062,1.373-5.533,0.492-7.895-0.598
			c-1.378-0.639-1.151-1.671-0.077-2.611C602.869,459.555,604.172,458.309,605.606,456.984z"/>
		<path fill="#F5C469" d="M601.055,476.74c-2.695,1.727-4.363,4.597-6.895,3.126c-1.172-0.684-1.766-4.563-0.361-5.407
			C596.027,473.119,598.25,475.441,601.055,476.74z"/>
		<path fill="#F5C469" d="M538.324,699.494c0.986-0.375,1.559,0.504,2.334,0.75c2.424,0.768,4.861-1.44,4.442-4.014
			c-0.132-0.813-0.792-1.614,0.224-2.293c2.043,3.094,1.942,5.963-0.537,7.361C542.194,702.766,539.758,702.672,538.324,699.494z"/>
		<path fill="#F5C469" d="M530.839,653.373c9.259-5.342,18.519-10.68,27.761-16.009C549.625,643.205,540.68,649.067,530.839,653.373
			z"/>
		<path fill="#F5C469" d="M385.721,120.21c-0.813-6.4-5.24-11.072-7.943-16.568c-1.036-2.107-2.276-4.112-3.422-6.165
			c4.456,4.738,6.542,10.962,10.16,16.229C385.844,115.643,387.096,117.715,385.721,120.21z"/>
		<path fill="#F5C469" d="M320.649,598.99c0,0-0.057-0.102-0.053-0.098C320.601,598.895,320.649,598.99,320.649,598.99z"/>
		<polygon fill="#FC8119" points="309.583,159.789 309.613,159.775 309.647,159.631 		"/>
		<path fill="#F5C469" d="M603.523,560.831c-0.573,0.298-1.105,0.295-1.572-0.211C602.525,560.314,603.044,560.439,603.523,560.831z
			"/>
		<path fill="#FC8119" d="M540.873,397.895c-0.225-0.82,0.009-1.553,0.428-2.252C542,396.554,542.865,397.494,540.873,397.895z"/>
		<path fill="#013F54" d="M234.063,580.733c0.937,1.622,1.928,3.218,2.796,4.876c1.663,3.156,1.02,6.386-1.583,8.343
			c-2.745,2.058-6.563,1.966-8.756-0.796c-3.022-3.804-5.735-7.919-7.29-12.574c-1.19-3.566,0.083-5.948,3.454-7.525
			c3.312-1.547,6.131-0.842,8.141,2.192c1.171,1.768,2.144,3.665,3.206,5.505C234.042,580.745,234.053,580.739,234.063,580.733z"/>
		<path fill="#013F54" d="M621.412,400.188c1.035-1.662,1.994-3.373,3.115-4.976c6.857-9.802,20.059-9.536,28.571-3.021
			c7.989,6.112,9.282,19.959,2.209,27.604c-6.16,6.662-14.063,8.58-22.855,5.328C621.333,417.941,619.16,413.034,621.412,400.188z
			 M636.375,408.262c1.412,2.391,4.373,3.203,6.731,1.85c2.714-1.555,3.204-3.982,1.447-6.954c-1.573-2.667-3.71-3.029-6.288-1.583
			C635.789,402.965,634.978,405.896,636.375,408.262z"/>
		<path fill="#013F54" d="M683.399,499.486c-1.675,1.094-3.663,1.265-5.452,0.024c-1.918-1.326-2.57-3.353-1.789-5.603
			c0.729-2.105,1.67-4.137,2.463-6.221c0.385-1.01,1.449-2.151,0.581-3.137c-2.778-3.149,0.463-4.109,2.013-5.354
			c2.008-1.614,4.311-1.798,6.432,0.19c1.59,1.493,1.838,3.509,2.241,5.439C690.991,490.103,687.998,496.908,683.399,499.486z"/>
		<path fill="#F5C469" d="M621.412,400.188c-2.252,12.847-0.08,17.756,11.039,24.934c-5.484,0.219-8.859-3.311-11.842-7.091
			c-3.188-4.036-4.03-8.925-4.02-14.011C616.602,400.568,618.77,400.158,621.412,400.188z"/>
		<path fill="#F5C469" d="M352.308,290.4l-0.009,0.03L352.308,290.4z"/>
		<path fill="#013F54" d="M475.59,453.967c-0.066-0.039-0.135-0.078-0.2-0.115c0.053-0.002,0.105-0.003,0.155-0.012
			C475.543,453.832,475.59,453.967,475.59,453.967z"/>
		<path fill="#F5C469" d="M356.951,178.76c-0.583-0.349-0.456-0.529,0.143-0.598C357.053,178.361,357.003,178.562,356.951,178.76z"
			/>
		<path fill="#FC8119" d="M303.202,694.529c-0.63-0.801-2.305-0.777-1.975-2.302c0.325-1.511,0.313-3.26,1.921-4.134
			c0.716-0.393,1.174,0.187,1.209,0.867c0.107,1.936,2.394,4.255-0.922,5.631L303.202,694.529z"/>
		<path fill="#FC8119" d="M308.333,696.721c-0.808-0.447-2.615-0.729-2.086-1.551c1.243-1.936-0.258-4.482,1.445-5.934
			c1.07-0.908,1.565,0.604,2.011,1.42c0.942,1.719-0.782,3.402-0.088,5.122C309.192,696.09,308.762,696.404,308.333,696.721z"/>
		<path fill="#FC8119" d="M303.436,694.59c0.355,0.84,0.089,1.455-0.681,1.887h-0.001c-0.313-0.756-0.25-1.424,0.449-1.947
			C303.202,694.529,303.436,694.59,303.436,694.59z"/>
		<path fill="#FC8119" d="M165.356,195.299c-1.322,0.217-2.723,0.159-3.436-1.232c-0.654-1.271,0.074-2.584,1.072-3.199
			c1.393-0.858,2.206,0.363,2.81,1.482C166.361,193.385,166.648,194.42,165.356,195.299z"/>
		<path fill="#F5C469" d="M636.375,408.262c-1.397-2.365-0.586-5.297,1.891-6.688c2.577-1.448,4.715-1.084,6.288,1.583
			c1.755,2.974,1.267,5.399-1.447,6.954C640.748,411.466,637.787,410.652,636.375,408.262z"/>
	</g>
</g>
</svg>
