<?xml version="1.0" encoding="utf-8"?>
<!-- Generator: Adobe Illustrator 16.0.3, SVG Export Plug-In . SVG Version: 6.00 Build 0)  -->
<!DOCTYPE svg PUBLIC "-//W3C//DTD SVG 1.1//EN" "http://www.w3.org/Graphics/SVG/1.1/DTD/svg11.dtd">
<svg version="1.1" id="Layer_1" xmlns="http://www.w3.org/2000/svg" xmlns:xlink="http://www.w3.org/1999/xlink" x="0px" y="0px"
	 width="822.047px" height="822.047px" viewBox="0 0 822.047 822.047" enable-background="new 0 0 822.047 822.047"
	 xml:space="preserve">
<rect fill="#013F54" width="822.047" height="822.047"/>
<g>
	<g>
		<path fill="#FC8119" d="M418.648,143.77c-0.512,0.5-1.024,1.001-1.641,1.603c2.107,1.418,4.477,0.538,6.594,1.085
			c0.818,0.214,1.893,0.04,2.061,1.171c0.135,0.899-0.762,1.217-1.368,1.581c-3.323,1.995-6.653,3.974-10.007,5.911
			c-45.993,26.575-91.991,53.14-137.984,79.716c-1.947,1.124-3.959,2.165-5.793,3.454c-3.608,2.527-4.373,5.72-2.336,8.975
			c2,3.198,4.617,3.688,8.755,1.3c14.508-8.368,28.95-16.849,43.449-25.232c41.549-24.02,83.179-47.902,124.6-72.146
			c5.957-3.486,11.389-4.6,18.16-3.244c19.432,3.883,38.58,8.607,56.926,16.225c14.965,6.211,29.27,13.676,42.607,22.905
			c3.24,2.243,3.092,2.55-0.393,4.54c-17.794,10.168-35.59,20.332-53.365,30.528c-1.288,0.737-2.584,1.581-3.603,2.639
			c-2.44,2.536-2.666,6.415-0.464,8.831c2.326,2.553,5.221,2.746,8.139,1.104c5.444-3.067,10.815-6.261,16.226-9.385
			c13.962-8.063,28.025-15.957,41.833-24.274c4.346-2.617,7.94-4.427,11.639,0.518c-2.055,0.2-3.24,1.939-4.889,2.874
			c-12.355,7.002-24.641,14.131-36.943,21.226c-0.971,0.561-1.978,1.081-2.868,1.753c-3.09,2.328-2.841,5.597,0.536,7.425
			c0.764,0.414,1.556,0.776,2.336,1.167c-5.316,3.168-10.625,6.352-15.953,9.5c-3.815,2.248-5.75,5.307-4.911,8.283
			c1.106,3.917,4.192,4.854,7.812,4.821c1.479,0.032,2.554-0.904,3.723-1.581c21.666-12.51,43.337-25.015,64.967-37.584
			c1.79-1.04,3.543-1.649,5.585-1.42c4.759,4.336,9.065,9.02,13.103,14.09c3.82,4.802,7.804,9.5,11.594,14.357
			c9.535,12.23,17.338,25.521,24.705,39.112c3.726,6.874,7.185,13.837,9.631,21.275c-9.994,6.717-20.434,8.384-31.994,3.979
			c-9.764-3.722-18.76-8.777-27.549-14.232c-13.37-8.294-26.838-16.566-41.398-22.415c-17.713-7.114-36.055-12.544-55.536-11.839
			c-2.62,0.092-3.691-0.861-3.799-3.311c-0.187-4.287-1.515-8.351-2.598-12.443c-3.335-12.598-3.442-25.158,0.183-37.691
			c2.648-9.16,3.055-17.951-3.67-25.752c4.946-7.932-1.146-17.115-9.152-20.855c-12.01-5.609-23.943-2.215-33.453,6.42
			c-12.197,11.072-13.943,25.324-11.833,40.645c1.273,9.229,3.255,18.361,3.727,27.697c0.031,0.608-0.093,1.225-0.145,1.838
			c-20.437,1.019-40.289,5.067-59.717,11.399c-10.233,3.333-19.972,7.736-29.58,12.579c-11.469,5.784-21.5,13.448-31.11,21.828
			c-3.424,2.983-5.86,7.492-10.788,8.327c-7.473,1.269-14.823,0.767-22.051-1.967c-8.149-3.08-14.85-8.645-22.561-12.495
			c-17.653-8.814-39.331-1.377-46.241,17.281c-2.655,7.167-6.052,15.035,1.428,21.861c0.395,0.36,0.432,1.11,0.639,1.679
			c-0.254,0.399-0.506,0.797-0.755,1.19c0.003-0.003-0.098,0.053-0.098,0.053c-2.343,3.523-5.436,6.232-9.329,7.824
			c-5.791,2.369-10.133,6.303-13.125,11.691c-2.91,5.242-7.271,7.404-13.052,6.323c-2.454-0.462-3.062,0.363-3.261,2.54
			c-1.127,12.354,3.422,22.34,13.252,29.547c10.803,7.918,22.638,8.213,34.604,2.66c13.289-6.168,21.281-17.167,26.949-30.21
			c0.58-1.333,0.798-2.898,2.017-3.918c1.188-0.474,2.167-0.207,2.994,0.784c1.91,2.297,3.935,4.506,5.749,6.875
			c6.775,8.862,14.514,16.791,23.4,23.506c5.463,4.126,5.489,3.85,3.531,10.363c-0.785,2.615-2.027,3.328-4.57,2.944
			c-2.956-0.45-5.938-0.534-8.924,0.155c-17.106,3.934-27.966,15.699-30.604,33.131c-0.347,2.293-0.11,5.109-2.137,6.582
			c-4.219,3.075-4.887,7.208-4.442,11.885c-13.082,2.516-19.277,9.32-18.689,21.936c0.477,10.287,6.472,17.56,15.41,22.11
			c11.609,5.912,22.616,3.591,33.024-3.487c-3.237,1.967-2.08,4.155-0.408,6.539c1.689,2.412,3.592,3.253,6.343,1.765
			c3.646-1.971,6.09-5.196,8.434-8.373c2.127-2.888,3.031-2.019,4.187,0.543c2.313,5.106,4.486,10.296,7.119,15.235
			c6.756,12.675,14.151,24.965,22.897,36.395c1.237,1.611,2.424,3.146-0.431,4.34c-12.308,5.148-24.519,10.516-36.429,16.554
			c-13.715,6.955-25.984,15.243-31.953,30.467c-1.453,3.7-0.782,6.177,1.399,8.846c1.562,1.913,3.654,3.451,4.21,6.063l-0.057-0.261
			c0,0,0.259-0.055,0.257-0.054c-0.503,0.467-0.504,1.001-0.208,1.574c0.19,2.951,0.182,5.934,0.616,8.854
			c0.996,6.75,5.951,10.427,12.672,9.525c0.928-0.12,1.643-0.211,2.395,0.456c8.526,7.58,18.609,7.911,29.125,6.245
			c0.485-0.076,0.995-0.016,1.888-0.02c-3.404,4.002-7.487,7.141-9.458,11.941c-0.292,0.717-1.589,1.139-2.504,1.467
			c-3.292,1.176-5.716,3.471-6.603,6.677c-0.932,3.362-2.592,2.634-4.587,1.551c-9.252-5.024-18.215-10.52-26.978-16.354
			c-14.128-9.403-27.11-20.249-38.884-32.401c-12.756-13.172-24.615-27.152-34.215-42.866c-5.329-9.244-10.669-18.501-16.01-27.759
			c-5.523-9.966-9.6-20.55-13.348-31.272c-3.081-8.816-5.941-17.689-8.044-26.812c-5.481-23.755-7.885-47.726-6.186-72.119
			c1.266-18.155,4.095-36.003,8.627-53.616c5.959-23.163,14.745-45.219,25.719-66.432c1.141-2.202,2.331-4.377,3.546-6.539
			c2.309-4.111,5.439-7.242,9.708-9.518c7.272-3.875,14.322-8.179,21.435-12.351c5.481-3.216,6.215-7.938,1.521-12.094
			c-2.103-1.863-1.479-2.776-0.123-4.479c8.648-10.861,18.725-20.229,29.314-29.182c16.502-13.952,34.469-25.613,53.854-34.994
			c11.638-5.633,23.681-10.44,36.089-14.276c8.442-2.61,16.883-5.103,25.672-6.145c0.16,0.285,0.318,0.569,0.478,0.856
			c-1.94,1.119-3.877,2.238-5.816,3.357c-27.598,15.93-55.197,31.859-82.791,47.802c-1.295,0.748-2.647,1.459-3.798,2.396
			c-2.669,2.164-3.265,5.922-1.533,8.77c1.708,2.805,5.352,3.895,8.522,2.467c1.132-0.509,2.188-1.2,3.271-1.824
			c39.408-22.724,78.815-45.449,118.227-68.161c1.295-0.745,2.664-1.356,3.988-2.022c1.703,1.111,2.721-0.505,3.922-1.1
			c5.135-2.541,9.732-6.395,16.334-6.505C414.592,140.216,418.137,141.572,418.648,143.77z M241.313,234.064
			c-0.008-0.012-0.012-0.021-0.019-0.031c1.84-1.063,3.736-2.035,5.506-3.205c3.033-2.01,3.738-4.827,2.192-8.141
			c-1.574-3.372-3.96-4.645-7.526-3.453c-4.655,1.557-8.769,4.268-12.573,7.288c-2.761,2.193-2.855,6.01-0.794,8.755
			c1.957,2.604,5.183,3.248,8.343,1.585C238.095,235.993,239.691,235.001,241.313,234.064z"/>
		<path fill="#FC8119" d="M679.496,378.432c3.139,31.53,0.808,62.656-6.525,93.479c-4.867,20.461-12.371,39.858-22.336,58.33
			c-12.448,23.078-27.61,44.18-45.623,63.279c-22.867,24.25-49.408,43.445-79.281,58.01c-18.096,8.823-37.089,15.264-56.748,19.788
			c-6.436,1.483-12.915,2.563-19.395,3.73c-1.027,0.184-1.977,0.149-3.173-0.329c1.116-2.355,3.069-4.049,4.545-6.078
			c5.164-7.1,7.751-15.154,8.701-23.801c0.064-0.6-0.16-1.254,0.482-1.682c1.731-1.965,3.638-3.801,5.171-5.91
			c10.024-13.803,12.615-29.752,11.898-46.154c-0.813-18.621-6.753-35.938-16.203-52.032c-4.429-7.543-8.871-15.087-13.066-22.761
			c-3.999-7.309-5.377-15.298-4.808-23.547c1.015-14.709,8.703-26.375,17.804-37.186c8.451-10.041,17.876-19.133,27.777-27.793
			c16.932-14.807,35.415-26.766,57.066-33.412c11.176-3.428,22.553-5.194,34.306-4.713c13.452,0.551,26.813,2.258,40.294,2.592
			c15.998,0.395,31.293-2.1,45.972-8.484C670.688,381.875,675.113,380.201,679.496,378.432z"/>
	</g>
	<g>
		<path fill="#FC8119" d="M406.643,486.133c-0.045,0.112-0.057,0.27-0.142,0.336c-3.836,3.082-3.798,3.005,0.688,5.378
			c1.472,0.778,3.287,1.228,4.145,2.938c0.969,1.836,0.228,2.693-1.64,3.084c-2.594,0.539-5.214,1.061-7.729,2.859
			c4.288,2.813,9.55,2.818,13.104,6.284c-0.706,1.142-1.98,0.841-3.001,1.155c-0.94,0.293-1.93,0.43-2.898,0.633
			c3.323,2.109,6.719,4.121,9.94,6.377c1.136,0.795,2.579,1.594,2.779,3.291c-4.661,0.098-9.487-1.041-14.317,1.906
			c4.089,1.773,8.625,1.213,11.432,4.671c-1.021,0.427-2.041,0.852-3.287,1.372c3.436,3.27,8.473,4.256,11.543,7.98
			c-3.603,1.363-7.821,0.65-11.117,3.205c2.313,2.234,6.001,0.865,8.072,3.398c4.122,3.547,9.871,5.077,12.669,10.26
			c-3.195-1.043-6.406-1.964-10.265-1.514c11.59,7.96,15.895,12.602,17.867,19.324c-2.85-1.355-5.465-2.656-8.13-3.838
			c-1.04-0.457-2.386-1.752-3.259-0.276c-0.572,0.97,0.681,1.994,1.533,2.733c6.024,5.225,9.563,12.066,12.502,19.287
			c0.461,1.127,1.344,2.594,0.289,3.487c-1.355,1.146-2.563-0.519-3.519-1.196c-2.122-1.502-4.147-2.939-7.341-2.891
			c0.734,1.076,1.252,1.756,1.683,2.488c4.717,8.027,10.28,15.744,9.316,25.832c-0.216,2.261,0.31,4.461,0.86,6.639
			c-2.432,0.037-4.828-0.074-6.865-1.68c-1.922,0.311-1.787,1.523-1.614,3.072c0.293,2.621,1.345,5.018,1.915,7.539
			c4.84,21.441-12.856,40.176-34.537,36.234c-4.016-0.729-6.445,0.156-9.229,2.786c-6.484,6.121-9.221,5.723-14.826-1.04
			c-1.484-1.789-2.427-4.243-4.907-5.185c-0.684,1.229-0.152,2.158,0.077,3.108c2.938,12.26,1.717,14.596-10.055,19.229
			c-0.462,0.184-0.943,0.33-1.42,0.473c-4.68,1.381-4.926,1.191-5.708-3.668c-0.925-5.75-2.673-11.212-5.863-16.189
			c0.59,5.235,0.507,10.434,0.756,15.619c0.154,3.242-2.84,9.354-5.833,10.521c-10.115,3.947-20.117,5.065-29.486-2.032
			c-0.973-0.733-2.351-1.593-2.91-0.501c-2.217,4.338-5.424,2.102-8.265,1.429c-4.167-0.986-9.667-7.128-10.019-10.811
			c3.637-5.985,8.625-10.876,13.198-16.085c8.936-10.184,18.554-19.775,28.906-28.438c10.178-8.514,20.381-17.123,31.754-24.133
			c4.236-2.608,8.242-5.625,12.431-8.256c8.636-5.422,17.71-10.171,27.812-12.43c3.627-0.813,6.756-2.652,9.667-4.754
			c3.476-2.513,3.515-7.08,0.458-10.889c-1.322-1.646-2.643-3.298-3.958-4.948c0.195-1.505,1.833-3.195,0.073-4.45
			c-1.443-1.027-2.773,0.516-4.075,1.136c-3.494,1.665-6.976,3.384-10.741,4.354c-11.787,3.042-23.952,3.3-35.952,4.716
			c-12.635,1.494-25.248,3.029-37.639,5.987c-12.963,3.097-25.885,6.374-38.504,10.694c-2.502,0.857-5.56,1.445-6.55,4.658
			c-2.939,1.351-5.87,2.719-8.827,4.033c-0.635,0.28-1.426,0.781-2.021-0.02c-0.531-0.71-0.058-1.532,0.241-2.123
			c2.901-5.733,6.734-10.82,12.142-14.313c13.668-8.83,28.376-15.685,43.229-22.258c11.406-5.05,23.061-9.375,35.08-12.698
			c11.615-3.215,23.206-3.909,34.59,0.936c3.4,1.447,6.646,3.258,9.383,5.823c0.714,0.667,1.331,1.63,2.516,1.226
			c1.344-0.459,1.37-1.76,1.403-2.824c0.069-2.215-0.144-4.335-1.15-6.482c-5.318-11.335-15.164-16.211-26.504-19.211
			c-5.622-1.488-11.337-0.733-17.883-1.016c6.234-7.947,14.807-9.016,23.141-10.792c-4.172-2.208-14.853-2.981-20.633-1.647
			c-5.226,1.207-10.338,2.708-15.197,5.023c-0.701,0.334-1.634,1.178-2.334,0.219c-0.55-0.75-0.039-1.645,0.373-2.453
			c1.383-2.713,3.188-5.067,5.78-6.699c2.744-1.728,5.616-3.257,8.33-5.029c2.652-1.731,5.99-1.579,9.306-3.566
			c-11.838-3.255-21.973,0.93-33.091,4.828c5.499-12.59,16.42-15.47,27.49-18.427c-3.618-2.022-11.009-2.65-15.686-1.636
			c-5.24,1.135-10.508,2.102-15.229,4.883c-0.902,0.533-2.235,1.254-3.055,0.107c-0.85-1.188,0.36-2.223,1.167-2.787
			c5.917-4.146,11.021-9.514,17.539-12.689c3.495-1.706,7.644-1.94,11.598-2.271c-0.008-0.05-0.009-0.102-0.013-0.156
			c-0.036,0.067-0.077,0.135-0.115,0.201c-2.92-2.188-6.49-2.155-9.845-2.784c-1.765-0.329-3.045-1.044-2.478-2.872
			c1.852-5.961-0.081-11.502-1.614-17.094c-0.672-2.454-1.46-5.486,0.26-7.092c1.918-1.785,4.357,0.59,6.319,1.625
			c3.502,1.847,6.613,4.383,10.298,5.941c4.792,2.027,9.723,2.604,14.892,2.043c2.938-0.318,2.771-1.547,1.293-3.28
			c-7.124-8.335-15.485-15.081-25.542-19.61c-2.108-4.387-6.042-5.72-10.412-5.715c-5.021,0.008-8.882,2.602-11.161,6.965
			c-3.967,7.597-4.976,15.777-3.694,24.209c0.935,6.147,1.104,11.994-4.508,16.289c0.568-2.372,1.445-4.67,1.315-7.19
			c-0.058-1.116,0.351-2.434-0.64-3.15c-1.234-0.889-1.968,0.595-2.837,1.11c-4.326,2.572-5.953,2.653-10.274-0.004
			c6.643-2.922,10.184-8.105,10.91-14.939c0.367-3.412-0.311-6.932-0.392-10.404c-0.427-17.891,10.316-25.901,26.02-27.414
			c9.001-0.866,17.927,0.841,26.233,4.313c7.665,3.203,14.035,8.477,18.714,15.467c2.145,3.207,3.9,6.67,6.256,10.748
			c2-4.193,1.226-7.822,0.447-11.045c-3.295-13.715-11.854-23.07-24.942-28.149c-10.597-4.112-21.689-5.206-32.883-3.7
			c-6.465,0.869-12.855-1.309-19.275,0.229c-1.484,0.356-1.841-0.652-0.998-2.087c3.141-5.343,8.447-6.778,13.925-7.418
			c10.304-1.206,20.427,0.089,30.338,3.319c-2.42-2.818-10.575-6.8-16.245-8.593c-6.388-2.02-12.78-3.365-19.52-2.954
			c-1.988,0.121-2.256-0.511-1.302-2.7c2.928-6.726,8.145-7.879,14.472-6.843c5.128,0.839,10.255,1.741,15.315,2.911
			c5.047,1.165,9.914,2.977,15.102,5.269c-1.794-3.339-4.856-4.715-7.351-6.49c-6.99-4.965-14.53-8.916-23.139-10.348
			c-2.221-0.37-2.263-1.031-0.961-2.851c4.658-6.505,8.93-7.487,16.578-3.489c6.759,3.534,12.655,8.281,18.224,13.395
			c10.205,9.37,21.479,16.952,34.825,20.969c9.8,2.948,19.818,4.458,29.923,1.4c4.699-1.423,9.144-3.42,11.572-8.171
			c6.553-4.237,10.113-8.393,10.314-12.092c-15.588,6.788-31.663,9.685-48.549,6.3c-0.303-0.062-0.682,0.251-1.024,0.388
			c-13.685-5.625-24.776-14.699-34.578-25.609c-5.65-6.288-9.87-13.47-13.958-20.767c-5.52-9.848-8.734-20.293-7.927-31.716
			c0.617-8.727,3.951-16.069,11.204-21.339c9.193-6.683,19.762-9.756,30.729-11.865c11.582-2.229,23.227-4.004,34.881-5.777
			c2.667-0.406,5.324-1.431,7.771-2.615c5.064-2.446,7.002-6.809,7.445-12.313c1.02-12.689-0.938-25.244-1.332-37.864
			c-0.237-7.653-0.045-15.067,4.197-21.851c3.008-4.813,7.26-7.565,13.634-9.167c-3.532,6.559-3.385,13.038-4.151,19.368
			c-0.134,1.094-0.51,1.949,1.045,2.137c4.396,0.526,4.033,2.868,2.909,6.325c-4.192,12.899-3.044,25.935-0.313,38.944
			c0.405,1.937,0.716,3.892,1.074,5.842c-1.441-0.219-1.438-0.219-1.468,1.464c-0.101,5.866,0.053,11.779-2.575,17.263
			c-2.166,4.503-6.085,8.432-10.641,7.456c-5.752-1.231-8.283,0.712-11.833,4.61c-4.679,5.135-11.503,7.23-18.369,8.58
			c-10.972,2.159-21.859,1.283-32.736-0.676c-0.911-0.164-1.896-0.75-2.884,0.381c1.563,1.573,3.118,3.133,4.67,4.694
			c2.709,4.9,7.076,7.987,11.916,10.352c2.963,1.447,2.572,2.816,0.662,4.669c-1.688,1.639-3.383,3.266-5.539,5.342
			c5.613,0.11,9.88-1.921,13.911-4.558c3.165-2.071,6.196-3.897,10.36-2.816c2.032,0.529,1.889,1.126,1.617,2.74
			c-0.816,4.854-4.027,8.385-6.493,12.326c-0.854,1.364-1.946,2.579-2.911,3.839c5.621-0.72,8.359-4.473,13.557-8.754
			c2.259-1.858,4.419-4.041,5.63-6.895c0.83-1.947,2.261-2.707,4.153-1.418c1.753,1.196,4.621,1.422,3.59,4.985
			c-2.332,8.061-6.75,14.866-11.973,21.257c-0.469,0.574-0.957,1.134-1.295,1.858c6.955-3.596,13.506-7.663,17.762-14.581
			c0.645-1.048,1.35-2.145,2.285-2.902c1.327-1.074,0.28-5.076,3.914-3.281c4.031,1.993,5.26,4.527,4.392,7.93
			c-1.312,5.14-5.01,8.758-7.84,12.931c-0.66,0.979-1.842,1.634-1.942,3.29c5.799-2.604,10.928-5.836,15.197-10.277
			c1.977-2.059,3.059-2.436,4.985,0.334c5.437,7.824,8.313,16.631,10.597,25.992c1.523-2.6,1.523-2.6,0.811-10.929
			c3.622,3.96,5.528,8.516,8.52,13.328c3.297-9.296,2.877-17.737,0.42-26.403c-2.426-8.559-7.505-15.692-11.789-23.363
			c15.19-1.527,39.262,17.213,42.168,45.722c2.578-9.659,3.178-18.454,1.129-27.509c-1.729-7.635-4.63-14.629-9.097-21.021
			c-0.553-0.791-1.534-1.782-0.987-2.658c0.697-1.115,2.021-0.403,3.034-0.157c13.868,3.336,22.923,12.339,28.987,24.792
			c2.113,4.34,3.742,8.858,4.289,13.757c6.342-12.437,4.604-24.397-2.396-36.116c14.454,0.09,26.6,16.469,29.732,39.978
			c4.431-3.788,5.062-8.814,6.344-13.526c1.396-5.125-1.128-10.007-1.061-15.107c12.222,3.104,17.871,13.617,18.111,33.846
			c5.646-5.049,6.957-11.508,7.735-18.197c0.14-1.209-0.217-3.096,0.403-3.492c1.163-0.738,2.449,0.498,3.547,1.258
			c6.129,4.251,8.34,10.529,9.096,17.562c0.179,1.681-0.299,3.468,0.837,5.362c4.817-4.489,6.038-10.087,5.747-15.984
			c-0.122-2.504,0.461-2.658,2.518-2.355c6.217,0.902,10.266,6.121,11.063,14.482c0.059,0.605,0.069,1.216,0.105,1.947
			c3.616-3.239,5.427-9.003,4.219-14.129c-0.55-2.345-0.127-3.119,2.383-3.108c7.021,0.034,8.344,1.197,11.182,10.605
			c3.045-2.638,4.447-8.011,3.38-13.166c-0.263-1.282-1.253-2.634,0.598-3.526c1.642-0.794,3.234-2.103,5.164-0.738
			c1.421,1.006,2.769,2.111,4.192,3.115c2.006,1.407,3.256,0.934,3.511-1.57c0.261-2.577-0.499-4.947-1.685-7.184
			c-0.845-1.588-0.766-2.869,0.917-3.775c7.304-3.939,9.479-11.6,13.061-18.193c1.453-2.676,2.267-5.699,3.372-8.564
			c0.221,10.635-2.926,20.538-6.659,30.293c-2.577,6.742-7.172,12.276-11.561,17.807c-6.75,8.503-16.091,13.704-25.832,18.022
			c-2.192,0.97-5.715,2.594-6.992-1.868c-0.067-0.6-0.247-0.725-0.596-0.142c-3.731,4.124-8.324,6.751-13.812,7.636
			c-5.669,0.916-6.537,0.174-6.385-4.994c-1.651-0.085-2.682,1.147-3.941,1.852c-4.773,2.666-9.875,3.28-15.18,2.305
			c-2.233-0.41-3.363-1.497-1.957-3.953c0.829-1.447,1.645-3.004,1.701-5.037c-1.792,0.152-2.614,1.33-3.518,2.238
			c-1.884,1.892-4.12,3.229-6.454,4.432c-0.858,0.441-1.989,1.173-2.638-0.039c-1.094-2.033-2.641-1.457-4.195-1.021
			c-1.713,0.48-3.453,0.521-5.199,0.397c-2.68-0.188-3.461-1.39-1.6-3.563c1.1-1.288,2.031-2.484,1.1-4.414
			c-1.896,1.115-3.532,2.342-4.904,3.988c-1.772,2.131-4.006,3.749-6.492,4.963c-0.843,0.412-2.278,1.053-2.404-0.448
			c-0.34-3.952-2.346-2.411-4.332-1.62c-1.498,0.595-3.087,0.967-4.624,1.475c-2.837,0.941-3.498,0.143-2.916-2.838
			c0.688-3.529,1.456-7.271-1.325-10.701c-0.995,2.186-1.33,4.502-2.027,6.701c-2.399,7.563-7.056,11.547-13.608,12.047
			c-2.97,0.226-4.684-0.446-4.804-3.93c-0.119-3.445-0.271-7.004-2.158-10.123l0.03,0.008c-1.618,1.717-1.23,3.98-1.542,6.015
			c-0.821,5.37-3.077,9.978-6.864,13.841c-0.503,0.515-1.058,1.257-1.881,0.959c-0.88-0.318-0.736-1.197-0.589-1.926
			c0.244-1.211,0.885-2.84-0.508-3.336c-1.692-0.604-2.643,1.127-3.371,2.368c-1.727,2.948-3.977,5.294-7.353,7.354
			c0.518-7.286-0.327-13.815-4.911-19.378c-0.182,0.223-0.334,0.328-0.322,0.404c0.111,0.741,0.285,1.476,0.381,2.217
			c1.088,8.385,0.858,16.426-5.451,23.113c-2.76,2.926-3.205,3.01-4.625-0.643c-1.219-3.138-3.115-5.682-6.004-8.4
			c0.167,1.696,0.323,2.668,0.353,3.646c0.15,4.994,0.534,10.025-2.548,14.467c-1.37,1.972-2.236,2.464-3.398-0.307
			c-1.137-2.715-2.123-5.685-5.056-7.978c0.035,1.806,0.101,3.044,0.077,4.279c-0.078,3.907-0.529,7.685-2.769,11.102
			c-1.499,2.286-2.771,2.492-4.618,0.418c-1.737-1.947-3.453-3.97-5.807-5.253c-0.671-0.365-1.391-0.708-2.025,0
			c-0.504,0.561-0.15,1.18,0.082,1.743c0.754,1.847,1.658,3.643,2.273,5.536c1.061,3.275-0.068,5.02-3.393,4.857
			c-3.076-0.15-6.131-0.614-9.041-1.938c-3.285-1.492-6.355-3.561-10.8-4.725c0.994,1.377,1.376,2.004,1.851,2.55
			c2.799,3.196,5.59,6.433,7.561,10.204c0.798,1.531,2.149,3.434,0.727,5.238c-1.383,1.75-3.469,1.695-5.531,1.379
			c-3.876-0.594-7.378-2.287-11.014-3.59c-3.229-1.158-6.316-2.809-9.838-3.126c-0.17,1.21,0.678,1.476,1.188,1.972
			c4.196,4.076,8.828,7.754,11.742,12.998c2.508,4.514,0.924,7.229-4.316,7.029c-3.621-0.141-7.158-0.941-10.629-2.064
			c-2.904-0.936-5.639-2.545-9.006-2.672c0.117,1.694,1.299,2.324,2.131,3.157c3.355,3.353,6.896,6.546,9.379,10.661
			c3.469,5.746,2.042,9.328-4.395,11.271c-4.959,1.492-9.885,0.809-14.795-0.158c-2.846-0.557-5.611-1.646-8.845-1.182
			c1.218,1.805,2.921,2.399,4.338,3.351c4.772,3.202,9.661,6.245,13.17,10.968c2.286,3.077,1.98,4.848-1.472,6.481
			c-4.434,2.1-9.198,3.148-14.002,4.013c-1.805,0.322-3.641,0.52-5.811,2.421C398.932,483.027,403.045,483.976,406.643,486.133z
			 M396.925,632.457c-3.255,8.791-1.335,16.691,5.329,22.854c7.643,7.072,21.49,5.779,27.604-2.207
			c6.514-8.514,6.78-21.716-3.021-28.572c-1.604-1.122-3.314-2.082-4.976-3.117c0.03-2.641-0.381-4.809-3.831-4.818
			c-5.086-0.014-9.976,0.83-14.012,4.019C400.235,623.597,396.704,626.969,396.925,632.457z M322.561,683.401
			c2.581,4.598,9.384,7.592,14.66,6.488c1.931-0.403,3.946-0.651,5.439-2.241c1.989-2.12,1.804-4.424,0.191-6.432
			c-1.246-1.549-2.207-4.791-5.354-2.013c-0.986,0.868-2.126-0.195-3.137-0.581c-2.085-0.793-4.115-1.734-6.221-2.463
			c-2.252-0.779-4.276-0.129-5.603,1.789C321.295,679.739,321.466,681.729,322.561,683.401z"/>
		<path fill="#F5C469" d="M679.496,378.432c-4.383,1.77-8.811,3.443-13.143,5.329c-14.678,6.384-29.976,8.88-45.973,8.483
			c-13.479-0.332-26.841-2.039-40.295-2.59c-11.753-0.48-23.127,1.283-34.305,4.713c-21.65,6.645-40.131,18.604-57.064,33.41
			c-9.904,8.661-19.328,17.754-27.78,27.793c-9.099,10.813-16.785,22.478-17.801,37.188c-0.566,8.249,0.807,16.238,4.806,23.547
			c4.196,7.674,8.637,15.217,13.065,22.76c9.45,16.093,15.392,33.412,16.203,52.033c0.72,16.401-1.875,32.35-11.899,46.152
			c-1.529,2.109-3.435,3.945-5.169,5.912c-1.161-6.214-1.346-11.991,1.238-18.342c7.448-18.308,7.593-37.139,1.653-56.061
			c-3.959-12.613-10.252-24.045-16.942-35.321c-5.161-8.696-10.118-17.478-12.077-27.593c-3.622-18.691,2.048-35.028,13.539-49.342
			c20.102-25.037,42.983-47.084,71.656-62.315c18.596-9.877,38.389-15.233,59.569-14.456c8.745,0.322,17.507,0.911,26.206,1.879
			c25.942,2.889,50.542-0.398,72.99-15.395C679.736,370.374,678.723,374.529,679.496,378.432z"/>
		<path fill="#F5C469" d="M406.643,486.133c-3.598-2.157-7.711-3.105-12.277-4.479c2.17-1.901,4.01-2.101,5.813-2.424
			c4.803-0.86,9.568-1.91,13.999-4.01c3.453-1.635,3.758-3.405,1.474-6.479c-3.51-4.727-8.398-7.77-13.17-10.971
			c-1.418-0.951-3.119-1.547-4.338-3.351c3.231-0.464,5.998,0.622,8.843,1.182c4.913,0.966,9.838,1.651,14.796,0.157
			c6.437-1.942,7.864-5.525,4.396-11.27c-2.483-4.115-6.022-7.309-9.379-10.662c-0.833-0.834-2.015-1.463-2.132-3.157
			c3.367,0.126,6.102,1.739,9.008,2.675c3.469,1.119,7.004,1.922,10.627,2.061c5.242,0.199,6.825-2.515,4.316-7.025
			c-2.913-5.245-7.546-8.924-11.742-13.002c-0.51-0.492-1.357-0.761-1.188-1.971c3.523,0.318,6.608,1.971,9.838,3.125
			c3.637,1.303,7.141,2.998,11.014,3.59c2.064,0.32,4.151,0.373,5.531-1.377c1.424-1.805,0.074-3.709-0.727-5.237
			c-1.97-3.772-4.76-7.011-7.559-10.207c-0.477-0.544-0.858-1.172-1.852-2.548c4.445,1.161,7.518,3.231,10.799,4.724
			c2.912,1.321,5.968,1.785,9.041,1.937c3.324,0.162,4.455-1.58,3.394-4.857c-0.614-1.891-1.519-3.688-2.273-5.533
			c-0.231-0.566-0.587-1.186-0.083-1.746c0.635-0.707,1.354-0.363,2.026,0.001c2.354,1.284,4.069,3.308,5.806,5.253
			c1.85,2.076,3.12,1.869,4.62-0.419c2.236-3.417,2.692-7.196,2.766-11.101c0.025-1.238-0.041-2.474-0.075-4.281
			c2.933,2.297,3.918,5.268,5.056,7.981c1.162,2.771,2.028,2.276,3.398,0.304c3.085-4.439,2.698-9.473,2.547-14.467
			c-0.028-0.978-0.185-1.95-0.353-3.643c2.889,2.717,4.787,5.26,6.005,8.397c1.419,3.651,1.865,3.567,4.625,0.642
			c6.309-6.687,6.539-14.727,5.448-23.112c-0.094-0.742-0.266-1.476-0.379-2.214c-0.012-0.08,0.141-0.185,0.322-0.408
			c4.582,5.563,5.43,12.096,4.912,19.379c3.374-2.061,5.625-4.404,7.353-7.352c0.729-1.244,1.678-2.975,3.372-2.371
			c1.39,0.496,0.752,2.125,0.508,3.336c-0.148,0.729-0.293,1.608,0.588,1.928c0.822,0.298,1.378-0.445,1.881-0.96
			c3.785-3.865,6.045-8.471,6.865-13.841c0.31-2.034-0.076-4.298,1.54-6.016l-0.03-0.008c1.889,3.121,2.041,6.68,2.16,10.124
			c0.118,3.483,1.833,4.157,4.803,3.933c6.551-0.501,11.207-4.487,13.607-12.051c0.699-2.201,1.034-4.514,2.028-6.701
			c2.78,3.432,2.015,7.172,1.323,10.701c-0.58,2.982,0.082,3.779,2.918,2.842c1.535-0.51,3.125-0.883,4.624-1.478
			c1.987-0.79,3.991-2.333,4.33,1.619c0.129,1.503,1.563,0.86,2.404,0.451c2.488-1.216,4.719-2.831,6.492-4.964
			c1.372-1.647,3.011-2.872,4.905-3.99c0.934,1.932,0.002,3.129-1.1,4.413c-1.863,2.176-1.08,3.377,1.6,3.565
			c1.744,0.124,3.484,0.082,5.201-0.396c1.554-0.435,3.102-1.012,4.193,1.023c0.648,1.207,1.778,0.477,2.639,0.034
			c2.334-1.202,4.572-2.538,6.452-4.43c0.907-0.907,1.728-2.085,3.519-2.239c-0.057,2.033-0.871,3.591-1.701,5.038
			c-1.405,2.456-0.274,3.544,1.958,3.954c5.305,0.976,10.404,0.361,15.18-2.305c1.261-0.705,2.288-1.938,3.938-1.852
			c-0.15,5.168,0.72,5.908,6.387,4.993c5.487-0.885,10.079-3.513,13.812-7.635c0.199,0.052,0.399,0.101,0.601,0.142
			c1.273,4.462,4.795,2.839,6.988,1.867c9.742-4.318,19.084-9.52,25.831-18.022c4.39-5.53,8.981-11.063,11.562-17.804
			c3.732-9.759,6.88-19.661,6.659-30.295c0.491-2.494,0.276-5.193,2.268-7.814c3.201,11.293,3.577,22.255,0.677,33.079
			c-7.217,26.961-26.373,41.613-52.051,48.984c-15.678,4.5-31.67,3.202-47.629,1.604c-12.427-1.243-24.871-2.241-37.357-0.725
			c-18.195,2.216-35.473,7.421-51.207,16.905c-31.07,18.732-57.293,42.848-78.409,72.363c-6.563,9.174-10.311,19.664-11.513,30.93
			c-0.232,2.143-0.75,2.177-2.496,1.522C413.734,488.38,410.17,487.305,406.643,486.133z"/>
		<path fill="#F5C469" d="M494.746,183.167c6.725,7.802,6.318,16.591,3.67,25.751c-3.626,12.534-3.519,25.096-0.184,37.695
			c1.084,4.092,2.412,8.155,2.6,12.441c0.107,2.45,1.178,3.403,3.797,3.309c19.484-0.701,37.825,4.728,55.536,11.84
			c14.563,5.852,28.028,14.121,41.399,22.416c8.789,5.454,17.784,10.51,27.547,14.231c11.563,4.405,22.001,2.738,31.995-3.979
			c0.388,0.914,0.775,1.83,1.165,2.746l-0.014-0.032c3.422,7.05,3.4,7.005-3.546,10.446c-12.509,6.194-24.877,4.486-37.171-0.614
			c-11.576-4.804-22.175-11.429-32.876-17.853c-18.261-10.964-37.118-20.555-57.939-25.787c-12.471-3.135-25.115-3.809-37.886-3.101
			c-1.284,0.073-3.046,0.608-2.496-1.783c2.123-9.238-1.039-17.851-2.972-26.64c-2.798-12.732-3.386-25.421,0.989-38.03
			c1.857-5.365,3.492-10.906-2.303-15.321c-1.25-0.953-0.77-2.499,0.079-3.748C488.213,184.102,490.977,182.553,494.746,183.167z"/>
		<path fill="#F5C469" d="M223.908,319.408c-0.208-0.57-0.246-1.321-0.638-1.68c-7.479-6.826-4.082-14.696-1.43-21.861
			c6.913-18.658,28.592-26.096,46.244-17.282c7.709,3.85,14.407,9.415,22.56,12.496c7.227,2.729,14.578,3.235,22.05,1.966
			c4.928-0.835,7.365-5.342,10.79-8.326c9.61-8.38,19.64-16.042,31.109-21.828c9.608-4.846,19.345-9.249,29.581-12.58
			c19.427-6.333,39.278-10.38,59.717-11.399c0.112,0.353,0.324,0.704,0.326,1.06c0.08,10.271,1.6,8.484-7.9,9.781
			c-16.33,2.229-32.63,4.667-48.242,10.105c-24.577,8.561-46.947,20.869-64.977,40.082c-2.1,2.24-4.715,2.705-7.368,3.178
			c-14.763,2.623-28.507,0.161-41.08-8.283c-4.754-3.196-9.524-6.395-15.03-8.284c-11.935-4.097-23.156,1.149-27.611,12.909
			c-1.568,4.135-2.105,8.459-2.758,12.77C228.742,315.604,227.695,318.503,223.908,319.408z"/>
		<path fill="#F5C469" d="M261.224,602.266c-0.558-2.609-2.65-4.148-4.211-6.063c-2.18-2.668-2.851-5.146-1.399-8.844
			c5.97-15.223,18.238-23.514,31.956-30.47c11.909-6.037,24.118-11.402,36.426-16.552c2.856-1.193,1.667-2.727,0.432-4.34
			c-8.746-11.43-16.142-23.721-22.896-36.395c-2.634-4.939-4.806-10.129-7.119-15.235c-1.16-2.562-2.06-3.431-4.188-0.544
			c-2.344,3.178-4.791,6.402-8.435,8.375c-2.752,1.488-4.655,0.645-6.343-1.767c-1.671-2.384-2.828-4.571,0.409-6.539
			c9.617-7.397,14.378-17.562,16.477-29.242c0.44-2.454,1.15-4.861,1.558-7.318c0.334-2.006,0.904-1.641,2.382-0.823
			c3.699,2.052,5.189,4.371,4.417,9.065c-2.13,12.945,2.685,24.638,8.344,35.845c8.729,17.288,19.361,33.387,31.722,48.324
			c0.761,0.92,1.23,2.083,2.025,3.458c-13.493,5.97-27.166,11.603-40.455,18.026c-10.834,5.241-22.11,10.006-30.312,19.489
			c-5.044,5.834-8.825,12.231-9.938,19.981C261.977,601.363,261.788,601.896,261.224,602.266z"/>
		<path fill="#F5C469" d="M246.11,443.336c-0.444-4.678,0.221-8.813,4.444-11.884c2.024-1.473,1.788-4.286,2.135-6.582
			c2.641-17.433,13.498-29.197,30.606-33.132c2.984-0.688,5.965-0.604,8.921-0.154c2.545,0.383,3.785-0.328,4.572-2.945
			c1.957-6.514,1.932-6.238-3.531-10.363c-8.887-6.715-16.623-14.642-23.4-23.506c-1.815-2.369-3.84-4.577-5.752-6.873
			c-0.824-0.992-1.804-1.259-2.99-0.785c1.092-4.174,2.185-8.345,3.319-12.677c3.473,1.091,5.539,3.685,7.428,6.175
			c10.79,14.211,22.737,27.148,38.407,36.15c1.309,0.75,1.148,1.479,0.653,2.73c-3.074,7.768-6.084,15.576-7.665,23.814
			c-0.564,2.939-1.963,1.355-3.148,0.861c-12.445-5.205-24.651-1.945-31.775,8.575c-3.882,5.729-4.92,12.459-6.479,18.987
			c-0.841,3.516-1.419,7.095-2.32,10.594c-0.785,3.059-2.146,5.855-4.88,7.737c-2.045,1.405-3.691,1.134-4.953-1.101
			C248.606,447.021,248.019,444.754,246.11,443.336z"/>
		<path fill="#F5C469" d="M446.588,87.811c19.684-11.363,39.367-22.728,59.049-34.09c1.081-0.625,2.143-1.296,3.265-1.838
			c2.372-1.15,4.411-0.48,5.991,1.463c1.594,1.961,1.037,3.958-0.265,5.856c-0.962,1.404-2.479,2.06-3.878,2.866
			c-39.469,22.797-78.942,45.589-118.42,68.373c-1.398,0.807-2.742,1.741-4.402,1.997c-2.527,0.392-4.516-0.43-5.52-2.805
			c-1.006-2.38-0.26-4.446,1.91-5.824c2.213-1.399,4.531-2.638,6.803-3.948c18.492-10.676,36.984-21.354,55.478-32.031
			C446.596,87.823,446.592,87.817,446.588,87.811z"/>
		<path fill="#F5C469" d="M299.63,680.246c0.348,3.686,5.846,9.825,10.018,10.811c2.843,0.674,6.047,2.91,8.266-1.431
			c0.556-1.087,1.936-0.229,2.908,0.503c9.368,7.098,19.372,5.981,29.485,2.032c2.994-1.166,5.986-7.278,5.833-10.521
			c-0.246-5.184-0.166-10.384-0.753-15.617c3.186,4.976,4.937,10.438,5.862,16.188c0.779,4.859,1.027,5.047,5.707,3.669
			c0.477-0.142,0.958-0.29,1.423-0.473c11.773-4.635,12.99-6.97,10.053-19.229c-0.229-0.951-0.76-1.878-0.077-3.107
			c2.481,0.941,3.424,3.394,4.908,5.184c5.604,6.763,8.343,7.16,14.823,1.042c2.787-2.632,5.212-3.516,9.229-2.788
			c21.681,3.939,39.377-14.793,34.536-36.234c-0.567-2.525-1.617-4.918-1.915-7.541c-0.174-1.548-0.309-2.76,1.613-3.068
			c2.655,7.389,5.257,14.746,5.051,22.809c-0.557,21.797-21.592,34.629-38.702,29.13c-1.635-0.526-2.866-0.423-4.313,1.007
			c-7.92,7.85-17.364,13.363-27.372,18.24c-5.329,2.596-10.557,5.378-16.045,7.695c-19.592,8.271-41.7,5.77-56.425-10.238
			c-1.251-1.36-2.74-2.506-4.143-3.725C297.914,683.112,297.859,681.682,299.63,680.246z"/>
		<path fill="#F5C469" d="M110.033,282.15c15.155-8.75,30.31-17.5,45.467-26.246c0.866-0.5,1.729-1.015,2.636-1.428
			c2.797-1.275,5.381-0.728,6.819,1.905c1.469,2.688,0.402,5.042-2.297,6.598c-10.179,5.868-20.345,11.761-30.519,17.637
			c-20.675,11.939-41.353,23.876-62.028,35.812c-0.759,0.437-1.507,0.899-2.299,1.266c-2.943,1.359-6.042,0.667-7.176-1.788
			c-1.407-3.054-0.229-5.133,2.628-6.766c15.621-8.938,31.191-17.971,46.779-26.971C110.041,282.164,110.037,282.156,110.033,282.15
			z"/>
		<path fill="#FC8119" d="M218.164,363.848c10.051-7.129,17.136-16.447,20.35-28.406c2.102-7.816,4.285-15.656,4.688-23.809
			c0.267-5.414,2.952-10.096,6.955-11.312c3.691-1.122,7.082,0.429,10.195,2.005c7.745,3.925,14.417,9.105,18.133,17.325
			c0.327,0.728,0.46,1.729,1.625,1.93c1.801-1.82,0.416-3.986,0.563-5.97c3.543,0.18,5.784,3.348,5.125,7.23
			c-0.101,0.604-0.228,1.247-0.525,1.768c-3.651,6.42-2.979,6.478-8.457,2.121c-5.167-4.109-10.927-7.257-16.98-9.952
			c-3.16-1.407-4.175-0.212-5.009,2.532c-1.788,5.873-2.551,12.081-5.612,17.549c-4.089-2.397-4.095-2.4-6.139,2.161
			c-0.562,1.253-1.054,2.532-1.623,3.779C236.734,353.181,229.429,360.706,218.164,363.848z"/>
		<path fill="#F5C469" d="M513.211,105.944c12.219-7.055,24.438-14.116,36.664-21.16c1.082-0.624,2.179-1.229,3.318-1.734
			c3.152-1.41,6.089-0.783,7.07,1.714c1.193,3.034-0.119,5.262-2.811,6.814c-14.167,8.176-28.341,16.35-42.505,24.533
			c-11.569,6.684-23.132,13.38-34.696,20.073c-0.326,0.188-0.625,0.422-0.965,0.577c-2.787,1.277-7.07,0.476-7.979-1.479
			c-1.156-2.486,0.178-5.284,3.602-7.268c12.747-7.387,25.516-14.744,38.277-22.112
			C513.197,105.919,513.203,105.931,513.211,105.944z"/>
		<path fill="#F5C469" d="M418.648,143.77c-0.512-2.197-4.057-3.554-1.385-6.722c-6.602,0.109-11.2,3.964-16.333,6.504
			c-1.202,0.595-2.22,2.212-3.923,1.1c25.791-14.823,51.566-29.647,77.352-44.454c9.1-5.227,18.201-10.449,27.346-15.596
			c1.916-1.078,3.654-2.694,6.087-2.618c-4.415,2.557-8.804,5.156-13.259,7.642c-1.832,1.021-2.145,1.941-0.834,3.766
			c1.195,1.666,3.444,3.28,1.668,5.884c-10.445,6.106-20.866,12.25-31.332,18.314C448.924,126.345,433.777,135.045,418.648,143.77z"
			/>
		<path fill="#F5C469" d="M286.507,597.41c0.991-3.212,4.049-3.801,6.553-4.656c12.616-4.32,25.539-7.6,38.502-10.695
			c12.39-2.959,25.002-4.492,37.638-5.986c12-1.418,24.167-1.676,35.951-4.717c3.767-0.972,7.245-2.689,10.743-4.354
			c1.3-0.621,2.627-2.164,4.072-1.135c1.766,1.254,0.123,2.945-0.072,4.449c-3.527,5.834-9.406,7.613-15.517,8.52
			c-15.446,2.291-31.039,3.188-46.589,4.428c-20.568,1.641-40.863,4.787-60.704,10.469
			C293.534,594.749,290.063,596.262,286.507,597.41z"/>
		<path fill="#FC8119" d="M243.408,464.933c-0.947-0.664-0.806-1.687-1.004-3.171c2.901,2.117,5.829,3.297,9.04,3.527
			c8.991,0.652,14.318-4.801,18.275-11.723c4.497-7.865,5.253-17.022,7.793-25.569c0.849-2.854,1.526-5.755,3.342-8.198
			c2.057-2.773,6.3-4.241,9.285-3.244c4.084,1.363,6.265,4.232,6.291,8.303c0.002,0.36-0.102,0.719-0.156,1.078
			c-0.32,2.051,0.746,4.9-0.744,6.008c-2.093,1.559-3.045-1.882-4.931-2.562c-2.588-0.935-3.819-1.23-4.673,2.123
			c-1.513,5.938-2.666,12.052-5.742,17.505c-2.377-0.638-2.548,1.41-3.249,2.73c-3.332,6.266-6.637,12.549-13.197,16.18
			C256.077,472.168,247.338,470.88,243.408,464.933z"/>
		<path fill="#F5C469" d="M398.833,295.5c-1.554-1.562-3.109-3.121-4.669-4.693c0.988-1.129,1.971-0.542,2.883-0.379
			c10.876,1.958,21.764,2.832,32.736,0.673c6.865-1.349,13.69-3.444,18.369-8.58c3.547-3.899,6.08-5.843,11.833-4.608
			c4.555,0.974,8.475-2.953,10.64-7.457c2.629-5.484,2.475-11.396,2.574-17.264c0.031-1.682,0.027-1.68,1.469-1.463
			c1.866,6.262,3.242,12.576,1.904,19.157c-1.898,9.343-9.373,14.773-18.748,13.531c-1.369-0.181-2.25-0.038-3.215,1.112
			c-7.67,9.166-17.971,12.642-29.486,13.179c-7.082,0.33-14.117-0.117-20.971-2.243C402.441,295.937,400.609,295.811,398.833,295.5z
			"/>
		<path fill="#F5C469" d="M448.422,621.342c-0.553-2.18-1.079-4.383-0.863-6.642c0.967-10.086-4.599-17.804-9.315-25.829
			c-0.43-0.734-0.95-1.412-1.68-2.49c3.19-0.048,5.216,1.389,7.337,2.891c0.955,0.678,2.165,2.342,3.521,1.195
			c1.055-0.893,0.17-2.36-0.288-3.488c-2.941-7.221-6.477-14.061-12.503-19.285c-0.851-0.738-2.105-1.764-1.532-2.734
			c0.869-1.473,2.215-0.182,3.258,0.278c2.666,1.181,5.28,2.48,8.125,3.837c-1.968-6.723-6.274-11.365-17.861-19.322
			c3.856-0.451,7.068,0.467,10.264,1.512c3.83,1.566,6.781,4.299,8.555,7.885c7.246,14.635,11.514,29.969,8.854,46.441
			C453.4,611.111,452.811,617.004,448.422,621.342z"/>
		<path fill="#F5C469" d="M540.853,236.018c-0.78-0.391-1.571-0.754-2.335-1.166c-3.377-1.828-3.629-5.098-0.535-7.426
			c0.889-0.674,1.896-1.191,2.866-1.754c12.304-7.092,24.588-14.223,36.942-21.225c1.65-0.935,2.838-2.672,4.891-2.875
			c1.918,1.557,3.828,3.149,5.789,4.672c1.701,1.32,1.494,2.104-0.391,3.147C572.273,218.152,556.882,227.652,540.853,236.018z"/>
		<path fill="#F5C469" d="M558.041,131.053c6.165-3.559,12.336-7.107,18.494-10.682c2.037-1.183,3.986-1.251,5.919,0.232
			c1.448,1.111,1.814,2.51,1.604,4.289c-0.191,1.626-1.278,2.355-2.451,3.051c-12.474,7.367-24.938,14.75-37.459,22.035
			c-2.613,1.521-6.58,0.695-7.561-1.496c-1.426-3.187,0.372-5.215,2.97-6.727c6.153-3.58,12.326-7.125,18.491-10.685
			C558.047,131.063,558.045,131.058,558.041,131.053z"/>
		<path fill="#F5C469" d="M576.189,148.984c5.516-3.184,11.016-6.387,16.546-9.542c3.182-1.817,5.919-1.31,7.431,1.284
			c1.393,2.388,0.529,5.112-2.472,6.875c-10.979,6.449-21.991,12.839-33.028,19.189c-2.936,1.686-6.391,0.965-7.568-1.359
			c-1.314-2.593-0.303-5.172,2.898-7.049c5.383-3.158,10.805-6.25,16.209-9.372C576.199,149.001,576.195,148.992,576.189,148.984z"
			/>
		<path fill="#F5C469" d="M331.89,474.216c5.609-4.296,5.443-10.143,4.509-16.291c-1.284-8.428-0.274-16.61,3.694-24.209
			c2.277-4.364,6.14-6.958,11.162-6.962c4.368-0.005,8.303,1.328,10.41,5.714c-0.492-0.074-0.997-0.091-1.471-0.232
			c-13.772-4.071-18.441,5.888-19.366,15.348c-0.472,4.792,1.268,9.337,1.847,14.013c0.65,5.225-0.383,9.907-4.95,13.238
			c-2.411,1.759-5.002,2.658-8.19,1.959C329.744,475.331,331.245,475.135,331.89,474.216z"/>
		<path fill="#F5C469" d="M636.345,199.179c3.571-2.06,7.126-4.146,10.715-6.174c2.806-1.587,4.987-0.577,6.647,1.866
			c1.699,2.502,0.831,4.526-1.546,5.92c-7.325,4.295-14.661,8.568-22.077,12.703c-2.664,1.486-5.109,0.832-6.619-1.961
			c-1.494-2.768-0.344-4.732,2.169-6.178C629.207,203.306,632.772,201.236,636.345,199.179z"/>
		<path fill="#F5C469" d="M422.036,379.996c0.342-0.137,0.722-0.447,1.024-0.389c16.887,3.385,32.963,0.488,48.549-6.297
			c-0.2,3.697-3.762,7.854-10.316,12.09c-13.705,6.403-26.254,2.041-38.59-4.159C422.359,381.069,422.252,380.424,422.036,379.996z"
			/>
		<path fill="#F5C469" d="M655.658,228.742c-2.922,1.688-5.818,3.414-8.769,5.047c-2.844,1.574-6.423,1.018-7.622-1.366
			c-1.467-2.91,0.098-5.194,2.44-6.636c6.161-3.796,12.386-7.51,18.774-10.9c2.275-1.208,4.601,0.039,5.953,2.294
			c1.318,2.198,1.229,4.367-1.115,5.825c-3.178,1.979-6.471,3.771-9.716,5.646C655.621,228.682,655.639,228.713,655.658,228.742z"/>
		<path fill="#FC8119" d="M122.552,538.326c6.02-3.549,11.997-7.181,18.086-10.602c2.533-1.424,4.959-1.384,6.633,1.684
			c1.671,3.059,0.521,4.846-2.208,6.354c-5.677,3.144-11.018,6.891-16.957,9.563c-0.678-1.016-1.48-0.354-2.292-0.223
			c-2.575,0.418-4.782-2.021-4.013-4.443C122.048,539.885,122.927,539.313,122.552,538.326z"/>
		<path fill="#FC8119" d="M701.836,385.723c-3.955-3.066-3.975-6.271,0.116-8.727c5.217-3.129,10.53-6.095,15.82-9.103
			c2.19-1.248,4.45-1.726,6.513,0.202c2.082,1.941,1.746,4.104,0.285,6.26c-2.052,1.147-4.058,2.388-6.164,3.424
			C712.908,380.482,708.236,384.91,701.836,385.723z"/>
		<path fill="#F5C469" d="M218.164,363.848c11.266-3.142,18.57-10.665,23.289-21.048c0.567-1.247,1.062-2.526,1.621-3.78
			c2.047-4.561,2.053-4.558,6.141-2.16c-2.512,9.272-6.184,17.924-13.389,24.632c-4.037,3.757-8.739,5.683-14.337,4.711
			C220.058,365.952,218.379,365.89,218.164,363.848z"/>
		<path fill="#F5C469" d="M164.609,585.806c-2.271,1.31-4.497,2.707-6.822,3.909c-2.647,1.367-4.947,0.685-6.357-1.896
			c-1.372-2.514-0.942-4.927,1.627-6.479c4.595-2.775,9.223-5.506,13.945-8.054c2.727-1.471,5.137-0.652,6.649,2.074
			c1.476,2.669,0.593,4.822-1.899,6.345c-2.346,1.431-4.749,2.757-7.126,4.131C164.621,585.827,164.615,585.816,164.609,585.806z"/>
		<path fill="#F5C469" d="M121.101,349.621c-1.944,1.117-3.872,2.266-5.833,3.357c-2.798,1.555-4.809,0.286-6.313-2.019
			c-1.47-2.249-0.99-4.376,1.208-5.85c4.143-2.774,8.475-5.242,13.019-7.312c2.625-1.195,4.748-0.223,5.911,2.217
			c1.141,2.392,0.734,4.621-1.835,6.063C125.194,347.237,123.155,348.441,121.101,349.621z"/>
		<path fill="#F5C469" d="M243.408,464.933c3.931,5.947,12.669,7.238,20.333,2.993c6.558-3.632,9.865-9.917,13.198-16.182
			c0.702-1.319,0.871-3.369,3.248-2.732c-1.681,8.576-4.698,16.491-11.367,22.536c-7.327,6.634-18.406,5.817-24.125-1.825
			C243.701,468.393,242.062,466.998,243.408,464.933z"/>
		<path fill="#F5C469" d="M234.22,654.619c-1.833,1.058-3.63,2.18-5.509,3.158c-2.406,1.258-4.746,0.996-6.263-1.314
			c-1.571-2.398-1.132-5.093,1.156-6.656c3.795-2.592,7.804-4.937,11.948-6.917c2.593-1.241,4.809,0.257,6.212,2.643
			c1.453,2.472,0.315,4.299-1.763,5.656c-1.873,1.224-3.867,2.263-5.809,3.384C234.203,654.587,234.211,654.603,234.22,654.619z"/>
		<path fill="#FC8119" d="M151.115,561.659c-2.259,1.303-4.477,2.688-6.789,3.89c-2.566,1.337-4.765,0.342-6.033-1.898
			c-1.315-2.318-0.76-4.579,1.739-6.028c4.301-2.49,8.577-5.033,12.925-7.445c2.519-1.397,5.073-1.04,6.446,1.513
			c1.373,2.551,0.888,5.029-2.092,6.539c-2.104,1.064-4.101,2.338-6.145,3.52C151.149,561.718,151.132,561.687,151.115,561.659z"/>
		<path fill="#F5C469" d="M255.48,672.678c-1.73,1-3.407,2.111-5.204,2.972c-2.713,1.297-4.936,0.382-6.373-2.097
			c-1.428-2.463-0.711-4.674,1.64-6.112c3.624-2.214,7.353-4.255,11.059-6.331c2.751-1.541,4.93-0.455,6.338,1.928
			c1.419,2.414,0.544,4.652-1.675,6.176c-1.847,1.27-3.874,2.281-5.82,3.404C255.457,672.636,255.469,672.656,255.48,672.678z"/>
		<path fill="#FC8119" d="M177.918,597.767c1.719-0.991,3.426-2.011,5.165-2.974c2.482-1.379,4.517-0.328,5.705,1.747
			c1.169,2.031,1.069,4.603-1.005,6.023c-3.37,2.308-6.944,4.387-10.631,6.139c-2.541,1.208-4.889,0.131-6.271-2.354
			c-1.363-2.449-0.248-4.31,1.838-5.677c1.657-1.086,3.426-2.004,5.146-2.998C177.882,597.704,177.899,597.734,177.918,597.767z"/>
		<path fill="#FC8119" d="M495.367,99.274c1.775-2.602-0.473-4.218-1.668-5.884c-1.311-1.821-1-2.743,0.834-3.766
			c4.455-2.485,8.844-5.085,13.259-7.642c2.964-0.975,4.132,1.149,4.895,3.214c0.974,2.63-0.544,4.602-2.708,5.87
			C505.158,93.889,500.242,96.55,495.367,99.274z"/>
		<path fill="#FC8119" d="M122.421,491.564c1.729-0.998,3.423-2.059,5.19-2.979c2.509-1.303,4.39-0.258,5.614,1.961
			c1.237,2.24,0.944,4.418-1.333,5.86c-3.054,1.934-6.176,3.771-9.349,5.509c-2.748,1.503-4.8,0.189-6.27-2.115
			c-1.503-2.36-0.643-4.291,1.564-5.696c1.471-0.938,3.016-1.761,4.527-2.634C122.385,491.501,122.403,491.533,122.421,491.564z"/>
		<path fill="#FC8119" d="M226.618,336.563c-3.312,10.594-13.188,18.759-21.19,17.651
			C210.479,345.95,217.501,340.394,226.618,336.563z"/>
		<path fill="#F5C469" d="M415.069,507.013c-3.555-3.466-8.818-3.472-13.104-6.284c2.515-1.799,5.135-2.32,7.729-2.859
			c1.866-0.391,2.608-1.248,1.638-3.084c7.088,2.32,9.538,5.607,10.206,14.35C419.234,508.38,417.151,507.695,415.069,507.013z"/>
		<path fill="#FC8119" d="M295.947,324.475c1.727,3.85-0.322,12.615-3.628,15.157c-2.486,1.909-3.827-0.631-5.397-1.691
			c-1.305-0.886-1.744-1.989-0.327-3.692c2.475-2.973,5.145-5.893,6.553-9.629c0.26-0.691,0.545-1.501,1.388-1.605
			C295.519,322.893,295.636,323.827,295.947,324.475z"/>
		<path fill="#F5C469" d="M95.497,325.891c-1.692-2.784-0.9-6.02,1.899-7.775c2.692-1.688,6.769-0.799,8.204,1.789
			c1.537,2.771,0.559,6.084-2.282,7.728C100.423,329.306,97.13,328.572,95.497,325.891z"/>
		<path fill="#F5C469" d="M216.461,635.15c-3.225,1.855-6.85,1.068-8.467-1.841c-1.537-2.769-0.377-6.317,2.611-7.983
			c2.904-1.616,6.567-0.648,8.098,2.141C220.245,630.276,219.299,633.518,216.461,635.15z"/>
		<path fill="#F5C469" d="M424.215,541.002c-2.071-2.533-5.76-1.165-8.072-3.398c3.297-2.557,7.518-1.843,11.117-3.205
			c5.412,1.92,6.888,3.266,11.083,10.507c-4.28-1.986-8.213-2.364-11.938-3.603c-0.699-0.42-1.432-0.652-2.252-0.428
			L424.215,541.002z"/>
		<path fill="#FC8119" d="M301.72,339.826c1.904-1.791,2.381-1.217,2.822,0.006c0.985,2.715,0.807,5.425-0.192,8.011
			c-0.701,1.812-1.655,4.133-4.017,3.762c-2.201-0.348-3.468-2.604-5.037-4.137c-0.484-0.474-0.126-1.287,0.318-1.684
			C298.004,343.664,300.527,341.687,301.72,339.826z"/>
		<path fill="#F5C469" d="M549.106,40.005c-2.427,1.438-5.815,0.604-7.052-1.884c-1.383-2.774-0.678-5.008,2.057-6.584
			c2.602-1.5,5.652-0.794,7.041,1.686C552.393,35.438,551.429,38.628,549.106,40.005z"/>
		<path fill="#F5C469" d="M23.736,343.506c-2.422,1.499-5.803,0.795-7.246-1.509c-1.496-2.381-0.631-5.509,1.941-7.018
			c2.498-1.468,5.605-0.71,7.125,1.731C26.907,338.889,26.057,342.072,23.736,343.506z"/>
		<path fill="#F5C469" d="M419.005,525.045c-2.808-3.459-7.342-2.899-11.431-4.671c4.827-2.946,9.657-1.81,14.314-1.907
			c3.867,1.454,4.293,5.41,6.714,8.711C424.834,527,422.184,524.703,419.005,525.045z"/>
		<path fill="#F5C469" d="M125.326,308.335c-1.38-1.922-1.16-3.779,0.243-5.581c0.431,0.772,1.048,1.038,1.886,0.684
			c1.377,3.317,3.695,1.029,5.63,0.923c0.681-0.035,1.261-0.496,0.868-1.211c-0.874-1.607-2.625-1.595-4.134-1.92
			c-1.524-0.332-1.502,1.345-2.301,1.976c-0.524-0.699-1.191-0.763-1.947-0.45c2.76-3.173,5.955-3.646,8.662-1.278
			c1.885,1.648,2.134,5.347,0.512,7.54c-1.973,2.661-5.249,2.898-8.475,0.604c1.721-0.696,3.404,1.029,5.122,0.088
			c0.818-0.448,2.328-0.942,1.419-2.012c-1.452-1.703-3.998-0.201-5.932-1.445C126.055,305.721,125.772,307.53,125.326,308.335z"/>
		<path fill="#F5C469" d="M390.241,694.707c5.073-2.798,9.204-5.76,12.929-9.22c2.234-2.081,4.612-0.706,7.17-1.213
			C406.436,691.283,398.24,695.625,390.241,694.707z"/>
		<path fill="#FC8119" d="M41.658,322.444c2.032-0.859,4.063-1.218,5.467,1.138c1.313,2.198,0.743,4.177-1.344,5.453
			c-2.051,1.256-4.13,0.899-5.576-1.129C38.603,325.66,39.76,323.961,41.658,322.444z"/>
		<path fill="#F5C469" d="M602.075,218.035c-2.044-0.229-3.798,0.382-5.587,1.42c-21.63,12.57-43.3,25.074-64.965,37.585
			c-1.17,0.676-2.246,1.61-3.725,1.581c23.162-13.412,46.313-26.843,69.506-40.199C598.696,217.622,600.289,215.547,602.075,218.035
			z"/>
		<path fill="#F5C469" d="M671.983,249.01c-2.25,1.037-4.264,1.232-5.728-0.953c-1.282-1.91-0.381-5.244,1.71-6.109
			c2.218-0.916,4.315-0.256,5.511,1.744C674.756,245.834,673.853,247.713,671.983,249.01z"/>
		<path fill="#F5C469" d="M60.528,400.759c2.647-1.259,4.667-0.671,6.059,1.489c1.436,2.221,0.565,4.171-1.503,5.376
			c-2.272,1.33-4.449,0.715-5.816-1.497C57.916,403.943,58.878,402.115,60.528,400.759z"/>
		<path fill="#F5C469" d="M290.103,611.956c-1.063-1.843-2.16-3.356,0.198-4.321c1.896-0.775,3.895-2.656,5.914-0.723
			c1.266,1.213,0.686,9.214-0.367,9.217C292.872,616.14,291.559,613.467,290.103,611.956z"/>
		<path fill="#FC8119" d="M182.655,643.952c2.148-1.195,3.955-1.05,5.28,0.962c1.32,2.004,0.846,3.859-1.141,5.029
			c-1.863,1.098-3.904,1.1-5.175-0.988C180.441,647.021,180.662,645.177,182.655,643.952z"/>
		<path fill="#FC8119" d="M537.666,69.357c-0.568-1.939-0.859-3.959,1.27-5.178c1.967-1.124,3.989-0.665,5.275,1.178
			c1.457,2.091,0.287,3.864-1.49,5.021C540.923,71.552,539.178,70.956,537.666,69.357z"/>
		<path fill="#F5C469" d="M83.575,479.111c-1.178-2.253-0.62-4.234,1.467-5.441c2.04-1.178,4.241-0.922,5.502,1.305
			c1.207,2.127,0.709,4.165-1.482,5.438C86.925,481.651,85.013,481.277,83.575,479.111z"/>
		<path fill="#F5C469" d="M340.831,620.936c-1.163-2.398-0.504-8.531,1.092-8.733c2.636-0.337,5.138,1.62,5.597,3.473
			c0.835,3.368-3.523,3.587-5.079,5.724C341.837,622.233,341.192,621.646,340.831,620.936z"/>
		<path fill="#F5C469" d="M327.017,634.566c-0.113,0.065-0.594,0.484-0.721,0.395c-2.326-1.632-1.782-4.168-1.726-6.406
			c0.033-1.275,0.214-3.314,2.573-2.464c1.392,0.501,2.73,1.161,4.069,1.8c1.325,0.631,1.566,1.461,0.378,2.518
			C330.112,631.725,328.658,633.07,327.017,634.566z"/>
		<path fill="#F5C469" d="M631.059,167.206c-2.117,0.834-4.025,1.194-5.26-1.16c-1.189-2.267-0.578-4.345,1.488-5.464
			c2.17-1.172,4.27-0.099,5.31,1.971C633.521,164.393,632.939,166.199,631.059,167.206z M626.748,165.358
			c0.879,1.291,1.914,1.005,2.949,0.447c1.117-0.606,2.34-1.42,1.482-2.81c-0.616-0.999-1.929-1.727-3.202-1.073
			C626.59,162.637,626.529,164.036,626.748,165.358z"/>
		<path fill="#F5C469" d="M324.67,601.651c0.129-1.372-2.884-2.589-0.533-3.887c1.736-0.956,4.037-1.991,6.157-0.54
			c0.646,0.441-0.949,7.5-1.772,7.676C326.015,605.428,326.005,602.816,324.67,601.651z"/>
		<path fill="#F5C469" d="M317.806,642.373c-0.583,2.617-2.96,3.764-4.484,5.535c-0.785,0.912-1.628,0.48-1.898-0.59
			c-0.635-2.54-2.508-5.707-0.012-7.482C313.276,638.511,315.691,640.877,317.806,642.373z"/>
		<path fill="#F5C469" d="M307.025,605.418c-0.051-1.314-2.867-2.76-0.004-3.791c1.74-0.623,3.734-2.367,5.686-0.513
			c0.816,0.778-0.61,7.001-1.654,7.272C308.641,609.018,308.281,606.589,307.025,605.418z"/>
		<path fill="#F5C469" d="M298.697,660.485c-0.736-2.299-2.239-5.003,0.193-6.452c1.833-1.092,4.146,0.746,6.029,1.852
			c0.488,0.285-3.213,5.494-4.264,5.926C299.228,662.395,299.018,661.278,298.697,660.485z"/>
		<path fill="#FC8119" d="M312.085,360.905c-1.898-0.986-4.957-0.77-4.732-3.362c0.096-1.15,3.138-3.277,3.773-2.939
			C313.665,355.947,310.808,358.767,312.085,360.905z"/>
		<path fill="#F5C469" d="M365.062,605.609c-2.112,1.667-4.933,1.717-6.969,3.881c-1.373-3.062-0.491-5.534,0.598-7.896
			c0.639-1.378,1.671-1.151,2.611-0.075C362.492,602.871,363.737,604.174,365.062,605.609z"/>
		<path fill="#F5C469" d="M345.307,601.057c-1.728-2.695-4.597-4.363-3.126-6.895c0.683-1.171,4.563-1.766,5.407-0.361
			C348.926,596.029,346.604,598.252,345.307,601.057z"/>
		<path fill="#F5C469" d="M122.552,538.326c0.375,0.986-0.504,1.559-0.75,2.334c-0.768,2.424,1.44,4.861,4.014,4.442
			c0.813-0.132,1.614-0.791,2.293,0.224c-3.094,2.045-5.963,1.942-7.362-0.537C119.281,542.196,119.374,539.76,122.552,538.326z"/>
		<path fill="#F5C469" d="M168.674,530.842c5.341,9.258,10.679,18.517,16.009,27.76
			C178.841,549.627,172.979,540.682,168.674,530.842z"/>
		<path fill="#F5C469" d="M701.836,385.723c6.4-0.813,11.072-5.24,16.568-7.942c2.107-1.036,4.113-2.276,6.165-3.423
			c-4.737,4.455-10.961,6.541-16.228,10.158C706.404,385.846,704.332,387.098,701.836,385.723z"/>
		<path fill="#F5C469" d="M223.056,320.651c0,0,0.102-0.056,0.098-0.053C223.152,320.604,223.056,320.651,223.056,320.651z"/>
		<polygon fill="#FC8119" points="662.258,309.585 662.271,309.617 662.415,309.65 		"/>
		<path fill="#F5C469" d="M261.216,603.525c-0.298-0.573-0.295-1.105,0.21-1.571C261.732,602.527,261.607,603.046,261.216,603.525z"
			/>
		<path fill="#FC8119" d="M424.152,540.875c0.82-0.225,1.553,0.009,2.252,0.428C425.492,542.002,424.552,542.868,424.152,540.875z"
			/>
		<path fill="#013F54" d="M241.313,234.064c-1.622,0.937-3.218,1.929-4.877,2.798c-3.156,1.662-6.385,1.019-8.343-1.584
			c-2.057-2.746-1.965-6.563,0.797-8.756c3.804-3.021,7.918-5.735,12.574-7.29c3.567-1.19,5.949,0.083,7.525,3.455
			c1.547,3.311,0.842,6.13-2.192,8.14c-1.768,1.171-3.665,2.144-5.505,3.206C241.302,234.044,241.307,234.055,241.313,234.064z"/>
		<path fill="#013F54" d="M421.859,621.414c1.662,1.035,3.372,1.994,4.975,3.115c9.803,6.857,9.537,20.059,3.021,28.571
			c-6.113,7.988-19.959,9.282-27.604,2.209c-6.662-6.16-8.581-14.063-5.328-22.854C404.105,621.335,409.012,619.161,421.859,621.414
			z M413.784,636.377c-2.39,1.412-3.202,4.373-1.849,6.732c1.555,2.713,3.982,3.203,6.953,1.445c2.668-1.572,3.03-3.709,1.584-6.287
			C419.081,635.791,416.151,634.979,413.784,636.377z"/>
		<path fill="#013F54" d="M322.561,683.401c-1.094-1.673-1.265-3.662-0.025-5.452c1.326-1.918,3.352-2.57,5.603-1.789
			c2.106,0.729,4.136,1.67,6.221,2.463c1.01,0.384,2.15,1.449,3.137,0.581c3.148-2.778,4.109,0.464,5.354,2.013
			c1.613,2.008,1.798,4.312-0.191,6.432c-1.493,1.59-3.508,1.838-5.439,2.241C331.944,690.993,325.139,688,322.561,683.401z"/>
		<path fill="#F5C469" d="M421.859,621.414c-12.848-2.253-17.757-0.08-24.936,11.039c-0.217-5.484,3.313-8.859,7.093-11.842
			c4.036-3.188,8.925-4.03,14.009-4.02C421.479,616.604,421.887,618.771,421.859,621.414z"/>
		<path fill="#F5C469" d="M531.646,352.31l-0.03-0.009L531.646,352.31z"/>
		<path fill="#013F54" d="M368.08,475.594c0.04-0.068,0.079-0.137,0.116-0.201c0.001,0.053,0.002,0.104,0.01,0.154
			C368.214,475.545,368.08,475.594,368.08,475.594z"/>
		<path fill="#F5C469" d="M643.287,356.954c0.348-0.583,0.529-0.457,0.598,0.142C643.686,357.055,643.485,357.006,643.287,356.954z"
			/>
		<path fill="#FC8119" d="M127.517,303.204c0.801-0.631,0.778-2.306,2.302-1.975c1.511,0.324,3.261,0.313,4.134,1.92
			c0.393,0.716-0.187,1.175-0.868,1.211c-1.935,0.106-4.254,2.393-5.63-0.923L127.517,303.204z"/>
		<path fill="#FC8119" d="M125.326,308.335c0.447-0.807,0.729-2.614,1.551-2.085c1.936,1.242,4.482-0.259,5.934,1.444
			c0.908,1.071-0.604,1.566-1.42,2.012c-1.719,0.941-3.402-0.783-5.122-0.089C125.957,309.193,125.642,308.764,125.326,308.335z"/>
		<path fill="#FC8119" d="M127.457,303.438c-0.839,0.355-1.455,0.088-1.887-0.681l0-0.002c0.756-0.313,1.424-0.25,1.948,0.449
			C127.517,303.204,127.457,303.438,127.457,303.438z"/>
		<path fill="#FC8119" d="M626.748,165.358c-0.217-1.322-0.16-2.724,1.232-3.437c1.271-0.652,2.583,0.075,3.199,1.072
			c0.858,1.394-0.364,2.207-1.482,2.811C628.661,166.363,627.627,166.65,626.748,165.358z"/>
		<path fill="#F5C469" d="M413.784,636.377c2.367-1.398,5.297-0.586,6.688,1.891c1.448,2.577,1.084,4.715-1.584,6.287
			c-2.975,1.756-5.398,1.268-6.953-1.445C410.581,640.75,411.395,637.789,413.784,636.377z"/>
	</g>
</g>
</svg>
