<?xml version="1.0" encoding="utf-8"?>
<!-- Generator: Adobe Illustrator 16.0.3, SVG Export Plug-In . SVG Version: 6.00 Build 0)  -->
<!DOCTYPE svg PUBLIC "-//W3C//DTD SVG 1.1//EN" "http://www.w3.org/Graphics/SVG/1.1/DTD/svg11.dtd">
<svg version="1.1" id="Layer_1" xmlns="http://www.w3.org/2000/svg" xmlns:xlink="http://www.w3.org/1999/xlink" x="0px" y="0px"
	 width="768px" height="768px" viewBox="0 0 768 768" enable-background="new 0 0 768 768" xml:space="preserve">
<circle fill="#013F54" cx="384" cy="384" r="384"/>
<g>
	<path fill="#FC8119" d="M244.828,615.834c0.693-0.178,1.387-0.355,2.222-0.568c-1.116-2.28-3.607-2.703-5.167-4.235
		c-0.603-0.596-1.619-0.98-1.2-2.044c0.333-0.847,1.269-0.674,1.977-0.687c3.873-0.064,7.747-0.114,11.621-0.115
		c53.118-0.019,106.234-0.024,159.354-0.044c2.249,0,4.513,0.104,6.745-0.095c4.388-0.385,6.646-2.767,6.511-6.604
		c-0.133-3.771-2.154-5.503-6.933-5.503c-16.748-0.008-33.495,0.115-50.242,0.128c-47.994,0.025-95.988-0.105-143.981,0.181
		c-6.902,0.041-12.162-1.711-17.348-6.271c-14.888-13.078-29.108-26.744-41.188-42.514c-9.855-12.861-18.511-26.479-25.446-41.141
		c-1.685-3.563-1.404-3.755,2.61-3.736c20.494,0.092,40.987,0.188,61.48,0.245c1.483,0.005,3.028-0.077,4.438-0.484
		c3.382-0.976,5.517-4.222,4.818-7.415c-0.738-3.374-3.148-4.987-6.497-5.023c-6.247-0.066-12.496,0.013-18.744,0.015
		c-16.123,0.002-32.249-0.194-48.366,0.104c-5.073,0.094-9.09-0.138-9.821-6.269c1.881,0.854,3.777-0.06,5.672-0.045
		c14.201,0.115,28.404,0.082,42.606,0.09c1.121,0,2.253,0.055,3.36-0.084c3.842-0.471,5.26-3.427,3.249-6.696
		c-0.455-0.74-0.959-1.451-1.44-2.18c6.188-0.085,12.377-0.188,18.566-0.249c4.427-0.041,7.634-1.723,8.394-4.719
		c1.001-3.947-1.202-6.301-4.353-8.083c-1.265-0.767-2.664-0.492-4.015-0.492c-25.019,0.002-50.037-0.004-75.055,0.066
		c-2.069,0.006-3.893-0.344-5.547-1.563c-1.953-6.133-3.34-12.343-4.301-18.753c-0.909-6.068-2.009-12.129-2.861-18.229
		c-2.143-15.359-2.255-30.771-1.84-46.225c0.21-7.815,0.696-15.574,2.297-23.24c12.014-0.82,21.888,2.957,29.697,12.552
		c6.596,8.105,11.857,16.98,16.742,26.097c7.432,13.869,14.958,27.769,24.646,40.113c11.781,15.017,24.95,28.89,42.174,38.021
		c2.316,1.229,2.767,2.593,1.635,4.767c-1.982,3.807-2.863,7.99-3.971,12.076c-3.412,12.575-9.599,23.509-19.004,32.551
		c-6.875,6.606-11.622,14.018-9.699,24.136c-8.248,4.396-7.565,15.396-2.5,22.638c7.596,10.863,19.627,13.892,32.181,11.166
		c16.098-3.489,24.736-14.959,30.568-29.281c3.513-8.63,6.363-17.528,10.623-25.851c0.277-0.542,0.692-1.015,1.043-1.52
		c18.208,9.336,37.425,15.756,57.416,19.986c10.528,2.229,21.165,3.285,31.907,3.896c12.823,0.726,25.344-0.896,37.854-3.349
		c4.458-0.872,8.822-3.56,13.507-1.817c7.107,2.639,13.222,6.748,18.113,12.729c5.518,6.741,8.538,14.911,13.29,22.102
		c10.882,16.459,33.373,20.857,48.688,8.155c5.884-4.88,12.76-9.995,9.693-19.646c-0.161-0.51,0.181-1.179,0.287-1.772
		c0.418-0.221,0.836-0.438,1.248-0.654c-0.004,0.002,0.111,0.004,0.111,0.004c3.791-1.88,7.824-2.68,11.99-2.112
		c6.2,0.846,11.928-0.391,17.213-3.563c5.141-3.084,9.998-2.776,14.465,1.051c1.896,1.627,2.833,1.216,4.093-0.569
		c7.153-10.136,8.208-21.059,3.298-32.215c-5.396-12.258-15.498-18.431-28.637-19.604c-14.594-1.304-27.015,4.226-38.444,12.688
		c-1.168,0.864-2.142,2.11-3.705,2.385c-1.267-0.185-1.979-0.903-2.199-2.177c-0.506-2.942-1.157-5.869-1.543-8.828
		c-1.437-11.063-4.173-21.799-8.513-32.057c-2.667-6.306-2.828-6.078,2.123-10.74c1.989-1.873,3.421-1.869,5.432-0.265
		c2.335,1.867,4.875,3.431,7.806,4.327c16.781,5.146,32.067,0.388,43.069-13.391c1.448-1.813,2.65-4.37,5.143-4.634
		c5.19-0.552,7.836-3.798,9.79-8.07c12.587,4.363,21.354,1.566,27.151-9.65c4.73-9.147,3.175-18.443-2.291-26.854
		c-7.097-10.924-17.789-14.417-30.342-13.491c3.785-0.086,3.878-2.559,3.623-5.459c-0.258-2.934-1.484-4.612-4.611-4.7
		c-4.143-0.115-7.873,1.454-11.489,3.036c-3.286,1.437-3.636,0.229-3.355-2.564c0.551-5.579,1.264-11.159,1.453-16.754
		c0.486-14.353,0.228-28.695-1.632-42.967c-0.266-2.014-0.526-3.937,2.543-3.543c13.232,1.695,26.491,3.153,39.823,3.879
		c15.355,0.835,30.127-0.209,42.906-10.408c3.107-2.479,3.766-4.959,3.21-8.36c-0.396-2.438-1.438-4.817-0.613-7.356l-0.081,0.253
		c0,0-0.252-0.083-0.25-0.083c0.671-0.152,0.938-0.613,0.969-1.257c1.31-2.654,2.809-5.232,3.893-7.976
		c2.513-6.344,0.06-12.006-6.212-14.588c-0.863-0.357-1.527-0.637-1.847-1.591c-3.592-10.827-12.159-16.157-22.1-19.971
		c-0.459-0.176-0.868-0.484-1.646-0.928c4.95-1.763,10.056-2.438,14.162-5.612c0.613-0.474,1.947-0.191,2.903-0.017
		c3.438,0.627,6.687-0.147,9.056-2.479c2.488-2.449,3.563-0.987,4.749,0.949c5.499,8.977,10.514,18.218,15.188,27.651
		c7.532,15.209,13.354,31.092,17.473,47.505c4.463,17.783,7.742,35.821,8.2,54.23c-0.009,10.67-0.014,21.358-0.018,32.044
		c-0.198,11.392-1.961,22.596-4.077,33.756c-1.736,9.177-3.697,18.291-6.438,27.242c-7.132,23.313-17.035,45.273-30.703,65.55
		c-10.173,15.09-21.547,29.131-34.279,42.119c-16.742,17.081-35.379,31.788-55.488,44.672c-2.089,1.337-4.206,2.626-6.342,3.891
		c-4.055,2.406-8.331,3.553-13.166,3.389c-8.234-0.28-16.491-0.077-24.737-0.021c-6.354,0.045-9.353,3.768-7.364,9.713
		c0.89,2.665-0.105,3.146-2.132,3.941c-12.923,5.082-26.332,8.155-39.979,10.614c-21.268,3.832-42.657,4.946-64.136,3.379
		c-12.896-0.941-25.729-2.799-38.394-5.682c-8.615-1.961-17.173-4.021-25.306-7.516c0.005-0.326,0.01-0.652,0.015-0.979
		c2.238,0,4.477,0,6.715,0c31.867,0.003,63.731,0.007,95.601-0.002c1.497,0,3.021,0.06,4.486-0.177
		c3.394-0.54,5.788-3.497,5.712-6.828c-0.076-3.282-2.688-6.049-6.146-6.396c-1.235-0.125-2.495-0.055-3.745-0.056
		c-45.489-0.024-90.979-0.048-136.468-0.086c-1.493-0.001-2.985-0.156-4.464-0.24c-0.919-1.813-2.609-0.925-3.947-1.011
		c-5.717-0.365-11.626,0.673-17.397-2.532C246.564,620.939,244.172,617.992,244.828,615.834z M443.552,626.303
		c0,0.015,0,0.024,0,0.036c-2.124,0-4.254-0.104-6.37,0.023c-3.632,0.224-5.65,2.313-5.969,5.954
		c-0.321,3.708,1.106,6.002,4.79,6.754c4.813,0.979,9.729,0.688,14.534-0.025c3.488-0.52,5.479-3.777,5.066-7.186
		c-0.394-3.232-2.865-5.403-6.434-5.543C447.303,626.242,445.426,626.303,443.552,626.303z"/>
	<path fill="#FC8119" d="M136.258,282.186c13.047-28.875,30.628-54.666,52.39-77.692c14.445-15.284,30.644-28.333,48.51-39.348
		c22.319-13.762,46-24.455,71.148-31.99c31.93-9.566,64.513-12.919,97.662-10.597c20.085,1.407,39.754,5.326,59.042,11.237
		c6.313,1.935,12.466,4.238,18.66,6.467c0.982,0.354,1.786,0.858,2.583,1.872c-2.144,1.482-4.682,1.971-6.975,2.991
		c-8.021,3.566-14.291,9.248-19.437,16.261c-0.354,0.488-0.486,1.166-1.259,1.216c-2.482,0.836-5.053,1.474-7.434,2.534
		c-15.582,6.939-25.802,19.457-33.382,34.021c-8.605,16.533-12.119,34.5-11.982,53.163c0.063,8.748,0.138,17.5-0.064,26.245
		c-0.189,8.329-2.995,15.935-7.61,22.795c-8.232,12.231-20.725,18.491-34.01,23.303c-12.34,4.47-25.048,7.631-37.955,10.18
		c-22.066,4.356-44.05,5.473-66.125,0.401c-11.394-2.618-22.128-6.777-32.065-13.069c-11.376-7.204-22.093-15.363-33.601-22.392
		c-13.657-8.341-28.151-13.83-44.055-15.637C145.609,283.61,140.939,282.845,136.258,282.186z"/>
</g>
<g>
	<path fill="none" d="M579.194,188.29c0.284,1.842-0.392,4.845,2.915,4.529C578.803,193.135,579.479,190.131,579.194,188.29z"/>
	<path fill="none" d="M595.153,201.278c-0.79,0.374-1.577,0.544-2.334,0.517C593.576,201.822,594.362,201.652,595.153,201.278z"/>
	<path fill="none" d="M595.153,201.278c1.969-0.93,2.816-2.739,2.705-4.736C597.967,198.539,597.122,200.348,595.153,201.278z"/>
	<path fill="none" d="M589.406,200.025c-1.458-1.684-2.746-3.515-4.155-5.243C586.66,196.511,587.948,198.341,589.406,200.025z"/>
	<path fill="none" d="M477.678,194.373c-0.101-0.252-0.188-0.505-0.276-0.757C477.489,193.869,477.578,194.121,477.678,194.373z"/>
	<path fill="none" d="M477.307,193.354c-0.055-0.165-0.099-0.329-0.148-0.494C477.208,193.025,477.252,193.19,477.307,193.354z"/>
	<path fill="none" d="M440.227,241.98c-1.718-2.357-3.332-4.79-5.119-7.389c-0.001,0.002-0.001,0.005-0.002,0.007
		c1.789,2.597,3.401,5.027,5.118,7.383c0.588,0.804,1.059,2.279,2.171,2.066C441.286,244.256,440.815,242.783,440.227,241.98z"/>
	<path fill="none" d="M477.001,192.335c-0.046-0.168-0.08-0.336-0.12-0.504C476.921,191.999,476.955,192.167,477.001,192.335z"/>
	<path fill="none" d="M445.709,217.391c-0.488-1.064-0.703-3.11-2.45-2.794c-0.001,0-0.002,0.001-0.003,0.001
		c1.747-0.316,1.962,1.729,2.45,2.794c1.086,2.363,2.122,4.619,4.909,6.173c0-0.001,0-0.002,0-0.003
		C447.83,222.008,446.795,219.753,445.709,217.391z"/>
	<path fill="none" d="M454.397,353.733c-0.003-0.001-0.006-0.002-0.009-0.004c-0.018,0.048-0.043,0.094-0.065,0.141
		c0.003-0.002,0.007-0.004,0.01-0.006C454.357,353.821,454.38,353.778,454.397,353.733z"/>
	<path fill="none" d="M602.727,191.585c-4.564-10.832-13.784-14.865-24.521-16.503c-0.397-0.061-0.833-0.054-1.294,0.009
		c0.458-0.062,0.892-0.069,1.286-0.008c10.732,1.638,19.955,5.671,24.521,16.503c0.417,0.982,1.055,2.204,1.897,2.045
		C603.779,193.779,603.143,192.563,602.727,191.585z"/>
	<path fill="none" d="M578.065,624.09c0.028,0.101,0.028,0.225,0.039,0.34C578.094,624.314,578.094,624.19,578.065,624.09z"/>
	<path fill="none" d="M443.916,276.016c-0.775-2.705-3.843-3.546-4.95-5.878C440.073,272.47,443.141,273.312,443.916,276.016z"/>
	<path fill="none" d="M501.712,208.843c2.546-0.957,4.78-2.526,6.27-5.358l-0.001,0
		C506.491,206.315,504.258,207.885,501.712,208.843z"/>
	<path fill="none" d="M576.232,623.467c-0.819,0.385-1.559,1.308-2.541,0.417C574.674,624.777,575.414,623.853,576.232,623.467z"/>
	<path fill="none" d="M500.228,185.647c-0.396-2.407-2.195-3.658-5.216-3.628C498.032,181.99,499.832,183.24,500.228,185.647z"/>
	<path fill="none" d="M489.788,169.136c8.127-3.379,18.818,0.642,23.431,8.363c-4.612-7.722-15.305-11.744-23.432-8.365
		c-5.567,2.315-10.165,6.903-12.222,12.404C479.622,176.038,484.22,171.45,489.788,169.136z"/>
	<path fill="none" d="M563.757,178.23c1.753-4.6,1.635-4.886-3.106-6.031c-0.484-0.117-0.977-0.229-1.47-0.302
		c-3.913-0.585-6.82-0.85-9.077-0.566c2.256-0.282,5.161-0.018,9.069,0.567c0.493,0.073,0.982,0.185,1.467,0.302
		c4.744,1.145,4.862,1.431,3.109,6.031c-2.073,5.443-3.291,11.047-3.019,16.951c0.003-0.006,0.006-0.012,0.009-0.018
		C560.469,189.267,561.683,183.667,563.757,178.23z"/>
	<path fill="none" d="M571.071,620.154c0.02-0.815,0.75-0.923,1.355-0.614C571.821,619.229,571.088,619.339,571.071,620.154z"/>
	<path fill="none" d="M572.767,619.686c1.652,0.602,4.151,0.195,4.121,2.852C576.918,619.878,574.419,620.287,572.767,619.686z"/>
	<path fill="none" d="M480.869,200.577c0,0-0.001-0.001-0.001-0.002c-0.832,1.404-1.425,2.735-1.056,3.957
		C479.445,203.311,480.038,201.98,480.869,200.577z"/>
	<path fill="none" d="M476.583,190.304c-0.007-0.046-0.01-0.091-0.016-0.137C476.573,190.212,476.576,190.258,476.583,190.304z"/>
	<path fill="none" d="M476.467,189.294c-0.006-0.07-0.006-0.139-0.011-0.209C476.461,189.155,476.461,189.224,476.467,189.294z"/>
	<path fill="none" d="M498.148,207.225c-5.36,0.983-9.669-0.64-15.456-5.169C488.48,206.585,492.788,208.208,498.148,207.225z"/>
	<path fill="none" d="M477.747,194.532c0.116,0.286,0.237,0.572,0.37,0.857c0.646,1.387,1.402,2.723,2.142,4.066
		c-0.739-1.343-1.494-2.679-2.141-4.064C477.984,195.105,477.864,194.818,477.747,194.532z"/>
	<path fill="none" d="M476.761,191.319c-0.034-0.164-0.058-0.327-0.086-0.491C476.703,190.992,476.727,191.155,476.761,191.319z"/>
	<path fill="none" d="M443.916,276.016c-0.259,0.035-0.514,0.058-0.766,0.069C443.402,276.074,443.657,276.051,443.916,276.016z"/>
	<path fill="none" d="M346.155,372.141c2.098,2.934,3.724,6.262,6.99,9.492c0-0.003,0-0.005-0.001-0.008
		c-3.261-3.226-4.886-6.551-6.979-9.48c-1.86-2.6-4.274-4.531-6.861-6.198c-0.353-0.227-0.689-0.41-1.012-0.55
		c0.319,0.14,0.652,0.321,1.001,0.546C341.881,367.61,344.295,369.541,346.155,372.141z"/>
	<path fill="none" d="M328.172,367.47c0.531,2.555,1.007,5.164,2.402,7.453c0.252,0.414,0.527,0.827,0.925,1
		c-0.392-0.176-0.663-0.586-0.915-0.996c-1.396-2.289-1.871-4.898-2.402-7.453c-0.283-1.367-0.728-2.161-1.41-2.458
		C327.449,365.316,327.89,366.11,328.172,367.47z"/>
	<path fill="none" d="M366.585,371.17c2.218,2.616,4.065,5.589,6.956,7.626c0.001-0.001,0.001-0.002,0.002-0.003
		c-2.885-2.036-4.732-5.006-6.947-7.619c-2.499-2.946-4.685-6.165-7.743-8.615c-0.816-0.654-1.669-1.254-2.578-1.587
		c0.905,0.333,1.755,0.931,2.567,1.583C361.903,365.005,364.087,368.224,366.585,371.17z"/>
	<path fill="none" d="M313.553,368.06c-0.372,2.92-1.004,5.984,0.389,9.438c0.002-0.004,0.004-0.007,0.006-0.011
		c-1.385-3.448-0.754-6.508-0.385-9.423c0.191-1.5,0.033-2.246-0.448-2.487C313.588,365.823,313.742,366.57,313.553,368.06z"/>
	<path fill="none" d="M528.354,170.408c6.243-0.93,8.066,1.33,9.353,8.903c0.391,2.292-0.021,4.888,1.658,6.943
		c0.002-0.001,0.004-0.003,0.006-0.004c-1.675-2.055-1.268-4.649-1.656-6.94C536.425,171.732,534.602,169.473,528.354,170.408z"/>
	<path fill="none" d="M385.254,362.538c2.047,2.264,3.611,5.026,6.463,6.819c0-0.001,0.001-0.002,0.001-0.003
		c-2.845-1.792-4.409-4.55-6.453-6.812c-2.444-2.706-5.104-5.168-8.174-7.1c-0.833-0.524-1.604-0.895-2.311-1.117
		c0.703,0.223,1.472,0.592,2.3,1.113C380.147,357.37,382.81,359.832,385.254,362.538z"/>
	<path fill="none" d="M190.458,340.725c0.062,0.021,0.125,0.053,0.187,0.07C190.584,340.778,190.52,340.746,190.458,340.725z"/>
	<path fill="none" d="M417.901,357.051L417.901,357.051c-3.024-1.216-4.877-3.537-7.058-5.441c-2.83-2.471-5.747-4.81-9.157-6.324
		c3.407,1.514,6.321,3.851,9.146,6.32C413.02,353.512,414.87,355.837,417.901,357.051z"/>
	<path fill="none" d="M697.9,414.364c0.02,0.008,0.04,0.012,0.06,0.019C697.94,414.376,697.92,414.372,697.9,414.364z"/>
	<path fill="none" d="M698.185,414.455c0.063,0.017,0.128,0.03,0.192,0.044C698.313,414.485,698.247,414.472,698.185,414.455z"/>
	<path fill="none" d="M428.556,334.551L428.556,334.551c0.006,0.002,0.013,0.004,0.02,0.007
		C428.568,334.556,428.563,334.553,428.556,334.551z"/>
	<path fill="none" d="M277.584,387.129c0.003-0.001,0.006-0.002,0.009-0.003c-1.184-7.107,1.348-13.182,5.437-19.231
		c-0.004,0-0.009,0-0.013,0C278.928,373.944,276.397,380.021,277.584,387.129z"/>
	<path fill="none" d="M298.806,370.408c-0.514,3.326-0.142,6.478,1.001,10.277c0.002-0.004,0.004-0.009,0.006-0.013
		c-1.139-3.791-1.509-6.938-0.996-10.26c0.336-2.184,0.347-3.183-0.398-3.433C299.152,367.235,299.141,368.235,298.806,370.408z"/>
	<path fill="none" d="M337.936,500.582c-0.303-0.199-0.557-0.472-0.813-0.721C337.379,500.111,337.632,500.385,337.936,500.582z"/>
	<path fill="none" d="M358.918,409.378c0,0,0.001,0,0.001,0.001c-0.806-0.709-1.623-1.396-2.448-2.06
		C357.296,407.983,358.112,408.669,358.918,409.378z"/>
	<path fill="none" d="M156.427,318.463c-0.121,0.279-0.156,0.467-0.086,0.543c-0.063-0.08-0.028-0.264,0.09-0.536
		c0.15,0.133,0.296,0.273,0.44,0.416c0.001,0,0.001,0,0.002-0.001c0.002,0,0.003-0.001,0.005-0.001
		c-0.144-0.143-0.291-0.283-0.443-0.418c0.705-2.815-0.542-4.008-2.158-4.569C155.89,314.459,157.129,315.653,156.427,318.463z"/>
	<path fill="none" d="M578.083,289.797c-13.087-2.566-25.917-6.189-38.692-9.99c-12.21-3.633-23.896-8.609-35.588-13.634
		c-11.103-4.772-21.767-10.632-33.494-13.891c-3.748-1.042-7.617-1.294-11.479-1.601c-0.362-0.028-0.755-0.007-1.151,0.015
		c0.394-0.022,0.782-0.042,1.142-0.014c3.857,0.306,7.729,0.559,11.479,1.601c11.729,3.259,22.395,9.118,33.494,13.891
		c11.688,5.024,23.378,10.001,35.588,13.634c12.775,3.801,25.605,7.424,38.692,9.99c1.623,0.318,3.382,0.836,5.074,0.621
		C581.458,290.631,579.703,290.115,578.083,289.797z"/>
	<path fill="none" d="M270.1,367.806c-0.817,0.926-2.185,2.017-1.229,3.142c0.292,0.343,0.617,0.536,0.959,0.621
		c-0.338-0.087-0.659-0.278-0.948-0.617c-0.956-1.125,0.411-2.216,1.229-3.142c0.492-0.558,1.057-1.247,0.454-1.963
		c-0.142-0.168-0.302-0.271-0.474-0.328c0.167,0.058,0.324,0.159,0.463,0.324C271.157,366.56,270.592,367.248,270.1,367.806z"/>
	<path fill="none" d="M175.685,326.695c0.176,0.114,0.354,0.204,0.533,0.275c-0.176-0.071-0.35-0.16-0.522-0.271
		c2.716-4.399,2.334-5.476-3.033-7.518c-0.002,0-0.003-0.001-0.005-0.002C178.019,321.22,178.4,322.297,175.685,326.695z"/>
	<path fill="none" d="M516.011,168.794c-7.354-6.235-16.216-8.331-24.405-6.958c8.188-1.371,17.048,0.725,24.397,6.958
		c2.47,2.095,4.591,2.792,7.218,2.557C520.598,171.585,518.48,170.885,516.011,168.794z"/>
	<path fill="none" d="M254.452,368.901c-1.614,3.033-3.255,6.183-3.191,9.816c0.004-0.001,0.007-0.003,0.011-0.005
		c-0.062-3.629,1.578-6.776,3.19-9.807c1.638-3.076,0.49-4.516-2.195-5.805c-0.374-0.179-0.748-0.342-1.122-0.49
		c0.371,0.146,0.741,0.309,1.111,0.486C254.942,364.385,256.09,365.825,254.452,368.901z"/>
	<path fill="none" d="M233.546,361.585c-2.362,2.713-4.897,5.569-4.204,9.93c0.003-0.002,0.006-0.005,0.009-0.008
		c-0.687-4.354,1.845-7.208,4.206-9.918c1.622-1.864,1.807-2.888,0.243-3.531C235.354,358.701,235.166,359.725,233.546,361.585z"/>
	<path fill="none" d="M204.285,341.131c-0.053,1.735,0.853,2.321,1.971,2.674c-1.113-0.354-2.013-0.941-1.96-2.67
		c0.021-0.687-0.305-1.012-0.757-1.172C203.985,340.124,204.307,340.45,204.285,341.131z"/>
	<path fill="none" d="M194.04,337.058c-1.442,0.838-2.926,1.779-3.992,3.512c0.004,0.002,0.007,0.002,0.011,0.004
		c1.066-1.732,2.55-2.673,3.992-3.512c2.445-1.423,2.01-2.931,0.281-4.403c-2.566-2.186-5.374-3.793-8.454-4.711
		c3.076,0.918,5.88,2.524,8.443,4.707C196.05,334.127,196.485,335.634,194.04,337.058z"/>
	<path fill="none" d="M211.711,350.257c-1.596,0.563-3.002,1.135-3.159,3.272c0.004,0,0.007,0,0.011,0
		c0.159-2.134,1.563-2.705,3.159-3.268c2.701-0.953,2.624-2.384,0.397-3.888c-1.089-0.736-2.223-1.39-3.452-1.857
		c1.224,0.468,2.354,1.121,3.441,1.854C214.335,347.873,214.411,349.304,211.711,350.257z"/>
	<path fill="none" d="M224.756,353.066c-0.949,2.025-0.565,2.802,0.329,3.151c-0.886-0.351-1.263-1.129-0.318-3.146
		c0.322-0.688,0.084-1.069-0.349-1.287C224.846,352.002,225.076,352.384,224.756,353.066z"/>
	<path fill="none" d="M73.97,491.327c-0.28-0.063-0.583-0.093-0.897-0.102c-0.002,0-0.005,0-0.007,0c0.001,0,0.003,0,0.005,0
		C73.387,491.234,73.69,491.264,73.97,491.327z"/>
	<path fill="none" d="M75.403,493.088c-0.17,0.452-0.379,0.894-0.647,1.271C75.024,493.981,75.232,493.54,75.403,493.088z"/>
	<path fill="none" d="M493.083,535.539c-0.936,0.644-1.581,1.007-2.107,1.048C491.502,536.547,492.147,536.184,493.083,535.539z"/>
	<path fill="none" d="M499.72,530.759c8.16-5.304,16.954-7.665,26.662-5.755C516.673,523.094,507.879,525.453,499.72,530.759z"/>
	<path fill="none" d="M660.648,649.592c-2.188-0.271-4.127-0.977-4.166-3.719c-0.037-2.561,1.444-3.988,3.89-4.051
		c2.406-0.063,4.027,1.286,4.266,3.765c0.018,0.186,0.003,0.343,0.002,0.512C728.755,577.478,768,485.322,768,384
		C768,171.923,596.077,0,384,0S0,171.923,0,384s171.923,384,384,384c109.104,0,207.578-45.504,277.486-118.566
		C661.216,649.495,660.937,649.548,660.648,649.592z M675.27,462.857c-0.004-0.037-0.004-0.073-0.004-0.109
		c-1.996,0-3.994,0.071-5.983-0.018c-2.824-0.125-3.933-1.972-3.881-4.505c0.049-2.56,1.391-4.299,4.085-4.407
		c3.609-0.148,7.232-0.18,10.851-0.097c3.131,0.071,4.252,2.235,4.372,4.968c0.122,2.796-1.59,4.035-4.203,4.149
		C678.763,462.916,677.015,462.857,675.27,462.857z M683.463,572.334c-2.922-0.231-4.377-1.752-4.504-4.319
		c-0.13-2.641,1.597-3.895,3.992-3.903c2.633-0.016,4.21,1.605,4.289,4.206C687.318,570.883,685.571,571.984,683.463,572.334z
		 M698.689,496.934c-2.355,0.001-4.134-1.319-4.112-3.88c0.019-2.445,1.469-3.962,4.004-3.968c2.468-0.005,3.937,1.275,4.1,3.87
		C702.575,495.496,701.101,496.933,698.689,496.934z M698.532,422.186c-6.987,0.063-13.979,0.222-20.963,0.14
		c-2.907-0.034-4.987-1.282-4.904-4.774c0.083-3.484,1.974-4.458,5.091-4.398c6.489,0.114,12.985-0.457,19.466,0.193
		c3.699-0.222,6.134,1.302,6.104,4.146C703.301,420.47,702.001,422.533,698.532,422.186z M673.3,392.188
		c0.087-2.896,1.745-4.801,5.08-4.617c2.354,0.129,4.722,0.022,7.082,0.022c0.001,0.037,0.001,0.071,0.001,0.105
		c2.608,0,5.221-0.091,7.825,0.024c2.89,0.125,4.297,2.086,4.275,4.661c-0.021,2.664-1.632,4.343-4.521,4.351
		c-4.972,0.007-9.945,0.069-14.915-0.017C675.246,396.669,673.213,395.082,673.3,392.188z M698.705,293.401
		c2.163-0.018,3.932,1.001,3.989,3.445c0.054,2.262-1.062,3.749-3.399,3.813c-2.456-0.038-3.949-1.067-4.091-3.473
		C695.061,294.79,696.4,293.42,698.705,293.401z M698.269,364.884c-0.066,2.863-1.646,4.738-4.646,4.798
		c-5.367,0.105-10.74,0.157-16.104,0.002c-3.097-0.089-4.775-2.003-4.722-5.119c0.056-3.05,1.898-4.474,4.817-4.546
		c2.745-0.067,5.491-0.015,8.236-0.015c0,0.012,0,0.024,0,0.035c2.621,0,5.248-0.097,7.863,0.025
		C696.689,360.203,698.34,361.944,698.269,364.884z M686.436,333.938c2.806,0.225,4.3,2.331,4.256,5.175
		c-0.043,2.801-1.939,3.856-4.431,3.996c-1.979,0.112-3.97,0.023-5.956,0.023c0-0.035,0-0.07,0-0.106
		c-1.983,0-3.974,0.027-5.959-0.007c-2.841-0.048-4.076-1.975-4.067-4.365c0.004-2.345,1.375-4.522,3.882-4.715
		C678.233,333.625,682.367,333.611,686.436,333.938z M665.776,302.814c-3.323-0.051-6.013-2.721-5.942-5.903
		c0.069-3.203,2.509-5.537,5.784-5.532c3.721,0.006,6.465,2.499,6.411,5.827C671.976,300.373,669.198,302.867,665.776,302.814z
		 M544.898,152.911c-5.792-0.115-10.853,0.387-15.808,1.521c-2.977,0.682-4.348-1.695-6.815-2.535
		C529.161,147.779,538.43,148.117,544.898,152.911z M136.258,282.186c4.682,0.659,9.352,1.424,14.047,1.958
		c15.903,1.808,30.398,7.296,44.055,15.637c11.508,7.029,22.225,15.188,33.601,22.392c9.937,6.292,20.671,10.451,32.065,13.069
		c22.072,5.072,44.056,3.955,66.125-0.401c12.906-2.548,25.614-5.71,37.954-10.18c13.285-4.813,25.774-11.072,34.01-23.303
		c4.615-6.861,7.421-14.467,7.61-22.795c0.202-8.744,0.13-17.497,0.064-26.245c-0.137-18.662,3.377-36.63,11.984-53.163
		c7.577-14.563,17.798-27.079,33.38-34.021c2.381-1.061,4.949-1.698,7.434-2.534c-2.101,5.963-4.829,11.057-10.242,15.265
		c-15.604,12.131-25.145,28.366-29.462,47.723c-2.878,12.903-3.146,25.95-2.988,39.061c0.121,10.111,0.023,20.194-3.337,29.934
		c-6.21,17.999-19.288,29.312-36.396,35.962c-29.927,11.631-60.768,19.284-93.214,18.138c-21.042-0.743-40.862-6.001-58.816-17.265
		c-7.415-4.652-14.706-9.542-21.755-14.73c-21.023-15.473-43.97-24.926-70.909-23.163
		C132.022,289.045,134.977,285.954,136.258,282.186z M95.185,263.179c2.35,0.033,4.708-0.038,7.05,0.118
		c6.112,0.406,12.372-1.092,18.321,1.405c-5.948-2.497-12.209-0.999-18.32-1.406C99.893,263.14,97.536,263.211,95.185,263.179
		c6.333-1.49,12.765-0.185,19.136-0.685c2.341-0.183,4.762-0.23,6.235,2.208c1.891,4.633,0.308,7.419-4.464,7.5
		c-6.081,0.102-12.166,0.013-18.25-0.027c-2.521-0.016-4.717-0.731-5.541-3.431C91.469,266.02,92.841,264.317,95.185,263.179z
		 M90.187,325.237c19.732-19.74,43.649-22.85,69.571-16.395c15.828,3.941,29.029,13.062,42.05,22.425
		c10.14,7.292,20.419,14.379,31.99,19.306c16.866,7.181,34.431,11.312,52.8,10.964c36.273-0.686,71.041-8.461,104.084-23.463
		c10.271-4.663,18.762-11.875,25.436-21.029c1.271-1.742,1.737-1.513,2.924-0.07c2.347,2.875,4.896,5.588,7.364,8.368
		c0.096-0.076,0.185-0.206,0.291-0.223c4.862-0.75,4.791-0.703,2.094-5c-0.888-1.412-2.233-2.707-2.119-4.616l0,0
		c-4.977-5.554-5.455-9.625-1.664-17.53c1.617,1.806,3.08,3.439,4.541,5.072c1.345,4.777,5.899,7.415,8.207,11.993l0,0
		c-2.307-4.579-6.862-7.216-8.207-11.994c1.185-0.635,2.135,0.263,3.178,0.5c0.959,0.218,1.885,0.595,2.824,0.901
		c-1.823-3.489-3.757-6.928-5.419-10.493c-0.586-1.256-1.436-2.667-0.762-4.237c-0.001,0-0.001-0.001-0.002-0.001
		c-2.621-3.19-1.012-6.829-1.458-10.9c3.176,2.037,4.323,5.353,7.246,6.647c0.701,4.397,4.908,6.181,7.563,9.759
		c0.002,0,0.003,0,0.004,0c-2.654-3.579-6.862-5.361-7.563-9.76c1.098,0.142,2.192,0.283,3.532,0.456
		c-1.341-4.551-5.209-7.923-6.008-12.682c-3.726-4.37-4.332-6.273-4.344-14.642c2.714,3.86,5.93,6.153,8.538,9.09
		c0.404-0.054,0.818-0.12,1.16-0.101c-1.987-4.498-5.409-8.444-5.257-13.764c2.246,2.501,4.565,4.903,8.133,6.442
		c0-0.001-0.001-0.002-0.002-0.003c-3.561-1.539-5.883-3.939-8.128-6.44c-2.533-3.272-3.724-7.114-3.466-11.107
		c1.041-16.296,5.014-31.709,15.553-44.645c3.531-4.336,6.989-9.145,12.957-10.707c0,0,0,0.001-0.001,0.002
		c2.125,1.186,4.144,2.479,5.104,4.888c0.457,0.174,0.83,0.233,1.144,0.202c-0.311,0.029-0.681-0.031-1.133-0.203
		c1.396-7.727,2.82-15.399,7.03-22.28c11.379-18.598,36.015-19.192,48.082-5.874c1.152,1.271,2.271,1.799,4.236,1.282
		c10.785-2.837,21.721-2.89,32.825-2.109c5.914,0.416,11.833,0.622,17.743,1.358c21.104,2.633,39,15.854,43.747,37.078
		c0.402,1.804,1.119,3.541,1.726,5.297c0.727,2.118,0.058,3.384-2.193,3.74c1.539-3.363-0.15-11.431-3.27-14.37
		c-1.727-1.629-3.146-4.271-5.813-3.782c2.662-0.482,4.08,2.156,5.805,3.783c3.114,2.938,4.809,11.006,3.27,14.37
		c-6.142,3.366-12.905,5.107-19.471,7.333c-12.83,4.351-25.955,7.849-39.252,10.174c-13.072,2.284-26.213,4.639-39.566,5.022
		c-4.974,0.142-9.951,0.751-14.895,0.935c-10.188,0.377-20.422-0.047-30.3-3.141c-3.549-1.111-7.178-1.081-10.749-0.716
		c-4.266,0.438-6.583,4.372-5.841,9.2c0.322,2.087,0.64,4.176,0.953,6.265c-0.922,1.203-3.188,1.848-2.289,3.816
		c0.462,1.01,1.39,1.123,2.372,1.095c-0.978,0.027-1.899-0.089-2.359-1.096c-0.9-1.969,1.364-2.613,2.286-3.816
		c5.973-3.289,11.953-1.893,17.698,0.379c14.521,5.739,28.476,12.76,42.562,19.46c18.633,8.864,37.781,16.286,57.806,21.285
		c3.583,0.896,7.346,1.321,11,2.104c-0.001,0-0.001,0.001-0.002,0.002c3.218,0.3,6.437,0.579,9.652,0.92
		c0.688,0.073,1.625,0.035,1.74,1.028c0.104,0.878-0.716,1.355-1.271,1.717c-5.379,3.514-11.242,6.003-17.673,6.325
		c-16.252,0.815-32.416-0.605-48.566-2.339c-12.4-1.33-24.658-3.411-36.729-6.542c-11.667-3.025-22.053-8.218-29.488-18.106
		c-2.221-2.954-4.126-6.143-5.215-9.735c-0.283-0.934-0.337-2.077-1.566-2.319c-1.392-0.275-2.064,0.84-2.626,1.743
		c-1.168,1.886-2.043,3.828-2.244,6.191c-1.063,12.475,5.027,21.62,13.348,29.89c4.124,4.099,9.452,6.303,14.979,9.819
		c-9.374,3.766-17.334,0.403-25.438-2.223c2.508,3.999,11.373,10.008,17.047,11.743c5.129,1.568,10.307,2.824,15.672,3.249
		c0.773,0.061,2.002-0.205,2.131,0.978c0.103,0.923-0.789,1.442-1.551,1.937c-2.553,1.659-5.293,2.793-8.354,2.912
		c-3.239,0.124-6.491,0.012-9.729,0.19c-3.161,0.174-5.977-1.628-9.843-1.564c8.624,8.737,19.493,10.181,31.071,12.363
		c-11.057,8.155-21.955,5.187-33.021,2.215c2.121,3.56,8.208,7.799,12.767,9.259c5.104,1.636,10.15,3.434,15.629,3.384
		c1.05-0.009,2.563,0.033,2.698,1.436c0.144,1.454-1.423,1.743-2.402,1.83c-7.198,0.633-14.302,2.728-21.534,2.22
		c-3.821-0.267-7.479-2.087-11.021-3.757c1.445,3.321,4.531,5.073,7.108,7.283c1.363,1.169,2.115,2.427,0.709,3.728
		c-4.583,4.236-5.68,10-7.148,15.608c-0.646,2.462-1.479,5.482-3.771,6.012c-2.554,0.588-3.478-2.688-4.659-4.565
		c-2.108-3.349-3.535-7.1-5.948-10.294c-3.136-4.151-7.119-7.116-11.874-9.214c-2.703-1.194-3.175-0.045-2.759,2.193
		c2.001,10.781,5.869,20.802,12.313,29.753c-0.367,4.854,2.372,7.976,6.158,10.153c2.993,1.724,6.123,2.112,9.138,1.328
		c-3.013,0.781-6.142,0.392-9.131-1.331c-3.784-2.181-6.525-5.303-6.158-10.154c0.389,0.313,0.817,0.578,1.157,0.938
		c9.894,10.412,18.914,4.121,24.445-3.608c2.803-3.915,3.57-8.72,5.406-13.06c2.049-4.848,5.284-8.387,10.905-8.989
		c2.968-0.318,5.66,0.199,8.072,2.399c-0.911,1.16-2.31,0.58-3.328,1.053c-1.315,0.171-2.481,0.493-3.522,0.938
		c1.04-0.444,2.203-0.764,3.516-0.936c-1.677,1.771-3.587,3.322-4.732,5.57c-0.508,0.995-1.521,1.931-1.021,3.047
		c0.625,1.387,2.003,0.471,3.015,0.457c5.03-0.064,6.479,0.679,8.894,5.14c-7.212-0.789-12.871,1.929-16.918,7.483
		c-2.023,2.771-3.197,6.158-4.862,9.207c-8.575,15.708-21.885,17.271-36.239,10.73c-8.229-3.749-15.106-9.69-20.563-16.853
		c-5.035-6.604-7.916-14.356-8.473-22.751c-0.254-3.848-0.043-7.726-0.043-12.435c-3.829,2.632-4.975,6.16-5.912,9.341
		c-4.002,13.525-1.269,25.907,7.526,36.849c7.121,8.86,16.182,15.354,26.629,19.646c6.031,2.479,10.478,7.563,16.806,9.439
		c1.464,0.435,1.27,1.486-0.179,2.307c-5.393,3.059-10.705,1.646-15.77-0.538c-9.525-4.106-17.645-10.29-24.613-18.043
		c0.687,3.65,5.759,11.177,9.771,15.563c4.521,4.943,9.386,9.305,15.428,12.318c1.782,0.889,1.698,1.568-0.223,2.988
		c-5.898,4.36-10.993,2.751-15.955-1.31c-4.021-3.291-8.011-6.637-11.808-10.181c-3.788-3.532-7.099-7.534-10.444-12.112
		c-0.116,3.789,1.848,6.511,3.123,9.296c3.567,7.794,8.124,14.987,14.864,20.531c1.736,1.431,1.442,2.023-0.594,2.948
		c-7.288,3.306-11.479,2.02-16.102-5.267c-4.087-6.44-6.82-13.5-9.086-20.713c-4.151-13.216-10.125-25.42-19.673-35.57
		c-7.014-7.453-14.936-13.771-25.214-16.175c-4.782-1.118-9.631-1.61-14.107,1.29c-7.794,0.395-12.955,2.211-14.979,5.313
		c0.004,0,0.009,0.001,0.013,0.002c2.022-3.1,7.185-4.916,14.976-5.309c15.071,1.307,23.758,11.359,31.342,22.896
		c0.21,0.321-0.021,0.934-0.045,1.412c-0.001,0-0.003,0-0.005,0c9.036,11.713,14.102,25.114,17.136,39.463
		c1.747,8.27,1.813,16.6,1.703,24.963c-0.144,11.287-2.582,21.94-8.991,31.43c-4.898,7.248-11.456,11.941-20.372,12.879
		c-11.305,1.19-21.992-1.434-32.545-5.09c-11.145-3.86-22.117-8.146-33.096-12.438c-2.513-0.98-5.326-1.422-8.038-1.62
		c-5.609-0.414-9.469,2.396-12.604,6.939c-7.228,10.479-11.811,22.33-17.78,33.457c-3.621,6.747-7.494,13.072-14.559,16.825
		c-5.012,2.663-10.07,2.921-16.391,1.122c6.338-3.914,9.45-9.601,13.28-14.698c0.661-0.88,1.416-1.433,0.163-2.372
		c-3.544-2.654-2.058-4.501,0.643-6.933c10.08-9.075,15.604-20.938,19.744-33.57c0.616-1.88,1.324-3.729,1.991-5.597
		c0.002,0.002,0.004,0.003,0.006,0.005c1.515-6.354,3.479-12.51,7.929-17.54c6.316-7.144,15.503-8.108,23.001-2.345
		c1.096,0.842,1.93,1.157,3.34,0.645c11.226-4.104,21.885-1.964,32.125,3.329c6.3,3.256,12.169,7.161,17.041,12.429
		c1.217,1.312,2.741,2.337,4.122,3.492c0-0.002,0-0.003-0.001-0.005c0.104-5.598-2.135-10.455-5.145-14.922
		c-1.843-2.735-0.818-3.727,1.761-4.375c2.28-0.575,4.563-1.136,7.47-1.856c-4.807-2.901-9.518-3.275-14.327-3.009
		c-3.776,0.211-7.313,0.277-10.38-2.741c-1.496-1.475-1.073-1.92-0.031-3.182c3.135-3.796,7.682-5.247,11.788-7.428
		c1.422-0.754,2.975-1.262,4.439-1.869c-5.229-2.188-9.477-0.307-16.117,0.802c-2.887,0.48-5.848,1.291-8.323,3.156
		c-1.692,1.271-3.313,1.215-4.305-0.85c-0.921-1.911-3.29-3.54-0.615-6.111c6.049-5.814,13.278-9.499,20.996-12.422
		c0.692-0.264,1.396-0.503,2.052-0.963c-7.82-0.363-15.528-0.115-22.673,3.747c-1.081,0.584-2.241,1.183-3.429,1.371
		c-1.686,0.269-2.783,4.256-5.031,0.885c-2.494-3.742-2.291-6.551,0.161-9.063c3.706-3.795,8.718-5.079,13.254-7.278
		c1.063-0.518,2.411-0.492,3.329-1.878c-6.324-0.645-12.383-0.409-18.3,1.303c-2.742,0.794-3.869,0.58-4.151-2.781
		c-0.797-9.494,1.113-18.561,3.819-27.81c-2.62,1.489-2.62,1.489-6.166,9.061c-1.158-5.241-0.53-10.141-0.715-15.803
		c-7.504,6.401-11.36,13.922-13.565,22.654c-2.179,8.625-1.347,17.345-1.472,26.128c-13.919-6.271-25.396-34.536-13.659-60.68
		c-7.061,7.076-11.977,14.394-14.73,23.259c-2.321,7.477-3.307,14.983-2.634,22.755c0.083,0.962,0.438,2.31-0.475,2.797
		c-1.16,0.615-1.951-0.663-2.706-1.384c-10.341-9.82-13.681-22.146-12.707-35.965c0.339-4.813,1.188-9.542,3.165-14.057
		c-11.712,7.599-16.187,18.826-15.984,32.476c-12.472-7.305-14.802-27.562-5.762-49.489c-5.73,1.066-8.788,5.104-12.256,8.544
		c-3.77,3.739-4.025,9.229-6.634,13.614c-9.033-8.8-8.668-20.731,1.237-38.368c-7.413,1.549-11.778,6.487-15.795,11.892
		c-0.726,0.977-1.361,2.789-2.098,2.821c-1.376,0.059-1.871-1.654-2.441-2.862c-3.182-6.745-1.959-13.289,0.904-19.757
		c0.684-1.544,1.991-2.852,1.955-5.063c-6.417,1.479-10.272,5.718-12.97,10.97c-1.146,2.23-1.726,2.072-3.358,0.783
		c-4.931-3.892-5.828-10.436-2.338-18.075c0.252-0.554,0.548-1.087,0.881-1.741c-4.752,0.998-9.2,5.085-10.719,10.127
		c-0.694,2.306-1.449,2.767-3.616,1.501c-6.062-3.54-6.628-5.209-4.381-14.776c-3.956,0.763-7.856,4.715-9.51,9.713
		c-0.412,1.244-0.231,2.908-2.281,2.757c-1.818-0.135-3.853,0.202-4.841-1.945c-0.727-1.581-1.342-3.213-2.074-4.792
		c-1.031-2.222-2.351-2.438-3.824-0.396c-1.515,2.101-2.043,4.535-2.133,7.062c-0.064,1.798-0.772,2.867-2.681,2.813
		c-8.296-0.24-14.011,5.303-20.409,9.224c-2.588,1.585-4.797,3.787-7.177,5.71c-0.005,0.009-0.01,0.017-0.015,0.025
		c-1.673,1.915-2.837,4.357-5.871,5.634C77.111,342.844,82.264,333.162,90.187,325.237z M612.654,595.71
		c-4.977,0.332-9.961,0.303-14.931-0.177c-2.87-0.277-4.223-2.183-4.011-4.877c0.207-2.642,1.675-4.368,4.62-4.333
		c2.368,0.028,4.735,0.006,7.104,0.01c2.242,0.005,4.485-0.024,6.729,0.011c3.2,0.053,4.308,2.156,4.458,4.904
		C616.773,593.931,615.295,595.533,612.654,595.71z M615.744,619.688c0.074,3.258-2.229,5.663-5.532,5.784
		c-3.175,0.116-6.261-2.69-6.21-5.649c0.055-3.17,2.559-5.551,5.84-5.554C613.188,614.268,615.672,616.549,615.744,619.688z
		 M578.134,624.687c-3.976,1.367-6.979,0.181-8.14-3.225c-0.81-2.369,0.824-5.697,3.325-6.784c3.04-1.318,5.995,0.113,7.641,3.713
		c-1.837-0.257-2.433-2.593-4.392-2.637c-0.843-0.019-2.178-0.274-2.246,0.69c0.07-0.962,1.407-0.707,2.246-0.688
		c1.959,0.044,2.555,2.38,4.392,2.638c0.058,0.523,0.116,1.053,0.175,1.582C581.369,622.332,580.251,623.831,578.134,624.687
		l0.001-0.002c-0.001,0-0.001,0-0.001,0c-0.812-0.104-1.356-0.493-1.462-1.359l0,0C576.776,624.191,577.322,624.58,578.134,624.687z
		 M564.906,323.6c-13.332-0.726-26.588-2.184-39.823-3.879c-3.069-0.394-2.806,1.529-2.543,3.543
		c1.859,14.271,2.118,28.614,1.632,42.967c-0.188,5.595-0.902,11.175-1.453,16.754c-0.274,2.797,0.069,4.001,3.355,2.565
		c3.619-1.581,7.35-3.15,11.492-3.035c3.127,0.087,4.354,1.767,4.608,4.7c0.255,2.9,0.162,5.373-3.623,5.459
		c-12.026,1.598-21.231,8.021-28.892,17.088c-1.607,1.904-3.425,3.633-5.007,5.56c-1.293,1.569-1.604,0.968-2.477-0.479
		c-2.178-3.626-2.308-6.38,0.708-10.059c8.318-10.146,9.994-22.68,10.697-35.215c1.084-19.336-0.074-38.593-3.311-57.709
		c-0.199-1.178-0.025-2.419-0.025-4.009c14.67,1.577,29.328,3.536,44.049,4.616c12.003,0.879,24.15,2.392,35.995-1.722
		c7.286-2.529,13.758-6.179,18.597-12.335c0.349-0.438,0.714-0.754,1.211-0.874c0.061-0.578,0.406-0.939,0.949-1.146
		c-0.023,0.525-0.22,0.917-0.648,1.13c-0.795,2.522,0.233,4.889,0.627,7.313c0.553,3.401-0.104,5.882-3.21,8.36
		C595.033,323.39,580.262,324.435,564.906,323.6z M556.457,428.567c-1.455-3.284-3.4-5.771-6.065-7.575
		c-7.46-5.063-14.8-3.002-21.688,1.014c-7.828,4.564-13.063,12.116-19.534,18.247c-2.162,2.048-4.199,4.222-6.993,5.431
		c-3.169,1.372-7.577,0.521-9.664-1.835c-2.854-3.222-3.31-6.797-1.296-10.335c0.178-0.313,0.446-0.571,0.674-0.855
		c1.304-1.614,1.806-4.616,3.648-4.831c2.591-0.302,1.696,3.153,2.991,4.686c1.771,2.103,2.689,2.976,5.105,0.497
		c4.281-4.386,8.336-9.104,13.726-12.288c1.739,1.74,2.91,0.052,4.178-0.739c6.021-3.763,12.022-7.551,19.521-7.415
		c8.759,0.149,15.684,5.635,16.112,12.751c-0.429-7.116-7.354-12.604-16.113-12.76c-7.493-0.133-13.5,3.655-19.521,7.415
		c-1.267,0.791-2.438,2.482-4.178,0.742c5.743-6.587,12.313-11.933,21.11-13.832c9.661-2.084,18.851,4.164,19.979,13.643
		c0.198,1.649,0.919,3.677-1.278,4.792C557.661,426.367,557.026,427.182,556.457,428.567z M453.713,531.113
		c-2.47,0.677-2.354,3.244-3.476,4.889c-2.979-1.928-3.333-5.791-0.822-8.824c0.39-0.472,0.821-0.966,1.339-1.269
		c6.373-3.734,5.818-4.12,8.385,2.392c2.42,6.144,5.836,11.748,9.729,17.109c2.032,2.799,3.509,2.271,5.604,0.312
		c4.486-4.19,8.25-9.187,13.636-12.393c0.313,0.552,0.584,1.024,0.829,1.432c-0.245-0.407-0.515-0.88-0.828-1.432
		c6.811-6.774,14.314-12.431,23.909-14.637c5.375-1.235,10.409-0.554,14.771,3.089c1.114,0.931,2.537,1.826,1.702,3.701
		c-12.27,1.147-23.063,5.676-31.826,14.426c-5.729,5.719-11.538,11.416-15.964,18.274c-2.938,4.556-7.604,7.268-11.68,6.318
		c-3.759-0.873-5.918-3.912-7.826-6.835c-4.745-7.271-7.934-15.093-7.04-24.069C454.233,532.802,454.621,531.868,453.713,531.113z
		 M445.849,496.25c1.515-1.218,3.501-2.752,5.36-1.249c1.732,1.4,1.701,3.989,2.293,6.101c0.183,0.651-0.533,1.18-1.116,1.3
		c-3.13,0.641-6.304,1.091-8.268,2.106c-2.545,0.601-2.669-0.137-2.441-1.416C442.182,500.248,443.691,497.989,445.849,496.25z
		 M445.682,481.07c1.151,1.803,3.908,3.145,2.418,5.276c-0.659,0.948-4.355,1.271-4.737,0.659
		C441.835,484.574,445.719,483.561,445.682,481.07z M452.164,509.376c3.107-0.411,2.998,2.461,3.827,4.164
		c0.688,1.42,0.517,2.595-1.563,3.36c-3.631,1.338-7.401,2.53-10.489,5.063c-0.57,0.468-1.224,1.027-2.005,0.695
		c-0.912-0.385-0.546-1.252-0.491-1.969C441.871,516.492,448.028,509.923,452.164,509.376z M486.031,468.763
		c-2.928-0.896-5.468-2.46-7.803-4.327c-2.014-1.604-3.442-1.606-5.435,0.267c-4.951,4.662-4.79,4.436-2.123,10.74
		c4.34,10.258,7.076,20.991,8.513,32.057c0.387,2.959,1.037,5.884,1.546,8.828c0.218,1.271,0.933,1.992,2.196,2.176
		c-3.031,3.068-6.063,6.134-9.215,9.318c-2.462-2.683-2.953-5.961-3.345-9.063c-2.238-17.702-6.116-34.881-15.187-50.511
		c-0.757-1.305-0.254-1.855,0.802-2.692c6.545-5.188,13.056-10.445,18.544-16.79c1.959-2.264,2.379-0.192,3.157,0.828
		c8.175,10.73,20.375,14.01,31.807,8.46c6.227-3.021,10.49-8.329,15.104-13.204c2.485-2.621,4.776-5.434,7.307-8.014
		c2.209-2.256,4.786-3.999,8.094-4.26c2.475-0.195,3.765,0.863,3.739,3.43c-0.019,2.225-0.644,4.481,0.3,6.664
		c-1.954,4.272-4.6,7.521-9.79,8.07c-2.489,0.264-3.691,2.817-5.14,4.634C518.099,469.149,502.815,473.91,486.031,468.763z
		 M599.377,229.195c-0.28-0.493,5.529-3.154,6.655-3.001c1.53,0.208,1.153,1.28,1.035,2.126c-0.515,2.359-0.563,5.453-3.396,5.491
		C601.538,233.84,600.454,231.092,599.377,229.195z M587.357,268.159c2.58,1.479,2.381,4.448,2.888,6.486
		c-0.001,2.128,0.192,3.987-2.332,3.643c-2.03-0.277-4.701,0.354-5.483-2.332C581.941,274.275,586.444,267.636,587.357,268.159z
		 M581.461,234.452c1.813-1.975,4.446-1.78,6.651-2.551c1.136-0.398,1.648,0.396,1.348,1.46c-0.719,2.517-0.683,6.197-3.729,6.485
		C583.453,240.061,582.545,236.805,581.461,234.452z M570.428,275.131c-1.82-0.329-4.418,0.183-5.18-2.398
		c-0.319-1.082,4.026-5.758,5.067-5.472c2.404,0.66,1.503,2.943,2.004,4.584C571.707,273.01,573.423,275.67,570.428,275.131z
		 M565.234,243.883c-0.956-1.129-1.784-2.371-2.625-3.592c-0.83-1.209-0.625-2.049,0.932-2.37c1.939-0.4,3.871-0.84,6.04-1.314
		c0.131,0,0.757-0.122,0.821,0.019c1.198,2.575-0.541,4.498-1.709,6.41C568.028,244.124,566.852,245.799,565.234,243.883z
		 M553.674,269.917c-1.98-0.039-4.493-0.295-5.603-2.609c-0.338-0.705,4.571-6.023,5.372-5.763c2.438,0.798,1.138,3.064,1.713,4.741
		C554.356,267.407,556.358,269.97,553.674,269.917z M545.489,248.523c-2.451-1.028-3.642-3.975-3.11-5.808
		c0.961-3.334,4.845-1.344,7.261-2.417c0.94-0.42,1.206,0.409,1.162,1.205C550.61,244.161,546.972,249.145,545.489,248.523z
		 M536.247,264.016c-1.178,0.674-4.835-0.752-4.863-2.391c-0.047-2.6,3.076-3.363,5.604-5.142
		C537.134,259.68,538.786,262.56,536.247,264.016z M530.129,242.785c-0.34,3.338-2.34,5.039-4.465,6.538
		c-1.241,0.875-2.021,0.163-2.299-1.238c-0.354-1.767-0.781-3.518-1.211-5.422C524.817,242.274,527.285,243.642,530.129,242.785z
		 M127.433,461.854c-1.604-0.002-4.021,0.998-4.324-2.05c1.654,1.222,3.478,1.568,5.547,1.563
		c25.019-0.07,50.037-0.064,75.055-0.066c1.351,0,2.75-0.271,4.015,0.492C180.962,461.829,154.197,461.884,127.433,461.854z
		 M183.31,483.719c-1.107,0.139-2.239,0.084-3.36,0.084c-14.202-0.008-28.405,0.025-42.606-0.09
		c-1.895-0.015-3.792,0.896-5.672,0.045c-0.883-2.307-1.74-4.641-2.678-6.938c-0.813-1.995-0.242-2.568,1.912-2.531
		c18.07,0.314,36.148-0.216,54.213,0.555c0.481,0.729,0.985,1.438,1.44,2.177C188.57,480.292,187.153,483.249,183.31,483.719z
		 M208.323,519.529c9.405-9.042,15.593-19.976,19.004-32.554c1.108-4.086,1.989-8.27,3.971-12.073
		c1.132-2.177,0.681-3.536-1.635-4.767c-17.224-9.133-30.393-23.006-42.174-38.021c-9.687-12.351-17.214-26.244-24.646-40.113
		c-4.885-9.116-10.146-17.992-16.742-26.097c-7.809-9.596-17.683-13.373-29.697-12.552c0.12-0.975,0.239-1.951,0.359-2.925
		l-0.104-0.134l0.107,0.101c0.559-7.78,0.567-7.732,8.29-7.24c13.933,0.889,23.789,8.552,31.886,19.117
		c7.623,9.948,13.489,20.984,19.544,31.897c10.333,18.625,21.869,36.36,37.284,51.303c9.233,8.951,19.846,15.855,31.26,21.627
		c1.148,0.581,2.942,0.998,1.271,2.794c-6.458,6.938-8.027,15.979-10.748,24.557c-3.942,12.427-9.778,23.709-19.87,32.439
		c-4.293,3.719-8.479,7.698-5.668,14.421c0.606,1.45-0.582,2.55-1.943,3.205c-3.323,1.608-6.491,1.567-9.448-0.85
		C196.701,533.547,201.448,526.139,208.323,519.529z M244.828,615.834c-0.656,2.158,1.736,5.105-2.162,6.513
		c5.771,3.206,11.681,2.167,17.397,2.534c1.338,0.086,3.028-0.806,3.947,1.009c-29.747-0.058-59.482-0.106-89.216-0.177
		c-10.493-0.023-20.986-0.051-31.478-0.167c-2.2-0.024-4.512,0.507-6.581-0.776c-3.055-0.639-3.004-3.063-2.633-5.229
		c0.472-2.764,2.773-3.713,5.28-3.729c5.586-0.034,11.173,0.119,16.76,0.198c12.097-0.065,24.193-0.177,36.29-0.196
		C209.897,615.786,227.363,615.824,244.828,615.834z M78.053,398.025c2.468,0.227,4.308,1.063,4.485,3.688
		c0.155,2.296-2.293,4.732-4.537,4.438c-2.378-0.316-3.865-1.938-3.899-4.269C74.066,399.389,75.787,398.214,78.053,398.025z
		 M70.822,423.876c3.742-0.124,7.491-0.03,11.237-0.03c0-0.035,0-0.07,0-0.105c3.372,0,6.745-0.048,10.117,0.014
		c3.249,0.059,6.071,2.33,5.918,4.994c-0.187,3.254-2.684,4.449-5.432,4.526c-7.233,0.206-14.482,0.313-21.71,0.054
		c-2.574-0.092-3.963-2.335-4.008-4.965C66.901,425.8,68.062,423.967,70.822,423.876z M72.548,496.953
		c-2.466-0.068-3.747-2.049-3.613-4.361c0.119-2.055,1.527-3.328,3.658-3.26c2.251,0.337,4.085,0.979,3.976,3.635
		C76.465,495.524,74.896,497.018,72.548,496.953z M71.636,458.989c-3.223-0.029-4.607-1.993-4.823-4.94
		c-0.221-3.016,1.543-4.335,4.298-4.354c8.49-0.059,16.982-0.09,25.471,0.037c3.051,0.045,4.841,1.834,4.751,5.007
		c-0.089,3.146-2.069,4.271-4.966,4.267c-4.121-0.012-8.243-0.003-12.365-0.006C79.88,458.998,75.758,459.026,71.636,458.989z
		 M86.108,527.709c-0.012-2.763,2.097-4.691,5.578-4.717c12.732-0.095,25.465-0.123,38.198-0.104
		c3.385,0.009,6.016,2.358,5.874,4.962c-0.158,2.901-2.322,4.631-6.033,4.654c-6.241,0.044-12.483,0.012-18.725,0.012
		c0,0.012,0,0.021,0,0.031c-6.367,0-12.733,0.021-19.099-0.009C88.236,532.52,86.12,530.713,86.108,527.709z M92.14,549.475
		c0.979-1.312,2.285-1.399,3.649-1.416c14.486-0.144,28.971-0.306,43.458-0.354c3.023-0.011,6.046,2.688,5.799,5.077
		c-0.359,3.472-2.931,4.329-5.935,4.34c-7.119,0.022-14.238,0.007-21.357,0.007c-0.002,0.008-0.002,0.015-0.002,0.021
		c-7.119,0-14.238-0.012-21.357,0.005c-2.356,0.005-4.077-0.911-5.01-3.162C90.687,552.306,91.069,550.912,92.14,549.475z
		 M100.862,624.618c-2.266-0.011-3.789-1.419-3.98-3.658c-0.216-2.539,1.683-3.489,3.8-3.604c2.144-0.117,3.358,1.271,3.868,3.413
		C104.072,622.73,103.315,624.626,100.862,624.618z M101.69,601.304c-1.248-0.001-2.502-0.024-3.741-0.157
		c-3.436-0.354-5.664-2.365-5.266-5.021c0.483-3.225,2.734-4.496,5.84-4.496c16.359,0.004,32.719,0.011,49.078,0.006
		c13.361-0.004,26.723-0.021,40.085-0.035c0.375,0,0.752-0.053,1.123-0.018c3.053,0.289,6.361,3.123,6.171,5.271
		c-0.242,2.73-2.797,4.486-6.752,4.492c-14.735,0.023-29.47,0.013-44.206,0.013c0-0.019,0-0.033,0-0.048
		C129.912,601.311,115.8,601.317,101.69,601.304z M269.145,646.196c-0.319,2.563-1.998,3.979-4.566,4.088
		c-2.617,0.104-5.243,0.02-7.865,0.02c-21.354-0.001-42.708-0.001-64.062-0.001c0,0.008,0,0.016,0,0.022
		c-22.728,0-45.456,0-68.183-0.001c-1.249,0-2.502,0.051-3.745-0.04c-2.63-0.19-4.062-1.79-4.458-4.263
		c-0.399-2.496,1.08-3.947,3.157-4.94c1.535-0.735,3.178-0.544,4.792-0.544c45.58-0.007,91.16-0.009,136.74-0.002
		c1.615,0,3.247-0.137,4.813,0.472C268.152,641.932,269.464,643.637,269.145,646.196z M450.54,639.048
		c-4.805,0.715-9.725,1.007-14.534,0.025c-3.684-0.752-5.109-3.046-4.79-6.754c0.315-3.643,2.337-5.73,5.969-5.954
		c2.116-0.13,4.246-0.023,6.37-0.023c-0.003-0.015-0.003-0.027-0.003-0.039c1.874,0,3.751-0.061,5.621,0.017
		c3.565,0.14,6.04,2.311,6.435,5.543C456.016,635.268,454.028,638.528,450.54,639.048z M491.319,582.517
		c-15.316,12.703-37.811,8.306-48.689-8.153c-4.752-7.188-7.771-15.357-13.29-22.103c-4.895-5.979-11.006-10.09-18.113-12.729
		c-4.685-1.739-9.049,0.942-13.507,1.815c-12.512,2.452-25.027,4.073-37.854,3.351c-10.743-0.607-21.378-1.663-31.907-3.896
		c-19.991-4.229-39.208-10.649-57.416-19.985c0.078-0.362,0.07-0.772,0.246-1.081c5.066-8.936,2.855-8.148,11.732-4.521
		c15.257,6.235,30.591,12.273,46.832,15.37c25.564,4.874,51.094,5.4,76.313-2.224c2.938-0.891,5.436,0.014,7.969,0.932
		c14.098,5.109,24.77,14.114,31.436,27.714c2.521,5.146,5.051,10.299,8.875,14.688c8.287,9.516,20.628,10.583,30.365,2.626
		c3.426-2.798,6.055-6.273,8.772-9.681c2.126-2.666,4.482-4.654,8.214-3.543c-0.104,0.599-0.448,1.268-0.287,1.774
		C504.073,572.521,497.197,577.639,491.319,582.517z M502.545,560.441c0.004-0.002,0.111,0.004,0.111,0.004
		S502.541,560.443,502.545,560.441z M507.527,544.885c8.166-7.521,20.8-9.651,27.178-4.692
		C526.197,544.824,517.338,546.126,507.527,544.885z M640.943,645.765c-0.311,3.35-2.366,4.563-5.657,4.547
		c-17.999-0.069-35.999-0.031-53.999-0.031c0,0.004,0,0.013,0,0.02c-17.5,0-34.999,0.001-52.499-0.003
		c-0.999-0.001-2.005,0.014-2.997-0.082c-3.059-0.294-5.023-2.061-4.952-5.06c0.073-3.063,2.172-4.567,5.288-4.565
		c11.749,0.008,23.499-0.013,35.249-0.015c23.874-0.003,47.749-0.001,71.623,0.001c0.876,0.001,1.755-0.026,2.624,0.053
		C638.852,640.923,641.19,643.073,640.943,645.765z M639.309,243.988c-0.022-2.8,1.854-4.301,4.537-4.512
		c2.234-0.175,4.495-0.036,6.743-0.036c0-0.022,0-0.046,0-0.071c1.999,0,4.007-0.126,5.993,0.029
		c2.998,0.234,4.465,2.138,4.471,5.003c0.006,2.845-1.721,4.403-4.478,4.472c-4.244,0.107-8.495,0.008-12.742-0.046
		C640.681,248.786,639.335,246.756,639.309,243.988z M654.848,405.606c0.004-10.688,0.011-21.375,0.018-32.044
		C655.436,384.254,656.04,394.932,654.848,405.606z M652.954,275.133c-2.864-0.222-4.035-2.628-4.058-5.395
		c-0.021-2.868,1.875-3.88,4.354-4.02c2.234-0.123,4.481-0.025,6.724-0.025c-0.003-0.019-0.003-0.037-0.003-0.055
		c2.117,0,4.236-0.072,6.353,0.018c2.713,0.116,4.607,1.511,4.767,4.271c0.161,2.862-1.564,4.979-4.329,5.188
		C662.179,275.462,657.533,275.488,652.954,275.133z"/>
	<path fill="none" d="M154.366,617.946c0.205-0.751,0.711-1.425,1.776-1.938C155.076,616.521,154.571,617.195,154.366,617.946z"/>
	<path fill="none" d="M152.038,624.783c1.835,0.025,2.624-0.461,2.643-2.08C154.662,624.32,153.874,624.809,152.038,624.783z"/>
	<path fill="none" d="M72.619,495.447c0.011,0.001,0.02-0.002,0.031-0.002C72.639,495.445,72.63,495.447,72.619,495.447
		L72.619,495.447z"/>
	<path fill="#FC8119" d="M434.799,335.358c-2.817,0.56-4.508-0.181-6.224-0.8c-0.007-0.002-0.014-0.005-0.021-0.007
		c-4.591-1.654-9.242-3.128-14.13-3.526c-3.807-0.31-4.956,1.071-4.515,4.876c0.677,5.846,3.389,10.926,5.92,16.085
		c0.752,1.532,1.93,2.898,2.082,5.07c-0.004-0.001-0.007-0.003-0.011-0.005v0c-3.031-1.214-4.882-3.539-7.068-5.445
		c-2.825-2.469-5.739-4.806-9.146-6.32c-1.133-0.502-2.319-0.915-3.576-1.21c-6.546-1.537-9.572,0.853-9.441,7.562
		c0.093,4.806,1.563,9.341,2.791,13.924c0.305,1.137,1.014,2.273,0.268,3.799c-0.003-0.002-0.006-0.004-0.01-0.007
		c0,0.001-0.001,0.002-0.001,0.003c-2.852-1.793-4.416-4.555-6.463-6.819c-2.444-2.706-5.106-5.168-8.174-7.1
		c-0.828-0.521-1.597-0.89-2.3-1.113c-3.058-0.964-4.872,0.852-4.94,5.045c-0.099,5.998,2.075,11.5,3.669,17.13
		c0.193,0.683,0.795,1.337,0.043,2.3c-0.003-0.002-0.006-0.005-0.009-0.007c-0.001,0.001-0.001,0.002-0.002,0.003
		c-2.891-2.037-4.738-5.01-6.956-7.626c-2.498-2.946-4.682-6.165-7.743-8.615c-0.813-0.652-1.662-1.25-2.567-1.583
		c-0.906-0.332-1.867-0.398-2.9,0.014c-2.135,0.851-1.917,3.174-1.99,4.9c-0.18,4.251,0.618,8.449,1.443,12.618
		c0.141,0.709,0.157,1.443,0.329,3.133c-0.004-0.004-0.007-0.008-0.012-0.012c0,0.003,0,0.005,0.001,0.008
		c-3.267-3.23-4.893-6.558-6.99-9.492c-1.86-2.6-4.274-4.531-6.861-6.198c-0.349-0.225-0.682-0.406-1.001-0.546
		c-2.234-0.976-3.726,0.116-4.355,3.06c-0.413,1.945-0.527,3.954-0.798,5.931c-0.082,0.604-0.084,1.318-0.801,1.552
		c-0.336,0.109-0.608,0.086-0.839-0.017c-0.398-0.173-0.673-0.586-0.925-1c-1.396-2.289-1.871-4.898-2.402-7.453
		c-0.282-1.36-0.723-2.154-1.399-2.455c-0.676-0.294-1.584-0.101-2.8,0.512c-3.646,1.84-5.93,4.885-7.945,8.23
		c-0.642,1.059-1.202,2.162-2.075,3.744c-0.002-0.005-0.003-0.01-0.005-0.015c-0.002,0.004-0.004,0.007-0.006,0.011
		c-1.393-3.454-0.761-6.518-0.389-9.438c0.189-1.49,0.035-2.237-0.438-2.483c-0.474-0.238-1.263,0.015-2.343,0.523
		c-4.89,2.304-7.073,6.855-9.438,11.256c-0.463,0.861-0.815,1.781-1.516,3.333c-0.002-0.006-0.003-0.011-0.005-0.017
		c-0.002,0.004-0.004,0.009-0.006,0.013c-1.143-3.799-1.515-6.951-1.001-10.277c0.334-2.173,0.346-3.173-0.388-3.429
		c-0.577-0.193-1.605,0.061-3.286,0.564c-8.808,2.637-13.027,9.485-16.277,17.292c-0.288,0.69-0.506,1.411-0.779,2.108
		c-0.029,0.074-0.212,0.089-0.482,0.191c0-0.003-0.001-0.006-0.001-0.009c-0.003,0.001-0.006,0.002-0.009,0.003
		c-1.188-7.108,1.344-13.185,5.433-19.233c-3.946,0.098-7.064,1.003-10.031,2.69c-0.942,0.536-2.129,1.247-3.157,0.983
		c-0.342-0.085-0.667-0.278-0.959-0.621c-0.956-1.125,0.412-2.216,1.229-3.142c0.492-0.558,1.057-1.246,0.454-1.963
		c-0.139-0.165-0.295-0.266-0.463-0.324c-0.509-0.168-1.116,0.072-1.635,0.216c-5.211,1.455-9.469,4.315-12.865,8.555
		c-1.282,1.601-2.08,3.742-4.319,4.43c0,0.011-0.001,0.021-0.001,0.032l-0.022-0.023c0.008-0.002,0.015-0.007,0.023-0.009
		c0-0.003,0-0.006,0-0.009c-0.004,0.001-0.007,0.003-0.011,0.005c-0.064-3.633,1.577-6.783,3.191-9.816
		c1.638-3.076,0.49-4.516-2.195-5.805c-0.37-0.178-0.74-0.34-1.111-0.486c-5.562-2.195-11.197-0.893-16.688,4.12
		c-1.704,1.556-3.151,3.392-5.105,4.789c0-0.004,0-0.008-0.001-0.012c-0.003,0.002-0.006,0.005-0.009,0.008
		c-0.693-4.361,1.842-7.217,4.204-9.93c1.619-1.86,1.808-2.884,0.254-3.527c-0.357-0.147-0.806-0.274-1.35-0.386
		c-1.585-0.328-3.146-0.8-4.744-1.034c-0.927-0.135-1.929-0.148-2.621-0.421c-0.894-0.349-1.278-1.126-0.329-3.151
		c0.32-0.682,0.089-1.063-0.338-1.283c-0.428-0.215-1.046-0.272-1.509-0.304c-2.761-0.193-5.502,0.091-8.104,1.051
		c-2.011,0.742-4.042,0.984-6.242,1.003c0-0.001,0-0.003,0-0.004c-0.004,0-0.007,0-0.011,0c0.157-2.137,1.563-2.709,3.159-3.272
		c2.7-0.953,2.624-2.384,0.397-3.888c-1.087-0.733-2.217-1.386-3.441-1.854c-0.406-0.154-0.822-0.289-1.25-0.398
		c-0.393-0.101-0.789-0.193-1.161-0.312c-1.118-0.354-2.024-0.939-1.971-2.674c0.021-0.681-0.3-1.007-0.747-1.168
		c-0.451-0.16-1.027-0.155-1.509-0.179c-2.623-0.125-5.229-0.087-7.804,0.611c-1.086,0.294-2.221,0.796-3.581,0.4
		c-0.061-0.017-0.125-0.049-0.187-0.07c-0.132-0.046-0.263-0.087-0.399-0.151l0,0c-0.003-0.002-0.007-0.002-0.011-0.004
		c1.066-1.733,2.55-2.674,3.992-3.512c2.445-1.424,2.01-2.931,0.281-4.403c-2.563-2.183-5.368-3.789-8.443-4.707
		c-1.848-0.55-3.793-0.853-5.843-0.882c-1.265-0.019-2.578,0.404-3.817-0.095c-0.179-0.071-0.357-0.161-0.533-0.275
		c2.715-4.398,2.334-5.476-3.027-7.516c-5.192-1.975-10.482-1.995-15.773-0.29c-0.002-0.002-0.004-0.003-0.006-0.005
		c-0.001,0-0.003,0.001-0.005,0.001c-0.001,0-0.001,0-0.002,0.001c0.002,0.002,0.004,0.004,0.006,0.006
		c-0.302,0.167-0.472,0.196-0.537,0.114c-0.069-0.076-0.034-0.264,0.086-0.543c0.702-2.81-0.538-4.004-2.149-4.566
		c-0.968-0.336-2.068-0.446-2.961-0.542c-10.595-1.132-21.286-1.298-31.382,2.691c-6.566,2.594-13.311,5.091-18.914,9.64
		c-8.104,6.577-15.773,13.572-20.899,22.88c2.379-1.923,4.589-4.125,7.177-5.71c6.398-3.921,12.113-9.464,20.409-9.224
		c1.909,0.054,2.617-1.015,2.681-2.813c0.09-2.527,0.618-4.961,2.133-7.062c1.473-2.042,2.793-1.826,3.824,0.396
		c0.732,1.579,1.347,3.211,2.074,4.792c0.988,2.147,3.023,1.81,4.841,1.945c2.05,0.151,1.869-1.513,2.281-2.757
		c1.654-4.998,5.554-8.95,9.51-9.713c-2.247,9.567-1.681,11.236,4.381,14.776c2.167,1.266,2.922,0.805,3.616-1.501
		c1.519-5.042,5.967-9.129,10.719-10.127c-0.333,0.654-0.629,1.187-0.881,1.741c-3.49,7.639-2.593,14.183,2.338,18.075
		c1.632,1.289,2.212,1.447,3.358-0.783c2.698-5.252,6.553-9.491,12.97-10.97c0.036,2.21-1.271,3.518-1.955,5.063
		c-2.863,6.468-4.086,13.012-0.904,19.757c0.57,1.208,1.065,2.921,2.441,2.862c0.737-0.032,1.372-1.844,2.098-2.821
		c4.017-5.405,8.382-10.343,15.795-11.892c-9.905,17.637-10.27,29.568-1.237,38.368c2.609-4.385,2.864-9.875,6.634-13.614
		c3.468-3.44,6.526-7.478,12.256-8.544c-9.04,21.927-6.71,42.184,5.762,49.489c-0.203-13.649,4.272-24.877,15.984-32.476
		c-1.977,4.515-2.826,9.244-3.165,14.057c-0.974,13.818,2.366,26.145,12.707,35.965c0.755,0.721,1.546,1.999,2.706,1.384
		c0.913-0.487,0.558-1.835,0.475-2.797c-0.673-7.771,0.313-15.278,2.634-22.755c2.753-8.865,7.669-16.183,14.73-23.259
		c-11.737,26.144-0.26,54.409,13.659,60.68c0.125-8.783-0.707-17.503,1.472-26.128c2.205-8.732,6.061-16.253,13.565-22.654
		c0.185,5.662-0.443,10.562,0.715,15.803c3.546-7.571,3.546-7.571,6.166-9.061c-2.706,9.249-4.616,18.315-3.819,27.81
		c0.282,3.361,1.409,3.575,4.151,2.781c5.917-1.712,11.976-1.947,18.3-1.303c-0.918,1.386-2.267,1.36-3.329,1.878
		c-4.536,2.199-9.548,3.483-13.254,7.278c-2.452,2.513-2.655,5.321-0.161,9.063c2.248,3.371,3.345-0.616,5.031-0.885
		c1.188-0.188,2.348-0.787,3.429-1.371c7.145-3.862,14.853-4.11,22.673-3.747c-0.656,0.46-1.359,0.699-2.052,0.963
		c-7.718,2.923-14.946,6.607-20.996,12.422c-2.675,2.571-0.306,4.2,0.615,6.111c0.992,2.064,2.613,2.121,4.305,0.85
		c2.476-1.865,5.437-2.676,8.323-3.156c6.641-1.108,10.889-2.99,16.117-0.802c-1.465,0.607-3.018,1.115-4.439,1.869
		c-4.106,2.181-8.653,3.632-11.788,7.428c-1.042,1.262-1.465,1.707,0.031,3.182c3.066,3.019,6.604,2.952,10.38,2.741
		c4.81-0.267,9.521,0.107,14.327,3.009c-2.906,0.721-5.189,1.281-7.47,1.856c-2.579,0.648-3.604,1.64-1.761,4.375
		c3.01,4.467,5.248,9.324,5.145,14.922c0,0.002,0.001,0.003,0.001,0.005c0.001,0.001,0.002,0.001,0.003,0.002
		c0.564,2.13,1.133,4.259,1.698,6.4c-0.714,0.242-1.21,0.11-1.616-0.156c-0.303-0.197-0.557-0.471-0.813-0.721
		c-0.085-0.082-0.17-0.162-0.257-0.235c-8.441-7.135-17.435-13.336-28.016-16.953c-6.62-2.264-13.579-3.862-20.198-1.753
		c-5.022,1.604-8.187,2.021-12.553-1.925c-3.457-3.122-8.816-1.682-12.942,1.138c-5.019,3.435-7.841,8.632-10.862,13.662
		c-0.867,1.442-0.864,1.443-2.002,0.533c0-0.001,0-0.001,0-0.002c-0.002-0.002-0.004-0.003-0.006-0.005
		c-0.667,1.868-1.375,3.717-1.991,5.597c-4.14,12.632-9.664,24.495-19.744,33.57c-2.701,2.432-4.187,4.278-0.643,6.933
		c1.253,0.939,0.498,1.492-0.163,2.372c-3.83,5.098-6.942,10.784-13.28,14.698c6.321,1.799,11.379,1.541,16.391-1.122
		c7.065-3.753,10.938-10.078,14.559-16.825c5.969-11.127,10.552-22.978,17.78-33.457c3.135-4.544,6.995-7.354,12.604-6.939
		c2.712,0.198,5.525,0.64,8.038,1.62c10.979,4.291,21.952,8.577,33.096,12.438c10.553,3.656,21.24,6.28,32.545,5.09
		c8.916-0.938,15.474-5.631,20.372-12.879c6.409-9.489,8.848-20.143,8.991-31.43c0.109-8.363,0.044-16.693-1.703-24.963
		c-3.034-14.349-8.1-27.75-17.136-39.463c-0.366-0.052-0.846,0.027-1.077-0.176c-0.002-0.002-0.005-0.004-0.007-0.006
		c0-0.001-0.001-0.001-0.001-0.001c-0.806-0.709-1.622-1.395-2.446-2.059c-12.408-9.986-26.905-14.959-42.738-16.755
		c0.001-0.002,0.002-0.003,0.003-0.004c-0.004-0.001-0.008-0.002-0.013-0.002c2.023-3.102,7.185-4.918,14.979-5.313
		c4.477-2.9,9.325-2.408,14.107-1.29c10.278,2.403,18.2,8.722,25.214,16.175c9.548,10.15,15.521,22.354,19.673,35.57
		c2.266,7.213,4.999,14.272,9.086,20.713c4.623,7.286,8.813,8.572,16.102,5.267c2.036-0.925,2.33-1.518,0.594-2.948
		c-6.74-5.544-11.297-12.737-14.864-20.531c-1.275-2.785-3.239-5.507-3.123-9.296c3.346,4.578,6.656,8.58,10.444,12.112
		c3.797,3.544,7.786,6.89,11.808,10.181c4.962,4.061,10.057,5.67,15.955,1.31c1.921-1.42,2.005-2.1,0.223-2.988
		c-6.042-3.014-10.906-7.375-15.428-12.318c-4.013-4.387-9.085-11.913-9.771-15.563c6.969,7.753,15.088,13.937,24.613,18.043
		c5.064,2.185,10.377,3.597,15.77,0.538c1.448-0.82,1.643-1.872,0.179-2.307c-6.328-1.877-10.774-6.96-16.806-9.439
		c-10.447-4.292-19.508-10.785-26.629-19.646c-8.795-10.942-11.528-23.324-7.526-36.849c0.938-3.181,2.083-6.709,5.912-9.341
		c0,4.709-0.211,8.587,0.043,12.435c0.557,8.395,3.438,16.146,8.473,22.751c5.457,7.162,12.334,13.104,20.563,16.853
		c14.354,6.541,27.664,4.978,36.239-10.73c1.665-3.049,2.839-6.436,4.862-9.207c4.047-5.555,9.706-8.272,16.918-7.483
		c-2.415-4.461-3.863-5.204-8.894-5.14c-1.012,0.014-2.39,0.93-3.015-0.457c-0.5-1.116,0.514-2.052,1.021-3.047
		c1.146-2.248,3.056-3.799,4.732-5.57c-1.313,0.171-2.476,0.491-3.516,0.936c-4.508,1.931-6.686,6.21-8.526,10.914
		c-3.104,7.943-8.066,14.523-15.304,19.119c-1.299,0.826-2.646,1.424-4.017,1.78c-3.015,0.784-6.145,0.396-9.138-1.328
		c-3.786-2.178-6.525-5.3-6.158-10.153c-6.444-8.951-10.313-18.973-12.313-29.753c-0.416-2.238,0.056-3.387,2.759-2.193
		c4.755,2.098,8.738,5.063,11.874,9.214c2.413,3.194,3.84,6.945,5.948,10.294c1.182,1.878,2.105,5.153,4.659,4.565
		c2.293-0.529,3.126-3.549,3.771-6.012c1.469-5.608,2.565-11.372,7.148-15.608c1.406-1.301,0.654-2.559-0.709-3.728
		c-2.577-2.21-5.663-3.962-7.108-7.283c3.541,1.67,7.199,3.49,11.021,3.757c7.232,0.508,14.336-1.587,21.534-2.22
		c0.979-0.087,2.546-0.376,2.402-1.83c-0.135-1.403-1.648-1.445-2.698-1.436c-5.479,0.05-10.524-1.748-15.629-3.384
		c-4.559-1.46-10.646-5.699-12.767-9.259c11.065,2.972,21.964,5.94,33.021-2.215c-11.578-2.182-22.447-3.626-31.071-12.363
		c3.866-0.064,6.682,1.738,9.843,1.564c3.237-0.178,6.489-0.066,9.729-0.19c3.062-0.119,5.802-1.253,8.354-2.912
		c0.762-0.495,1.653-1.014,1.551-1.937c-0.129-1.183-1.357-0.917-2.131-0.978c-5.365-0.425-10.543-1.681-15.672-3.249
		c-5.674-1.735-14.539-7.744-17.047-11.743c8.104,2.626,16.063,5.989,25.438,2.223c-5.527-3.516-10.855-5.72-14.979-9.819
		c-8.32-8.27-14.41-17.415-13.348-29.89c0.201-2.363,1.076-4.305,2.244-6.191c0.562-0.903,1.234-2.018,2.626-1.743
		c1.229,0.242,1.283,1.385,1.566,2.319c1.089,3.592,2.994,6.781,5.215,9.735c7.436,9.888,17.821,15.081,29.488,18.106
		c12.07,3.131,24.328,5.212,36.729,6.542c16.15,1.734,32.314,3.154,48.566,2.339c6.431-0.322,12.294-2.811,17.673-6.325
		c0.555-0.362,1.375-0.839,1.271-1.717c-0.115-0.993-1.052-0.955-1.74-1.028c-3.216-0.341-6.435-0.62-9.652-0.92
		c-0.926,0.858-1.92,1.25-2.937,1.378c-1.692,0.215-3.451-0.303-5.074-0.621c-13.087-2.566-25.917-6.189-38.692-9.99
		c-12.21-3.633-23.899-8.61-35.588-13.634c-11.1-4.773-21.765-10.632-33.494-13.891c-3.749-1.042-7.621-1.295-11.479-1.601
		c-0.359-0.028-0.748-0.008-1.142,0.014c-0.195,0.011-0.392,0.022-0.585,0.027c-0.982,0.028-1.91-0.085-2.372-1.095
		c-0.898-1.968,1.367-2.613,2.289-3.816c-0.313-2.089-0.631-4.178-0.953-6.265c-0.742-4.828,1.575-8.762,5.841-9.2
		c3.571-0.365,7.2-0.395,10.749,0.716c9.878,3.094,20.111,3.518,30.3,3.141c4.943-0.184,9.921-0.793,14.895-0.935
		c13.354-0.383,26.494-2.738,39.566-5.022c13.297-2.325,26.422-5.823,39.252-10.174c6.565-2.226,13.329-3.967,19.471-7.333
		c1.539-3.364-0.155-11.432-3.27-14.37c-1.725-1.627-3.143-4.266-5.805-3.783c-0.614,0.112-1.296,0.392-2.063,0.888
		c-0.13,0.084-0.256,0.134-0.378,0.156c-0.843,0.159-1.48-1.063-1.897-2.045c-4.565-10.832-13.788-14.865-24.521-16.503
		c-0.395-0.061-0.828-0.054-1.286,0.008c-3.229,0.442-7.715,3.663-9.018,6.187c-2.379,4.613-5.049,9.076-7.155,13.903
		c0-0.006,0-0.011,0-0.017c-0.003,0.006-0.006,0.012-0.009,0.018c-0.272-5.904,0.945-11.508,3.019-16.951
		c1.753-4.6,1.635-4.886-3.109-6.031c-0.484-0.117-0.974-0.229-1.467-0.302c-3.908-0.585-6.813-0.849-9.069-0.567
		c-4.959,0.622-6.778,3.887-9.242,12.193c-0.277,0.937-0.281,2.006-1.488,2.729c-0.001-0.001-0.001-0.002-0.002-0.003
		c-0.002,0.001-0.004,0.002-0.006,0.004c-1.679-2.055-1.268-4.651-1.658-6.943c-1.286-7.574-3.109-9.833-9.353-8.903
		c-0.892,0.133-1.873,0.332-2.955,0.588c-0.775,0.184-1.49,0.294-2.179,0.355c-2.627,0.236-4.748-0.462-7.218-2.557
		c-7.35-6.234-16.209-8.33-24.397-6.958c-10.529,1.766-19.947,9.265-23.619,21.071c-0.771,2.47-1.059,5.068-2.112,7.487
		c-0.469,1.073-0.861,1.97-1.799,2.056c-0.313,0.031-0.687-0.028-1.144-0.202c-0.961-2.408-2.979-3.702-5.104-4.888
		c-0.609,2.163-1.255,4.331-2.571,6.179c-5.88,8.253-4.92,17.719-4.848,27.029c0.006,0.85,0.115,1.699,0.21,2.996
		c-0.001,0-0.002-0.001-0.003-0.002c0,0.001,0,0.002,0,0.003c-2.787-1.554-3.823-3.81-4.909-6.173
		c-0.488-1.065-0.703-3.11-2.45-2.794c-1.355,0.248-1.325,1.958-1.492,3.164c-1.063,7.722-1.421,15.414,1.186,22.951
		c0.369,1.067,0.941,2.581-0.038,3.135c-0.187,0.105-0.358,0.169-0.517,0.199c-1.112,0.212-1.583-1.262-2.171-2.066
		c-1.717-2.356-3.329-4.786-5.118-7.383c-1.652,6.806-0.243,12.978,5.812,25.661c-0.002,0-0.003-0.001-0.005-0.002
		c0.001,0.001,0.002,0.002,0.002,0.003c-3.567-1.539-5.887-3.941-8.133-6.442c-0.152,5.32,3.27,9.266,5.257,13.764
		c0.605,0.033,0.966,0.349,0.599,1.512c0.067,0.38,0.179,0.727,0.329,1.044c1.107,2.332,4.175,3.173,4.95,5.878
		c-0.259,0.035-0.514,0.058-0.766,0.069c-3.784,0.164-6.904-2.27-10.467-2.85c0.799,4.759,4.667,8.131,6.008,12.682
		c-1.34-0.173-2.435-0.314-3.532-0.456c0.701,4.399,4.909,6.181,7.563,9.76c-0.001,0-0.002,0-0.004,0c0,0,0.001,0,0.001,0
		c-5.652,0.139-9.268-3.261-13.35-5.505c-0.674,1.569,0.176,2.981,0.762,4.237c1.662,3.565,3.596,7.004,5.419,10.493
		c-0.939-0.306-1.865-0.683-2.824-0.901c-1.043-0.237-1.993-1.135-3.178-0.5c1.345,4.778,5.9,7.415,8.207,11.994l0,0c0,0,0,0,0,0
		c-3.079,0.299-5.606-0.556-8.124-1.385c-1.812-0.598-2.883-0.226-2.96,1.849c-0.114,1.91,1.231,3.204,2.119,4.616
		c2.697,4.297,2.769,4.25-2.094,5c-0.106,0.017-0.195,0.147-0.291,0.223c0.255,0.458,0.525,0.904,0.812,1.34
		C429.218,329.737,431.94,332.32,434.799,335.358z M251.239,378.734l0.022,0.023L251.239,378.734z M454.389,353.729
		c0.003,0.001,0.006,0.002,0.009,0.004c0.001-0.002,0.002-0.004,0.003-0.007c-0.008-0.002,0.132,0.026,0.132,0.026
		c-0.066,0.038-0.134,0.076-0.2,0.115c0.001-0.001,0.001-0.002,0.001-0.002c-0.003,0.001-0.007,0.003-0.01,0.005
		C454.346,353.823,454.371,353.777,454.389,353.729z M582.575,182.816c2.088-0.631,3.958,0.161,5.831,0.777
		c0.32,0.105,0.638,0.228,0.951,0.365c4.702,2.065,8.563,7.643,8.501,12.584c0.111,1.997-0.736,3.806-2.705,4.736
		c-0.791,0.374-1.577,0.544-2.334,0.517c-1.261-0.046-2.438-0.644-3.413-1.77c-1.458-1.684-2.746-3.514-4.155-5.243
		c-0.683-0.838-1.138-2.332-2.426-2.072c-0.257,0.052-0.495,0.088-0.716,0.109c-3.307,0.316-2.631-2.687-2.915-4.529
		C578.798,185.743,579.792,183.657,582.575,182.816z M489.787,169.134c8.127-3.378,18.819,0.644,23.432,8.365
		c0.658,1.104,1.193,2.282,1.579,3.526c2.688,8.667,0.399,16.469-6.813,22.458c-0.001,0-0.003,0.001-0.004,0.002
		c-1.489,2.832-3.724,4.401-6.27,5.358c-1.823,0.686-3.806,1.061-5.793,1.35c-5.09,0.742-9.744-0.972-14.144-3.526
		c-1.141-0.664-1.735-1.378-1.963-2.135c-0.369-1.221,0.224-2.552,1.056-3.957c-0.2-0.375-0.404-0.747-0.609-1.12
		c-0.739-1.343-1.495-2.68-2.142-4.066c-0.133-0.286-0.254-0.571-0.37-0.857c-0.022-0.053-0.048-0.105-0.069-0.159
		c-0.1-0.252-0.188-0.504-0.276-0.757c-0.03-0.087-0.066-0.175-0.095-0.262c-0.055-0.165-0.099-0.329-0.148-0.494
		c-0.053-0.175-0.11-0.351-0.157-0.526c-0.046-0.168-0.08-0.336-0.12-0.504c-0.04-0.171-0.086-0.341-0.12-0.512
		c-0.034-0.164-0.058-0.327-0.086-0.491c-0.031-0.175-0.066-0.35-0.092-0.524c-0.007-0.046-0.01-0.091-0.016-0.137
		c-0.04-0.292-0.075-0.583-0.101-0.873c-0.006-0.07-0.006-0.139-0.011-0.209c-0.19-2.613,0.22-5.166,1.109-7.547
		C479.622,176.037,484.22,171.449,489.787,169.134z"/>
	<path fill="#F5C469" d="M202.378,316.688c7.049,5.188,14.34,10.078,21.755,14.73c17.954,11.264,37.774,16.522,58.816,17.265
		c32.446,1.146,63.287-6.507,93.214-18.138c17.107-6.65,30.186-17.963,36.396-35.962c3.36-9.74,3.458-19.823,3.337-29.934
		c-0.157-13.111,0.11-26.158,2.988-39.061c4.317-19.357,13.858-35.592,29.462-47.723c5.413-4.208,8.142-9.302,10.242-15.265
		c-2.484,0.836-5.053,1.473-7.434,2.534c-15.582,6.942-25.803,19.458-33.38,34.021c-8.607,16.533-12.121,34.501-11.984,53.163
		c0.065,8.748,0.138,17.501-0.064,26.245c-0.189,8.328-2.995,15.934-7.61,22.795c-8.235,12.231-20.725,18.49-34.01,23.303
		c-12.34,4.47-25.048,7.632-37.954,10.18c-22.069,4.356-44.053,5.473-66.125,0.401c-11.394-2.618-22.128-6.777-32.065-13.069
		c-11.376-7.204-22.093-15.363-33.601-22.392c-13.657-8.341-28.152-13.829-44.055-15.637c-4.695-0.534-9.365-1.299-14.047-1.958
		c-1.281,3.768-4.236,6.859-4.789,11.339C158.408,291.762,181.355,301.215,202.378,316.688z"/>
	<path fill="#F5C469" d="M80.107,348.591c0.005-0.008,0.01-0.017,0.015-0.025c5.126-9.308,12.796-16.303,20.899-22.88
		c5.603-4.549,12.348-7.046,18.914-9.64c10.096-3.989,20.787-3.823,31.382-2.691c0.894,0.095,1.994,0.205,2.961,0.542
		c1.616,0.561,2.862,1.754,2.158,4.569c0.152,0.135,0.299,0.275,0.443,0.418c0.002,0.002,0.004,0.003,0.006,0.005
		c5.291-1.705,10.581-1.685,15.773,0.29c0.002,0.001,0.003,0.001,0.005,0.002c5.367,2.042,5.749,3.119,3.033,7.518
		c0.172,0.112,0.347,0.201,0.522,0.271c1.239,0.499,2.552,0.077,3.817,0.095c2.05,0.03,3.995,0.332,5.843,0.882
		c3.08,0.917,5.888,2.525,8.454,4.711c1.729,1.472,2.164,2.98-0.281,4.403c-1.442,0.839-2.926,1.78-3.992,3.512l0,0
		c0.136,0.064,0.267,0.105,0.399,0.151c0.062,0.021,0.125,0.053,0.187,0.07c1.36,0.396,2.495-0.106,3.581-0.4
		c2.575-0.698,5.181-0.736,7.804-0.611c0.482,0.023,1.058,0.019,1.509,0.179c0.452,0.16,0.778,0.486,0.757,1.172
		c-0.053,1.729,0.847,2.315,1.96,2.67c0.373,0.119,0.769,0.211,1.161,0.312c0.429,0.11,0.845,0.244,1.25,0.398
		c1.229,0.468,2.362,1.122,3.452,1.857c2.227,1.504,2.304,2.935-0.397,3.888c-1.595,0.563-3,1.133-3.159,3.268
		c0,0.001,0,0.003,0,0.004c2.2-0.019,4.231-0.261,6.242-1.003c2.602-0.96,5.343-1.244,8.104-1.051
		c0.463,0.032,1.082,0.089,1.509,0.304c0.433,0.218,0.67,0.6,0.349,1.287c-0.945,2.017-0.568,2.796,0.318,3.146
		c0.692,0.273,1.694,0.286,2.621,0.421c1.598,0.234,3.159,0.706,4.744,1.034c0.544,0.112,0.993,0.239,1.35,0.386
		c1.564,0.643,1.379,1.667-0.243,3.531c-2.36,2.711-4.892,5.564-4.206,9.918c0.001,0.004,0.001,0.008,0.001,0.012
		c1.954-1.397,3.401-3.233,5.105-4.789c5.491-5.013,11.126-6.315,16.688-4.12c0.375,0.148,0.749,0.311,1.122,0.49
		c2.685,1.289,3.833,2.729,2.195,5.805c-1.613,3.03-3.252,6.178-3.19,9.807c0,0.003,0,0.006,0,0.009
		c2.239-0.688,3.037-2.829,4.319-4.43c3.396-4.24,7.654-7.1,12.865-8.555c0.519-0.144,1.126-0.384,1.635-0.216
		c0.171,0.057,0.332,0.159,0.474,0.328c0.603,0.716,0.038,1.405-0.454,1.963c-0.818,0.926-2.185,2.017-1.229,3.142
		c0.289,0.339,0.61,0.53,0.948,0.617c1.027,0.263,2.215-0.448,3.157-0.983c2.967-1.687,6.084-2.592,10.031-2.69
		c0.004,0,0.009,0,0.013,0c-4.089,6.049-6.621,12.124-5.437,19.231c0,0.003,0,0.006,0.001,0.009c0.27-0.103,0.453-0.117,0.482-0.191
		c0.273-0.697,0.491-1.418,0.779-2.108c3.25-7.807,7.469-14.655,16.277-17.292c1.681-0.503,2.709-0.757,3.286-0.564
		c0.745,0.25,0.735,1.25,0.398,3.433c-0.513,3.321-0.143,6.469,0.996,10.26c0.002,0.006,0.003,0.011,0.005,0.017
		c0.701-1.552,1.053-2.472,1.516-3.333c2.365-4.401,4.548-8.952,9.438-11.256c1.08-0.508,1.869-0.761,2.343-0.523
		c0.481,0.241,0.64,0.986,0.448,2.487c-0.37,2.916-1,5.975,0.385,9.423c0.002,0.005,0.003,0.01,0.005,0.015
		c0.873-1.582,1.434-2.685,2.075-3.744c2.016-3.345,4.3-6.39,7.945-8.23c1.216-0.613,2.125-0.807,2.8-0.512
		c0.682,0.297,1.127,1.091,1.41,2.458c0.531,2.555,1.007,5.164,2.402,7.453c0.251,0.41,0.523,0.82,0.915,0.996
		c0.231,0.104,0.503,0.126,0.839,0.017c0.717-0.234,0.719-0.948,0.801-1.552c0.271-1.977,0.385-3.986,0.798-5.931
		c0.63-2.944,2.121-4.036,4.355-3.06c0.322,0.14,0.659,0.323,1.012,0.55c2.587,1.667,5.001,3.598,6.861,6.198
		c2.092,2.929,3.717,6.254,6.979,9.48c0.004,0.004,0.008,0.008,0.012,0.012c-0.172-1.69-0.188-2.424-0.329-3.133
		c-0.825-4.169-1.623-8.367-1.443-12.618c0.073-1.726-0.145-4.049,1.99-4.9c1.033-0.412,1.994-0.346,2.9-0.014
		c0.909,0.333,1.762,0.933,2.578,1.587c3.059,2.45,5.244,5.669,7.743,8.615c2.215,2.613,4.062,5.583,6.947,7.619
		c0.003,0.002,0.006,0.005,0.009,0.007c0.752-0.963,0.15-1.617-0.043-2.3c-1.594-5.63-3.768-11.132-3.669-17.13
		c0.069-4.194,1.883-6.009,4.94-5.045c0.706,0.223,1.478,0.593,2.311,1.117c3.069,1.932,5.729,4.394,8.174,7.1
		c2.044,2.262,3.608,5.02,6.453,6.812c0.004,0.002,0.007,0.005,0.01,0.007c0.746-1.526,0.037-2.662-0.268-3.799
		c-1.228-4.583-2.698-9.118-2.791-13.924c-0.131-6.709,2.896-9.099,9.441-7.562c1.257,0.295,2.443,0.708,3.576,1.21
		c3.41,1.514,6.327,3.853,9.157,6.324c2.181,1.904,4.033,4.225,7.058,5.44c0.004,0.001,0.007,0.003,0.011,0.005
		c-0.152-2.172-1.33-3.538-2.082-5.07c-2.531-5.159-5.243-10.239-5.92-16.085c-0.441-3.805,0.708-5.186,4.515-4.876
		c4.888,0.398,9.539,1.872,14.13,3.526l0.001,0c0.007,0.002,0.013,0.005,0.02,0.007c1.716,0.62,3.406,1.36,6.224,0.8
		c-2.858-3.038-5.581-5.621-7.581-8.675c-0.286-0.437-0.557-0.882-0.812-1.34c-2.469-2.78-5.018-5.493-7.364-8.368
		c-1.187-1.443-1.653-1.672-2.924,0.07c-6.674,9.154-15.164,16.366-25.436,21.029c-33.044,15.002-67.812,22.777-104.084,23.463
		c-18.369,0.348-35.934-3.783-52.8-10.964c-11.571-4.927-21.85-12.014-31.99-19.306c-13.021-9.363-26.222-18.484-42.05-22.425
		c-25.922-6.455-49.839-3.345-69.571,16.395c-7.923,7.925-13.076,17.607-15.951,28.988C77.27,352.948,78.434,350.506,80.107,348.591
		z"/>
	<path fill="#F5C469" d="M251.249,378.73l0.022,0.023c0-0.011,0.001-0.021,0.001-0.032
		C251.264,378.723,251.257,378.728,251.249,378.73z"/>
	<path fill="#F5C469" d="M208.072,544.515c1.361-0.655,2.549-1.755,1.943-3.205c-2.811-6.723,1.375-10.702,5.668-14.421
		c10.092-8.73,15.928-20.013,19.87-32.439c2.721-8.577,4.29-17.618,10.748-24.557c1.671-1.796-0.123-2.213-1.271-2.794
		c-11.414-5.771-22.027-12.676-31.26-21.627c-15.415-14.942-26.951-32.678-37.284-51.303c-6.055-10.913-11.921-21.949-19.544-31.897
		c-8.097-10.565-17.953-18.228-31.886-19.117c-7.723-0.493-7.731-0.541-8.29,7.24l0,0l-0.003,0.034l-0.001-0.001
		c-0.12,0.975-0.239,1.951-0.359,2.925c12.014-0.821,21.888,2.956,29.697,12.552c6.596,8.105,11.857,16.981,16.742,26.097
		c7.432,13.869,14.959,27.763,24.646,40.113c11.781,15.015,24.95,28.888,42.174,38.021c2.316,1.23,2.767,2.59,1.635,4.767
		c-1.982,3.804-2.863,7.987-3.971,12.073c-3.411,12.578-9.599,23.512-19.004,32.554c-6.875,6.609-11.622,14.018-9.699,24.136
		C201.581,546.082,204.749,546.123,208.072,544.515z"/>
	<path fill="#F5C469" d="M501.297,561.097c-3.731-1.111-6.088,0.877-8.214,3.543c-2.718,3.407-5.347,6.883-8.772,9.681
		c-9.737,7.957-22.078,6.89-30.365-2.626c-3.824-4.39-6.354-9.543-8.875-14.688c-6.666-13.6-17.338-22.604-31.436-27.714
		c-2.533-0.918-5.031-1.822-7.969-0.932c-25.22,7.624-50.749,7.098-76.313,2.224c-16.24-3.097-31.575-9.135-46.832-15.37
		c-8.877-3.627-6.666-4.414-11.732,4.521c-0.176,0.309-0.168,0.719-0.246,1.081c18.208,9.336,37.425,15.756,57.416,19.985
		c10.529,2.233,21.164,3.289,31.907,3.896c12.826,0.723,25.342-0.898,37.854-3.351c4.458-0.873,8.822-3.555,13.507-1.815
		c7.107,2.639,13.219,6.75,18.113,12.729c5.52,6.745,8.538,14.914,13.29,22.103c10.879,16.459,33.373,20.856,48.689,8.153
		c5.878-4.878,12.754-9.995,9.69-19.646C500.849,562.364,501.193,561.695,501.297,561.097z"/>
	<path fill="#F5C469" d="M611.025,304.832c-0.394-2.424-1.422-4.79-0.627-7.313c-0.098,0.049-0.195,0.098-0.32,0.126
		c0.001-0.041,0.016-0.072,0.02-0.111c-0.497,0.12-0.862,0.436-1.211,0.874c-4.839,6.156-11.311,9.806-18.597,12.335
		c-11.845,4.114-23.992,2.601-35.995,1.722c-14.721-1.08-29.379-3.039-44.049-4.616c0,1.59-0.174,2.831,0.025,4.009
		c3.236,19.116,4.395,38.373,3.311,57.709c-0.703,12.535-2.379,25.069-10.697,35.215c-3.016,3.679-2.886,6.433-0.708,10.059
		c0.872,1.447,1.184,2.049,2.477,0.479c1.582-1.927,3.399-3.655,5.007-5.56c7.66-9.067,16.865-15.49,28.892-17.088
		c3.785-0.086,3.878-2.559,3.623-5.459c-0.255-2.933-1.481-4.613-4.608-4.7c-4.143-0.115-7.873,1.454-11.492,3.035
		c-3.286,1.437-3.63,0.232-3.355-2.565c0.551-5.579,1.266-11.159,1.453-16.754c0.486-14.353,0.228-28.696-1.632-42.967
		c-0.263-2.014-0.526-3.937,2.543-3.543c13.235,1.695,26.491,3.153,39.823,3.879c15.355,0.835,30.127-0.21,42.909-10.408
		C610.921,310.714,611.578,308.233,611.025,304.832z"/>
	<path fill="#F5C469" d="M534.243,450.74c5.19-0.549,7.836-3.798,9.79-8.07c-0.943-2.183-0.318-4.439-0.3-6.664
		c0.025-2.566-1.265-3.625-3.739-3.43c-3.308,0.261-5.885,2.004-8.094,4.26c-2.53,2.58-4.821,5.393-7.307,8.014
		c-4.614,4.875-8.878,10.184-15.104,13.204c-11.432,5.55-23.632,2.271-31.807-8.46c-0.778-1.021-1.198-3.092-3.157-0.828
		c-5.488,6.345-11.999,11.602-18.544,16.79c-1.056,0.837-1.559,1.388-0.802,2.692c9.07,15.63,12.948,32.809,15.187,50.511
		c0.392,3.102,0.883,6.38,3.345,9.063c3.151-3.185,6.184-6.25,9.215-9.318c-1.264-0.184-1.979-0.905-2.196-2.176
		c-0.509-2.944-1.159-5.869-1.546-8.828c-1.437-11.065-4.173-21.799-8.513-32.057c-2.667-6.305-2.828-6.078,2.123-10.74
		c1.992-1.873,3.421-1.87,5.435-0.267c2.335,1.867,4.875,3.432,7.803,4.327c16.784,5.147,32.067,0.387,43.072-13.389
		C530.552,453.558,531.754,451.004,534.243,450.74z"/>
	<path fill="#F5C469" d="M265.768,641.007c-1.566-0.608-3.198-0.472-4.813-0.472c-45.58-0.007-91.16-0.005-136.74,0.002
		c-1.614,0-3.257-0.191-4.792,0.544c-2.077,0.993-3.556,2.444-3.157,4.94c0.396,2.473,1.828,4.072,4.458,4.263
		c1.243,0.091,2.496,0.04,3.745,0.04c22.727,0.001,45.455,0.001,68.183,0.001c0-0.007,0-0.015,0-0.022
		c21.354,0,42.708,0,64.062,0.001c2.622,0,5.248,0.085,7.865-0.02c2.568-0.108,4.247-1.525,4.566-4.088
		C269.464,643.637,268.152,641.932,265.768,641.007z"/>
	<path fill="#F5C469" d="M465.874,190.394c1.054-2.419,1.341-5.017,2.112-7.487c3.672-11.806,13.09-19.305,23.619-21.071
		c8.189-1.374,17.052,0.722,24.405,6.958c2.47,2.091,4.587,2.791,7.21,2.558c0.688-0.061,1.403-0.171,2.179-0.355
		c1.082-0.257,2.063-0.455,2.955-0.588c6.247-0.935,8.07,1.324,9.36,8.902c0.389,2.291-0.019,4.885,1.656,6.94
		c0.001,0.001,0.001,0.002,0.002,0.003c1.207-0.723,1.211-1.792,1.488-2.729c2.464-8.307,4.283-11.571,9.242-12.193
		c2.257-0.283,5.164-0.019,9.077,0.566c0.493,0.073,0.985,0.185,1.47,0.302c4.741,1.145,4.859,1.431,3.106,6.031
		c-2.074,5.438-3.288,11.037-3.018,16.934c0,0.006,0,0.011,0,0.017c2.106-4.827,4.776-9.29,7.155-13.903
		c1.303-2.524,5.789-5.745,9.018-6.187c0.461-0.063,0.896-0.07,1.294-0.009c10.736,1.638,19.956,5.671,24.521,16.503
		c0.416,0.979,1.053,2.194,1.89,2.046c0.122-0.022,0.248-0.071,0.378-0.156c0.767-0.497,1.448-0.776,2.063-0.888
		c2.667-0.489,4.086,2.153,5.813,3.782c3.119,2.939,4.809,11.007,3.27,14.37c2.251-0.356,2.92-1.622,2.193-3.74
		c-0.606-1.756-1.323-3.493-1.726-5.297c-4.747-21.224-22.644-34.445-43.747-37.078c-5.91-0.736-11.829-0.942-17.743-1.358
		c-11.104-0.781-22.04-0.728-32.825,2.109c-1.965,0.517-3.084-0.011-4.236-1.282c-12.067-13.318-36.703-12.724-48.082,5.874
		c-4.21,6.881-5.635,14.553-7.03,22.28c0.452,0.172,0.822,0.232,1.133,0.203C465.013,192.364,465.405,191.467,465.874,190.394z"/>
	<path fill="#F5C469" d="M635.623,640.629c-0.869-0.079-1.748-0.052-2.624-0.053c-23.874-0.002-47.749-0.004-71.623-0.001
		c-11.75,0.002-23.5,0.022-35.249,0.015c-3.116-0.002-5.215,1.502-5.288,4.565c-0.071,2.999,1.894,4.766,4.952,5.06
		c0.992,0.096,1.998,0.081,2.997,0.082c17.5,0.004,34.999,0.003,52.499,0.003c0-0.007,0-0.016,0-0.02c18,0,36-0.038,53.999,0.031
		c3.291,0.016,5.347-1.197,5.657-4.547C641.19,643.073,638.852,640.923,635.623,640.629z"/>
	<path fill="#FC8119" d="M461.195,557.666c1.908,2.923,4.067,5.962,7.826,6.835c4.075,0.949,8.741-1.763,11.68-6.318
		c4.426-6.858,10.234-12.556,15.964-18.274c8.764-8.75,19.557-13.278,31.826-14.426c-0.708-0.182-1.411-0.342-2.109-0.479
		c-9.708-1.91-18.502,0.451-26.662,5.755c-0.645,0.419-1.285,0.852-1.921,1.307c-1.115,0.797-2.183,1.657-3.294,2.463
		c-0.543,0.392-1.009,0.727-1.422,1.011c-0.936,0.645-1.581,1.008-2.107,1.048c-0.742,0.058-1.256-0.523-2.039-1.826
		c-0.245-0.407-0.516-0.88-0.829-1.432c-5.386,3.206-9.149,8.202-13.636,12.393c-2.095,1.959-3.571,2.487-5.604-0.312
		c-3.894-5.361-7.31-10.966-9.729-17.109c-2.566-6.512-2.012-6.126-8.385-2.392c-0.518,0.303-0.949,0.797-1.339,1.269
		c-2.511,3.033-2.156,6.896,0.822,8.824c1.122-1.645,1.006-4.212,3.476-4.889c0.908,0.755,0.521,1.688,0.442,2.483
		C453.262,542.573,456.45,550.395,461.195,557.666z"/>
	<path fill="#F5C469" d="M144.022,601.358c14.736,0,29.471,0.011,44.206-0.013c3.955-0.006,6.51-1.762,6.752-4.492
		c0.19-2.147-3.118-4.981-6.171-5.271c-0.371-0.035-0.748,0.018-1.123,0.018c-13.362,0.015-26.724,0.031-40.085,0.035
		c-16.359,0.005-32.719-0.002-49.078-0.006c-3.106,0-5.357,1.271-5.84,4.496c-0.398,2.655,1.83,4.666,5.266,5.021
		c1.239,0.133,2.493,0.156,3.741,0.157c14.11,0.014,28.222,0.007,42.332,0.007C144.022,601.325,144.022,601.34,144.022,601.358z"/>
	<path fill="#F5C469" d="M156.142,616.009c-1.065,0.513-1.571,1.187-1.776,1.938c-0.342,1.252,0.15,2.716,0.277,3.991
		c0.028,0.279,0.041,0.534,0.038,0.766c-0.019,1.619-0.808,2.105-2.643,2.08c-5.101-0.076-10.202-0.02-15.303-0.014
		c2.069,1.283,4.381,0.752,6.581,0.776c10.492,0.116,20.985,0.144,31.478,0.167c29.734,0.07,59.469,0.119,89.216,0.177
		c-0.919-1.814-2.609-0.923-3.947-1.009c-5.716-0.367-11.626,0.672-17.397-2.534c3.898-1.407,1.506-4.354,2.162-6.513
		c-17.465-0.01-34.931-0.048-52.396-0.021C180.335,615.832,168.239,615.943,156.142,616.009z"/>
	<path fill="#F5C469" d="M457.679,250.696c0.396-0.022,0.789-0.043,1.151-0.015c3.861,0.307,7.73,0.559,11.479,1.601
		c11.728,3.259,22.392,9.119,33.494,13.891c11.691,5.025,23.378,10.001,35.588,13.634c12.775,3.801,25.605,7.424,38.692,9.99
		c1.62,0.318,3.375,0.834,5.064,0.622c1.017-0.128,2.011-0.52,2.937-1.378c0.001-0.001,0.001-0.001,0.002-0.002
		c-3.654-0.783-7.417-1.208-11-2.104c-20.024-4.999-39.173-12.421-57.806-21.285c-14.086-6.7-28.04-13.721-42.562-19.46
		c-5.745-2.272-11.726-3.668-17.698-0.379c-0.922,1.203-3.187,1.847-2.286,3.816c0.46,1.007,1.382,1.123,2.359,1.096
		C457.287,250.718,457.483,250.707,457.679,250.696z"/>
	<path fill="#FC8119" d="M541.06,412.567c-7.498-0.136-13.5,3.652-19.521,7.415c-1.268,0.791-2.438,2.479-4.178,0.739
		c-5.39,3.185-9.444,7.902-13.726,12.288c-2.416,2.479-3.334,1.605-5.105-0.497c-1.295-1.532-0.4-4.987-2.991-4.686
		c-1.843,0.215-2.345,3.217-3.648,4.831c-0.228,0.284-0.496,0.543-0.674,0.855c-2.014,3.538-1.558,7.113,1.296,10.335
		c2.087,2.356,6.495,3.207,9.664,1.835c2.794-1.209,4.831-3.383,6.993-5.431c6.472-6.131,11.706-13.683,19.534-18.247
		c6.888-4.016,14.228-6.076,21.688-1.014c2.665,1.804,4.61,4.291,6.065,7.575c0.569-1.386,1.204-2.2,0.715-3.249
		C556.743,418.202,549.818,412.717,541.06,412.567z"/>
	<path fill="#F5C469" d="M252.295,493.795c3.021-5.03,5.843-10.228,10.862-13.662c4.126-2.819,9.485-4.26,12.942-1.138
		c4.366,3.945,7.531,3.529,12.553,1.925c6.619-2.109,13.578-0.511,20.198,1.753c10.581,3.617,19.574,9.818,28.016,16.953
		c0.087,0.073,0.172,0.153,0.257,0.235c0.256,0.249,0.51,0.521,0.813,0.721c0.406,0.267,0.902,0.398,1.616,0.156
		c-0.565-2.142-1.134-4.271-1.698-6.4c-0.001-0.001-0.002-0.001-0.003-0.002c-1.381-1.155-2.905-2.181-4.122-3.492
		c-4.872-5.268-10.741-9.173-17.041-12.429c-10.239-5.293-20.898-7.433-32.125-3.329c-1.41,0.513-2.244,0.197-3.34-0.645
		c-7.498-5.764-16.685-4.799-23.001,2.345c-4.45,5.03-6.414,11.186-7.929,17.54c0,0.001,0,0.001,0,0.002
		C251.431,495.238,251.428,495.237,252.295,493.795z"/>
	<path fill="#F5C469" d="M435.105,234.598c0.001-0.002,0.001-0.005,0.002-0.007c1.787,2.599,3.401,5.032,5.119,7.389
		c0.589,0.803,1.06,2.276,2.168,2.067c0.158-0.03,0.33-0.094,0.517-0.199c0.979-0.554,0.407-2.068,0.038-3.135
		c-2.606-7.537-2.248-15.229-1.186-22.951c0.167-1.206,0.137-2.916,1.492-3.164c0.001,0,0.002-0.001,0.003-0.001
		c1.747-0.316,1.962,1.73,2.45,2.794c1.086,2.362,2.121,4.617,4.906,6.171c0.001,0,0.002,0.001,0.003,0.002
		c-0.095-1.297-0.204-2.146-0.21-2.996c-0.072-9.31-1.032-18.776,4.848-27.029c1.316-1.848,1.962-4.016,2.571-6.179
		c0.001-0.001,0.001-0.002,0.001-0.002c-5.968,1.562-9.426,6.371-12.957,10.707c-10.539,12.936-14.512,28.349-15.553,44.645
		c-0.258,3.993,0.933,7.835,3.466,11.107c2.245,2.501,4.567,4.901,8.128,6.44c0.002,0,0.003,0.001,0.005,0.002
		C434.862,247.576,433.453,241.404,435.105,234.598z"/>
	<path fill="#F5C469" d="M130.906,474.288c-2.154-0.037-2.725,0.536-1.912,2.531c0.938,2.298,1.795,4.632,2.678,6.938
		c1.88,0.852,3.777-0.06,5.672-0.045c14.201,0.115,28.404,0.082,42.606,0.09c1.121,0,2.253,0.055,3.36-0.084
		c3.843-0.47,5.26-3.427,3.249-6.699c-0.455-0.738-0.959-1.448-1.44-2.177C167.054,474.072,148.976,474.603,130.906,474.288z"/>
	<path fill="#F5C469" d="M96.395,557.154c7.119-0.017,14.238-0.005,21.357-0.005c0-0.006,0-0.013,0.002-0.021
		c7.119,0,14.238,0.016,21.357-0.007c3.004-0.011,5.576-0.868,5.935-4.34c0.247-2.39-2.776-5.088-5.799-5.077
		c-14.487,0.048-28.972,0.21-43.458,0.354c-1.364,0.017-2.67,0.104-3.649,1.416c-1.071,1.438-1.453,2.831-0.755,4.518
		C92.318,556.243,94.039,557.159,96.395,557.154z"/>
	<path fill="#F5C469" d="M111,532.547c0-0.01,0-0.02,0-0.031c6.242,0,12.484,0.032,18.725-0.012
		c3.711-0.023,5.875-1.753,6.033-4.654c0.142-2.604-2.489-4.953-5.874-4.962c-12.733-0.019-25.466,0.01-38.198,0.104
		c-3.481,0.025-5.59,1.954-5.578,4.717c0.012,3.004,2.128,4.811,5.793,4.829C98.267,532.568,104.633,532.547,111,532.547z"/>
	<path fill="#F5C469" d="M473.136,384.891c1.841-4.704,4.019-8.983,8.526-10.914c1.041-0.446,2.207-0.767,3.522-0.938
		c1.019-0.473,2.417,0.107,3.328-1.053c-2.412-2.2-5.104-2.717-8.072-2.399c-5.621,0.602-8.856,4.141-10.905,8.989
		c-1.836,4.34-2.604,9.145-5.406,13.06c-5.531,7.729-14.552,14.021-24.445,3.608c-0.34-0.36-0.769-0.626-1.157-0.938
		c-0.367,4.852,2.374,7.974,6.158,10.154c2.989,1.723,6.118,2.112,9.131,1.331c1.37-0.356,2.718-0.954,4.017-1.78
		C465.069,399.414,470.032,392.834,473.136,384.891z"/>
	<path fill="#F5C469" d="M101.333,454.739c0.09-3.173-1.7-4.962-4.751-5.007c-8.489-0.127-16.981-0.096-25.471-0.037
		c-2.755,0.019-4.519,1.338-4.298,4.354c0.216,2.947,1.6,4.911,4.823,4.94c4.122,0.037,8.244,0.009,12.366,0.011
		c4.122,0.003,8.244-0.006,12.365,0.006C99.264,459.011,101.244,457.885,101.333,454.739z"/>
	<path fill="#F5C469" d="M356.472,407.319c0.825,0.664,1.642,1.351,2.448,2.06c0.002,0.002,0.005,0.004,0.007,0.006
		c0.231,0.203,0.711,0.124,1.077,0.176c0.001,0,0.003,0,0.005,0c0.024-0.479,0.255-1.091,0.045-1.412
		c-7.584-11.537-16.271-21.59-31.342-22.896c-7.791,0.393-12.953,2.209-14.976,5.309c-0.001,0.001-0.002,0.002-0.003,0.004
		C329.567,392.36,344.064,397.333,356.472,407.319z"/>
	<path fill="#F5C469" d="M70.952,433.328c7.228,0.259,14.477,0.152,21.71-0.054c2.748-0.077,5.245-1.272,5.432-4.526
		c0.153-2.664-2.669-4.936-5.918-4.994c-3.372-0.062-6.745-0.014-10.117-0.014c0,0.035,0,0.07,0,0.105
		c-3.746,0-7.495-0.094-11.237,0.03c-2.76,0.091-3.921,1.924-3.878,4.487C66.989,430.993,68.378,433.236,70.952,433.328z"/>
	<path fill="#FC8119" d="M700.348,420.54c1.877-1.715,1.185-4.93-1.255-5.854c-0.228-0.086-0.476-0.133-0.716-0.187
		c-0.064-0.014-0.13-0.027-0.192-0.044c-0.078-0.021-0.151-0.046-0.225-0.072c-0.02-0.007-0.04-0.011-0.06-0.019
		c-0.363-0.146-0.641-0.407-0.681-1.019c0.001,0,0.001,0,0.001,0c-6.479-0.65-12.976-0.079-19.465-0.193
		c-3.117-0.06-5.008,0.914-5.091,4.398c-0.083,3.492,1.997,4.74,4.904,4.774c6.983,0.082,13.976-0.076,20.963-0.14
		c0.021-0.13,0.056-0.245,0.102-0.348C698.956,421.122,699.823,421.02,700.348,420.54z"/>
	<path fill="#FC8119" d="M97.842,272.175c6.084,0.04,12.169,0.129,18.25,0.027c4.772-0.081,6.355-2.867,4.464-7.5
		c-5.949-2.497-12.209-0.999-18.321-1.405c-2.342-0.156-4.7-0.085-7.05-0.118c-2.344,1.138-3.716,2.841-2.884,5.565
		C93.125,271.444,95.321,272.159,97.842,272.175z"/>
	<path fill="#F5C469" d="M490.976,536.587c0.526-0.041,1.172-0.404,2.107-1.048c0.413-0.284,0.879-0.619,1.422-1.011
		c1.111-0.806,2.179-1.666,3.294-2.463c0.636-0.455,1.276-0.888,1.921-1.307c8.159-5.306,16.953-7.665,26.662-5.755
		c0.698,0.137,1.401,0.297,2.109,0.479c0.835-1.875-0.588-2.771-1.702-3.701c-4.362-3.643-9.396-4.324-14.771-3.089
		c-9.595,2.206-17.099,7.862-23.909,14.637c0.313,0.552,0.583,1.024,0.828,1.432C489.72,536.063,490.233,536.645,490.976,536.587z"
		/>
	<path fill="#F5C469" d="M685.85,360.039c0-0.011,0-0.023,0-0.035c-2.745,0-5.491-0.052-8.236,0.015
		c-2.919,0.072-4.762,1.496-4.817,4.546c-0.054,3.116,1.625,5.03,4.722,5.119c5.364,0.155,10.737,0.103,16.104-0.002
		c3-0.06,4.58-1.935,4.646-4.798c0.071-2.94-1.579-4.681-4.556-4.82C691.098,359.942,688.471,360.039,685.85,360.039z"/>
	<path fill="#F5C469" d="M612.167,586.344c-2.244-0.035-4.487-0.006-6.729-0.011c-2.369-0.004-4.736,0.019-7.104-0.01
		c-2.945-0.035-4.413,1.691-4.62,4.333c-0.212,2.694,1.141,4.6,4.011,4.877c4.97,0.479,9.954,0.509,14.931,0.177
		c2.641-0.177,4.119-1.779,3.971-4.462C616.475,588.5,615.367,586.396,612.167,586.344z"/>
	<path fill="#F5C469" d="M558.45,420.526c-1.129-9.479-10.318-15.727-19.979-13.643c-8.798,1.899-15.367,7.245-21.11,13.832
		c1.739,1.74,2.911,0.049,4.178-0.742c6.021-3.76,12.027-7.548,19.521-7.415c8.76,0.155,15.685,5.644,16.113,12.76
		C559.369,424.203,558.648,422.176,558.45,420.526z"/>
	<path fill="#F5C469" d="M666.761,275.116c2.765-0.21,4.49-2.326,4.329-5.188c-0.159-2.76-2.054-4.155-4.767-4.271
		c-2.116-0.09-4.235-0.018-6.353-0.018c0,0.018,0,0.036,0.003,0.055c-2.242,0-4.489-0.098-6.724,0.025
		c-2.479,0.139-4.375,1.151-4.354,4.02c0.022,2.767,1.193,5.173,4.058,5.395C657.533,275.488,662.179,275.462,666.761,275.116z"/>
	<path fill="#FC8119" d="M678.127,396.718c4.97,0.086,9.943,0.023,14.915,0.017c2.89-0.008,4.5-1.687,4.521-4.351
		c0.021-2.575-1.386-4.536-4.275-4.661c-2.604-0.115-5.217-0.024-7.825-0.024c0-0.034,0-0.068-0.001-0.105
		c-2.36,0-4.728,0.106-7.082-0.022c-3.335-0.184-4.993,1.721-5.08,4.617C673.213,395.082,675.246,396.669,678.127,396.718z"/>
	<path fill="#F5C469" d="M656.575,248.873c2.757-0.069,4.483-1.627,4.478-4.472c-0.006-2.865-1.473-4.769-4.471-5.003
		c-1.986-0.155-3.994-0.029-5.993-0.029c0,0.025,0,0.049,0,0.071c-2.248,0-4.509-0.139-6.743,0.036
		c-2.683,0.211-4.56,1.712-4.537,4.512c0.026,2.768,1.372,4.798,4.524,4.839C648.08,248.881,652.331,248.98,656.575,248.873z"/>
	<path fill="#FC8119" d="M670.278,338.654c-0.009,2.39,1.227,4.317,4.067,4.365c1.985,0.034,3.976,0.007,5.959,0.007
		c0,0.036,0,0.071,0,0.106c1.986,0,3.978,0.089,5.956-0.023c2.491-0.14,4.388-1.195,4.431-3.996c0.044-2.844-1.45-4.95-4.256-5.175
		c-4.068-0.327-8.202-0.313-12.275,0.001C671.653,334.132,670.282,336.309,670.278,338.654z"/>
	<path fill="#FC8119" d="M152.038,624.783c1.835,0.025,2.624-0.463,2.643-2.08c0.003-0.231-0.01-0.486-0.038-0.766
		c-0.127-1.275-0.62-2.739-0.277-3.991c0.205-0.751,0.71-1.426,1.776-1.938c-5.587-0.079-11.174-0.232-16.76-0.198
		c-2.507,0.017-4.808,0.966-5.28,3.729c-0.371,2.167-0.422,4.591,2.633,5.229C141.836,624.764,146.937,624.707,152.038,624.783z"/>
	<path fill="#FC8119" d="M684.709,458.689c-0.12-2.732-1.241-4.896-4.372-4.968c-3.618-0.083-7.241-0.052-10.851,0.097
		c-2.694,0.108-4.036,1.848-4.085,4.407c-0.052,2.533,1.057,4.38,3.881,4.505c1.989,0.089,3.987,0.018,5.983,0.018
		c0,0.036,0,0.072,0.004,0.109c1.745,0,3.493,0.059,5.236-0.019C683.119,462.725,684.831,461.485,684.709,458.689z"/>
	<path fill="#FC8119" d="M507.527,544.885c9.811,1.241,18.67-0.061,27.178-4.692C528.327,535.233,515.693,537.364,507.527,544.885z"
		/>
	<path fill="#F5C469" d="M429.632,313.655c2.518,0.829,5.045,1.684,8.124,1.385c0,0,0,0,0-0.001
		c-2.308-4.579-6.862-7.216-8.207-11.993c-1.461-1.633-2.924-3.266-4.541-5.072c-3.791,7.905-3.313,11.976,1.664,17.53l0,0
		C426.749,313.429,427.82,313.057,429.632,313.655z"/>
	<path fill="#FC8119" d="M441.935,522.658c0.781,0.332,1.435-0.228,2.005-0.695c3.088-2.532,6.858-3.725,10.489-5.063
		c2.079-0.766,2.25-1.94,1.563-3.36c-0.829-1.703-0.72-4.575-3.827-4.164c-4.136,0.547-10.293,7.116-10.721,11.313
		C441.389,521.406,441.022,522.273,441.935,522.658z"/>
	<path fill="#F5C469" d="M609.842,614.269c-3.281,0.003-5.785,2.384-5.84,5.554c-0.051,2.959,3.035,5.766,6.21,5.649
		c3.303-0.121,5.606-2.526,5.532-5.784C615.672,616.549,613.188,614.268,609.842,614.269z"/>
	<path fill="#F5C469" d="M665.618,291.379c-3.275-0.005-5.715,2.329-5.784,5.532c-0.07,3.182,2.619,5.852,5.942,5.903
		c3.422,0.053,6.199-2.441,6.253-5.608C672.083,293.878,669.339,291.385,665.618,291.379z"/>
	<path fill="#F5C469" d="M443.15,276.085c0.252-0.011,0.507-0.034,0.766-0.069c-0.775-2.704-3.843-3.546-4.95-5.878
		c-0.15-0.317-0.262-0.664-0.329-1.044c-0.01,0.031-0.011,0.052-0.021,0.084c-0.823-0.214-1.342-0.783-1.737-1.495
		c-2.608-2.937-5.824-5.23-8.538-9.09c0.012,8.369,0.618,10.272,4.344,14.642C436.246,273.815,439.366,276.249,443.15,276.085z"/>
	<path fill="#FC8119" d="M444.118,504.508c1.964-1.016,5.138-1.466,8.268-2.106c0.583-0.12,1.299-0.648,1.116-1.3
		c-0.592-2.111-0.561-4.7-2.293-6.101c-1.859-1.503-3.846,0.031-5.36,1.249c-2.157,1.739-3.667,3.998-4.172,6.842
		C441.449,504.371,441.573,505.108,444.118,504.508z"/>
	<path fill="#F5C469" d="M442.719,295.221c-2.654-3.579-6.861-5.362-7.563-9.759c-2.923-1.294-4.07-4.61-7.246-6.647
		c0.446,4.071-1.163,7.71,1.458,10.9c0.001,0,0.001,0.001,0.002,0.001C433.452,291.961,437.067,295.361,442.719,295.221
		C442.72,295.222,442.719,295.222,442.719,295.221z"/>
	<path fill="#F5C469" d="M576.232,623.467c-0.818,0.386-1.559,1.311-2.541,0.417c-1.146-1.036-2.666-1.899-2.62-3.729
		c0.017-0.815,0.75-0.926,1.355-0.614c0.108,0.055,0.222,0.103,0.34,0.146c1.652,0.602,4.151,0.192,4.121,2.852
		c-0.002,0.189-0.017,0.394-0.046,0.615c0.679,0.083,1.073,0.407,1.224,0.938c0.028,0.101,0.028,0.225,0.039,0.34
		c0.009,0.086,0.031,0.16,0.03,0.255l0,0v0.003c2.116-0.856,3.234-2.355,3-4.711c-0.79,0.477-1.938,1.9-2.387,1.03
		c-1.053-2.044-4.009-2.017-4.414-4.218c-0.024-0.135-0.019-0.24-0.012-0.345c0.068-0.965,1.403-0.709,2.246-0.69
		c1.959,0.044,2.555,2.38,4.392,2.637c-1.646-3.6-4.601-5.031-7.641-3.713c-2.501,1.087-4.135,4.415-3.325,6.784
		c1.161,3.405,4.164,4.592,8.14,3.225c-0.812-0.106-1.357-0.495-1.462-1.361l0,0C576.521,623.347,576.376,623.399,576.232,623.467z"
		/>
	<path fill="#F5C469" d="M529.091,154.432c4.955-1.134,10.016-1.636,15.808-1.521c-6.469-4.794-15.737-5.132-22.623-1.014
		C524.743,152.737,526.114,155.114,529.091,154.432z"/>
	<path fill="#FC8119" d="M660.372,641.822c-2.445,0.063-3.927,1.49-3.89,4.051c0.039,2.742,1.978,3.447,4.166,3.719
		c0.288-0.044,0.567-0.097,0.838-0.158c1.058-1.105,2.108-2.217,3.153-3.335c0.001-0.169,0.016-0.326-0.002-0.512
		C664.399,643.108,662.778,641.759,660.372,641.822z"/>
	<path fill="#F5C469" d="M203.711,461.301c-25.018,0.002-50.036-0.004-75.055,0.066c-2.069,0.005-3.893-0.342-5.547-1.563
		c0.303,3.048,2.72,2.048,4.324,2.05c26.764,0.03,53.529-0.024,80.293-0.061C206.461,461.029,205.062,461.301,203.711,461.301z"/>
	<path fill="#F5C469" d="M78.001,406.151c2.244,0.295,4.692-2.142,4.537-4.438c-0.177-2.625-2.017-3.462-4.485-3.688
		c-2.266,0.188-3.987,1.363-3.951,3.857C74.136,404.213,75.623,405.835,78.001,406.151z"/>
	<path fill="#F5C469" d="M682.951,564.111c-2.396,0.009-4.122,1.263-3.992,3.903c0.127,2.567,1.582,4.088,4.504,4.319
		c2.108-0.35,3.855-1.451,3.777-4.017C687.161,565.717,685.584,564.096,682.951,564.111z"/>
	<path fill="#F5C469" d="M587.913,278.288c2.524,0.344,2.331-1.515,2.332-3.643c-0.507-2.038-0.308-5.007-2.888-6.486
		c-0.913-0.523-5.416,6.116-4.928,7.797C583.212,278.642,585.883,278.011,587.913,278.288z"/>
	<path fill="#FC8119" d="M699.295,300.659c2.338-0.064,3.453-1.551,3.399-3.813c-0.058-2.444-1.826-3.463-3.989-3.445
		c-2.305,0.019-3.645,1.389-3.501,3.785C695.346,299.592,696.839,300.621,699.295,300.659z"/>
	<path fill="#FC8119" d="M100.682,617.355c-2.117,0.115-4.016,1.065-3.8,3.604c0.191,2.239,1.714,3.647,3.98,3.658
		c2.453,0.008,3.21-1.888,3.688-3.85C104.04,618.627,102.826,617.238,100.682,617.355z"/>
	<path fill="#F5C469" d="M698.581,489.086c-2.535,0.006-3.985,1.522-4.004,3.968c-0.021,2.561,1.757,3.881,4.112,3.88
		c2.411-0.001,3.886-1.438,3.991-3.978C702.518,490.361,701.049,489.081,698.581,489.086z"/>
	<path fill="#F5C469" d="M549.64,240.298c-2.416,1.073-6.3-0.917-7.261,2.417c-0.531,1.833,0.659,4.78,3.11,5.808
		c1.482,0.622,5.121-4.362,5.313-7.02C550.846,240.707,550.58,239.878,549.64,240.298z"/>
	<path fill="#F5C469" d="M568.693,243.036c1.168-1.912,2.907-3.835,1.709-6.41c-0.064-0.141-0.69-0.019-0.821-0.019
		c-2.169,0.474-4.101,0.914-6.04,1.314c-1.557,0.321-1.762,1.161-0.932,2.37c0.841,1.221,1.669,2.463,2.625,3.592
		C566.852,245.799,568.028,244.124,568.693,243.036z"/>
	<path fill="#F5C469" d="M72.593,489.332c-2.131-0.068-3.539,1.205-3.658,3.26c-0.134,2.313,1.147,4.293,3.613,4.361
		c2.348,0.064,3.917-1.429,4.021-3.986C76.678,490.311,74.844,489.669,72.593,489.332z M74.756,494.359
		c-0.47,0.663-1.126,1.125-2.106,1.086c-0.011,0-0.02,0.003-0.031,0.002l0,0h-0.001c-1.428-0.07-2.201-1.356-2.235-2.529
		c-0.047-1.633,1.414-1.729,2.684-1.692c0.002,0,0.004,0,0.007,0c0.314,0.009,0.617,0.038,0.897,0.102
		c0.767,0.173,1.349,0.62,1.433,1.761C75.232,493.54,75.024,493.981,74.756,494.359z"/>
	<path fill="#F5C469" d="M553.443,261.545c-0.801-0.26-5.71,5.058-5.372,5.763c1.109,2.314,3.622,2.57,5.603,2.609
		c2.685,0.053,0.683-2.51,1.482-3.631C554.581,264.609,555.881,262.343,553.443,261.545z"/>
	<path fill="#F5C469" d="M585.731,239.846c3.046-0.288,3.01-3.968,3.729-6.485c0.301-1.064-0.212-1.858-1.348-1.46
		c-2.205,0.771-4.838,0.576-6.651,2.551C582.545,236.805,583.453,240.061,585.731,239.846z"/>
	<path fill="#F5C469" d="M570.315,267.261c-1.041-0.286-5.387,4.39-5.067,5.472c0.762,2.581,3.359,2.069,5.18,2.398
		c2.995,0.539,1.279-2.121,1.892-3.286C571.818,270.204,572.72,267.921,570.315,267.261z"/>
	<path fill="#F5C469" d="M607.067,228.32c0.118-0.846,0.495-1.918-1.035-2.126c-1.126-0.153-6.936,2.508-6.655,3.001
		c1.077,1.897,2.161,4.645,4.295,4.616C606.504,233.773,606.553,230.679,607.067,228.32z"/>
	<path fill="#FC8119" d="M448.1,486.347c1.49-2.132-1.267-3.474-2.418-5.276c0.037,2.49-3.847,3.504-2.319,5.936
		C443.744,487.618,447.44,487.295,448.1,486.347z"/>
	<path fill="#F5C469" d="M522.154,242.663c0.43,1.904,0.857,3.655,1.211,5.422c0.277,1.401,1.058,2.113,2.299,1.238
		c2.125-1.499,4.125-3.2,4.465-6.538C527.285,243.642,524.817,242.274,522.154,242.663z"/>
	<path fill="#F5C469" d="M531.384,261.625c0.028,1.639,3.686,3.065,4.863,2.391c2.539-1.456,0.887-4.336,0.741-7.533
		C534.46,258.262,531.337,259.025,531.384,261.625z"/>
	<path fill="#F5C469" d="M697.222,413.346c0,0-0.001,0-0.002,0c0.04,0.611,0.317,0.873,0.681,1.019
		c0.02,0.008,0.04,0.012,0.06,0.019c0.073,0.026,0.146,0.052,0.225,0.072c0.063,0.017,0.128,0.03,0.192,0.044
		c0.24,0.054,0.488,0.101,0.716,0.187c2.439,0.925,3.132,4.14,1.255,5.854c-0.524,0.479-1.392,0.582-1.714,1.298
		c-0.046,0.103-0.08,0.218-0.102,0.348c3.469,0.348,4.769-1.716,4.794-4.693C703.355,414.647,700.921,413.124,697.222,413.346z"/>
	<path fill="#F5C469" d="M654.848,405.606c1.192-10.675,0.588-21.353,0.018-32.044C654.858,384.231,654.852,394.918,654.848,405.606
		z"/>
	<path fill="#F5C469" d="M114.321,262.494c-6.371,0.5-12.803-0.805-19.135,0.684c2.35,0.033,4.707-0.038,7.05,0.118
		c6.111,0.407,12.372-1.091,18.32,1.406C119.083,262.264,116.662,262.311,114.321,262.494z"/>
	<path fill="#F5C469" d="M502.656,560.445c0,0-0.107-0.006-0.111-0.004S502.656,560.445,502.656,560.445z"/>
	<polygon fill="#FC8119" points="116.767,350.395 116.767,350.395 116.659,350.294 116.763,350.428 116.764,350.429 	"/>
	<path fill="#F5C469" d="M610.398,297.52c0.429-0.213,0.625-0.605,0.648-1.13c-0.543,0.207-0.889,0.568-0.949,1.146
		c-0.004,0.039-0.019,0.07-0.02,0.111C610.203,297.618,610.301,297.568,610.398,297.52z"/>
	<path fill="#FC8119" d="M438.615,269.178c0.011-0.032,0.012-0.053,0.021-0.084c0.367-1.163,0.007-1.479-0.599-1.512
		c-0.342-0.019-0.756,0.047-1.16,0.101C437.273,268.395,437.792,268.964,438.615,269.178z"/>
	<path fill="#013F54" d="M449.173,626.319c-1.87-0.077-3.747-0.017-5.621-0.017c0,0.012,0,0.024,0.003,0.039
		c-2.124,0-4.254-0.106-6.37,0.023c-3.632,0.224-5.653,2.312-5.969,5.954c-0.319,3.708,1.106,6.002,4.79,6.754
		c4.81,0.981,9.729,0.689,14.534-0.025c3.488-0.52,5.476-3.78,5.067-7.186C455.213,628.63,452.738,626.459,449.173,626.319z"/>
	<path fill="#013F54" d="M476.456,189.085c0.005,0.07,0.005,0.139,0.011,0.209c0.025,0.29,0.061,0.582,0.101,0.873
		c0.006,0.045,0.009,0.091,0.016,0.137c0.025,0.174,0.061,0.35,0.092,0.524c0.028,0.164,0.052,0.327,0.086,0.491
		c0.034,0.17,0.08,0.341,0.12,0.512c0.04,0.168,0.074,0.336,0.12,0.504c0.047,0.175,0.104,0.351,0.157,0.526
		c0.05,0.165,0.094,0.329,0.148,0.494c0.028,0.087,0.064,0.174,0.095,0.262c0.088,0.252,0.176,0.505,0.276,0.757
		c0.021,0.053,0.047,0.106,0.069,0.159c0.117,0.287,0.237,0.573,0.371,0.859c0.646,1.385,1.401,2.721,2.141,4.064
		c0.205,0.373,0.409,0.745,0.609,1.12c0,0,0.001,0.001,0.001,0.001c0.625,0.524,1.231,1.017,1.823,1.479
		c5.787,4.529,10.096,6.152,15.456,5.169c2.853-0.524,5.999-1.776,9.834-3.743c-0.001,0.001-0.001,0.002-0.002,0.003l0.001,0
		c0.001-0.001,0.003-0.001,0.004-0.002c7.212-5.989,9.501-13.791,6.813-22.458c-0.386-1.244-0.921-2.422-1.579-3.526
		c-4.612-7.721-15.304-11.742-23.431-8.363c-5.568,2.314-10.166,6.902-12.223,12.402
		C476.676,183.919,476.266,186.472,476.456,189.085z M495.012,182.019c3.021-0.03,4.82,1.221,5.216,3.628
		c0.057,0.344,0.084,0.711,0.083,1.102c-0.006,2.721-2.19,4.878-4.967,4.905c-2.748,0.028-4.881-2.14-4.847-4.98
		C490.532,183.718,491.916,182.048,495.012,182.019z"/>
	<path fill="#013F54" d="M582.109,192.819c0.221-0.021,0.459-0.057,0.716-0.109c1.288-0.26,1.743,1.234,2.426,2.072
		c1.409,1.728,2.697,3.559,4.155,5.243c0.975,1.125,2.152,1.723,3.413,1.77c0.757,0.028,1.544-0.143,2.334-0.517
		c1.969-0.93,2.813-2.739,2.705-4.736c0.063-4.941-3.799-10.519-8.501-12.584c-0.313-0.138-0.631-0.26-0.951-0.365
		c-1.873-0.616-3.743-1.408-5.831-0.777c-2.783,0.841-3.777,2.927-3.381,5.474C579.479,190.131,578.803,193.135,582.109,192.819z"/>
	<path fill="#F5C469" d="M507.98,203.485c0.001-0.001,0.001-0.002,0.002-0.003c-3.835,1.967-6.981,3.219-9.834,3.743
		c-5.36,0.983-9.668-0.64-15.456-5.169c-0.592-0.463-1.198-0.956-1.823-1.479c-0.831,1.403-1.424,2.733-1.057,3.955
		c0.228,0.757,0.822,1.472,1.963,2.135c4.399,2.554,9.054,4.268,14.144,3.526c1.987-0.29,3.97-0.664,5.793-1.35
		C504.258,207.885,506.491,206.315,507.98,203.485z"/>
	
		<line fill="none" stroke="#F5C469" stroke-width="0" stroke-linecap="round" stroke-linejoin="round" x1="251.261" y1="378.757" x2="251.239" y2="378.734"/>
	<path fill="#013F54" d="M454.332,353.867c0.066-0.039,0.134-0.077,0.2-0.115c0,0-0.14-0.028-0.132-0.026
		c-0.001,0.002-0.002,0.004-0.003,0.007c-0.018,0.045-0.04,0.088-0.064,0.131C454.333,353.864,454.333,353.866,454.332,353.867z"/>
	<path fill="#F5C469" d="M156.341,319.006c0.065,0.083,0.235,0.054,0.537-0.114c-0.002-0.002-0.004-0.004-0.006-0.006
		c-0.144-0.143-0.291-0.283-0.44-0.416C156.313,318.742,156.278,318.926,156.341,319.006z"/>
	<path fill="#FC8119" d="M576.672,623.324c0,0.001,0.17-0.172,0.17-0.172l0,0c0.029-0.222,0.044-0.426,0.046-0.615
		c0.03-2.656-2.469-2.25-4.121-2.852c-0.118-0.043-0.231-0.091-0.34-0.146c-0.605-0.309-1.336-0.201-1.355,0.614
		c-0.046,1.83,1.474,2.693,2.62,3.729c0.982,0.891,1.722-0.032,2.541-0.417C576.376,623.399,576.521,623.347,576.672,623.324
		L576.672,623.324L576.672,623.324C576.672,623.324,576.672,623.324,576.672,623.324z"/>
	<path fill="#FC8119" d="M578.748,621.007c0.449,0.87,1.597-0.554,2.387-1.03c-0.059-0.529-0.117-1.059-0.175-1.582
		c-1.837-0.258-2.433-2.594-4.392-2.638c-0.839-0.02-2.176-0.274-2.246,0.688c-0.007,0.104-0.013,0.21,0.012,0.345
		C574.739,618.99,577.695,618.963,578.748,621.007z"/>
	<path fill="#FC8119" d="M578.104,624.43c-0.011-0.115-0.011-0.239-0.039-0.34c-0.15-0.53-0.545-0.854-1.224-0.938l0,0
		c0,0-0.17,0.173-0.17,0.172c0,0,0,0,0,0.001c0.105,0.866,0.65,1.255,1.462,1.359c0,0,0,0,0.001,0l0,0
		C578.136,624.59,578.113,624.516,578.104,624.43z"/>
	<path fill="#FC8119" d="M73.97,491.327c-0.28-0.063-0.583-0.093-0.898-0.102c-0.002,0-0.004,0-0.005,0
		c-1.27-0.036-2.73,0.06-2.684,1.692c0.034,1.173,0.807,2.459,2.235,2.529h0.001c0.011,0,0.02-0.002,0.031-0.002
		c0.979,0.039,1.636-0.423,2.106-1.086c0.268-0.378,0.477-0.819,0.647-1.271C75.319,491.947,74.737,491.5,73.97,491.327z"/>
	<path fill="#F5C469" d="M495.344,191.654c2.776-0.027,4.961-2.184,4.967-4.905c0.001-0.391-0.026-0.758-0.083-1.102
		c-0.396-2.407-2.195-3.657-5.216-3.628c-3.096,0.029-4.479,1.699-4.515,4.655C490.463,189.514,492.596,191.682,495.344,191.654z"/>
</g>
</svg>
