<?xml version="1.0" encoding="utf-8"?>
<!-- Generator: Adobe Illustrator 16.0.3, SVG Export Plug-In . SVG Version: 6.00 Build 0)  -->
<!DOCTYPE svg PUBLIC "-//W3C//DTD SVG 1.1//EN" "http://www.w3.org/Graphics/SVG/1.1/DTD/svg11.dtd">
<svg version="1.1" id="Layer_1" xmlns="http://www.w3.org/2000/svg" xmlns:xlink="http://www.w3.org/1999/xlink" x="0px" y="0px"
	 width="822.047px" height="822.047px" viewBox="0 0 822.047 822.047" enable-background="new 0 0 822.047 822.047"
	 xml:space="preserve">
<rect fill="#013F54" width="822.047" height="822.047"/>
<g>
	<g>
		<path fill="#FC8119" d="M403.396,678.279c0.513-0.5,1.024-1.001,1.642-1.602c-2.108-1.42-4.478-0.539-6.593-1.086
			c-0.82-0.215-1.894-0.039-2.061-1.172c-0.136-0.897,0.761-1.216,1.366-1.581c3.323-1.994,6.653-3.974,10.008-5.91
			c45.991-26.575,91.991-53.14,137.984-79.716c1.945-1.125,3.959-2.166,5.793-3.454c3.607-2.528,4.371-5.72,2.336-8.975
			c-2-3.198-4.619-3.69-8.755-1.3c-14.508,8.368-28.95,16.849-43.448,25.232c-41.55,24.02-83.18,47.902-124.599,72.146
			c-5.958,3.487-11.39,4.602-18.161,3.245c-19.433-3.885-38.581-8.606-56.926-16.225c-14.965-6.211-29.269-13.676-42.607-22.906
			c-3.24-2.242-3.091-2.549,0.392-4.541c17.794-10.166,35.591-20.328,53.366-30.525c1.289-0.738,2.584-1.582,3.603-2.641
			c2.441-2.535,2.667-6.414,0.465-8.83c-2.326-2.554-5.221-2.748-8.14-1.104c-5.443,3.067-10.814,6.261-16.224,9.384
			c-13.964,8.064-28.028,15.96-41.835,24.275c-4.346,2.617-7.941,4.425-11.638-0.518c2.055-0.2,3.24-1.938,4.889-2.874
			c12.355-7.001,24.642-14.131,36.943-21.227c0.971-0.56,1.979-1.08,2.868-1.754c3.091-2.326,2.842-5.595-0.535-7.423
			c-0.764-0.415-1.556-0.776-2.336-1.167c5.317-3.168,10.624-6.354,15.952-9.5c3.816-2.248,5.75-5.307,4.912-8.285
			c-1.106-3.915-4.193-4.853-7.812-4.819c-1.48-0.032-2.554,0.903-3.724,1.581c-21.666,12.51-43.336,25.015-64.967,37.584
			c-1.789,1.04-3.542,1.65-5.585,1.418c-4.757-4.334-9.064-9.019-13.101-14.088c-3.82-4.802-7.804-9.501-11.594-14.357
			c-9.536-12.231-17.339-25.521-24.706-39.112c-3.725-6.876-7.185-13.837-9.63-21.274c9.995-6.718,20.435-8.385,31.992-3.979
			c9.767,3.72,18.762,8.776,27.552,14.231c13.369,8.294,26.837,16.566,41.397,22.414c17.714,7.114,36.056,12.544,55.537,11.84
			c2.62-0.092,3.692,0.861,3.798,3.311c0.187,4.287,1.516,8.351,2.599,12.443c3.334,12.598,3.442,25.158-0.183,37.691
			c-2.65,9.162-3.056,17.95,3.67,25.754c-4.946,7.93,1.145,17.115,9.152,20.854c12.01,5.608,23.944,2.216,33.453-6.42
			c12.198-11.072,13.943-25.324,11.833-40.645c-1.273-9.229-3.253-18.362-3.726-27.696c-0.032-0.608,0.092-1.226,0.145-1.839
			c20.436-1.018,40.288-5.067,59.718-11.4c10.232-3.332,19.971-7.735,29.578-12.58c11.47-5.781,21.501-13.446,31.11-21.826
			c3.424-2.983,5.86-7.491,10.788-8.327c7.473-1.268,14.822-0.768,22.051,1.967c8.148,3.08,14.85,8.644,22.56,12.495
			c17.654,8.814,39.33,1.377,46.242-17.281c2.654-7.168,6.051-15.037-1.43-21.861c-0.394-0.36-0.431-1.11-0.638-1.679
			c0.253-0.399,0.506-0.798,0.755-1.19c-0.003,0.003,0.099-0.053,0.099-0.053c2.344-3.523,5.436-6.23,9.327-7.824
			c5.792-2.369,10.134-6.301,13.126-11.691c2.91-5.242,7.271-7.402,13.052-6.323c2.454,0.462,3.061-0.364,3.261-2.54
			c1.127-12.354-3.422-22.338-13.252-29.547c-10.803-7.917-22.637-8.213-34.604-2.66c-13.289,6.168-21.281,17.166-26.949,30.209
			c-0.58,1.333-0.799,2.899-2.016,3.918c-1.189,0.475-2.168,0.208-2.994-0.783c-1.91-2.297-3.936-4.506-5.751-6.875
			c-6.775-8.862-14.513-16.791-23.4-23.506c-5.462-4.126-5.487-3.85-3.53-10.363c0.786-2.615,2.027-3.329,4.571-2.944
			c2.955,0.45,5.938,0.534,8.923-0.155c17.107-3.933,27.967-15.697,30.604-33.131c0.348-2.293,0.11-5.109,2.138-6.582
			c4.219-3.075,4.887-7.209,4.442-11.885c13.081-2.516,19.276-9.321,18.688-21.936c-0.477-10.288-6.473-17.561-15.41-22.11
			c-11.609-5.912-22.616-3.591-33.025,3.487c3.238-1.967,2.081-4.155,0.408-6.539c-1.688-2.413-3.59-3.253-6.34-1.765
			c-3.646,1.971-6.092,5.195-8.434,8.374c-2.13,2.887-3.032,2.018-4.188-0.545c-2.314-5.105-4.486-10.295-7.12-15.234
			c-6.755-12.676-14.151-24.966-22.897-36.395c-1.236-1.611-2.424-3.146,0.431-4.34c12.308-5.148,24.519-10.516,36.429-16.554
			c13.716-6.956,25.985-15.243,31.953-30.466c1.452-3.701,0.782-6.179-1.398-8.846c-1.563-1.914-3.654-3.452-4.211-6.064
			l0.058,0.261c0,0-0.262,0.054-0.259,0.054c0.503-0.467,0.506-1,0.208-1.574c-0.19-2.951-0.183-5.935-0.616-8.854
			c-0.996-6.75-5.95-10.426-12.672-9.525c-0.926,0.12-1.643,0.211-2.394-0.457c-8.526-7.578-18.609-7.91-29.126-6.244
			c-0.486,0.076-0.994,0.016-1.889,0.02c3.404-4.002,7.488-7.141,9.46-11.941c0.292-0.719,1.589-1.139,2.503-1.468
			c3.292-1.175,5.717-3.47,6.604-6.677c0.931-3.361,2.592-2.633,4.587-1.55c9.253,5.024,18.214,10.52,26.979,16.354
			c14.128,9.402,27.108,20.25,38.885,32.401c12.756,13.172,24.615,27.152,34.214,42.866c5.328,9.244,10.669,18.502,16.008,27.758
			c5.526,9.967,9.602,20.551,13.35,31.272c3.082,8.816,5.942,17.69,8.045,26.813c5.48,23.755,7.884,47.726,6.186,72.118
			c-1.267,18.156-4.096,36.004-8.627,53.619c-5.96,23.162-14.744,45.217-25.719,66.429c-1.142,2.203-2.331,4.378-3.549,6.54
			c-2.309,4.111-5.438,7.241-9.707,9.517c-7.271,3.876-14.32,8.18-21.434,12.351c-5.481,3.217-6.217,7.938-1.521,12.094
			c2.102,1.865,1.48,2.777,0.123,4.482c-8.647,10.859-18.725,20.229-29.314,29.18c-16.502,13.952-34.469,25.614-53.854,34.996
			c-11.638,5.631-23.683,10.438-36.091,14.273c-8.441,2.611-16.882,5.104-25.671,6.146c-0.161-0.286-0.318-0.569-0.48-0.856
			c1.943-1.118,3.877-2.238,5.818-3.357c27.599-15.93,55.196-31.861,82.791-47.802c1.296-0.748,2.646-1.46,3.799-2.396
			c2.666-2.162,3.264-5.922,1.531-8.771c-1.706-2.803-5.352-3.894-8.521-2.464c-1.135,0.507-2.188,1.199-3.271,1.823
			c-39.408,22.724-78.816,45.451-118.227,68.159c-1.295,0.747-2.664,1.358-3.989,2.024c-1.702-1.113-2.72,0.505-3.921,1.1
			c-5.135,2.541-9.733,6.395-16.334,6.505C407.453,681.833,403.908,680.477,403.396,678.279z M580.729,587.983
			c0.009,0.013,0.014,0.021,0.021,0.032c-1.841,1.063-3.736,2.035-5.506,3.206c-3.033,2.009-3.736,4.827-2.191,8.142
			c1.574,3.37,3.959,4.643,7.525,3.451c4.654-1.557,8.769-4.268,12.572-7.287c2.763-2.194,2.857-6.011,0.796-8.756
			c-1.956-2.604-5.185-3.248-8.344-1.586C583.949,586.056,582.354,587.048,580.729,587.983z"/>
		<path fill="#FC8119" d="M142.548,443.617c-3.138-31.53-0.808-62.657,6.527-93.479c4.864-20.461,12.37-39.858,22.334-58.331
			c12.448-23.077,27.609-44.18,45.624-63.278c22.866-24.25,49.407-43.446,79.282-58.011c18.094-8.822,37.088-15.263,56.747-19.787
			c6.435-1.483,12.915-2.563,19.395-3.73c1.028-0.184,1.976-0.15,3.172,0.327c-1.116,2.357-3.069,4.051-4.545,6.08
			c-5.163,7.1-7.75,15.152-8.7,23.8c-0.064,0.601,0.16,1.254-0.483,1.682c-1.732,1.966-3.638,3.802-5.172,5.911
			c-10.023,13.803-12.615,29.752-11.898,46.154c0.813,18.621,6.753,35.938,16.204,52.032c4.428,7.543,8.872,15.086,13.067,22.761
			c3.999,7.309,5.377,15.297,4.806,23.546c-1.014,14.71-8.702,26.376-17.803,37.188c-8.45,10.04-17.875,19.132-27.777,27.79
			c-16.932,14.807-35.415,26.768-57.066,33.412c-11.176,3.428-22.553,5.196-34.305,4.714c-13.453-0.55-26.812-2.256-40.294-2.592
			c-15.999-0.393-31.293,2.1-45.972,8.483C151.357,440.174,146.93,441.847,142.548,443.617z"/>
	</g>
	<g>
		<path fill="#FC8119" d="M415.4,335.916c0.047-0.112,0.059-0.27,0.143-0.336c3.837-3.082,3.799-3.005-0.687-5.378
			c-1.472-0.778-3.288-1.229-4.146-2.938c-0.968-1.836-0.228-2.693,1.64-3.085c2.594-0.539,5.214-1.06,7.729-2.858
			c-4.289-2.813-9.551-2.818-13.104-6.284c0.704-1.142,1.979-0.841,3-1.155c0.939-0.293,1.929-0.43,2.897-0.633
			c-3.323-2.11-6.718-4.121-9.94-6.377c-1.135-0.795-2.578-1.594-2.779-3.292c4.662-0.097,9.488,1.042,14.318-1.905
			c-4.09-1.773-8.625-1.214-11.432-4.671c1.022-0.427,2.041-0.852,3.287-1.372c-3.436-3.27-8.473-4.256-11.543-7.98
			c3.602-1.363,7.821-0.65,11.117-3.205c-2.313-2.234-6.002-0.865-8.073-3.398c-4.122-3.547-9.871-5.077-12.669-10.26
			c3.196,1.043,6.406,1.964,10.266,1.514c-11.59-7.96-15.896-12.602-17.867-19.325c2.85,1.355,5.464,2.656,8.13,3.839
			c1.04,0.456,2.385,1.752,3.259,0.275c0.572-0.969-0.682-1.993-1.532-2.732c-6.026-5.225-9.564-12.066-12.503-19.288
			c-0.461-1.126-1.343-2.593-0.289-3.487c1.355-1.145,2.563,0.519,3.519,1.196c2.122,1.503,4.147,2.939,7.34,2.892
			c-0.733-1.076-1.252-1.756-1.681-2.489c-4.718-8.027-10.281-15.743-9.318-25.831c0.216-2.262-0.31-4.461-0.86-6.639
			c2.433-0.037,4.828,0.074,6.866,1.679c1.921-0.31,1.786-1.522,1.614-3.071c-0.293-2.622-1.344-5.019-1.916-7.539
			c-4.839-21.441,12.857-40.176,34.536-36.234c4.018,0.728,6.447-0.157,9.23-2.786c6.484-6.122,9.221-5.723,14.824,1.04
			c1.485,1.788,2.428,4.243,4.908,5.185c0.684-1.23,0.152-2.158-0.077-3.108c-2.938-12.26-1.719-14.596,10.054-19.229
			c0.463-0.184,0.943-0.33,1.421-0.473c4.681-1.382,4.927-1.192,5.708,3.668c0.925,5.75,2.674,11.212,5.863,16.189
			c-0.59-5.236-0.508-10.434-0.756-15.619c-0.153-3.242,2.84-9.354,5.832-10.521c10.115-3.947,20.118-5.066,29.487,2.032
			c0.972,0.733,2.351,1.593,2.909,0.501c2.217-4.339,5.424-2.103,8.266-1.429c4.166,0.986,9.667,7.128,10.02,10.81
			c-3.638,5.986-8.624,10.877-13.199,16.087c-8.936,10.182-18.553,19.774-28.906,28.437c-10.179,8.514-20.382,17.123-31.754,24.133
			c-4.236,2.609-8.242,5.625-12.432,8.256c-8.635,5.422-17.71,10.171-27.811,12.429c-3.628,0.813-6.756,2.652-9.668,4.755
			c-3.475,2.513-3.515,7.08-0.457,10.888c1.322,1.646,2.643,3.298,3.957,4.949c-0.195,1.505-1.832,3.194-0.072,4.45
			c1.441,1.027,2.773-0.516,4.075-1.136c3.493-1.666,6.974-3.384,10.741-4.354c11.787-3.041,23.951-3.299,35.951-4.716
			c12.635-1.493,25.247-3.028,37.639-5.986c12.962-3.097,25.886-6.374,38.504-10.694c2.502-0.858,5.562-1.445,6.55-4.658
			c2.94-1.352,5.869-2.719,8.827-4.032c0.635-0.281,1.426-0.783,2.02,0.019c0.533,0.709,0.061,1.531-0.239,2.123
			c-2.9,5.732-6.735,10.82-12.142,14.313c-13.668,8.829-28.377,15.685-43.229,22.259c-11.407,5.049-23.062,9.373-35.081,12.697
			c-11.615,3.215-23.205,3.909-34.59-0.936c-3.4-1.447-6.646-3.259-9.383-5.823c-0.713-0.667-1.331-1.63-2.516-1.226
			c-1.344,0.459-1.37,1.76-1.402,2.824c-0.07,2.215,0.144,4.335,1.15,6.481c5.317,11.336,15.164,16.212,26.504,19.212
			c5.621,1.488,11.338,0.732,17.883,1.016c-6.233,7.947-14.809,9.016-23.142,10.792c4.173,2.207,14.854,2.981,20.636,1.647
			c5.225-1.207,10.336-2.707,15.196-5.023c0.701-0.334,1.634-1.178,2.333-0.219c0.552,0.75,0.039,1.645-0.371,2.453
			c-1.384,2.714-3.189,5.067-5.781,6.699c-2.744,1.728-5.617,3.257-8.331,5.029c-2.65,1.731-5.988,1.579-9.306,3.565
			c11.838,3.256,21.974-0.929,33.092-4.827c-5.498,12.59-16.42,15.468-27.489,18.426c3.616,2.023,11.009,2.652,15.686,1.637
			c5.239-1.135,10.507-2.102,15.228-4.883c0.902-0.533,2.234-1.254,3.056-0.107c0.849,1.188-0.359,2.223-1.166,2.787
			c-5.92,4.146-11.024,9.514-17.54,12.689c-3.496,1.706-7.645,1.94-11.598,2.271c0.006,0.049,0.009,0.102,0.012,0.156
			c0.034-0.068,0.077-0.135,0.115-0.202c2.921,2.188,6.49,2.156,9.846,2.784c1.764,0.331,3.044,1.044,2.477,2.873
			c-1.852,5.961,0.081,11.502,1.613,17.094c0.674,2.455,1.461,5.485-0.26,7.091c-1.919,1.786-4.355-0.589-6.318-1.624
			c-3.504-1.848-6.612-4.382-10.298-5.941c-4.794-2.027-9.724-2.604-14.892-2.043c-2.938,0.318-2.771,1.546-1.293,3.28
			c7.123,8.335,15.484,15.081,25.541,19.61c2.108,4.387,6.043,5.72,10.413,5.715c5.021-0.008,8.88-2.602,11.161-6.965
			c3.965-7.597,4.975-15.777,3.692-24.209c-0.935-6.148-1.103-11.995,4.509-16.289c-0.567,2.372-1.444,4.67-1.314,7.189
			c0.058,1.117-0.353,2.435,0.64,3.152c1.233,0.887,1.969-0.596,2.837-1.111c4.326-2.57,5.952-2.653,10.274,0.004
			c-6.643,2.922-10.185,8.105-10.911,14.939c-0.367,3.412,0.313,6.931,0.391,10.403c0.43,17.892-10.314,25.902-26.02,27.415
			c-9.002,0.865-17.928-0.842-26.232-4.313c-7.664-3.2-14.034-8.475-18.713-15.466c-2.146-3.207-3.9-6.671-6.256-10.748
			c-2.001,4.193-1.226,7.822-0.447,11.046c3.295,13.714,11.854,23.069,24.942,28.149c10.596,4.109,21.688,5.205,32.882,3.699
			c6.465-0.87,12.855,1.309,19.274-0.229c1.485-0.356,1.843,0.652,0.999,2.087c-3.142,5.343-8.448,6.778-13.928,7.419
			c-10.303,1.203-20.425-0.09-30.338-3.32c2.422,2.817,10.577,6.8,16.248,8.594c6.385,2.018,12.779,3.364,19.52,2.953
			c1.988-0.121,2.256,0.51,1.3,2.7c-2.927,6.725-8.144,7.879-14.471,6.843c-5.129-0.841-10.258-1.74-15.315-2.91
			c-5.047-1.166-9.914-2.978-15.104-5.271c1.796,3.342,4.857,4.717,7.354,6.492c6.988,4.965,14.529,8.916,23.139,10.348
			c2.221,0.369,2.262,1.03,0.96,2.85c-4.659,6.506-8.93,7.488-16.576,3.49c-6.759-3.535-12.657-8.279-18.224-13.395
			c-10.205-9.371-21.479-16.952-34.824-20.969c-9.801-2.948-19.819-4.458-29.924-1.4c-4.7,1.423-9.144,3.42-11.572,8.171
			c-6.553,4.235-10.114,8.393-10.314,12.092c15.587-6.788,31.663-9.687,48.549-6.3c0.303,0.062,0.681-0.252,1.024-0.388
			c13.685,5.624,24.776,14.699,34.577,25.609c5.65,6.286,9.87,13.47,13.959,20.767c5.519,9.848,8.732,20.291,7.926,31.715
			c-0.617,8.728-3.951,16.072-11.203,21.34c-9.193,6.682-19.762,9.756-30.729,11.865c-11.582,2.229-23.227,4.006-34.881,5.777
			c-2.667,0.406-5.323,1.43-7.771,2.617c-5.064,2.444-7.003,6.805-7.446,12.311c-1.019,12.689,0.938,25.244,1.332,37.864
			c0.24,7.653,0.045,15.067-4.196,21.851c-3.008,4.813-7.259,7.565-13.634,9.167c3.533-6.559,3.382-13.04,4.151-19.368
			c0.133-1.092,0.51-1.949-1.044-2.135c-4.396-0.528-4.034-2.871-2.909-6.327c4.191-12.901,3.044-25.935,0.313-38.944
			c-0.406-1.938-0.717-3.892-1.075-5.842c1.442,0.219,1.438,0.218,1.469-1.464c0.1-5.866-0.055-11.779,2.575-17.263
			c2.166-4.503,6.084-8.43,10.64-7.457c5.751,1.234,8.284-0.711,11.833-4.609c4.68-5.134,11.504-7.23,18.37-8.58
			c10.972-2.158,21.857-1.284,32.735,0.676c0.912,0.164,1.896,0.752,2.883-0.379c-1.561-1.574-3.116-3.135-4.668-4.696
			c-2.709-4.9-7.076-7.988-11.915-10.353c-2.964-1.447-2.575-2.816-0.665-4.666c1.688-1.641,3.383-3.266,5.541-5.344
			c-5.613-0.109-9.881,1.92-13.912,4.557c-3.164,2.072-6.195,3.898-10.361,2.816c-2.031-0.528-1.889-1.127-1.615-2.74
			c0.814-4.852,4.028-8.385,6.493-12.325c0.853-1.362,1.944-2.577,2.911-3.839c-5.623,0.719-8.359,4.473-13.557,8.754
			c-2.26,1.857-4.419,4.041-5.631,6.895c-0.829,1.947-2.261,2.705-4.152,1.418c-1.752-1.195-4.621-1.422-3.59-4.985
			c2.331-8.061,6.75-14.866,11.973-21.257c0.469-0.574,0.957-1.133,1.294-1.859c-6.955,3.597-13.505,7.664-17.761,14.582
			c-0.644,1.048-1.351,2.143-2.284,2.902c-1.329,1.072-0.282,5.076-3.915,3.283c-4.031-1.995-5.259-4.528-4.394-7.934
			c1.313-5.139,5.011-8.756,7.841-12.929c0.661-0.979,1.842-1.633,1.942-3.29c-5.799,2.604-10.927,5.835-15.197,10.277
			c-1.976,2.059-3.058,2.436-4.985-0.334c-5.438-7.824-8.314-16.632-10.597-25.992c-1.524,2.599-1.524,2.599-0.81,10.928
			c-3.623-3.959-5.529-8.515-8.521-13.327c-3.296,9.296-2.876,17.737-0.42,26.401c2.426,8.561,7.503,15.694,11.79,23.365
			c-15.19,1.527-39.263-17.215-42.169-45.722c-2.578,9.659-3.177,18.452-1.129,27.51c1.729,7.634,4.631,14.626,9.097,21.021
			c0.553,0.791,1.534,1.781,0.988,2.657c-0.697,1.116-2.022,0.404-3.035,0.159c-13.868-3.337-22.922-12.34-28.987-24.795
			c-2.113-4.339-3.742-8.856-4.289-13.755c-6.341,12.435-4.604,24.398,2.396,36.117c-14.453-0.091-26.602-16.469-29.732-39.979
			c-4.431,3.788-5.061,8.814-6.344,13.525c-1.396,5.126,1.127,10.008,1.06,15.108c-12.221-3.104-17.873-13.617-18.113-33.846
			c-5.644,5.049-6.954,11.508-7.733,18.197c-0.139,1.209,0.217,3.096-0.403,3.493c-1.163,0.738-2.449-0.499-3.547-1.26
			c-6.128-4.25-8.339-10.528-9.095-17.561c-0.179-1.681,0.298-3.468-0.838-5.362c-4.817,4.489-6.038,10.087-5.747,15.984
			c0.122,2.504-0.46,2.658-2.519,2.355c-6.215-0.902-10.264-6.122-11.061-14.482c-0.059-0.605-0.069-1.216-0.108-1.947
			c-3.614,3.239-5.425,9.003-4.217,14.129c0.55,2.346,0.127,3.119-2.382,3.108c-7.02-0.034-8.343-1.197-11.182-10.605
			c-3.044,2.638-4.448,8.011-3.381,13.167c0.263,1.281,1.253,2.633-0.596,3.524c-1.643,0.795-3.235,2.104-5.165,0.739
			c-1.422-1.007-2.769-2.111-4.195-3.115c-2.003-1.407-3.253-0.934-3.508,1.57c-0.262,2.577,0.496,4.947,1.684,7.184
			c0.844,1.588,0.765,2.869-0.917,3.775c-7.304,3.939-9.479,11.6-13.06,18.193c-1.454,2.677-2.267,5.697-3.372,8.564
			c-0.221-10.635,2.925-20.537,6.657-30.292c2.579-6.743,7.173-12.277,11.562-17.809c6.75-8.502,16.091-13.702,25.833-18.021
			c2.192-0.97,5.714-2.594,6.991,1.867c0.067,0.601,0.248,0.726,0.597,0.143c3.731-4.123,8.323-6.752,13.811-7.636
			c5.668-0.916,6.538-0.174,6.384,4.995c1.652,0.084,2.682-1.148,3.942-1.853c4.771-2.666,9.874-3.279,15.18-2.305
			c2.232,0.409,3.362,1.497,1.956,3.952c-0.829,1.448-1.644,3.005-1.7,5.037c1.792-0.152,2.613-1.329,3.518-2.237
			c1.884-1.892,4.118-3.229,6.454-4.431c0.858-0.441,1.989-1.174,2.637,0.038c1.095,2.033,2.639,1.457,4.195,1.021
			c1.714-0.479,3.454-0.52,5.2-0.396c2.681,0.188,3.461,1.387,1.6,3.563c-1.099,1.288-2.031,2.484-1.1,4.412
			c1.896-1.114,3.531-2.34,4.902-3.986c1.775-2.131,4.008-3.749,6.495-4.963c0.842-0.412,2.277-1.054,2.405,0.447
			c0.339,3.951,2.345,2.412,4.332,1.62c1.498-0.595,3.087-0.966,4.624-1.474c2.837-0.941,3.498-0.143,2.917,2.838
			c-0.689,3.53-1.458,7.271,1.322,10.702c0.998-2.187,1.332-4.503,2.03-6.703c2.4-7.562,7.055-11.547,13.607-12.045
			c2.97-0.227,4.684,0.446,4.804,3.927c0.12,3.445,0.271,7.006,2.158,10.125l-0.029-0.008c1.617-1.719,1.23-3.98,1.541-6.014
			c0.822-5.371,3.078-9.98,6.864-13.842c0.504-0.515,1.059-1.257,1.88-0.961c0.882,0.32,0.737,1.199,0.591,1.927
			c-0.245,1.212-0.886,2.842,0.507,3.337c1.691,0.604,2.643-1.127,3.373-2.369c1.725-2.947,3.975-5.292,7.352-7.352
			c-0.52,7.286,0.327,13.814,4.911,19.376c0.182-0.222,0.333-0.327,0.323-0.403c-0.112-0.741-0.286-1.476-0.382-2.217
			c-1.087-8.385-0.859-16.425,5.451-23.113c2.758-2.925,3.206-3.009,4.625,0.642c1.219,3.138,3.115,5.683,6.003,8.402
			c-0.166-1.697-0.324-2.671-0.353-3.647c-0.149-4.994-0.533-10.025,2.549-14.469c1.37-1.97,2.236-2.462,3.396,0.31
			c1.139,2.715,2.125,5.684,5.06,7.977c-0.037-1.806-0.104-3.043-0.078-4.279c0.077-3.909,0.53-7.685,2.769-11.101
			c1.498-2.286,2.77-2.493,4.618-0.418c1.737,1.946,3.453,3.969,5.806,5.252c0.67,0.365,1.392,0.706,2.025,0.001
			c0.502-0.561,0.15-1.181-0.081-1.744c-0.755-1.847-1.659-3.643-2.276-5.535c-1.058-3.276,0.071-5.021,3.396-4.858
			c3.075,0.15,6.13,0.615,9.041,1.938c3.285,1.492,6.355,3.561,10.799,4.724c-0.995-1.374-1.375-2.003-1.851-2.548
			c-2.798-3.197-5.589-6.434-7.56-10.204c-0.797-1.533-2.149-3.435-0.727-5.241c1.38-1.748,3.469-1.693,5.532-1.376
			c3.875,0.592,7.377,2.286,11.014,3.589c3.228,1.159,6.316,2.808,9.838,3.126c0.17-1.21-0.678-1.474-1.189-1.97
			c-4.195-4.078-8.827-7.758-11.741-13c-2.507-4.514-0.924-7.229,4.317-7.028c3.621,0.14,7.158,0.94,10.629,2.063
			c2.904,0.938,5.639,2.544,9.006,2.673c-0.118-1.696-1.3-2.325-2.131-3.159c-3.354-3.352-6.896-6.545-9.381-10.66
			c-3.469-5.746-2.041-9.328,4.395-11.271c4.961-1.492,9.886-0.81,14.797,0.157c2.846,0.558,5.611,1.647,8.844,1.183
			c-1.217-1.805-2.92-2.4-4.338-3.352c-4.772-3.202-9.66-6.244-13.17-10.968c-2.285-3.076-1.98-4.847,1.471-6.48
			c4.437-2.101,9.199-3.147,14.003-4.014c1.806-0.321,3.642-0.519,5.812-2.422C423.113,339.021,418.999,338.074,415.4,335.916z
			 M425.119,189.591c3.256-8.79,1.337-16.69-5.328-22.853c-7.644-7.072-21.49-5.779-27.604,2.207
			c-6.515,8.514-6.779,21.716,3.021,28.572c1.604,1.121,3.314,2.082,4.977,3.117c-0.03,2.64,0.38,4.809,3.83,4.818
			c5.087,0.014,9.977-0.831,14.013-4.019C421.809,198.451,425.34,195.079,425.119,189.591z M499.484,138.648
			c-2.581-4.599-9.385-7.593-14.66-6.489c-1.932,0.402-3.947,0.651-5.439,2.24c-1.988,2.12-1.805,4.425-0.191,6.433
			c1.245,1.549,2.207,4.791,5.355,2.013c0.986-0.868,2.125,0.195,3.137,0.581c2.085,0.793,4.113,1.734,6.221,2.463
			c2.252,0.779,4.276,0.128,5.604-1.789C500.75,142.311,500.578,140.32,499.484,138.648z"/>
		<path fill="#F5C469" d="M142.548,443.617c4.382-1.771,8.811-3.443,13.143-5.329c14.678-6.384,29.976-8.88,45.972-8.482
			c13.48,0.331,26.84,2.036,40.295,2.589c11.753,0.48,23.125-1.283,34.304-4.713c21.651-6.646,40.132-18.606,57.063-33.41
			c9.907-8.661,19.331-17.754,27.783-27.793c9.099-10.813,16.786-22.478,17.801-37.188c0.566-8.249-0.808-16.238-4.806-23.547
			c-4.196-7.674-8.637-15.218-13.065-22.76c-9.45-16.093-15.392-33.412-16.204-52.033c-0.72-16.402,1.875-32.351,11.899-46.152
			c1.53-2.11,3.435-3.945,5.169-5.912c1.161,6.214,1.346,11.991-1.238,18.342c-7.448,18.309-7.593,37.139-1.653,56.061
			c3.958,12.613,10.252,24.045,16.943,35.321c5.161,8.696,10.119,17.478,12.077,27.593c3.621,18.691-2.048,35.028-13.54,49.342
			c-20.101,25.037-42.983,47.084-71.657,62.315c-18.595,9.877-38.388,15.232-59.568,14.456c-8.746-0.323-17.507-0.913-26.207-1.879
			c-25.941-2.89-50.542,0.398-72.989,15.395C142.308,451.674,143.32,447.52,142.548,443.617z"/>
		<path fill="#F5C469" d="M415.4,335.916c3.599,2.158,7.713,3.105,12.279,4.479c-2.17,1.901-4.01,2.101-5.813,2.423
			c-4.803,0.862-9.568,1.91-14,4.011c-3.453,1.635-3.758,3.405-1.475,6.479c3.512,4.727,8.399,7.77,13.17,10.971
			c1.42,0.951,3.12,1.547,4.34,3.351c-3.231,0.464-5.998-0.622-8.842-1.182c-4.915-0.966-9.84-1.651-14.799-0.157
			c-6.436,1.942-7.863,5.524-4.395,11.269c2.483,4.116,6.023,7.31,9.38,10.663c0.833,0.836,2.014,1.463,2.131,3.157
			c-3.366-0.126-6.103-1.737-9.008-2.675c-3.468-1.119-7.003-1.922-10.626-2.061c-5.243-0.199-6.825,2.515-4.319,7.025
			c2.915,5.245,7.548,8.924,11.745,13.002c0.509,0.492,1.356,0.761,1.186,1.973c-3.522-0.32-6.607-1.973-9.837-3.127
			c-3.636-1.303-7.141-2.997-11.013-3.59c-2.066-0.32-4.152-0.373-5.531,1.375c-1.424,1.807-0.074,3.711,0.727,5.239
			c1.969,3.772,4.761,7.011,7.558,10.206c0.476,0.547,0.859,1.174,1.85,2.551c-4.443-1.163-7.515-3.232-10.797-4.726
			c-2.912-1.321-5.967-1.785-9.042-1.938c-3.324-0.16-4.456,1.583-3.394,4.86c0.616,1.891,1.52,3.688,2.275,5.53
			c0.231,0.568,0.587,1.188,0.082,1.748c-0.635,0.705-1.355,0.361-2.025,0c-2.354-1.284-4.07-3.309-5.807-5.253
			c-1.849-2.078-3.12-1.869-4.619,0.418c-2.237,3.417-2.693,7.196-2.766,11.101c-0.026,1.238,0.041,2.475,0.075,4.281
			c-2.933-2.297-3.918-5.268-5.056-7.981c-1.162-2.771-2.028-2.276-3.399-0.304c-3.084,4.439-2.697,9.473-2.546,14.467
			c0.028,0.978,0.185,1.951,0.352,3.643c-2.889-2.717-4.787-5.26-6.004-8.397c-1.42-3.652-1.866-3.568-4.625-0.642
			c-6.309,6.688-6.54,14.727-5.449,23.112c0.095,0.742,0.266,1.476,0.379,2.213c0.011,0.081-0.141,0.187-0.322,0.409
			c-4.582-5.563-5.432-12.095-4.915-19.378c-3.372,2.059-5.623,4.401-7.349,7.351c-0.73,1.245-1.679,2.974-3.373,2.371
			c-1.391-0.495-0.752-2.125-0.507-3.336c0.146-0.729,0.292-1.609-0.588-1.928c-0.823-0.297-1.378,0.445-1.881,0.96
			c-3.785,3.865-6.045,8.471-6.866,13.841c-0.309,2.035,0.076,4.298-1.54,6.015l0.031,0.009c-1.889-3.122-2.042-6.681-2.16-10.124
			c-0.117-3.484-1.833-4.157-4.806-3.932c-6.548,0.5-11.205,4.486-13.605,12.05c-0.7,2.199-1.035,4.514-2.029,6.702
			c-2.78-3.432-2.014-7.173-1.322-10.702c0.58-2.982-0.081-3.779-2.92-2.842c-1.533,0.51-3.123,0.883-4.621,1.479
			c-1.991,0.789-3.992,2.331-4.332-1.621c-0.13-1.502-1.563-0.859-2.405-0.45c-2.488,1.216-4.718,2.831-6.49,4.964
			c-1.374,1.647-3.012,2.872-4.907,3.99c-0.933-1.932-0.001-3.129,1.1-4.413c1.863-2.175,1.08-3.376-1.6-3.565
			c-1.743-0.124-3.484-0.082-5.201,0.396c-1.554,0.436-3.102,1.013-4.193-1.022c-0.648-1.207-1.78-0.477-2.638-0.034
			c-2.335,1.202-4.573,2.538-6.453,4.429c-0.907,0.906-1.728,2.086-3.518,2.24c0.056-2.033,0.871-3.591,1.702-5.039
			c1.405-2.455,0.271-3.543-1.96-3.955c-5.304-0.974-10.404-0.359-15.179,2.308c-1.262,0.703-2.289,1.938-3.938,1.849
			c0.15-5.166-0.721-5.907-6.387-4.99c-5.488,0.884-10.08,3.51-13.812,7.634c-0.199-0.052-0.399-0.1-0.6-0.142
			c-1.274-4.461-4.796-2.838-6.989-1.868c-9.743,4.319-19.083,9.52-25.832,18.023c-4.391,5.53-8.981,11.062-11.563,17.804
			c-3.729,9.759-6.878,19.662-6.656,30.295c-0.491,2.494-0.276,5.193-2.268,7.814c-3.201-11.293-3.578-22.255-0.677-33.079
			c7.216-26.96,26.373-41.612,52.051-48.985c15.677-4.5,31.669-3.201,47.629-1.603c12.426,1.243,24.871,2.241,37.357,0.724
			c18.195-2.215,35.474-7.42,51.207-16.904c31.071-18.734,57.293-42.848,78.409-72.363c6.563-9.175,10.312-19.664,11.514-30.93
			c0.232-2.143,0.75-2.177,2.496-1.523C408.311,333.669,411.875,334.745,415.4,335.916z"/>
		<path fill="#F5C469" d="M327.298,638.882c-6.724-7.802-6.32-16.589-3.669-25.751c3.626-12.535,3.519-25.096,0.184-37.695
			c-1.084-4.092-2.413-8.155-2.602-12.439c-0.105-2.451-1.176-3.405-3.795-3.313c-19.485,0.701-37.826-4.726-55.536-11.838
			c-14.562-5.854-28.028-14.121-41.4-22.416c-8.788-5.455-17.784-10.51-27.547-14.231c-11.563-4.404-22-2.738-31.996,3.979
			c-0.386-0.914-0.774-1.83-1.166-2.746l0.017,0.032c-3.422-7.05-3.4-7.005,3.545-10.446c12.51-6.194,24.878-4.487,37.172,0.614
			c11.573,4.805,22.175,11.429,32.875,17.853c18.26,10.964,37.117,20.555,57.939,25.788c12.472,3.134,25.116,3.808,37.885,3.1
			c1.284-0.073,3.047-0.608,2.497,1.783c-2.124,9.239,1.039,17.851,2.972,26.64c2.797,12.732,3.385,25.421-0.99,38.03
			c-1.857,5.364-3.492,10.905,2.303,15.321c1.25,0.953,0.769,2.498-0.08,3.748C333.832,637.946,331.069,639.496,327.298,638.882z"/>
		<path fill="#F5C469" d="M598.138,502.641c0.208,0.57,0.246,1.321,0.639,1.679c7.478,6.826,4.081,14.697,1.429,21.862
			c-6.913,18.658-28.592,26.096-46.243,17.281c-7.71-3.849-14.408-9.414-22.56-12.494c-7.227-2.729-14.579-3.236-22.051-1.967
			c-4.928,0.836-7.365,5.342-10.789,8.326c-9.61,8.381-19.641,16.042-31.11,21.828c-9.607,4.846-19.345,9.25-29.581,12.581
			c-19.427,6.332-39.279,10.378-59.717,11.399c-0.112-0.354-0.323-0.706-0.326-1.062c-0.08-10.27-1.6-8.483,7.9-9.781
			c16.33-2.227,32.629-4.667,48.242-10.104c24.574-8.561,46.947-20.869,64.977-40.082c2.099-2.24,4.715-2.705,7.367-3.179
			c14.762-2.622,28.508-0.16,41.078,8.284c4.756,3.196,9.524,6.395,15.032,8.283c11.936,4.098,23.154-1.148,27.609-12.908
			c1.568-4.135,2.106-8.459,2.759-12.77C593.303,506.443,594.35,503.547,598.138,502.641z"/>
		<path fill="#F5C469" d="M560.82,219.783c0.559,2.609,2.65,4.148,4.211,6.063c2.181,2.668,2.852,5.146,1.4,8.844
			c-5.97,15.223-18.238,23.514-31.955,30.47c-11.909,6.037-24.118,11.402-36.428,16.551c-2.856,1.194-1.666,2.728-0.432,4.341
			c8.745,11.43,16.144,23.721,22.896,36.395c2.635,4.939,4.807,10.129,7.12,15.235c1.159,2.562,2.06,3.431,4.187,0.543
			c2.344-3.177,4.792-6.401,8.436-8.374c2.751-1.49,4.654-0.645,6.342,1.767c1.672,2.384,2.829,4.571-0.408,6.539
			c-9.617,7.397-14.378,17.562-16.477,29.241c-0.439,2.455-1.15,4.861-1.557,7.318c-0.336,2.007-0.904,1.641-2.384,0.824
			c-3.698-2.052-5.188-4.371-4.417-9.066c2.132-12.944-2.682-24.635-8.342-35.844c-8.729-17.289-19.363-33.388-31.725-48.324
			c-0.758-0.921-1.229-2.083-2.024-3.458c13.493-5.97,27.168-11.603,40.455-18.026c10.835-5.24,22.111-10.006,30.313-19.488
			c5.045-5.835,8.824-12.233,9.938-19.982C560.068,220.686,560.256,220.152,560.82,219.783z"/>
		<path fill="#F5C469" d="M575.934,378.713c0.446,4.678-0.221,8.813-4.443,11.883c-2.023,1.474-1.787,4.287-2.135,6.584
			c-2.64,17.432-13.497,29.196-30.607,33.131c-2.984,0.688-5.965,0.602-8.92,0.154c-2.545-0.383-3.784,0.328-4.571,2.945
			c-1.958,6.514-1.933,6.238,3.53,10.363c8.888,6.715,16.622,14.641,23.4,23.506c1.816,2.37,3.84,4.576,5.752,6.873
			c0.824,0.99,1.805,1.258,2.989,0.785c-1.091,4.174-2.184,8.345-3.319,12.676c-3.475-1.09-5.538-3.684-7.428-6.174
			c-10.791-14.211-22.736-27.149-38.406-36.15c-1.309-0.75-1.148-1.477-0.652-2.73c3.074-7.768,6.083-15.576,7.664-23.814
			c0.563-2.939,1.963-1.354,3.148-0.86c12.445,5.205,24.651,1.943,31.777-8.577c3.88-5.729,4.919-12.459,6.479-18.986
			c0.841-3.516,1.417-7.096,2.319-10.594c0.784-3.059,2.146-5.855,4.879-7.737c2.046-1.405,3.691-1.134,4.953,1.101
			C573.438,375.028,574.024,377.295,575.934,378.713z"/>
		<path fill="#F5C469" d="M375.456,734.238c-19.683,11.363-39.366,22.729-59.048,34.09c-1.081,0.625-2.143,1.295-3.265,1.837
			c-2.371,1.151-4.41,0.481-5.993-1.46c-1.592-1.963-1.034-3.96,0.268-5.859c0.96-1.404,2.478-2.059,3.875-2.867
			c39.471-22.795,78.941-45.588,118.421-68.371c1.397-0.806,2.742-1.742,4.403-1.998c2.526-0.391,4.514,0.43,5.519,2.807
			c1.006,2.379,0.261,4.445-1.911,5.824c-2.214,1.396-4.53,2.637-6.804,3.949c-18.492,10.672-36.982,21.352-55.477,32.029
			C375.45,734.226,375.452,734.231,375.456,734.238z"/>
		<path fill="#F5C469" d="M522.414,141.803c-0.348-3.686-5.846-9.825-10.018-10.811c-2.843-0.674-6.047-2.91-8.266,1.43
			c-0.557,1.088-1.937,0.229-2.91-0.502c-9.367-7.098-19.37-5.981-29.482-2.033c-2.994,1.166-5.986,7.279-5.834,10.521
			c0.246,5.185,0.166,10.385,0.754,15.617c-3.188-4.975-4.938-10.438-5.862-16.188c-0.78-4.859-1.026-5.047-5.706-3.669
			c-0.477,0.142-0.959,0.289-1.424,0.473c-11.773,4.635-12.991,6.97-10.054,19.229c0.23,0.951,0.763,1.877,0.077,3.107
			c-2.48-0.941-3.424-3.394-4.908-5.184c-5.604-6.763-8.342-7.16-14.823-1.042c-2.786,2.632-5.212,3.516-9.229,2.788
			c-21.679-3.939-39.377,14.793-34.536,36.234c0.568,2.525,1.618,4.918,1.916,7.541c0.174,1.548,0.309,2.76-1.614,3.067
			c-2.654-7.388-5.256-14.745-5.05-22.809c0.557-21.796,21.592-34.628,38.703-29.13c1.635,0.527,2.865,0.424,4.312-1.006
			c7.921-7.85,17.364-13.363,27.372-18.24c5.33-2.596,10.559-5.377,16.046-7.695c19.591-8.271,41.7-5.77,56.423,10.238
			c1.252,1.36,2.742,2.506,4.145,3.725C524.132,138.936,524.186,140.367,522.414,141.803z"/>
		<path fill="#F5C469" d="M712.012,539.898c-15.155,8.748-30.31,17.5-45.467,26.246c-0.865,0.5-1.73,1.014-2.638,1.428
			c-2.796,1.277-5.381,0.728-6.817-1.905c-1.469-2.688-0.403-5.042,2.296-6.599c10.181-5.867,20.345-11.76,30.52-17.636
			c20.675-11.94,41.353-23.876,62.027-35.812c0.761-0.436,1.509-0.9,2.3-1.266c2.942-1.359,6.043-0.667,7.176,1.786
			c1.406,3.056,0.23,5.136-2.627,6.768c-15.621,8.938-31.191,17.972-46.78,26.971C712.003,539.885,712.008,539.892,712.012,539.898z
			"/>
		<path fill="#FC8119" d="M603.881,458.2c-10.052,7.13-17.135,16.448-20.35,28.407c-2.102,7.816-4.284,15.656-4.688,23.809
			c-0.267,5.414-2.952,10.096-6.955,11.311c-3.691,1.122-7.082-0.428-10.196-2.004c-7.744-3.925-14.415-9.105-18.132-17.325
			c-0.328-0.728-0.462-1.729-1.625-1.929c-1.801,1.819-0.416,3.985-0.564,5.969c-3.542-0.18-5.783-3.348-5.125-7.232
			c0.103-0.602,0.229-1.246,0.525-1.768c3.652-6.418,2.979-6.475,8.457-2.119c5.167,4.109,10.928,7.258,16.979,9.952
			c3.159,1.407,4.177,0.212,5.011-2.534c1.788-5.871,2.551-12.08,5.61-17.547c4.091,2.396,4.095,2.402,6.14-2.161
			c0.563-1.253,1.056-2.532,1.622-3.779C585.311,468.869,592.614,461.342,603.881,458.2z"/>
		<path fill="#F5C469" d="M308.833,716.105c-12.219,7.054-24.438,14.115-36.664,21.16c-1.082,0.623-2.18,1.228-3.318,1.731
			c-3.152,1.412-6.089,0.785-7.07-1.714c-1.193-3.032,0.119-5.258,2.808-6.811c14.169-8.178,28.343-16.352,42.507-24.535
			c11.569-6.684,23.132-13.38,34.697-20.074c0.325-0.188,0.624-0.421,0.963-0.576c2.786-1.275,7.071-0.475,7.979,1.477
			c1.158,2.488-0.178,5.285-3.6,7.271c-12.749,7.386-25.517,14.743-38.278,22.111C308.849,716.129,308.841,716.119,308.833,716.105z
			"/>
		<path fill="#F5C469" d="M403.396,678.279c0.513,2.197,4.058,3.554,1.386,6.723c6.601-0.11,11.199-3.965,16.332-6.504
			c1.203-0.596,2.219-2.215,3.924-1.101c-25.791,14.823-51.568,29.646-77.352,44.454c-9.099,5.227-18.201,10.448-27.348,15.598
			c-1.914,1.076-3.652,2.692-6.084,2.617c4.414-2.559,8.803-5.157,13.259-7.641c1.832-1.023,2.144-1.942,0.833-3.768
			c-1.194-1.666-3.445-3.279-1.666-5.884c10.443-6.106,20.865-12.249,31.331-18.314
			C373.122,695.704,388.267,687.005,403.396,678.279z"/>
		<path fill="#F5C469" d="M535.537,224.639c-0.99,3.211-4.049,3.801-6.553,4.656c-12.616,4.32-25.538,7.6-38.501,10.695
			c-12.392,2.959-25.004,4.492-37.639,5.986c-11.999,1.418-24.167,1.676-35.952,4.717c-3.767,0.972-7.244,2.689-10.742,4.354
			c-1.301,0.621-2.627,2.164-4.072,1.136c-1.766-1.255-0.123-2.946,0.072-4.451c3.527-5.833,9.406-7.612,15.517-8.519
			c15.446-2.291,31.04-3.188,46.589-4.429c20.568-1.64,40.864-4.786,60.705-10.468C528.51,227.299,531.98,225.787,535.537,224.639z"
			/>
		<path fill="#FC8119" d="M578.636,357.115c0.948,0.665,0.808,1.687,1.006,3.172c-2.903-2.117-5.829-3.296-9.041-3.527
			c-8.988-0.652-14.316,4.801-18.274,11.723c-4.497,7.865-5.254,17.021-7.793,25.569c-0.849,2.854-1.525,5.756-3.343,8.198
			c-2.057,2.773-6.3,4.241-9.284,3.243c-4.084-1.362-6.265-4.231-6.291-8.302c-0.002-0.36,0.102-0.719,0.156-1.078
			c0.321-2.051-0.746-4.9,0.744-6.007c2.093-1.56,3.045,1.88,4.932,2.561c2.586,0.935,3.817,1.229,4.672-2.124
			c1.514-5.937,2.666-12.052,5.742-17.505c2.376,0.638,2.547-1.41,3.248-2.73c3.332-6.265,6.637-12.548,13.197-16.179
			C565.967,349.88,574.707,351.169,578.636,357.115z"/>
		<path fill="#F5C469" d="M423.212,526.549c1.553,1.563,3.108,3.123,4.668,4.693c-0.987,1.128-1.971,0.543-2.882,0.377
			c-10.877-1.955-21.764-2.83-32.736-0.672c-6.865,1.351-13.691,3.445-18.369,8.581c-3.547,3.899-6.081,5.845-11.832,4.608
			c-4.556-0.974-8.476,2.952-10.642,7.455c-2.629,5.486-2.475,11.398-2.575,17.264c-0.03,1.686-0.026,1.681-1.468,1.465
			c-1.866-6.262-3.242-12.576-1.904-19.158c1.898-9.342,9.372-14.773,18.749-13.53c1.368,0.179,2.25,0.038,3.214-1.112
			c7.671-9.166,17.972-12.642,29.487-13.179c7.082-0.33,14.117,0.116,20.971,2.243C419.602,526.111,421.435,526.238,423.212,526.549
			z"/>
		<path fill="#F5C469" d="M373.622,200.707c0.554,2.179,1.079,4.383,0.864,6.641c-0.967,10.087,4.598,17.805,9.314,25.83
			c0.431,0.734,0.951,1.411,1.68,2.49c-3.19,0.047-5.215-1.389-7.336-2.891c-0.955-0.678-2.165-2.342-3.521-1.195
			c-1.053,0.892-0.17,2.36,0.288,3.487c2.942,7.222,6.477,14.062,12.502,19.285c0.852,0.738,2.105,1.764,1.533,2.735
			c-0.87,1.473-2.216,0.181-3.258-0.279c-2.667-1.18-5.281-2.479-8.125-3.836c1.967,6.723,6.273,11.365,17.86,19.322
			c-3.856,0.451-7.067-0.467-10.264-1.512c-3.83-1.566-6.782-4.299-8.554-7.885c-7.247-14.636-11.513-29.97-8.853-46.442
			C368.644,210.938,369.234,205.044,373.622,200.707z"/>
		<path fill="#F5C469" d="M281.192,586.031c0.78,0.393,1.571,0.754,2.334,1.166c3.379,1.828,3.63,5.097,0.536,7.424
			c-0.888,0.676-1.897,1.191-2.866,1.756c-12.304,7.091-24.588,14.223-36.943,21.223c-1.649,0.936-2.838,2.674-4.89,2.878
			c-1.918-1.558-3.829-3.151-5.791-4.673c-1.701-1.32-1.493-2.104,0.391-3.147C249.772,603.896,265.163,594.396,281.192,586.031z"/>
		<path fill="#F5C469" d="M264.003,690.996c-6.164,3.559-12.336,7.105-18.496,10.684c-2.035,1.182-3.984,1.248-5.917-0.234
			c-1.448-1.111-1.814-2.509-1.605-4.289c0.192-1.626,1.277-2.355,2.451-3.051c12.474-7.367,24.937-14.75,37.458-22.035
			c2.614-1.521,6.581-0.695,7.561,1.496c1.426,3.185-0.371,5.215-2.969,6.726c-6.153,3.581-12.327,7.125-18.492,10.686
			C263.998,690.986,263.999,690.99,264.003,690.996z"/>
		<path fill="#F5C469" d="M245.854,673.064c-5.516,3.182-11.015,6.387-16.546,9.542c-3.181,1.816-5.918,1.31-7.43-1.284
			c-1.392-2.389-0.528-5.111,2.473-6.875c10.979-6.449,21.991-12.838,33.027-19.189c2.937-1.686,6.391-0.966,7.567,1.361
			c1.316,2.591,0.305,5.17-2.895,7.047c-5.383,3.157-10.807,6.248-16.211,9.373C245.845,673.048,245.849,673.057,245.854,673.064z"
			/>
		<path fill="#F5C469" d="M490.154,347.832c-5.608,4.297-5.443,10.144-4.51,16.291c1.286,8.429,0.273,16.611-3.693,24.209
			c-2.277,4.365-6.139,6.959-11.161,6.963c-4.369,0.005-8.303-1.328-10.411-5.714c0.494,0.075,0.998,0.09,1.472,0.232
			c13.772,4.071,18.441-5.888,19.366-15.348c0.472-4.792-1.268-9.338-1.847-14.013c-0.651-5.225,0.383-9.907,4.949-13.238
			c2.411-1.76,5.002-2.658,8.19-1.959C492.3,346.719,490.799,346.912,490.154,347.832z"/>
		<path fill="#F5C469" d="M185.7,622.87c-3.574,2.061-7.127,4.146-10.715,6.174c-2.809,1.588-4.986,0.576-6.647-1.866
			c-1.7-2.502-0.832-4.526,1.545-5.921c7.323-4.293,14.662-8.567,22.078-12.702c2.664-1.486,5.108-0.831,6.619,1.961
			c1.494,2.766,0.343,4.731-2.17,6.178C192.837,618.742,189.272,620.812,185.7,622.87z"/>
		<path fill="#F5C469" d="M400.008,442.055c-0.342,0.134-0.721,0.445-1.024,0.387c-16.886-3.386-32.963-0.489-48.548,6.298
			c0.2-3.698,3.762-7.854,10.316-12.09c13.706-6.405,26.253-2.042,38.59,4.157C399.686,440.979,399.793,441.625,400.008,442.055z"/>
		<path fill="#F5C469" d="M166.386,593.307c2.919-1.687,5.818-3.414,8.769-5.046c2.844-1.575,6.422-1.019,7.621,1.364
			c1.468,2.912-0.097,5.196-2.439,6.636c-6.161,3.797-12.388,7.512-18.774,10.901c-2.276,1.208-4.601-0.039-5.953-2.293
			c-1.319-2.198-1.229-4.367,1.116-5.826c3.177-1.978,6.471-3.771,9.717-5.646C166.424,593.367,166.406,593.336,166.386,593.307z"/>
		<path fill="#FC8119" d="M699.49,283.723c-6.019,3.549-11.994,7.181-18.084,10.602c-2.533,1.423-4.959,1.383-6.633-1.682
			c-1.671-3.061-0.521-4.85,2.207-6.357c5.679-3.143,11.02-6.89,16.959-9.563c0.678,1.017,1.479,0.354,2.29,0.223
			c2.576-0.418,4.782,2.022,4.015,4.443C699.996,282.164,699.117,282.736,699.49,283.723z"/>
		<path fill="#FC8119" d="M120.208,436.325c3.956,3.066,3.976,6.272-0.114,8.728c-5.219,3.129-10.532,6.094-15.821,9.103
			c-2.19,1.248-4.451,1.726-6.513-0.202c-2.083-1.941-1.746-4.104-0.286-6.26c2.051-1.148,4.058-2.388,6.162-3.424
			C109.134,441.566,113.808,437.14,120.208,436.325z"/>
		<path fill="#F5C469" d="M603.881,458.2c-11.267,3.142-18.57,10.665-23.29,21.049c-0.566,1.247-1.06,2.526-1.621,3.78
			c-2.046,4.563-2.052,4.557-6.142,2.159c2.514-9.271,6.186-17.923,13.391-24.632c4.037-3.756,8.739-5.683,14.336-4.711
			C601.986,456.097,603.666,456.16,603.881,458.2z"/>
		<path fill="#F5C469" d="M657.434,236.242c2.272-1.309,4.498-2.707,6.824-3.908c2.647-1.367,4.947-0.685,6.355,1.896
			c1.373,2.514,0.943,4.927-1.627,6.478c-4.595,2.776-9.223,5.507-13.944,8.056c-2.727,1.47-5.138,0.65-6.65-2.076
			c-1.476-2.668-0.593-4.821,1.899-6.344c2.346-1.431,4.748-2.758,7.128-4.131C657.425,236.222,657.43,236.232,657.434,236.242z"/>
		<path fill="#F5C469" d="M700.944,472.428c1.942-1.117,3.871-2.266,5.832-3.357c2.799-1.555,4.808-0.287,6.313,2.018
			c1.471,2.25,0.99,4.377-1.208,5.851c-4.143,2.774-8.476,5.241-13.021,7.312c-2.623,1.194-4.746,0.223-5.91-2.217
			c-1.14-2.391-0.734-4.621,1.836-6.063C696.852,474.813,698.889,473.607,700.944,472.428z"/>
		<path fill="#F5C469" d="M578.636,357.115c-3.929-5.946-12.669-7.237-20.332-2.992c-6.558,3.633-9.864,9.917-13.198,16.181
			c-0.702,1.321-0.87,3.37-3.248,2.733c1.68-8.576,4.697-16.491,11.368-22.536c7.325-6.634,18.403-5.817,24.124,1.824
			C578.343,353.656,579.982,355.051,578.636,357.115z"/>
		<path fill="#F5C469" d="M587.824,167.43c1.832-1.058,3.631-2.181,5.511-3.158c2.405-1.258,4.745-0.996,6.261,1.314
			c1.572,2.397,1.134,5.093-1.154,6.655c-3.796,2.592-7.806,4.938-11.947,6.918c-2.594,1.24-4.811-0.257-6.213-2.643
			c-1.452-2.472-0.316-4.299,1.762-5.657c1.874-1.223,3.867-2.262,5.809-3.383C587.842,167.462,587.834,167.446,587.824,167.43z"/>
		<path fill="#FC8119" d="M670.929,260.389c2.259-1.303,4.477-2.688,6.79-3.887c2.564-1.338,4.765-0.344,6.032,1.896
			c1.317,2.318,0.761,4.579-1.738,6.029c-4.302,2.488-8.578,5.033-12.926,7.444c-2.519,1.398-5.073,1.04-6.446-1.514
			c-1.373-2.55-0.888-5.028,2.093-6.538c2.103-1.063,4.1-2.338,6.144-3.52C670.895,260.332,670.912,260.363,670.929,260.389z"/>
		<path fill="#F5C469" d="M566.564,149.37c1.73-0.999,3.408-2.11,5.203-2.971c2.712-1.298,4.938-0.383,6.373,2.096
			c1.428,2.464,0.712,4.675-1.641,6.114c-3.624,2.213-7.352,4.254-11.059,6.329c-2.752,1.542-4.931,0.456-6.338-1.928
			c-1.419-2.413-0.544-4.651,1.676-6.175c1.847-1.27,3.872-2.281,5.819-3.404C566.588,149.413,566.576,149.393,566.564,149.37z"/>
		<path fill="#FC8119" d="M644.127,224.282c-1.72,0.989-3.428,2.011-5.166,2.973c-2.481,1.38-4.516,0.328-5.705-1.746
			c-1.168-2.031-1.067-4.604,1.005-6.023c3.37-2.308,6.945-4.387,10.632-6.139c2.542-1.208,4.888-0.131,6.271,2.354
			c1.363,2.449,0.248,4.309-1.838,5.677c-1.658,1.086-3.426,2.004-5.146,2.998C644.163,224.344,644.146,224.314,644.127,224.282z"/>
		<path fill="#FC8119" d="M326.679,722.774c-1.777,2.601,0.472,4.218,1.666,5.884c1.31,1.82,1,2.744-0.833,3.768
			c-4.456,2.483-8.845,5.082-13.259,7.641c-2.964,0.974-4.132-1.15-4.895-3.215c-0.974-2.63,0.545-4.602,2.708-5.871
			C316.886,728.16,321.802,725.5,326.679,722.774z"/>
		<path fill="#FC8119" d="M699.623,330.484c-1.729,0.997-3.423,2.059-5.19,2.979c-2.509,1.303-4.39,0.257-5.613-1.961
			c-1.236-2.24-0.946-4.418,1.332-5.861c3.054-1.934,6.177-3.77,9.351-5.508c2.748-1.504,4.801-0.189,6.269,2.115
			c1.505,2.36,0.644,4.291-1.563,5.695c-1.473,0.939-3.016,1.762-4.527,2.635C699.66,330.548,699.642,330.516,699.623,330.484z"/>
		<path fill="#FC8119" d="M595.425,485.483c3.314-10.592,13.188-18.759,21.191-17.649
			C611.564,476.1,604.541,481.654,595.425,485.483z"/>
		<path fill="#F5C469" d="M406.977,315.036c3.553,3.466,8.816,3.472,13.104,6.284c-2.516,1.799-5.136,2.319-7.729,2.858
			c-1.864,0.392-2.607,1.249-1.638,3.085c-7.088-2.321-9.537-5.608-10.206-14.35C402.809,313.668,404.893,314.353,406.977,315.036z"
			/>
		<path fill="#FC8119" d="M526.098,497.574c-1.727-3.85,0.321-12.616,3.629-15.157c2.486-1.909,3.827,0.631,5.396,1.69
			c1.307,0.887,1.746,1.99,0.327,3.694c-2.475,2.972-5.145,5.892-6.553,9.628c-0.26,0.691-0.546,1.5-1.387,1.605
			C526.523,499.156,526.409,498.221,526.098,497.574z"/>
		<path fill="#F5C469" d="M726.548,496.159c1.692,2.783,0.899,6.018-1.901,7.774c-2.691,1.688-6.768,0.799-8.201-1.789
			c-1.539-2.772-0.561-6.084,2.281-7.728C721.622,492.743,724.914,493.477,726.548,496.159z"/>
		<path fill="#F5C469" d="M605.584,186.898c3.225-1.855,6.85-1.068,8.467,1.84c1.536,2.77,0.376,6.318-2.61,7.984
			c-2.905,1.615-6.568,0.647-8.1-2.141C601.801,191.773,602.744,188.531,605.584,186.898z"/>
		<path fill="#F5C469" d="M397.829,281.047c2.071,2.533,5.761,1.165,8.073,3.398c-3.298,2.557-7.518,1.842-11.117,3.205
			c-5.413-1.921-6.889-3.266-11.083-10.507c4.279,1.985,8.212,2.364,11.938,3.604c0.699,0.418,1.431,0.651,2.251,0.427
			L397.829,281.047z"/>
		<path fill="#FC8119" d="M520.324,482.222c-1.904,1.791-2.381,1.218-2.822-0.005c-0.984-2.715-0.808-5.425,0.193-8.012
			c0.699-1.811,1.653-4.133,4.015-3.762c2.202,0.35,3.47,2.606,5.038,4.137c0.484,0.475,0.128,1.288-0.319,1.684
			C524.04,478.385,521.517,480.361,520.324,482.222z"/>
		<path fill="#F5C469" d="M272.938,782.044c2.427-1.44,5.816-0.604,7.053,1.884c1.383,2.774,0.677,5.009-2.057,6.584
			c-2.601,1.498-5.653,0.794-7.041-1.686C269.652,786.611,270.616,783.421,272.938,782.044z"/>
		<path fill="#F5C469" d="M798.309,478.545c2.422-1.501,5.803-0.797,7.246,1.508c1.496,2.38,0.631,5.508-1.941,7.018
			c-2.498,1.469-5.604,0.709-7.125-1.732C795.137,483.158,795.988,479.977,798.309,478.545z"/>
		<path fill="#F5C469" d="M403.039,297.004c2.809,3.459,7.342,2.899,11.432,4.671c-4.828,2.946-9.658,1.809-14.315,1.907
			c-3.867-1.454-4.293-5.41-6.714-8.711C397.211,295.049,399.861,297.346,403.039,297.004z"/>
		<path fill="#F5C469" d="M696.719,513.715c1.381,1.922,1.159,3.777-0.242,5.58c-0.433-0.772-1.049-1.038-1.887-0.684
			c-1.377-3.317-3.695-1.028-5.631-0.923c-0.682,0.034-1.26,0.495-0.868,1.21c0.875,1.608,2.625,1.595,4.135,1.921
			c1.524,0.33,1.503-1.345,2.3-1.976c0.523,0.699,1.193,0.762,1.948,0.449c-2.759,3.174-5.954,3.646-8.661,1.281
			c-1.885-1.65-2.133-5.35-0.513-7.543c1.974-2.661,5.249-2.898,8.475-0.603c-1.72,0.695-3.404-1.03-5.12-0.088
			c-0.817,0.448-2.329,0.941-1.42,2.012c1.451,1.702,3.998,0.2,5.932,1.446C695.99,516.328,696.271,514.518,696.719,513.715z"/>
		<path fill="#F5C469" d="M431.803,127.342c-5.072,2.798-9.203,5.759-12.928,9.22c-2.234,2.081-4.613,0.706-7.169,1.213
			C415.609,130.765,423.805,126.422,431.803,127.342z"/>
		<path fill="#FC8119" d="M780.386,499.604c-2.03,0.859-4.062,1.219-5.466-1.137c-1.313-2.197-0.742-4.178,1.345-5.453
			c2.05-1.256,4.129-0.899,5.576,1.129C783.441,496.389,782.285,498.086,780.386,499.604z"/>
		<path fill="#F5C469" d="M219.968,604.012c2.045,0.23,3.799-0.38,5.588-1.418c21.63-12.569,43.302-25.074,64.966-37.585
			c1.169-0.676,2.245-1.61,3.723-1.581c-23.162,13.412-46.313,26.843-69.506,40.197
			C223.349,604.427,221.756,606.502,219.968,604.012z"/>
		<path fill="#F5C469" d="M150.062,573.037c2.249-1.035,4.263-1.23,5.728,0.955c1.281,1.91,0.38,5.244-1.71,6.107
			c-2.218,0.918-4.315,0.257-5.51-1.742C147.289,576.215,148.192,574.336,150.062,573.037z"/>
		<path fill="#F5C469" d="M761.516,421.29c-2.648,1.259-4.666,0.671-6.059-1.489c-1.436-2.222-0.564-4.172,1.504-5.376
			c2.272-1.33,4.449-0.716,5.816,1.498C764.129,418.105,763.167,419.934,761.516,421.29z"/>
		<path fill="#F5C469" d="M531.941,210.093c1.064,1.843,2.16,3.356-0.197,4.321c-1.897,0.775-3.895,2.656-5.913,0.723
			c-1.267-1.214-0.687-9.214,0.366-9.218C529.172,205.909,530.486,208.582,531.941,210.093z"/>
		<path fill="#FC8119" d="M639.39,178.096c-2.147,1.197-3.956,1.051-5.279-0.961c-1.321-2.004-0.848-3.859,1.14-5.03
			c1.863-1.097,3.904-1.1,5.177,0.988C641.604,175.027,641.383,176.871,639.39,178.096z"/>
		<path fill="#FC8119" d="M284.378,752.691c0.568,1.938,0.859,3.959-1.269,5.178c-1.967,1.125-3.989,0.665-5.276-1.176
			c-1.458-2.094-0.288-3.866,1.491-5.023C281.12,750.496,282.866,751.093,284.378,752.691z"/>
		<path fill="#F5C469" d="M738.47,342.938c1.177,2.252,0.621,4.234-1.468,5.44c-2.04,1.179-4.24,0.922-5.502-1.304
			c-1.207-2.128-0.71-4.166,1.481-5.438C735.119,340.397,737.029,340.771,738.47,342.938z"/>
		<path fill="#F5C469" d="M481.213,201.113c1.162,2.398,0.505,8.531-1.092,8.733c-2.637,0.336-5.139-1.62-5.598-3.473
			c-0.833-3.368,3.523-3.587,5.08-5.725C480.208,199.814,480.852,200.401,481.213,201.113z"/>
		<path fill="#F5C469" d="M495.026,187.482c0.114-0.066,0.595-0.484,0.722-0.395c2.326,1.632,1.782,4.168,1.726,6.406
			c-0.033,1.275-0.214,3.313-2.573,2.464c-1.391-0.501-2.73-1.161-4.069-1.8c-1.323-0.631-1.565-1.461-0.378-2.518
			C491.934,190.323,493.387,188.979,495.026,187.482z"/>
		<path fill="#F5C469" d="M190.986,654.843c2.118-0.833,4.026-1.194,5.26,1.16c1.189,2.268,0.578,4.346-1.489,5.464
			c-2.172,1.173-4.269,0.1-5.31-1.97C188.523,657.655,189.105,655.85,190.986,654.843z M195.296,656.69
			c-0.879-1.292-1.913-1.005-2.948-0.447c-1.118,0.607-2.34,1.42-1.482,2.809c0.616,1,1.929,1.727,3.201,1.074
			C195.455,659.412,195.516,658.013,195.296,656.69z"/>
		<path fill="#F5C469" d="M497.375,220.396c-0.13,1.373,2.883,2.59,0.531,3.888c-1.736,0.956-4.037,1.991-6.156,0.54
			c-0.646-0.441,0.949-7.5,1.771-7.676C496.029,216.621,496.04,219.232,497.375,220.396z"/>
		<path fill="#F5C469" d="M504.238,179.676c0.583-2.617,2.962-3.764,4.485-5.535c0.784-0.912,1.626-0.48,1.896,0.59
			c0.636,2.54,2.509,5.707,0.013,7.482C508.768,183.538,506.354,181.172,504.238,179.676z"/>
		<path fill="#F5C469" d="M515.019,216.63c0.051,1.315,2.867,2.761,0.005,3.792c-1.739,0.623-3.733,2.367-5.686,0.513
			c-0.817-0.778,0.61-7.001,1.653-7.274C513.404,213.031,513.764,215.46,515.019,216.63z"/>
		<path fill="#F5C469" d="M523.348,161.563c0.736,2.3,2.238,5.003-0.193,6.452c-1.834,1.092-4.146-0.746-6.029-1.852
			c-0.488-0.286,3.213-5.494,4.264-5.926C522.816,159.653,523.027,160.771,523.348,161.563z"/>
		<path fill="#FC8119" d="M509.959,461.145c1.898,0.984,4.957,0.769,4.733,3.361c-0.097,1.15-3.141,3.277-3.774,2.938
			C508.38,466.102,511.236,463.282,509.959,461.145z"/>
		<path fill="#F5C469" d="M456.982,216.439c2.111-1.667,4.933-1.717,6.971-3.881c1.371,3.063,0.489,5.534-0.6,7.896
			c-0.639,1.378-1.672,1.15-2.611,0.075C459.553,219.178,458.307,217.875,456.982,216.439z"/>
		<path fill="#F5C469" d="M476.738,220.992c1.727,2.695,4.596,4.363,3.125,6.895c-0.683,1.171-4.563,1.766-5.406,0.36
			C473.117,226.02,475.439,223.797,476.738,220.992z"/>
		<path fill="#F5C469" d="M699.49,283.723c-0.373-0.986,0.506-1.559,0.752-2.334c0.768-2.424-1.44-4.861-4.015-4.442
			c-0.812,0.134-1.614,0.792-2.292-0.224c3.094-2.045,5.962-1.943,7.361,0.536C702.764,279.853,702.67,282.289,699.49,283.723z"/>
		<path fill="#F5C469" d="M653.372,291.206c-5.341-9.257-10.681-18.515-16.01-27.759
			C643.203,272.422,649.065,281.367,653.372,291.206z"/>
		<path fill="#F5C469" d="M120.208,436.325c-6.4,0.814-11.074,5.241-16.568,7.942c-2.108,1.035-4.113,2.277-6.166,3.424
			c4.737-4.455,10.961-6.541,16.228-10.158C115.64,436.201,117.712,434.951,120.208,436.325z"/>
		<path fill="#F5C469" d="M598.987,501.396c0,0-0.101,0.057-0.097,0.053C598.891,501.445,598.987,501.396,598.987,501.396z"/>
		<polygon fill="#FC8119" points="159.787,512.464 159.771,512.432 159.63,512.399 		"/>
		<path fill="#F5C469" d="M560.828,218.522c0.299,0.574,0.297,1.106-0.211,1.573C560.313,219.521,560.437,219.003,560.828,218.522z"
			/>
		<path fill="#FC8119" d="M397.892,281.174c-0.82,0.225-1.553-0.009-2.251-0.427C396.553,280.047,397.492,279.181,397.892,281.174z"
			/>
		<path fill="#013F54" d="M580.729,587.983c1.624-0.936,3.22-1.928,4.878-2.797c3.156-1.662,6.387-1.018,8.344,1.584
			c2.057,2.746,1.964,6.562-0.797,8.756c-3.804,3.021-7.919,5.735-12.574,7.29c-3.566,1.189-5.949-0.084-7.525-3.454
			c-1.547-3.313-0.841-6.131,2.192-8.142c1.769-1.17,3.665-2.143,5.505-3.206C580.743,588.005,580.737,587.994,580.729,587.983z"/>
		<path fill="#013F54" d="M400.185,200.635c-1.662-1.035-3.372-1.994-4.974-3.115c-9.803-6.858-9.537-20.059-3.021-28.571
			c6.112-7.989,19.958-9.282,27.604-2.209c6.662,6.16,8.581,14.063,5.327,22.854C417.939,200.714,413.032,202.888,400.185,200.635z
			 M408.26,185.672c2.391-1.412,3.203-4.373,1.849-6.732c-1.555-2.713-3.982-3.203-6.952-1.445
			c-2.669,1.572-3.031,3.709-1.584,6.287C402.963,186.258,405.895,187.069,408.26,185.672z"/>
		<path fill="#013F54" d="M499.484,138.648c1.094,1.672,1.266,3.662,0.025,5.451c-1.327,1.917-3.354,2.57-5.604,1.789
			c-2.107-0.729-4.136-1.67-6.221-2.463c-1.01-0.384-2.15-1.449-3.137-0.581c-3.148,2.778-4.11-0.464-5.355-2.013
			c-1.613-2.008-1.797-4.313,0.191-6.433c1.492-1.589,3.508-1.838,5.439-2.24C490.1,131.056,496.905,134.049,499.484,138.648z"/>
		<path fill="#F5C469" d="M400.185,200.635c12.848,2.253,17.759,0.08,24.937-11.039c0.217,5.484-3.313,8.859-7.094,11.841
			c-4.036,3.188-8.925,4.031-14.008,4.021C400.566,205.445,400.158,203.277,400.185,200.635z"/>
		<path fill="#F5C469" d="M290.397,469.739l0.031,0.009L290.397,469.739z"/>
		<path fill="#013F54" d="M453.966,346.455c-0.04,0.069-0.079,0.137-0.116,0.201c-0.002-0.053-0.003-0.104-0.012-0.154
			C453.83,346.504,453.966,346.455,453.966,346.455z"/>
		<path fill="#F5C469" d="M178.757,465.096c-0.348,0.581-0.529,0.456-0.597-0.143C178.358,464.994,178.56,465.043,178.757,465.096z"
			/>
		<path fill="#FC8119" d="M694.525,518.844c-0.8,0.631-0.776,2.307-2.3,1.976c-1.512-0.325-3.26-0.313-4.135-1.921
			c-0.392-0.716,0.188-1.174,0.868-1.21c1.936-0.105,4.254-2.394,5.631,0.923L694.525,518.844z"/>
		<path fill="#FC8119" d="M696.719,513.715c-0.447,0.805-0.729,2.613-1.551,2.084c-1.936-1.242-4.482,0.259-5.934-1.443
			c-0.907-1.072,0.604-1.566,1.42-2.012c1.718-0.941,3.402,0.781,5.122,0.088C696.088,512.855,696.402,513.284,696.719,513.715z"/>
		<path fill="#FC8119" d="M694.588,518.609c0.839-0.354,1.455-0.087,1.885,0.682l0.002,0.001c-0.756,0.313-1.426,0.251-1.949-0.448
			L694.588,518.609z"/>
		<path fill="#FC8119" d="M195.296,656.69c0.219,1.321,0.161,2.724-1.231,3.437c-1.274,0.653-2.583-0.075-3.2-1.074
			c-0.859-1.392,0.364-2.205,1.483-2.81C193.383,655.686,194.415,655.399,195.296,656.69z"/>
		<path fill="#F5C469" d="M408.26,185.672c-2.365,1.397-5.297,0.586-6.688-1.891c-1.449-2.577-1.085-4.715,1.584-6.287
			c2.975-1.756,5.397-1.268,6.952,1.445C411.464,181.299,410.65,184.26,408.26,185.672z"/>
	</g>
</g>
</svg>
