<?xml version="1.0" encoding="utf-8"?>
<!-- Generator: Adobe Illustrator 16.0.3, SVG Export Plug-In . SVG Version: 6.00 Build 0)  -->
<!DOCTYPE svg PUBLIC "-//W3C//DTD SVG 1.1//EN" "http://www.w3.org/Graphics/SVG/1.1/DTD/svg11.dtd">
<svg version="1.1" id="Layer_1" xmlns="http://www.w3.org/2000/svg" xmlns:xlink="http://www.w3.org/1999/xlink" x="0px" y="0px"
	 width="768px" height="768px" viewBox="0 0 768 768" enable-background="new 0 0 768 768" xml:space="preserve">
<rect fill="#013F54" width="771.023" height="771.023"/>
<g>
	<path fill="#FC8119" d="M244.828,615.834c0.693-0.178,1.387-0.355,2.222-0.568c-1.116-2.281-3.607-2.703-5.167-4.236
		c-0.603-0.595-1.619-0.98-1.2-2.044c0.333-0.846,1.269-0.673,1.977-0.686c3.873-0.065,7.747-0.114,11.621-0.115
		c53.118-0.019,106.235-0.025,159.354-0.044c2.249,0,4.512,0.104,6.745-0.095c4.388-0.385,6.646-2.767,6.511-6.604
		c-0.133-3.77-2.155-5.503-6.933-5.503c-16.748-0.007-33.495,0.116-50.242,0.128c-47.994,0.026-95.988-0.105-143.981,0.181
		c-6.902,0.041-12.162-1.711-17.348-6.271c-14.888-13.079-29.108-26.745-41.188-42.514c-9.855-12.861-18.511-26.479-25.446-41.141
		c-1.685-3.563-1.404-3.755,2.61-3.736c20.494,0.092,40.987,0.188,61.48,0.245c1.483,0.005,3.028-0.077,4.438-0.484
		c3.382-0.976,5.517-4.222,4.818-7.415c-0.738-3.374-3.148-4.988-6.497-5.024c-6.247-0.066-12.496,0.013-18.744,0.015
		c-16.123,0.002-32.249-0.195-48.366,0.104c-5.073,0.094-9.09-0.137-9.821-6.268c1.881,0.854,3.777-0.06,5.672-0.045
		c14.201,0.115,28.404,0.082,42.606,0.09c1.121,0,2.253,0.054,3.36-0.084c3.842-0.471,5.26-3.427,3.249-6.697
		c-0.455-0.74-0.959-1.451-1.44-2.179c6.188-0.085,12.377-0.189,18.566-0.249c4.427-0.041,7.634-1.723,8.394-4.719
		c1.001-3.947-1.202-6.301-4.353-8.083c-1.265-0.767-2.664-0.492-4.015-0.492c-25.019,0.002-50.037-0.004-75.055,0.066
		c-2.069,0.006-3.893-0.344-5.547-1.563c-1.953-6.133-3.34-12.343-4.301-18.753c-0.909-6.069-2.009-12.129-2.861-18.23
		c-2.143-15.359-2.255-30.771-1.84-46.225c0.21-7.815,0.696-15.574,2.297-23.24c12.014-0.82,21.888,2.957,29.697,12.552
		c6.596,8.105,11.857,16.98,16.742,26.097c7.432,13.869,14.958,27.768,24.646,40.113c11.781,15.017,24.95,28.89,42.174,38.021
		c2.316,1.229,2.767,2.592,1.635,4.766c-1.982,3.807-2.863,7.99-3.971,12.076c-3.412,12.576-9.599,23.509-19.004,32.551
		c-6.875,6.607-11.622,14.018-9.699,24.136c-8.248,4.396-7.565,15.395-2.5,22.638c7.596,10.863,19.627,13.891,32.181,11.166
		c16.098-3.49,24.736-14.959,30.568-29.282c3.513-8.63,6.363-17.528,10.623-25.85c0.277-0.542,0.692-1.015,1.043-1.52
		c18.208,9.336,37.425,15.756,57.416,19.986c10.528,2.23,21.165,3.286,31.907,3.896c12.824,0.726,25.344-0.896,37.854-3.349
		c4.458-0.872,8.822-3.559,13.507-1.817c7.107,2.639,13.221,6.748,18.113,12.729c5.518,6.742,8.538,14.912,13.29,22.102
		c10.882,16.459,33.373,20.857,48.688,8.155c5.883-4.88,12.759-9.995,9.693-19.646c-0.161-0.51,0.181-1.179,0.287-1.773
		c0.418-0.22,0.836-0.438,1.248-0.654c-0.004,0.002,0.111,0.004,0.111,0.004c3.791-1.88,7.825-2.68,11.991-2.112
		c6.2,0.845,11.927-0.391,17.213-3.563c5.14-3.084,9.998-2.776,14.464,1.051c1.896,1.627,2.833,1.216,4.093-0.569
		c7.153-10.136,8.208-21.059,3.298-32.215c-5.396-12.258-15.498-18.431-28.637-19.604c-14.593-1.304-27.014,4.226-38.444,12.688
		c-1.168,0.864-2.142,2.11-3.705,2.384c-1.267-0.184-1.979-0.903-2.199-2.176c-0.506-2.943-1.157-5.869-1.543-8.828
		c-1.437-11.063-4.173-21.799-8.513-32.057c-2.667-6.306-2.828-6.078,2.123-10.74c1.989-1.873,3.421-1.869,5.432-0.265
		c2.335,1.867,4.875,3.431,7.805,4.327c16.782,5.146,32.068,0.388,43.07-13.39c1.448-1.813,2.65-4.37,5.142-4.634
		c5.191-0.552,7.836-3.798,9.79-8.07c12.587,4.363,21.354,1.566,27.152-9.651c4.73-9.147,3.175-18.443-2.291-26.854
		c-7.097-10.924-17.789-14.417-30.342-13.491c3.785-0.086,3.878-2.559,3.623-5.459c-0.258-2.934-1.484-4.613-4.611-4.7
		c-4.143-0.115-7.873,1.454-11.49,3.036c-3.286,1.436-3.635,0.229-3.355-2.565c0.551-5.579,1.264-11.159,1.453-16.754
		c0.486-14.353,0.228-28.695-1.632-42.967c-0.265-2.014-0.526-3.937,2.543-3.543c13.233,1.695,26.491,3.153,39.823,3.879
		c15.356,0.835,30.127-0.209,42.907-10.408c3.107-2.479,3.765-4.959,3.21-8.36c-0.396-2.438-1.438-4.817-0.614-7.356l-0.081,0.253
		c0,0-0.252-0.083-0.25-0.083c0.671-0.152,0.938-0.613,0.969-1.257c1.31-2.654,2.809-5.232,3.893-7.976
		c2.512-6.344,0.059-12.006-6.212-14.588c-0.864-0.357-1.528-0.637-1.847-1.591c-3.592-10.827-12.159-16.157-22.1-19.971
		c-0.459-0.176-0.868-0.484-1.646-0.928c4.95-1.763,10.056-2.438,14.162-5.612c0.613-0.474,1.947-0.191,2.903-0.017
		c3.438,0.627,6.687-0.147,9.056-2.479c2.488-2.449,3.563-0.987,4.749,0.949c5.499,8.977,10.514,18.218,15.187,27.651
		c7.533,15.209,13.354,31.092,17.473,47.505c4.463,17.783,7.742,35.821,8.2,54.23c-0.008,10.67-0.013,21.358-0.017,32.044
		c-0.198,11.392-1.961,22.596-4.077,33.756c-1.737,9.177-3.698,18.291-6.438,27.242c-7.132,23.313-17.035,45.274-30.703,65.55
		c-10.173,15.09-21.547,29.131-34.279,42.119c-16.742,17.081-35.379,31.788-55.489,44.672c-2.088,1.337-4.206,2.626-6.341,3.891
		c-4.055,2.406-8.331,3.552-13.166,3.388c-8.235-0.28-16.492-0.077-24.738-0.021c-6.354,0.045-9.352,3.767-7.364,9.713
		c0.89,2.665-0.105,3.146-2.132,3.941c-12.923,5.082-26.332,8.155-39.979,10.614c-21.268,3.832-42.657,4.947-64.136,3.379
		c-12.896-0.941-25.729-2.799-38.394-5.681c-8.615-1.961-17.172-4.022-25.305-7.516c0.005-0.326,0.01-0.652,0.015-0.979
		c2.238,0,4.477,0,6.715,0c31.867,0.003,63.732,0.007,95.601-0.002c1.497,0,3.021,0.06,4.486-0.176
		c3.394-0.54,5.788-3.497,5.712-6.828c-0.076-3.283-2.688-6.049-6.146-6.397c-1.236-0.125-2.496-0.055-3.746-0.056
		c-45.489-0.024-90.979-0.047-136.468-0.085c-1.493-0.001-2.985-0.157-4.464-0.241c-0.919-1.813-2.609-0.924-3.947-1.01
		c-5.717-0.366-11.626,0.672-17.397-2.533C246.564,620.939,244.172,617.992,244.828,615.834z M443.552,626.303
		c0,0.014,0,0.024,0,0.036c-2.124,0-4.254-0.104-6.37,0.023c-3.632,0.224-5.651,2.313-5.969,5.954
		c-0.321,3.708,1.106,6.002,4.79,6.754c4.812,0.979,9.729,0.688,14.534-0.025c3.488-0.52,5.479-3.777,5.066-7.186
		c-0.393-3.232-2.865-5.403-6.433-5.543C447.303,626.242,445.426,626.303,443.552,626.303z"/>
	<path fill="#FC8119" d="M136.258,282.186c13.047-28.875,30.628-54.666,52.39-77.692c14.445-15.284,30.644-28.333,48.51-39.348
		c22.319-13.762,46-24.455,71.149-31.99c31.929-9.566,64.512-12.919,97.662-10.597c20.085,1.407,39.754,5.326,59.042,11.237
		c6.313,1.935,12.466,4.238,18.66,6.467c0.982,0.354,1.786,0.858,2.583,1.872c-2.144,1.482-4.682,1.971-6.975,2.991
		c-8.021,3.566-14.291,9.248-19.436,16.261c-0.355,0.488-0.487,1.166-1.259,1.216c-2.482,0.836-5.053,1.474-7.434,2.534
		c-15.582,6.939-25.801,19.457-33.381,34.021c-8.606,16.533-12.12,34.5-11.983,53.163c0.063,8.748,0.138,17.5-0.064,26.245
		c-0.19,8.329-2.995,15.935-7.611,22.795c-8.232,12.231-20.724,18.491-34.009,23.303c-12.34,4.47-25.048,7.631-37.955,10.18
		c-22.067,4.356-44.051,5.473-66.125,0.401c-11.394-2.618-22.128-6.777-32.065-13.069c-11.376-7.204-22.093-15.363-33.601-22.392
		c-13.657-8.341-28.151-13.83-44.055-15.637C145.609,283.61,140.939,282.845,136.258,282.186z"/>
</g>
<g>
	<path fill="#FC8119" d="M426.406,325.343c0.096-0.076,0.185-0.206,0.291-0.223c4.863-0.75,4.791-0.703,2.094-5
		c-0.888-1.412-2.233-2.707-2.119-4.617c0.077-2.075,1.148-2.447,2.96-1.849c2.517,0.829,5.045,1.685,8.124,1.385
		c-2.307-4.579-6.862-7.216-8.207-11.994c1.184-0.635,2.135,0.263,3.178,0.5c0.959,0.218,1.884,0.595,2.824,0.901
		c-1.823-3.489-3.757-6.928-5.419-10.493c-0.586-1.256-1.437-2.669-0.761-4.239c4.083,2.245,7.695,5.646,13.352,5.507
		c-2.655-3.579-6.863-5.361-7.564-9.76c1.098,0.142,2.193,0.283,3.532,0.456c-1.34-4.551-5.209-7.923-6.007-12.682
		c3.802,0.619,7.099,3.346,11.232,2.781c-0.887-3.091-4.766-3.749-5.293-6.979c-1.797-5.131-6.011-9.333-5.842-15.219
		c2.246,2.501,4.566,4.903,8.133,6.442c-6.057-12.687-7.465-18.859-5.812-25.668c1.79,2.599,3.404,5.031,5.122,7.389
		c0.671,0.918,1.189,2.711,2.684,1.868c0.98-0.554,0.407-2.067,0.038-3.135c-2.604-7.537-2.247-15.229-1.185-22.951
		c0.167-1.207,0.135-2.919,1.495-3.165c1.747-0.316,1.962,1.729,2.45,2.794c1.086,2.363,2.122,4.619,4.909,6.173
		c-0.097-1.297-0.204-2.146-0.21-2.996c-0.072-9.31-1.032-18.775,4.848-27.029c1.316-1.849,1.962-4.017,2.572-6.181
		c2.126,1.186,4.146,2.48,5.107,4.889c1.819,0.693,2.31-0.425,2.934-1.853c1.057-2.418,1.344-5.017,2.111-7.487
		c6.529-20.989,31.222-28.365,48.026-14.113c3.114,2.641,5.658,3.087,9.386,2.202c8.676-2.058,10.847-0.344,12.318,8.314
		c0.391,2.292-0.02,4.888,1.658,6.943c1.207-0.722,1.211-1.792,1.488-2.729c3.585-12.087,5.81-13.499,18.32-11.627
		c0.493,0.073,0.982,0.185,1.467,0.302c4.744,1.145,4.862,1.431,3.109,6.031c-2.073,5.443-3.291,11.047-3.018,16.951
		c2.107-4.828,4.777-9.29,7.155-13.903c1.487-2.886,7.137-6.681,10.312-6.196c10.733,1.638,19.955,5.671,24.521,16.503
		c0.476,1.121,1.239,2.555,2.267,1.89c4.092-2.65,5.75,0.889,7.875,2.894c3.115,2.938,4.809,11.006,3.27,14.37
		c-6.142,3.366-12.905,5.107-19.471,7.333c-12.83,4.351-25.955,7.849-39.252,10.174c-13.072,2.284-26.213,4.639-39.566,5.022
		c-4.974,0.142-9.951,0.751-14.895,0.935c-10.188,0.377-20.422-0.047-30.3-3.141c-3.548-1.111-7.177-1.081-10.749-0.716
		c-4.265,0.438-6.583,4.372-5.84,9.2c0.322,2.087,0.639,4.176,0.953,6.265c-0.922,1.203-3.188,1.848-2.289,3.816
		c0.736,1.612,2.659,0.94,4.098,1.054c3.858,0.306,7.73,0.559,11.479,1.601c11.729,3.259,22.394,9.118,33.494,13.891
		c11.688,5.024,23.378,10.001,35.588,13.634c12.775,3.801,25.605,7.424,38.692,9.99c2.596,0.509,5.539,1.529,8.003-0.758
		c3.221,0.301,6.442,0.58,9.66,0.921c0.689,0.073,1.625,0.035,1.741,1.028c0.104,0.878-0.716,1.355-1.271,1.717
		c-5.379,3.514-11.242,6.003-17.673,6.325c-16.252,0.815-32.416-0.605-48.566-2.339c-12.401-1.33-24.658-3.411-36.729-6.542
		c-11.667-3.025-22.052-8.218-29.488-18.106c-2.221-2.954-4.126-6.143-5.215-9.735c-0.283-0.934-0.337-2.077-1.566-2.319
		c-1.392-0.275-2.065,0.84-2.626,1.743c-1.168,1.886-2.043,3.828-2.244,6.191c-1.063,12.475,5.027,21.62,13.347,29.89
		c4.124,4.099,9.452,6.303,14.98,9.819c-9.374,3.766-17.334,0.403-25.438-2.223c2.508,3.999,11.373,10.008,17.047,11.743
		c5.129,1.568,10.307,2.824,15.672,3.249c0.773,0.061,2.002-0.205,2.131,0.978c0.102,0.923-0.789,1.442-1.551,1.937
		c-2.553,1.659-5.293,2.793-8.354,2.912c-3.24,0.124-6.492,0.012-9.729,0.19c-3.161,0.174-5.977-1.628-9.843-1.564
		c8.624,8.737,19.493,10.181,31.072,12.363c-11.057,8.155-21.956,5.187-33.021,2.215c2.121,3.56,8.208,7.799,12.767,9.259
		c5.104,1.636,10.15,3.434,15.629,3.384c1.049-0.009,2.563,0.033,2.698,1.436c0.143,1.454-1.423,1.743-2.403,1.83
		c-7.198,0.633-14.301,2.728-21.534,2.22c-3.879-0.271-7.59-2.143-11.18-3.833c-0.018,0.048-0.043,0.094-0.066,0.141
		c0.064-0.039,0.134-0.077,0.2-0.115c1.435,3.355,4.543,5.111,7.134,7.333c1.363,1.169,2.115,2.427,0.709,3.728
		c-4.583,4.236-5.68,10-7.148,15.608c-0.646,2.462-1.479,5.482-3.772,6.012c-2.554,0.588-3.477-2.688-4.659-4.566
		c-2.108-3.349-3.535-7.1-5.948-10.294c-3.136-4.151-7.119-7.116-11.874-9.214c-2.703-1.194-3.175-0.045-2.759,2.193
		c2.001,10.781,5.869,20.803,12.313,29.754c-0.367,4.853,2.373,7.975,6.159,10.153c4.352,2.506,8.993,2.189,13.147-0.449
		c7.234-4.596,12.199-11.176,15.304-19.12c2.265-5.79,5.043-10.938,12.049-11.852c-1.677,1.771-3.587,3.322-4.733,5.57
		c-0.508,0.995-1.521,1.931-1.021,3.047c0.625,1.387,2.003,0.471,3.014,0.457c5.031-0.064,6.479,0.679,8.894,5.14
		c-7.212-0.789-12.871,1.929-16.918,7.483c-2.023,2.772-3.197,6.158-4.862,9.207c-8.576,15.708-21.885,17.272-36.24,10.731
		c-8.229-3.749-15.106-9.691-20.563-16.853c-5.035-6.605-7.916-14.356-8.473-22.751c-0.254-3.848-0.043-7.726-0.043-12.435
		c-3.829,2.632-4.974,6.16-5.912,9.341c-4.002,13.525-1.268,25.907,7.527,36.849c7.121,8.86,16.181,15.354,26.628,19.646
		c6.032,2.479,10.478,7.562,16.806,9.439c1.464,0.435,1.27,1.486-0.179,2.307c-5.392,3.058-10.705,1.646-15.769-0.538
		c-9.526-4.107-17.645-10.29-24.613-18.043c0.686,3.65,5.758,11.176,9.771,15.563c4.522,4.943,9.386,9.305,15.428,12.318
		c1.782,0.889,1.698,1.569-0.223,2.989c-5.898,4.36-10.993,2.751-15.955-1.31c-4.021-3.291-8.011-6.637-11.808-10.18
		c-3.788-3.533-7.098-7.535-10.444-12.113c-0.116,3.789,1.848,6.511,3.123,9.296c3.568,7.794,8.124,14.987,14.864,20.531
		c1.737,1.431,1.443,2.024-0.593,2.949c-7.288,3.305-11.479,2.019-16.102-5.267c-4.087-6.44-6.82-13.5-9.086-20.713
		c-4.151-13.216-10.125-25.42-19.673-35.57c-7.013-7.454-14.935-13.771-25.214-16.175c-4.782-1.118-9.63-1.61-14.107,1.29
		c-7.794,0.394-12.955,2.211-14.979,5.313c16.894,1.916,32.263,7.445,45.195,18.819c0.232,0.204,0.716,0.123,1.082,0.177
		c9.038,11.714,14.105,25.118,17.139,39.468c1.748,8.27,1.813,16.6,1.704,24.963c-0.144,11.287-2.582,21.941-8.992,31.43
		c-4.898,7.248-11.456,11.941-20.372,12.879c-11.304,1.19-21.992-1.434-32.545-5.09c-11.144-3.86-22.117-8.146-33.096-12.437
		c-2.513-0.981-5.326-1.422-8.038-1.621c-5.609-0.414-9.469,2.396-12.604,6.94c-7.228,10.479-11.811,22.33-17.78,33.457
		c-3.621,6.747-7.494,13.072-14.559,16.825c-5.012,2.663-10.07,2.921-16.391,1.122c6.338-3.914,9.45-9.6,13.28-14.698
		c0.661-0.88,1.416-1.433,0.163-2.372c-3.544-2.654-2.058-4.501,0.643-6.933c10.08-9.075,15.604-20.938,19.744-33.57
		c0.616-1.88,1.324-3.729,1.991-5.597c1.138,0.91,1.135,0.909,2.002-0.533c3.021-5.03,5.844-10.229,10.862-13.662
		c4.126-2.817,9.485-4.26,12.942-1.138c4.366,3.942,7.53,3.526,12.553,1.925c6.619-2.107,13.578-0.511,20.198,1.753
		c10.582,3.617,19.572,9.818,28.015,16.953c0.707,0.598,1.266,1.598,2.687,1.112c-0.566-2.144-1.133-4.271-1.697-6.4
		c0.104-5.598-2.134-10.455-5.144-14.922c-1.843-2.735-0.818-3.726,1.761-4.375c2.28-0.575,4.563-1.136,7.469-1.856
		c-4.806-2.902-9.517-3.276-14.327-3.009c-3.776,0.211-7.313,0.277-10.38-2.741c-1.496-1.475-1.073-1.92-0.031-3.182
		c3.135-3.796,7.682-5.247,11.788-7.428c1.422-0.754,2.975-1.261,4.44-1.869c-5.229-2.188-9.477-0.306-16.118,0.802
		c-2.886,0.48-5.847,1.291-8.323,3.156c-1.692,1.272-3.313,1.215-4.305-0.849c-0.921-1.912-3.29-3.541-0.615-6.112
		c6.049-5.814,13.278-9.499,20.995-12.422c0.693-0.263,1.396-0.503,2.052-0.963c-7.82-0.363-15.528-0.115-22.673,3.748
		c-1.081,0.584-2.241,1.182-3.429,1.371c-1.686,0.268-2.783,4.255-5.031,0.884c-2.494-3.742-2.291-6.55,0.161-9.063
		c3.706-3.795,8.718-5.079,13.254-7.278c1.063-0.518,2.412-0.493,3.329-1.878c-6.324-0.645-12.383-0.41-18.3,1.302
		c-2.742,0.794-3.869,0.58-4.151-2.781c-0.797-9.494,1.113-18.56,3.819-27.809c-2.62,1.489-2.62,1.489-6.166,9.06
		c-1.158-5.241-0.53-10.14-0.715-15.803c-7.504,6.402-11.36,13.922-13.565,22.655c-2.179,8.625-1.347,17.344-1.472,26.128
		c-13.919-6.271-25.396-34.537-13.659-60.68c-7.061,7.076-11.977,14.394-14.73,23.259c-2.321,7.476-3.307,14.983-2.634,22.755
		c0.083,0.961,0.438,2.309-0.475,2.796c-1.16,0.616-1.951-0.663-2.706-1.383c-10.341-9.821-13.681-22.147-12.707-35.965
		c0.339-4.813,1.188-9.542,3.165-14.057c-11.712,7.599-16.187,18.827-15.984,32.476c-12.472-7.305-14.802-27.562-5.762-49.489
		c-5.73,1.066-8.788,5.104-12.256,8.544c-3.77,3.739-4.025,9.229-6.634,13.614c-9.033-8.8-8.668-20.731,1.237-38.368
		c-7.413,1.549-11.778,6.487-15.795,11.892c-0.726,0.977-1.361,2.789-2.098,2.821c-1.376,0.059-1.871-1.654-2.441-2.862
		c-3.182-6.745-1.959-13.289,0.904-19.757c0.684-1.544,1.991-2.852,1.955-5.062c-6.417,1.479-10.272,5.718-12.97,10.97
		c-1.146,2.23-1.726,2.072-3.358,0.783c-4.931-3.892-5.828-10.436-2.338-18.075c0.252-0.554,0.548-1.087,0.881-1.741
		c-4.752,0.998-9.2,5.085-10.719,10.127c-0.694,2.306-1.449,2.767-3.616,1.501c-6.062-3.54-6.628-5.209-4.381-14.776
		c-3.956,0.763-7.856,4.715-9.51,9.713c-0.412,1.244-0.231,2.908-2.281,2.757c-1.818-0.135-3.853,0.202-4.841-1.945
		c-0.727-1.581-1.342-3.213-2.074-4.792c-1.031-2.222-2.351-2.438-3.824-0.396c-1.515,2.101-2.043,4.535-2.133,7.062
		c-0.064,1.798-0.772,2.867-2.681,2.813c-8.296-0.24-14.011,5.303-20.409,9.224c-2.597,1.591-4.813,3.803-7.202,5.731
		c5.126-9.32,12.803-16.322,20.914-22.905c5.603-4.549,12.348-7.045,18.914-9.64c10.097-3.989,20.787-3.823,31.382-2.691
		c2.385,0.255,6.246,0.61,5.121,5.112c-0.24,0.554-0.147,0.752,0.447,0.422c5.292-1.706,10.584-1.685,15.778,0.292
		c5.367,2.042,5.749,3.119,3.033,7.518c1.388,0.9,2.895,0.346,4.339,0.367c5.467,0.079,10.192,2.097,14.297,5.593
		c1.729,1.472,2.164,2.979-0.281,4.403c-1.442,0.838-2.926,1.779-3.992,3.512c1.628,0.764,2.929,0.157,4.167-0.179
		c2.575-0.698,5.181-0.736,7.804-0.611c0.965,0.046,2.309-0.021,2.266,1.351c-0.071,2.309,1.556,2.582,3.121,2.982
		c1.725,0.442,3.252,1.278,4.702,2.256c2.227,1.504,2.303,2.935-0.397,3.888c-1.596,0.563-3.002,1.135-3.159,3.272
		c2.199-0.019,4.23-0.261,6.242-1.003c2.601-0.96,5.342-1.244,8.104-1.051c0.935,0.065,2.498,0.226,1.858,1.591
		c-1.683,3.591,0.825,3.259,2.939,3.568c1.597,0.234,3.158,0.707,4.744,1.034c2.926,0.604,3.101,1.627,1.107,3.917
		c-2.362,2.713-4.897,5.569-4.204,9.93c1.955-1.396,3.402-3.233,5.105-4.789c5.861-5.35,11.885-6.474,17.81-3.63
		c2.685,1.289,3.833,2.729,2.195,5.805c-1.619,3.042-3.267,6.201-3.192,9.848l-0.022-0.023c2.258-0.679,3.056-2.832,4.342-4.439
		c3.396-4.24,7.654-7.1,12.865-8.555c0.694-0.193,1.546-0.558,2.109,0.111c0.603,0.717,0.038,1.405-0.454,1.963
		c-0.817,0.926-2.185,2.017-1.229,3.142c1.166,1.37,2.854,0.346,4.105-0.366c2.97-1.688,6.091-2.595,10.044-2.691
		c-4.091,6.05-6.624,12.128-5.436,19.238c0.27-0.104,0.453-0.117,0.482-0.19c0.273-0.697,0.491-1.419,0.779-2.108
		c3.25-7.807,7.47-14.655,16.277-17.292c3.853-1.153,4.28-1.004,3.684,2.869c-0.514,3.326-0.142,6.478,1.001,10.277
		c0.701-1.553,1.053-2.473,1.516-3.333c2.367-4.401,4.55-8.952,9.438-11.256c2.173-1.023,3.17-1.017,2.791,1.964
		c-0.372,2.92-1.003,5.984,0.389,9.438c0.873-1.582,1.436-2.685,2.074-3.744c2.02-3.346,4.301-6.391,7.947-8.23
		c2.443-1.231,3.646-0.775,4.21,1.946c0.531,2.555,1.006,5.164,2.402,7.453c0.397,0.651,0.849,1.308,1.754,1.013
		c0.717-0.234,0.719-0.948,0.801-1.552c0.27-1.977,0.385-3.985,0.798-5.931c0.72-3.368,2.568-4.313,5.367-2.51
		c2.587,1.667,5.001,3.598,6.861,6.198c2.098,2.934,3.724,6.262,6.99,9.492c-0.173-1.69-0.188-2.424-0.329-3.133
		c-0.825-4.169-1.623-8.367-1.443-12.618c0.073-1.726-0.146-4.049,1.99-4.9c2.071-0.825,3.851,0.267,5.479,1.573
		c3.061,2.45,5.245,5.669,7.743,8.615c2.217,2.616,4.065,5.589,6.956,7.626c0.752-0.963,0.15-1.617-0.043-2.3
		c-1.595-5.63-3.769-11.132-3.669-17.13c0.085-5.162,2.813-6.721,7.251-3.928c3.067,1.932,5.729,4.394,8.174,7.1
		c2.047,2.264,3.611,5.026,6.463,6.819c0.746-1.526,0.037-2.663-0.268-3.799c-1.229-4.583-2.698-9.118-2.791-13.924
		c-0.131-6.709,2.896-9.099,9.441-7.562c5.041,1.185,8.966,4.242,12.734,7.534c2.186,1.906,4.037,4.231,7.068,5.445
		c-0.152-2.172-1.33-3.538-2.082-5.07c-2.531-5.159-5.243-10.24-5.92-16.085c-0.441-3.806,0.708-5.187,4.515-4.876
		c4.889,0.398,9.54,1.872,14.131,3.527c1.725,0.621,3.415,1.369,6.243,0.807C431.532,331.886,428.442,329.008,426.406,325.343z
		 M507.984,203.48c7.213-5.987,9.501-13.789,6.813-22.457c-3.084-9.946-15.722-15.75-25.01-11.889
		c-9.897,4.116-16.729,15.415-11.67,26.255c0.826,1.771,1.83,3.459,2.751,5.186c-1.347,2.273-2.075,4.356,0.909,6.089
		c4.397,2.555,9.054,4.269,14.144,3.526C500.688,209.498,505.431,208.342,507.984,203.48z M597.858,196.542
		c0.064-5.271-4.331-11.265-9.452-12.949c-1.873-0.616-3.743-1.408-5.831-0.777c-2.783,0.841-3.774,2.927-3.381,5.474
		c0.303,1.965-0.485,5.251,3.631,4.42c1.288-0.26,1.743,1.233,2.426,2.072c1.409,1.729,2.697,3.559,4.155,5.243
		c1.561,1.8,3.639,2.25,5.747,1.253C597.122,200.348,597.97,198.539,597.858,196.542z"/>
	<path fill="#F5C469" d="M136.258,282.186c4.682,0.659,9.352,1.424,14.047,1.958c15.903,1.808,30.398,7.296,44.055,15.637
		c11.508,7.029,22.225,15.188,33.601,22.392c9.937,6.292,20.671,10.451,32.065,13.069c22.072,5.072,44.056,3.955,66.125-0.401
		c12.907-2.548,25.615-5.71,37.954-10.18c13.286-4.813,25.775-11.072,34.01-23.303c4.615-6.861,7.421-14.467,7.611-22.795
		c0.202-8.744,0.129-17.497,0.064-26.245c-0.137-18.662,3.377-36.63,11.984-53.163c7.578-14.563,17.798-27.079,33.38-34.021
		c2.381-1.061,4.95-1.698,7.434-2.534c-2.101,5.963-4.829,11.057-10.242,15.265c-15.604,12.131-25.145,28.366-29.462,47.723
		c-2.878,12.903-3.146,25.95-2.988,39.061c0.121,10.111,0.023,20.194-3.337,29.934c-6.21,17.999-19.288,29.312-36.396,35.962
		c-29.927,11.631-60.767,19.284-93.214,18.138c-21.042-0.743-40.862-6.001-58.816-17.265c-7.415-4.652-14.706-9.542-21.755-14.73
		c-21.023-15.473-43.97-24.926-70.909-23.163C132.022,289.045,134.977,285.954,136.258,282.186z"/>
	<path fill="#F5C469" d="M426.406,325.343c2.036,3.665,5.126,6.543,8.393,10.015c-2.828,0.562-4.521-0.186-6.243-0.807
		c-4.591-1.655-9.243-3.129-14.131-3.527c-3.807-0.31-4.956,1.071-4.515,4.876c0.677,5.846,3.389,10.926,5.92,16.085
		c0.752,1.532,1.93,2.898,2.082,5.07c-3.031-1.214-4.885-3.539-7.068-5.445c-3.771-3.292-7.693-6.349-12.734-7.534
		c-6.546-1.537-9.572,0.853-9.441,7.562c0.093,4.806,1.563,9.341,2.791,13.924c0.305,1.137,1.014,2.273,0.268,3.799
		c-2.852-1.792-4.416-4.555-6.463-6.819c-2.445-2.706-5.105-5.168-8.174-7.1c-4.438-2.793-7.166-1.234-7.251,3.928
		c-0.099,5.998,2.075,11.5,3.669,17.13c0.193,0.683,0.795,1.337,0.043,2.3c-2.891-2.037-4.738-5.01-6.956-7.626
		c-2.499-2.946-4.685-6.165-7.743-8.615c-1.63-1.307-3.41-2.398-5.479-1.573c-2.135,0.851-1.917,3.174-1.99,4.9
		c-0.18,4.251,0.618,8.449,1.443,12.618c0.141,0.709,0.157,1.443,0.329,3.133c-3.269-3.23-4.895-6.559-6.99-9.492
		c-1.86-2.6-4.274-4.531-6.861-6.198c-2.799-1.802-4.647-0.858-5.367,2.51c-0.414,1.945-0.528,3.954-0.798,5.931
		c-0.082,0.604-0.084,1.318-0.801,1.552c-0.905,0.294-1.355-0.362-1.754-1.013c-1.396-2.289-1.871-4.898-2.402-7.453
		c-0.563-2.722-1.767-3.178-4.21-1.946c-3.646,1.84-5.93,4.885-7.946,8.23c-0.641,1.059-1.202,2.162-2.075,3.744
		c-1.392-3.454-0.76-6.518-0.389-9.438c0.379-2.981-0.618-2.987-2.791-1.964c-4.89,2.304-7.073,6.855-9.438,11.256
		c-0.463,0.861-0.815,1.781-1.516,3.333c-1.143-3.799-1.515-6.951-1.001-10.277c0.597-3.873,0.169-4.022-3.684-2.869
		c-8.808,2.637-13.027,9.485-16.277,17.292c-0.288,0.69-0.506,1.411-0.779,2.108c-0.029,0.074-0.212,0.089-0.482,0.191
		c-1.188-7.11,1.345-13.188,5.436-19.239c-3.953,0.096-7.074,1.002-10.044,2.691c-1.252,0.712-2.939,1.736-4.105,0.366
		c-0.956-1.125,0.411-2.216,1.229-3.142c0.492-0.558,1.057-1.247,0.454-1.963c-0.563-0.669-1.415-0.304-2.109-0.111
		c-5.211,1.455-9.469,4.315-12.865,8.555c-1.287,1.607-2.084,3.76-4.342,4.439l0.022,0.023c-0.075-3.647,1.573-6.806,3.192-9.848
		c1.638-3.076,0.49-4.516-2.195-5.805c-5.924-2.844-11.949-1.72-17.81,3.63c-1.704,1.556-3.151,3.392-5.105,4.789
		c-0.693-4.361,1.842-7.217,4.204-9.93c1.993-2.29,1.818-3.313-1.107-3.917c-1.585-0.328-3.146-0.8-4.744-1.034
		c-2.115-0.309-4.622,0.023-2.939-3.568c0.64-1.365-0.924-1.526-1.858-1.591c-2.761-0.193-5.502,0.091-8.104,1.051
		c-2.011,0.742-4.042,0.984-6.242,1.003c0.157-2.138,1.563-2.709,3.159-3.272c2.701-0.953,2.624-2.384,0.397-3.888
		c-1.449-0.979-2.977-1.814-4.702-2.256c-1.565-0.401-3.192-0.674-3.121-2.982c0.042-1.371-1.301-1.304-2.266-1.351
		c-2.623-0.125-5.229-0.087-7.804,0.611c-1.238,0.335-2.539,0.942-4.167,0.179c1.066-1.732,2.55-2.673,3.992-3.512
		c2.445-1.423,2.01-2.931,0.281-4.403c-4.105-3.497-8.83-5.514-14.297-5.593c-1.444-0.021-2.951,0.533-4.339-0.367
		c2.716-4.399,2.334-5.476-3.033-7.518c-5.194-1.977-10.485-1.997-15.778-0.292c-0.146-0.145-0.295-0.287-0.449-0.423
		c1.127-4.501-2.734-4.856-5.119-5.111c-10.595-1.132-21.286-1.298-31.382,2.691c-6.566,2.594-13.311,5.091-18.914,9.64
		c-8.111,6.583-15.788,13.585-20.914,22.905c-1.673,1.915-2.837,4.357-5.871,5.634c2.875-11.381,8.028-21.063,15.951-28.988
		c19.732-19.74,43.649-22.85,69.571-16.395c15.828,3.941,29.029,13.062,42.05,22.425c10.14,7.292,20.419,14.379,31.99,19.306
		c16.866,7.181,34.431,11.312,52.8,10.964c36.273-0.686,71.041-8.461,104.085-23.463c10.271-4.663,18.761-11.875,25.435-21.029
		c1.271-1.742,1.738-1.513,2.924-0.07C421.389,319.85,423.938,322.563,426.406,325.343z"/>
	<path fill="#F5C469" d="M198.624,543.665c-1.923-10.118,2.824-17.526,9.699-24.136c9.405-9.042,15.593-19.975,19.004-32.553
		c1.108-4.086,1.989-8.27,3.971-12.074c1.132-2.176,0.681-3.536-1.635-4.766c-17.224-9.133-30.393-23.006-42.174-38.021
		c-9.687-12.35-17.214-26.244-24.646-40.113c-4.885-9.116-10.146-17.992-16.742-26.097c-7.809-9.596-17.683-13.373-29.697-12.552
		c0.121-0.986,0.242-1.973,0.363-2.959l-0.003,0.034c0.561-7.816,0.558-7.767,8.292-7.273c13.933,0.889,23.789,8.552,31.886,19.117
		c7.623,9.948,13.489,20.984,19.544,31.897c10.333,18.625,21.869,36.36,37.284,51.303c9.233,8.951,19.846,15.855,31.26,21.627
		c1.148,0.581,2.942,0.998,1.271,2.794c-6.458,6.938-8.027,15.979-10.748,24.556c-3.942,12.427-9.778,23.709-19.87,32.44
		c-4.293,3.718-8.479,7.698-5.668,14.421c0.606,1.45-0.582,2.549-1.943,3.205C204.749,546.123,201.581,546.082,198.624,543.665z"/>
	<path fill="#F5C469" d="M501.297,561.097c-0.104,0.598-0.448,1.267-0.287,1.774c3.063,9.65-3.813,14.768-9.691,19.646
		c-15.316,12.703-37.81,8.305-48.689-8.154c-4.752-7.188-7.771-15.357-13.29-22.102c-4.895-5.979-11.006-10.09-18.113-12.729
		c-4.685-1.739-9.049,0.943-13.507,1.816c-12.512,2.452-25.028,4.073-37.854,3.35c-10.743-0.607-21.378-1.663-31.907-3.896
		c-19.991-4.23-39.208-10.65-57.416-19.986c0.078-0.362,0.07-0.772,0.246-1.081c5.066-8.935,2.855-8.148,11.732-4.521
		c15.257,6.235,30.591,12.273,46.832,15.37c25.564,4.874,51.093,5.4,76.313-2.224c2.938-0.89,5.436,0.014,7.969,0.932
		c14.097,5.109,24.769,14.114,31.435,27.714c2.521,5.145,5.051,10.299,8.875,14.688c8.287,9.516,20.628,10.583,30.366,2.626
		c3.425-2.797,6.054-6.273,8.772-9.68C495.209,561.974,497.565,559.985,501.297,561.097z"/>
	<path fill="#F5C469" d="M610.409,297.476c-0.821,2.539,0.221,4.918,0.616,7.356c0.553,3.401-0.104,5.882-3.21,8.36
		c-12.782,10.198-27.553,11.243-42.909,10.408c-13.332-0.726-26.588-2.184-39.823-3.879c-3.069-0.394-2.806,1.529-2.543,3.543
		c1.859,14.271,2.118,28.614,1.632,42.967c-0.188,5.595-0.902,11.175-1.453,16.754c-0.275,2.797,0.069,4.001,3.355,2.565
		c3.619-1.581,7.35-3.15,11.492-3.035c3.127,0.087,4.354,1.767,4.609,4.7c0.255,2.9,0.162,5.373-3.623,5.459
		c-12.027,1.598-21.232,8.02-28.892,17.088c-1.607,1.904-3.425,3.633-5.007,5.559c-1.293,1.57-1.604,0.968-2.476-0.479
		c-2.178-3.626-2.308-6.38,0.708-10.059c8.318-10.146,9.994-22.68,10.697-35.215c1.084-19.336-0.074-38.593-3.311-57.709
		c-0.199-1.178-0.025-2.419-0.025-4.009c14.67,1.577,29.328,3.536,44.049,4.616c12.003,0.879,24.15,2.392,35.995-1.722
		c7.286-2.529,13.758-6.179,18.597-12.335C609.306,297.882,609.736,297.514,610.409,297.476z"/>
	<path fill="#F5C469" d="M544.033,442.67c-1.954,4.272-4.599,7.521-9.79,8.07c-2.489,0.264-3.691,2.818-5.14,4.634
		c-11.004,13.775-26.288,18.536-43.072,13.389c-2.928-0.896-5.468-2.46-7.803-4.327c-2.013-1.604-3.442-1.607-5.434,0.266
		c-4.951,4.662-4.79,4.436-2.123,10.74c4.34,10.258,7.076,20.992,8.513,32.057c0.386,2.959,1.037,5.884,1.545,8.828
		c0.218,1.271,0.933,1.992,2.197,2.176c-3.032,3.068-6.064,6.134-9.215,9.318c-2.462-2.682-2.953-5.961-3.345-9.062
		c-2.238-17.702-6.116-34.881-15.186-50.511c-0.757-1.305-0.254-1.855,0.801-2.692c6.545-5.189,13.056-10.446,18.544-16.79
		c1.959-2.264,2.379-0.193,3.158,0.828c8.174,10.73,20.375,14.009,31.806,8.46c6.227-3.021,10.49-8.329,15.105-13.204
		c2.485-2.622,4.776-5.434,7.306-8.014c2.209-2.256,4.786-3.999,8.094-4.26c2.475-0.195,3.765,0.863,3.739,3.43
		C543.715,438.23,543.09,440.487,544.033,442.67z"/>
	<path fill="#F5C469" d="M192.652,650.325c-22.728,0-45.456,0-68.183-0.001c-1.249,0-2.502,0.051-3.745-0.04
		c-2.63-0.19-4.062-1.79-4.458-4.263c-0.399-2.496,1.08-3.947,3.157-4.94c1.535-0.735,3.178-0.544,4.792-0.544
		c45.58-0.007,91.16-0.009,136.74-0.002c1.615,0,3.247-0.137,4.813,0.472c2.384,0.925,3.696,2.63,3.377,5.189
		c-0.319,2.563-1.998,3.98-4.566,4.088c-2.617,0.105-5.243,0.02-7.865,0.02c-21.354-0.001-42.708-0.001-64.062-0.001
		C192.652,650.311,192.652,650.318,192.652,650.325z"/>
	<path fill="#F5C469" d="M616.139,210.739c1.539-3.363-0.151-11.431-3.27-14.37c-2.125-2.005-3.783-5.544-7.875-2.894
		c-1.025,0.665-1.791-0.769-2.267-1.89c-4.565-10.832-13.785-14.865-24.521-16.503c-3.175-0.484-8.822,3.311-10.311,6.196
		c-2.379,4.613-5.049,9.076-7.156,13.903c-0.273-5.903,0.942-11.508,3.018-16.951c1.753-4.6,1.635-4.886-3.107-6.031
		c-0.484-0.117-0.976-0.229-1.469-0.302c-12.513-1.872-14.735-0.46-18.32,11.627c-0.277,0.937-0.281,2.006-1.488,2.729
		c-1.678-2.056-1.269-4.651-1.658-6.943c-1.474-8.659-3.645-10.373-12.316-8.314c-3.729,0.885-6.271,0.438-9.388-2.202
		c-16.807-14.252-41.497-6.876-48.025,14.113c-0.771,2.47-1.058,5.068-2.112,7.487c-0.624,1.428-1.112,2.546-2.932,1.853
		c1.396-7.727,2.821-15.399,7.031-22.28c11.379-18.598,36.014-19.192,48.082-5.874c1.152,1.271,2.271,1.799,4.236,1.282
		c10.785-2.837,21.721-2.89,32.825-2.109c5.914,0.416,11.833,0.622,17.743,1.358c21.104,2.633,39,15.854,43.747,37.078
		c0.403,1.804,1.12,3.541,1.726,5.297C619.059,209.117,618.39,210.383,616.139,210.739z"/>
	<path fill="#F5C469" d="M581.287,650.3c-17.5,0-34.999,0.001-52.499-0.003c-0.999-0.001-2.005,0.014-2.997-0.082
		c-3.059-0.294-5.023-2.061-4.952-5.06c0.073-3.063,2.172-4.567,5.288-4.565c11.749,0.008,23.499-0.013,35.249-0.015
		c23.874-0.003,47.749-0.001,71.623,0.001c0.876,0.001,1.755-0.026,2.624,0.053c3.229,0.294,5.567,2.444,5.32,5.136
		c-0.31,3.349-2.366,4.562-5.657,4.547c-17.999-0.07-35.999-0.032-53.999-0.032C581.287,650.284,581.287,650.293,581.287,650.3z"/>
	<path fill="#FC8119" d="M528.491,525.482c-12.269,1.148-23.062,5.676-31.826,14.426c-5.729,5.719-11.538,11.416-15.964,18.275
		c-2.938,4.555-7.604,7.267-11.68,6.318c-3.758-0.873-5.918-3.912-7.826-6.835c-4.745-7.271-7.933-15.093-7.04-24.069
		c0.078-0.795,0.466-1.729-0.442-2.484c-2.47,0.677-2.354,3.244-3.476,4.889c-2.978-1.928-3.333-5.791-0.822-8.824
		c0.39-0.472,0.821-0.966,1.339-1.269c6.373-3.734,5.818-4.12,8.385,2.392c2.42,6.143,5.836,11.748,9.729,17.109
		c2.032,2.799,3.509,2.271,5.604,0.312c4.486-4.191,8.25-9.187,13.635-12.393c2.343,4.121,2.346,4.126,6.397,1.199
		c1.111-0.805,2.179-1.666,3.294-2.463C507.076,525.436,517.165,522.57,528.491,525.482z"/>
	<path fill="#F5C469" d="M144.022,601.311c-14.11,0-28.222,0.006-42.332-0.007c-1.248-0.001-2.502-0.025-3.741-0.157
		c-3.436-0.355-5.664-2.366-5.266-5.021c0.483-3.225,2.734-4.496,5.84-4.496c16.359,0.004,32.719,0.011,49.078,0.006
		c13.361-0.004,26.723-0.021,40.085-0.035c0.375,0,0.752-0.053,1.123-0.018c3.053,0.289,6.361,3.123,6.171,5.271
		c-0.242,2.73-2.797,4.486-6.752,4.492c-14.735,0.023-29.47,0.012-44.206,0.012C144.022,601.34,144.022,601.325,144.022,601.311z"/>
	<path fill="#F5C469" d="M244.828,615.834c-0.656,2.158,1.736,5.105-2.162,6.513c5.771,3.206,11.681,2.167,17.397,2.534
		c1.338,0.086,3.028-0.806,3.947,1.009c-29.747-0.058-59.482-0.107-89.216-0.177c-10.493-0.023-20.986-0.051-31.478-0.167
		c-2.2-0.024-4.512,0.507-6.581-0.776c5.101-0.006,10.202-0.063,15.303,0.013c2.098,0.03,2.828-0.61,2.605-2.845
		c-0.204-2.041-1.342-4.563,1.499-5.929c12.097-0.066,24.193-0.177,36.29-0.196C209.897,615.786,227.363,615.824,244.828,615.834z"
		/>
	<path fill="#F5C469" d="M586.086,289.039c-2.464,2.287-5.407,1.267-8.003,0.758c-13.087-2.566-25.917-6.189-38.692-9.99
		c-12.21-3.633-23.897-8.609-35.588-13.634c-11.103-4.772-21.767-10.632-33.494-13.891c-3.748-1.042-7.618-1.294-11.479-1.601
		c-1.438-0.113-3.359,0.558-4.096-1.054c-0.9-1.969,1.365-2.613,2.287-3.816c5.972-3.289,11.953-1.893,17.698,0.379
		c14.521,5.739,28.475,12.76,42.561,19.46c18.633,8.864,37.782,16.286,57.806,21.285
		C578.669,287.831,582.432,288.256,586.086,289.039z"/>
	<path fill="#FC8119" d="M557.172,425.318c0.489,1.049-0.146,1.864-0.715,3.249c-1.455-3.284-3.4-5.771-6.065-7.575
		c-7.46-5.062-14.8-3.002-21.688,1.014c-7.828,4.564-13.062,12.116-19.534,18.247c-2.162,2.048-4.199,4.222-6.993,5.431
		c-3.169,1.372-7.577,0.521-9.664-1.835c-2.854-3.222-3.31-6.797-1.296-10.335c0.178-0.313,0.446-0.572,0.674-0.856
		c1.303-1.614,1.805-4.616,3.648-4.831c2.591-0.302,1.696,3.153,2.991,4.686c1.772,2.102,2.69,2.975,5.106,0.497
		c4.281-4.386,8.336-9.104,13.725-12.288c1.74,1.74,2.911,0.051,4.178-0.74c6.021-3.762,12.023-7.55,19.521-7.415
		C549.818,412.717,556.743,418.202,557.172,425.318z"/>
	<path fill="#F5C469" d="M337.854,494.338c0.564,2.13,1.132,4.259,1.698,6.4c-1.421,0.483-1.979-0.517-2.687-1.112
		c-8.441-7.135-17.434-13.336-28.015-16.953c-6.62-2.264-13.579-3.862-20.198-1.753c-5.022,1.604-8.187,2.02-12.553-1.925
		c-3.457-3.122-8.816-1.682-12.942,1.138c-5.019,3.434-7.841,8.632-10.862,13.662c-0.867,1.442-0.864,1.443-2.002,0.533
		c1.515-6.355,3.479-12.512,7.929-17.542c6.316-7.143,15.503-8.108,23.001-2.345c1.096,0.842,1.93,1.158,3.34,0.645
		c11.226-4.104,21.885-1.964,32.125,3.329c6.299,3.256,12.168,7.161,17.041,12.429C334.946,492.156,336.472,493.182,337.854,494.338
		z"/>
	<path fill="#F5C469" d="M457.828,187.358c-0.61,2.164-1.256,4.333-2.572,6.181c-5.88,8.253-4.92,17.719-4.848,27.029
		c0.006,0.85,0.115,1.699,0.21,2.996c-2.787-1.554-3.823-3.81-4.909-6.173c-0.488-1.064-0.703-3.11-2.45-2.794
		c-1.359,0.246-1.328,1.958-1.495,3.165c-1.063,7.722-1.421,15.414,1.185,22.951c0.369,1.067,0.942,2.581-0.038,3.135
		c-1.492,0.843-2.012-0.95-2.684-1.868c-1.718-2.357-3.332-4.79-5.12-7.389c-1.655,6.809-0.247,12.981,5.81,25.668
		c-3.564-1.539-5.887-3.94-8.133-6.442c-2.533-3.272-3.723-7.114-3.466-11.107c1.041-16.296,5.014-31.709,15.553-44.645
		C448.402,193.729,451.86,188.92,457.828,187.358z"/>
	<path fill="#F5C469" d="M185.119,474.843c0.481,0.728,0.985,1.438,1.44,2.177c2.011,3.272,0.594,6.229-3.249,6.699
		c-1.107,0.138-2.239,0.084-3.36,0.084c-14.202-0.008-28.405,0.025-42.606-0.09c-1.895-0.015-3.792,0.896-5.672,0.045
		c-0.883-2.307-1.74-4.641-2.678-6.939c-0.813-1.995-0.242-2.568,1.912-2.531C148.976,474.603,167.054,474.072,185.119,474.843z"/>
	<path fill="#F5C469" d="M117.752,557.149c-7.119,0-14.238-0.011-21.357,0.005c-2.356,0.005-4.077-0.911-5.01-3.162
		c-0.698-1.686-0.316-3.08,0.755-4.517c0.979-1.312,2.285-1.4,3.649-1.416c14.486-0.144,28.971-0.306,43.458-0.354
		c3.023-0.011,6.046,2.688,5.799,5.077c-0.359,3.472-2.931,4.329-5.935,4.34c-7.119,0.023-14.238,0.007-21.357,0.007
		C117.752,557.137,117.752,557.144,117.752,557.149z"/>
	<path fill="#F5C469" d="M111,532.547c-6.367,0-12.733,0.021-19.099-0.009c-3.665-0.019-5.781-1.825-5.793-4.829
		c-0.012-2.763,2.097-4.691,5.578-4.717c12.732-0.095,25.465-0.123,38.198-0.104c3.385,0.008,6.016,2.358,5.874,4.962
		c-0.158,2.901-2.322,4.63-6.033,4.654c-6.241,0.044-12.483,0.012-18.725,0.012C111,532.527,111,532.537,111,532.547z"/>
	<path fill="#F5C469" d="M485.185,373.038c-7.006,0.914-9.784,6.062-12.049,11.853c-3.104,7.943-8.067,14.523-15.304,19.119
		c-4.154,2.641-8.798,2.955-13.147,0.449c-3.785-2.181-6.526-5.303-6.159-10.154c0.389,0.312,0.818,0.578,1.158,0.938
		c9.893,10.412,18.914,4.121,24.445-3.608c2.803-3.915,3.57-8.72,5.406-13.06c2.049-4.848,5.284-8.387,10.905-8.989
		c2.968-0.318,5.661,0.199,8.073,2.399C487.602,373.145,486.203,372.565,485.185,373.038z"/>
	<path fill="#F5C469" d="M84.002,459c-4.122-0.002-8.244,0.026-12.366-0.011c-3.223-0.029-4.607-1.993-4.823-4.94
		c-0.221-3.016,1.543-4.335,4.298-4.354c8.49-0.058,16.982-0.09,25.471,0.037c3.051,0.045,4.841,1.834,4.751,5.007
		c-0.089,3.146-2.069,4.272-4.966,4.267C92.246,458.994,88.124,459.003,84.002,459z"/>
	<path fill="#F5C469" d="M360.009,409.561c-0.366-0.053-0.85,0.028-1.082-0.176c-12.935-11.374-28.304-16.904-45.194-18.82
		c2.021-3.102,7.185-4.92,14.979-5.313c15.071,1.307,23.758,11.359,31.342,22.896C360.264,408.47,360.033,409.082,360.009,409.561z"
		/>
	<path fill="#F5C469" d="M82.059,423.74c3.372,0,6.745-0.048,10.117,0.014c3.249,0.059,6.071,2.33,5.918,4.994
		c-0.187,3.254-2.684,4.449-5.432,4.526c-7.233,0.206-14.482,0.313-21.71,0.054c-2.574-0.092-3.963-2.335-4.008-4.965
		c-0.043-2.563,1.118-4.396,3.878-4.487c3.742-0.124,7.491-0.03,11.237-0.03C82.059,423.811,82.059,423.775,82.059,423.74z"/>
	<path fill="#FC8119" d="M698.532,422.186c-6.987,0.063-13.979,0.221-20.963,0.139c-2.907-0.034-4.987-1.282-4.904-4.774
		c0.083-3.485,1.974-4.458,5.091-4.399c6.489,0.115,12.986-0.457,19.467,0.194c0.08,1.22,1.104,1.048,1.873,1.34
		c2.438,0.927,3.132,4.142,1.255,5.854C699.748,421.088,698.701,421.144,698.532,422.186z"/>
	<path fill="#FC8119" d="M120.556,264.702c1.891,4.633,0.308,7.419-4.464,7.5c-6.081,0.102-12.166,0.013-18.25-0.027
		c-2.521-0.016-4.717-0.731-5.541-3.431c-0.832-2.724,0.54-4.427,2.884-5.565c2.35,0.033,4.708-0.038,7.05,0.118
		C108.347,263.703,114.607,262.205,120.556,264.702z"/>
	<path fill="#F5C469" d="M528.491,525.482c-11.326-2.912-21.415-0.049-30.692,6.583c-1.115,0.797-2.183,1.658-3.294,2.463
		c-4.054,2.927-4.057,2.922-6.397-1.199c6.811-6.774,14.315-12.431,23.91-14.637c5.375-1.235,10.409-0.553,14.771,3.089
		C527.903,522.712,529.326,523.607,528.491,525.482z"/>
	<path fill="#F5C469" d="M685.85,360.039c2.621,0,5.248-0.097,7.863,0.025c2.977,0.139,4.627,1.88,4.556,4.82
		c-0.067,2.863-1.647,4.738-4.647,4.798c-5.367,0.105-10.74,0.157-16.104,0.002c-3.097-0.089-4.776-2.003-4.722-5.119
		c0.056-3.05,1.898-4.474,4.817-4.546c2.745-0.067,5.491-0.015,8.237-0.015C685.85,360.016,685.85,360.028,685.85,360.039z"/>
	<path fill="#F5C469" d="M605.438,586.333c2.242,0.005,4.485-0.024,6.729,0.011c3.2,0.053,4.308,2.156,4.458,4.904
		c0.148,2.683-1.33,4.285-3.971,4.462c-4.976,0.332-9.961,0.303-14.93-0.177c-2.871-0.277-4.223-2.182-4.011-4.877
		c0.207-2.641,1.675-4.368,4.62-4.333C600.701,586.352,603.068,586.329,605.438,586.333z"/>
	<path fill="#F5C469" d="M557.172,425.318c-0.429-7.116-7.354-12.604-16.113-12.759c-7.494-0.133-13.5,3.655-19.521,7.415
		c-1.267,0.791-2.438,2.482-4.178,0.742c5.743-6.587,12.313-11.933,21.111-13.832c9.661-2.084,18.85,4.164,19.979,13.642
		C558.648,422.176,559.369,424.203,557.172,425.318z"/>
	<path fill="#F5C469" d="M659.971,265.639c2.117,0,4.236-0.072,6.352,0.018c2.713,0.116,4.608,1.511,4.767,4.271
		c0.161,2.862-1.565,4.978-4.329,5.188c-4.582,0.346-9.228,0.372-13.807,0.017c-2.864-0.222-4.035-2.628-4.058-5.395
		c-0.021-2.868,1.875-3.88,4.354-4.019c2.234-0.123,4.481-0.025,6.724-0.025C659.971,265.675,659.971,265.657,659.971,265.639z"/>
	<path fill="#FC8119" d="M685.463,387.698c2.608,0,5.221-0.091,7.825,0.024c2.89,0.125,4.297,2.086,4.275,4.662
		c-0.021,2.664-1.631,4.343-4.521,4.35c-4.972,0.007-9.945,0.07-14.915-0.016c-2.881-0.049-4.914-1.636-4.827-4.531
		c0.087-2.896,1.745-4.8,5.08-4.617c2.354,0.129,4.722,0.023,7.082,0.023C685.463,387.63,685.463,387.664,685.463,387.698z"/>
	<path fill="#F5C469" d="M650.589,239.369c1.999,0,4.007-0.126,5.993,0.029c2.998,0.234,4.465,2.138,4.471,5.003
		c0.006,2.845-1.721,4.403-4.478,4.472c-4.244,0.107-8.495,0.008-12.742-0.046c-3.152-0.041-4.498-2.071-4.524-4.839
		c-0.023-2.8,1.854-4.301,4.537-4.512c2.234-0.175,4.495-0.036,6.743-0.036C650.589,239.418,650.589,239.394,650.589,239.369z"/>
	<path fill="#FC8119" d="M680.305,343.026c-1.984,0-3.974,0.027-5.959-0.007c-2.841-0.048-4.076-1.975-4.068-4.365
		c0.004-2.345,1.375-4.522,3.882-4.715c4.073-0.314,8.207-0.328,12.276-0.001c2.805,0.225,4.299,2.331,4.255,5.175
		c-0.043,2.801-1.939,3.856-4.43,3.996c-1.979,0.112-3.97,0.023-5.956,0.023C680.305,343.097,680.305,343.062,680.305,343.026z"/>
	<path fill="#FC8119" d="M156.142,616.009c-2.841,1.364-1.702,3.888-1.499,5.929c0.223,2.232-0.507,2.875-2.605,2.845
		c-5.101-0.076-10.202-0.019-15.303-0.013c-3.055-0.639-3.004-3.063-2.633-5.23c0.472-2.764,2.773-3.713,5.28-3.729
		C144.968,615.776,150.555,615.93,156.142,616.009z"/>
	<path fill="#FC8119" d="M675.266,462.748c-1.996,0-3.994,0.071-5.984-0.018c-2.824-0.125-3.932-1.971-3.881-4.504
		c0.049-2.56,1.391-4.299,4.085-4.408c3.61-0.148,7.233-0.179,10.851-0.096c3.131,0.071,4.252,2.235,4.372,4.967
		c0.122,2.796-1.59,4.036-4.203,4.15c-1.743,0.077-3.491,0.018-5.237,0.018C675.266,462.82,675.266,462.784,675.266,462.748z"/>
	<path fill="#FC8119" d="M507.527,544.885c8.166-7.521,20.8-9.652,27.178-4.693C526.197,544.824,517.338,546.126,507.527,544.885z"
		/>
	<path fill="#F5C469" d="M429.549,303.046c1.345,4.777,5.9,7.415,8.207,11.994c-3.079,0.299-5.607-0.556-8.124-1.385
		c-1.812-0.598-2.883-0.226-2.96,1.849c-4.977-5.554-5.455-9.625-1.664-17.53C426.625,299.78,428.088,301.413,429.549,303.046z"/>
	<path fill="#FC8119" d="M441.443,520.689c0.428-4.197,6.585-10.766,10.721-11.313c3.107-0.411,2.998,2.461,3.827,4.164
		c0.688,1.42,0.517,2.595-1.562,3.36c-3.631,1.338-7.402,2.531-10.49,5.063c-0.57,0.468-1.223,1.027-2.004,0.695
		C441.022,522.273,441.389,521.406,441.443,520.689z"/>
	<path fill="#F5C469" d="M615.744,619.688c0.074,3.257-2.229,5.663-5.532,5.784c-3.175,0.116-6.261-2.691-6.21-5.65
		c0.055-3.17,2.559-5.55,5.84-5.553C613.188,614.268,615.672,616.549,615.744,619.688z"/>
	<path fill="#F5C469" d="M665.618,291.379c3.721,0.006,6.465,2.499,6.411,5.827c-0.053,3.167-2.831,5.661-6.253,5.608
		c-3.323-0.051-6.012-2.721-5.942-5.903C659.903,293.708,662.343,291.374,665.618,291.379z"/>
	<path fill="#F5C469" d="M438.623,269.037c0.527,3.23,4.406,3.889,5.293,6.979c-4.136,0.565-7.433-2.162-11.232-2.781
		c-3.726-4.37-4.332-6.273-4.344-14.642c2.714,3.86,5.93,6.153,8.538,9.09c0.396,0.712,0.914,1.28,1.737,1.495L438.623,269.037z"/>
	<path fill="#FC8119" d="M444.118,504.508c-2.545,0.6-2.669-0.137-2.441-1.416c0.505-2.844,2.014-5.103,4.172-6.842
		c1.514-1.218,3.501-2.752,5.36-1.249c1.732,1.4,1.701,3.989,2.293,6.101c0.183,0.651-0.533,1.179-1.116,1.299
		C449.256,503.042,446.082,503.492,444.118,504.508z"/>
	<path fill="#F5C469" d="M79.965,640.467c2.822-0.031,5.338,2.385,5.167,5.158c-0.191,3.094-1.918,4.676-5.074,4.674
		c-3.004-0.003-5.292-2.139-5.255-4.98C74.837,642.779,77.266,640.498,79.965,640.467z"/>
	<path fill="#F5C469" d="M686.699,640.313c2.848-0.087,5.423,2.213,5.522,4.93c0.104,2.811-2.208,5.086-5.191,5.107
		c-2.896,0.022-5.208-2.188-5.304-5.063C681.645,642.726,683.975,640.395,686.699,640.313z"/>
	<path fill="#F5C469" d="M435.156,285.462c0.701,4.398,4.909,6.181,7.564,9.76c-5.654,0.139-9.269-3.262-13.352-5.507
		c-2.621-3.19-1.012-6.829-1.458-10.9C431.086,280.852,432.233,284.168,435.156,285.462z"/>
	<path fill="#F5C469" d="M581.135,619.977c0.234,2.355-0.884,3.854-3,4.711c0.013-0.883-0.389-1.422-1.293-1.533
		c0.467-3.563-2.685-2.739-4.415-3.615c-0.606-0.311-1.339-0.201-1.356,0.614c-0.046,1.83,1.477,2.694,2.62,3.73
		c1.155,1.05,1.975-0.414,2.981-0.56c0.104,0.867,0.65,1.256,1.462,1.363c-3.976,1.367-6.979,0.18-8.14-3.225
		c-0.809-2.369,0.824-5.697,3.325-6.784c3.04-1.319,5.995,0.113,7.641,3.713c-1.837-0.257-2.433-2.593-4.392-2.637
		c-0.932-0.021-2.486-0.348-2.234,1.032c0.405,2.201,3.361,2.174,4.414,4.218C579.196,621.877,580.345,620.45,581.135,619.977z"/>
	<path fill="#F5C469" d="M544.898,152.911c-5.792-0.115-10.852,0.387-15.807,1.521c-2.977,0.682-4.348-1.695-6.816-2.535
		C529.161,147.779,538.43,148.117,544.898,152.911z"/>
	<path fill="#FC8119" d="M660.648,649.592c-2.188-0.272-4.127-0.977-4.166-3.719c-0.037-2.561,1.445-3.988,3.89-4.051
		c2.406-0.063,4.027,1.286,4.266,3.765C664.901,648.334,663.05,649.227,660.648,649.592z"/>
	<path fill="#F5C469" d="M123.109,459.804c1.654,1.221,3.478,1.568,5.547,1.563c25.019-0.07,50.037-0.064,75.055-0.066
		c1.351,0,2.75-0.272,4.015,0.492c-26.764,0.036-53.529,0.091-80.293,0.061C125.829,461.852,123.412,462.852,123.109,459.804z"/>
	<path fill="#F5C469" d="M78.053,398.025c2.468,0.227,4.308,1.064,4.485,3.689c0.155,2.296-2.293,4.732-4.537,4.437
		c-2.378-0.316-3.865-1.938-3.899-4.268C74.066,399.389,75.787,398.214,78.053,398.025z"/>
	<path fill="#F5C469" d="M683.463,572.334c-2.922-0.231-4.377-1.752-4.504-4.319c-0.13-2.641,1.597-3.895,3.992-3.904
		c2.633-0.015,4.21,1.606,4.289,4.206C687.318,570.883,685.571,571.984,683.463,572.334z"/>
	<path fill="#F5C469" d="M590.245,274.645c-0.001,2.128,0.192,3.987-2.332,3.643c-2.03-0.277-4.701,0.354-5.483-2.332
		c-0.489-1.681,4.014-8.32,4.927-7.797C589.938,269.638,589.738,272.607,590.245,274.645z"/>
	<path fill="#FC8119" d="M699.295,300.659c-2.456-0.038-3.949-1.067-4.091-3.473c-0.143-2.396,1.196-3.766,3.501-3.785
		c2.163-0.018,3.932,1.001,3.989,3.445C702.748,299.108,701.633,300.595,699.295,300.659z"/>
	<path fill="#FC8119" d="M104.55,620.769c-0.478,1.962-1.235,3.857-3.688,3.849c-2.266-0.011-3.789-1.419-3.98-3.658
		c-0.216-2.539,1.683-3.489,3.8-3.604C102.826,617.238,104.04,618.627,104.55,620.769z"/>
	<path fill="#F5C469" d="M702.681,492.956c-0.106,2.54-1.58,3.977-3.992,3.978c-2.355,0.001-4.133-1.32-4.112-3.88
		c0.019-2.446,1.469-3.962,4.004-3.968C701.049,489.081,702.518,490.361,702.681,492.956z"/>
	<path fill="#F5C469" d="M550.802,241.503c-0.192,2.658-3.83,7.642-5.313,7.02c-2.451-1.028-3.641-3.975-3.11-5.808
		c0.961-3.334,4.845-1.344,7.261-2.417C550.58,239.878,550.846,240.707,550.802,241.503z"/>
	<path fill="#F5C469" d="M569.581,236.607c0.131,0,0.757-0.122,0.821,0.019c1.199,2.575-0.541,4.498-1.709,6.41
		c-0.665,1.088-1.841,2.763-3.459,0.847c-0.956-1.129-1.784-2.371-2.625-3.592c-0.83-1.209-0.625-2.049,0.932-2.37
		C565.48,237.521,567.412,237.081,569.581,236.607z"/>
	<path fill="#F5C469" d="M72.593,489.332c2.251,0.337,4.085,0.979,3.976,3.635c-0.104,2.557-1.673,4.051-4.021,3.986
		c-2.466-0.068-3.747-2.049-3.613-4.361C69.054,490.537,70.462,489.264,72.593,489.332z M75.403,493.088
		c-0.116-1.559-1.156-1.828-2.33-1.862c-1.271-0.034-2.736,0.06-2.689,1.692c0.034,1.173,0.807,2.459,2.235,2.529
		C74.179,495.523,74.931,494.342,75.403,493.088z"/>
	<path fill="#F5C469" d="M555.156,266.286c-0.8,1.121,1.202,3.684-1.482,3.631c-1.981-0.039-4.493-0.295-5.603-2.609
		c-0.338-0.705,4.572-6.023,5.372-5.763C555.881,262.343,554.581,264.609,555.156,266.286z"/>
	<path fill="#F5C469" d="M581.461,234.452c1.813-1.975,4.446-1.78,6.651-2.551c1.136-0.398,1.649,0.396,1.348,1.46
		c-0.719,2.517-0.683,6.197-3.729,6.485C583.453,240.061,582.545,236.805,581.461,234.452z"/>
	<path fill="#F5C469" d="M572.319,271.845c-0.612,1.165,1.104,3.825-1.891,3.286c-1.821-0.329-4.418,0.183-5.18-2.398
		c-0.319-1.082,4.026-5.758,5.067-5.472C572.72,267.921,571.818,270.204,572.319,271.845z"/>
	<path fill="#F5C469" d="M607.067,228.32c-0.514,2.359-0.563,5.453-3.395,5.491c-2.134,0.029-3.218-2.719-4.295-4.616
		c-0.28-0.493,5.529-3.154,6.655-3.001C607.563,226.402,607.186,227.474,607.067,228.32z"/>
	<path fill="#FC8119" d="M445.682,481.07c1.151,1.803,3.908,3.145,2.418,5.277c-0.66,0.948-4.356,1.271-4.738,0.659
		C441.835,484.574,445.719,483.561,445.682,481.07z"/>
	<path fill="#F5C469" d="M522.154,242.663c2.663-0.389,5.131,0.979,7.975,0.122c-0.34,3.338-2.34,5.039-4.465,6.538
		c-1.241,0.875-2.021,0.163-2.299-1.238C523.012,246.318,522.584,244.567,522.154,242.663z"/>
	<path fill="#F5C469" d="M536.988,256.483c0.146,3.197,1.798,6.077-0.741,7.533c-1.178,0.674-4.835-0.752-4.863-2.391
		C531.337,259.025,534.46,258.262,536.988,256.483z"/>
	<path fill="#F5C469" d="M698.532,422.186c0.169-1.042,1.216-1.098,1.816-1.646c1.877-1.715,1.184-4.93-1.255-5.854
		c-0.77-0.292-1.793-0.122-1.873-1.34c3.7-0.223,6.135,1.3,6.106,4.146C703.301,420.47,702.001,422.533,698.532,422.186z"/>
	<path fill="#F5C469" d="M654.848,405.606c0.004-10.688,0.01-21.375,0.017-32.044C655.436,384.254,656.04,394.932,654.848,405.606z"
		/>
	<path fill="#F5C469" d="M120.556,264.702c-5.948-2.497-12.209-0.999-18.32-1.406c-2.343-0.156-4.7-0.085-7.05-0.118
		c6.332-1.489,12.764-0.184,19.135-0.684C116.662,262.311,119.083,262.264,120.556,264.702z"/>
	<path fill="#F5C469" d="M502.656,560.445c0,0-0.115-0.002-0.111-0.004S502.656,560.445,502.656,560.445z"/>
	<polygon fill="#FC8119" points="116.764,350.429 116.767,350.395 116.659,350.294 	"/>
	<path fill="#F5C469" d="M611.047,296.389c-0.029,0.645-0.298,1.105-0.969,1.257C610.1,296.996,610.467,296.61,611.047,296.389z"/>
	<path fill="#FC8119" d="M438.615,269.178c-0.823-0.214-1.342-0.783-1.737-1.495C438.016,267.532,439.264,267.253,438.615,269.178z"
		/>
	<path fill="#013F54" d="M443.552,626.303c1.874,0,3.751-0.061,5.621,0.016c3.565,0.14,6.04,2.311,6.434,5.543
		c0.409,3.406-1.579,6.666-5.067,7.186c-4.805,0.715-9.725,1.007-14.534,0.025c-3.684-0.752-5.11-3.046-4.79-6.754
		c0.315-3.642,2.337-5.73,5.969-5.954c2.116-0.13,4.246-0.023,6.37-0.023C443.552,626.327,443.552,626.314,443.552,626.303z"/>
	<path fill="#013F54" d="M480.869,200.577c-0.921-1.727-1.925-3.416-2.751-5.186c-5.061-10.841,1.771-22.14,11.67-26.255
		c9.288-3.862,21.926,1.942,25.01,11.889c2.688,8.667,0.399,16.469-6.813,22.458C496.206,209.522,490.868,208.95,480.869,200.577z
		 M495.344,191.654c2.776-0.027,4.961-2.185,4.967-4.905c0.01-3.126-1.847-4.764-5.299-4.73c-3.096,0.029-4.479,1.699-4.515,4.655
		C490.463,189.514,492.596,191.682,495.344,191.654z"/>
	<path fill="#013F54" d="M597.858,196.542c0.109,1.997-0.736,3.806-2.705,4.736c-2.108,0.997-4.188,0.547-5.747-1.253
		c-1.458-1.684-2.746-3.515-4.155-5.243c-0.683-0.838-1.138-2.332-2.426-2.072c-4.116,0.831-3.328-2.456-3.631-4.42
		c-0.396-2.547,0.598-4.633,3.381-5.474c2.088-0.631,3.958,0.161,5.831,0.777C593.527,185.277,597.925,191.271,597.858,196.542z"/>
	<path fill="#F5C469" d="M480.869,200.577c9.999,8.373,15.337,8.946,27.113,2.905c-2.554,4.86-7.298,6.017-12.063,6.711
		c-5.09,0.742-9.744-0.972-14.144-3.526C478.794,204.933,479.523,202.85,480.869,200.577z"/>
	<path fill="#F5C469" d="M251.239,378.734l0.022,0.023L251.239,378.734z"/>
	<path fill="#013F54" d="M454.532,353.752c-0.066,0.038-0.134,0.076-0.2,0.115c0.025-0.046,0.051-0.092,0.068-0.141
		C454.393,353.724,454.532,353.752,454.532,353.752z"/>
	<path fill="#F5C469" d="M156.878,318.892c-0.594,0.33-0.687,0.131-0.447-0.422C156.583,318.605,156.732,318.747,156.878,318.892z"
		/>
	<path fill="#FC8119" d="M576.672,623.325c-1.009,0.145-1.826,1.606-2.981,0.559c-1.146-1.036-2.666-1.9-2.62-3.73
		c0.02-0.815,0.75-0.923,1.356-0.614c1.73,0.876,4.882,0.055,4.415,3.615L576.672,623.325z"/>
	<path fill="#FC8119" d="M581.135,619.977c-0.79,0.476-1.938,1.9-2.387,1.03c-1.053-2.044-4.009-2.017-4.414-4.218
		c-0.252-1.38,1.305-1.054,2.234-1.032c1.959,0.044,2.555,2.38,4.392,2.638C581.018,618.918,581.076,619.447,581.135,619.977z"/>
	<path fill="#FC8119" d="M576.842,623.152c0.904,0.111,1.305,0.65,1.293,1.533c0,0.001-0.001,0-0.001,0
		c-0.812-0.105-1.357-0.494-1.462-1.361C576.672,623.325,576.842,623.152,576.842,623.152z"/>
	<path fill="#FC8119" d="M75.403,493.088c-0.473,1.254-1.224,2.438-2.785,2.359c-1.428-0.07-2.201-1.356-2.235-2.529
		c-0.047-1.635,1.418-1.729,2.689-1.692C74.248,491.26,75.288,491.529,75.403,493.088z"/>
	<path fill="#F5C469" d="M495.344,191.654c-2.748,0.028-4.881-2.14-4.847-4.98c0.035-2.956,1.419-4.626,4.515-4.655
		c3.452-0.033,5.309,1.604,5.299,4.73C500.305,189.47,498.12,191.627,495.344,191.654z"/>
</g>
</svg>
