<?xml version="1.0" encoding="utf-8"?>
<!-- Generator: Adobe Illustrator 16.0.3, SVG Export Plug-In . SVG Version: 6.00 Build 0)  -->
<!DOCTYPE svg PUBLIC "-//W3C//DTD SVG 1.1//EN" "http://www.w3.org/Graphics/SVG/1.1/DTD/svg11.dtd">
<svg version="1.1" id="Layer_1" xmlns="http://www.w3.org/2000/svg" xmlns:xlink="http://www.w3.org/1999/xlink" x="0px" y="0px"
	 width="768px" height="768px" viewBox="0 0 768 768" enable-background="new 0 0 768 768" xml:space="preserve">
<g>
	<path fill-rule="evenodd" clip-rule="evenodd" fill="#013F54" d="M768.75,385.125c0,126.75-0.011,253.5,0.07,380.25
		c0.002,2.812-0.634,3.445-3.445,3.444c-253.75-0.074-507.5-0.074-761.25,0.001c-2.812,0.001-3.446-0.634-3.445-3.445
		c0.075-253.75,0.075-507.5,0-761.25C0.679,1.313,1.313,0.68,4.125,0.681c253.75,0.074,507.5,0.074,761.25,0
		c2.812-0.001,3.447,0.633,3.445,3.444C768.739,131.125,768.75,258.125,768.75,385.125z M578.135,624.688
		c2.116-0.86,3.234-2.356,3-4.712c-0.059-0.529-0.117-1.059-0.176-1.587c-1.645-3.596-4.6-5.03-7.64-3.709
		c-2.501,1.087-4.132,4.415-3.325,6.784C571.152,624.867,574.158,626.057,578.135,624.688L578.135,624.688z M436.878,267.684
		c-2.608-2.937-5.824-5.229-8.538-9.09c0.012,8.369,0.618,10.272,4.345,14.643c0.795,4.759,4.666,8.131,6.004,12.682
		c-1.337-0.173-2.435-0.314-3.532-0.456c-2.923-1.294-4.07-4.61-7.243-6.647c0.446,4.072-1.163,7.71,1.457,10.898
		c-0.675,1.573,0.176,2.985,0.762,4.242c1.662,3.565,3.596,7.004,5.415,10.494c-0.938-0.307-1.861-0.684-2.82-0.902
		c-1.043-0.237-1.996-1.135-3.178-0.5c-1.461-1.633-2.924-3.266-4.541-5.073c-3.791,7.906-3.313,11.977,1.664,17.531
		c-0.114,1.909,1.231,3.204,2.119,4.616c2.697,4.297,2.771,4.25-2.094,5c-0.106,0.017-0.195,0.146-0.291,0.223
		c-2.47-2.779-5.018-5.493-7.374-8.365c-1.184-1.443-1.653-1.672-2.924,0.07c-6.674,9.154-15.163,16.367-25.433,21.029
		c-33.045,15.001-67.813,22.777-104.086,23.463c-18.369,0.348-35.934-3.783-52.8-10.964c-11.571-4.927-21.851-12.014-31.99-19.306
		c-13.021-9.363-26.222-18.484-42.05-22.425c-25.922-6.456-49.838-3.346-69.571,16.395c-7.923,7.926-13.076,17.607-15.951,28.988
		c3.034-1.276,4.198-3.719,5.871-5.633c2.39-1.93,4.606-4.142,7.203-5.732c6.398-3.921,12.113-9.464,20.409-9.224
		c1.909,0.055,2.617-1.015,2.681-2.813c0.09-2.527,0.618-4.961,2.133-7.062c1.473-2.042,2.793-1.826,3.824,0.396
		c0.732,1.579,1.347,3.211,2.074,4.792c0.988,2.147,3.023,1.811,4.841,1.945c2.05,0.151,1.869-1.513,2.281-2.757
		c1.654-4.998,5.554-8.95,9.51-9.713c-2.247,9.567-1.681,11.237,4.381,14.776c2.167,1.266,2.922,0.805,3.616-1.501
		c1.519-5.042,5.967-9.129,10.719-10.127c-0.333,0.654-0.628,1.188-0.881,1.741c-3.49,7.64-2.593,14.184,2.338,18.075
		c1.632,1.289,2.211,1.447,3.358-0.783c2.698-5.252,6.553-9.491,12.97-10.97c0.036,2.21-1.271,3.518-1.955,5.062
		c-2.863,6.469-4.085,13.013-0.904,19.757c0.57,1.208,1.064,2.921,2.441,2.862c0.737-0.032,1.373-1.844,2.098-2.821
		c4.017-5.404,8.382-10.343,15.795-11.892c-9.905,17.637-10.27,29.568-1.237,38.368c2.608-4.386,2.864-9.875,6.634-13.614
		c3.469-3.441,6.526-7.479,12.256-8.544c-9.04,21.927-6.71,42.184,5.762,49.489c-0.203-13.648,4.271-24.876,15.984-32.476
		c-1.978,4.514-2.826,9.241-3.165,14.056c-0.974,13.816,2.366,26.143,12.707,35.966c0.755,0.718,1.546,1.999,2.706,1.381
		c0.913-0.487,0.559-1.835,0.475-2.796c-0.672-7.77,0.313-15.279,2.634-22.753c2.753-8.866,7.67-16.183,14.73-23.259
		c-11.736,26.141-0.26,54.406,13.659,60.678c0.125-8.784-0.707-17.502,1.472-26.127c2.205-8.734,6.061-16.252,13.565-22.656
		c0.185,5.665-0.443,10.562,0.715,15.803c3.545-7.568,3.545-7.568,6.166-9.06c-2.706,9.249-4.616,18.314-3.819,27.809
		c0.282,3.361,1.409,3.575,4.151,2.781c5.917-1.712,11.974-1.944,18.3-1.301c-0.917,1.384-2.267,1.361-3.329,1.877
		c-4.538,2.201-9.55,3.485-13.256,7.28c-2.452,2.512-2.655,5.319-0.161,9.062c2.248,3.371,3.346-0.616,5.031-0.884
		c1.188-0.189,2.348-0.787,3.429-1.371c7.145-3.863,14.853-4.111,22.673-3.748c-0.654,0.46-1.357,0.7-2.05,0.963
		c-7.717,2.923-14.946,6.607-20.995,12.422c-2.675,2.571-0.306,4.2,0.615,6.112c0.994,2.063,2.613,2.121,4.305,0.849
		c2.479-1.865,5.439-2.676,8.325-3.156c6.641-1.107,10.887-2.991,16.118-0.802c-1.467,0.608-3.021,1.115-4.442,1.869
		c-4.105,2.181-8.653,3.632-11.788,7.428c-1.042,1.262-1.465,1.707,0.031,3.181c3.067,3.02,6.604,2.953,10.38,2.742
		c4.813-0.27,9.523,0.104,14.328,3.008c-2.904,0.722-5.188,1.282-7.468,1.857c-2.579,0.649-3.604,1.64-1.761,4.375
		c3.01,4.467,5.247,9.324,5.143,14.922c-1.383-1.156-2.908-2.182-4.123-3.494c-4.873-5.268-10.742-9.173-17.041-12.429
		c-10.241-5.293-20.899-7.435-32.125-3.329c-1.41,0.516-2.244,0.197-3.34-0.645c-7.498-5.764-16.685-4.796-23.001,2.345
		c-4.45,5.03-6.415,11.187-7.931,17.545c-0.666,1.864-1.374,3.714-1.99,5.594c-4.14,12.632-9.665,24.495-19.744,33.57
		c-2.7,2.432-4.187,4.276-0.643,6.933c1.253,0.939,0.498,1.492-0.163,2.372c-3.83,5.099-6.942,10.784-13.28,14.698
		c6.321,1.799,11.379,1.541,16.391-1.122c7.065-3.753,10.938-10.078,14.559-16.825c5.97-11.127,10.553-22.979,17.78-33.457
		c3.135-4.546,6.995-7.356,12.604-6.942c2.711,0.2,5.525,0.64,8.038,1.621c10.979,4.29,21.953,8.576,33.095,12.437
		c10.553,3.656,21.243,6.28,32.545,5.09c8.916-0.938,15.474-5.631,20.372-12.879c6.411-9.486,8.851-20.143,8.994-31.43
		c0.106-8.363,0.043-16.693-1.705-24.963c-3.032-14.348-8.1-27.754-17.138-39.467c0.024-0.479,0.255-1.091,0.042-1.413
		c-7.584-11.536-16.271-21.59-31.336-22.894c4.471-2.902,9.319-2.41,14.101-1.292c10.282,2.403,18.203,8.72,25.214,16.175
		c9.548,10.15,15.521,22.354,19.673,35.57c2.266,7.213,4.999,14.271,9.086,20.713c4.621,7.283,8.813,8.569,16.102,5.266
		c2.036-0.924,2.33-1.52,0.591-2.95c-6.74-5.544-11.295-12.737-14.864-20.531c-1.275-2.785-3.239-5.507-3.123-9.296
		c3.349,4.578,6.656,8.58,10.444,12.113c3.797,3.543,7.786,6.889,11.808,10.18c4.962,4.061,10.057,5.67,15.955,1.31
		c1.921-1.42,2.005-2.103,0.223-2.991c-6.042-3.014-10.904-7.375-15.428-12.318c-4.016-4.389-9.088-11.912-9.771-15.563
		c6.969,7.753,15.086,13.934,24.613,18.043c5.062,2.184,10.377,3.594,15.767,0.538c1.448-0.82,1.643-1.872,0.179-2.307
		c-6.328-1.88-10.771-6.962-16.805-9.439c-10.448-4.292-19.506-10.786-26.627-19.646c-8.795-10.941-11.531-23.323-7.529-36.849
		c0.94-3.181,2.083-6.709,5.912-9.341c0,4.708-0.211,8.587,0.043,12.435c0.557,8.395,3.438,16.145,8.473,22.751
		c5.456,7.159,12.334,13.104,20.563,16.853c14.357,6.541,27.665,4.975,36.242-10.733c1.665-3.049,2.839-6.433,4.862-9.207
		c4.047-5.556,9.706-8.272,16.918-7.483c-2.412-4.46-3.86-5.204-8.894-5.14c-1.009,0.014-2.387,0.93-3.012-0.457
		c-0.502-1.116,0.512-2.053,1.02-3.047c1.148-2.248,3.059-3.799,4.735-5.57c1.019-0.473,2.417,0.106,3.331-1.056
		c-2.412-2.2-5.107-2.717-8.075-2.399c-5.621,0.602-8.856,4.142-10.905,8.989c-1.836,4.339-2.604,9.145-5.406,13.06
		c-5.531,7.729-14.555,14.021-24.445,3.608c-0.34-0.357-0.771-0.626-1.16-0.936c-6.442-8.951-10.311-18.974-12.312-29.755
		c-0.416-2.238,0.056-3.387,2.759-2.193c4.755,2.098,8.738,5.063,11.874,9.214c2.413,3.195,3.84,6.946,5.948,10.294
		c1.185,1.88,2.106,5.156,4.659,4.568c2.296-0.529,3.129-3.55,3.774-6.012c1.469-5.608,2.565-11.372,7.148-15.608
		c1.406-1.301,0.654-2.559-0.709-3.728c-2.591-2.222-5.699-3.978-7.134-7.333l-0.14-0.028c3.596,1.693,7.307,3.564,11.186,3.836
		c7.235,0.508,14.336-1.586,21.534-2.22c0.982-0.087,2.546-0.376,2.405-1.83c-0.136-1.402-1.651-1.445-2.699-1.436
		c-5.478,0.05-10.523-1.748-15.628-3.384c-4.559-1.46-10.646-5.699-12.767-9.259c11.063,2.972,21.964,5.94,33.02-2.215
		c-11.58-2.182-22.449-3.626-31.073-12.363c3.866-0.064,6.682,1.738,9.843,1.564c3.236-0.178,6.488-0.066,9.729-0.19
		c3.06-0.118,5.8-1.253,8.353-2.912c0.762-0.495,1.65-1.014,1.551-1.937c-0.129-1.183-1.357-0.917-2.131-0.978
		c-5.365-0.424-10.543-1.68-15.672-3.249c-5.674-1.735-14.539-7.744-17.047-11.743c8.106,2.626,16.066,5.988,25.44,2.223
		c-5.53-3.517-10.858-5.72-14.982-9.819c-8.317-8.27-14.409-17.415-13.345-29.89c0.201-2.363,1.076-4.306,2.244-6.191
		c0.559-0.903,1.234-2.019,2.626-1.743c1.229,0.243,1.283,1.386,1.566,2.319c1.089,3.592,2.994,6.781,5.215,9.735
		c7.437,9.889,17.821,15.081,29.488,18.106c12.071,3.131,24.327,5.212,36.73,6.542c16.15,1.733,32.314,3.154,48.566,2.339
		c6.431-0.322,12.294-2.811,17.673-6.325c0.555-0.362,1.373-0.839,1.27-1.717c-0.117-0.993-1.051-0.955-1.742-1.028
		c-3.217-0.341-6.439-0.62-9.66-0.921c-3.654-0.783-7.417-1.208-11.002-2.104c-20.021-4.999-39.173-12.421-57.806-21.285
		c-14.086-6.701-28.039-13.721-42.559-19.46c-5.745-2.271-11.729-3.668-17.698-0.379c-0.316-2.089-0.631-4.178-0.953-6.265
		c-0.745-4.828,1.575-8.765,5.838-9.2c3.574-0.365,7.203-0.396,10.749,0.716c9.878,3.094,20.112,3.519,30.3,3.141
		c4.943-0.183,9.921-0.792,14.895-0.935c13.354-0.383,26.494-2.738,39.566-5.022c13.297-2.325,26.422-5.823,39.252-10.174
		c6.565-2.227,13.329-3.967,19.471-7.333c2.251-0.356,2.92-1.623,2.191-3.74c-0.604-1.757-1.32-3.493-1.725-5.297
		c-4.748-21.223-22.645-34.445-43.748-37.078c-5.91-0.736-11.829-0.942-17.743-1.358c-11.104-0.781-22.04-0.728-32.825,2.109
		c-1.968,0.518-3.084-0.01-4.236-1.282c-12.07-13.318-36.703-12.724-48.082,5.874c-4.21,6.881-5.638,14.553-7.035,22.277
		c-0.96-2.405-2.981-3.7-5.107-4.886c-5.968,1.562-9.426,6.37-12.96,10.708c-10.539,12.936-14.512,28.349-15.553,44.645
		c-0.255,3.993,0.933,7.834,3.466,11.107c-0.169,5.885,4.045,10.088,5.842,15.219l-0.008,0.141
		C439.264,267.253,438.016,267.532,436.878,267.684z M120.556,264.702c-1.473-2.438-3.894-2.391-6.235-2.208
		c-6.371,0.5-12.803-0.806-19.134,0.683c-2.345,1.14-3.717,2.843-2.885,5.566c0.824,2.699,3.021,3.415,5.541,3.431
		c6.083,0.04,12.168,0.129,18.25,0.027C120.863,272.121,122.446,269.335,120.556,264.702z M697.227,413.342
		c-6.484-0.652-12.981-0.078-19.471-0.195c-3.117-0.057-5.008,0.914-5.091,4.401c-0.083,3.492,1.997,4.74,4.904,4.774
		c6.985,0.082,13.976-0.076,20.963-0.137c3.469,0.348,4.769-1.716,4.797-4.696C703.355,414.643,700.923,413.12,697.227,413.342z
		 M557.172,425.318c2.197-1.115,1.477-3.143,1.279-4.792c-1.131-9.476-10.317-15.724-19.979-13.64
		c-8.798,1.899-15.37,7.245-21.114,13.833c-5.386,3.181-9.44,7.901-13.722,12.287c-2.416,2.476-3.334,1.603-5.108-0.497
		c-1.295-1.531-0.4-4.987-2.991-4.686c-1.846,0.215-2.348,3.217-3.648,4.831c-0.228,0.284-0.496,0.546-0.674,0.858
		c-2.014,3.538-1.561,7.113,1.296,10.335c2.087,2.354,6.495,3.207,9.664,1.835c2.794-1.209,4.831-3.383,6.993-5.431
		c6.475-6.131,11.706-13.683,19.534-18.247c6.89-4.016,14.229-6.073,21.689-1.014c2.665,1.807,4.61,4.291,6.065,7.575
		C557.026,427.185,557.661,426.367,557.172,425.318z M156.142,616.009c-5.586-0.079-11.173-0.232-16.759-0.199
		c-2.507,0.015-4.808,0.964-5.28,3.728c-0.371,2.169-0.421,4.594,2.634,5.232c2.069,1.283,4.381,0.752,6.581,0.776
		c10.492,0.116,20.985,0.143,31.478,0.167c29.734,0.067,59.469,0.119,89.204,0.177c1.492,0.084,2.984,0.241,4.477,0.242
		c45.489,0.038,90.979,0.059,136.468,0.085c1.25,0.001,2.509-0.071,3.746,0.054c3.458,0.351,6.07,3.116,6.146,6.399
		c0.076,3.331-2.318,6.288-5.712,6.828c-1.468,0.233-2.989,0.176-4.486,0.176c-31.866,0.008-63.733,0.004-95.601,0.002
		c-2.238,0-4.477,0-6.715,0c-0.005,0.326-0.01,0.652-0.015,0.979c8.133,3.491,16.689,5.555,25.305,7.516
		c12.662,2.881,25.497,4.737,38.393,5.68c21.478,1.569,42.868,0.453,64.136-3.379c13.645-2.459,27.054-5.533,39.977-10.615
		c2.026-0.797,3.021-1.276,2.132-3.941c-1.985-5.947,1.01-9.668,7.364-9.713c8.247-0.057,16.503-0.26,24.74,0.021
		c4.834,0.164,9.111-0.98,13.166-3.387c2.133-1.265,4.252-2.554,6.34-3.891c20.111-12.883,38.747-27.591,55.49-44.672
		c12.732-12.988,24.106-27.029,34.279-42.119c13.668-20.273,23.571-42.234,30.703-65.549c2.738-8.952,4.699-18.066,6.438-27.243
		c2.116-11.16,3.878-22.364,4.077-33.756c1.192-10.676,0.588-21.353,0.017-32.028c-0.46-18.425-3.739-36.463-8.202-54.246
		c-4.119-16.413-9.938-32.296-17.472-47.505c-4.672-9.433-9.687-18.674-15.186-27.651c-1.187-1.936-2.261-3.398-4.749-0.949
		c-2.369,2.331-5.615,3.106-9.056,2.479c-0.956-0.175-2.29-0.457-2.903,0.017c-4.107,3.174-9.212,3.85-14.162,5.612
		c0.778,0.444,1.188,0.752,1.646,0.928c9.94,3.814,18.508,9.144,22.1,19.971c0.316,0.954,0.98,1.234,1.847,1.591
		c6.269,2.583,8.722,8.245,6.212,14.588c-1.084,2.743-2.583,5.322-3.893,7.976c-0.58,0.222-0.947,0.607-0.971,1.258l0.252,0.083
		l0.081-0.253c-0.673,0.038-1.104,0.406-1.517,0.931c-4.839,6.156-11.311,9.806-18.597,12.335
		c-11.845,4.113-23.992,2.601-35.995,1.722c-14.721-1.08-29.379-3.039-44.049-4.616c0,1.59-0.174,2.831,0.025,4.009
		c3.236,19.116,4.395,38.373,3.311,57.709c-0.703,12.535-2.379,25.071-10.697,35.215c-3.016,3.679-2.886,6.433-0.708,10.059
		c0.87,1.447,1.181,2.052,2.474,0.479c1.582-1.924,3.399-3.652,5.007-5.557c7.657-9.07,16.862-15.491,28.925-17.089
		c12.52-0.925,23.212,2.568,30.309,13.492c5.465,8.408,7.021,17.704,2.291,26.853c-5.801,11.219-14.567,14.016-27.154,9.652
		c-0.943-2.183-0.318-4.439-0.297-6.664c0.025-2.566-1.265-3.625-3.739-3.43c-3.307,0.261-5.885,2.004-8.094,4.26
		c-2.527,2.58-4.818,5.391-7.304,8.014c-4.617,4.874-8.881,10.182-15.107,13.204c-11.43,5.548-23.632,2.271-31.805-8.46
		c-0.78-1.023-1.2-3.092-3.159-0.828c-5.488,6.342-11.999,11.599-18.544,16.79c-1.053,0.836-1.556,1.388-0.799,2.692
		c9.067,15.63,12.945,32.809,15.184,50.511c0.392,3.099,0.883,6.38,3.345,9.06c3.148-3.185,6.181-6.25,9.213-9.317
		c1.565-0.274,2.539-1.521,3.707-2.385c11.433-8.462,23.854-13.989,38.444-12.687c13.139,1.175,23.24,7.348,28.637,19.605
		c4.91,11.156,3.855,22.079-3.298,32.215c-1.26,1.785-2.196,2.196-4.093,0.569c-4.464-3.827-9.324-4.135-14.463-1.051
		c-5.287,3.174-11.012,4.408-17.212,3.564c-4.166-0.566-8.202,0.232-11.993,2.112l-0.107-0.006
		c-0.416,0.219-0.834,0.438-1.252,0.657c-3.731-1.111-6.088,0.877-8.222,3.548c-2.721,3.404-5.35,6.882-8.772,9.678
		c-9.74,7.957-22.079,6.89-30.368-2.626c-3.824-4.39-6.354-9.546-8.875-14.688c-6.666-13.6-17.337-22.604-31.433-27.714
		c-2.533-0.918-5.031-1.819-7.969-0.932c-25.22,7.624-50.746,7.098-76.311,2.224c-16.241-3.097-31.575-9.135-46.832-15.37
		c-8.877-3.628-6.666-4.412-11.732,4.521c-0.175,0.309-0.168,0.719-0.246,1.082c-0.351,0.504-0.766,0.977-1.043,1.519
		c-4.26,8.319-7.11,17.22-10.623,25.848c-5.832,14.325-14.47,25.792-30.568,29.284c-12.553,2.723-24.585-0.303-32.181-11.166
		c-5.064-7.244-5.747-18.243,2.5-22.638c2.958,2.417,6.125,2.458,9.448,0.851c1.361-0.658,2.549-1.755,1.943-3.205
		c-2.811-6.723,1.375-10.705,5.668-14.421c10.092-8.733,15.928-20.016,19.87-32.442c2.721-8.576,4.289-17.616,10.748-24.554
		c1.671-1.796-0.123-2.213-1.271-2.794c-11.415-5.771-22.027-12.676-31.26-21.627c-15.415-14.942-26.95-32.678-37.284-51.303
		c-6.055-10.913-11.921-21.949-19.544-31.897c-8.097-10.565-17.954-18.228-31.886-19.117c-7.733-0.494-7.73-0.543-8.292,7.273
		l-0.104-0.135l0.108,0.101c-0.121,0.986-0.243,1.974-0.364,2.961c-1.601,7.664-2.086,15.423-2.296,23.238
		c-0.416,15.455-0.303,30.865,1.84,46.225c0.852,6.104,1.952,12.161,2.861,18.232c0.961,6.41,2.348,12.62,4.301,18.753
		c0.303,3.048,2.719,2.048,4.324,2.049c26.764,0.03,53.529-0.024,80.294-0.061c3.149,1.782,5.353,4.136,4.352,8.083
		c-0.76,2.996-3.967,4.678-8.394,4.719c-6.189,0.058-12.377,0.164-18.566,0.249c-18.065-0.771-36.144-0.24-54.213-0.558
		c-2.153-0.037-2.725,0.536-1.912,2.531c0.938,2.301,1.795,4.635,2.688,6.955c0.722,6.117,4.739,6.346,9.812,6.252
		c16.117-0.3,32.244-0.102,48.366-0.104c6.248-0.002,12.497-0.081,18.744-0.015c3.348,0.036,5.758,1.652,6.497,5.026
		c0.699,3.193-1.436,6.439-4.818,7.415c-1.411,0.407-2.956,0.489-4.438,0.484c-20.493-0.058-40.986-0.153-61.48-0.245
		c-4.014-0.019-4.294,0.173-2.61,3.736c6.935,14.661,15.591,28.279,25.446,41.141c12.081,15.767,26.301,29.433,41.188,42.514
		c5.186,4.558,10.446,6.31,17.348,6.269c47.993-0.286,95.988-0.152,143.981-0.181c16.747-0.01,33.494-0.133,50.242-0.128
		c4.775,0.001,6.8,1.735,6.933,5.503c0.135,3.84-2.123,6.222-6.511,6.606c-2.234,0.196-4.496,0.095-6.745,0.095
		c-53.118,0.017-106.237,0.025-159.355,0.044c-3.875,0.001-7.748,0.048-11.621,0.115c-0.708,0.012-1.645-0.16-1.977,0.684
		c-0.419,1.063,0.597,1.451,1.2,2.044c1.56,1.534,4.051,1.955,5.167,4.238c-0.835,0.213-1.529,0.391-2.222,0.568
		c-17.465-0.01-34.931-0.048-52.396-0.021C180.335,615.832,168.238,615.94,156.142,616.009z M488.105,533.33
		c-5.383,3.205-9.146,8.198-13.633,12.392c-2.096,1.96-3.572,2.487-5.604-0.312c-3.894-5.361-7.31-10.969-9.729-17.109
		c-2.566-6.512-2.012-6.126-8.385-2.392c-0.518,0.303-0.949,0.797-1.339,1.269c-2.511,3.033-2.153,6.896,0.822,8.824
		c1.122-1.645,1.006-4.212,3.476-4.889c0.908,0.756,0.521,1.691,0.442,2.486c-0.891,8.977,2.295,16.8,7.04,24.069
		c1.908,2.923,4.07,5.962,7.826,6.835c4.078,0.946,8.743-1.766,11.68-6.318c4.426-6.861,10.235-12.559,15.964-18.277
		c8.767-8.75,19.56-13.275,31.826-14.426c0.835-1.875-0.588-2.771-1.702-3.701c-4.362-3.64-9.396-4.324-14.771-3.089
		C502.423,520.898,494.916,526.555,488.105,533.33z M136.258,282.186c-1.281,3.768-4.235,6.859-4.79,11.34
		c26.939-1.763,49.886,7.689,70.909,23.163c7.049,5.188,14.34,10.078,21.755,14.73c17.954,11.263,37.774,16.522,58.816,17.265
		c32.449,1.146,63.287-6.507,93.214-18.138c17.11-6.65,30.188-17.963,36.398-35.962c3.36-9.739,3.458-19.822,3.337-29.934
		c-0.158-13.11,0.11-26.158,2.988-39.061c4.317-19.356,13.855-35.592,29.462-47.723c5.413-4.208,8.142-9.302,10.243-15.267
		c0.769-0.048,0.9-0.726,1.258-1.214c5.143-7.013,11.412-12.695,19.434-16.261c2.293-1.02,4.831-1.508,6.975-2.991
		c-0.797-1.013-1.601-1.518-2.583-1.872c-6.194-2.229-12.347-4.532-18.66-6.467c-19.288-5.912-38.957-9.83-59.042-11.237
		c-33.152-2.322-65.735,1.031-97.662,10.597c-25.151,7.535-48.832,18.229-71.151,31.99c-17.866,11.015-34.064,24.063-48.51,39.348
		C166.886,227.521,149.305,253.311,136.258,282.186z M192.652,650.325c0-0.007,0-0.015,0-0.022c21.354,0,42.708,0,64.062,0.001
		c2.622,0,5.248,0.088,7.865-0.02c2.569-0.105,4.247-1.524,4.566-4.088c0.319-2.56-0.993-4.265-3.377-5.189
		c-1.566-0.608-3.198-0.472-4.813-0.472c-45.58-0.007-91.16-0.005-136.74,0.002c-1.614,0-3.258-0.191-4.792,0.544
		c-2.077,0.993-3.556,2.444-3.157,4.94c0.396,2.473,1.828,4.072,4.458,4.263c1.243,0.091,2.496,0.04,3.745,0.04
		C147.196,650.325,169.924,650.325,192.652,650.325z M581.287,650.3c0-0.007,0-0.016,0-0.022c18,0,36-0.038,53.999,0.034
		c3.291,0.013,5.35-1.2,5.657-4.547c0.247-2.691-2.09-4.842-5.32-5.136c-0.869-0.079-1.748-0.052-2.624-0.053
		c-23.874-0.002-47.749-0.004-71.623-0.001c-11.75,0.002-23.5,0.022-35.249,0.015c-3.116-0.002-5.215,1.502-5.288,4.565
		c-0.071,2.999,1.894,4.766,4.952,5.06c0.992,0.096,1.998,0.081,2.997,0.082C546.288,650.301,563.787,650.3,581.287,650.3z
		 M144.022,601.311c0,0.015,0,0.029,0,0.044c14.735,0,29.47,0.014,44.206-0.01c3.955-0.006,6.51-1.762,6.752-4.492
		c0.19-2.147-3.118-4.981-6.171-5.271c-0.37-0.035-0.748,0.018-1.123,0.018c-13.362,0.014-26.724,0.031-40.085,0.035
		c-16.359,0.005-32.718-0.002-49.078-0.006c-3.106,0-5.356,1.271-5.84,4.496c-0.398,2.653,1.831,4.664,5.266,5.021
		c1.239,0.13,2.493,0.156,3.741,0.157C115.801,601.314,129.912,601.311,144.022,601.311z M117.752,557.149c0-0.006,0-0.013,0-0.019
		c7.119,0,14.238,0.017,21.357-0.007c3.004-0.011,5.576-0.868,5.935-4.34c0.247-2.388-2.775-5.088-5.799-5.077
		c-14.486,0.049-28.972,0.211-43.458,0.354c-1.364,0.014-2.67,0.104-3.649,1.416c-1.071,1.435-1.453,2.831-0.755,4.515
		c0.933,2.251,2.654,3.167,5.01,3.162C103.514,557.141,110.633,557.149,117.752,557.149z M111,532.547c0-0.01,0-0.02,0-0.03
		c6.242,0,12.483,0.032,18.725-0.012c3.711-0.026,5.875-1.753,6.033-4.654c0.143-2.604-2.489-4.956-5.874-4.962
		c-12.732-0.02-25.465,0.009-38.198,0.104c-3.481,0.025-5.59,1.954-5.578,4.717c0.012,3.004,2.128,4.811,5.793,4.829
		C98.267,532.568,104.633,532.547,111,532.547z M84.002,459.003c4.122,0,8.244-0.009,12.366,0.003
		c2.897,0.008,4.877-1.121,4.966-4.267c0.09-3.173-1.7-4.962-4.751-5.007c-8.489-0.127-16.981-0.093-25.471-0.037
		c-2.755,0.019-4.519,1.338-4.298,4.354c0.216,2.947,1.6,4.911,4.823,4.94C75.758,459.026,79.88,458.998,84.002,459.003z
		 M82.059,423.74c0,0.035,0,0.07,0,0.105c-3.746,0-7.495-0.094-11.237,0.03c-2.76,0.093-3.921,1.927-3.878,4.487
		c0.044,2.63,1.434,4.873,4.008,4.965c7.228,0.26,14.477,0.152,21.71-0.054c2.748-0.077,5.245-1.272,5.432-4.526
		c0.153-2.664-2.669-4.936-5.918-4.994C88.804,423.692,85.431,423.74,82.059,423.74z M685.85,360.039c0-0.011,0-0.023,0-0.034
		c-2.747,0-5.494-0.053-8.239,0.015c-2.919,0.072-4.762,1.497-4.817,4.546c-0.057,3.116,1.625,5.03,4.722,5.119
		c5.364,0.155,10.737,0.104,16.104-0.002c3-0.06,4.58-1.935,4.649-4.798c0.071-2.94-1.579-4.681-4.556-4.82
		C691.098,359.942,688.471,360.039,685.85,360.039z M605.437,586.329c-2.368,0-4.735,0.022-7.103-0.006
		c-2.945-0.035-4.413,1.694-4.62,4.333c-0.212,2.697,1.139,4.6,4.011,4.877c4.967,0.479,9.954,0.509,14.928,0.177
		c2.641-0.177,4.119-1.779,3.971-4.462c-0.15-2.748-1.258-4.853-4.458-4.904C609.923,586.309,607.68,586.338,605.437,586.329z
		 M659.971,265.639c0,0.018,0,0.036,0,0.054c-2.242,0-4.489-0.098-6.724,0.025c-2.478,0.137-4.374,1.149-4.353,4.018
		c0.021,2.767,1.192,5.172,4.057,5.395c4.579,0.354,9.225,0.329,13.807-0.017c2.762-0.209,4.49-2.324,4.329-5.186
		c-0.156-2.76-2.054-4.156-4.767-4.271C664.207,265.567,662.088,265.639,659.971,265.639z M685.463,387.698
		c0-0.034,0-0.068-0.001-0.103c-2.36,0-4.728,0.104-7.082-0.025c-3.335-0.182-4.993,1.723-5.08,4.617
		c-0.087,2.897,1.946,4.484,4.827,4.533c4.97,0.086,9.943,0.021,14.915,0.014c2.893-0.005,4.501-1.684,4.521-4.348
		c0.021-2.578-1.386-4.538-4.275-4.664C690.684,387.607,688.071,387.698,685.463,387.698z M650.589,239.369c0,0.024,0,0.049,0,0.073
		c-2.248,0-4.509-0.139-6.743,0.036c-2.686,0.21-4.563,1.712-4.537,4.512c0.026,2.768,1.372,4.798,4.524,4.839
		c4.247,0.054,8.498,0.153,12.742,0.046c2.757-0.069,4.483-1.627,4.478-4.472c-0.006-2.865-1.473-4.769-4.471-5.003
		C654.596,239.243,652.588,239.369,650.589,239.369z M680.305,343.026c0,0.035,0,0.07,0,0.105c1.986,0,3.977,0.089,5.956-0.023
		c2.488-0.14,4.385-1.195,4.428-3.996c0.044-2.845-1.45-4.951-4.253-5.175c-4.071-0.327-8.205-0.313-12.278,0.001
		c-2.507,0.193-3.878,2.37-3.882,4.715c-0.006,2.391,1.229,4.317,4.07,4.365C676.331,343.054,678.318,343.026,680.305,343.026z
		 M675.266,462.748c0,0.036,0,0.072,0,0.109c1.746,0,3.494,0.062,5.237-0.016c2.613-0.114,4.325-1.356,4.203-4.152
		c-0.12-2.729-1.241-4.894-4.372-4.965c-3.615-0.083-7.238-0.055-10.851,0.094c-2.694,0.111-4.036,1.851-4.085,4.41
		c-0.049,2.533,1.057,4.377,3.881,4.502C671.271,462.819,673.27,462.748,675.266,462.748z M507.527,544.885
		c9.811,1.241,18.67-0.061,27.178-4.695C528.327,535.23,515.693,537.362,507.527,544.885z M441.441,520.689
		c-0.053,0.717-0.419,1.584,0.496,1.974c0.781,0.332,1.432-0.228,2.002-0.695c3.088-2.532,6.861-3.728,10.492-5.065
		c2.076-0.766,2.25-1.94,1.56-3.36c-0.829-1.703-0.72-4.575-3.827-4.164C448.028,509.926,441.871,516.492,441.441,520.689z
		 M615.744,619.688c-0.072-3.14-2.557-5.421-5.902-5.419c-3.281,0.002-5.785,2.381-5.84,5.551c-0.051,2.959,3.035,5.769,6.21,5.652
		C613.516,625.352,615.818,622.943,615.744,619.688z M665.618,291.379c-3.275-0.005-5.715,2.329-5.784,5.532
		c-0.067,3.183,2.619,5.853,5.942,5.903c3.422,0.053,6.202-2.441,6.253-5.608C672.083,293.878,669.339,291.385,665.618,291.379z
		 M444.118,504.508c1.964-1.016,5.138-1.466,8.268-2.109c0.583-0.12,1.299-0.646,1.116-1.297c-0.592-2.111-0.561-4.7-2.293-6.101
		c-1.859-1.503-3.849,0.031-5.36,1.249c-2.16,1.739-3.667,3.998-4.172,6.842C441.449,504.371,441.573,505.105,444.118,504.508z
		 M79.965,640.467c-2.699,0.031-5.128,2.313-5.163,4.85c-0.038,2.844,2.25,4.979,5.255,4.982c3.156,0.002,4.883-1.58,5.074-4.674
		C85.304,642.852,82.788,640.436,79.965,640.467z M686.699,640.312c-2.725,0.083-5.055,2.414-4.971,4.973
		c0.094,2.878,2.406,5.088,5.302,5.065c2.985-0.023,5.298-2.299,5.193-5.109C692.122,642.523,689.547,640.226,686.699,640.312z
		 M544.898,152.911c-6.469-4.794-15.737-5.132-22.623-1.014c2.471,0.84,3.842,3.217,6.818,2.535
		C534.049,153.298,539.106,152.796,544.898,152.911z M660.648,649.592c2.401-0.365,4.253-1.258,3.989-4.005
		c-0.238-2.479-1.859-3.825-4.266-3.765c-2.442,0.063-3.927,1.49-3.89,4.051C656.521,648.615,658.462,649.317,660.648,649.592z
		 M78.053,398.025c-2.266,0.188-3.987,1.363-3.951,3.86c0.034,2.33,1.521,3.949,3.899,4.266c2.244,0.298,4.692-2.139,4.537-4.435
		C82.361,399.092,80.521,398.252,78.053,398.025z M683.463,572.334c2.108-0.35,3.855-1.451,3.777-4.02
		c-0.079-2.598-1.656-4.219-4.289-4.206c-2.396,0.012-4.122,1.266-3.992,3.906C679.086,570.582,680.541,572.103,683.463,572.334z
		 M590.245,274.645c-0.507-2.038-0.309-5.007-2.891-6.486c-0.913-0.523-5.416,6.117-4.925,7.797
		c0.782,2.686,3.453,2.055,5.483,2.332C590.438,278.632,590.244,276.773,590.245,274.645z M699.295,300.659
		c2.338-0.064,3.453-1.551,3.399-3.813c-0.058-2.444-1.826-3.462-3.989-3.445c-2.305,0.019-3.642,1.388-3.501,3.785
		C695.346,299.592,696.839,300.621,699.295,300.659z M104.55,620.769c-0.51-2.142-1.724-3.53-3.867-3.415
		c-2.117,0.114-4.017,1.064-3.8,3.604c0.191,2.239,1.714,3.647,3.98,3.658C103.314,624.626,104.072,622.73,104.55,620.769z
		 M702.681,492.956c-0.163-2.595-1.632-3.875-4.103-3.87c-2.535,0.006-3.985,1.52-4.004,3.968c-0.019,2.558,1.757,3.881,4.112,3.88
		C701.101,496.933,702.572,495.496,702.681,492.956z M550.802,241.503c0.044-0.796-0.222-1.625-1.163-1.206
		c-2.416,1.073-6.3-0.917-7.261,2.417c-0.528,1.833,0.659,4.78,3.11,5.808C546.972,249.145,550.607,244.161,550.802,241.503z
		 M569.581,236.607c-2.169,0.474-4.101,0.913-6.04,1.313c-1.557,0.321-1.762,1.161-0.932,2.37c0.841,1.222,1.669,2.463,2.625,3.592
		c1.62,1.916,2.794,0.241,3.459-0.847c1.168-1.913,2.91-3.835,1.709-6.41C570.338,236.486,569.712,236.607,569.581,236.607z
		 M72.593,489.332c-2.131-0.068-3.54,1.205-3.659,3.26c-0.133,2.313,1.147,4.293,3.613,4.361c2.349,0.064,3.917-1.432,4.021-3.986
		C76.678,490.312,74.845,489.669,72.593,489.332z M555.156,266.286c-0.575-1.677,0.725-3.943-1.713-4.741
		c-0.798-0.261-5.71,5.058-5.372,5.763c1.109,2.314,3.619,2.57,5.603,2.609C556.358,269.97,554.356,267.407,555.156,266.286z
		 M581.461,234.452c1.084,2.353,1.992,5.608,4.27,5.394c3.047-0.288,3.011-3.968,3.729-6.485c0.304-1.064-0.212-1.858-1.348-1.46
		C585.907,232.672,583.272,232.478,581.461,234.452z M572.319,271.845c-0.501-1.641,0.4-3.923-2.001-4.584
		c-1.041-0.286-5.387,4.39-5.067,5.472c0.762,2.581,3.356,2.069,5.18,2.398C573.425,275.67,571.707,273.01,572.319,271.845z
		 M607.067,228.32c0.118-0.847,0.496-1.918-1.032-2.126c-1.126-0.153-6.936,2.508-6.655,3.001c1.077,1.897,2.161,4.645,4.295,4.616
		C606.506,233.773,606.556,230.68,607.067,228.32z M445.682,481.07c0.037,2.49-3.847,3.504-2.322,5.938
		c0.382,0.609,4.078,0.289,4.74-0.659C449.59,484.215,446.833,482.873,445.682,481.07z M522.154,242.663
		c0.43,1.904,0.857,3.655,1.211,5.422c0.279,1.401,1.058,2.113,2.299,1.238c2.125-1.5,4.125-3.2,4.465-6.538
		C527.285,243.643,524.817,242.274,522.154,242.663z M536.988,256.483c-2.528,1.778-5.651,2.542-5.604,5.142
		c0.028,1.638,3.686,3.065,4.863,2.391C538.786,262.561,537.137,259.68,536.988,256.483z"/>
	<path fill-rule="evenodd" clip-rule="evenodd" fill="#FC8119" d="M244.828,615.834c0.693-0.178,1.387-0.355,2.222-0.568
		c-1.116-2.283-3.607-2.704-5.167-4.238c-0.603-0.593-1.619-0.98-1.2-2.044c0.333-0.844,1.269-0.672,1.977-0.684
		c3.873-0.067,7.747-0.114,11.621-0.115c53.118-0.019,106.237-0.027,159.355-0.044c2.249,0,4.511,0.102,6.745-0.095
		c4.388-0.385,6.646-2.767,6.511-6.606c-0.133-3.768-2.157-5.502-6.933-5.503c-16.748-0.005-33.495,0.118-50.242,0.128
		c-47.994,0.028-95.988-0.105-143.981,0.181c-6.902,0.041-12.162-1.711-17.348-6.269c-14.888-13.081-29.108-26.747-41.188-42.514
		c-9.855-12.861-18.511-26.479-25.446-41.141c-1.685-3.563-1.404-3.755,2.61-3.736c20.494,0.092,40.987,0.188,61.48,0.245
		c1.483,0.005,3.028-0.077,4.438-0.484c3.382-0.976,5.517-4.222,4.818-7.415c-0.738-3.374-3.148-4.99-6.497-5.026
		c-6.247-0.066-12.496,0.013-18.744,0.015c-16.123,0.002-32.249-0.196-48.366,0.104c-5.073,0.094-9.09-0.135-9.821-6.266
		c1.881,0.852,3.777-0.06,5.672-0.045c14.201,0.115,28.404,0.082,42.606,0.09c1.121,0,2.253,0.052,3.36-0.084
		c3.842-0.471,5.26-3.427,3.249-6.699c-0.455-0.74-0.959-1.451-1.44-2.177c6.188-0.085,12.377-0.191,18.566-0.249
		c4.427-0.041,7.634-1.723,8.394-4.719c1.001-3.947-1.202-6.301-4.353-8.083c-1.265-0.767-2.664-0.492-4.015-0.492
		c-25.019,0.002-50.037-0.004-75.055,0.066c-2.069,0.006-3.893-0.344-5.547-1.563c-1.953-6.133-3.34-12.343-4.301-18.753
		c-0.909-6.071-2.009-12.129-2.861-18.232c-2.143-15.359-2.255-30.77-1.84-46.225c0.21-7.815,0.696-15.574,2.297-23.24
		c12.014-0.82,21.888,2.957,29.697,12.552c6.596,8.105,11.857,16.98,16.742,26.097c7.432,13.869,14.958,27.766,24.646,40.113
		c11.781,15.017,24.95,28.89,42.174,38.022c2.316,1.228,2.767,2.59,1.635,4.764c-1.982,3.807-2.863,7.99-3.971,12.076
		c-3.412,12.578-9.599,23.509-19.004,32.551c-6.875,6.609-11.622,14.018-9.699,24.136c-8.248,4.395-7.565,15.394-2.5,22.638
		c7.596,10.863,19.627,13.889,32.181,11.166c16.098-3.492,24.736-14.959,30.568-29.284c3.513-8.628,6.363-17.528,10.623-25.848
		c0.277-0.542,0.692-1.015,1.043-1.52c18.208,9.336,37.425,15.756,57.416,19.988c10.529,2.23,21.165,3.286,31.907,3.894
		c12.826,0.726,25.344-0.896,37.856-3.348c4.458-0.873,8.822-3.558,13.507-1.818c7.107,2.639,13.219,6.748,18.113,12.729
		c5.518,6.742,8.538,14.912,13.29,22.1c10.882,16.459,33.373,20.859,48.689,8.156c5.881-4.879,12.757-9.996,9.693-19.646
		c-0.161-0.51,0.181-1.179,0.287-1.774c0.418-0.219,0.836-0.438,1.248-0.655c-0.004,0.002,0.111,0.004,0.111,0.004
		c3.791-1.88,7.827-2.679,11.993-2.112c6.2,0.844,11.925-0.391,17.212-3.564c5.139-3.084,9.999-2.776,14.463,1.051
		c1.896,1.627,2.833,1.216,4.093-0.569c7.153-10.136,8.208-21.059,3.298-32.215c-5.396-12.258-15.498-18.431-28.637-19.605
		c-14.591-1.303-27.012,4.225-38.444,12.687c-1.168,0.864-2.142,2.11-3.705,2.384c-1.267-0.184-1.981-0.904-2.199-2.176
		c-0.506-2.944-1.159-5.869-1.543-8.828c-1.437-11.063-4.173-21.799-8.513-32.057c-2.667-6.305-2.828-6.078,2.123-10.74
		c1.989-1.873,3.421-1.869,5.432-0.264c2.335,1.867,4.875,3.43,7.803,4.327c16.784,5.147,32.07,0.387,43.072-13.389
		c1.448-1.813,2.65-4.37,5.14-4.634c5.193-0.552,7.836-3.798,9.79-8.07c12.587,4.363,21.354,1.566,27.154-9.652
		c4.73-9.148,3.174-18.444-2.291-26.853c-7.097-10.924-17.789-14.417-30.342-13.491c3.785-0.086,3.878-2.559,3.623-5.459
		c-0.258-2.934-1.484-4.613-4.611-4.7c-4.143-0.115-7.873,1.454-11.492,3.035c-3.286,1.436-3.633,0.231-3.355-2.565
		c0.551-5.579,1.264-11.159,1.453-16.754c0.486-14.353,0.228-28.695-1.632-42.967c-0.263-2.014-0.526-3.937,2.543-3.543
		c13.235,1.695,26.491,3.153,39.823,3.879c15.358,0.835,30.127-0.209,42.909-10.408c3.107-2.479,3.763-4.959,3.21-8.36
		c-0.396-2.438-1.438-4.817-0.616-7.356l-0.081,0.253c0,0-0.252-0.083-0.25-0.083c0.671-0.152,0.939-0.613,0.969-1.257
		c1.31-2.654,2.809-5.232,3.893-7.976c2.51-6.344,0.057-12.006-6.212-14.588c-0.866-0.357-1.53-0.637-1.847-1.591
		c-3.592-10.827-12.159-16.157-22.1-19.971c-0.459-0.176-0.868-0.484-1.646-0.928c4.95-1.763,10.055-2.438,14.162-5.612
		c0.613-0.474,1.947-0.191,2.903-0.017c3.44,0.627,6.687-0.147,9.056-2.479c2.488-2.449,3.563-0.987,4.749,0.949
		c5.499,8.977,10.514,18.218,15.186,27.651c7.534,15.209,13.353,31.092,17.472,47.505c4.463,17.783,7.742,35.821,8.2,54.23
		c-0.007,10.67-0.011,21.357-0.015,32.044c-0.199,11.392-1.961,22.596-4.077,33.756c-1.739,9.177-3.7,18.291-6.438,27.243
		c-7.132,23.314-17.035,45.275-30.703,65.549c-10.173,15.09-21.547,29.131-34.279,42.119c-16.743,17.081-35.379,31.789-55.49,44.672
		c-2.088,1.337-4.207,2.626-6.34,3.891c-4.055,2.406-8.332,3.551-13.166,3.387c-8.237-0.281-16.493-0.078-24.74-0.021
		c-6.354,0.045-9.35,3.766-7.364,9.713c0.89,2.665-0.105,3.145-2.132,3.941c-12.923,5.082-26.332,8.156-39.977,10.615
		c-21.268,3.832-42.658,4.948-64.136,3.379c-12.896-0.942-25.73-2.799-38.393-5.68c-8.616-1.961-17.172-4.024-25.305-7.516
		c0.005-0.326,0.01-0.652,0.015-0.979c2.238,0,4.477,0,6.715,0c31.867,0.002,63.734,0.006,95.601-0.002
		c1.497,0,3.019,0.058,4.486-0.176c3.394-0.54,5.788-3.497,5.712-6.828c-0.076-3.283-2.688-6.049-6.146-6.399
		c-1.237-0.125-2.496-0.053-3.746-0.054c-45.49-0.026-90.979-0.047-136.468-0.085c-1.493-0.001-2.985-0.158-4.464-0.242
		c-0.919-1.814-2.609-0.923-3.947-1.009c-5.717-0.367-11.626,0.672-17.397-2.534C246.564,620.939,244.172,617.992,244.828,615.834z
		 M443.552,626.303c0,0.012,0,0.024,0,0.036c-2.124,0-4.254-0.106-6.37,0.023c-3.632,0.224-5.653,2.314-5.969,5.954
		c-0.321,3.708,1.106,6.002,4.79,6.754c4.81,0.981,9.729,0.689,14.534-0.025c3.488-0.52,5.479-3.777,5.067-7.186
		c-0.392-3.232-2.866-5.403-6.432-5.543C447.303,626.242,445.426,626.303,443.552,626.303z"/>
	<path fill-rule="evenodd" clip-rule="evenodd" fill="#FC8119" d="M136.258,282.186c13.047-28.875,30.628-54.666,52.39-77.692
		c14.445-15.284,30.644-28.333,48.51-39.348c22.319-13.762,46-24.455,71.151-31.99c31.927-9.566,64.51-12.919,97.662-10.597
		c20.085,1.407,39.754,5.326,59.042,11.237c6.313,1.935,12.466,4.238,18.66,6.467c0.982,0.354,1.786,0.858,2.583,1.872
		c-2.144,1.482-4.682,1.971-6.975,2.991c-8.021,3.566-14.291,9.248-19.434,16.261c-0.357,0.488-0.489,1.166-1.259,1.216
		c-2.483,0.836-5.053,1.474-7.434,2.534c-15.582,6.939-25.8,19.457-33.38,34.019c-8.607,16.533-12.121,34.5-11.984,53.163
		c0.064,8.748,0.138,17.5-0.064,26.245c-0.192,8.329-2.996,15.935-7.613,22.795c-8.232,12.231-20.722,18.491-34.008,23.303
		c-12.339,4.47-25.047,7.631-37.956,10.18c-22.067,4.356-44.051,5.473-66.124,0.401c-11.394-2.618-22.128-6.777-32.065-13.069
		c-11.376-7.204-22.093-15.363-33.601-22.392c-13.657-8.341-28.151-13.83-44.055-15.637
		C145.609,283.61,140.939,282.845,136.258,282.186z"/>
	<path fill-rule="evenodd" clip-rule="evenodd" fill="#FC8119" d="M426.406,325.343c0.096-0.076,0.185-0.206,0.291-0.223
		c4.865-0.75,4.791-0.703,2.094-5c-0.888-1.412-2.233-2.707-2.119-4.617c0.077-2.075,1.148-2.447,2.96-1.849
		c2.515,0.829,5.045,1.685,8.124,1.385c-2.307-4.579-6.862-7.216-8.207-11.994c1.182-0.635,2.135,0.263,3.178,0.5
		c0.959,0.218,1.882,0.595,2.824,0.901c-1.823-3.489-3.757-6.928-5.419-10.493c-0.586-1.256-1.437-2.669-0.761-4.239
		c4.083,2.245,7.695,5.646,13.352,5.507c-2.657-3.579-6.865-5.361-7.566-9.76c1.098,0.142,2.195,0.283,3.532,0.456
		c-1.338-4.551-5.209-7.923-6.005-12.682c3.8,0.619,7.097,3.346,11.232,2.781c-0.887-3.091-4.766-3.749-5.293-6.979
		c-1.797-5.131-6.011-9.333-5.842-15.219c2.246,2.501,4.568,4.903,8.133,6.442c-6.057-12.687-7.465-18.859-5.81-25.668
		c1.79,2.599,3.404,5.031,5.122,7.389c0.67,0.918,1.189,2.711,2.682,1.868c0.982-0.554,0.407-2.067,0.038-3.135
		c-2.604-7.537-2.247-15.229-1.183-22.951c0.167-1.207,0.134-2.919,1.495-3.165c1.747-0.316,1.962,1.729,2.45,2.794
		c1.086,2.363,2.122,4.619,4.909,6.173c-0.095-1.297-0.204-2.146-0.21-2.996c-0.072-9.31-1.032-18.775,4.848-27.029
		c1.316-1.849,1.962-4.017,2.572-6.181c2.126,1.186,4.147,2.48,5.109,4.889c1.819,0.693,2.308-0.425,2.932-1.853
		c1.057-2.418,1.344-5.017,2.112-7.487c6.53-20.989,31.221-28.365,48.027-14.113c3.114,2.641,5.658,3.087,9.386,2.202
		c8.674-2.058,10.845-0.344,12.318,8.314c0.391,2.292-0.02,4.888,1.658,6.943c1.207-0.722,1.211-1.792,1.488-2.729
		c3.585-12.087,5.81-13.499,18.322-11.627c0.493,0.073,0.982,0.185,1.467,0.302c4.744,1.145,4.862,1.431,3.109,6.031
		c-2.073,5.443-3.291,11.047-3.018,16.951c2.109-4.828,4.779-9.29,7.157-13.903c1.487-2.886,7.135-6.681,10.31-6.196
		c10.735,1.638,19.955,5.671,24.522,16.503c0.474,1.121,1.239,2.555,2.265,1.89c4.092-2.65,5.75,0.889,7.875,2.894
		c3.116,2.938,4.809,11.006,3.27,14.37c-6.142,3.366-12.905,5.107-19.471,7.333c-12.83,4.351-25.955,7.849-39.252,10.174
		c-13.072,2.284-26.213,4.639-39.566,5.022c-4.974,0.142-9.951,0.751-14.895,0.935c-10.188,0.377-20.422-0.047-30.3-3.141
		c-3.546-1.111-7.175-1.081-10.749-0.716c-4.263,0.436-6.583,4.372-5.838,9.2c0.322,2.087,0.637,4.176,0.953,6.265
		c-0.922,1.203-3.189,1.848-2.289,3.816c0.736,1.612,2.659,0.94,4.096,1.054c3.86,0.306,7.732,0.559,11.48,1.601
		c11.728,3.259,22.392,9.118,33.494,13.891c11.688,5.024,23.378,10.001,35.588,13.634c12.775,3.801,25.605,7.424,38.692,9.99
		c2.596,0.509,5.539,1.529,8.003-0.758c3.221,0.301,6.443,0.58,9.66,0.921c0.691,0.073,1.625,0.035,1.742,1.028
		c0.104,0.878-0.715,1.355-1.27,1.717c-5.379,3.514-11.242,6.003-17.673,6.325c-16.252,0.815-32.416-0.605-48.566-2.339
		c-12.403-1.33-24.659-3.411-36.73-6.542c-11.667-3.025-22.052-8.218-29.488-18.106c-2.221-2.954-4.126-6.143-5.215-9.735
		c-0.283-0.934-0.337-2.077-1.566-2.319c-1.392-0.275-2.067,0.84-2.626,1.743c-1.168,1.886-2.043,3.828-2.244,6.191
		c-1.064,12.475,5.027,21.62,13.345,29.89c4.124,4.099,9.452,6.303,14.982,9.819c-9.374,3.766-17.334,0.403-25.44-2.223
		c2.508,3.999,11.373,10.008,17.047,11.743c5.129,1.568,10.307,2.824,15.672,3.249c0.773,0.061,2.002-0.205,2.131,0.978
		c0.1,0.923-0.789,1.442-1.551,1.937c-2.553,1.659-5.293,2.793-8.353,2.912c-3.241,0.124-6.493,0.012-9.729,0.19
		c-3.161,0.174-5.977-1.628-9.843-1.564c8.624,8.737,19.493,10.181,31.073,12.363c-11.056,8.155-21.957,5.187-33.02,2.215
		c2.121,3.56,8.208,7.799,12.767,9.259c5.104,1.636,10.15,3.434,15.628,3.384c1.048-0.009,2.563,0.033,2.699,1.436
		c0.141,1.454-1.423,1.743-2.405,1.83c-7.198,0.633-14.299,2.728-21.534,2.22c-3.879-0.271-7.59-2.143-11.178-3.833
		c-0.018,0.048-0.043,0.094-0.068,0.141c0.066-0.039,0.134-0.077,0.2-0.115c1.435,3.355,4.543,5.111,7.134,7.333
		c1.363,1.169,2.115,2.427,0.709,3.728c-4.583,4.236-5.68,10-7.148,15.608c-0.646,2.462-1.479,5.482-3.774,6.012
		c-2.553,0.588-3.475-2.688-4.659-4.568c-2.108-3.349-3.535-7.1-5.948-10.294c-3.136-4.151-7.119-7.116-11.874-9.214
		c-2.703-1.194-3.175-0.045-2.759,2.193c2.001,10.781,5.869,20.804,12.312,29.755c-0.367,4.852,2.374,7.974,6.161,10.154
		c4.35,2.506,8.993,2.189,13.147-0.449c7.234-4.596,12.199-11.176,15.304-19.12c2.263-5.79,5.043-10.938,12.049-11.852
		c-1.677,1.771-3.587,3.322-4.735,5.57c-0.508,0.995-1.521,1.931-1.02,3.047c0.625,1.387,2.003,0.471,3.012,0.457
		c5.033-0.064,6.481,0.679,8.894,5.14c-7.212-0.789-12.871,1.928-16.918,7.483c-2.023,2.774-3.197,6.158-4.862,9.207
		c-8.577,15.708-21.885,17.274-36.242,10.733c-8.229-3.749-15.106-9.693-20.563-16.853c-5.035-6.606-7.916-14.356-8.473-22.751
		c-0.254-3.848-0.043-7.726-0.043-12.435c-3.829,2.632-4.972,6.16-5.912,9.341c-4.002,13.525-1.266,25.907,7.529,36.849
		c7.121,8.86,16.179,15.354,26.627,19.646c6.033,2.478,10.477,7.56,16.805,9.439c1.464,0.435,1.27,1.486-0.179,2.307
		c-5.39,3.056-10.705,1.646-15.767-0.538c-9.527-4.109-17.645-10.29-24.613-18.043c0.684,3.65,5.756,11.174,9.771,15.563
		c4.523,4.943,9.386,9.305,15.428,12.318c1.782,0.889,1.698,1.571-0.223,2.991c-5.898,4.36-10.993,2.751-15.955-1.31
		c-4.021-3.291-8.011-6.637-11.808-10.18c-3.788-3.533-7.096-7.535-10.444-12.113c-0.116,3.789,1.848,6.511,3.123,9.296
		c3.569,7.794,8.124,14.987,14.864,20.531c1.739,1.431,1.445,2.026-0.591,2.95c-7.289,3.304-11.48,2.018-16.102-5.266
		c-4.087-6.441-6.82-13.5-9.086-20.713c-4.151-13.216-10.125-25.42-19.673-35.57c-7.012-7.455-14.933-13.771-25.214-16.175
		c-4.782-1.118-9.629-1.61-14.107,1.29c-7.794,0.393-12.955,2.211-14.979,5.313c16.893,1.916,32.262,7.446,45.196,18.82
		c0.232,0.204,0.716,0.123,1.082,0.176c9.038,11.713,14.105,25.119,17.138,39.467c1.748,8.27,1.812,16.6,1.705,24.963
		c-0.144,11.287-2.583,21.943-8.994,31.43c-4.898,7.248-11.456,11.941-20.372,12.879c-11.302,1.19-21.992-1.434-32.545-5.09
		c-11.142-3.86-22.116-8.146-33.095-12.437c-2.513-0.981-5.326-1.421-8.038-1.621c-5.609-0.414-9.469,2.396-12.604,6.942
		c-7.228,10.478-11.811,22.33-17.78,33.457c-3.621,6.747-7.494,13.072-14.559,16.825c-5.012,2.663-10.07,2.921-16.391,1.122
		c6.338-3.914,9.45-9.6,13.28-14.698c0.661-0.88,1.416-1.433,0.163-2.372c-3.544-2.656-2.058-4.501,0.643-6.933
		c10.08-9.075,15.604-20.938,19.744-33.57c0.616-1.88,1.324-3.729,1.991-5.597c1.138,0.91,1.135,0.909,2.002-0.533
		c3.021-5.03,5.844-10.23,10.862-13.662c4.126-2.819,9.485-4.26,12.942-1.138c4.366,3.942,7.53,3.526,12.553,1.925
		c6.619-2.109,13.578-0.511,20.198,1.753c10.582,3.617,19.572,9.818,28.013,16.953c0.707,0.598,1.266,1.598,2.687,1.112
		c-0.568-2.142-1.133-4.271-1.698-6.4c0.104-5.598-2.133-10.455-5.143-14.922c-1.843-2.735-0.818-3.726,1.761-4.375
		c2.28-0.575,4.563-1.136,7.468-1.857c-4.805-2.903-9.516-3.277-14.328-3.008c-3.776,0.211-7.313,0.277-10.38-2.742
		c-1.496-1.474-1.073-1.919-0.031-3.181c3.135-3.796,7.682-5.247,11.788-7.428c1.422-0.754,2.975-1.261,4.442-1.869
		c-5.231-2.189-9.477-0.306-16.118,0.802c-2.886,0.48-5.847,1.291-8.325,3.156c-1.692,1.272-3.311,1.215-4.305-0.849
		c-0.921-1.912-3.29-3.541-0.615-6.112c6.049-5.814,13.278-9.499,20.995-12.422c0.693-0.263,1.396-0.503,2.05-0.963
		c-7.82-0.363-15.528-0.115-22.673,3.748c-1.081,0.584-2.241,1.182-3.429,1.371c-1.686,0.268-2.783,4.255-5.031,0.884
		c-2.494-3.742-2.291-6.55,0.161-9.062c3.706-3.795,8.718-5.079,13.256-7.28c1.063-0.516,2.412-0.493,3.329-1.877
		c-6.326-0.644-12.383-0.411-18.3,1.301c-2.742,0.794-3.869,0.58-4.151-2.781c-0.797-9.494,1.113-18.56,3.819-27.809
		c-2.62,1.491-2.62,1.491-6.166,9.06c-1.158-5.241-0.53-10.138-0.715-15.803c-7.504,6.404-11.36,13.922-13.565,22.656
		c-2.179,8.625-1.347,17.343-1.472,26.127c-13.919-6.271-25.396-34.537-13.659-60.678c-7.061,7.076-11.977,14.393-14.73,23.259
		c-2.321,7.474-3.307,14.983-2.634,22.753c0.083,0.961,0.438,2.309-0.475,2.796c-1.16,0.618-1.951-0.663-2.706-1.381
		c-10.341-9.823-13.681-22.149-12.707-35.966c0.339-4.814,1.188-9.542,3.165-14.056c-11.712,7.599-16.187,18.827-15.984,32.476
		c-12.472-7.305-14.802-27.562-5.762-49.489c-5.73,1.066-8.788,5.104-12.256,8.544c-3.77,3.739-4.025,9.229-6.634,13.614
		c-9.033-8.8-8.668-20.731,1.237-38.368c-7.413,1.549-11.778,6.487-15.795,11.892c-0.726,0.977-1.361,2.789-2.098,2.821
		c-1.376,0.059-1.871-1.654-2.441-2.862c-3.182-6.745-1.959-13.289,0.904-19.757c0.684-1.544,1.991-2.852,1.955-5.062
		c-6.417,1.479-10.272,5.718-12.97,10.97c-1.146,2.23-1.726,2.072-3.358,0.783c-4.931-3.892-5.828-10.436-2.338-18.075
		c0.252-0.554,0.548-1.087,0.881-1.741c-4.752,0.998-9.2,5.085-10.719,10.127c-0.694,2.306-1.449,2.767-3.616,1.501
		c-6.062-3.54-6.628-5.209-4.381-14.776c-3.956,0.763-7.856,4.715-9.51,9.713c-0.412,1.244-0.231,2.908-2.281,2.757
		c-1.818-0.135-3.853,0.202-4.841-1.945c-0.727-1.581-1.342-3.213-2.074-4.792c-1.031-2.222-2.351-2.438-3.824-0.396
		c-1.515,2.101-2.043,4.535-2.133,7.062c-0.064,1.798-0.772,2.867-2.681,2.813c-8.296-0.24-14.011,5.303-20.409,9.224
		c-2.597,1.591-4.813,3.803-7.202,5.731c5.126-9.32,12.803-16.322,20.914-22.905c5.603-4.549,12.348-7.045,18.914-9.64
		c10.097-3.989,20.787-3.823,31.382-2.691c2.385,0.255,6.246,0.61,5.121,5.112c-0.24,0.554-0.147,0.752,0.447,0.422
		c5.292-1.706,10.584-1.685,15.778,0.292c5.367,2.042,5.749,3.119,3.033,7.518c1.388,0.9,2.895,0.346,4.339,0.367
		c5.467,0.079,10.192,2.097,14.297,5.593c1.729,1.472,2.164,2.979-0.281,4.403c-1.442,0.838-2.926,1.779-3.992,3.512
		c1.628,0.764,2.929,0.157,4.167-0.179c2.575-0.698,5.181-0.736,7.804-0.611c0.965,0.046,2.309-0.021,2.266,1.351
		c-0.071,2.309,1.556,2.582,3.121,2.982c1.725,0.442,3.252,1.278,4.702,2.256c2.227,1.504,2.303,2.935-0.397,3.888
		c-1.596,0.563-3.002,1.135-3.159,3.272c2.199-0.019,4.23-0.261,6.242-1.003c2.601-0.96,5.342-1.244,8.104-1.051
		c0.935,0.065,2.498,0.226,1.858,1.591c-1.683,3.591,0.825,3.259,2.939,3.568c1.597,0.234,3.158,0.707,4.744,1.034
		c2.926,0.604,3.101,1.627,1.107,3.917c-2.362,2.713-4.897,5.569-4.204,9.93c1.955-1.396,3.402-3.233,5.105-4.789
		c5.861-5.35,11.885-6.474,17.81-3.63c2.685,1.289,3.833,2.729,2.195,5.805c-1.619,3.042-3.267,6.201-3.192,9.848l-0.022-0.023
		c2.258-0.679,3.056-2.832,4.342-4.439c3.396-4.24,7.654-7.1,12.865-8.555c0.694-0.193,1.546-0.558,2.109,0.111
		c0.603,0.717,0.038,1.405-0.454,1.963c-0.817,0.926-2.185,2.017-1.229,3.142c1.166,1.37,2.854,0.346,4.105-0.366
		c2.97-1.688,6.091-2.595,10.044-2.691c-4.091,6.05-6.624,12.128-5.436,19.238c0.27-0.104,0.453-0.118,0.482-0.192
		c0.273-0.697,0.491-1.417,0.779-2.108c3.25-7.807,7.47-14.655,16.277-17.292c3.853-1.153,4.28-1.004,3.684,2.869
		c-0.514,3.326-0.142,6.478,1.001,10.277c0.701-1.553,1.053-2.473,1.516-3.333c2.367-4.401,4.55-8.952,9.44-11.256
		c2.171-1.023,3.169-1.017,2.791,1.964c-0.372,2.92-1.003,5.984,0.387,9.438c0.873-1.582,1.436-2.685,2.075-3.744
		c2.019-3.346,4.3-6.391,7.948-8.23c2.443-1.231,3.645-0.775,4.21,1.946c0.531,2.555,1.006,5.164,2.402,7.453
		c0.398,0.651,0.849,1.308,1.754,1.013c0.717-0.234,0.719-0.948,0.801-1.552c0.268-1.977,0.384-3.985,0.798-5.931
		c0.718-3.368,2.568-4.313,5.367-2.51c2.587,1.667,5.001,3.598,6.861,6.198c2.098,2.934,3.724,6.262,6.99,9.492
		c-0.172-1.69-0.188-2.424-0.329-3.133c-0.825-4.169-1.623-8.367-1.443-12.618c0.073-1.726-0.146-4.049,1.99-4.9
		c2.071-0.825,3.851,0.267,5.481,1.573c3.059,2.45,5.245,5.669,7.743,8.615c2.217,2.616,4.065,5.589,6.956,7.626
		c0.752-0.963,0.15-1.617-0.043-2.3c-1.595-5.63-3.769-11.132-3.669-17.13c0.085-5.162,2.813-6.721,7.251-3.928
		c3.067,1.932,5.727,4.394,8.174,7.1c2.047,2.264,3.611,5.026,6.463,6.819c0.746-1.526,0.037-2.663-0.268-3.799
		c-1.229-4.583-2.698-9.118-2.791-13.924c-0.131-6.709,2.896-9.099,9.441-7.562c5.041,1.185,8.966,4.242,12.736,7.534
		c2.184,1.906,4.037,4.231,7.068,5.445c-0.152-2.172-1.33-3.538-2.082-5.07c-2.531-5.159-5.243-10.24-5.92-16.085
		c-0.441-3.806,0.708-5.187,4.515-4.876c4.888,0.398,9.54,1.872,14.131,3.527c1.723,0.621,3.415,1.369,6.243,0.807
		C431.532,331.886,428.442,329.008,426.406,325.343z M507.984,203.48c7.213-5.987,9.501-13.789,6.813-22.457
		c-3.084-9.946-15.722-15.75-25.01-11.889c-9.897,4.116-16.729,15.415-11.67,26.255c0.826,1.771,1.83,3.459,2.751,5.186
		c-1.346,2.273-2.075,4.356,0.909,6.089c4.399,2.555,9.054,4.269,14.144,3.526C500.687,209.498,505.431,208.342,507.984,203.48z
		 M597.858,196.542c0.066-5.271-4.331-11.265-9.452-12.949c-1.873-0.616-3.743-1.408-5.831-0.777
		c-2.783,0.841-3.774,2.927-3.381,5.474c0.303,1.965-0.485,5.251,3.631,4.42c1.288-0.26,1.743,1.233,2.426,2.072
		c1.409,1.729,2.697,3.559,4.155,5.243c1.561,1.8,3.639,2.25,5.747,1.253C597.122,200.348,597.97,198.539,597.858,196.542z"/>
	<path fill-rule="evenodd" clip-rule="evenodd" fill="#F5C469" d="M136.258,282.186c4.682,0.659,9.352,1.424,14.047,1.958
		c15.903,1.808,30.398,7.296,44.055,15.637c11.508,7.029,22.225,15.188,33.601,22.392c9.937,6.292,20.671,10.451,32.065,13.069
		c22.072,5.072,44.056,3.955,66.124-0.401c12.909-2.548,25.617-5.71,37.956-10.18c13.286-4.813,25.775-11.072,34.008-23.303
		c4.617-6.861,7.421-14.467,7.613-22.795c0.202-8.744,0.129-17.497,0.064-26.245c-0.137-18.662,3.377-36.63,11.984-53.163
		c7.58-14.562,17.798-27.079,33.38-34.019c2.381-1.061,4.95-1.698,7.434-2.534c-2.101,5.963-4.829,11.057-10.242,15.265
		c-15.606,12.131-25.145,28.366-29.462,47.723c-2.878,12.903-3.146,25.95-2.988,39.061c0.121,10.111,0.023,20.194-3.337,29.934
		c-6.21,17.999-19.288,29.312-36.398,35.962c-29.927,11.631-60.765,19.284-93.214,18.138c-21.042-0.743-40.862-6.001-58.816-17.265
		c-7.415-4.652-14.706-9.542-21.755-14.73c-21.023-15.473-43.97-24.926-70.909-23.163
		C132.022,289.045,134.977,285.954,136.258,282.186z"/>
	<path fill-rule="evenodd" clip-rule="evenodd" fill="#F5C469" d="M426.406,325.343c2.036,3.665,5.126,6.543,8.393,10.015
		c-2.828,0.562-4.521-0.186-6.243-0.807c-4.591-1.655-9.243-3.129-14.131-3.527c-3.807-0.31-4.956,1.071-4.515,4.876
		c0.677,5.846,3.389,10.926,5.92,16.085c0.752,1.532,1.93,2.898,2.082,5.07c-3.031-1.214-4.885-3.539-7.068-5.445
		c-3.771-3.292-7.695-6.349-12.736-7.534c-6.545-1.537-9.572,0.853-9.441,7.562c0.093,4.806,1.562,9.341,2.791,13.924
		c0.305,1.137,1.014,2.273,0.268,3.799c-2.852-1.792-4.416-4.555-6.463-6.819c-2.447-2.706-5.107-5.168-8.174-7.1
		c-4.438-2.793-7.166-1.234-7.251,3.928c-0.099,5.998,2.075,11.5,3.669,17.13c0.193,0.683,0.795,1.337,0.043,2.3
		c-2.891-2.037-4.738-5.01-6.956-7.626c-2.499-2.946-4.685-6.165-7.743-8.615c-1.63-1.307-3.411-2.398-5.481-1.573
		c-2.135,0.851-1.917,3.174-1.99,4.9c-0.18,4.251,0.618,8.449,1.443,12.618c0.141,0.709,0.157,1.443,0.329,3.133
		c-3.267-3.23-4.893-6.559-6.99-9.492c-1.86-2.6-4.274-4.531-6.861-6.198c-2.799-1.802-4.649-0.858-5.367,2.51
		c-0.414,1.945-0.53,3.954-0.798,5.931c-0.082,0.604-0.084,1.318-0.801,1.552c-0.905,0.294-1.356-0.362-1.754-1.013
		c-1.396-2.289-1.871-4.898-2.402-7.453c-0.565-2.722-1.767-3.178-4.21-1.946c-3.648,1.84-5.93,4.885-7.948,8.23
		c-0.639,1.059-1.202,2.162-2.075,3.744c-1.39-3.454-0.759-6.518-0.387-9.438c0.378-2.981-0.62-2.987-2.791-1.964
		c-4.89,2.304-7.073,6.855-9.44,11.256c-0.463,0.861-0.815,1.781-1.516,3.333c-1.143-3.799-1.515-6.951-1.001-10.277
		c0.597-3.873,0.169-4.022-3.684-2.869c-8.808,2.637-13.027,9.485-16.277,17.292c-0.288,0.691-0.506,1.411-0.779,2.108
		c-0.029,0.074-0.212,0.089-0.482,0.192c-1.188-7.109,1.345-13.188,5.436-19.238c-3.953,0.096-7.074,1.002-10.044,2.691
		c-1.252,0.712-2.939,1.736-4.105,0.366c-0.956-1.125,0.411-2.216,1.229-3.142c0.492-0.558,1.057-1.247,0.454-1.963
		c-0.563-0.669-1.415-0.304-2.109-0.111c-5.211,1.455-9.469,4.315-12.865,8.555c-1.287,1.607-2.084,3.76-4.342,4.439l0.022,0.023
		c-0.075-3.647,1.573-6.806,3.192-9.848c1.638-3.076,0.49-4.516-2.195-5.805c-5.924-2.844-11.949-1.72-17.81,3.63
		c-1.704,1.556-3.151,3.392-5.105,4.789c-0.693-4.361,1.842-7.217,4.204-9.93c1.993-2.29,1.818-3.313-1.107-3.917
		c-1.585-0.328-3.146-0.8-4.744-1.034c-2.115-0.309-4.622,0.023-2.939-3.568c0.64-1.365-0.924-1.526-1.858-1.591
		c-2.761-0.193-5.502,0.091-8.104,1.051c-2.011,0.742-4.042,0.984-6.242,1.003c0.157-2.138,1.563-2.709,3.159-3.272
		c2.701-0.953,2.624-2.384,0.397-3.888c-1.449-0.979-2.977-1.814-4.702-2.256c-1.565-0.401-3.192-0.674-3.121-2.982
		c0.042-1.371-1.301-1.304-2.266-1.351c-2.623-0.125-5.229-0.087-7.804,0.611c-1.238,0.335-2.539,0.942-4.167,0.179
		c1.066-1.732,2.55-2.673,3.992-3.512c2.445-1.423,2.01-2.931,0.281-4.403c-4.105-3.497-8.83-5.514-14.297-5.593
		c-1.444-0.021-2.951,0.533-4.339-0.367c2.716-4.399,2.334-5.476-3.033-7.518c-5.194-1.977-10.485-1.997-15.778-0.292
		c-0.146-0.145-0.295-0.287-0.449-0.423c1.127-4.501-2.734-4.856-5.119-5.111c-10.595-1.132-21.286-1.298-31.382,2.691
		c-6.566,2.594-13.311,5.091-18.914,9.64c-8.111,6.583-15.788,13.585-20.914,22.905c-1.673,1.915-2.837,4.357-5.871,5.634
		c2.875-11.381,8.028-21.063,15.951-28.988c19.732-19.74,43.649-22.85,69.571-16.395c15.828,3.941,29.029,13.062,42.05,22.425
		c10.14,7.292,20.419,14.379,31.99,19.306c16.866,7.181,34.431,11.312,52.8,10.964c36.273-0.686,71.041-8.461,104.086-23.463
		c10.27-4.663,18.759-11.875,25.433-21.029c1.271-1.742,1.74-1.513,2.924-0.07C421.389,319.85,423.937,322.563,426.406,325.343z"/>
	<path fill-rule="evenodd" clip-rule="evenodd" fill="#F5C469" d="M198.624,543.665c-1.923-10.118,2.824-17.526,9.699-24.136
		c9.405-9.042,15.593-19.973,19.004-32.551c1.108-4.086,1.989-8.27,3.971-12.076c1.132-2.174,0.681-3.536-1.635-4.764
		c-17.224-9.133-30.393-23.006-42.174-38.022c-9.687-12.348-17.214-26.244-24.646-40.113c-4.885-9.116-10.146-17.992-16.742-26.097
		c-7.809-9.596-17.683-13.373-29.697-12.552c0.121-0.986,0.242-1.973,0.363-2.959c0,0-0.003,0.034-0.003,0.034
		c0.561-7.816,0.558-7.767,8.292-7.273c13.933,0.889,23.789,8.552,31.886,19.117c7.623,9.948,13.489,20.984,19.544,31.897
		c10.333,18.625,21.869,36.36,37.284,51.303c9.233,8.951,19.846,15.855,31.26,21.627c1.148,0.581,2.942,0.998,1.271,2.794
		c-6.458,6.938-8.027,15.978-10.748,24.554c-3.942,12.427-9.778,23.709-19.87,32.442c-4.293,3.716-8.479,7.698-5.668,14.421
		c0.606,1.45-0.582,2.547-1.943,3.205C204.749,546.123,201.581,546.082,198.624,543.665z"/>
	<path fill-rule="evenodd" clip-rule="evenodd" fill="#F5C469" d="M501.297,561.097c-0.106,0.596-0.448,1.265-0.287,1.774
		c3.063,9.65-3.813,14.768-9.693,19.646c-15.316,12.703-37.808,8.303-48.689-8.156c-4.752-7.188-7.772-15.357-13.29-22.1
		c-4.895-5.98-11.006-10.09-18.113-12.729c-4.685-1.739-9.049,0.945-13.507,1.818c-12.512,2.452-25.03,4.073-37.856,3.348
		c-10.743-0.607-21.378-1.663-31.907-3.894c-19.991-4.232-39.208-10.652-57.416-19.988c0.078-0.362,0.07-0.772,0.246-1.081
		c5.066-8.933,2.855-8.148,11.732-4.521c15.257,6.235,30.591,12.273,46.832,15.37c25.564,4.874,51.091,5.4,76.311-2.224
		c2.938-0.888,5.436,0.014,7.969,0.932c14.096,5.109,24.767,14.114,31.433,27.714c2.521,5.143,5.051,10.299,8.875,14.688
		c8.289,9.516,20.628,10.583,30.368,2.626c3.423-2.796,6.052-6.273,8.772-9.678C495.209,561.974,497.565,559.985,501.297,561.097z"
		/>
	<path fill-rule="evenodd" clip-rule="evenodd" fill="#F5C469" d="M610.409,297.476c-0.821,2.539,0.221,4.918,0.616,7.356
		c0.553,3.401-0.103,5.882-3.21,8.36c-12.782,10.198-27.551,11.243-42.909,10.408c-13.332-0.726-26.588-2.184-39.823-3.879
		c-3.069-0.394-2.806,1.529-2.543,3.543c1.859,14.271,2.118,28.614,1.632,42.967c-0.189,5.595-0.902,11.175-1.453,16.754
		c-0.277,2.797,0.069,4.001,3.355,2.565c3.619-1.581,7.35-3.15,11.492-3.035c3.127,0.087,4.354,1.767,4.611,4.7
		c0.255,2.9,0.162,5.373-3.623,5.459c-12.029,1.597-21.234,8.018-28.892,17.088c-1.607,1.904-3.425,3.633-5.007,5.557
		c-1.293,1.572-1.604,0.968-2.474-0.479c-2.178-3.626-2.308-6.38,0.708-10.059c8.318-10.144,9.994-22.68,10.697-35.215
		c1.084-19.336-0.074-38.593-3.311-57.709c-0.199-1.178-0.025-2.419-0.025-4.009c14.67,1.577,29.328,3.536,44.049,4.616
		c12.003,0.879,24.15,2.392,35.995-1.722c7.286-2.529,13.758-6.179,18.597-12.335C609.306,297.882,609.736,297.514,610.409,297.476z
		"/>
	<path fill-rule="evenodd" clip-rule="evenodd" fill="#F5C469" d="M544.033,442.67c-1.954,4.272-4.597,7.519-9.79,8.07
		c-2.489,0.264-3.691,2.82-5.14,4.634c-11.002,13.775-26.288,18.536-43.072,13.389c-2.928-0.897-5.468-2.46-7.803-4.327
		c-2.011-1.605-3.442-1.609-5.432,0.264c-4.951,4.662-4.79,4.436-2.123,10.74c4.34,10.258,7.076,20.994,8.513,32.057
		c0.384,2.959,1.037,5.884,1.543,8.828c0.218,1.271,0.933,1.992,2.199,2.176c-3.034,3.068-6.066,6.134-9.215,9.318
		c-2.462-2.68-2.953-5.961-3.345-9.06c-2.238-17.702-6.116-34.881-15.184-50.511c-0.757-1.305-0.254-1.856,0.799-2.692
		c6.545-5.191,13.056-10.448,18.544-16.79c1.959-2.264,2.379-0.195,3.159,0.828c8.173,10.73,20.375,14.008,31.805,8.46
		c6.227-3.022,10.49-8.33,15.107-13.204c2.485-2.623,4.776-5.434,7.304-8.014c2.209-2.256,4.787-3.999,8.094-4.26
		c2.475-0.195,3.765,0.863,3.739,3.43C543.715,438.23,543.09,440.487,544.033,442.67z"/>
	<path fill-rule="evenodd" clip-rule="evenodd" fill="#F5C469" d="M192.652,650.325c-22.728,0-45.456,0-68.183-0.001
		c-1.249,0-2.502,0.051-3.745-0.04c-2.63-0.19-4.062-1.79-4.458-4.263c-0.399-2.496,1.08-3.947,3.157-4.94
		c1.535-0.735,3.178-0.544,4.792-0.544c45.58-0.007,91.16-0.009,136.74-0.002c1.615,0,3.247-0.137,4.813,0.472
		c2.384,0.925,3.696,2.63,3.377,5.189c-0.319,2.563-1.998,3.982-4.566,4.088c-2.617,0.107-5.243,0.02-7.865,0.02
		c-21.354-0.001-42.708-0.001-64.062-0.001C192.652,650.311,192.652,650.318,192.652,650.325z"/>
	<path fill-rule="evenodd" clip-rule="evenodd" fill="#F5C469" d="M616.139,210.739c1.539-3.363-0.153-11.431-3.27-14.37
		c-2.125-2.005-3.783-5.544-7.875-2.894c-1.025,0.665-1.791-0.769-2.265-1.89c-4.567-10.832-13.787-14.865-24.522-16.503
		c-3.175-0.484-8.822,3.311-10.31,6.196c-2.378,4.613-5.048,9.076-7.157,13.903c-0.273-5.903,0.944-11.508,3.018-16.951
		c1.753-4.6,1.635-4.886-3.109-6.031c-0.484-0.117-0.974-0.229-1.467-0.302c-12.513-1.872-14.737-0.46-18.322,11.627
		c-0.277,0.937-0.281,2.006-1.488,2.729c-1.678-2.056-1.268-4.651-1.658-6.943c-1.474-8.659-3.645-10.373-12.318-8.314
		c-3.728,0.885-6.271,0.438-9.386-2.202c-16.807-14.252-41.497-6.876-48.027,14.113c-0.769,2.47-1.056,5.068-2.112,7.487
		c-0.624,1.428-1.112,2.546-2.932,1.853c1.396-7.727,2.823-15.399,7.033-22.28c11.379-18.598,36.012-19.192,48.082-5.874
		c1.152,1.271,2.269,1.799,4.236,1.282c10.785-2.837,21.721-2.89,32.825-2.109c5.914,0.416,11.833,0.622,17.743,1.358
		c21.104,2.633,39,15.854,43.748,37.078c0.404,1.804,1.121,3.541,1.725,5.297C619.059,209.117,618.39,210.383,616.139,210.739z"/>
	<path fill-rule="evenodd" clip-rule="evenodd" fill="#F5C469" d="M581.287,650.3c-17.5,0-34.999,0.001-52.499-0.003
		c-0.999-0.001-2.005,0.014-2.997-0.082c-3.059-0.294-5.023-2.061-4.952-5.06c0.073-3.063,2.172-4.567,5.288-4.565
		c11.749,0.008,23.499-0.013,35.249-0.015c23.874-0.003,47.749-0.001,71.623,0.001c0.876,0.001,1.755-0.026,2.624,0.053
		c3.23,0.294,5.567,2.444,5.32,5.136c-0.308,3.347-2.366,4.56-5.657,4.547c-17.999-0.072-35.999-0.034-53.999-0.034
		C581.287,650.284,581.287,650.293,581.287,650.3z"/>
	<path fill-rule="evenodd" clip-rule="evenodd" fill="#FC8119" d="M528.491,525.482c-12.267,1.15-23.06,5.676-31.826,14.426
		c-5.729,5.719-11.538,11.416-15.964,18.277c-2.937,4.553-7.602,7.265-11.68,6.318c-3.756-0.873-5.918-3.912-7.826-6.835
		c-4.745-7.27-7.931-15.093-7.04-24.069c0.078-0.795,0.466-1.73-0.442-2.486c-2.47,0.677-2.354,3.244-3.476,4.889
		c-2.976-1.928-3.333-5.791-0.822-8.824c0.39-0.472,0.821-0.966,1.339-1.269c6.373-3.734,5.818-4.12,8.385,2.392
		c2.42,6.141,5.836,11.748,9.729,17.109c2.032,2.799,3.509,2.271,5.604,0.312c4.486-4.193,8.25-9.187,13.633-12.393
		c2.343,4.121,2.346,4.126,6.399,1.199c1.111-0.803,2.179-1.666,3.294-2.463C507.076,525.436,517.165,522.57,528.491,525.482z"/>
	<path fill-rule="evenodd" clip-rule="evenodd" fill="#F5C469" d="M144.022,601.311c-14.11,0-28.222,0.004-42.332-0.007
		c-1.248-0.001-2.502-0.027-3.741-0.157c-3.436-0.357-5.664-2.368-5.266-5.021c0.483-3.225,2.734-4.496,5.84-4.496
		c16.359,0.004,32.719,0.011,49.078,0.006c13.361-0.004,26.723-0.021,40.085-0.035c0.375,0,0.752-0.053,1.123-0.018
		c3.053,0.289,6.361,3.123,6.171,5.271c-0.242,2.73-2.797,4.486-6.752,4.492c-14.735,0.023-29.47,0.01-44.206,0.01
		C144.022,601.34,144.022,601.325,144.022,601.311z"/>
	<path fill-rule="evenodd" clip-rule="evenodd" fill="#F5C469" d="M244.828,615.834c-0.656,2.158,1.736,5.105-2.162,6.513
		c5.771,3.206,11.681,2.167,17.397,2.534c1.338,0.086,3.028-0.806,3.947,1.009c-29.747-0.058-59.482-0.109-89.216-0.177
		c-10.493-0.024-20.986-0.051-31.478-0.167c-2.2-0.024-4.512,0.507-6.581-0.776c5.101-0.006,10.202-0.065,15.303,0.011
		c2.098,0.031,2.828-0.61,2.605-2.843c-0.204-2.041-1.342-4.564,1.499-5.929c12.097-0.068,24.193-0.177,36.29-0.196
		C209.897,615.786,227.363,615.824,244.828,615.834z"/>
	<path fill-rule="evenodd" clip-rule="evenodd" fill="#F5C469" d="M586.086,289.039c-2.464,2.287-5.407,1.267-8.003,0.758
		c-13.087-2.566-25.917-6.189-38.692-9.99c-12.21-3.633-23.899-8.609-35.588-13.634c-11.103-4.772-21.767-10.632-33.494-13.891
		c-3.748-1.042-7.62-1.294-11.48-1.601c-1.437-0.113-3.359,0.558-4.096-1.054c-0.9-1.969,1.367-2.613,2.289-3.816
		c5.97-3.289,11.953-1.893,17.698,0.379c14.52,5.739,28.473,12.76,42.559,19.46c18.633,8.864,37.784,16.286,57.806,21.285
		C578.669,287.831,582.432,288.256,586.086,289.039z"/>
	<path fill-rule="evenodd" clip-rule="evenodd" fill="#FC8119" d="M557.172,425.318c0.489,1.049-0.146,1.866-0.715,3.249
		c-1.455-3.284-3.4-5.769-6.065-7.575c-7.46-5.06-14.8-3.002-21.689,1.014c-7.828,4.564-13.06,12.116-19.534,18.247
		c-2.162,2.048-4.199,4.222-6.993,5.431c-3.169,1.372-7.577,0.52-9.664-1.835c-2.856-3.222-3.31-6.797-1.296-10.335
		c0.178-0.313,0.446-0.574,0.674-0.858c1.301-1.614,1.803-4.616,3.648-4.831c2.591-0.302,1.696,3.154,2.991,4.686
		c1.774,2.1,2.692,2.973,5.108,0.497c4.281-4.386,8.336-9.106,13.723-12.288c1.742,1.74,2.911,0.049,4.178-0.742
		c6.021-3.76,12.025-7.548,19.521-7.415C549.818,412.717,556.743,418.202,557.172,425.318z"/>
	<path fill-rule="evenodd" clip-rule="evenodd" fill="#F5C469" d="M337.854,494.338c0.564,2.13,1.13,4.259,1.698,6.4
		c-1.421,0.485-1.98-0.515-2.687-1.112c-8.441-7.135-17.432-13.336-28.013-16.953c-6.62-2.264-13.579-3.862-20.198-1.753
		c-5.022,1.602-8.187,2.018-12.553-1.925c-3.457-3.122-8.816-1.682-12.942,1.138c-5.019,3.432-7.841,8.632-10.862,13.662
		c-0.867,1.442-0.864,1.443-2.002,0.533c1.515-6.355,3.479-12.512,7.929-17.542c6.316-7.141,15.503-8.108,23.001-2.345
		c1.096,0.842,1.93,1.16,3.34,0.645c11.226-4.105,21.885-1.964,32.125,3.329c6.299,3.256,12.168,7.161,17.041,12.429
		C334.946,492.156,336.472,493.182,337.854,494.338z"/>
	<path fill-rule="evenodd" clip-rule="evenodd" fill="#F5C469" d="M457.828,187.358c-0.61,2.164-1.256,4.333-2.572,6.181
		c-5.88,8.253-4.92,17.719-4.848,27.029c0.006,0.85,0.115,1.699,0.21,2.996c-2.787-1.554-3.823-3.81-4.909-6.173
		c-0.488-1.064-0.703-3.11-2.45-2.794c-1.361,0.246-1.328,1.958-1.495,3.165c-1.064,7.722-1.421,15.414,1.183,22.951
		c0.369,1.067,0.944,2.581-0.038,3.135c-1.492,0.843-2.012-0.95-2.682-1.868c-1.718-2.357-3.332-4.79-5.122-7.389
		c-1.655,6.809-0.247,12.981,5.81,25.668c-3.564-1.539-5.887-3.94-8.133-6.442c-2.533-3.272-3.721-7.114-3.466-11.107
		c1.041-16.296,5.014-31.709,15.553-44.645C448.402,193.729,451.86,188.92,457.828,187.358z"/>
	<path fill-rule="evenodd" clip-rule="evenodd" fill="#F5C469" d="M185.119,474.843c0.481,0.726,0.985,1.437,1.44,2.177
		c2.011,3.272,0.594,6.229-3.249,6.699c-1.107,0.136-2.239,0.084-3.36,0.084c-14.202-0.008-28.405,0.025-42.606-0.09
		c-1.895-0.015-3.792,0.896-5.672,0.045c-0.883-2.307-1.74-4.641-2.678-6.941c-0.813-1.995-0.242-2.568,1.912-2.531
		C148.976,474.603,167.054,474.072,185.119,474.843z"/>
	<path fill-rule="evenodd" clip-rule="evenodd" fill="#F5C469" d="M117.752,557.149c-7.119,0-14.238-0.009-21.357,0.005
		c-2.356,0.005-4.077-0.911-5.01-3.162c-0.698-1.684-0.316-3.08,0.755-4.515c0.979-1.312,2.285-1.402,3.649-1.416
		c14.486-0.144,28.971-0.306,43.458-0.354c3.023-0.011,6.046,2.689,5.799,5.077c-0.359,3.472-2.931,4.329-5.935,4.34
		c-7.119,0.023-14.238,0.007-21.357,0.007C117.752,557.137,117.752,557.144,117.752,557.149z"/>
	<path fill-rule="evenodd" clip-rule="evenodd" fill="#F5C469" d="M111,532.547c-6.367,0-12.733,0.021-19.099-0.009
		c-3.665-0.019-5.781-1.825-5.793-4.829c-0.012-2.763,2.097-4.691,5.578-4.717c12.732-0.095,25.465-0.123,38.198-0.104
		c3.385,0.006,6.016,2.358,5.874,4.962c-0.158,2.901-2.322,4.628-6.033,4.654c-6.241,0.044-12.483,0.012-18.725,0.012
		C111,532.527,111,532.537,111,532.547z"/>
	<path fill-rule="evenodd" clip-rule="evenodd" fill="#F5C469" d="M485.185,373.038c-7.006,0.914-9.786,6.062-12.049,11.852
		c-3.104,7.944-8.069,14.524-15.304,19.12c-4.154,2.639-8.798,2.955-13.147,0.449c-3.787-2.181-6.528-5.303-6.161-10.154
		c0.389,0.31,0.82,0.578,1.16,0.936c9.891,10.412,18.914,4.121,24.445-3.608c2.803-3.915,3.57-8.72,5.406-13.06
		c2.049-4.848,5.284-8.387,10.905-8.989c2.968-0.318,5.663,0.199,8.075,2.399C487.602,373.145,486.203,372.565,485.185,373.038z"/>
	<path fill-rule="evenodd" clip-rule="evenodd" fill="#F5C469" d="M84.002,459c-4.122-0.002-8.244,0.026-12.366-0.011
		c-3.223-0.029-4.607-1.993-4.823-4.94c-0.221-3.016,1.543-4.335,4.298-4.354c8.49-0.056,16.982-0.09,25.471,0.037
		c3.051,0.045,4.841,1.834,4.751,5.007c-0.089,3.146-2.069,4.274-4.966,4.267C92.246,458.994,88.124,459.003,84.002,459z"/>
	<path fill-rule="evenodd" clip-rule="evenodd" fill="#F5C469" d="M360.009,409.561c-0.366-0.053-0.85,0.028-1.082-0.176
		c-12.935-11.374-28.304-16.904-45.196-18.82c2.023-3.102,7.185-4.92,14.979-5.313c15.071,1.306,23.758,11.359,31.342,22.896
		C360.264,408.47,360.033,409.082,360.009,409.561z"/>
	<path fill-rule="evenodd" clip-rule="evenodd" fill="#F5C469" d="M82.059,423.74c3.372,0,6.745-0.048,10.117,0.014
		c3.249,0.059,6.071,2.33,5.918,4.994c-0.187,3.254-2.684,4.449-5.432,4.526c-7.233,0.206-14.482,0.313-21.71,0.054
		c-2.574-0.092-3.963-2.335-4.008-4.965c-0.043-2.561,1.118-4.395,3.878-4.487c3.742-0.124,7.491-0.03,11.237-0.03
		C82.059,423.811,82.059,423.775,82.059,423.74z"/>
	<path fill-rule="evenodd" clip-rule="evenodd" fill="#FC8119" d="M698.532,422.186c-6.987,0.061-13.978,0.219-20.963,0.137
		c-2.907-0.034-4.987-1.282-4.904-4.774c0.083-3.487,1.974-4.458,5.091-4.401c6.489,0.117,12.986-0.457,19.467,0.196
		c0.08,1.218,1.104,1.048,1.873,1.34c2.437,0.925,3.132,4.14,1.255,5.854C699.748,421.088,698.701,421.144,698.532,422.186z"/>
	<path fill-rule="evenodd" clip-rule="evenodd" fill="#FC8119" d="M120.556,264.702c1.891,4.633,0.308,7.419-4.464,7.5
		c-6.081,0.102-12.166,0.013-18.25-0.027c-2.521-0.016-4.717-0.731-5.541-3.431c-0.832-2.724,0.54-4.427,2.884-5.565
		c2.35,0.033,4.708-0.038,7.05,0.118C108.347,263.703,114.607,262.205,120.556,264.702z"/>
	<path fill-rule="evenodd" clip-rule="evenodd" fill="#F5C469" d="M528.491,525.482c-11.326-2.912-21.415-0.047-30.692,6.583
		c-1.115,0.797-2.183,1.66-3.294,2.463c-4.054,2.927-4.057,2.922-6.399-1.199c6.811-6.774,14.317-12.431,23.912-14.637
		c5.375-1.235,10.409-0.551,14.771,3.089C527.903,522.712,529.326,523.607,528.491,525.482z"/>
	<path fill-rule="evenodd" clip-rule="evenodd" fill="#F5C469" d="M685.85,360.039c2.621,0,5.248-0.097,7.863,0.025
		c2.977,0.139,4.627,1.88,4.556,4.82c-0.069,2.863-1.649,4.738-4.649,4.798c-5.367,0.105-10.74,0.157-16.104,0.002
		c-3.097-0.089-4.778-2.003-4.722-5.119c0.056-3.05,1.898-4.474,4.817-4.546c2.745-0.067,5.492-0.015,8.239-0.015
		C685.85,360.016,685.85,360.028,685.85,360.039z"/>
	<path fill-rule="evenodd" clip-rule="evenodd" fill="#F5C469" d="M605.437,586.333c2.243,0.005,4.486-0.024,6.729,0.011
		c3.2,0.052,4.308,2.156,4.458,4.904c0.148,2.683-1.33,4.285-3.971,4.462c-4.974,0.332-9.961,0.303-14.928-0.177
		c-2.872-0.277-4.223-2.18-4.011-4.877c0.207-2.639,1.675-4.368,4.62-4.333C600.701,586.352,603.068,586.329,605.437,586.333z"/>
	<path fill-rule="evenodd" clip-rule="evenodd" fill="#F5C469" d="M557.172,425.318c-0.429-7.116-7.354-12.602-16.113-12.757
		c-7.496-0.133-13.5,3.655-19.521,7.415c-1.267,0.791-2.436,2.482-4.178,0.742c5.743-6.587,12.315-11.933,21.113-13.832
		c9.661-2.084,18.848,4.164,19.979,13.64C558.648,422.176,559.369,424.203,557.172,425.318z"/>
	<path fill-rule="evenodd" clip-rule="evenodd" fill="#F5C469" d="M659.971,265.639c2.117,0,4.236-0.072,6.35,0.018
		c2.713,0.116,4.61,1.511,4.767,4.271c0.161,2.862-1.567,4.976-4.329,5.186c-4.582,0.346-9.228,0.372-13.807,0.017
		c-2.864-0.222-4.035-2.628-4.057-5.395c-0.021-2.868,1.875-3.88,4.353-4.018c2.234-0.123,4.481-0.025,6.724-0.025
		C659.971,265.675,659.971,265.657,659.971,265.639z"/>
	<path fill-rule="evenodd" clip-rule="evenodd" fill="#FC8119" d="M685.463,387.698c2.608,0,5.221-0.091,7.825,0.024
		c2.89,0.126,4.297,2.086,4.275,4.664c-0.021,2.664-1.629,4.343-4.521,4.348c-4.972,0.007-9.945,0.072-14.915-0.014
		c-2.881-0.049-4.914-1.636-4.827-4.533c0.087-2.895,1.745-4.799,5.08-4.617c2.354,0.129,4.722,0.025,7.082,0.025
		C685.463,387.63,685.463,387.664,685.463,387.698z"/>
	<path fill-rule="evenodd" clip-rule="evenodd" fill="#F5C469" d="M650.589,239.369c1.999,0,4.007-0.126,5.993,0.029
		c2.998,0.234,4.465,2.138,4.471,5.003c0.006,2.845-1.721,4.403-4.478,4.472c-4.244,0.107-8.495,0.008-12.742-0.046
		c-3.152-0.041-4.498-2.071-4.524-4.839c-0.025-2.8,1.852-4.301,4.537-4.512c2.234-0.175,4.495-0.036,6.743-0.036
		C650.589,239.418,650.589,239.394,650.589,239.369z"/>
	<path fill-rule="evenodd" clip-rule="evenodd" fill="#FC8119" d="M680.305,343.026c-1.986,0-3.974,0.027-5.959-0.007
		c-2.841-0.048-4.076-1.975-4.07-4.365c0.004-2.345,1.375-4.522,3.882-4.715c4.073-0.314,8.207-0.328,12.278-0.001
		c2.803,0.225,4.297,2.331,4.253,5.175c-0.043,2.801-1.939,3.856-4.428,3.996c-1.979,0.112-3.97,0.023-5.956,0.023
		C680.305,343.097,680.305,343.062,680.305,343.026z"/>
	<path fill-rule="evenodd" clip-rule="evenodd" fill="#FC8119" d="M156.142,616.009c-2.841,1.364-1.702,3.888-1.499,5.929
		c0.223,2.232-0.507,2.874-2.605,2.843c-5.101-0.076-10.202-0.017-15.303-0.011c-3.055-0.639-3.004-3.063-2.633-5.232
		c0.472-2.764,2.773-3.713,5.28-3.728C144.968,615.776,150.555,615.93,156.142,616.009z"/>
	<path fill-rule="evenodd" clip-rule="evenodd" fill="#FC8119" d="M675.266,462.748c-1.996,0-3.995,0.071-5.986-0.018
		c-2.824-0.125-3.93-1.969-3.881-4.502c0.049-2.56,1.391-4.299,4.085-4.41c3.612-0.148,7.235-0.177,10.851-0.094
		c3.131,0.071,4.252,2.235,4.372,4.965c0.122,2.796-1.59,4.038-4.203,4.152c-1.743,0.077-3.491,0.016-5.237,0.016
		C675.266,462.82,675.266,462.784,675.266,462.748z"/>
	<path fill-rule="evenodd" clip-rule="evenodd" fill="#FC8119" d="M507.527,544.885c8.166-7.522,20.8-9.654,27.178-4.695
		C526.197,544.824,517.338,546.126,507.527,544.885z"/>
	<path fill-rule="evenodd" clip-rule="evenodd" fill="#F5C469" d="M429.549,303.046c1.345,4.777,5.9,7.415,8.207,11.994
		c-3.079,0.299-5.609-0.556-8.124-1.385c-1.812-0.598-2.883-0.226-2.96,1.849c-4.977-5.554-5.455-9.625-1.664-17.53
		C426.625,299.78,428.088,301.413,429.549,303.046z"/>
	<path fill-rule="evenodd" clip-rule="evenodd" fill="#FC8119" d="M441.443,520.689c0.428-4.197,6.585-10.764,10.721-11.312
		c3.107-0.411,2.998,2.461,3.827,4.164c0.69,1.42,0.517,2.595-1.56,3.36c-3.631,1.338-7.404,2.533-10.492,5.065
		c-0.57,0.468-1.221,1.027-2.002,0.695C441.022,522.273,441.389,521.406,441.443,520.689z"/>
	<path fill-rule="evenodd" clip-rule="evenodd" fill="#F5C469" d="M615.744,619.688c0.074,3.255-2.229,5.663-5.532,5.784
		c-3.175,0.116-6.261-2.693-6.21-5.652c0.055-3.17,2.559-5.549,5.84-5.551C613.188,614.268,615.672,616.549,615.744,619.688z"/>
	<path fill-rule="evenodd" clip-rule="evenodd" fill="#F5C469" d="M665.618,291.379c3.721,0.006,6.465,2.499,6.411,5.827
		c-0.051,3.167-2.831,5.661-6.253,5.608c-3.323-0.051-6.01-2.721-5.942-5.903C659.903,293.708,662.343,291.374,665.618,291.379z"/>
	<path fill-rule="evenodd" clip-rule="evenodd" fill="#F5C469" d="M438.623,269.037c0.527,3.23,4.406,3.889,5.293,6.979
		c-4.136,0.565-7.433-2.162-11.232-2.781c-3.726-4.37-4.332-6.273-4.344-14.642c2.714,3.86,5.93,6.153,8.538,9.09
		c0.396,0.712,0.914,1.28,1.737,1.495L438.623,269.037z"/>
	<path fill-rule="evenodd" clip-rule="evenodd" fill="#FC8119" d="M444.118,504.508c-2.545,0.598-2.669-0.137-2.441-1.416
		c0.505-2.844,2.012-5.103,4.172-6.842c1.512-1.218,3.501-2.752,5.36-1.249c1.732,1.4,1.701,3.989,2.293,6.101
		c0.183,0.651-0.533,1.177-1.116,1.297C449.256,503.042,446.082,503.492,444.118,504.508z"/>
	<path fill-rule="evenodd" clip-rule="evenodd" fill="#F5C469" d="M79.965,640.467c2.822-0.031,5.338,2.385,5.167,5.158
		c-0.191,3.094-1.918,4.676-5.074,4.674c-3.004-0.003-5.292-2.139-5.255-4.982C74.837,642.779,77.266,640.498,79.965,640.467z"/>
	<path fill-rule="evenodd" clip-rule="evenodd" fill="#F5C469" d="M686.699,640.312c2.848-0.086,5.423,2.212,5.524,4.929
		c0.104,2.811-2.208,5.086-5.193,5.109c-2.896,0.022-5.208-2.188-5.302-5.065C681.645,642.726,683.975,640.395,686.699,640.312z"/>
	<path fill-rule="evenodd" clip-rule="evenodd" fill="#F5C469" d="M435.156,285.462c0.701,4.398,4.909,6.181,7.566,9.76
		c-5.656,0.139-9.269-3.262-13.352-5.507c-2.621-3.19-1.012-6.829-1.458-10.9C431.086,280.852,432.233,284.168,435.156,285.462z"/>
	<path fill-rule="evenodd" clip-rule="evenodd" fill="#F5C469" d="M581.135,619.977c0.234,2.355-0.884,3.852-3,4.711
		c0.011-0.883-0.389-1.422-1.293-1.535c0.467-3.561-2.685-2.739-4.415-3.615c-0.608-0.309-1.339-0.201-1.358,0.614
		c-0.046,1.83,1.477,2.696,2.62,3.732c1.157,1.05,1.975-0.414,2.983-0.56c0.103,0.867,0.65,1.256,1.462,1.363
		c-3.976,1.369-6.981,0.18-8.14-3.223c-0.807-2.369,0.824-5.697,3.325-6.784c3.04-1.321,5.995,0.113,7.641,3.713
		c-1.837-0.257-2.433-2.593-4.392-2.637c-0.93-0.021-2.486-0.348-2.234,1.032c0.405,2.201,3.361,2.174,4.414,4.218
		C579.196,621.877,580.345,620.45,581.135,619.977z"/>
	<path fill-rule="evenodd" clip-rule="evenodd" fill="#F5C469" d="M544.898,152.911c-5.792-0.115-10.85,0.387-15.805,1.521
		c-2.977,0.682-4.348-1.695-6.818-2.535C529.161,147.779,538.43,148.117,544.898,152.911z"/>
	<path fill-rule="evenodd" clip-rule="evenodd" fill="#FC8119" d="M660.648,649.592c-2.187-0.274-4.127-0.977-4.166-3.719
		c-0.037-2.561,1.447-3.988,3.89-4.051c2.406-0.061,4.027,1.286,4.266,3.765C664.901,648.334,663.05,649.227,660.648,649.592z"/>
	<path fill-rule="evenodd" clip-rule="evenodd" fill="#F5C469" d="M123.109,459.804c1.654,1.219,3.478,1.568,5.547,1.563
		c25.019-0.07,50.037-0.064,75.055-0.066c1.351,0,2.75-0.274,4.015,0.492c-26.764,0.036-53.529,0.091-80.293,0.061
		C125.829,461.852,123.412,462.852,123.109,459.804z"/>
	<path fill-rule="evenodd" clip-rule="evenodd" fill="#F5C469" d="M78.053,398.025c2.468,0.227,4.308,1.066,4.485,3.691
		c0.155,2.296-2.293,4.732-4.537,4.435c-2.378-0.316-3.865-1.936-3.899-4.266C74.066,399.389,75.787,398.214,78.053,398.025z"/>
	<path fill-rule="evenodd" clip-rule="evenodd" fill="#F5C469" d="M683.463,572.334c-2.922-0.231-4.377-1.752-4.504-4.319
		c-0.13-2.641,1.597-3.895,3.992-3.906c2.633-0.013,4.21,1.608,4.289,4.206C687.318,570.883,685.571,571.984,683.463,572.334z"/>
	<path fill-rule="evenodd" clip-rule="evenodd" fill="#F5C469" d="M590.245,274.645c-0.001,2.128,0.192,3.987-2.332,3.643
		c-2.03-0.277-4.701,0.354-5.483-2.332c-0.491-1.681,4.012-8.32,4.925-7.797C589.937,269.638,589.738,272.607,590.245,274.645z"/>
	<path fill-rule="evenodd" clip-rule="evenodd" fill="#FC8119" d="M699.295,300.659c-2.456-0.038-3.949-1.067-4.091-3.473
		c-0.141-2.396,1.196-3.766,3.501-3.785c2.163-0.018,3.932,1.001,3.989,3.445C702.748,299.108,701.633,300.595,699.295,300.659z"/>
	<path fill-rule="evenodd" clip-rule="evenodd" fill="#FC8119" d="M104.55,620.769c-0.478,1.962-1.235,3.857-3.688,3.847
		c-2.266-0.011-3.789-1.419-3.98-3.658c-0.216-2.539,1.683-3.489,3.8-3.604C102.826,617.238,104.04,618.627,104.55,620.769z"/>
	<path fill-rule="evenodd" clip-rule="evenodd" fill="#F5C469" d="M702.681,492.956c-0.108,2.54-1.58,3.977-3.994,3.978
		c-2.355,0.001-4.131-1.322-4.112-3.88c0.019-2.448,1.469-3.962,4.004-3.968C701.049,489.081,702.518,490.361,702.681,492.956z"/>
	<path fill-rule="evenodd" clip-rule="evenodd" fill="#F5C469" d="M550.802,241.503c-0.194,2.658-3.83,7.642-5.313,7.02
		c-2.451-1.028-3.639-3.975-3.11-5.808c0.961-3.334,4.845-1.344,7.261-2.417C550.58,239.878,550.846,240.707,550.802,241.503z"/>
	<path fill-rule="evenodd" clip-rule="evenodd" fill="#F5C469" d="M569.581,236.607c0.131,0,0.757-0.122,0.821,0.019
		c1.201,2.575-0.541,4.498-1.709,6.41c-0.665,1.088-1.839,2.763-3.459,0.847c-0.956-1.129-1.784-2.371-2.625-3.592
		c-0.83-1.209-0.625-2.049,0.932-2.37C565.48,237.521,567.412,237.081,569.581,236.607z"/>
	<path fill-rule="evenodd" clip-rule="evenodd" fill="#F5C469" d="M72.593,489.332c2.251,0.337,4.085,0.979,3.976,3.635
		c-0.104,2.555-1.673,4.051-4.021,3.986c-2.466-0.068-3.747-2.049-3.613-4.361C69.054,490.537,70.462,489.264,72.593,489.332z
		 M75.403,493.088c-0.116-1.559-1.156-1.828-2.33-1.862c-1.271-0.036-2.736,0.058-2.689,1.692c0.034,1.173,0.807,2.459,2.235,2.529
		C74.179,495.523,74.931,494.342,75.403,493.088z"/>
	<path fill-rule="evenodd" clip-rule="evenodd" fill="#F5C469" d="M555.156,266.286c-0.8,1.121,1.202,3.684-1.482,3.631
		c-1.983-0.039-4.493-0.295-5.603-2.609c-0.338-0.705,4.574-6.023,5.372-5.763C555.881,262.343,554.581,264.609,555.156,266.286z"/>
	<path fill-rule="evenodd" clip-rule="evenodd" fill="#F5C469" d="M581.461,234.452c1.812-1.975,4.446-1.78,6.651-2.551
		c1.136-0.398,1.651,0.396,1.348,1.46c-0.719,2.517-0.683,6.197-3.729,6.485C583.453,240.061,582.545,236.805,581.461,234.452z"/>
	<path fill-rule="evenodd" clip-rule="evenodd" fill="#F5C469" d="M572.319,271.845c-0.612,1.165,1.105,3.825-1.889,3.286
		c-1.823-0.329-4.418,0.183-5.18-2.398c-0.319-1.082,4.026-5.758,5.067-5.472C572.72,267.921,571.818,270.204,572.319,271.845z"/>
	<path fill-rule="evenodd" clip-rule="evenodd" fill="#F5C469" d="M607.067,228.32c-0.512,2.359-0.562,5.453-3.393,5.491
		c-2.134,0.029-3.218-2.719-4.295-4.616c-0.28-0.493,5.529-3.154,6.655-3.001C607.563,226.402,607.186,227.474,607.067,228.32z"/>
	<path fill-rule="evenodd" clip-rule="evenodd" fill="#FC8119" d="M445.682,481.07c1.151,1.803,3.908,3.145,2.418,5.279
		c-0.662,0.948-4.358,1.269-4.74,0.659C441.835,484.574,445.719,483.561,445.682,481.07z"/>
	<path fill-rule="evenodd" clip-rule="evenodd" fill="#F5C469" d="M522.154,242.663c2.663-0.389,5.131,0.979,7.975,0.122
		c-0.34,3.338-2.34,5.039-4.465,6.538c-1.241,0.875-2.02,0.163-2.299-1.238C523.012,246.318,522.584,244.567,522.154,242.663z"/>
	<path fill-rule="evenodd" clip-rule="evenodd" fill="#F5C469" d="M536.988,256.483c0.148,3.197,1.798,6.077-0.741,7.533
		c-1.178,0.674-4.835-0.752-4.863-2.391C531.337,259.025,534.46,258.262,536.988,256.483z"/>
	<path fill-rule="evenodd" clip-rule="evenodd" fill="#F5C469" d="M698.532,422.186c0.169-1.042,1.216-1.098,1.818-1.648
		c1.877-1.715,1.182-4.93-1.255-5.854c-0.77-0.292-1.793-0.122-1.873-1.34c3.7-0.223,6.133,1.3,6.106,4.146
		C703.301,420.47,702.001,422.533,698.532,422.186z"/>
	<path fill-rule="evenodd" clip-rule="evenodd" fill="#F5C469" d="M654.848,405.606c0.004-10.687,0.008-21.374,0.015-32.044
		C655.436,384.254,656.04,394.931,654.848,405.606z"/>
	<path fill-rule="evenodd" clip-rule="evenodd" fill="#F5C469" d="M120.556,264.702c-5.948-2.497-12.209-0.999-18.32-1.406
		c-2.343-0.156-4.7-0.085-7.05-0.118c6.332-1.489,12.764-0.184,19.135-0.684C116.662,262.311,119.083,262.264,120.556,264.702z"/>
	<path fill-rule="evenodd" clip-rule="evenodd" fill="#F5C469" d="M502.656,560.445c0,0-0.115-0.002-0.111-0.004
		S502.656,560.445,502.656,560.445z"/>
	<polygon fill-rule="evenodd" clip-rule="evenodd" fill="#FC8119" points="116.764,350.429 116.767,350.395 116.659,350.294 	"/>
	<path fill-rule="evenodd" clip-rule="evenodd" fill="#F5C469" d="M611.047,296.389c-0.029,0.645-0.298,1.105-0.969,1.257
		C610.1,296.996,610.467,296.61,611.047,296.389z"/>
	<path fill-rule="evenodd" clip-rule="evenodd" fill="#FC8119" d="M438.615,269.178c-0.823-0.214-1.342-0.783-1.737-1.495
		C438.016,267.532,439.264,267.253,438.615,269.178z"/>
	<path fill-rule="evenodd" clip-rule="evenodd" fill="#013F54" d="M443.552,626.303c1.874,0,3.751-0.061,5.621,0.014
		c3.565,0.14,6.04,2.311,6.432,5.543c0.411,3.408-1.579,6.666-5.067,7.186c-4.805,0.715-9.725,1.007-14.534,0.025
		c-3.684-0.752-5.111-3.046-4.79-6.754c0.315-3.64,2.337-5.73,5.969-5.954c2.116-0.13,4.246-0.023,6.37-0.023
		C443.552,626.327,443.552,626.314,443.552,626.303z"/>
	<path fill-rule="evenodd" clip-rule="evenodd" fill="#013F54" d="M480.869,200.577c-0.921-1.727-1.925-3.416-2.751-5.186
		c-5.059-10.841,1.772-22.14,11.67-26.255c9.288-3.862,21.926,1.942,25.01,11.889c2.688,8.667,0.399,16.469-6.815,22.458
		C496.206,209.522,490.868,208.95,480.869,200.577z M495.344,191.654c2.776-0.027,4.961-2.185,4.967-4.905
		c0.008-3.126-1.847-4.764-5.299-4.73c-3.096,0.029-4.479,1.699-4.515,4.655C490.463,189.514,492.596,191.682,495.344,191.654z"/>
	<path fill-rule="evenodd" clip-rule="evenodd" fill="#013F54" d="M597.858,196.542c0.111,1.997-0.736,3.806-2.705,4.736
		c-2.108,0.997-4.187,0.547-5.747-1.253c-1.458-1.684-2.746-3.515-4.155-5.243c-0.683-0.838-1.138-2.332-2.426-2.072
		c-4.116,0.831-3.328-2.456-3.631-4.42c-0.394-2.547,0.598-4.633,3.381-5.474c2.088-0.631,3.958,0.161,5.831,0.777
		C593.527,185.277,597.925,191.271,597.858,196.542z"/>
	<path fill-rule="evenodd" clip-rule="evenodd" fill="#F5C469" d="M480.869,200.577c9.999,8.373,15.337,8.946,27.113,2.905
		c-2.552,4.86-7.296,6.017-12.061,6.711c-5.09,0.742-9.744-0.972-14.144-3.526C478.794,204.933,479.523,202.85,480.869,200.577z"/>
	<path fill-rule="evenodd" clip-rule="evenodd" fill="#F5C469" d="M251.239,378.734l0.022,0.023L251.239,378.734z"/>
	<path fill-rule="evenodd" clip-rule="evenodd" fill="#013F54" d="M454.532,353.752c-0.066,0.038-0.134,0.076-0.2,0.115
		c0.025-0.046,0.051-0.092,0.068-0.141C454.393,353.724,454.532,353.752,454.532,353.752z"/>
	<path fill-rule="evenodd" clip-rule="evenodd" fill="#F5C469" d="M156.878,318.892c-0.594,0.33-0.687,0.131-0.447-0.422
		C156.583,318.605,156.732,318.747,156.878,318.892z"/>
	<path fill-rule="evenodd" clip-rule="evenodd" fill="#FC8119" d="M576.672,623.325c-1.009,0.145-1.826,1.608-2.983,0.559
		c-1.144-1.036-2.666-1.902-2.62-3.732c0.02-0.815,0.75-0.923,1.358-0.614c1.73,0.876,4.882,0.055,4.415,3.615L576.672,623.325z"/>
	<path fill-rule="evenodd" clip-rule="evenodd" fill="#FC8119" d="M581.135,619.977c-0.79,0.474-1.938,1.9-2.387,1.03
		c-1.053-2.044-4.009-2.017-4.414-4.218c-0.252-1.38,1.305-1.054,2.234-1.032c1.959,0.044,2.555,2.38,4.392,2.637
		C581.018,618.918,581.076,619.447,581.135,619.977z"/>
	<path fill-rule="evenodd" clip-rule="evenodd" fill="#FC8119" d="M576.842,623.152c0.904,0.113,1.304,0.652,1.293,1.535
		c0,0.001-0.001,0-0.001,0c-0.812-0.107-1.359-0.496-1.462-1.363C576.672,623.325,576.842,623.152,576.842,623.152z"/>
	<path fill-rule="evenodd" clip-rule="evenodd" fill="#FC8119" d="M75.403,493.088c-0.473,1.254-1.224,2.436-2.785,2.359
		c-1.428-0.07-2.201-1.356-2.235-2.529c-0.047-1.635,1.418-1.729,2.689-1.692C74.248,491.26,75.288,491.529,75.403,493.088z"/>
	<path fill-rule="evenodd" clip-rule="evenodd" fill="#F5C469" d="M495.344,191.654c-2.748,0.028-4.881-2.14-4.847-4.98
		c0.035-2.956,1.419-4.626,4.515-4.655c3.452-0.033,5.307,1.604,5.299,4.73C500.305,189.47,498.12,191.627,495.344,191.654z"/>
</g>
</svg>
