<?xml version="1.0" encoding="utf-8"?>
<!-- Generator: Adobe Illustrator 16.0.3, SVG Export Plug-In . SVG Version: 6.00 Build 0)  -->
<!DOCTYPE svg PUBLIC "-//W3C//DTD SVG 1.1//EN" "http://www.w3.org/Graphics/SVG/1.1/DTD/svg11.dtd">
<svg version="1.1" id="Layer_1" xmlns="http://www.w3.org/2000/svg" xmlns:xlink="http://www.w3.org/1999/xlink" x="0px" y="0px"
	 width="822.047px" height="822.047px" viewBox="0 0 822.047 822.047" enable-background="new 0 0 822.047 822.047"
	 xml:space="preserve">
<rect fill="#013F54" width="822.047" height="822.047"/>
<g>
	<g>
		<path fill="#FC8119" d="M538.045,646.287c0.194-0.689,0.387-1.379,0.62-2.208c-2.535-0.175-4.146,1.772-6.252,2.356
			c-0.817,0.225-1.659,0.912-2.37,0.016c-0.566-0.71,0.051-1.434,0.393-2.053c1.881-3.389,3.775-6.768,5.712-10.122
			c26.542-46.011,53.097-92.017,79.64-138.028c1.123-1.947,2.346-3.855,3.29-5.888c1.86-3.993,0.926-7.139-2.464-8.94
			c-3.332-1.77-5.846-0.887-8.232,3.252c-8.38,14.501-16.647,29.066-25.011,43.576c-23.974,41.576-48.085,83.074-71.833,124.779
			c-3.416,5.999-7.563,9.68-14.105,11.891c-18.771,6.352-37.715,11.837-57.412,14.412c-16.065,2.104-32.186,2.791-48.352,1.467
			c-3.928-0.322-3.952-0.662-1.932-4.129c10.327-17.701,20.658-35.4,30.953-53.119c0.747-1.283,1.447-2.662,1.8-4.087
			c0.847-3.417-0.897-6.889-4.013-7.88c-3.291-1.049-5.896,0.23-7.601,3.114c-3.181,5.378-6.235,10.829-9.358,16.238
			c-8.061,13.966-16.293,27.835-24.092,41.94c-2.455,4.439-4.665,7.803-10.338,5.371c1.679-1.201,1.837-3.299,2.797-4.934
			c7.199-12.24,14.275-24.559,21.38-36.854c0.561-0.971,1.173-1.926,1.606-2.953c1.514-3.561-0.336-6.267-4.175-6.161
			c-0.869,0.022-1.735,0.105-2.606,0.157c3.021-5.402,6.023-10.814,9.065-16.203c2.181-3.855,2.326-7.471,0.111-9.631
			c-2.916-2.838-6.058-2.106-9.175-0.269c-1.298,0.712-1.76,2.06-2.434,3.231c-12.508,21.666-25.023,43.331-37.471,65.032
			c-1.029,1.795-2.243,3.2-4.128,4.021c-6.287-1.375-12.359-3.278-18.39-5.65c-5.709-2.248-11.509-4.326-17.219-6.637
			c-14.374-5.825-27.776-13.433-40.952-21.52c-6.664-4.092-13.141-8.391-18.978-13.609c5.297-10.814,13.505-17.479,25.716-19.441
			c10.318-1.662,20.636-1.78,30.976-1.451c15.725,0.498,31.524,0.928,47.059-1.287c18.897-2.696,37.497-7.165,54.016-17.516
			c2.224-1.389,3.628-1.1,4.944,0.968c2.306,3.62,5.488,6.475,8.473,9.478c9.187,9.242,15.561,20.066,18.688,32.733
			c2.285,9.259,6.328,17.073,16.055,20.468c-0.318,9.341,9.549,14.25,18.354,13.484c13.205-1.148,21.844-10.054,25.761-22.287
			c5.027-15.688-0.587-28.903-10.075-41.115c-5.717-7.356-11.998-14.275-17.074-22.123c-0.332-0.511-0.533-1.107-0.794-1.664
			c17.188-11.1,32.356-24.533,46.017-39.732c7.195-8.002,13.428-16.685,19.326-25.684c7.041-10.742,11.896-22.396,16.028-34.457
			c1.474-4.296,1.329-9.418,5.179-12.605c5.838-4.834,12.453-8.076,20.08-9.322c8.598-1.407,17.182,0.061,25.785-0.459
			c19.696-1.193,34.749-18.473,31.406-38.087c-1.285-7.534-2.278-16.048-12.169-18.218c-0.521-0.115-0.929-0.746-1.392-1.135
			c0.02-0.473,0.039-0.943,0.059-1.408c-0.001,0.004,0.06-0.096,0.06-0.096c0.268-4.223,1.591-8.113,4.165-11.439
			c3.832-4.947,5.625-10.523,5.521-16.688c-0.101-5.995,2.596-10.047,8.142-12.002c2.356-0.827,2.469-1.846,1.554-3.831
			c-5.201-11.262-14.133-17.634-26.25-18.961c-13.313-1.456-23.711,4.205-31.298,14.997c-8.425,11.986-9.847,25.508-8.234,39.637
			c0.165,1.444,0.759,2.91,0.214,4.401c-0.793,1.005-1.773,1.264-2.984,0.818c-2.803-1.034-5.661-1.935-8.418-3.079
			c-10.299-4.287-20.964-7.284-32.019-8.656c-6.793-0.842-6.677-0.59-8.239-7.21c-0.626-2.657,0.092-3.896,2.487-4.835
			c2.784-1.088,5.409-2.507,7.649-4.596c12.85-11.96,16.371-27.578,9.939-43.994c-0.846-2.16-2.46-4.48-1.44-6.77
			c2.116-4.772,0.628-8.687-2.095-12.514c10.07-8.72,12.033-17.711,5.217-28.341c-5.557-8.672-14.385-11.972-24.4-11.443
			c-13.01,0.685-21.382,8.198-26.857,19.532c1.82-3.322-0.275-4.639-2.916-5.867c-2.668-1.245-4.735-1.021-6.373,1.643
			c-2.172,3.529-2.678,7.545-3.117,11.469c-0.4,3.564-1.616,3.264-3.898,1.622c-4.557-3.265-9.033-6.673-13.783-9.634
			c-12.188-7.6-24.738-14.545-38.027-20.07c-1.876-0.776-3.672-1.513-1.797-3.974c8.085-10.612,15.977-21.366,23.271-32.55
			c8.4-12.882,14.883-26.193,12.439-42.361c-0.593-3.931-2.412-5.741-5.635-6.961c-2.31-0.876-4.891-1.162-6.678-3.146l0.18,0.197
			c0,0-0.199,0.178-0.197,0.176c0.202-0.656-0.063-1.119-0.607-1.468c-1.641-2.46-3.125-5.048-4.96-7.359
			c-4.237-5.347-10.366-6.054-15.737-1.913c-0.741,0.567-1.316,1.004-2.301,0.802c-11.174-2.3-20.071,2.454-28.346,9.155
			c-0.383,0.309-0.854,0.511-1.626,0.961c0.947-5.168,2.915-9.928,2.222-15.071c-0.106-0.769,0.807-1.78,1.434-2.522
			c2.264-2.664,3.217-5.863,2.381-9.084c-0.875-3.377,0.928-3.576,3.197-3.636c10.525-0.275,21.033,0.003,31.541,0.674
			c16.938,1.079,33.602,3.982,49.876,8.618c17.633,5.029,34.894,11.207,51.063,20.017c9.236,5.341,18.49,10.688,27.742,16.034
			c9.77,5.869,18.59,12.997,27.197,20.408c7.077,6.095,13.991,12.35,20.373,19.198c16.623,17.832,30.69,37.39,41.416,59.363
			c7.981,16.357,14.455,33.229,19.338,50.749c6.42,23.039,9.84,46.531,10.941,70.389c0.113,2.479,0.171,4.957,0.197,7.438
			c0.057,4.715-1.089,8.99-3.648,13.096c-4.359,6.992-8.313,14.244-12.387,21.413c-3.139,5.526-1.415,9.982,4.729,11.233
			c2.753,0.564,2.671,1.665,2.347,3.82c-2.059,13.729-6.102,26.881-10.797,39.928c-7.314,20.334-17.043,39.417-29.141,57.234
			c-7.263,10.695-15.29,20.881-24.118,30.407c-6.005,6.481-12.068,12.86-19.159,18.157c-0.282-0.167-0.561-0.334-0.844-0.502
			c1.123-1.939,2.238-3.877,3.359-5.816c15.937-27.595,31.871-55.191,47.799-82.793c0.748-1.296,1.561-2.588,2.092-3.974
			c1.229-3.206-0.135-6.761-3.059-8.362c-2.88-1.574-6.582-0.696-8.613,2.127c-0.729,1.006-1.295,2.133-1.921,3.215
			c-22.767,39.383-45.532,78.77-68.308,118.141c-0.748,1.295-1.628,2.509-2.442,3.748c-2.031-0.113-2.104,1.797-2.846,2.912
			c-3.177,4.769-5.232,10.405-10.894,13.801C543.336,647.336,539.587,647.934,538.045,646.287z M646.473,479.422
			c0.014,0.006,0.022,0.012,0.033,0.018c-1.063,1.84-2.218,3.631-3.164,5.529c-1.623,3.257-0.823,6.049,2.172,8.146
			c3.049,2.132,5.751,2.041,8.244-0.773c3.252-3.676,5.459-8.081,7.244-12.598c1.295-3.281-0.531-6.634-3.689-7.98
			c-2.996-1.277-6.113-0.221-8.019,2.799C648.297,476.143,647.411,477.8,646.473,479.422z"/>
		<path fill="#FC8119" d="M194.813,573.487c-18.483-25.736-32.028-53.858-41.086-84.218c-6.018-20.152-9.217-40.703-9.823-61.684
			c-0.759-26.21,1.821-52.065,7.872-77.612c7.678-32.435,21.065-62.329,39.654-89.88c11.259-16.688,24.488-31.762,39.251-45.51
			c4.832-4.502,9.903-8.678,14.931-12.928c0.798-0.673,1.636-1.118,2.911-1.303c0.212,2.6-0.633,5.042-0.896,7.538
			c-0.922,8.729,0.865,16.997,4.365,24.961c0.245,0.553,0.766,1.006,0.423,1.698c-0.517,2.568-1.25,5.11-1.523,7.705
			c-1.779,16.965,3.951,32.073,12.772,45.919c10.015,15.721,23.818,27.747,40.049,36.96c7.606,4.318,15.226,8.629,22.696,13.178
			c7.117,4.33,12.305,10.56,15.936,17.988c6.477,13.246,5.652,27.193,3.176,41.107c-2.298,12.92-5.915,25.506-10.161,37.955
			c-7.26,21.289-17.286,40.889-32.715,57.469c-7.965,8.557-16.933,15.776-27.352,21.235c-11.925,6.25-24.348,11.452-36.192,17.902
			c-14.052,7.659-26.051,17.465-35.571,30.333C200.721,566.102,197.723,569.764,194.813,573.487z"/>
	</g>
	<g>
		<path fill="#FC8119" d="M377.26,343.789c-0.016-0.12-0.084-0.262-0.045-0.362c1.782-4.587,1.788-4.501-3.283-4.313
			c-1.664,0.062-3.461,0.58-5.059-0.473c-1.756-1.105-1.544-2.219-0.123-3.491c1.977-1.764,3.986-3.524,5.265-6.34
			c-5.121-0.292-9.68,2.334-14.49,1.109c0.039-1.341,1.294-1.718,2.021-2.5c0.667-0.725,1.456-1.337,2.193-1.997
			c-3.933-0.166-7.879-0.21-11.798-0.553c-1.38-0.121-3.029-0.091-4.052-1.461c3.989-2.415,8.738-3.842,11.447-8.81
			c-4.428,0.509-8.076,3.262-12.235,1.671c0.672-0.881,1.342-1.758,2.161-2.832c-4.61-1.113-9.466,0.551-13.987-1.14
			c2.438-2.981,6.449-4.474,8.026-8.334c-3.121-0.778-5.63,2.251-8.691,1.093c-5.343-1.011-11.087,0.539-16.102-2.551
			c3.29-0.694,6.53-1.502,9.647-3.821c-14.017-1.099-20.066-2.966-25.135-7.803c3.146-0.251,6.06-0.432,8.96-0.74
			c1.129-0.125,2.941,0.325,2.959-1.391c0.011-1.125-1.586-1.386-2.693-1.601c-7.831-1.512-14.316-5.668-20.472-10.452
			c-0.962-0.744-2.46-1.574-1.994-2.875c0.601-1.67,2.479-0.833,3.645-0.724c2.589,0.24,5.062,0.472,7.803-1.166
			c-1.173-0.565-1.962-0.896-2.701-1.315c-8.099-4.593-16.775-8.494-20.985-17.712c-0.943-2.066-2.498-3.708-4.064-5.318
			c2.088-1.249,4.218-2.351,6.786-1.979c1.509-1.229,0.786-2.212-0.138-3.467c-1.565-2.124-3.673-3.674-5.429-5.571
			c-14.912-16.149-8.953-41.222,11.792-48.648c3.843-1.378,5.505-3.359,6.601-7.027c2.554-8.544,5.124-9.566,13.358-6.512
			c2.18,0.806,4.224,2.461,6.843,2.036c-0.023-1.407-0.947-1.945-1.621-2.653c-8.674-9.148-8.786-11.781-0.907-21.68
			c0.309-0.391,0.651-0.758,0.994-1.119c3.363-3.537,3.67-3.496,6.777,0.322c3.676,4.518,7.921,8.373,13.173,11.089
			c-3.13-4.239-5.657-8.782-8.465-13.148c-1.753-2.731-2.217-9.521-0.209-12.028c6.786-8.477,14.89-14.446,26.553-12.983
			c1.208,0.149,2.832,0.204,2.77-1.021c-0.249-4.866,3.647-4.533,6.444-5.37c4.102-1.229,11.936,1.339,14.083,4.352
			c-0.157,7.003-2.03,13.731-3.387,20.53c-2.647,13.286-6.18,26.402-10.816,39.08c-4.558,12.463-9.089,25.021-15.433,36.777
			c-2.364,4.377-4.325,8.992-6.638,13.365c-4.767,9.013-10.251,17.663-17.87,24.669c-2.735,2.519-4.525,5.675-5.996,8.952
			c-1.753,3.913,0.497,7.889,5.048,9.657c1.967,0.765,3.937,1.535,5.901,2.308c0.583,1.4,0.011,3.683,2.162,3.89
			c1.763,0.169,2.144-1.833,2.962-3.021c2.193-3.189,4.348-6.418,7.125-9.142c8.688-8.527,19.094-14.833,28.777-22.06
			c10.195-7.611,20.35-15.247,29.602-24.004c9.678-9.163,19.231-18.463,27.999-28.514c1.737-1.994,4.094-4.032,3.343-7.31
			c1.871-2.64,3.724-5.289,5.629-7.905c0.408-0.561,0.843-1.391,1.758-0.994c0.816,0.349,0.818,1.297,0.854,1.959
			c0.354,6.415-0.423,12.738-3.358,18.467c-7.422,14.48-16.733,27.771-26.309,40.891c-7.354,10.076-15.285,19.649-24.032,28.537
			c-8.452,8.592-18.143,14.988-30.424,16.484c-3.668,0.447-7.384,0.501-11.037-0.352c-0.952-0.221-1.968-0.746-2.792,0.197
			c-0.934,1.068-0.307,2.209,0.197,3.146c1.048,1.953,2.292,3.683,4.238,5.038c10.272,7.158,21.238,6.458,32.559,3.386
			c5.612-1.521,10.185-5.034,15.995-8.062c-1.425,9.999-8.316,15.212-14.645,20.917c4.717-0.175,14.354-4.845,18.695-8.891
			c3.921-3.658,7.598-7.514,10.648-11.949c0.44-0.64,0.826-1.837,1.911-1.355c0.853,0.373,0.855,1.404,0.905,2.31
			c0.158,3.042-0.229,5.983-1.657,8.692c-1.513,2.868-3.236,5.629-4.7,8.521c-1.43,2.825-4.396,4.362-6.276,7.741
			c11.88-3.1,18.565-11.791,26.244-20.727c1.534,13.652-6.485,21.605-14.593,29.702c4.144-0.056,10.859-3.208,14.402-6.426
			c3.97-3.602,8.048-7.073,10.746-11.843c0.516-0.912,1.308-2.203,2.593-1.62c1.328,0.604,0.8,2.104,0.384,2.997
			c-3.054,6.551-4.791,13.75-8.846,19.759c-2.175,3.226-5.65,5.503-8.908,7.767c0.03,0.039,0.059,0.083,0.088,0.129
			c-0.004-0.076,0-0.155-0.001-0.232c3.624,0.435,6.699-1.378,9.919-2.512c1.693-0.596,3.158-0.618,3.581,1.249
			c1.378,6.089,5.821,9.921,9.944,13.997c1.812,1.789,4.008,4.021,3.32,6.271c-0.769,2.506-4.066,1.668-6.284,1.752
			c-3.957,0.152-7.917-0.488-11.889,0.004c-5.165,0.641-9.722,2.607-13.918,5.677c-2.386,1.744-1.627,2.725,0.521,3.487
			c10.337,3.656,20.951,5.318,31.924,4.212c4.02,2.745,8.094,1.933,11.876-0.257c4.345-2.518,6.39-6.693,6.183-11.612
			c-0.363-8.562-3.58-16.151-8.906-22.813c-3.884-4.856-6.952-9.836-4.24-16.36c0.695,2.338,1.085,4.767,2.457,6.884
			c0.608,0.938,0.912,2.284,2.13,2.409c1.512,0.152,1.407-1.5,1.901-2.381c2.461-4.389,3.828-5.273,8.9-5.133
			c-4.292,5.852-4.768,12.111-1.98,18.393c1.389,3.139,3.736,5.847,5.541,8.814c9.317,15.28,4.018,27.59-8.826,36.752
			c-7.363,5.25-15.947,8.234-24.875,9.381c-8.238,1.061-16.392-0.322-23.939-4.037c-3.461-1.705-6.713-3.827-10.791-6.181
			c0.363,4.632,2.85,7.388,5.135,9.79c9.711,10.229,21.801,14.052,35.676,11.906c11.231-1.738,21.385-6.336,30.326-13.237
			c5.164-3.985,11.787-5.294,16.578-9.835c1.107-1.051,1.922-0.355,1.908,1.309c-0.049,6.197-3.927,10.094-8.352,13.388
			c-8.32,6.194-17.733,10.136-27.934,12.294c3.506,1.229,12.56,0.601,18.367-0.682c6.539-1.445,12.75-3.476,18.381-7.202
			c1.662-1.099,2.209-0.686,2.477,1.688c0.828,7.287-3.113,10.896-9.11,13.162c-4.862,1.836-9.754,3.621-14.72,5.137
			c-4.953,1.514-10.074,2.379-15.715,2.986c3.226,1.996,6.565,1.656,9.614,1.946c8.534,0.805,17.041,0.456,25.212-2.608
			c2.108-0.79,2.475-0.238,2.257,1.988c-0.782,7.963-3.989,10.949-12.61,11.311c-7.621,0.318-15.102-0.842-22.479-2.488
			c-13.523-3.013-27.077-3.941-40.643-0.748c-9.962,2.348-19.394,6.05-26.615,13.75c-3.359,3.582-6.209,7.533-5.937,12.862
			c-3.558,6.944-4.563,12.325-2.887,15.629c10.105-13.672,22.578-24.22,38.895-29.729c0.293-0.099,0.464-0.559,0.693-0.849
			c14.663-1.972,28.807,0.342,42.75,4.89c8.036,2.619,15.282,6.73,22.471,11.005c9.704,5.77,17.709,13.206,22.722,23.503
			c3.829,7.867,4.614,15.895,0.969,24.082c-4.622,10.384-12.237,18.33-20.68,25.641c-8.916,7.721-18.112,15.082-27.319,22.443
			c-2.106,1.686-3.895,3.9-5.422,6.152c-3.163,4.649-2.662,9.395-0.293,14.384c5.463,11.5,13.435,21.394,20.086,32.126
			c4.034,6.508,7.573,13.026,7.291,21.021c-0.198,5.672-2.504,10.182-7.224,14.756c-0.22-7.446-3.591-12.984-6.089-18.849
			c-0.432-1.013-0.533-1.943-1.973-1.327c-4.071,1.741-4.929-0.469-5.683-4.024c-2.821-13.269-10.331-23.982-19.201-33.884
			c-1.32-1.475-2.566-3.012-3.852-4.521c1.358-0.531,1.354-0.53,0.54-2.002c-2.847-5.13-5.938-10.174-6.401-16.237
			c-0.376-4.982,1.054-10.343,5.485-11.778c5.598-1.807,6.818-4.758,7.943-9.908c1.486-6.786,6.348-12.014,11.619-16.615
			c8.422-7.355,18.287-12.041,28.688-15.782c0.872-0.314,2.018-0.298,2.307-1.771c-2.139-0.583-4.266-1.156-6.391-1.732
			c-4.796-2.89-10.122-3.38-15.494-3.008c-3.291,0.229-3.639-1.152-2.91-3.709c0.643-2.266,1.297-4.52,2.127-7.398
			c-4.916,2.712-7.597,6.604-9.77,10.902c-1.704,3.377-3.416,6.475-7.564,7.619c-2.023,0.559-2.199-0.031-2.77-1.564
			c-1.721-4.609-0.703-9.275-0.539-13.921c0.057-1.606,0.395-3.204,0.602-4.78c-4.51,3.434-5.003,8.054-7.363,14.359
			c-1.028,2.739-1.807,5.709-1.43,8.786c0.256,2.101-0.604,3.474-2.887,3.305c-2.115-0.159-4.713,1.079-5.602-2.522
			c-2.012-8.146-1.587-16.25-0.26-24.396c0.119-0.731,0.262-1.46,0.191-2.257c-4.226,6.592-7.864,13.39-8.091,21.509
			c-0.034,1.229-0.099,2.53-0.527,3.655c-0.614,1.594,2.294,4.537-1.749,4.801c-4.488,0.288-6.818-1.292-7.771-4.674
			c-1.432-5.106-0.038-10.088,0.326-15.117c0.083-1.179,0.779-2.335,0.037-3.82c-3.72,5.154-6.545,10.517-8.021,16.499
			c-0.683,2.771-1.431,3.638-4.484,2.203c-8.621-4.058-15.516-10.247-22.173-17.212c-0.02,3.013-0.02,3.013,4.763,9.869
			c-5.117-1.617-9.046-4.609-14.043-7.281c1.793,9.698,6.377,16.799,12.837,23.074c6.381,6.201,14.345,9.84,21.893,14.34
			c-12.392,8.918-42.61,4.723-59.38-18.512c2.597,9.654,6.475,17.568,12.777,24.389c5.314,5.747,11.324,10.352,18.388,13.656
			c0.874,0.408,2.219,0.775,2.184,1.807c-0.045,1.315-1.549,1.361-2.549,1.655c-13.678,4.044-26.021,0.774-37.5-6.979
			c-4-2.701-7.669-5.799-10.592-9.768c0.726,13.939,8.211,23.432,20.133,30.08c-12.562,7.148-31.271-0.961-45.738-19.756
			c-1.943,5.496,0.024,10.164,1.269,14.885c1.354,5.138,5.98,8.104,8.472,12.555c-12.136,3.422-22.287-2.856-32.609-20.255
			c-2.363,7.194-0.269,13.443,2.402,19.626c0.484,1.116,1.736,2.572,1.397,3.227c-0.638,1.221-2.37,0.793-3.702,0.683
			c-7.432-0.616-12.486-4.948-16.657-10.66c-0.995-1.366-1.476-3.152-3.407-4.225c-1.927,6.296-0.185,11.754,3.016,16.716
			c1.357,2.107,0.931,2.532-1.004,3.3c-5.833,2.326-11.95-0.17-16.82-7.012c-0.353-0.495-0.668-1.019-1.067-1.633
			c-1.51,4.612-0.197,10.509,3.413,14.345c1.649,1.756,1.669,2.638-0.509,3.883c-6.097,3.48-7.824,3.135-14.986-3.594
			c-1.317,3.807,0.154,9.161,3.655,13.093c0.869,0.979,2.402,1.654,1.247,3.351c-1.025,1.51-1.75,3.439-4.103,3.223
			c-1.735-0.161-3.453-0.444-5.19-0.601c-2.438-0.217-3.284,0.818-2.253,3.114c1.062,2.362,2.903,4.036,5.05,5.379
			c1.525,0.953,2.097,2.103,1.093,3.729c-4.355,7.063-2.409,14.785-2.213,22.285c0.079,3.045,0.885,6.068,1.362,9.104
			c-5.509-9.1-7.735-19.249-9.381-29.563c-1.138-7.129,0.073-14.219,1.109-21.203c1.595-10.738,7.083-19.912,13.36-28.523
			c1.414-1.936,3.652-5.104,6.988-1.879c0.358,0.486,0.578,0.505,0.588-0.175c1.169-5.437,3.833-10.009,8.143-13.519
			c4.451-3.628,5.575-3.419,8.026,1.134c1.473-0.753,1.748-2.335,2.488-3.575c2.799-4.694,6.912-7.777,11.994-9.586
			c2.138-0.762,3.661-0.385,3.67,2.445c0.006,1.669,0.079,3.424,1.046,5.212c1.476-1.028,1.599-2.458,1.928-3.696
			c0.686-2.58,1.952-4.855,3.374-7.064c0.522-0.812,1.135-2.011,2.303-1.285c1.964,1.213,3.014-0.058,4.143-1.214
			c1.244-1.272,2.731-2.177,4.305-2.942c2.415-1.178,3.691-0.529,3.167,2.285c-0.308,1.665-0.517,3.167,1.254,4.371
			c1.084-1.913,1.888-3.792,2.252-5.903c0.472-2.732,1.597-5.251,3.143-7.545c0.523-0.778,1.445-2.052,2.306-0.815
			c2.27,3.252,3.237,0.916,4.561-0.763c1-1.264,2.19-2.38,3.268-3.588c1.986-2.234,2.958-1.873,3.944,0.999
			c1.168,3.402,2.374,7.025,6.497,8.607c-0.229-2.393-1.098-4.565-1.594-6.82c-1.703-7.748,0.336-13.527,5.762-17.234
			c2.459-1.682,4.279-1.956,6.124,0.998c1.826,2.924,3.738,5.932,6.931,7.689l-0.029,0.008c0.542-2.297-0.925-4.063-1.672-5.979
			c-1.974-5.063-2.325-10.182-0.977-15.42c0.18-0.697,0.289-1.617,1.148-1.771c0.924-0.163,1.238,0.67,1.475,1.373
			c0.394,1.173,0.654,2.904,2.108,2.636c1.767-0.321,1.726-2.297,1.736-3.737c0.021-3.415,0.796-6.57,2.69-10.043
			c3.194,6.57,7.191,11.801,13.941,14.325c0.046-0.283,0.125-0.45,0.078-0.511c-0.467-0.586-0.985-1.135-1.439-1.729
			c-5.134-6.718-8.957-13.795-6.836-22.742c0.926-3.912,1.271-4.209,4.327-1.758c2.625,2.108,5.54,3.364,9.4,4.275
			c-0.993-1.387-1.616-2.151-2.129-2.982c-2.626-4.25-5.475-8.416-5.027-13.805c0.201-2.391,0.706-3.25,3.096-1.43
			c2.343,1.781,4.682,3.859,8.37,4.378c-0.935-1.546-1.612-2.583-2.208-3.667c-1.888-3.424-3.383-6.92-3.153-10.998
			c0.155-2.729,1.153-3.544,3.791-2.671c2.478,0.817,4.975,1.711,7.655,1.646c0.763-0.02,1.558-0.084,1.754-1.012
			c0.155-0.736-0.46-1.098-0.942-1.47c-1.577-1.222-3.258-2.325-4.739-3.655c-2.554-2.309-2.449-4.385,0.511-5.905
			c2.739-1.407,5.617-2.532,8.798-2.843c3.591-0.35,7.284-0.094,11.714-1.309c-1.549-0.693-2.192-1.047-2.877-1.281
			c-4.022-1.37-8.057-2.777-11.649-5.058c-1.457-0.929-3.579-1.899-3.25-4.175c0.322-2.204,2.158-3.201,4.103-3.958
			c3.651-1.425,7.532-1.709,11.333-2.398c3.375-0.61,6.874-0.727,10.083-2.212c-0.458-1.133-1.324-0.938-2.016-1.111
			c-5.672-1.435-11.523-2.305-16.667-5.388c-4.428-2.655-4.415-5.799,0.224-8.245c3.206-1.689,6.67-2.765,10.237-3.527
			c2.983-0.641,6.155-0.616,9.136-2.188c-0.95-1.409-2.288-1.363-3.425-1.671c-4.581-1.225-9.245-2.219-13.454-4.541
			c-5.878-3.242-6.432-7.059-1.83-11.959c3.549-3.772,8.156-5.644,12.892-7.262c2.744-0.94,5.684-1.379,8.25-3.398
			c-1.956-0.954-3.729-0.618-5.432-0.732c-5.734-0.388-11.488-0.578-16.889-2.914c-3.518-1.521-4.138-3.207-1.967-6.348
			c2.792-4.037,6.393-7.326,10.12-10.478c1.403-1.181,2.895-2.27,3.822-5.003C385.492,342.622,381.456,343.859,377.26,343.789z
			 M312.514,212.209c-1.576-9.24-7.188-15.123-16.042-17.127c-10.155-2.303-21.5,5.74-22.801,15.713
			c-1.385,10.631,4.987,22.196,16.902,23.234c1.949,0.169,3.911,0.146,5.868,0.211c1.293,2.302,2.733,3.975,5.727,2.258
			c4.412-2.531,8.224-5.708,10.126-10.486C314.078,221.537,315.45,216.852,312.514,212.209z M351.444,130.908
			c-4.534-2.691-11.923-1.883-15.941,1.711c-1.471,1.314-3.092,2.537-3.59,4.66c-0.662,2.83,0.649,4.733,3.051,5.666
			c1.853,0.719,4.307,3.046,5.644-0.935c0.419-1.245,1.938-0.894,3.006-1.065c2.203-0.355,4.431-0.555,6.619-0.977
			c2.34-0.452,3.768-2.028,3.958-4.352C354.371,133.447,353.228,131.811,351.444,130.908z"/>
		<path fill="#F5C469" d="M194.813,573.487c2.91-3.724,5.909-7.387,8.718-11.187c9.52-12.867,21.52-22.678,35.572-30.332
			c11.84-6.453,24.263-11.656,36.191-17.905c10.418-5.461,19.385-12.674,27.352-21.233c15.427-16.582,25.452-36.18,32.712-57.466
			c4.249-12.454,7.864-25.041,10.164-37.961c2.474-13.913,3.298-27.858-3.177-41.105c-3.634-7.427-8.818-13.659-15.936-17.989
			c-7.471-4.548-15.089-8.86-22.695-13.178c-16.23-9.212-30.036-21.24-40.049-36.96c-8.825-13.846-14.552-28.954-12.771-45.919
			c0.27-2.593,1.002-5.135,1.521-7.705c4.112,4.801,7.162,9.712,8.099,16.504c2.704,19.579,11.994,35.959,26.598,49.376
			c9.735,8.944,20.901,15.697,32.334,22.118c8.817,4.95,17.502,10.076,24.255,17.857c12.482,14.377,15.741,31.359,12.945,49.501
			c-4.889,31.733-13.682,62.268-30.898,89.795c-11.166,17.852-25.629,32.386-44.36,42.304c-7.735,4.093-15.618,7.963-23.636,11.476
			c-23.91,10.469-43.571,25.616-55.513,49.827C198.634,580.585,197.433,576.481,194.813,573.487z"/>
		<path fill="#F5C469" d="M377.26,343.789c4.196,0.07,8.232-1.167,12.873-2.261c-0.928,2.731-2.422,3.824-3.822,5.005
			c-3.729,3.147-7.332,6.438-10.119,10.473c-2.173,3.143-1.552,4.828,1.962,6.348c5.404,2.338,11.158,2.529,16.891,2.916
			c1.705,0.114,3.476-0.22,5.434,0.732c-2.566,2.018-5.506,2.46-8.248,3.397c-4.739,1.621-9.347,3.489-12.895,7.263
			c-4.603,4.9-4.048,8.717,1.828,11.957c4.209,2.322,8.871,3.318,13.455,4.545c1.139,0.307,2.476,0.26,3.424,1.668
			c-2.979,1.574-6.154,1.547-9.139,2.188c-3.563,0.766-7.025,1.838-10.232,3.529c-4.64,2.448-4.653,5.59-0.228,8.243
			c5.146,3.085,10.999,3.954,16.672,5.388c0.688,0.172,1.556-0.02,2.013,1.115c-3.21,1.484-6.708,1.596-10.082,2.21
			c-3.8,0.69-7.682,0.976-11.332,2.398c-1.95,0.756-3.782,1.753-4.103,3.956c-0.33,2.277,1.792,3.251,3.249,4.174
			c3.592,2.282,7.628,3.691,11.649,5.061c0.686,0.234,1.33,0.586,2.877,1.283c-4.43,1.215-8.125,0.958-11.713,1.307
			c-3.182,0.312-6.06,1.438-8.799,2.842c-2.958,1.523-3.068,3.599-0.509,5.906c1.479,1.329,3.16,2.434,4.736,3.652
			c0.484,0.376,1.102,0.734,0.945,1.473c-0.198,0.928-0.994,0.99-1.755,1.012c-2.681,0.065-5.179-0.83-7.655-1.646
			c-2.64-0.875-3.637-0.059-3.792,2.672c-0.229,4.077,1.266,7.578,3.155,10.996c0.597,1.085,1.272,2.122,2.206,3.67
			c-3.688-0.522-6.027-2.603-8.369-4.384c-2.392-1.818-2.895-0.958-3.095,1.437c-0.451,5.387,2.4,9.552,5.028,13.802
			c0.513,0.832,1.135,1.597,2.126,2.979c-3.86-0.908-6.775-2.162-9.398-4.271c-3.056-2.453-3.4-2.157-4.326,1.757
			c-2.12,8.945,1.699,16.023,6.837,22.74c0.453,0.596,0.968,1.145,1.435,1.727c0.05,0.065-0.029,0.231-0.075,0.516
			c-6.75-2.527-10.751-7.758-13.945-14.324c-1.891,3.469-2.669,6.623-2.689,10.04c-0.01,1.443,0.033,3.415-1.735,3.74
			c-1.453,0.267-1.714-1.465-2.107-2.636c-0.238-0.705-0.552-1.539-1.474-1.375c-0.861,0.154-0.971,1.074-1.149,1.771
			c-1.345,5.24-1,10.358,0.975,15.42c0.75,1.916,2.214,3.684,1.674,5.979l0.031-0.008c-3.197-1.76-5.109-4.765-6.933-7.688
			c-1.844-2.959-3.666-2.684-6.127-1.002c-5.421,3.707-7.46,9.487-5.757,17.238c0.493,2.254,1.36,4.426,1.593,6.818
			c-4.123-1.582-5.331-5.205-6.496-8.607c-0.989-2.873-1.96-3.232-3.95-1.001c-1.072,1.208-2.263,2.326-3.262,3.591
			c-1.33,1.679-2.292,4.015-4.562,0.762c-0.864-1.235-1.783,0.037-2.308,0.813c-1.546,2.297-2.67,4.811-3.139,7.544
			c-0.366,2.113-1.172,3.993-2.254,5.909c-1.774-1.206-1.565-2.709-1.254-4.372c0.526-2.815-0.753-3.464-3.168-2.287
			c-1.572,0.764-3.059,1.671-4.306,2.942c-1.128,1.154-2.18,2.429-4.143,1.211c-1.165-0.721-1.779,0.478-2.302,1.29
			c-1.421,2.209-2.691,4.484-3.374,7.062c-0.333,1.238-0.454,2.671-1.927,3.699c-0.968-1.789-1.042-3.545-1.045-5.215
			c-0.011-2.828-1.536-3.204-3.675-2.445c-5.08,1.809-9.19,4.891-11.992,9.588c-0.741,1.24-1.013,2.822-2.486,3.57
			c-2.453-4.549-3.578-4.756-8.026-1.129c-4.311,3.51-6.974,8.08-8.145,13.518c-0.198,0.055-0.396,0.113-0.59,0.178
			c-3.334-3.228-5.572-0.061-6.987,1.876c-6.277,8.612-11.767,17.786-13.359,28.524c-1.038,6.985-2.247,14.07-1.112,21.2
			c1.649,10.316,3.875,20.467,9.383,29.564c0.822,2.405,2.357,4.636,1.943,7.901c-8.419-8.18-14.226-17.484-17.126-28.309
			c-7.23-26.957,2.033-49.225,20.585-68.448c11.326-11.735,25.826-18.606,40.446-25.202c11.383-5.137,22.66-10.495,32.714-18.052
			c14.65-11.016,27.011-24.163,35.894-40.243c17.541-31.76,28.194-65.754,31.723-101.873c1.096-11.227-0.902-22.186-5.494-32.543
			c-0.87-1.972-0.439-2.26,1.4-2.566C369.996,345.389,373.621,344.538,377.26,343.789z"/>
		<path fill="#F5C469" d="M452.443,650.217c-9.724-3.395-13.768-11.207-16.053-20.466c-3.127-12.669-9.501-23.493-18.688-32.737
			c-2.985-3.002-6.167-5.856-8.474-9.473c-1.316-2.07-2.721-2.36-4.942-0.971c-16.524,10.35-35.121,14.82-54.015,17.516
			c-15.537,2.212-31.333,1.785-47.061,1.287c-10.338-0.33-20.656-0.209-30.973,1.449c-12.215,1.967-20.422,8.629-25.719,19.444
			c-0.792-0.599-1.585-1.198-2.383-1.795l0.03,0.02c-6.489-4.395-6.447-4.366-2.153-10.819
			c7.737-11.619,19.302-16.325,32.499-18.054c12.425-1.626,24.918-1.19,37.397-0.978c21.295,0.365,42.421-0.758,63.071-6.637
			c12.369-3.521,23.655-9.26,34.36-16.258c1.075-0.705,2.334-2.051,3.054,0.296c2.78,9.063,9.825,14.939,15.894,21.585
			c8.789,9.628,15.642,20.322,18.158,33.43c1.073,5.574,2.429,11.19,9.655,12.117c1.559,0.201,1.915,1.779,1.805,3.285
			C457.635,646.14,456.017,648.863,452.443,650.217z"/>
		<path fill="#F5C469" d="M618.877,396.809c0.465,0.39,0.874,1.021,1.393,1.135c9.889,2.173,10.883,10.688,12.168,18.219
			c3.343,19.615-11.713,36.896-31.406,38.088c-8.602,0.521-17.186-0.949-25.785,0.459c-7.623,1.25-14.243,4.487-20.08,9.322
			c-3.85,3.188-3.707,8.309-5.18,12.605c-4.133,12.063-8.988,23.713-16.028,34.459c-5.897,9-12.128,17.683-19.327,25.686
			c-13.658,15.197-28.828,28.627-46.018,39.73c-0.273-0.25-0.633-0.449-0.813-0.756c-5.204-8.854-5.627-6.547,1.951-12.421
			c13.029-10.094,25.924-20.356,36.727-32.872c17.002-19.701,30.223-41.547,36.23-67.2c0.697-2.99,2.73-4.7,4.791-6.437
			c11.473-9.652,24.608-14.393,39.717-13.365c5.717,0.391,11.445,0.775,17.16-0.342c12.385-2.42,19.478-12.572,17.456-24.983
			c-0.709-4.365-2.405-8.379-3.996-12.438C616.591,402.52,616.049,399.487,618.877,396.809z"/>
		<path fill="#F5C469" d="M445.131,170.506c1.788,1.98,4.369,2.268,6.678,3.145c3.223,1.221,5.043,3.031,5.635,6.959
			c2.441,16.168-4.038,29.482-12.439,42.365c-7.295,11.183-15.186,21.934-23.271,32.547c-1.877,2.462-0.079,3.195,1.796,3.975
			c13.289,5.526,25.842,12.472,38.026,20.07c4.752,2.961,9.228,6.369,13.784,9.635c2.284,1.639,3.499,1.941,3.897-1.623
			c0.441-3.923,0.949-7.939,3.118-11.47c1.638-2.666,3.708-2.886,6.376-1.642c2.639,1.229,4.735,2.545,2.916,5.867
			c-4.63,11.215-3.671,22.398,0.352,33.563c0.846,2.346,1.434,4.785,2.311,7.116c0.713,1.905,0.037,1.873-1.652,1.905
			c-4.229,0.072-6.678-1.191-8.358-5.643c-4.626-12.276-14.641-19.994-25.146-26.871c-16.204-10.608-33.462-19.233-51.636-25.988
			c-1.117-0.418-2.105-1.189-3.482-1.982c8.701-11.916,17.727-23.632,26.021-35.839c6.764-9.956,14.146-19.721,16.508-32.034
			c1.452-7.575,1.525-15.006-1.385-22.273C444.931,171.663,444.826,171.107,445.131,170.506z"/>
		<path fill="#F5C469" d="M537.685,300.586c2.725,3.828,4.214,7.742,2.093,12.513c-1.016,2.288,0.596,4.606,1.443,6.769
			c6.43,16.417,2.909,32.034-9.941,43.996c-2.24,2.088-4.864,3.504-7.647,4.594c-2.396,0.941-3.113,2.177-2.486,4.837
			c1.562,6.62,1.445,6.368,8.238,7.209c11.055,1.372,21.716,4.368,32.019,8.657c2.758,1.145,5.613,2.043,8.418,3.076
			c1.209,0.445,2.191,0.187,2.981-0.814c1.142,4.159,2.281,8.318,3.463,12.637c-3.554,0.793-6.638-0.421-9.52-1.633
			c-16.45-6.912-33.265-12.144-51.335-12.104c-1.509,0.004-1.734-0.705-1.932-2.039c-1.221-8.264-2.52-16.531-5.269-24.456
			c-0.983-2.827,1.022-2.154,2.296-2.319c13.381-1.715,22.32-10.643,23.23-23.316c0.497-6.9-1.969-13.249-3.882-19.682
			c-1.029-3.465-2.32-6.854-3.288-10.334c-0.85-3.041-1.07-6.145,0.356-9.141c1.069-2.24,2.63-2.828,4.84-1.523
			C533.681,298.643,535.321,300.313,537.685,300.586z"/>
		<path fill="#F5C469" d="M541.828,708.719c-11.364,19.683-22.729,39.366-34.093,59.047c-0.623,1.082-1.208,2.193-1.909,3.224
			c-1.478,2.183-3.578,2.622-5.92,1.731c-2.359-0.903-2.875-2.912-2.697-5.208c0.129-1.696,1.117-3.021,1.923-4.421
			c22.785-39.477,45.571-78.951,68.37-118.422c0.808-1.396,1.504-2.88,2.814-3.932c1.992-1.602,4.124-1.885,6.182-0.329
			c2.062,1.558,2.449,3.72,1.258,5.999c-1.219,2.316-2.604,4.549-3.918,6.822c-10.678,18.488-21.352,36.982-32.029,55.478
			C541.816,708.711,541.821,708.715,541.828,708.719z"/>
		<path fill="#F5C469" d="M372.879,122.176c-2.144-3.019-9.975-5.586-14.08-4.354c-2.799,0.838-6.692,0.503-6.443,5.371
			c0.062,1.22-1.563,1.167-2.772,1.02c-11.661-1.463-19.766,4.506-26.549,12.981c-2.01,2.507-1.545,9.297,0.208,12.029
			c2.806,4.366,5.336,8.91,8.461,13.147c-5.247-2.715-9.494-6.571-13.17-11.088c-3.105-3.818-3.412-3.857-6.776-0.324
			c-0.342,0.361-0.686,0.729-0.997,1.121c-7.878,9.9-7.766,12.531,0.908,21.68c0.675,0.709,1.599,1.245,1.621,2.653
			c-2.619,0.425-4.662-1.228-6.842-2.036c-8.235-3.054-10.805-2.029-13.358,6.51c-1.097,3.673-2.756,5.65-6.599,7.029
			c-20.744,7.428-26.705,32.499-11.792,48.647c1.754,1.903,3.86,3.451,5.429,5.573c0.925,1.254,1.647,2.236,0.136,3.464
			c-5.993-5.07-11.925-10.142-15.778-17.228c-10.417-19.154,1.384-40.785,18.953-44.579c1.679-0.36,2.693-1.065,3.231-3.026
			c2.934-10.759,8.356-20.256,14.585-29.483c3.317-4.912,6.455-9.936,10.048-14.687c12.831-16.959,33.229-25.847,53.982-19.346
			c1.765,0.553,3.628,0.8,5.452,1.154C372.934,118.834,373.695,120.047,372.879,122.176z"/>
		<path fill="#F5C469" d="M736.123,372.138c-8.75,15.153-17.498,30.311-26.252,45.463c-0.499,0.866-0.991,1.743-1.57,2.556
			c-1.783,2.504-4.296,3.32-6.856,1.759c-2.616-1.594-2.87-4.165-1.311-6.862c5.882-10.172,11.739-20.357,17.612-30.533
			c11.935-20.678,23.875-41.354,35.812-62.027c0.44-0.758,0.856-1.533,1.359-2.246c1.868-2.648,4.899-3.599,7.107-2.041
			c2.746,1.943,2.768,4.332,1.108,7.175c-9.06,15.551-18.027,31.159-27.027,46.747C736.109,372.13,736.117,372.134,736.123,372.138z
			"/>
		<path fill="#FC8119" d="M601.631,355.45c-5.141,11.2-6.615,22.813-3.42,34.776c2.088,7.82,4.118,15.701,7.845,22.963
			c2.477,4.822,2.491,10.219-0.368,13.273c-2.635,2.816-6.347,3.17-9.832,3.361c-8.669,0.474-17.037-0.678-24.365-5.938
			c-0.647-0.467-1.265-1.267-2.372-0.858c-0.649,2.477,1.633,3.66,2.496,5.452c-3.157,1.615-6.683-0.008-8.054-3.701
			c-0.213-0.572-0.426-1.193-0.43-1.793c-0.046-7.385-0.658-7.098,6.264-6.064c6.53,0.976,13.093,0.821,19.682,0.129
			c3.439-0.361,3.723-1.904,3.072-4.699c-1.387-5.979-3.831-11.737-3.915-18.002c4.741,0.03,4.747,0.033,4.237-4.941
			c-0.141-1.366-0.353-2.721-0.485-4.084C590.883,373.975,593.444,363.805,601.631,355.45z"/>
		<path fill="#F5C469" d="M475.064,726.326c-7.055,12.219-14.105,24.443-21.172,36.657c-0.625,1.081-1.273,2.153-2.008,3.159
			c-2.023,2.799-4.881,3.725-6.979,2.051c-2.55-2.029-2.526-4.613-0.974-7.303c8.183-14.166,16.37-28.332,24.545-42.501
			c6.678-11.573,13.343-23.153,20.012-34.733c0.188-0.326,0.33-0.677,0.546-0.98c1.774-2.498,5.886-3.947,7.647-2.711
			c2.247,1.576,2.488,4.666,0.518,8.097c-7.348,12.771-14.727,25.526-22.094,38.288C475.09,726.34,475.078,726.334,475.064,726.326z
			"/>
		<path fill="#F5C469" d="M538.045,646.287c1.542,1.646,5.291,1.049,4.561,5.129c5.662-3.396,7.717-9.032,10.893-13.799
			c0.744-1.116,0.814-3.027,2.848-2.914c-14.924,25.732-29.836,51.457-44.762,77.174c-5.267,9.076-10.538,18.149-15.885,27.182
			c-1.119,1.89-1.816,4.158-3.961,5.309c2.544-4.422,5.045-8.867,7.662-13.246c1.075-1.802,0.886-2.754-1.162-3.68
			c-1.867-0.846-4.623-1.117-4.385-4.262c5.991-10.51,11.945-21.041,17.977-31.526C520.539,676.515,529.306,661.408,538.045,646.287
			z"/>
		<path fill="#F5C469" d="M425.662,187.352c0.748,3.277-1.605,5.316-3.346,7.31c-8.767,10.049-18.317,19.351-27.996,28.513
			c-9.252,8.758-19.407,16.393-29.603,24.004c-9.683,7.228-20.092,13.534-28.777,22.061c-2.776,2.725-4.93,5.951-7.126,9.142
			c-0.816,1.188-1.194,3.188-2.959,3.02c-2.156-0.203-1.58-2.49-2.163-3.891c0.138-6.815,4.339-11.296,9.179-15.136
			c12.231-9.707,25.288-18.281,38.132-27.13c16.993-11.704,32.997-24.577,47.338-39.418
			C420.907,193.17,423.156,190.125,425.662,187.352z"/>
		<path fill="#FC8119" d="M529.226,280.531c1.153,0.102,1.542,1.057,2.457,2.244c-3.573-0.383-6.696,0.06-9.594,1.465
			c-8.11,3.93-9.998,11.316-9.965,19.29c0.038,9.06,3.961,17.368,6.035,26.04c0.692,2.896,1.558,5.747,1.205,8.771
			c-0.395,3.43-3.335,6.822-6.419,7.45c-4.219,0.862-7.541-0.532-9.6-4.044c-0.182-0.311-0.271-0.674-0.403-1.012
			c-0.747-1.937-3.096-3.871-2.358-5.574c1.032-2.396,3.576,0.105,5.551-0.248c2.707-0.484,3.921-0.844,2.983-4.176
			c-1.657-5.897-3.717-11.77-3.779-18.03c2.377-0.636,1.501-2.495,1.448-3.989c-0.247-7.091-0.526-14.186,3.339-20.609
			C514.636,280.6,522.85,277.346,529.226,280.531z"/>
		<path fill="#F5C469" d="M479.341,504.977c2.126,0.576,4.253,1.15,6.39,1.73c-0.291,1.471-1.436,1.455-2.308,1.768
			c-10.397,3.745-20.263,8.432-28.687,15.787c-5.271,4.602-10.134,9.828-11.617,16.615c-1.122,5.15-2.344,8.102-7.942,9.906
			c-4.433,1.436-5.864,6.795-5.488,11.777c0.466,6.065,3.556,11.108,6.401,16.238c0.816,1.475,0.818,1.469-0.538,2.003
			c-4.747-4.489-9.096-9.271-11.229-15.64c-3.027-9.039,0.729-17.48,9.472-21.092c1.273-0.529,1.967-1.092,2.227-2.57
			c2.061-11.773,9.243-19.934,18.947-26.156c5.969-3.827,12.284-6.958,19.283-8.543
			C475.996,506.402,477.646,505.596,479.341,504.977z"/>
		<path fill="#F5C469" d="M273.474,247.584c1.569,1.61,3.125,3.256,4.069,5.319c4.206,9.219,12.884,13.12,20.981,17.712
			c0.74,0.421,1.529,0.747,2.699,1.316c-2.738,1.637-5.21,1.405-7.798,1.165c-1.166-0.109-3.045-0.945-3.646,0.726
			c-0.466,1.299,1.033,2.129,1.993,2.876c6.159,4.783,12.64,8.939,20.471,10.45c1.105,0.214,2.705,0.475,2.694,1.603
			c-0.017,1.71-1.828,1.264-2.96,1.387c-2.899,0.312-5.813,0.493-8.955,0.74c5.065,4.839,11.116,6.706,25.129,7.804
			c-3.115,2.318-6.354,3.13-9.645,3.822c-4.1,0.559-8.023-0.332-11.351-2.551c-13.594-9.052-24.956-20.198-30.888-35.794
			C274.278,258.934,271.843,253.534,273.474,247.584z"/>
		<path fill="#F5C469" d="M386.09,627.5c0.871-0.051,1.737-0.133,2.604-0.157c3.84-0.106,5.691,2.599,4.176,6.161
			c-0.432,1.029-1.048,1.98-1.604,2.953c-7.11,12.293-14.183,24.611-21.382,36.852c-0.96,1.635-1.121,3.734-2.796,4.938
			c-2.44-0.391-4.891-0.814-7.351-1.151c-2.133-0.294-2.345-1.075-1.235-2.922C367.812,658.682,376.39,642.759,386.09,627.5z"/>
		<path fill="#F5C469" d="M423.686,726.996c-3.559,6.164-7.131,12.322-10.676,18.5c-1.172,2.041-2.826,3.074-5.241,2.756
			c-1.81-0.238-2.825-1.266-3.534-2.912c-0.646-1.504-0.072-2.679,0.598-3.867c7.119-12.617,14.221-25.242,21.422-37.813
			c1.503-2.625,5.352-3.893,7.296-2.484c2.827,2.045,2.286,4.701,0.792,7.309c-3.538,6.178-7.113,12.334-10.672,18.5
			C423.676,726.99,423.68,726.994,423.686,726.996z"/>
		<path fill="#F5C469" d="M399.003,720.542c-3.187,5.513-6.346,11.038-9.559,16.536c-1.847,3.164-4.471,4.094-7.077,2.603
			c-2.399-1.372-3.013-4.162-1.296-7.189c6.283-11.074,12.626-22.114,19.008-33.132c1.7-2.928,5.052-4.032,7.233-2.605
			c2.436,1.586,2.85,4.325,1.017,7.551c-3.083,5.426-6.235,10.814-9.353,16.223C398.986,720.532,398.994,720.537,399.003,720.542z"
			/>
		<path fill="#F5C469" d="M447.956,316.732c-2.708,6.525,0.358,11.506,4.241,16.363c5.327,6.656,8.542,14.248,8.905,22.813
			c0.21,4.918-1.837,9.096-6.185,11.61c-3.781,2.188-7.854,3.001-11.873,0.257c0.465-0.182,0.909-0.421,1.391-0.534
			c13.963-3.36,13.027-14.319,9.098-22.975c-1.987-4.386-5.767-7.453-8.605-11.212c-3.177-4.199-4.622-8.771-2.333-13.939
			c1.208-2.729,3.003-4.803,6.113-5.791C449.258,314.695,448.055,315.613,447.956,316.732z"/>
		<path fill="#F5C469" d="M321.811,707.149c-2.065,3.571-4.1,7.153-6.192,10.704c-1.638,2.779-4.03,2.992-6.689,1.707
			c-2.724-1.317-2.983-3.504-1.623-5.9c4.195-7.379,8.414-14.75,12.769-22.039c1.563-2.619,4.009-3.273,6.713-1.611
			c2.676,1.648,2.663,3.926,1.21,6.436C325.927,700.006,323.875,703.58,321.811,707.149z"/>
		<path fill="#F5C469" d="M416.998,443.404c-0.229,0.287-0.401,0.746-0.693,0.847c-16.316,5.512-28.791,16.059-38.895,29.729
			c-1.676-3.303-0.669-8.683,2.889-15.628c8.667-12.399,21.716-14.895,35.499-15.694
			C416.182,442.635,416.598,443.141,416.998,443.404z"/>
		<path fill="#F5C469" d="M290.302,691.203c1.686-2.92,3.332-5.865,5.071-8.754c1.676-2.786,5.053-4.094,7.283-2.629
			c2.727,1.787,2.514,4.549,1.205,6.967c-3.437,6.368-6.973,12.699-10.809,18.827c-1.367,2.185-4.004,2.267-6.302,0.991
			c-2.241-1.244-3.248-3.168-1.947-5.604c1.763-3.301,3.718-6.501,5.592-9.748C290.365,691.237,290.334,691.219,290.302,691.203z"/>
		<path fill="#FC8119" d="M597.192,156.543c-3.438,6.083-6.798,12.217-10.361,18.224c-1.481,2.499-3.603,3.678-6.585,1.86
			c-2.977-1.814-2.876-3.938-1.267-6.609c3.347-5.561,6.099-11.477,9.905-16.76c1.095,0.541,1.457-0.434,2.095-0.953
			c2.021-1.65,5.153-0.64,5.698,1.842C596.852,154.941,596.375,155.876,597.192,156.543z"/>
		<path fill="#FC8119" d="M171.82,578.343c4.958,0.678,6.579,3.444,4.265,7.615c-2.955,5.319-6.074,10.544-9.15,15.794
			c-1.273,2.176-2.991,3.72-5.741,3.081c-2.774-0.64-3.564-2.681-3.377-5.278c1.202-2.02,2.32-4.097,3.624-6.046
			C164.851,588.419,166.685,582.248,171.82,578.343z"/>
		<path fill="#F5C469" d="M601.631,355.45c-8.187,8.354-10.75,18.521-9.646,29.874c0.133,1.363,0.345,2.718,0.486,4.085
			c0.509,4.974,0.501,4.972-4.239,4.94c-2.459-9.286-3.604-18.614-0.72-28.027c1.619-5.271,4.728-9.291,10.061-11.248
			C598.938,354.576,600.424,353.791,601.631,355.45z"/>
		<path fill="#F5C469" d="M537.03,136.453c1.313-2.27,2.541-4.593,3.955-6.797c1.609-2.508,3.942-3.066,6.452-1.536
			c2.446,1.491,3.28,3.796,1.83,6.424c-2.591,4.702-5.233,9.38-8.049,13.948c-1.626,2.637-4.123,3.133-6.797,1.527
			c-2.611-1.572-2.924-3.879-1.527-6.443c1.316-2.412,2.733-4.762,4.107-7.142C537.012,136.439,537.021,136.446,537.03,136.453z"/>
		<path fill="#F5C469" d="M692.804,319.24c1.124-1.939,2.22-3.897,3.372-5.824c1.646-2.745,4.021-2.652,6.477-1.409
			c2.398,1.214,3.046,3.296,1.879,5.671c-2.2,4.475-4.719,8.777-7.62,12.843c-1.675,2.346-3.999,2.565-6.227,1.035
			c-2.183-1.501-2.946-3.636-1.442-6.169C690.451,323.352,691.613,321.289,692.804,319.24z"/>
		<path fill="#F5C469" d="M529.226,280.531c-6.376-3.186-14.591,0.066-19.104,7.574c-3.863,6.425-3.584,13.521-3.34,20.612
			c0.053,1.495,0.932,3.354-1.445,3.991c-2.834-8.268-4.178-16.631-1.424-25.201c3.027-9.407,13.029-14.24,21.805-10.482
			C527.242,277.682,529.359,278.07,529.226,280.531z"/>
		<path fill="#F5C469" d="M442.34,111.664c1.059-1.832,2.055-3.704,3.193-5.49c1.454-2.292,3.611-3.235,6.08-1.992
			c2.56,1.29,3.527,3.844,2.327,6.341c-1.991,4.143-4.291,8.179-6.888,11.965c-1.626,2.371-4.294,2.183-6.701,0.817
			c-2.494-1.414-2.424-3.564-1.304-5.779c1.012-1.996,2.218-3.893,3.339-5.834C442.371,111.684,442.356,111.674,442.34,111.664z"/>
		<path fill="#FC8119" d="M560.79,150.617c1.306-2.258,2.533-4.566,3.937-6.762c1.553-2.441,3.955-2.68,6.173-1.373
			c2.3,1.35,2.948,3.585,1.509,6.09c-2.48,4.307-4.912,8.648-7.472,12.91c-1.482,2.471-3.874,3.438-6.339,1.912
			c-2.465-1.521-3.283-3.91-1.457-6.708c1.289-1.973,2.381-4.075,3.561-6.12C560.732,150.584,560.763,150.603,560.79,150.617z"/>
		<path fill="#F5C469" d="M414.898,106.654c1-1.73,1.896-3.531,3.021-5.175c1.699-2.479,4.084-2.8,6.566-1.371
			c2.469,1.42,2.954,3.692,1.637,6.114c-2.032,3.729-4.24,7.361-6.413,11.012c-1.612,2.711-4.042,2.859-6.452,1.499
			c-2.436-1.38-2.797-3.756-1.637-6.185c0.965-2.023,2.213-3.913,3.338-5.858C414.94,106.68,414.92,106.668,414.898,106.654z"/>
		<path fill="#FC8119" d="M519.525,132.749c-0.994,1.717-1.963,3.454-2.987,5.157c-1.459,2.436-3.747,2.542-5.813,1.34
			c-2.027-1.175-3.227-3.453-2.142-5.719c1.765-3.684,3.821-7.271,6.138-10.632c1.598-2.317,4.168-2.558,6.608-1.098
			c2.405,1.439,2.369,3.607,1.246,5.835c-0.893,1.77-1.964,3.448-2.958,5.17C519.588,132.784,519.559,132.768,519.525,132.749z"/>
		<path fill="#FC8119" d="M493.854,723.18c-0.238,3.141,2.518,3.416,4.385,4.262c2.045,0.922,2.238,1.877,1.162,3.68
			c-2.617,4.379-5.118,8.824-7.662,13.246c-2.08,2.326-4.153,1.07-5.846-0.336c-2.158-1.791-1.829-4.258-0.59-6.438
			C488.066,732.74,490.993,727.978,493.854,723.18z"/>
		<path fill="#FC8119" d="M620.688,196.975c-0.999,1.728-1.936,3.494-3.007,5.174c-1.521,2.383-3.673,2.418-5.841,1.109
			c-2.191-1.322-3.028-3.354-1.777-5.742c1.678-3.201,3.465-6.354,5.344-9.445c1.628-2.677,4.063-2.564,6.486-1.303
			c2.483,1.292,2.702,3.395,1.493,5.714c-0.805,1.55-1.73,3.033-2.604,4.546C620.752,197.011,620.72,196.992,620.688,196.975z"/>
		<path fill="#FC8119" d="M607.949,383.307c-2.426-10.83,2.043-22.84,9.527-25.881C617.234,367.109,613.93,375.432,607.949,383.307z
			"/>
		<path fill="#F5C469" d="M359.524,329.919c4.81,1.225,9.372-1.402,14.49-1.109c-1.279,2.815-3.288,4.576-5.265,6.34
			c-1.419,1.271-1.634,2.386,0.124,3.491c-7.298,1.533-11.063-0.089-16.014-7.325C355.231,330.818,357.378,330.369,359.524,329.919z
			"/>
		<path fill="#FC8119" d="M553.956,428.441c-3.421-2.472-6.03-11.087-4.437-14.941c1.198-2.896,3.63-1.367,5.518-1.234
			c1.575,0.115,2.508,0.852,2.131,3.036c-0.657,3.812-1.51,7.675-0.861,11.615c0.121,0.729,0.277,1.571-0.398,2.083
			C555.115,429.598,554.549,428.846,553.956,428.441z"/>
		<path fill="#F5C469" d="M726.843,326.99c2.857,1.564,3.788,4.762,2.241,7.684c-1.487,2.807-5.462,4.076-7.997,2.551
			c-2.72-1.631-3.527-4.988-1.889-7.832C720.869,326.495,724.087,325.484,726.843,326.99z"/>
		<path fill="#F5C469" d="M467.455,119.645c1.865-3.219,5.397-4.35,8.252-2.64c2.715,1.63,3.484,5.283,1.731,8.22
			c-1.708,2.852-5.364,3.845-8.085,2.195C466.615,125.758,465.813,122.479,467.455,119.645z"/>
		<path fill="#F5C469" d="M334.608,305.057c3.061,1.158,5.571-1.871,8.691-1.093c-1.578,3.862-5.59,5.354-8.026,8.334
			c-5.647,1.043-7.598,0.616-14.851-3.558c4.699-0.42,8.294-2.059,12.14-2.849c0.815,0.013,1.565-0.151,2.164-0.756L334.608,305.057
			z"/>
		<path fill="#FC8119" d="M541.279,418.032c-0.754,2.503-1.453,2.245-2.447,1.406c-2.21-1.858-3.411-4.294-3.838-7.034
			c-0.3-1.918-0.635-4.406,1.596-5.266c2.082-0.799,4.309,0.522,6.432,1.064c0.656,0.168,0.755,1.051,0.565,1.617
			C542.579,412.852,541.382,415.825,541.279,418.032z"/>
		<path fill="#F5C469" d="M476.947,801.379c1.382-2.461,4.734-3.432,7.05-1.895c2.585,1.711,3.091,3.999,1.511,6.73
			c-1.504,2.598-4.499,3.514-6.94,2.061C476.386,806.978,475.625,803.732,476.947,801.379z"/>
		<path fill="#F5C469" d="M780.182,275.855c1.348-2.511,4.628-3.592,7.029-2.317c2.486,1.313,3.301,4.455,1.828,7.048
			c-1.43,2.521-4.499,3.417-7.036,2.063C779.742,281.438,778.889,278.256,780.182,275.855z"/>
		<path fill="#F5C469" d="M347.099,316.271c4.161,1.591,7.808-1.16,12.235-1.671c-2.708,4.966-7.459,6.396-11.443,8.81
			c-4.076,0.674-6.423-2.539-10.17-4.188C341.073,317.492,344.517,318.156,347.099,316.271z"/>
		<path fill="#F5C469" d="M709.787,357.108c2.157,0.974,2.894,2.692,2.581,4.954c-0.761-0.453-1.427-0.375-1.976,0.352
			c-2.852-2.185-3.715,0.957-5.338,2.016c-0.573,0.371-0.844,1.059-0.146,1.482c1.562,0.955,3.07,0.068,4.541-0.404
			c1.485-0.477,0.629-1.916,1.004-2.861c0.803,0.344,1.414,0.064,1.912-0.584c-0.803,4.128-3.334,6.134-6.861,5.439
			c-2.457-0.487-4.521-3.566-4.215-6.276c0.379-3.291,3.097-5.134,7.038-4.759c-1.142,1.462-3.463,0.811-4.479,2.484
			c-0.483,0.797-1.546,1.979-0.224,2.452c2.107,0.748,3.563-1.825,5.859-1.714C710.464,359.736,709.801,358.027,709.787,357.108z"/>
		<path fill="#F5C469" d="M287.177,154.958c-2.994,4.959-5.091,9.589-6.586,14.448c-0.895,2.919-3.642,2.918-5.602,4.635
			C274.865,166.019,279.791,158.16,287.177,154.958z"/>
		<path fill="#FC8119" d="M775.19,303.055c-1.329,1.76-2.909,3.086-5.302,1.748c-2.236-1.247-2.732-3.246-1.563-5.395
			c1.147-2.113,3.126-2.844,5.394-1.811C776.229,298.743,776.076,300.791,775.19,303.055z"/>
		<path fill="#F5C469" d="M342.058,673.684c1.886-0.822,3.1-2.229,4.13-4.021c12.447-21.701,24.963-43.366,37.47-65.033
			c0.675-1.17,1.139-2.518,2.434-3.231c-13.353,23.197-26.686,46.403-40.095,69.565
			C345.193,672.353,344.852,674.946,342.058,673.684z"/>
		<path fill="#F5C469" d="M266.03,681.813c1.43-2.021,3.076-3.197,5.438-2.037c2.064,1.014,2.951,4.352,1.573,6.145
			c-1.462,1.903-3.609,2.38-5.644,1.246C265.218,685.95,265.06,683.871,266.03,681.813z"/>
		<path fill="#F5C469" d="M719.691,244.668c-1.664,2.414-3.706,2.914-5.992,1.739c-2.354-1.206-2.574-3.33-1.386-5.407
			c1.304-2.288,3.495-2.845,5.787-1.611C720.362,240.604,720.443,242.668,719.691,244.668z"/>
		<path fill="#F5C469" d="M415.275,176.553c1.843,1.063,3.549,1.826,1.99,3.842c-1.256,1.619-2.045,4.247-4.76,3.582
			c-1.704-0.418-5.201-7.637-4.292-8.166C410.785,174.314,413.26,175.973,415.275,176.553z"/>
		<path fill="#FC8119" d="M492.33,95.119c-1.262,2.109-2.9,2.887-5.053,1.807c-2.146-1.075-2.664-2.919-1.528-4.926
			c1.065-1.881,2.831-2.904,4.978-1.732C492.713,91.354,493.443,93.062,492.33,95.119z"/>
		<path fill="#FC8119" d="M472.179,770.239c1.461,1.394,2.724,2.999,1.49,5.118c-1.142,1.957-3.122,2.57-5.157,1.619
			c-2.309-1.084-2.182-3.204-1.221-5.096C468.26,769.967,470.07,769.61,472.179,770.239z"/>
		<path fill="#F5C469" d="M660.557,188.336c2.146,1.361,2.655,3.356,1.449,5.445c-1.178,2.04-3.211,2.918-5.417,1.622
			c-2.109-1.239-2.697-3.253-1.436-5.45C656.385,187.812,658.227,187.18,660.557,188.336z"/>
		<path fill="#F5C469" d="M366.854,194.141c2.206,1.496,4.703,7.136,3.421,8.109c-2.115,1.609-5.26,1.166-6.584-0.209
			c-2.406-2.5,1.257-4.868,1.537-7.497C365.334,193.519,366.185,193.705,366.854,194.141z"/>
		<path fill="#F5C469" d="M372.001,175.429c0.065-0.113,0.272-0.717,0.428-0.702c2.83,0.25,3.627,2.719,4.697,4.686
			c0.609,1.121,1.471,2.977-0.996,3.42c-1.456,0.262-2.946,0.359-4.424,0.477c-1.462,0.115-2.086-0.482-1.586-1.992
			C370.743,179.437,371.329,177.545,372.001,175.429z"/>
		<path fill="#F5C469" d="M342.375,732.195c1.417-1.78,2.889-3.047,5.135-1.625c2.163,1.369,2.673,3.475,1.442,5.477
			c-1.294,2.102-3.647,2.22-5.583,0.949C341.648,735.862,341.249,734.008,342.375,732.195z M347.031,731.641
			c-1.407-0.68-2.159,0.086-2.777,1.087c-0.665,1.085-1.316,2.399,0.121,3.174c1.034,0.558,2.533,0.53,3.309-0.671
			C348.529,733.918,347.882,732.676,347.031,731.641z"/>
		<path fill="#F5C469" d="M390.492,202.76c0.574,1.254,3.791,0.802,2.404,3.101c-1.026,1.696-2.501,3.743-5.063,3.546
			c-0.779-0.059-2.928-6.97-2.303-7.533C387.438,200.162,388.754,202.419,390.492,202.76z"/>
		<path fill="#F5C469" d="M376.075,164.063c-0.804-2.559,0.684-4.74,1.117-7.036c0.223-1.183,1.168-1.229,1.938-0.438
			c1.821,1.882,5.025,3.688,3.752,6.474C381.929,165.143,378.655,164.301,376.075,164.063z"/>
		<path fill="#F5C469" d="M403.889,190.676c0.701,1.113,3.863,0.957,1.899,3.281c-1.194,1.409-2.049,3.917-4.667,3.287
			c-1.097-0.266-2.972-6.368-2.205-7.126C400.69,188.366,402.217,190.29,403.889,190.676z"/>
		<path fill="#F5C469" d="M383.568,138.822c1.787,1.623,4.439,3.213,3.059,5.685c-1.043,1.862-3.964,1.427-6.147,1.411
			c-0.565-0.004,0.035-6.365,0.729-7.264C382.154,137.434,382.894,138.296,383.568,138.822z"/>
		<path fill="#FC8119" d="M521.764,404.961c2.137-0.096,4.678-1.813,5.78,0.545c0.491,1.045-1.081,4.408-1.8,4.432
			C522.875,410.044,523.939,406.174,521.764,404.961z"/>
		<path fill="#F5C469" d="M353.533,219.528c0.995-2.499,3.413-3.953,4.097-6.846c2.718,1.966,3.19,4.548,3.428,7.138
			c0.136,1.513-0.872,1.832-2.224,1.37C357.127,220.615,355.396,220.109,353.533,219.528z"/>
		<path fill="#F5C469" d="M372.918,213.594c2.843,1.471,6.162,1.48,6.153,4.408c-0.005,1.355-3.067,3.811-4.501,3.016
			C372.296,219.758,373.196,216.672,372.918,213.594z"/>
		<path fill="#F5C469" d="M597.192,156.543c-0.817-0.667-0.341-1.602-0.517-2.396c-0.547-2.483-3.678-3.49-5.697-1.84
			c-0.637,0.521-1.002,1.492-2.098,0.952c1.658-3.317,4.192-4.663,6.644-3.216C598.092,151.556,599.229,153.712,597.192,156.543z"/>
		<path fill="#F5C469" d="M560.994,186.084c-9.254-5.346-18.508-10.694-27.744-16.035
			C542.795,174.9,552.346,179.717,560.994,186.084z"/>
		<path fill="#F5C469" d="M171.82,578.343c-5.136,3.905-6.97,10.076-10.377,15.162c-1.308,1.95-2.423,4.028-3.628,6.048
			c1.875-6.227,6.222-11.146,8.975-16.911C167.803,580.52,168.972,578.4,171.82,578.343z"/>
		<path fill="#F5C469" d="M618.991,395.307c0,0-0.06,0.099-0.058,0.094C618.932,395.396,618.991,395.307,618.991,395.307z"/>
		<polygon fill="#FC8119" points="244.166,624.491 244.136,624.472 243.998,624.514 		"/>
		<path fill="#F5C469" d="M444.507,169.41c0.546,0.348,0.811,0.81,0.604,1.467C444.56,170.532,444.408,170.021,444.507,169.41z"/>
		<path fill="#FC8119" d="M334.726,305.136c-0.598,0.604-1.349,0.769-2.164,0.756C333.002,304.829,333.383,303.609,334.726,305.136z
			"/>
		<path fill="#013F54" d="M646.473,479.422c0.938-1.622,1.824-3.279,2.826-4.861c1.902-3.018,5.021-4.074,8.018-2.8
			c3.154,1.35,4.981,4.7,3.688,7.981c-1.783,4.518-3.99,8.926-7.244,12.601c-2.494,2.813-5.194,2.901-8.244,0.771
			c-2.996-2.095-3.794-4.889-2.172-8.146c0.946-1.897,2.102-3.688,3.164-5.529C646.495,479.434,646.484,479.427,646.473,479.422z"/>
		<path fill="#013F54" d="M296.442,234.24c-1.957-0.065-3.917-0.041-5.866-0.211c-11.918-1.038-18.288-12.603-16.902-23.232
			c1.299-9.976,12.644-18.018,22.801-15.715c8.85,2.004,14.463,7.889,16.041,17.128C311.857,225.432,308.695,229.768,296.442,234.24
			z M295.953,217.244c1.365-2.418,0.588-5.388-1.765-6.754c-2.703-1.572-5.05-0.783-6.744,2.224
			c-1.525,2.696-0.771,4.728,1.772,6.237C291.659,220.4,294.604,219.638,295.953,217.244z"/>
		<path fill="#013F54" d="M351.444,130.908c1.783,0.902,2.927,2.539,2.748,4.709c-0.191,2.323-1.619,3.902-3.958,4.352
			c-2.188,0.422-4.417,0.621-6.619,0.977c-1.066,0.173-2.587-0.18-3.006,1.065c-1.337,3.98-3.792,1.653-5.644,0.935
			c-2.402-0.933-3.713-2.836-3.051-5.666c0.498-2.123,2.119-3.346,3.59-4.66C339.521,129.025,346.912,128.215,351.444,130.908z"/>
		<path fill="#F5C469" d="M296.442,234.24c12.253-4.473,15.419-8.81,16.076-22.027c2.931,4.641,1.561,9.328-0.223,13.801
			c-1.901,4.779-5.713,7.953-10.122,10.485C299.178,238.216,297.74,236.542,296.442,234.24z"/>
		<path fill="#F5C469" d="M335.916,522.186l0.031-0.008L335.916,522.186z"/>
		<path fill="#013F54" d="M415.928,333.634c0,0.08,0,0.158,0,0.232c-0.028-0.044-0.055-0.089-0.087-0.128
			C415.834,333.744,415.928,333.634,415.928,333.634z"/>
		<path fill="#F5C469" d="M236.91,573.983c-0.01,0.678-0.229,0.66-0.588,0.176C236.515,574.096,236.713,574.037,236.91,573.983z"/>
		<path fill="#FC8119" d="M710.453,362.646c-0.377,0.947,0.48,2.386-1.004,2.861c-1.472,0.475-2.979,1.359-4.541,0.404
			c-0.697-0.425-0.425-1.11,0.146-1.482c1.623-1.059,2.487-4.199,5.338-2.016L710.453,362.646z"/>
		<path fill="#FC8119" d="M709.787,357.108c0.016,0.921,0.676,2.628-0.301,2.58c-2.297-0.107-3.752,2.466-5.86,1.717
			c-1.321-0.475-0.261-1.658,0.224-2.452c1.018-1.674,3.338-1.023,4.48-2.484C708.813,356.68,709.299,356.894,709.787,357.108z"/>
		<path fill="#FC8119" d="M710.39,362.413c0.55-0.726,1.217-0.803,1.974-0.353h0.002c-0.498,0.65-1.109,0.93-1.912,0.586
			L710.39,362.413z"/>
		<path fill="#FC8119" d="M347.031,731.641c0.85,1.035,1.501,2.278,0.652,3.592c-0.777,1.203-2.274,1.227-3.309,0.67
			c-1.44-0.775-0.787-2.092-0.12-3.175C344.872,731.727,345.623,730.963,347.031,731.641z"/>
		<path fill="#F5C469" d="M295.953,217.244c-1.35,2.394-4.294,3.156-6.736,1.707c-2.543-1.508-3.297-3.541-1.772-6.237
			c1.698-3.008,4.041-3.796,6.744-2.224C296.542,211.855,297.318,214.826,295.953,217.244z"/>
	</g>
</g>
</svg>
