<?xml version="1.0" encoding="utf-8"?>
<!-- Generator: Adobe Illustrator 16.0.3, SVG Export Plug-In . SVG Version: 6.00 Build 0)  -->
<!DOCTYPE svg PUBLIC "-//W3C//DTD SVG 1.1//EN" "http://www.w3.org/Graphics/SVG/1.1/DTD/svg11.dtd">
<svg version="1.1" id="Layer_1" xmlns="http://www.w3.org/2000/svg" xmlns:xlink="http://www.w3.org/1999/xlink" x="0px" y="0px"
	 width="822.047px" height="822.047px" viewBox="0 0 822.047 822.047" enable-background="new 0 0 822.047 822.047"
	 xml:space="preserve">
<rect fill="#013F54" width="822.047" height="822.047"/>
<g>
	<g>
		<path fill="#FC8119" d="M638.658,551.256c-0.176-0.693-0.354-1.387-0.566-2.222c-2.283,1.116-2.705,3.608-4.236,5.167
			c-0.596,0.604-0.981,1.619-2.045,1.199c-0.846-0.332-0.673-1.268-0.687-1.975c-0.065-3.876-0.114-7.748-0.114-11.622
			c-0.02-53.118-0.025-106.237-0.044-159.355c-0.001-2.249,0.104-4.512-0.095-6.744c-0.386-4.388-2.768-6.646-6.604-6.511
			c-3.77,0.133-5.505,2.154-5.503,6.933c-0.007,16.748,0.116,33.496,0.128,50.243c0.026,47.992-0.105,95.987,0.181,143.979
			c0.041,6.903-1.711,12.164-6.271,17.351c-13.08,14.886-26.744,29.108-42.514,41.187c-12.861,9.855-26.479,18.511-41.141,25.447
			c-3.563,1.684-3.754,1.402-3.737-2.611c0.093-20.492,0.189-40.986,0.246-61.479c0.006-1.484-0.077-3.029-0.484-4.439
			c-0.976-3.382-4.222-5.517-7.415-4.817c-3.375,0.737-4.99,3.147-5.025,6.497c-0.065,6.248,0.015,12.496,0.015,18.742
			c0.002,16.125-0.193,32.252,0.105,48.367c0.094,5.072-0.139,9.09-6.268,9.82c0.854-1.879-0.059-3.775-0.044-5.67
			c0.114-14.201,0.083-28.406,0.089-42.607c0-1.121,0.053-2.254-0.086-3.36c-0.469-3.84-3.424-5.259-6.695-3.248
			c-0.741,0.454-1.45,0.959-2.179,1.439c-0.085-6.188-0.19-12.378-0.251-18.565c-0.039-4.429-1.721-7.633-4.719-8.396
			c-3.944-0.999-6.299,1.205-8.08,4.355c-0.768,1.266-0.494,2.664-0.492,4.015c0.001,25.019-0.005,50.038,0.065,75.056
			c0.006,2.069-0.343,3.893-1.565,5.546c-6.132,1.953-12.342,3.341-18.751,4.302c-6.068,0.908-12.13,2.008-18.23,2.862
			c-15.36,2.142-30.771,2.255-46.226,1.839c-7.816-0.211-15.575-0.695-23.24-2.297c-0.82-12.014,2.957-21.889,12.55-29.695
			c8.105-6.598,16.981-11.859,26.101-16.744c13.867-7.431,27.765-14.959,40.11-24.645c15.018-11.783,28.891-24.953,38.021-42.176
			c1.23-2.315,2.592-2.767,4.766-1.635c3.807,1.982,7.99,2.863,12.076,3.972c12.577,3.411,23.509,9.599,32.551,19.004
			c6.607,6.876,14.018,11.622,24.137,9.698c4.396,8.249,15.395,7.566,22.637,2.501c10.862-7.597,13.891-19.628,11.167-32.181
			c-3.49-16.1-14.96-24.738-29.283-30.569c-8.63-3.513-17.528-6.364-25.849-10.622c-0.543-0.276-1.015-0.693-1.52-1.045
			c9.336-18.207,15.756-37.424,19.985-57.417c2.23-10.527,3.286-21.163,3.896-31.905c0.727-12.824-0.896-25.344-3.348-37.855
			c-0.872-4.457-3.559-8.821-1.818-13.506c2.639-7.105,6.748-13.221,12.729-18.113c6.741-5.518,14.91-8.539,22.101-13.291
			c16.461-10.881,20.857-33.372,8.155-48.687c-4.88-5.882-9.997-12.759-19.647-9.693c-0.509,0.161-1.178-0.182-1.772-0.286
			c-0.22-0.42-0.438-0.837-0.653-1.249c0.001,0.004,0.004-0.112,0.004-0.112c-1.88-3.791-2.68-7.822-2.113-11.99
			c0.846-6.2-0.391-11.926-3.562-17.212c-3.085-5.142-2.776-9.999,1.05-14.465c1.627-1.895,1.215-2.833-0.57-4.095
			c-10.135-7.152-21.057-8.205-32.213-3.296c-12.259,5.396-18.432,15.497-19.606,28.638c-1.304,14.592,4.226,27.013,12.688,38.443
			c0.864,1.168,2.112,2.141,2.386,3.704c-0.185,1.267-0.904,1.981-2.176,2.201c-2.944,0.506-5.87,1.155-8.829,1.542
			c-11.063,1.437-21.798,4.174-32.058,8.513c-6.304,2.668-6.077,2.828-10.74-2.124c-1.871-1.988-1.869-3.42-0.264-5.431
			c1.867-2.335,3.432-4.876,4.327-7.806c5.147-16.781,0.388-32.068-13.39-43.068c-1.813-1.448-4.37-2.65-4.632-5.143
			c-0.554-5.191-3.8-7.837-8.071-9.79c4.361-12.587,1.565-21.354-9.652-27.152c-9.148-4.731-18.443-3.176-26.854,2.29
			c-10.925,7.098-14.418,17.79-13.492,30.344c-0.085-3.787-2.559-3.88-5.459-3.623c-2.934,0.256-4.612,1.483-4.698,4.609
			c-0.116,4.143,1.454,7.873,3.034,11.49c1.436,3.287,0.232,3.635-2.564,3.354c-5.578-0.549-11.16-1.263-16.754-1.452
			c-14.354-0.486-28.696-0.227-42.967,1.633c-2.014,0.266-3.938,0.526-3.544-2.543c1.696-13.233,3.153-26.492,3.879-39.825
			c0.834-15.355-0.208-30.124-10.408-42.905c-2.479-3.107-4.959-3.766-8.36-3.211c-2.438,0.396-4.816,1.438-7.357,0.614l0.255,0.081
			c0,0-0.083,0.253-0.083,0.25c-0.153-0.669-0.614-0.938-1.259-0.967c-2.652-1.311-5.23-2.81-7.976-3.894
			c-6.344-2.512-12.005-0.06-14.585,6.212c-0.358,0.862-0.639,1.528-1.592,1.845c-10.827,3.595-16.155,12.161-19.971,22.102
			c-0.176,0.458-0.483,0.869-0.927,1.646c-1.764-4.949-2.44-10.056-5.611-14.163c-0.477-0.612-0.193-1.945-0.02-2.901
			c0.628-3.439-0.146-6.687-2.48-9.057c-2.446-2.488-0.984-3.562,0.951-4.748c8.978-5.501,18.217-10.515,27.652-15.187
			c15.208-7.534,31.091-13.353,47.503-17.475c17.785-4.461,35.822-7.741,54.23-8.197c10.67,0.007,21.357,0.011,32.043,0.015
			c11.395,0.199,22.598,1.961,33.758,4.076c9.176,1.739,18.291,3.699,27.242,6.439c23.313,7.131,45.273,17.035,65.549,30.702
			c15.091,10.175,29.133,21.549,42.121,34.28c17.08,16.742,31.787,35.378,44.67,55.488c1.338,2.09,2.627,4.207,3.891,6.342
			c2.406,4.055,3.552,8.331,3.389,13.166c-0.28,8.235-0.078,16.492-0.021,24.737c0.045,6.355,3.766,9.353,9.713,7.364
			c2.666-0.889,3.145,0.106,3.941,2.135c5.082,12.919,8.156,26.33,10.614,39.977c3.832,21.268,4.948,42.658,3.38,64.137
			c-0.941,12.895-2.801,25.729-5.683,38.393c-1.96,8.615-4.021,17.172-7.514,25.305c-0.328-0.004-0.652-0.009-0.981-0.014
			c0.002-2.24,0-4.477,0.001-6.716c0.004-31.866,0.006-63.733-0.002-95.601c0-1.496,0.059-3.021-0.175-4.487
			c-0.539-3.392-3.497-5.787-6.83-5.712c-3.281,0.076-6.049,2.688-6.396,6.147c-0.127,1.235-0.055,2.495-0.056,3.745
			c-0.024,45.49-0.048,90.982-0.085,136.467c-0.002,1.495-0.156,2.986-0.242,4.467c-1.815,0.918-0.923,2.608-1.008,3.945
			c-0.367,5.718,0.671,11.627-2.534,17.398C643.765,549.52,640.817,551.912,638.658,551.256z M649.128,352.533
			c0.014-0.002,0.024-0.001,0.037-0.002c0,2.125-0.105,4.254,0.023,6.371c0.224,3.632,2.313,5.65,5.954,5.969
			c3.707,0.322,6.002-1.107,6.753-4.792c0.979-4.81,0.688-9.728-0.024-14.532c-0.52-3.488-3.777-5.479-7.186-5.065
			c-3.233,0.392-5.404,2.864-5.545,6.433C649.067,348.781,649.129,350.659,649.128,352.533z"/>
		<path fill="#FC8119" d="M305.011,659.826c-28.875-13.047-54.667-30.629-77.691-52.392c-15.288-14.443-28.333-30.642-39.349-48.508
			c-13.763-22.319-24.457-46.001-31.989-71.15c-9.568-31.929-12.921-64.511-10.598-97.665c1.407-20.082,5.327-39.751,11.237-59.039
			c1.933-6.314,4.237-12.466,6.467-18.661c0.355-0.981,0.858-1.786,1.87-2.583c1.483,2.145,1.973,4.683,2.992,6.976
			c3.567,8.021,9.248,14.288,16.261,19.435c0.488,0.356,1.166,0.488,1.215,1.26c0.836,2.481,1.473,5.05,2.534,7.434
			c6.941,15.582,19.458,25.801,34.021,33.381c16.534,8.607,34.5,12.121,53.164,11.983c8.747-0.063,17.5-0.14,26.245,0.064
			c8.329,0.191,15.937,2.992,22.795,7.61c12.232,8.233,18.491,20.725,23.304,34.012c4.47,12.339,7.631,25.047,10.178,37.951
			c4.357,22.066,5.474,44.054,0.403,66.127c-2.62,11.393-6.776,22.129-13.07,32.066c-7.203,11.375-15.36,22.092-22.392,33.6
			c-8.34,13.658-13.829,28.15-15.639,44.055C306.434,650.476,305.67,655.146,305.011,659.826z"/>
	</g>
	<g>
		<path fill="#FC8119" d="M348.166,369.678c-0.074-0.096-0.205-0.185-0.22-0.291c-0.75-4.863-0.703-4.792-5-2.094
			c-1.411,0.885-2.708,2.233-4.618,2.12c-2.074-0.079-2.446-1.149-1.852-2.962c0.83-2.516,1.689-5.046,1.389-8.123
			c-4.58,2.308-7.216,6.861-11.994,8.206c-0.637-1.182,0.262-2.135,0.5-3.176c0.216-0.961,0.592-1.886,0.901-2.826
			c-3.488,1.823-6.928,3.758-10.493,5.421c-1.256,0.585-2.669,1.436-4.24,0.761c2.247-4.086,5.646-7.696,5.508-13.353
			c-3.58,2.654-5.363,6.862-9.76,7.564c0.142-1.099,0.283-2.193,0.455-3.533c-4.549,1.341-7.922,5.21-12.683,6.007
			c0.621-3.802,3.348-7.099,2.784-11.23c-3.092,0.886-3.75,4.765-6.98,5.292c-5.132,1.796-9.333,6.01-15.22,5.842
			c2.502-2.246,4.904-4.565,6.444-8.133c-12.688,6.057-18.861,7.464-25.669,5.811c2.599-1.79,5.032-3.404,7.389-5.121
			c0.915-0.673,2.71-1.189,1.868-2.685c-0.553-0.979-2.066-0.407-3.132-0.039c-7.538,2.605-15.232,2.249-22.956,1.184
			c-1.206-0.163-2.917-0.133-3.164-1.493c-0.315-1.746,1.73-1.96,2.795-2.448c2.362-1.087,4.619-2.123,6.174-4.912
			c-1.299,0.098-2.147,0.206-2.997,0.212c-9.31,0.072-18.775,1.031-27.03-4.847c-1.85-1.317-4.017-1.962-6.179-2.574
			c1.184-2.125,2.478-4.145,4.887-5.106c0.692-1.818-0.426-2.309-1.853-2.934c-2.417-1.057-5.018-1.345-7.487-2.111
			c-20.989-6.529-28.364-31.222-14.112-48.026c2.639-3.114,3.088-5.661,2.203-9.386c-2.06-8.677-0.346-10.847,8.313-12.318
			c2.291-0.393,4.888,0.02,6.944-1.658c-0.723-1.207-1.793-1.211-2.73-1.487c-12.086-3.586-13.5-5.81-11.625-18.322
			c0.072-0.492,0.185-0.981,0.301-1.466c1.144-4.744,1.431-4.862,6.03-3.109c5.443,2.074,11.047,3.291,16.953,3.017
			c-4.83-2.106-9.29-4.777-13.905-7.154c-2.884-1.488-6.68-7.137-6.195-10.312c1.638-10.734,5.671-19.956,16.503-24.521
			c1.121-0.476,2.555-1.239,1.888-2.269c-2.648-4.09,0.892-5.749,2.896-7.873c2.938-3.115,11.006-4.808,14.372-3.272
			c3.365,6.144,5.107,12.907,7.332,19.474c4.351,12.83,7.849,25.955,10.173,39.252c2.285,13.072,4.639,26.213,5.023,39.566
			c0.142,4.973,0.75,9.95,0.934,14.895c0.378,10.188-0.046,20.422-3.141,30.299c-1.11,3.548-1.081,7.177-0.716,10.75
			c0.438,4.266,4.374,6.583,9.201,5.84c2.086-0.322,4.177-0.64,6.264-0.952c1.205,0.921,1.851,3.184,3.817,2.287
			c1.611-0.735,0.94-2.659,1.055-4.097c0.305-3.858,0.556-7.732,1.599-11.479c3.26-11.729,9.119-22.393,13.892-33.492
			c5.023-11.689,10-23.38,13.634-35.59c3.8-12.774,7.424-25.604,9.992-38.692c0.507-2.596,1.529-5.539-0.76-8.002
			c0.301-3.222,0.581-6.442,0.922-9.661c0.073-0.689,0.035-1.625,1.026-1.739c0.881-0.106,1.357,0.714,1.719,1.27
			c3.515,5.378,6.003,11.242,6.325,17.672c0.813,16.252-0.605,32.417-2.339,48.566c-1.33,12.403-3.412,24.659-6.543,36.729
			c-3.023,11.667-8.218,22.052-18.106,29.488c-2.953,2.221-6.145,4.126-9.734,5.214c-0.935,0.284-2.078,0.338-2.319,1.566
			c-0.275,1.393,0.839,2.066,1.744,2.627c1.884,1.167,3.827,2.043,6.189,2.244c12.476,1.063,21.622-5.026,29.889-13.348
			c4.1-4.123,6.304-9.452,9.821-14.979c3.765,9.372,0.404,17.332-2.225,25.437c3.998-2.51,10.009-11.372,11.745-17.046
			c1.567-5.129,2.823-10.307,3.248-15.673c0.062-0.774-0.203-2.004,0.978-2.13c0.925-0.103,1.443,0.788,1.939,1.548
			c1.657,2.556,2.793,5.296,2.911,8.356c0.124,3.24,0.012,6.493,0.19,9.729c0.174,3.162-1.626,5.977-1.565,9.843
			c8.738-8.625,10.182-19.494,12.365-31.072c8.155,11.057,5.187,21.954,2.213,33.02c3.561-2.12,7.8-8.208,9.259-12.766
			c1.638-5.104,3.434-10.15,3.385-15.629c-0.01-1.049,0.031-2.563,1.436-2.7c1.453-0.141,1.746,1.423,1.831,2.404
			c0.631,7.199,2.727,14.303,2.219,21.534c-0.27,3.881-2.142,7.591-3.831,11.18c0.046,0.019,0.092,0.043,0.14,0.067
			c-0.04-0.063-0.077-0.134-0.116-0.2c3.355-1.436,5.112-4.543,7.334-7.135c1.169-1.363,2.426-2.114,3.726-0.709
			c4.237,4.584,10.002,5.681,15.61,7.15c2.464,0.644,5.481,1.478,6.012,3.771c0.587,2.554-2.688,3.478-4.566,4.659
			c-3.351,2.11-7.101,3.536-10.294,5.948c-4.152,3.137-7.115,7.118-9.215,11.875c-1.194,2.703-0.047,3.173,2.194,2.76
			c10.78-2.002,20.804-5.87,29.753-12.314c4.854,0.367,7.976-2.373,10.156-6.16c2.504-4.353,2.187-8.992-0.451-13.148
			c-4.597-7.232-11.177-12.197-19.12-15.303c-5.791-2.264-10.938-5.042-11.853-12.049c1.771,1.678,3.323,3.586,5.57,4.733
			c0.996,0.509,1.932,1.521,3.049,1.021c1.386-0.624,0.469-2.002,0.456-3.012c-0.063-5.032,0.679-6.482,5.142-8.896
			c-0.791,7.213,1.928,12.872,7.481,16.918c2.771,2.023,6.159,3.195,9.206,4.862c15.709,8.575,17.273,21.886,10.732,36.241
			c-3.752,8.229-9.693,15.105-16.853,20.563c-6.604,5.037-14.356,7.916-22.75,8.473c-3.851,0.254-7.728,0.043-12.437,0.044
			c2.631,3.829,6.162,4.974,9.342,5.91c13.525,4.004,25.906,1.27,36.85-7.526c8.857-7.121,15.353-16.18,19.645-26.627
			c2.479-6.033,7.562-10.479,9.44-16.807c0.433-1.464,1.485-1.269,2.306,0.18c3.057,5.391,1.646,10.704-0.538,15.77
			c-4.108,9.524-10.29,17.645-18.044,24.613c3.65-0.688,11.177-5.759,15.564-9.773c4.941-4.521,9.305-9.385,12.318-15.428
			c0.89-1.782,1.57-1.698,2.988,0.224c4.36,5.897,2.752,10.993-1.309,15.954c-3.292,4.021-6.637,8.013-10.18,11.809
			c-3.532,3.788-7.534,7.098-12.115,10.443c3.791,0.116,6.514-1.848,9.299-3.121c7.793-3.57,14.986-8.125,20.53-14.865
			c1.431-1.738,2.024-1.443,2.948,0.594c3.305,7.287,2.02,11.478-5.266,16.101c-6.441,4.086-13.5,6.821-20.712,9.085
			c-13.218,4.152-25.421,10.125-35.571,19.674c-7.454,7.014-13.771,14.936-16.175,25.215c-1.118,4.781-1.61,9.629,1.29,14.107
			c0.392,7.793,2.211,12.955,5.314,14.979c1.916-16.894,7.443-32.264,18.818-45.194c0.205-0.231,0.123-0.716,0.177-1.081
			c11.713-9.039,25.118-14.107,39.467-17.141c8.27-1.75,16.601-1.813,24.964-1.705c11.288,0.145,21.939,2.582,31.429,8.994
			c7.249,4.897,11.942,11.457,12.88,20.371c1.189,11.303-1.433,21.992-5.089,32.545c-3.861,11.145-8.146,22.117-12.438,33.096
			c-0.981,2.514-1.423,5.326-1.62,8.039c-0.414,5.608,2.393,9.467,6.938,12.604c10.481,7.228,22.332,11.811,33.458,17.778
			c6.748,3.62,13.072,7.495,16.825,14.561c2.664,5.011,2.922,10.069,1.122,16.391c-3.914-6.339-9.602-9.45-14.697-13.279
			c-0.881-0.661-1.434-1.416-2.373-0.163c-2.654,3.544-4.502,2.059-6.933-0.644c-9.077-10.081-20.938-15.604-33.57-19.743
			c-1.881-0.617-3.729-1.325-5.597-1.991c0.91-1.139,0.908-1.136-0.533-2.003c-5.03-3.02-10.229-5.843-13.662-10.861
			c-2.817-4.127-4.26-9.484-1.139-12.943c3.943-4.363,3.525-7.529,1.925-12.552c-2.106-6.62-0.51-13.578,1.755-20.199
			c3.615-10.581,9.817-19.571,16.953-28.012c0.598-0.708,1.598-1.267,1.111-2.687c-2.143,0.564-4.271,1.132-6.4,1.695
			c-5.598-0.104-10.455,2.134-14.922,5.143c-2.736,1.843-3.727,0.82-4.375-1.758c-0.576-2.283-1.137-4.563-1.856-7.471
			c-2.901,4.807-3.277,9.518-3.01,14.327c0.213,3.776,0.278,7.314-2.741,10.38c-1.473,1.496-1.92,1.072-3.182,0.03
			c-3.795-3.132-5.246-7.681-7.427-11.786c-0.755-1.42-1.261-2.973-1.869-4.44c-2.188,5.228-0.306,9.476,0.804,16.117
			c0.479,2.886,1.289,5.848,3.154,8.323c1.271,1.691,1.213,3.311-0.848,4.306c-1.911,0.919-3.542,3.291-6.112,0.616
			c-5.815-6.049-9.499-13.279-12.423-20.997c-0.263-0.692-0.504-1.396-0.963-2.05c-0.363,7.82-0.115,15.527,3.748,22.672
			c0.585,1.082,1.18,2.24,1.371,3.43c0.265,1.688,4.255,2.782,0.885,5.031c-3.742,2.494-6.551,2.291-9.066-0.162
			c-3.793-3.706-5.077-8.717-7.276-13.254c-0.518-1.063-0.493-2.412-1.878-3.328c-0.645,6.324-0.41,12.381,1.303,18.3
			c0.794,2.741,0.58,3.866-2.782,4.15c-9.495,0.796-18.561-1.116-27.809-3.819c1.489,2.619,1.489,2.619,9.06,6.166
			c-5.24,1.158-10.139,0.531-15.803,0.715c6.402,7.503,13.923,11.36,22.654,13.564c8.627,2.18,17.344,1.349,26.13,1.473
			c-6.272,13.919-34.54,25.395-60.681,13.658c7.076,7.063,14.392,11.978,23.26,14.732c7.476,2.32,14.982,3.303,22.753,2.633
			c0.961-0.083,2.31-0.438,2.795,0.473c0.618,1.162-0.661,1.953-1.38,2.708c-9.823,10.341-22.147,13.681-35.966,12.706
			c-4.814-0.34-9.541-1.188-14.057-3.163c7.598,11.709,18.827,16.187,32.476,15.982c-7.305,12.473-27.563,14.804-49.488,5.761
			c1.065,5.731,5.103,8.79,8.542,12.256c3.741,3.772,9.23,4.028,13.614,6.637c-8.799,9.031-20.729,8.67-38.368-1.236
			c1.55,7.412,6.489,11.776,11.893,15.795c0.978,0.726,2.79,1.36,2.823,2.096c0.058,1.377-1.656,1.872-2.864,2.442
			c-6.745,3.183-13.288,1.958-19.755-0.903c-1.545-0.686-2.854-1.992-5.063-1.955c1.479,6.415,5.717,10.271,10.969,12.968
			c2.229,1.147,2.072,1.729,0.781,3.36c-3.889,4.931-10.434,5.828-18.072,2.338c-0.554-0.253-1.088-0.549-1.74-0.881
			c0.998,4.749,5.084,9.199,10.127,10.716c2.306,0.696,2.765,1.45,1.5,3.618c-3.54,6.063-5.208,6.627-14.775,4.381
			c0.762,3.955,4.714,7.856,9.712,9.511c1.242,0.413,2.908,0.231,2.755,2.278c-0.133,1.82,0.204,3.854-1.942,4.843
			c-1.583,0.728-3.213,1.342-4.795,2.075c-2.22,1.031-2.435,2.351-0.394,3.823c2.101,1.515,4.533,2.044,7.063,2.134
			c1.797,0.063,2.867,0.771,2.811,2.682c-0.24,8.295,5.306,14.009,9.226,20.406c1.591,2.598,3.801,4.813,5.731,7.203
			c-9.32-5.126-16.324-12.803-22.905-20.912c-4.55-5.604-7.046-12.35-9.641-18.916c-3.988-10.098-3.822-20.787-2.691-31.383
			c0.256-2.383,0.611-6.245,5.113-5.121c0.554,0.242,0.752,0.148,0.422-0.445c-1.706-5.293-1.685-10.584,0.293-15.779
			c2.04-5.367,3.118-5.748,7.518-3.031c0.899-1.389,0.347-2.896,0.367-4.34c0.077-5.465,2.097-10.191,5.594-14.299
			c1.471-1.729,2.978-2.164,4.401,0.283c0.839,1.441,1.779,2.925,3.512,3.99c0.764-1.629,0.156-2.928-0.179-4.165
			c-0.696-2.577-0.737-5.181-0.61-7.806c0.046-0.963-0.022-2.309,1.352-2.264c2.308,0.068,2.582-1.557,2.981-3.123
			c0.441-1.724,1.276-3.251,2.257-4.701c1.503-2.227,2.933-2.303,3.886,0.396c0.565,1.596,1.136,3.001,3.271,3.158
			c-0.017-2.199-0.261-4.229-1.001-6.238c-0.958-2.603-1.243-5.346-1.051-8.105c0.064-0.936,0.226-2.5,1.59-1.859
			c3.591,1.682,3.261-0.825,3.568-2.941c0.234-1.594,0.707-3.156,1.036-4.741c0.603-2.928,1.625-3.101,3.916-1.106
			c2.713,2.361,5.568,4.897,9.93,4.205c-1.395-1.957-3.233-3.404-4.79-5.109c-5.349-5.858-6.473-11.883-3.628-17.807
			c1.289-2.686,2.729-3.833,5.803-2.197c3.044,1.619,6.203,3.269,9.848,3.194l-0.021,0.021c-0.68-2.261-2.832-3.056-4.438-4.343
			c-4.24-3.396-7.104-7.654-8.556-12.865c-0.192-0.693-0.559-1.545,0.108-2.108c0.719-0.603,1.407-0.038,1.964,0.452
			c0.928,0.818,2.019,2.188,3.144,1.229c1.369-1.162,0.346-2.852-0.365-4.104c-1.689-2.968-2.596-6.089-2.691-10.043
			c6.051,4.093,12.128,6.624,19.236,5.436c-0.102-0.269-0.117-0.453-0.188-0.481c-0.697-0.273-1.421-0.49-2.11-0.777
			c-7.805-3.251-14.654-7.469-17.291-16.277c-1.154-3.852-1.004-4.281,2.868-3.686c3.327,0.514,6.479,0.144,10.278-0.998
			c-1.553-0.704-2.475-1.055-3.335-1.518c-4.399-2.367-8.949-4.551-11.256-9.441c-1.021-2.171-1.015-3.168,1.966-2.787
			c2.92,0.371,5.984,1.002,9.438-0.393c-1.582-0.871-2.688-1.432-3.745-2.072c-3.347-2.021-6.39-4.301-8.229-7.948
			c-1.23-2.44-0.773-3.646,1.947-4.208c2.555-0.531,5.164-1.006,7.452-2.402c0.65-0.398,1.308-0.852,1.013-1.754
			c-0.234-0.715-0.947-0.721-1.551-0.801c-1.977-0.271-3.984-0.385-5.932-0.797c-3.366-0.722-4.313-2.572-2.51-5.369
			c1.668-2.589,3.598-5.002,6.198-6.861c2.935-2.099,6.261-3.724,9.49-6.99c-1.688,0.174-2.422,0.189-3.132,0.328
			c-4.168,0.825-8.366,1.624-12.617,1.445c-1.726-0.076-4.049,0.145-4.901-1.99c-0.824-2.07,0.268-3.852,1.573-5.479
			c2.45-3.06,5.669-5.246,8.615-7.743c2.617-2.217,5.59-4.066,7.626-6.957c-0.963-0.752-1.616-0.15-2.302,0.045
			c-5.629,1.594-11.131,3.766-17.127,3.668c-5.163-0.085-6.723-2.814-3.929-7.253c1.933-3.065,4.395-5.729,7.103-8.173
			c2.263-2.047,5.022-3.611,6.817-6.463c-1.527-0.746-2.663-0.037-3.801,0.266c-4.58,1.229-9.117,2.7-13.922,2.794
			c-6.712,0.131-9.1-2.897-7.565-9.442c1.188-5.041,4.242-8.965,7.535-12.734c1.905-2.187,4.232-4.036,5.445-7.068
			c-2.171,0.151-3.538,1.329-5.07,2.082c-5.16,2.531-10.238,5.243-16.083,5.92c-3.807,0.441-5.188-0.708-4.877-4.514
			c0.399-4.892,1.874-9.541,3.526-14.134c0.625-1.724,1.372-3.412,0.809-6.243C354.711,364.552,351.834,367.641,348.166,369.678z
			 M226.304,288.1c-5.985-7.215-13.787-9.503-22.456-6.813c-9.946,3.083-15.75,15.722-11.89,25.009
			c4.116,9.898,15.417,16.729,26.255,11.67c1.773-0.828,3.46-1.829,5.188-2.75c2.271,1.346,4.354,2.075,6.088-0.909
			c2.556-4.397,4.269-9.055,3.526-14.144C232.322,295.396,231.168,290.652,226.304,288.1z M219.368,198.226
			c-5.272-0.063-11.267,4.331-12.95,9.452c-0.617,1.874-1.409,3.743-0.779,5.831c0.842,2.782,2.929,3.774,5.475,3.381
			c1.964-0.304,5.253,0.484,4.421-3.631c-0.259-1.288,1.231-1.743,2.071-2.426c1.729-1.409,3.559-2.696,5.244-4.155
			c1.8-1.562,2.249-3.641,1.252-5.748C223.172,198.961,221.364,198.115,219.368,198.226z"/>
		<path fill="#F5C469" d="M305.011,659.826c0.659-4.68,1.424-9.352,1.957-14.047c1.811-15.902,7.298-30.399,15.64-44.055
			c7.027-11.508,15.184-22.226,22.39-33.602c6.292-9.938,10.451-20.668,13.071-32.065c5.069-22.073,3.953-44.058-0.403-66.122
			c-2.547-12.91-5.71-25.618-10.179-37.957c-4.814-13.286-11.073-25.775-23.304-34.01c-6.861-4.615-14.466-7.42-22.795-7.611
			c-8.745-0.203-17.498-0.129-26.244-0.065c-18.662,0.138-36.632-3.376-53.164-11.983c-14.565-7.578-27.079-17.799-34.02-33.382
			c-1.063-2.38-1.7-4.947-2.536-7.433c5.962,2.102,11.058,4.83,15.265,10.243c12.131,15.604,28.367,25.145,47.723,29.462
			c12.903,2.878,25.95,3.144,39.061,2.988c10.111-0.122,20.195-0.024,29.934,3.337c17.999,6.21,29.312,19.288,35.962,36.396
			c11.632,29.927,19.285,60.767,18.139,93.214c-0.744,21.043-6.002,40.861-17.265,58.816c-4.652,7.412-9.543,14.705-14.731,21.756
			c-15.472,21.021-24.925,43.97-23.162,70.908C311.869,664.063,308.777,661.109,305.011,659.826z"/>
		<path fill="#F5C469" d="M348.166,369.678c3.668-2.037,6.545-5.126,10.018-8.394c0.562,2.829-0.185,4.522-0.807,6.245
			c-1.656,4.59-3.131,9.241-3.527,14.129c-0.311,3.808,1.07,4.957,4.873,4.516c5.849-0.677,10.929-3.389,16.086-5.92
			c1.533-0.753,2.9-1.928,5.072-2.082c-1.214,3.03-3.538,4.883-5.445,7.066c-3.293,3.773-6.35,7.695-7.535,12.736
			c-1.536,6.546,0.853,9.573,7.562,9.441c4.806-0.093,9.342-1.562,13.925-2.791c1.139-0.305,2.273-1.014,3.799-0.269
			c-1.792,2.854-4.557,4.417-6.82,6.465c-2.703,2.443-5.166,5.104-7.097,8.172c-2.794,4.44-1.235,7.168,3.925,7.253
			c6,0.099,11.502-2.075,17.132-3.67c0.681-0.195,1.337-0.795,2.3-0.041c-2.037,2.891-5.011,4.736-7.626,6.955
			c-2.945,2.498-6.165,4.686-8.614,7.743c-1.311,1.63-2.399,3.409-1.575,5.478c0.853,2.137,3.177,1.92,4.9,1.99
			c4.252,0.181,8.452-0.617,12.618-1.442c0.711-0.14,1.445-0.157,3.133-0.327c-3.229,3.268-6.557,4.893-9.49,6.988
			c-2.6,1.861-4.529,4.275-6.199,6.861c-1.801,2.798-0.857,4.65,2.512,5.369c1.945,0.412,3.953,0.527,5.928,0.795
			c0.607,0.084,1.321,0.086,1.555,0.803c0.293,0.902-0.365,1.354-1.014,1.754c-2.289,1.397-4.899,1.871-7.452,2.402
			c-2.724,0.563-3.179,1.768-1.947,4.21c1.841,3.646,4.886,5.93,8.23,7.945c1.06,0.642,2.163,1.201,3.745,2.075
			c-3.455,1.392-6.521,0.76-9.439,0.389c-2.98-0.379-2.986,0.617-1.963,2.791c2.303,4.891,6.854,7.072,11.256,9.438
			c0.86,0.464,1.781,0.815,3.33,1.517c-3.797,1.144-6.948,1.516-10.274,1.001c-3.873-0.597-4.022-0.168-2.868,3.685
			c2.637,8.807,9.483,13.027,17.291,16.274c0.69,0.29,1.411,0.508,2.106,0.778c0.076,0.031,0.091,0.215,0.193,0.484
			c-7.109,1.186-13.19-1.344-19.239-5.434c0.098,3.95,1,7.07,2.691,10.04c0.713,1.255,1.736,2.941,0.367,4.106
			c-1.125,0.957-2.217-0.411-3.143-1.229c-0.559-0.492-1.248-1.058-1.964-0.454c-0.669,0.563-0.304,1.416-0.109,2.108
			c1.455,5.211,4.313,9.471,8.554,12.866c1.607,1.285,3.76,2.083,4.439,4.342l0.022-0.022c-3.648,0.074-6.807-1.572-9.848-3.191
			c-3.076-1.641-4.517-0.491-5.808,2.195c-2.841,5.922-1.717,11.947,3.633,17.808c1.555,1.706,3.392,3.153,4.789,5.108
			c-4.361,0.691-7.219-1.843-9.929-4.206c-2.293-1.993-3.313-1.819-3.921,1.108c-0.325,1.582-0.797,3.146-1.03,4.74
			c-0.312,2.119,0.022,4.623-3.569,2.941c-1.366-0.639-1.526,0.923-1.593,1.857c-0.191,2.762,0.093,5.501,1.054,8.103
			c0.74,2.013,0.981,4.044,1.002,6.244c-2.14-0.157-2.71-1.563-3.272-3.159c-0.953-2.701-2.385-2.623-3.888-0.396
			c-0.979,1.447-1.813,2.977-2.258,4.701c-0.4,1.563-0.674,3.193-2.982,3.121c-1.369-0.043-1.302,1.303-1.349,2.268
			c-0.126,2.623-0.088,5.229,0.609,7.803c0.331,1.238,0.942,2.539,0.181,4.166c-1.732-1.064-2.674-2.549-3.513-3.993
			c-1.424-2.444-2.932-2.007-4.405-0.28c-3.496,4.106-5.514,8.83-5.592,14.299c-0.021,1.445,0.534,2.951-0.368,4.336
			c-4.398-2.713-5.476-2.33-7.516,3.035c-1.978,5.195-1.999,10.484-0.294,15.779c-0.144,0.146-0.286,0.295-0.422,0.448
			c-4.501-1.128-4.856,2.733-5.112,5.118c-1.13,10.597-1.297,21.287,2.693,31.383c2.594,6.568,5.089,13.309,9.637,18.916
			c6.586,8.109,13.588,15.787,22.908,20.912c1.915,1.672,4.359,2.836,5.634,5.871c-11.381-2.874-21.062-8.029-28.986-15.953
			c-19.741-19.73-22.852-43.646-16.397-69.57c3.941-15.826,13.063-29.027,22.426-42.049c7.29-10.14,14.376-20.419,19.306-31.99
			c7.179-16.865,11.311-34.432,10.964-52.799c-0.689-36.275-8.46-71.041-23.464-104.086c-4.665-10.271-11.875-18.762-21.03-25.437
			c-1.739-1.272-1.51-1.737-0.071-2.923C342.675,374.695,345.388,372.146,348.166,369.678z"/>
		<path fill="#F5C469" d="M566.49,597.461c-10.118,1.922-17.527-2.822-24.135-9.698c-9.043-9.407-19.975-15.595-32.554-19.007
			c-4.086-1.107-8.269-1.988-12.075-3.967c-2.175-1.135-3.536-0.684-4.765,1.631c-9.136,17.225-23.006,30.396-38.021,42.176
			c-12.35,9.685-26.243,17.213-40.112,24.646c-9.118,4.884-17.993,10.147-26.099,16.741c-9.596,7.811-13.372,17.684-12.551,29.699
			c-0.985-0.123-1.972-0.245-2.961-0.363l0.036,0.002c-7.816-0.562-7.767-0.558-7.274-8.293
			c0.891-13.932,8.553-23.789,19.118-31.885c9.947-7.621,20.984-13.49,31.898-19.545c18.625-10.332,36.359-21.867,51.303-37.283
			c8.95-9.234,15.855-19.847,21.627-31.26c0.579-1.148,0.996-2.942,2.793-1.271c6.939,6.458,15.979,8.025,24.557,10.746
			c12.426,3.943,23.707,9.778,32.44,19.872c3.717,4.291,7.698,8.477,14.42,5.666c1.45-0.605,2.548,0.583,3.206,1.943
			C568.947,591.334,568.908,594.502,566.49,597.461z"/>
		<path fill="#F5C469" d="M583.922,294.786c0.598,0.104,1.268,0.447,1.773,0.286c9.65-3.063,14.769,3.814,19.647,9.693
			c12.702,15.316,8.304,37.81-8.155,48.689c-7.188,4.752-15.357,7.77-22.102,13.289c-5.977,4.895-10.091,11.008-12.728,18.113
			c-1.741,4.686,0.943,9.05,1.816,13.507c2.452,12.513,4.072,25.03,3.349,37.856c-0.607,10.743-1.662,21.378-3.896,31.908
			c-4.229,19.99-10.651,39.205-19.987,57.416c-0.361-0.079-0.772-0.072-1.081-0.248c-8.934-5.065-8.146-2.856-4.521-11.732
			c6.236-15.256,12.272-30.591,15.37-46.831c4.874-25.563,5.4-51.093-2.224-76.313c-0.892-2.938,0.015-5.436,0.931-7.97
			c5.11-14.096,14.115-24.769,27.714-31.434c5.146-2.52,10.3-5.051,14.689-8.875c9.516-8.288,10.582-20.628,2.626-30.365
			c-2.797-3.426-6.272-6.054-9.68-8.773C584.798,300.875,582.813,298.52,583.922,294.786z"/>
		<path fill="#F5C469" d="M320.301,185.675c2.54,0.821,4.917-0.221,7.356-0.616c3.4-0.554,5.882,0.104,8.359,3.21
			c10.198,12.781,11.244,27.552,10.409,42.909c-0.726,13.332-2.184,26.588-3.879,39.822c-0.396,3.07,1.528,2.807,3.542,2.544
			c14.272-1.858,28.615-2.12,42.967-1.632c5.596,0.188,11.176,0.902,16.755,1.452c2.797,0.276,4.001-0.068,2.563-3.354
			c-1.579-3.618-3.147-7.35-3.034-11.492c0.086-3.128,1.769-4.354,4.701-4.609c2.899-0.256,5.373-0.164,5.459,3.623
			c1.598,12.027,8.02,21.232,17.085,28.89c1.905,1.608,3.635,3.428,5.56,5.008c1.57,1.293,0.969,1.604-0.479,2.476
			c-3.625,2.178-6.379,2.309-10.06-0.707c-10.145-8.318-22.677-9.995-35.213-10.697c-19.338-1.085-38.595,0.074-57.712,3.311
			c-1.176,0.197-2.419,0.023-4.008,0.024c1.578-14.67,3.536-29.328,4.617-44.048c0.878-12.004,2.39-24.151-1.722-35.996
			c-2.529-7.286-6.181-13.758-12.335-18.597C320.708,186.777,320.339,186.348,320.301,185.675z"/>
		<path fill="#F5C469" d="M465.496,252.051c4.273,1.953,7.52,4.598,8.068,9.79c0.265,2.489,2.819,3.691,4.635,5.14
			c13.776,11.003,18.536,26.288,13.389,43.072c-0.896,2.928-2.461,5.467-4.326,7.803c-1.604,2.014-1.608,3.441,0.265,5.432
			c4.662,4.952,4.437,4.793,10.739,2.124c10.26-4.339,20.991-7.075,32.058-8.512c2.96-0.388,5.883-1.037,8.828-1.545
			c1.27-0.219,1.991-0.935,2.175-2.196c3.068,3.031,6.135,6.063,9.317,9.213c-2.681,2.463-5.959,2.954-9.061,3.346
			c-17.702,2.238-34.88,6.115-50.51,15.185c-1.304,0.759-1.854,0.257-2.691-0.8c-5.189-6.546-10.448-13.057-16.791-18.545
			c-2.265-1.957-0.192-2.377,0.828-3.157c10.73-8.175,14.009-20.376,8.46-31.807c-3.02-6.226-8.329-10.49-13.202-15.104
			c-2.624-2.486-5.437-4.775-8.015-7.305c-2.257-2.21-3.999-4.787-4.262-8.096c-0.194-2.474,0.863-3.764,3.43-3.739
			C461.057,252.369,463.313,252.995,465.496,252.051z"/>
		<path fill="#F5C469" d="M673.15,603.432c0,22.729,0,45.457-0.001,68.184c0.001,1.248,0.05,2.504-0.042,3.746
			c-0.188,2.629-1.788,4.061-4.262,4.459c-2.494,0.397-3.945-1.084-4.939-3.161c-0.736-1.534-0.543-3.176-0.545-4.79
			c-0.006-45.58-0.01-91.16-0.001-136.741c0.001-1.614-0.138-3.246,0.472-4.813c0.925-2.384,2.629-3.694,5.189-3.376
			c2.563,0.318,3.98,1.997,4.088,4.566c0.104,2.615,0.02,5.242,0.018,7.867c-0.002,21.35,0.001,42.704,0.002,64.06
			C673.137,603.432,673.143,603.432,673.15,603.432z"/>
		<path fill="#F5C469" d="M233.564,179.945c-3.365-1.542-11.431,0.15-14.37,3.271c-2.005,2.125-5.544,3.781-2.894,7.873
			c0.663,1.025-0.77,1.792-1.891,2.269c-10.83,4.563-14.865,13.785-16.501,24.517c-0.487,3.177,3.31,8.824,6.195,10.313
			c4.613,2.379,9.076,5.049,13.902,7.156c-5.902,0.271-11.508-0.944-16.95-3.018c-4.599-1.755-4.884-1.635-6.03,3.107
			c-0.116,0.483-0.229,0.975-0.303,1.469c-1.872,12.514-0.459,14.735,11.627,18.321c0.939,0.276,2.007,0.279,2.73,1.487
			c-2.056,1.677-4.651,1.268-6.944,1.658c-8.658,1.473-10.373,3.645-8.314,12.316c0.886,3.729,0.439,6.271-2.2,9.387
			c-14.251,16.806-6.878,41.498,14.112,48.026c2.471,0.771,5.068,1.059,7.488,2.112c1.428,0.623,2.545,1.112,1.85,2.932
			c-7.725-1.395-15.398-2.821-22.278-7.03c-18.598-11.38-19.194-36.014-5.876-48.083c1.273-1.152,1.8-2.27,1.285-4.237
			c-2.838-10.784-2.891-21.72-2.111-32.825c0.417-5.913,0.622-11.832,1.359-17.743c2.632-21.103,15.854-38.998,37.078-43.745
			c1.805-0.404,3.542-1.121,5.298-1.727C231.941,177.024,233.207,177.693,233.564,179.945z"/>
		<path fill="#F5C469" d="M673.125,214.797c-0.001,17.498,0.001,34.999-0.004,52.498c0.001,1,0.014,2.006-0.082,2.998
			c-0.293,3.061-2.061,5.023-5.059,4.952c-3.063-0.072-4.568-2.173-4.566-5.288c0.008-11.75-0.012-23.5-0.014-35.248
			c-0.003-23.875,0-47.751,0-71.624c0.002-0.876-0.025-1.756,0.055-2.624c0.293-3.229,2.443-5.566,5.135-5.321
			c3.35,0.31,4.563,2.368,4.547,5.659c-0.07,17.997-0.033,35.998-0.033,53.998C673.109,214.797,673.117,214.797,673.125,214.797z"/>
		<path fill="#FC8119" d="M548.307,267.592c1.148,12.27,5.678,23.063,14.427,31.827c5.719,5.729,11.417,11.538,18.275,15.964
			c4.556,2.938,7.267,7.604,6.317,11.679c-0.873,3.757-3.911,5.919-6.834,7.827c-7.271,4.745-15.094,7.932-24.069,7.041
			c-0.794-0.08-1.729-0.465-2.483,0.442c0.676,2.47,3.244,2.354,4.888,3.474c-1.927,2.978-5.791,3.334-8.825,0.822
			c-0.471-0.39-0.966-0.82-1.269-1.338c-3.732-6.373-4.119-5.818,2.393-8.385c6.143-2.42,11.749-5.835,17.108-9.729
			c2.799-2.032,2.271-3.51,0.312-5.604c-4.19-4.484-9.187-8.25-12.392-13.634c4.121-2.344,4.127-2.345,1.198-6.397
			c-0.804-1.113-1.665-2.18-2.462-3.295C548.262,289.008,545.395,278.92,548.307,267.592z"/>
		<path fill="#F5C469" d="M624.135,652.063c0,14.109,0.007,28.222-0.006,42.332c-0.001,1.249-0.026,2.502-0.159,3.74
			c-0.354,3.436-2.364,5.666-5.02,5.266c-3.223-0.482-4.495-2.732-4.495-5.838c0.004-16.359,0.012-32.721,0.007-49.079
			c-0.004-13.361-0.021-26.723-0.036-40.086c-0.001-0.376-0.053-0.751-0.018-1.122c0.287-3.051,3.123-6.361,5.268-6.172
			c2.734,0.242,4.488,2.797,4.496,6.754c0.022,14.733,0.01,29.469,0.011,44.205C624.164,652.063,624.15,652.063,624.135,652.063z"/>
		<path fill="#F5C469" d="M638.658,551.256c2.159,0.656,5.106-1.736,6.514,2.162c3.206-5.771,2.168-11.681,2.534-17.396
			c0.087-1.339-0.808-3.029,1.009-3.947c-0.058,29.747-0.109,59.48-0.177,89.215c-0.023,10.494-0.052,20.987-0.167,31.482
			c-0.023,2.196,0.507,4.51-0.775,6.578c-0.008-5.102-0.064-10.201,0.012-15.303c0.031-2.098-0.609-2.828-2.846-2.605
			c-2.04,0.201-4.563,1.344-5.928-1.498c-0.066-12.098-0.176-24.194-0.195-36.291C638.611,586.188,638.65,568.721,638.658,551.256z"
			/>
		<path fill="#F5C469" d="M311.865,209.998c2.286,2.464,1.267,5.407,0.757,8.003c-2.567,13.086-6.188,25.917-9.989,38.691
			c-3.633,12.21-8.61,23.899-13.634,35.589c-4.771,11.101-10.633,21.767-13.891,33.493c-1.042,3.748-1.293,7.619-1.601,11.48
			c-0.112,1.437,0.56,3.357-1.053,4.095c-1.969,0.902-2.613-1.367-3.818-2.288c-3.289-5.972-1.89-11.952,0.381-17.697
			c5.739-14.522,12.759-28.476,19.459-42.562c8.863-18.633,16.287-37.782,21.287-57.806
			C310.656,217.414,311.081,213.652,311.865,209.998z"/>
		<path fill="#FC8119" d="M448.143,238.912c1.05-0.488,1.863,0.145,3.25,0.715c-3.285,1.455-5.77,3.4-7.576,6.065
			c-5.059,7.459-3,14.8,1.016,21.688c4.563,7.826,12.114,13.061,18.246,19.533c2.048,2.162,4.223,4.199,5.43,6.994
			c1.373,3.167,0.523,7.576-1.834,9.662c-3.222,2.855-6.797,3.309-10.336,1.297c-0.313-0.178-0.57-0.447-0.854-0.674
			c-1.615-1.304-4.616-1.805-4.83-3.648c-0.304-2.592,3.15-1.696,4.684-2.99c2.103-1.773,2.974-2.691,0.496-5.107
			c-4.385-4.279-9.104-8.335-12.288-13.726c1.74-1.739,0.053-2.911-0.74-4.179c-3.76-6.018-7.549-12.021-7.414-19.519
			C435.542,246.267,441.028,239.342,448.143,238.912z"/>
		<path fill="#F5C469" d="M517.164,458.23c2.129-0.564,4.258-1.131,6.398-1.697c0.483,1.42-0.516,1.979-1.114,2.686
			c-7.132,8.441-13.333,17.433-16.95,28.015c-2.264,6.62-3.861,13.579-1.753,20.198c1.604,5.021,2.021,8.188-1.925,12.551
			c-3.121,3.459-1.682,8.816,1.136,12.943c3.436,5.02,8.634,7.842,13.663,10.861c1.443,0.869,1.442,0.863,0.535,2.004
			c-6.356-1.515-12.513-3.48-17.544-7.93c-7.142-6.314-8.108-15.504-2.344-23.002c0.839-1.096,1.158-1.93,0.644-3.339
			c-4.103-11.227-1.962-21.885,3.33-32.126c3.256-6.299,7.16-12.168,12.429-17.04C514.98,461.137,516.006,459.613,517.164,458.23z"
			/>
		<path fill="#F5C469" d="M210.182,338.255c2.164,0.61,4.334,1.257,6.183,2.572c8.252,5.881,17.718,4.92,27.026,4.848
			c0.852-0.005,1.698-0.117,2.996-0.209c-1.553,2.786-3.81,3.822-6.171,4.908c-1.064,0.488-3.11,0.704-2.795,2.451
			c0.246,1.358,1.959,1.327,3.165,1.494c7.725,1.063,15.416,1.422,22.954-1.185c1.064-0.368,2.58-0.941,3.134,0.04
			c0.84,1.489-0.951,2.009-1.87,2.682c-2.355,1.719-4.789,3.333-7.385,5.118c6.806,1.658,12.98,0.25,25.664-5.807
			c-1.538,3.565-3.938,5.888-6.441,8.133c-3.272,2.533-7.114,3.724-11.106,3.466c-16.298-1.042-31.71-5.014-44.646-15.554
			C216.553,347.682,211.744,344.224,210.182,338.255z"/>
		<path fill="#F5C469" d="M497.668,610.964c0.729-0.479,1.438-0.983,2.177-1.438c3.272-2.012,6.229-0.595,6.697,3.248
			c0.141,1.107,0.083,2.238,0.087,3.36c-0.011,14.2,0.023,28.405-0.092,42.604c-0.014,1.896,0.896,3.794,0.047,5.674
			c-2.308,0.883-4.643,1.74-6.941,2.679c-1.994,0.813-2.568,0.241-2.53-1.913C497.43,647.107,496.897,629.028,497.668,610.964z"/>
		<path fill="#F5C469" d="M579.975,678.332c0.001,7.117-0.014,14.236,0.004,21.359c0.006,2.354-0.91,4.075-3.16,5.008
			c-1.687,0.698-3.08,0.316-4.517-0.755c-1.313-0.979-1.402-2.284-1.417-3.648c-0.143-14.485-0.305-28.971-0.354-43.458
			c-0.011-3.023,2.688-6.046,5.076-5.799c3.472,0.357,4.33,2.929,4.34,5.934c0.025,7.119,0.007,14.238,0.008,21.357
			C579.963,678.332,579.969,678.334,579.975,678.332z"/>
		<path fill="#F5C469" d="M555.372,685.084c-0.003,6.367,0.023,12.732-0.01,19.101c-0.018,3.663-1.825,5.78-4.828,5.792
			c-2.764,0.012-4.69-2.098-4.717-5.578c-0.096-12.732-0.123-25.465-0.104-38.197c0.008-3.386,2.358-6.018,4.961-5.873
			c2.903,0.156,4.631,2.321,4.656,6.031c0.043,6.24,0.008,12.482,0.012,18.725C555.353,685.084,555.362,685.084,555.372,685.084z"/>
		<path fill="#F5C469" d="M395.862,310.898c0.917,7.005,6.063,9.785,11.854,12.05c7.941,3.102,14.521,8.068,19.118,15.304
			c2.641,4.154,2.957,8.796,0.449,13.147c-2.181,3.785-5.302,6.526-10.153,6.159c0.312-0.391,0.576-0.819,0.937-1.158
			c10.412-9.892,4.122-18.914-3.608-24.445c-3.914-2.805-8.721-3.571-13.059-5.407c-4.851-2.048-8.389-5.285-8.99-10.905
			c-0.318-2.968,0.199-5.66,2.398-8.072C395.971,308.482,395.389,309.88,395.862,310.898z"/>
		<path fill="#F5C469" d="M481.825,712.082c-0.003,4.125,0.026,8.245-0.011,12.366c-0.029,3.226-1.994,4.606-4.939,4.823
			c-3.018,0.221-4.336-1.543-4.355-4.299c-0.057-8.488-0.089-16.98,0.038-25.471c0.045-3.05,1.835-4.84,5.008-4.752
			c3.143,0.09,4.27,2.068,4.266,4.968C481.818,703.837,481.828,707.959,481.825,712.082z"/>
		<path fill="#F5C469" d="M432.387,436.078c-0.054,0.363,0.026,0.848-0.177,1.08c-11.374,12.932-16.904,28.303-18.819,45.193
			c-3.103-2.022-4.921-7.185-5.313-14.979c1.307-15.071,11.359-23.757,22.896-31.341C431.296,435.82,431.908,436.05,432.387,436.078
			z"/>
		<path fill="#F5C469" d="M446.565,714.026c-0.001-3.372-0.048-6.745,0.014-10.117c0.059-3.25,2.329-6.071,4.993-5.917
			c3.255,0.184,4.451,2.682,4.527,5.431c0.207,7.233,0.311,14.483,0.053,21.709c-0.092,2.575-2.334,3.965-4.963,4.009
			c-2.563,0.043-4.396-1.119-4.487-3.879c-0.124-3.74-0.03-7.489-0.031-11.238C446.637,714.024,446.601,714.023,446.565,714.026z"/>
		<path fill="#FC8119" d="M445.01,97.552c0.063,6.987,0.222,13.979,0.139,20.963c-0.033,2.905-1.281,4.986-4.773,4.903
			c-3.484-0.082-4.459-1.973-4.4-5.09c0.117-6.489-0.457-12.988,0.197-19.468c1.219-0.079,1.046-1.104,1.338-1.873
			c0.926-2.439,4.143-3.13,5.855-1.254C443.913,96.335,443.969,97.383,445.01,97.552z"/>
		<path fill="#FC8119" d="M287.526,675.527c4.633-1.893,7.42-0.307,7.501,4.463c0.101,6.084,0.012,12.168-0.027,18.253
			c-0.015,2.521-0.731,4.717-3.432,5.539c-2.722,0.833-4.427-0.54-5.563-2.883c0.031-2.35-0.039-4.708,0.116-7.048
			C286.529,687.738,285.031,681.477,287.526,675.527z"/>
		<path fill="#F5C469" d="M548.307,267.592c-2.912,11.328-0.049,21.415,6.584,30.693c0.797,1.115,1.658,2.182,2.464,3.295
			c2.927,4.053,2.92,4.056-1.2,6.398c-6.773-6.813-12.43-14.318-14.638-23.912c-1.233-5.375-0.552-10.41,3.089-14.771
			C545.537,268.181,546.432,266.758,548.307,267.592z"/>
		<path fill="#F5C469" d="M382.863,110.234c0.002-2.621-0.096-5.248,0.027-7.863c0.14-2.977,1.881-4.627,4.819-4.557
			c2.864,0.068,4.739,1.647,4.797,4.648c0.107,5.367,0.158,10.74,0.003,16.104c-0.089,3.097-2.004,4.774-5.121,4.722
			c-3.049-0.057-4.472-1.897-4.545-4.816c-0.066-2.748-0.014-5.491-0.014-8.238C382.84,110.232,382.852,110.233,382.863,110.234z"/>
		<path fill="#F5C469" d="M609.16,190.646c0.004-2.242-0.026-4.485,0.008-6.729c0.054-3.201,2.156-4.308,4.904-4.459
			c2.684-0.148,4.286,1.331,4.463,3.972c0.332,4.975,0.302,9.96-0.178,14.932c-0.277,2.869-2.181,4.222-4.875,4.01
			c-2.641-0.209-4.369-1.676-4.334-4.621C609.178,195.383,609.154,193.016,609.16,190.646z"/>
		<path fill="#F5C469" d="M448.143,238.912c-7.114,0.43-12.603,7.354-12.758,16.111c-0.133,7.496,3.656,13.502,7.414,19.521
			c0.793,1.268,2.483,2.438,0.743,4.179c-6.588-5.743-11.933-12.313-13.833-21.112c-2.082-9.661,4.164-18.848,13.643-19.98
			C445,237.436,447.027,236.714,448.143,238.912z"/>
		<path fill="#F5C469" d="M288.464,136.111c0-2.115-0.073-4.234,0.021-6.351c0.113-2.712,1.509-4.607,4.268-4.766
			c2.863-0.162,4.978,1.565,5.187,4.328c0.346,4.583,0.373,9.228,0.017,13.806c-0.223,2.866-2.627,4.037-5.395,4.059
			c-2.867,0.022-3.881-1.876-4.018-4.354c-0.122-2.234-0.026-4.48-0.025-6.723C288.5,136.113,288.483,136.112,288.464,136.111z"/>
		<path fill="#FC8119" d="M410.521,110.621c0.002-2.608-0.09-5.222,0.027-7.824c0.125-2.891,2.086-4.298,4.66-4.275
			c2.666,0.019,4.346,1.631,4.352,4.52c0.005,4.971,0.07,9.945-0.016,14.916c-0.049,2.881-1.637,4.914-4.533,4.826
			c-2.896-0.086-4.799-1.745-4.616-5.081c0.13-2.353,0.024-4.72,0.023-7.081C410.455,110.621,410.49,110.622,410.521,110.621z"/>
		<path fill="#F5C469" d="M262.195,145.494c0-1.999-0.125-4.007,0.028-5.992c0.233-2.997,2.137-4.467,5.002-4.471
			c2.847-0.005,4.404,1.721,4.473,4.477c0.106,4.246,0.009,8.495-0.047,12.743c-0.041,3.153-2.072,4.497-4.839,4.524
			c-2.799,0.022-4.3-1.854-4.509-4.538c-0.176-2.234-0.04-4.495-0.039-6.742C262.243,145.495,262.219,145.495,262.195,145.494z"/>
		<path fill="#FC8119" d="M365.851,115.779c-0.002,1.983,0.027,3.973-0.008,5.96c-0.046,2.839-1.975,4.075-4.365,4.066
			c-2.343-0.003-4.521-1.376-4.714-3.882c-0.313-4.072-0.326-8.207,0-12.275c0.225-2.806,2.331-4.3,5.174-4.255
			c2.803,0.044,3.855,1.939,3.997,4.43c0.112,1.979,0.023,3.969,0.023,5.956C365.923,115.778,365.889,115.778,365.851,115.779z"/>
		<path fill="#FC8119" d="M638.834,639.943c1.363,2.839,3.888,1.699,5.928,1.498c2.232-0.225,2.877,0.506,2.846,2.605
			c-0.076,5.102-0.02,10.201-0.012,15.303c-0.639,3.055-3.062,3.004-5.23,2.633c-2.765-0.473-3.713-2.773-3.73-5.281
			C638.602,651.116,638.756,645.528,638.834,639.943z"/>
		<path fill="#FC8119" d="M485.573,120.818c-0.001,1.996,0.071,3.994-0.017,5.984c-0.125,2.824-1.972,3.931-4.504,3.881
			c-2.559-0.049-4.299-1.391-4.41-4.084c-0.147-3.611-0.176-7.234-0.095-10.852c0.071-3.132,2.236-4.252,4.966-4.372
			c2.797-0.122,4.037,1.589,4.15,4.202c0.078,1.744,0.018,3.492,0.018,5.238C485.646,120.818,485.609,120.818,485.573,120.818z"/>
		<path fill="#FC8119" d="M567.708,288.557c-7.517-8.166-9.651-20.801-4.69-27.178C567.65,269.887,568.949,278.746,567.708,288.557z
			"/>
		<path fill="#F5C469" d="M325.871,366.534c4.778-1.345,7.415-5.9,11.994-8.206c0.3,3.077-0.559,5.607-1.389,8.123
			c-0.593,1.811-0.222,2.883,1.853,2.961c-5.554,4.978-9.625,5.455-17.531,1.663C322.603,369.459,324.237,367.997,325.871,366.534z"
			/>
		<path fill="#FC8119" d="M543.515,354.641c-4.198-0.43-10.766-6.586-11.313-10.721c-0.41-3.107,2.46-2.999,4.162-3.828
			c1.421-0.688,2.597-0.516,3.362,1.564c1.337,3.629,2.53,7.401,5.063,10.489c0.469,0.57,1.025,1.222,0.696,2.003
			C545.098,355.063,544.23,354.695,543.515,354.641z"/>
		<path fill="#F5C469" d="M642.514,180.338c3.257-0.073,5.661,2.23,5.783,5.533c0.115,3.176-2.692,6.262-5.65,6.209
			c-3.171-0.053-5.549-2.557-5.552-5.839C637.093,182.896,639.374,180.412,642.514,180.338z"/>
		<path fill="#F5C469" d="M314.204,130.466c0.006-3.721,2.5-6.466,5.828-6.412c3.166,0.054,5.659,2.833,5.609,6.253
			c-0.054,3.324-2.724,6.012-5.904,5.943C316.533,136.18,314.199,133.741,314.204,130.466z"/>
		<path fill="#F5C469" d="M291.862,357.461c3.229-0.527,3.889-4.406,6.98-5.292c0.564,4.134-2.164,7.432-2.784,11.23
			c-4.369,3.727-6.272,4.332-14.64,4.345c3.859-2.713,6.153-5.931,9.089-8.537c0.712-0.396,1.28-0.914,1.496-1.736L291.862,357.461z
			"/>
		<path fill="#FC8119" d="M527.332,351.965c0.599,2.545-0.136,2.671-1.416,2.441c-2.843-0.504-5.102-2.014-6.842-4.173
			c-1.218-1.511-2.752-3.499-1.25-5.358c1.403-1.732,3.992-1.701,6.102-2.294c0.653-0.183,1.18,0.533,1.299,1.118
			C525.867,346.828,526.317,350.002,527.332,351.965z"/>
		<path fill="#F5C469" d="M663.293,716.119c-0.034-2.822,2.384-5.34,5.157-5.166c3.094,0.189,4.676,1.918,4.673,5.073
			c-0.003,3.002-2.139,5.292-4.979,5.255C665.605,721.248,663.324,718.818,663.293,716.119z"/>
		<path fill="#F5C469" d="M663.139,109.385c-0.088-2.848,2.213-5.424,4.93-5.521c2.81-0.105,5.086,2.208,5.107,5.189
			c0.021,2.898-2.188,5.209-5.063,5.305C665.55,114.439,663.22,112.11,663.139,109.385z"/>
		<path fill="#F5C469" d="M308.287,360.928c4.399-0.703,6.182-4.909,9.76-7.564c0.138,5.654-3.262,9.269-5.506,13.351
			c-3.193,2.622-6.832,1.013-10.901,1.459C303.678,364.998,306.993,363.851,308.287,360.928z"/>
		<path fill="#F5C469" d="M642.803,214.949c2.354-0.235,3.852,0.885,4.712,3c-0.886-0.013-1.424,0.389-1.536,1.292
			c-3.562-0.466-2.738,2.687-3.613,4.415c-0.312,0.607-0.202,1.339,0.613,1.356c1.83,0.047,2.693-1.476,3.73-2.62
			c1.049-1.155-0.413-1.974-0.561-2.98c0.867-0.104,1.256-0.651,1.363-1.462c1.369,3.977,0.18,6.979-3.223,8.142
			c-2.371,0.807-5.698-0.827-6.787-3.328c-1.318-3.039,0.114-5.994,3.715-7.641c-0.258,1.838-2.594,2.434-2.636,4.392
			c-0.021,0.932-0.35,2.487,1.032,2.235c2.199-0.406,2.172-3.362,4.217-4.414C644.702,216.887,643.274,215.738,642.803,214.949z"/>
		<path fill="#F5C469" d="M175.736,251.187c-0.113,5.792,0.386,10.851,1.521,15.806c0.685,2.976-1.695,4.348-2.534,6.815
			C170.604,266.922,170.941,257.653,175.736,251.187z"/>
		<path fill="#FC8119" d="M672.416,135.436c-0.271,2.188-0.976,4.127-3.717,4.165c-2.561,0.038-3.99-1.445-4.051-3.891
			c-0.063-2.403,1.285-4.026,3.766-4.265C671.16,131.183,672.052,133.033,672.416,135.436z"/>
		<path fill="#F5C469" d="M482.627,672.976c1.223-1.655,1.57-3.479,1.566-5.548c-0.071-25.018-0.064-50.037-0.066-75.055
			c-0.001-1.351-0.273-2.75,0.491-4.016c0.035,26.766,0.091,53.529,0.06,80.293C484.677,670.256,485.678,672.673,482.627,672.976z"
			/>
		<path fill="#F5C469" d="M420.85,718.029c0.228-2.465,1.065-4.307,3.69-4.482c2.295-0.154,4.731,2.293,4.435,4.535
			c-0.314,2.379-1.936,3.865-4.265,3.9C422.215,722.02,421.039,720.298,420.85,718.029z"/>
		<path fill="#F5C469" d="M595.16,112.621c-0.234,2.922-1.753,4.377-4.32,4.502c-2.642,0.133-3.895-1.597-3.904-3.99
			c-0.015-2.633,1.605-4.211,4.206-4.289C593.708,108.766,594.811,110.514,595.16,112.621z"/>
		<path fill="#F5C469" d="M297.47,205.839c2.127,0,3.986-0.192,3.644,2.333c-0.277,2.029,0.353,4.7-2.331,5.481
			c-1.684,0.49-8.322-4.013-7.799-4.926C292.462,206.146,295.434,206.345,297.47,205.839z"/>
		<path fill="#FC8119" d="M323.484,96.789c-0.038,2.457-1.068,3.949-3.472,4.091c-2.396,0.142-3.766-1.196-3.786-3.502
			c-0.019-2.162,1-3.931,3.444-3.989C321.934,93.337,323.419,94.45,323.484,96.789z"/>
		<path fill="#FC8119" d="M643.593,691.535c1.962,0.477,3.858,1.235,3.85,3.688c-0.011,2.266-1.419,3.787-3.657,3.98
			c-2.541,0.217-3.491-1.684-3.604-3.802C640.063,693.259,641.452,692.045,643.593,691.535z"/>
		<path fill="#F5C469" d="M515.781,93.403c2.539,0.106,3.978,1.579,3.979,3.991c-0.001,2.355-1.322,4.133-3.881,4.113
			c-2.446-0.019-3.963-1.469-3.969-4.003C511.906,95.035,513.186,93.566,515.781,93.403z"/>
		<path fill="#F5C469" d="M264.329,245.281c2.659,0.193,7.641,3.829,7.018,5.313c-1.027,2.452-3.972,3.64-5.806,3.111
			c-3.333-0.962-1.345-4.845-2.418-7.261C262.702,245.503,263.532,245.239,264.329,245.281z"/>
		<path fill="#F5C469" d="M259.431,226.503c0-0.131-0.123-0.757,0.02-0.822c2.576-1.198,4.5,0.541,6.411,1.709
			c1.088,0.667,2.763,1.843,0.847,3.46c-1.13,0.955-2.371,1.784-3.593,2.625c-1.208,0.831-2.048,0.625-2.37-0.932
			C260.345,230.604,259.907,228.672,259.431,226.503z"/>
		<path fill="#F5C469" d="M512.157,723.49c0.337-2.25,0.979-4.083,3.635-3.975c2.558,0.104,4.052,1.672,3.987,4.021
			c-0.07,2.467-2.049,3.746-4.361,3.613C513.361,727.029,512.089,725.623,512.157,723.49z M515.912,720.682
			c-1.559,0.115-1.826,1.154-1.861,2.33c-0.033,1.271,0.06,2.736,1.691,2.688c1.174-0.034,2.459-0.808,2.53-2.235
			C518.349,721.905,517.167,721.152,515.912,720.682z"/>
		<path fill="#F5C469" d="M289.11,240.928c1.124,0.799,3.684-1.202,3.632,1.482c-0.041,1.981-0.294,4.492-2.611,5.602
			c-0.705,0.339-6.021-4.571-5.761-5.372C285.167,240.204,287.435,241.501,289.11,240.928z"/>
		<path fill="#F5C469" d="M257.276,214.623c-1.976-1.814-1.778-4.447-2.55-6.652c-0.398-1.136,0.396-1.649,1.459-1.348
			c2.518,0.719,6.196,0.682,6.486,3.73C262.886,212.631,259.63,213.539,257.276,214.623z"/>
		<path fill="#F5C469" d="M294.671,223.764c1.164,0.613,3.823-1.104,3.285,1.892c-0.33,1.818,0.184,4.417-2.398,5.181
			c-1.083,0.318-5.758-4.029-5.472-5.069C290.746,223.362,293.029,224.266,294.671,223.764z"/>
		<path fill="#F5C469" d="M251.146,189.018c2.358,0.512,5.451,0.563,5.491,3.394c0.028,2.134-2.719,3.218-4.618,4.295
			c-0.491,0.28-3.152-5.529-3-6.654C249.227,188.522,250.298,188.898,251.146,189.018z"/>
		<path fill="#FC8119" d="M503.895,350.402c1.803-1.151,3.146-3.908,5.279-2.418c0.947,0.659,1.268,4.357,0.657,4.738
			C507.399,354.249,506.386,350.365,503.895,350.402z"/>
		<path fill="#F5C469" d="M265.487,273.929c-0.388-2.662,0.979-5.13,0.125-7.977c3.337,0.343,5.037,2.343,6.537,4.467
			c0.874,1.242,0.161,2.023-1.241,2.299C269.143,273.072,267.392,273.5,265.487,273.929z"/>
		<path fill="#F5C469" d="M279.308,259.097c3.197-0.148,6.077-1.799,7.533,0.741c0.673,1.176-0.751,4.833-2.391,4.862
			C281.851,264.746,281.087,261.623,279.308,259.097z"/>
		<path fill="#F5C469" d="M445.01,97.552c-1.041-0.169-1.097-1.217-1.646-1.817c-1.715-1.877-4.93-1.183-5.854,1.256
			c-0.291,0.77-0.122,1.793-1.34,1.873c-0.224-3.702,1.299-6.135,4.146-6.106C443.295,92.783,445.357,94.082,445.01,97.552z"/>
		<path fill="#F5C469" d="M428.432,141.234c-10.688-0.003-21.375-0.008-32.045-0.015
			C407.079,140.648,417.758,140.045,428.432,141.234z"/>
		<path fill="#F5C469" d="M287.526,675.527c-2.495,5.949-0.998,12.211-1.405,18.319c-0.158,2.343-0.084,4.7-0.118,7.052
			c-1.489-6.331-0.184-12.764-0.683-19.133C285.136,679.422,285.089,677.002,287.526,675.527z"/>
		<path fill="#F5C469" d="M583.27,293.428c0,0-0.002,0.115-0.003,0.11C583.264,293.535,583.27,293.428,583.27,293.428z"/>
		<polygon fill="#FC8119" points="373.254,679.32 373.218,679.318 373.12,679.424 		"/>
		<path fill="#F5C469" d="M319.214,185.038c0.646,0.028,1.107,0.296,1.256,0.968C319.82,185.983,319.434,185.616,319.214,185.038z"
			/>
		<path fill="#FC8119" d="M292.003,357.471c-0.216,0.822-0.784,1.34-1.496,1.736C290.357,358.066,290.077,356.82,292.003,357.471z"
			/>
		<path fill="#013F54" d="M649.128,352.533c0.001-1.874-0.061-3.752,0.017-5.623c0.139-3.564,2.311-6.039,5.543-6.434
			c3.406-0.408,6.664,1.579,7.184,5.068c0.715,4.805,1.008,9.726,0.027,14.534c-0.754,3.684-3.048,5.11-6.755,4.789
			c-3.642-0.315-5.729-2.336-5.954-5.968c-0.129-2.117-0.023-4.246-0.024-6.371C649.152,352.532,649.14,352.531,649.128,352.533z"/>
		<path fill="#013F54" d="M223.4,315.215c-1.727,0.922-3.413,1.923-5.185,2.75c-10.84,5.061-22.139-1.77-26.254-11.669
			c-3.862-9.288,1.941-21.926,11.889-25.01c8.666-2.689,16.47-0.399,22.456,6.813C232.347,299.879,231.775,305.215,223.4,315.215z
			 M214.479,300.74c-0.027-2.776-2.185-4.96-4.905-4.967c-3.127-0.011-4.766,1.847-4.729,5.298c0.027,3.097,1.696,4.479,4.653,4.516
			C212.339,305.621,214.507,303.488,214.479,300.74z"/>
		<path fill="#013F54" d="M219.368,198.226c1.996-0.11,3.804,0.735,4.734,2.704c0.997,2.107,0.549,4.188-1.252,5.748
			c-1.685,1.459-3.514,2.746-5.244,4.155c-0.837,0.683-2.331,1.138-2.071,2.426c0.833,4.115-2.457,3.327-4.421,3.631
			c-2.546,0.394-4.633-0.599-5.475-3.381c-0.63-2.088,0.162-3.957,0.779-5.831C208.101,202.557,214.096,198.159,219.368,198.226z"/>
		<path fill="#F5C469" d="M223.4,315.215c8.375-10,8.949-15.339,2.908-27.114c4.858,2.554,6.016,7.298,6.708,12.063
			c0.743,5.089-0.972,9.744-3.523,14.142C227.758,317.29,225.676,316.56,223.4,315.215z"/>
		<path fill="#F5C469" d="M401.559,544.846l0.023-0.021L401.559,544.846z"/>
		<path fill="#013F54" d="M376.575,341.55c0.04,0.069,0.08,0.137,0.117,0.201c-0.046-0.024-0.092-0.05-0.139-0.067
			C376.549,341.691,376.575,341.55,376.575,341.55z"/>
		<path fill="#F5C469" d="M341.716,639.207c0.33,0.592,0.131,0.687-0.421,0.446C341.43,639.502,341.572,639.353,341.716,639.207z"/>
		<path fill="#FC8119" d="M646.148,219.412c0.146,1.009,1.608,1.826,0.561,2.98c-1.037,1.146-1.9,2.667-3.73,2.62
			c-0.816-0.019-0.923-0.749-0.613-1.356c0.875-1.729,0.054-4.881,3.613-4.415L646.148,219.412z"/>
		<path fill="#FC8119" d="M642.803,214.949c0.474,0.79,1.898,1.938,1.029,2.385c-2.043,1.056-2.017,4.012-4.217,4.417
			c-1.382,0.25-1.055-1.306-1.033-2.235c0.045-1.959,2.379-2.556,2.639-4.392C641.744,215.065,642.271,215.008,642.803,214.949z"/>
		<path fill="#FC8119" d="M645.977,219.242c0.113-0.904,0.652-1.304,1.533-1.293h0.002c-0.107,0.812-0.496,1.359-1.363,1.463
			L645.977,219.242z"/>
		<path fill="#FC8119" d="M515.912,720.682c1.254,0.472,2.439,1.223,2.36,2.785c-0.071,1.43-1.356,2.199-2.53,2.234
			c-1.635,0.048-1.728-1.418-1.691-2.689C514.086,721.836,514.354,720.799,515.912,720.682z"/>
		<path fill="#F5C469" d="M214.479,300.74c0.028,2.748-2.141,4.881-4.98,4.847c-2.957-0.034-4.626-1.419-4.653-4.516
			c-0.034-3.454,1.602-5.309,4.729-5.298C212.295,295.779,214.452,297.964,214.479,300.74z"/>
	</g>
</g>
</svg>
