<?xml version="1.0" encoding="utf-8"?>
<!-- Generator: Adobe Illustrator 16.0.3, SVG Export Plug-In . SVG Version: 6.00 Build 0)  -->
<!DOCTYPE svg PUBLIC "-//W3C//DTD SVG 1.1//EN" "http://www.w3.org/Graphics/SVG/1.1/DTD/svg11.dtd">
<svg version="1.1" id="Layer_1" xmlns="http://www.w3.org/2000/svg" xmlns:xlink="http://www.w3.org/1999/xlink" x="0px" y="0px"
	 width="822.047px" height="822.047px" viewBox="0 0 822.047 822.047" enable-background="new 0 0 822.047 822.047"
	 xml:space="preserve">
<rect fill="#013F54" width="822.047" height="822.047"/>
<g>
	<g>
		<path fill="#FC8119" d="M283.999,175.762c-0.193,0.688-0.386,1.379-0.618,2.208c2.533,0.175,4.145-1.771,6.252-2.356
			c0.816-0.225,1.659-0.912,2.37-0.017c0.566,0.711-0.051,1.435-0.394,2.054c-1.88,3.389-3.776,6.768-5.71,10.122
			c-26.544,46.011-53.097,92.016-79.64,138.027c-1.125,1.947-2.346,3.854-3.29,5.889c-1.861,3.992-0.927,7.14,2.464,8.94
			c3.331,1.77,5.843,0.886,8.232-3.252c8.38-14.501,16.646-29.066,25.011-43.576c23.973-41.576,48.084-83.074,71.833-124.781
			c3.416-5.997,7.563-9.677,14.105-11.889c18.77-6.354,37.716-11.836,57.413-14.412c16.064-2.104,32.186-2.791,48.352-1.468
			c3.927,0.323,3.952,0.663,1.93,4.129c-10.326,17.702-20.656,35.402-30.951,53.12c-0.747,1.283-1.448,2.662-1.801,4.087
			c-0.846,3.417,0.898,6.889,4.014,7.88c3.291,1.048,5.895-0.232,7.6-3.114c3.182-5.378,6.236-10.829,9.359-16.24
			c8.061-13.964,16.293-27.831,24.092-41.938c2.455-4.439,4.663-7.804,10.338-5.371c-1.68,1.201-1.836,3.3-2.797,4.934
			c-7.199,12.242-14.273,24.559-21.381,36.854c-0.561,0.971-1.172,1.925-1.607,2.952c-1.512,3.562,0.338,6.268,4.177,6.162
			c0.868-0.023,1.735-0.105,2.606-0.157c-3.02,5.401-6.025,10.813-9.066,16.203c-2.18,3.854-2.326,7.471-0.111,9.629
			c2.917,2.84,6.058,2.108,9.176,0.271c1.298-0.712,1.76-2.061,2.434-3.23c12.509-21.668,25.023-43.332,37.471-65.033
			c1.03-1.795,2.244-3.199,4.127-4.021c6.289,1.375,12.36,3.278,18.393,5.651c5.709,2.248,11.508,4.325,17.219,6.637
			c14.372,5.824,27.775,13.434,40.951,21.52c6.663,4.09,13.141,8.391,18.979,13.609c-5.297,10.814-13.504,17.478-25.719,19.443
			c-10.316,1.659-20.635,1.778-30.973,1.449c-15.727-0.498-31.526-0.929-47.061,1.287c-18.897,2.695-37.496,7.163-54.015,17.516
			c-2.224,1.39-3.628,1.1-4.945-0.968c-2.306-3.62-5.487-6.475-8.472-9.478c-9.187-9.242-15.561-20.066-18.688-32.732
			c-2.286-9.258-6.33-17.074-16.054-20.468c0.318-9.342-9.55-14.249-18.354-13.484c-13.206,1.146-21.844,10.053-25.761,22.286
			c-5.027,15.688,0.587,28.902,10.075,41.115c5.718,7.356,11.999,14.273,17.076,22.123c0.332,0.512,0.532,1.107,0.794,1.664
			c-17.189,11.101-32.357,24.533-46.017,39.73c-7.196,8.003-13.428,16.687-19.327,25.684c-7.041,10.744-11.896,22.397-16.028,34.459
			c-1.473,4.296-1.329,9.419-5.179,12.605c-5.837,4.836-12.454,8.075-20.08,9.322c-8.598,1.407-17.182-0.062-25.786,0.459
			c-19.694,1.193-34.75,18.473-31.405,38.087c1.285,7.534,2.276,16.047,12.167,18.218c0.522,0.115,0.929,0.746,1.393,1.135
			c-0.021,0.473-0.04,0.943-0.059,1.408c0.001-0.004-0.059,0.095-0.059,0.095c-0.268,4.224-1.591,8.116-4.167,11.44
			c-3.831,4.947-5.625,10.525-5.521,16.688c0.101,5.994-2.595,10.048-8.142,12.002c-2.356,0.827-2.47,1.846-1.555,3.83
			c5.201,11.263,14.134,17.637,26.25,18.963c13.314,1.455,23.711-4.206,31.298-14.999c8.424-11.985,9.847-25.507,8.233-39.637
			c-0.164-1.444-0.758-2.909-0.213-4.401c0.793-1.004,1.774-1.263,2.985-0.817c2.802,1.034,5.661,1.935,8.417,3.079
			c10.298,4.287,20.965,7.285,32.018,8.656c6.794,0.842,6.678,0.59,8.24,7.21c0.628,2.657-0.092,3.896-2.486,4.835
			c-2.785,1.088-5.41,2.506-7.65,4.597c-12.848,11.959-16.37,27.578-9.938,43.994c0.846,2.159,2.459,4.479,1.44,6.769
			c-2.116,4.772-0.628,8.686,2.096,12.514c-10.072,8.719-12.035,17.71-5.218,28.341c5.556,8.671,14.385,11.972,24.4,11.443
			c13.01-0.685,21.381-8.198,26.856-19.532c-1.82,3.322,0.276,4.639,2.916,5.867c2.669,1.244,4.737,1.021,6.375-1.643
			c2.172-3.53,2.676-7.545,3.117-11.469c0.399-3.564,1.616-3.264,3.897-1.623c4.557,3.266,9.033,6.674,13.783,9.635
			c12.188,7.599,24.738,14.545,38.027,20.07c1.877,0.776,3.673,1.513,1.797,3.974c-8.085,10.612-15.976,21.366-23.271,32.55
			c-8.4,12.881-14.881,26.193-12.438,42.361c0.592,3.931,2.412,5.74,5.635,6.961c2.31,0.876,4.89,1.162,6.678,3.146l-0.179-0.197
			c0,0,0.198-0.177,0.196-0.175c-0.203,0.656,0.063,1.119,0.607,1.467c1.641,2.461,3.125,5.048,4.96,7.359
			c4.237,5.348,10.367,6.055,15.737,1.914c0.743-0.568,1.317-1.004,2.302-0.803c11.174,2.302,20.072-2.453,28.346-9.154
			c0.382-0.308,0.854-0.511,1.625-0.961c-0.947,5.168-2.914,9.928-2.22,15.071c0.104,0.767-0.808,1.78-1.436,2.522
			c-2.264,2.664-3.216,5.863-2.38,9.083c0.874,3.378-0.928,3.577-3.197,3.637c-10.524,0.274-21.034-0.003-31.541-0.675
			c-16.937-1.079-33.602-3.98-49.875-8.618c-17.633-5.028-34.894-11.207-51.064-20.015c-9.237-5.342-18.491-10.688-27.745-16.035
			c-9.766-5.869-18.588-12.997-27.196-20.409c-7.077-6.095-13.99-12.349-20.372-19.197c-16.625-17.832-30.691-37.389-41.417-59.364
			c-7.981-16.356-14.455-33.227-19.337-50.747c-6.42-23.039-9.839-46.532-10.942-70.391c-0.113-2.478-0.17-4.956-0.199-7.437
			c-0.057-4.715,1.089-8.991,3.649-13.096c4.36-6.992,8.313-14.244,12.388-21.414c3.139-5.525,1.414-9.981-4.73-11.233
			c-2.752-0.563-2.67-1.665-2.346-3.817c2.059-13.731,6.102-26.882,10.796-39.93c7.315-20.334,17.044-39.416,29.141-57.233
			c7.263-10.696,15.289-20.882,24.117-30.408c6.005-6.481,12.069-12.86,19.161-18.157c0.281,0.167,0.56,0.334,0.842,0.502
			c-1.12,1.939-2.238,3.877-3.358,5.816c-15.936,27.595-31.873,55.189-47.798,82.793c-0.748,1.296-1.563,2.587-2.091,3.974
			c-1.229,3.209,0.133,6.761,3.057,8.36c2.881,1.576,6.583,0.697,8.614-2.124c0.726-1.007,1.295-2.134,1.92-3.216
			c22.767-39.383,45.531-78.768,68.308-118.143c0.748-1.293,1.629-2.507,2.442-3.746c2.03,0.111,2.104-1.797,2.847-2.912
			c3.177-4.769,5.231-10.405,10.894-13.801C278.709,174.712,282.457,174.114,283.999,175.762z M175.57,342.627
			c-0.013-0.006-0.021-0.012-0.032-0.018c1.063-1.84,2.218-3.631,3.166-5.528c1.622-3.258,0.823-6.05-2.172-8.146
			c-3.049-2.133-5.751-2.042-8.245,0.772c-3.253,3.676-5.46,8.081-7.245,12.599c-1.294,3.28,0.532,6.633,3.689,7.979
			c2.997,1.277,6.112,0.222,8.018-2.799C173.748,345.906,174.634,344.249,175.57,342.627z"/>
		<path fill="#FC8119" d="M627.231,248.561c18.483,25.737,32.027,53.859,41.088,84.219c6.015,20.152,9.216,40.703,9.821,61.684
			c0.759,26.21-1.821,52.065-7.871,77.612c-7.679,32.435-21.066,62.328-39.654,89.878c-11.26,16.689-24.488,31.764-39.252,45.512
			c-4.832,4.502-9.902,8.678-14.931,12.928c-0.798,0.673-1.637,1.118-2.912,1.302c-0.212-2.599,0.634-5.041,0.897-7.536
			c0.922-8.731-0.864-17-4.365-24.963c-0.244-0.552-0.766-1.006-0.423-1.697c0.517-2.567,1.249-5.111,1.522-7.705
			c1.78-16.965-3.951-32.073-12.772-45.919c-10.015-15.72-23.817-27.747-40.049-36.96c-7.606-4.318-15.226-8.631-22.696-13.178
			c-7.117-4.33-12.305-10.561-15.937-17.988c-6.476-13.246-5.65-27.193-3.175-41.106c2.299-12.921,5.915-25.507,10.16-37.958
			c7.26-21.289,17.287-40.887,32.715-57.469c7.965-8.557,16.934-15.774,27.353-21.234c11.925-6.249,24.35-11.45,36.192-17.902
			c14.051-7.657,26.051-17.465,35.569-30.334C621.324,255.947,624.32,252.285,627.231,248.561z"/>
	</g>
	<g>
		<path fill="#FC8119" d="M444.783,478.26c0.018,0.12,0.086,0.263,0.046,0.362c-1.781,4.587-1.787,4.501,3.284,4.313
			c1.664-0.063,3.461-0.58,5.059,0.473c1.757,1.105,1.544,2.219,0.121,3.49c-1.977,1.764-3.984,3.525-5.263,6.341
			c5.12,0.292,9.68-2.334,14.491-1.11c-0.041,1.342-1.295,1.719-2.021,2.502c-0.668,0.723-1.457,1.336-2.193,1.996
			c3.933,0.166,7.879,0.21,11.797,0.553c1.381,0.121,3.03,0.091,4.053,1.461c-3.988,2.414-8.737,3.842-11.446,8.81
			c4.428-0.509,8.075-3.263,12.235-1.671c-0.672,0.88-1.342,1.758-2.161,2.831c4.61,1.114,9.466-0.55,13.987,1.14
			c-2.438,2.982-6.448,4.475-8.025,8.335c3.12,0.778,5.63-2.251,8.69-1.093c5.343,1.01,11.087-0.539,16.102,2.551
			c-3.289,0.694-6.53,1.502-9.646,3.821c14.017,1.099,20.065,2.966,25.135,7.802c-3.145,0.25-6.06,0.432-8.959,0.741
			c-1.13,0.124-2.942-0.325-2.96,1.39c-0.012,1.126,1.586,1.387,2.693,1.601c7.83,1.513,14.315,5.669,20.471,10.452
			c0.963,0.746,2.461,1.575,1.994,2.876c-0.601,1.67-2.479,0.833-3.645,0.724c-2.59-0.24-5.063-0.473-7.803,1.166
			c1.174,0.564,1.962,0.896,2.701,1.314c8.099,4.594,16.774,8.494,20.984,17.713c0.943,2.065,2.498,3.709,4.064,5.318
			c-2.088,1.249-4.219,2.351-6.786,1.979c-1.509,1.23-0.786,2.213,0.139,3.468c1.564,2.124,3.673,3.673,5.428,5.571
			c14.913,16.149,8.954,41.222-11.792,48.648c-3.843,1.377-5.504,3.357-6.6,7.027c-2.555,8.543-5.124,9.566-13.359,6.512
			c-2.18-0.807-4.224-2.461-6.842-2.036c0.022,1.407,0.947,1.945,1.621,2.653c8.674,9.148,8.785,11.781,0.906,21.68
			c-0.309,0.39-0.651,0.758-0.994,1.119c-3.362,3.537-3.67,3.496-6.776-0.322c-3.677-4.518-7.921-8.373-13.173-11.089
			c3.129,4.239,5.656,8.782,8.465,13.148c1.755,2.731,2.217,9.521,0.209,12.028c-6.786,8.477-14.889,14.445-26.552,12.983
			c-1.209-0.148-2.832-0.204-2.771,1.021c0.249,4.865-3.646,4.532-6.443,5.37c-4.102,1.229-11.936-1.339-14.082-4.353
			c0.157-7.002,2.031-13.73,3.387-20.529c2.647-13.287,6.181-26.402,10.815-39.08c4.558-12.462,9.089-25.021,15.434-36.777
			c2.364-4.377,4.325-8.992,6.638-13.365c4.768-9.013,10.252-17.663,17.87-24.67c2.735-2.517,4.525-5.676,5.995-8.951
			c1.754-3.913-0.496-7.888-5.048-9.658c-1.968-0.764-3.937-1.535-5.901-2.307c-0.583-1.4-0.01-3.684-2.162-3.89
			c-1.764-0.169-2.144,1.833-2.961,3.021c-2.193,3.189-4.35,6.418-7.125,9.141c-8.688,8.528-19.094,14.834-28.777,22.061
			c-10.195,7.611-20.351,15.247-29.603,24.004c-9.678,9.164-19.23,18.463-27.999,28.514c-1.737,1.994-4.092,4.032-3.343,7.31
			c-1.87,2.639-3.724,5.289-5.628,7.905c-0.409,0.561-0.844,1.391-1.76,0.994c-0.814-0.35-0.816-1.298-0.853-1.959
			c-0.354-6.416,0.422-12.738,3.358-18.467c7.422-14.481,16.732-27.771,26.309-40.891c7.354-10.076,15.284-19.649,24.031-28.537
			c8.451-8.592,18.143-14.988,30.424-16.484c3.668-0.447,7.383-0.502,11.037,0.352c0.951,0.221,1.968,0.746,2.791-0.197
			c0.935-1.068,0.307-2.209-0.196-3.146c-1.048-1.953-2.292-3.683-4.238-5.039c-10.272-7.157-21.237-6.457-32.559-3.386
			c-5.612,1.522-10.185,5.034-15.994,8.063c1.425-10,8.315-15.212,14.645-20.917c-4.718,0.174-14.354,4.845-18.692,8.891
			c-3.923,3.658-7.6,7.514-10.65,11.948c-0.439,0.641-0.826,1.837-1.912,1.356c-0.852-0.374-0.855-1.404-0.903-2.311
			c-0.159-3.041,0.228-5.982,1.656-8.691c1.513-2.868,3.235-5.629,4.699-8.521c1.431-2.825,4.397-4.362,6.276-7.741
			c-11.88,3.1-18.564,11.791-26.244,20.727c-1.533-13.652,6.485-21.607,14.594-29.703c-4.145,0.057-10.859,3.209-14.402,6.426
			c-3.971,3.603-8.049,7.074-10.746,11.844c-0.516,0.912-1.309,2.203-2.592,1.62c-1.33-0.604-0.8-2.104-0.383-2.997
			c3.051-6.551,4.787-13.75,8.844-19.76c2.174-3.225,5.65-5.502,8.908-7.766c-0.031-0.039-0.059-0.084-0.089-0.129
			c0.003,0.076,0.001,0.155,0.001,0.232c-3.623-0.436-6.698,1.378-9.918,2.511c-1.693,0.597-3.159,0.618-3.582-1.249
			c-1.377-6.088-5.82-9.92-9.944-13.996c-1.81-1.789-4.008-4.021-3.321-6.271c0.769-2.506,4.068-1.668,6.284-1.753
			c3.956-0.151,7.918,0.489,11.89-0.003c5.163-0.641,9.722-2.607,13.918-5.677c2.385-1.744,1.626-2.726-0.521-3.487
			c-10.337-3.656-20.951-5.318-31.925-4.213c-4.019-2.744-8.093-1.932-11.874,0.258c-4.345,2.517-6.392,6.693-6.184,11.611
			c0.363,8.563,3.58,16.152,8.906,22.813c3.883,4.856,6.953,9.835,4.24,16.36c-0.694-2.338-1.083-4.767-2.456-6.885
			c-0.608-0.938-0.913-2.283-2.129-2.408c-1.514-0.152-1.407,1.499-1.902,2.38c-2.46,4.391-3.829,5.274-8.899,5.134
			c4.292-5.852,4.767-12.111,1.979-18.393c-1.388-3.139-3.735-5.848-5.542-8.815c-9.314-15.279-4.016-27.589,8.827-36.75
			c7.362-5.251,15.946-8.236,24.875-9.382c8.239-1.059,16.393,0.322,23.939,4.037c3.461,1.705,6.713,3.826,10.792,6.181
			c-0.364-4.632-2.85-7.388-5.135-9.79c-9.711-10.229-21.801-14.052-35.675-11.906c-11.234,1.737-21.386,6.336-30.328,13.237
			c-5.164,3.985-11.787,5.294-16.578,9.835c-1.107,1.051-1.921,0.355-1.908-1.309c0.048-6.197,3.926-10.094,8.351-13.387
			c8.32-6.196,17.734-10.137,27.933-12.295c-3.505-1.23-12.558-0.601-18.365,0.682c-6.542,1.445-12.75,3.476-18.382,7.201
			c-1.661,1.1-2.209,0.686-2.478-1.688c-0.827-7.288,3.115-10.896,9.112-13.162c4.86-1.838,9.752-3.619,14.719-5.137
			c4.954-1.514,10.074-2.379,15.712-2.988c-3.223-1.994-6.562-1.654-9.611-1.944c-8.536-0.805-17.042-0.456-25.213,2.608
			c-2.108,0.789-2.476,0.238-2.258-1.988c0.781-7.963,3.99-10.949,12.612-11.311c7.621-0.319,15.101,0.844,22.479,2.488
			c13.523,3.012,27.077,3.941,40.644,0.746c9.961-2.346,19.393-6.048,26.614-13.748c3.358-3.582,6.209-7.533,5.937-12.862
			c3.557-6.946,4.563-12.325,2.887-15.629c-10.105,13.673-22.579,24.218-38.895,29.73c-0.293,0.098-0.465,0.558-0.693,0.848
			c-14.664,1.971-28.807-0.342-42.75-4.89c-8.037-2.62-15.282-6.73-22.471-11.006c-9.704-5.768-17.711-13.207-22.723-23.503
			c-3.829-7.866-4.613-15.892-0.967-24.082c4.62-10.384,12.236-18.329,20.68-25.64c8.915-7.721,18.112-15.081,27.318-22.443
			c2.107-1.686,3.896-3.901,5.423-6.151c3.163-4.65,2.659-9.397,0.292-14.385c-5.462-11.499-13.434-21.394-20.085-32.126
			c-4.033-6.51-7.574-13.026-7.291-21.021c0.199-5.672,2.505-10.182,7.224-14.756c0.22,7.446,3.588,12.983,6.089,18.85
			c0.431,1.014,0.534,1.942,1.973,1.327c4.072-1.742,4.927,0.468,5.683,4.023c2.819,13.268,10.331,23.982,19.201,33.884
			c1.319,1.474,2.566,3.012,3.851,4.522c-1.357,0.53-1.354,0.528-0.539,2.001c2.846,5.131,5.936,10.175,6.4,16.237
			c0.377,4.982-1.053,10.345-5.486,11.777c-5.596,1.81-6.818,4.759-7.942,9.909c-1.485,6.786-6.347,12.014-11.618,16.615
			c-8.422,7.355-18.289,12.041-28.688,15.783c-0.871,0.313-2.017,0.299-2.307,1.771c2.139,0.581,4.266,1.154,6.391,1.73
			c4.795,2.89,10.121,3.38,15.495,3.007c3.29-0.229,3.636,1.153,2.908,3.712c-0.642,2.263-1.297,4.52-2.126,7.396
			c4.917-2.711,7.596-6.604,9.769-10.903c1.706-3.376,3.417-6.473,7.564-7.619c2.024-0.558,2.199,0.031,2.771,1.564
			c1.721,4.612,0.704,9.275,0.54,13.922c-0.059,1.608-0.396,3.206-0.602,4.78c4.509-3.435,5.003-8.054,7.364-14.359
			c1.027-2.739,1.807-5.709,1.429-8.786c-0.255-2.102,0.604-3.476,2.888-3.305c2.116,0.159,4.713-1.079,5.602,2.522
			c2.011,8.146,1.587,16.25,0.26,24.395c-0.119,0.732-0.262,1.461-0.192,2.258c4.226-6.592,7.864-13.39,8.091-21.509
			c0.035-1.229,0.098-2.532,0.528-3.656c0.612-1.594-2.295-4.536,1.749-4.799c4.488-0.289,6.818,1.291,7.769,4.672
			c1.435,5.106,0.04,10.089-0.324,15.118c-0.082,1.179-0.778,2.336-0.037,3.821c3.72-5.155,6.546-10.519,8.022-16.499
			c0.683-2.771,1.432-3.64,4.484-2.204c8.621,4.058,15.516,10.245,22.174,17.212c0.019-3.014,0.019-3.014-4.764-9.87
			c5.117,1.618,9.046,4.61,14.043,7.282c-1.793-9.699-6.377-16.799-12.838-23.075c-6.38-6.199-14.346-9.838-21.891-14.339
			c12.391-8.918,42.607-4.725,59.379,18.512c-2.598-9.653-6.476-17.57-12.777-24.387c-5.314-5.748-11.324-10.355-18.389-13.658
			c-0.874-0.408-2.22-0.775-2.184-1.809c0.046-1.313,1.549-1.359,2.549-1.652c13.678-4.045,26.021-0.775,37.5,6.977
			c4,2.701,7.67,5.801,10.592,9.77c-0.725-13.941-8.211-23.432-20.133-30.08c12.563-7.148,31.271,0.963,45.738,19.756
			c1.942-5.496-0.024-10.164-1.27-14.887c-1.354-5.136-5.98-8.102-8.473-12.553c12.137-3.422,22.286,2.857,32.607,20.256
			c2.366-7.195,0.271-13.444-2.399-19.627c-0.483-1.116-1.735-2.572-1.396-3.226c0.638-1.222,2.37-0.794,3.7-0.684
			c7.434,0.616,12.488,4.948,16.658,10.66c0.995,1.366,1.475,3.152,3.406,4.226c1.927-6.297,0.186-11.755-3.016-16.717
			c-1.357-2.107-0.93-2.532,1.002-3.299c5.836-2.326,11.952,0.168,16.822,7.012c0.354,0.495,0.668,1.018,1.065,1.633
			c1.512-4.613,0.198-10.51-3.411-14.346c-1.648-1.755-1.67-2.638,0.51-3.883c6.097-3.48,7.824-3.135,14.986,3.594
			c1.317-3.807-0.154-9.161-3.656-13.092c-0.869-0.979-2.402-1.654-1.246-3.354c1.025-1.508,1.75-3.438,4.104-3.221
			c1.733,0.161,3.453,0.444,5.188,0.602c2.441,0.216,3.287-0.819,2.256-3.115c-1.063-2.362-2.906-4.035-5.051-5.379
			c-1.525-0.953-2.098-2.102-1.094-3.729c4.355-7.063,2.41-14.785,2.215-22.285c-0.08-3.045-0.887-6.069-1.361-9.104
			c5.508,9.1,7.734,19.249,9.379,29.564c1.139,7.127-0.073,14.217-1.108,21.201c-1.595,10.738-7.083,19.913-13.36,28.523
			c-1.414,1.937-3.652,5.104-6.989,1.879c-0.358-0.486-0.577-0.505-0.587,0.175c-1.17,5.437-3.833,10.009-8.144,13.519
			c-4.451,3.628-5.574,3.419-8.026-1.133c-1.473,0.752-1.748,2.334-2.487,3.574c-2.802,4.695-6.912,7.778-11.993,9.586
			c-2.14,0.762-3.662,0.385-3.672-2.445c-0.006-1.668-0.078-3.423-1.045-5.213c-1.477,1.027-1.6,2.459-1.928,3.697
			c-0.686,2.58-1.954,4.855-3.374,7.064c-0.522,0.813-1.136,2.011-2.304,1.286c-1.964-1.215-3.015,0.058-4.144,1.213
			c-1.243,1.272-2.73,2.177-4.304,2.943c-2.415,1.177-3.692,0.527-3.168-2.286c0.309-1.665,0.518-3.168-1.254-4.373
			c-1.084,1.914-1.889,3.794-2.253,5.906c-0.47,2.732-1.595,5.25-3.142,7.545c-0.523,0.777-1.446,2.051-2.307,0.813
			c-2.27-3.253-3.236-0.915-4.561,0.763c-1,1.264-2.19,2.381-3.268,3.59c-1.986,2.232-2.958,1.872-3.944-1
			c-1.169-3.401-2.375-7.025-6.498-8.605c0.23,2.391,1.099,4.563,1.595,6.816c1.703,7.75-0.337,13.529-5.762,17.238
			c-2.459,1.68-4.279,1.955-6.125-1.002c-1.825-2.924-3.736-5.93-6.932-7.688l0.031-0.008c-0.543,2.295,0.925,4.063,1.672,5.979
			c1.974,5.062,2.323,10.179,0.976,15.419c-0.179,0.697-0.288,1.617-1.149,1.771c-0.922,0.164-1.236-0.669-1.473-1.374
			c-0.395-1.17-0.654-2.901-2.107-2.635c-1.768,0.324-1.726,2.298-1.735,3.736c-0.022,3.417-0.798,6.573-2.691,10.045
			c-3.194-6.568-7.191-11.801-13.942-14.326c-0.045,0.284-0.125,0.451-0.076,0.512c0.467,0.586,0.984,1.135,1.438,1.729
			c5.135,6.719,8.957,13.797,6.836,22.742c-0.928,3.914-1.271,4.21-4.326,1.757c-2.624-2.108-5.539-3.362-9.4-4.272
			c0.993,1.385,1.614,2.148,2.129,2.98c2.627,4.25,5.476,8.416,5.027,13.803c-0.201,2.393-0.705,3.252-3.097,1.434
			c-2.342-1.782-4.681-3.861-8.367-4.381c0.934,1.547,1.608,2.586,2.206,3.668c1.887,3.422,3.384,6.919,3.153,10.998
			c-0.155,2.73-1.153,3.544-3.79,2.671c-2.479-0.817-4.976-1.711-7.656-1.646c-0.763,0.02-1.558,0.082-1.754,1.013
			c-0.156,0.737,0.461,1.097,0.943,1.469c1.576,1.222,3.258,2.325,4.737,3.657c2.556,2.307,2.45,4.381-0.51,5.903
			c-2.739,1.407-5.616,2.533-8.799,2.843c-3.591,0.35-7.284,0.094-11.715,1.309c1.55,0.695,2.193,1.047,2.878,1.282
			c4.021,1.368,8.057,2.776,11.648,5.057c1.457,0.927,3.579,1.899,3.249,4.174c-0.322,2.206-2.156,3.202-4.101,3.96
			c-3.653,1.424-7.533,1.707-11.333,2.397c-3.375,0.611-6.874,0.726-10.083,2.212c0.458,1.133,1.324,0.938,2.014,1.113
			c5.673,1.433,11.523,2.301,16.668,5.386c4.43,2.655,4.416,5.799-0.223,8.245c-3.207,1.689-6.67,2.764-10.236,3.527
			c-2.984,0.642-6.157,0.615-9.137,2.188c0.949,1.409,2.288,1.364,3.425,1.669c4.582,1.227,9.245,2.222,13.453,4.543
			c5.876,3.242,6.433,7.059,1.829,11.959c-3.548,3.772-8.156,5.643-12.892,7.262c-2.743,0.939-5.683,1.379-8.25,3.398
			c1.957,0.953,3.729,0.617,5.432,0.732c5.733,0.387,11.489,0.578,16.89,2.914c3.518,1.521,4.139,3.207,1.966,6.349
			c-2.79,4.035-6.392,7.325-10.12,10.476c-1.401,1.182-2.893,2.271-3.821,5.002C436.553,479.427,440.59,478.19,444.783,478.26z
			 M509.53,609.84c1.577,9.24,7.188,15.122,16.041,17.127c10.155,2.304,21.501-5.74,22.802-15.714
			c1.385-10.629-4.985-22.196-16.902-23.232c-1.949-0.171-3.912-0.146-5.867-0.212c-1.294-2.303-2.734-3.975-5.728-2.258
			c-4.411,2.531-8.224,5.707-10.125,10.486C507.967,600.511,506.595,605.197,509.53,609.84z M470.601,691.141
			c4.534,2.691,11.923,1.883,15.94-1.711c1.471-1.314,3.092-2.537,3.59-4.66c0.662-2.831-0.649-4.733-3.051-5.666
			c-1.854-0.719-4.307-3.046-5.644,0.935c-0.42,1.245-1.938,0.894-3.007,1.065c-2.202,0.355-4.431,0.555-6.619,0.978
			c-2.34,0.451-3.768,2.026-3.957,4.351C467.674,688.602,468.816,690.238,470.601,691.141z"/>
		<path fill="#F5C469" d="M627.231,248.561c-2.911,3.725-5.909,7.389-8.718,11.188c-9.52,12.867-21.52,22.678-35.572,30.333
			c-11.839,6.452-24.264,11.654-36.191,17.904c-10.418,5.46-19.387,12.675-27.352,21.233c-15.427,16.58-25.452,36.178-32.715,57.467
			c-4.246,12.453-7.861,25.04-10.161,37.96c-2.474,13.913-3.298,27.858,3.178,41.105c3.634,7.427,8.817,13.659,15.935,17.989
			c7.472,4.548,15.089,8.859,22.695,13.178c16.23,9.212,30.036,21.24,40.049,36.96c8.824,13.845,14.552,28.954,12.771,45.919
			c-0.271,2.592-1.002,5.135-1.521,7.705c-4.113-4.801-7.161-9.712-8.099-16.504c-2.703-19.579-11.994-35.959-26.599-49.376
			c-9.735-8.944-20.901-15.698-32.333-22.118c-8.817-4.951-17.502-10.077-24.256-17.857c-12.482-14.377-15.74-31.359-12.945-49.501
			c4.89-31.733,13.683-62.268,30.898-89.795c11.166-17.852,25.629-32.387,44.36-42.304c7.735-4.094,15.617-7.965,23.635-11.476
			c23.911-10.47,43.571-25.616,55.515-49.827C623.41,241.463,624.609,245.568,627.231,248.561z"/>
		<path fill="#F5C469" d="M444.783,478.26c-4.193-0.069-8.23,1.167-12.871,2.26c0.928-2.73,2.422-3.823,3.821-5.004
			c3.729-3.147,7.331-6.439,10.119-10.473c2.173-3.143,1.552-4.828-1.964-6.348c-5.402-2.338-11.158-2.529-16.891-2.916
			c-1.703-0.114-3.475,0.221-5.432-0.732c2.566-2.018,5.506-2.461,8.249-3.398c4.737-1.619,9.346-3.488,12.892-7.262
			c4.604-4.9,4.049-8.717-1.827-11.957c-4.208-2.322-8.871-3.318-13.454-4.545c-1.139-0.306-2.476-0.26-3.425-1.668
			c2.979-1.574,6.153-1.545,9.138-2.188c3.564-0.766,7.027-1.837,10.234-3.529c4.639-2.448,4.653-5.59,0.225-8.242
			c-5.145-3.086-10.996-3.955-16.67-5.389c-0.688-0.172-1.555,0.02-2.013-1.113c3.21-1.485,6.708-1.598,10.082-2.212
			c3.801-0.69,7.683-0.974,11.333-2.398c1.947-0.755,3.781-1.753,4.102-3.958c0.331-2.274-1.79-3.249-3.248-4.172
			c-3.592-2.283-7.627-3.691-11.649-5.061c-0.685-0.232-1.329-0.586-2.877-1.281c4.431-1.217,8.126-0.96,11.714-1.309
			c3.182-0.312,6.061-1.438,8.798-2.843c2.96-1.522,3.068-3.597,0.511-5.903c-1.478-1.33-3.16-2.435-4.736-3.656
			c-0.483-0.374-1.101-0.732-0.944-1.47c0.196-0.931,0.991-0.992,1.755-1.013c2.681-0.064,5.178,0.83,7.654,1.646
			c2.64,0.873,3.637,0.059,3.792-2.673c0.229-4.077-1.267-7.578-3.155-10.996c-0.597-1.085-1.272-2.122-2.206-3.67
			c3.688,0.522,6.026,2.603,8.369,4.384c2.392,1.818,2.896,0.957,3.096-1.436c0.451-5.387-2.4-9.554-5.028-13.803
			c-0.514-0.832-1.135-1.597-2.127-2.979c3.86,0.909,6.776,2.162,9.399,4.271c3.055,2.453,3.399,2.157,4.326-1.757
			c2.12-8.945-1.7-16.023-6.838-22.74c-0.452-0.596-0.968-1.145-1.435-1.729c-0.051-0.063,0.029-0.229,0.074-0.514
			c6.75,2.525,10.75,7.76,13.944,14.326c1.892-3.471,2.669-6.627,2.691-10.043c0.009-1.441-0.034-3.414,1.734-3.738
			c1.452-0.266,1.714,1.463,2.108,2.635c0.235,0.705,0.55,1.539,1.473,1.375c0.861-0.153,0.971-1.074,1.148-1.771
			c1.346-5.24,1-10.358-0.975-15.419c-0.749-1.917-2.215-3.685-1.674-5.979l-0.03,0.008c3.196,1.759,5.107,4.765,6.933,7.688
			c1.844,2.957,3.666,2.684,6.125,1.004c5.424-3.709,7.463-9.489,5.76-17.24c-0.495-2.255-1.361-4.426-1.594-6.816
			c4.123,1.582,5.33,5.204,6.496,8.605c0.988,2.873,1.961,3.231,3.947,1.002c1.076-1.209,2.266-2.326,3.267-3.592
			c1.325-1.678,2.29-4.016,4.56-0.763c0.863,1.237,1.783-0.036,2.308-0.812c1.547-2.297,2.671-4.812,3.141-7.545
			c0.364-2.112,1.171-3.992,2.253-5.908c1.773,1.206,1.565,2.709,1.254,4.372c-0.525,2.815,0.754,3.464,3.168,2.288
			c1.573-0.766,3.06-1.672,4.307-2.944c1.128-1.153,2.18-2.427,4.143-1.211c1.166,0.722,1.779-0.476,2.303-1.289
			c1.42-2.208,2.69-4.483,3.373-7.063c0.331-1.239,0.453-2.67,1.927-3.698c0.968,1.789,1.042,3.545,1.047,5.213
			c0.011,2.83,1.534,3.207,3.672,2.445c5.082-1.807,9.191-4.889,11.994-9.585c0.739-1.241,1.013-2.823,2.485-3.573
			c2.453,4.551,3.577,4.758,8.027,1.131c4.31-3.51,6.973-8.081,8.144-13.518c0.198-0.055,0.396-0.112,0.591-0.178
			c3.334,3.228,5.572,0.062,6.986-1.877c6.277-8.61,11.767-17.785,13.358-28.523c1.037-6.984,2.247-14.072,1.11-21.199
			c-1.646-10.317-3.872-20.467-9.38-29.565c-0.822-2.406-2.356-4.636-1.943-7.901c8.419,8.18,14.226,17.484,17.126,28.309
			c7.23,26.957-2.033,49.225-20.586,68.447c-11.327,11.736-25.825,18.608-40.445,25.203c-11.384,5.137-22.66,10.494-32.715,18.051
			c-14.65,11.017-27.011,24.163-35.895,40.245c-17.541,31.757-28.193,65.753-31.723,101.872
			c-1.098,11.227,0.903,22.186,5.494,32.542c0.871,1.972,0.439,2.261-1.4,2.567C452.049,476.66,448.424,477.511,444.783,478.26z"/>
		<path fill="#F5C469" d="M369.601,171.832c9.724,3.395,13.766,11.209,16.053,20.467c3.127,12.667,9.501,23.492,18.689,32.736
			c2.983,3.002,6.166,5.856,8.471,9.475c1.318,2.068,2.723,2.358,4.943,0.967c16.522-10.35,35.121-14.818,54.016-17.514
			c15.537-2.214,31.334-1.785,47.061-1.287c10.339,0.328,20.656,0.209,30.973-1.449c12.215-1.966,20.422-8.629,25.719-19.443
			c0.793,0.598,1.586,1.196,2.381,1.795l-0.027-0.021c6.488,4.395,6.447,4.366,2.152,10.819
			c-7.736,11.619-19.301,16.324-32.498,18.054c-12.428,1.628-24.918,1.19-37.397,0.978c-21.296-0.365-42.423,0.758-63.071,6.637
			c-12.367,3.521-23.654,9.26-34.359,16.258c-1.076,0.705-2.334,2.05-3.054-0.296c-2.78-9.063-9.825-14.94-15.894-21.585
			c-8.789-9.627-15.643-20.322-18.158-33.43c-1.074-5.575-2.428-11.191-9.654-12.117c-1.56-0.2-1.917-1.779-1.806-3.285
			C364.41,175.908,366.028,173.185,369.601,171.832z"/>
		<path fill="#F5C469" d="M203.168,425.239c-0.466-0.39-0.874-1.021-1.393-1.136c-9.89-2.172-10.883-10.686-12.169-18.217
			c-3.342-19.615,11.714-36.896,31.407-38.089c8.601-0.521,17.185,0.95,25.786-0.458c7.624-1.249,14.242-4.487,20.079-9.322
			c3.85-3.188,3.707-8.309,5.181-12.605c4.132-12.063,8.987-23.713,16.027-34.459c5.898-9,12.129-17.682,19.328-25.685
			c13.658-15.198,28.826-28.629,46.017-39.73c0.274,0.249,0.633,0.447,0.812,0.754c5.205,8.854,5.629,6.548-1.951,12.421
			c-13.027,10.095-25.924,20.356-36.726,32.873c-17.003,19.702-30.223,41.547-36.23,67.2c-0.698,2.989-2.731,4.7-4.792,6.436
			c-11.473,9.653-24.607,14.394-39.718,13.366c-5.714-0.391-11.445-0.775-17.158,0.341c-12.384,2.42-19.479,12.573-17.457,24.985
			c0.709,4.364,2.406,8.379,3.996,12.438C205.453,419.528,205.996,422.563,203.168,425.239z"/>
		<path fill="#F5C469" d="M376.914,651.543c-1.788-1.98-4.37-2.268-6.679-3.145c-3.222-1.221-5.042-3.031-5.634-6.959
			c-2.441-16.168,4.038-29.482,12.44-42.365c7.294-11.183,15.185-21.934,23.27-32.547c1.877-2.462,0.08-3.195-1.796-3.975
			c-13.289-5.525-25.84-12.472-38.026-20.07c-4.751-2.961-9.227-6.369-13.783-9.635c-2.286-1.639-3.5-1.941-3.899,1.623
			c-0.441,3.924-0.948,7.939-3.117,11.47c-1.639,2.665-3.709,2.886-6.376,1.642c-2.64-1.229-4.734-2.545-2.916-5.867
			c4.63-11.215,3.671-22.397-0.352-33.563c-0.846-2.346-1.435-4.785-2.311-7.117c-0.713-1.904-0.037-1.873,1.651-1.904
			c4.229-0.072,6.68,1.191,8.358,5.643c4.627,12.276,14.644,19.995,25.148,26.871c16.203,10.607,33.46,19.232,51.633,25.988
			c1.119,0.416,2.107,1.189,3.483,1.982c-8.7,11.916-17.726,23.631-26.021,35.839c-6.763,9.956-14.146,19.72-16.506,32.034
			c-1.452,7.574-1.527,15.005,1.383,22.273C377.115,650.385,377.217,650.941,376.914,651.543z"/>
		<path fill="#F5C469" d="M284.36,521.463c-2.724-3.828-4.215-7.742-2.094-12.514c1.017-2.287-0.595-4.605-1.442-6.768
			c-6.429-16.417-2.909-32.034,9.94-43.996c2.24-2.088,4.864-3.505,7.649-4.594c2.396-0.941,3.114-2.177,2.487-4.837
			c-1.563-6.62-1.446-6.368-8.24-7.21c-11.054-1.371-21.717-4.368-32.018-8.656c-2.757-1.145-5.615-2.044-8.418-3.076
			c-1.21-0.447-2.192-0.188-2.982,0.814c-1.141-4.16-2.28-8.318-3.463-12.638c3.553-0.792,6.639,0.422,9.52,1.634
			c16.449,6.912,33.265,12.143,51.336,12.104c1.509-0.004,1.734,0.707,1.931,2.039c1.221,8.264,2.519,16.531,5.269,24.456
			c0.981,2.827-1.022,2.155-2.296,2.319c-13.38,1.716-22.321,10.642-23.23,23.314c-0.497,6.903,1.969,13.25,3.882,19.684
			c1.029,3.465,2.318,6.854,3.288,10.334c0.85,3.041,1.069,6.145-0.358,9.141c-1.068,2.24-2.63,2.828-4.84,1.523
			C288.364,523.407,286.722,521.736,284.36,521.463z"/>
		<path fill="#F5C469" d="M280.216,113.33c11.365-19.683,22.729-39.366,34.093-59.047c0.624-1.082,1.207-2.193,1.908-3.225
			c1.479-2.182,3.581-2.621,5.92-1.729c2.361,0.902,2.878,2.909,2.7,5.204c-0.131,1.697-1.118,3.024-1.925,4.422
			c-22.783,39.477-45.572,78.952-68.368,118.422c-0.808,1.398-1.504,2.88-2.814,3.932c-1.993,1.603-4.125,1.886-6.182,0.33
			c-2.061-1.558-2.449-3.721-1.258-5.999c1.217-2.318,2.605-4.55,3.917-6.82c10.678-18.492,21.354-36.985,32.03-55.479
			C280.229,113.338,280.222,113.334,280.216,113.33z"/>
		<path fill="#F5C469" d="M449.165,699.873c2.144,3.018,9.976,5.586,14.081,4.354c2.799-0.838,6.692-0.504,6.443-5.372
			c-0.063-1.22,1.562-1.167,2.77-1.019c11.662,1.463,19.768-4.506,26.551-12.982c2.01-2.507,1.545-9.297-0.209-12.028
			c-2.805-4.366-5.336-8.91-8.461-13.148c5.247,2.716,9.494,6.571,13.171,11.089c3.104,3.818,3.413,3.857,6.776,0.324
			c0.342-0.361,0.686-0.73,0.996-1.121c7.878-9.9,7.765-12.531-0.909-21.68c-0.673-0.709-1.597-1.246-1.62-2.653
			c2.619-0.425,4.662,1.228,6.843,2.036c8.235,3.054,10.805,2.029,13.358-6.51c1.098-3.673,2.756-5.65,6.599-7.029
			c20.745-7.429,26.705-32.499,11.792-48.647c-1.754-1.903-3.859-3.45-5.429-5.573c-0.925-1.254-1.647-2.236-0.138-3.465
			c5.994,5.072,11.926,10.143,15.779,17.229c10.416,19.154-1.385,40.785-18.953,44.578c-1.679,0.361-2.693,1.066-3.23,3.027
			c-2.935,10.759-8.356,20.256-14.585,29.483c-3.317,4.912-6.454,9.936-10.048,14.687c-12.832,16.959-33.229,25.847-53.984,19.346
			c-1.764-0.553-3.626-0.8-5.45-1.154C449.111,703.214,448.349,702.002,449.165,699.873z"/>
		<path fill="#F5C469" d="M85.921,449.911c8.749-15.155,17.499-30.311,26.252-45.464c0.5-0.865,0.99-1.743,1.569-2.555
			c1.785-2.502,4.296-3.32,6.858-1.759c2.616,1.594,2.869,4.165,1.309,6.862c-5.881,10.171-11.739,20.357-17.611,30.533
			c-11.936,20.678-23.874,41.354-35.813,62.027c-0.439,0.758-0.855,1.533-1.357,2.246c-1.87,2.648-4.899,3.599-7.109,2.039
			c-2.745-1.94-2.765-4.33-1.107-7.173c9.059-15.552,18.026-31.159,27.026-46.747C85.934,449.919,85.927,449.914,85.921,449.911z"/>
		<path fill="#FC8119" d="M220.414,466.598c5.14-11.199,6.616-22.812,3.42-34.775c-2.088-7.82-4.117-15.701-7.844-22.963
			c-2.476-4.822-2.491-10.219,0.368-13.273c2.635-2.818,6.347-3.17,9.832-3.361c8.67-0.474,17.038,0.677,24.366,5.938
			c0.647,0.467,1.264,1.268,2.372,0.858c0.65-2.477-1.633-3.66-2.497-5.452c3.159-1.615,6.683,0.008,8.054,3.699
			c0.214,0.573,0.426,1.194,0.429,1.794c0.048,7.386,0.659,7.099-6.263,6.065c-6.529-0.976-13.092-0.821-19.682-0.129
			c-3.44,0.361-3.721,1.904-3.072,4.697c1.388,5.98,3.832,11.738,3.915,18.004c-4.74-0.031-4.747-0.031-4.236,4.941
			c0.14,1.365,0.353,2.72,0.484,4.084C231.162,448.074,228.599,458.244,220.414,466.598z"/>
		<path fill="#F5C469" d="M346.98,95.723c7.055-12.219,14.105-24.443,21.172-36.657c0.626-1.081,1.272-2.154,2.007-3.161
			c2.024-2.797,4.881-3.723,6.98-2.051c2.551,2.031,2.528,4.616,0.974,7.307c-8.182,14.164-16.369,28.33-24.544,42.499
			c-6.678,11.573-13.343,23.153-20.012,34.732c-0.188,0.325-0.33,0.678-0.546,0.981c-1.776,2.5-5.885,3.947-7.649,2.709
			c-2.245-1.575-2.487-4.665-0.515-8.094c7.346-12.771,14.725-25.527,22.093-38.289C346.956,95.708,346.966,95.715,346.98,95.723z"
			/>
		<path fill="#F5C469" d="M283.999,175.762c-1.542-1.647-5.289-1.05-4.559-5.129c-5.663,3.396-7.718,9.033-10.893,13.799
			c-0.743,1.116-0.817,3.025-2.847,2.914c14.923-25.732,29.833-51.459,44.761-77.174c5.267-9.076,10.538-18.149,15.884-27.179
			c1.121-1.893,1.818-4.161,3.962-5.312c-2.545,4.422-5.045,8.867-7.662,13.247c-1.075,1.801-0.885,2.754,1.161,3.679
			c1.869,0.845,4.623,1.118,4.386,4.262c-5.993,10.51-11.945,21.041-17.977,31.526C301.506,145.534,292.739,160.642,283.999,175.762
			z"/>
		<path fill="#F5C469" d="M396.382,634.697c-0.748-3.277,1.606-5.316,3.347-7.31c8.766-10.05,18.318-19.351,27.996-28.514
			c9.251-8.757,19.406-16.392,29.603-24.003c9.684-7.228,20.091-13.535,28.776-22.061c2.775-2.725,4.93-5.951,7.127-9.142
			c0.815-1.188,1.193-3.188,2.959-3.02c2.156,0.204,1.58,2.489,2.162,3.89c-0.137,6.816-4.339,11.297-9.178,15.137
			c-12.231,9.707-25.287,18.279-38.134,27.129c-16.992,11.705-32.995,24.577-47.337,39.418
			C401.137,628.879,398.887,631.924,396.382,634.697z"/>
		<path fill="#FC8119" d="M292.818,541.518c-1.152-0.102-1.541-1.058-2.456-2.244c3.571,0.384,6.697-0.06,9.593-1.465
			c8.112-3.93,9.999-11.316,9.965-19.29c-0.038-9.06-3.961-17.368-6.036-26.04c-0.691-2.896-1.556-5.747-1.205-8.771
			c0.395-3.43,3.336-6.822,6.419-7.451c4.219-0.861,7.542,0.533,9.6,4.045c0.182,0.311,0.271,0.674,0.404,1.012
			c0.748,1.936,3.096,3.871,2.36,5.575c-1.034,2.396-3.579-0.107-5.551,0.247c-2.708,0.484-3.923,0.844-2.985,4.175
			c1.659,5.899,3.717,11.771,3.78,18.03c-2.377,0.637-1.501,2.495-1.448,3.989c0.248,7.092,0.527,14.187-3.339,20.61
			C307.408,541.449,299.196,544.703,292.818,541.518z"/>
		<path fill="#F5C469" d="M342.704,317.072c-2.126-0.576-4.253-1.148-6.391-1.73c0.292-1.472,1.437-1.455,2.307-1.77
			c10.399-3.742,20.265-8.43,28.688-15.785c5.271-4.601,10.135-9.828,11.618-16.615c1.122-5.15,2.344-8.101,7.943-9.908
			c4.432-1.434,5.863-6.794,5.485-11.777c-0.465-6.063-3.555-11.106-6.401-16.237c-0.814-1.472-0.816-1.47,0.54-2.002
			c4.747,4.49,9.097,9.271,11.228,15.639c3.027,9.041-0.73,17.48-9.471,21.093c-1.276,0.527-1.967,1.092-2.229,2.57
			c-2.059,11.773-9.242,19.934-18.945,26.156c-5.969,3.827-12.286,6.957-19.283,8.543
			C346.047,315.646,344.397,316.453,342.704,317.072z"/>
		<path fill="#F5C469" d="M548.569,574.465c-1.568-1.611-3.125-3.256-4.067-5.32c-4.206-9.218-12.885-13.119-20.982-17.711
			c-0.739-0.421-1.529-0.748-2.699-1.316c2.738-1.637,5.211-1.406,7.799-1.166c1.166,0.109,3.046,0.946,3.646-0.725
			c0.467-1.301-1.033-2.129-1.994-2.877c-6.157-4.782-12.639-8.938-20.47-10.449c-1.105-0.215-2.705-0.475-2.694-1.603
			c0.016-1.71,1.828-1.265,2.96-1.388c2.899-0.311,5.813-0.492,8.956-0.74c-5.066-4.838-11.117-6.705-25.131-7.803
			c3.115-2.318,6.355-3.129,9.645-3.822c4.101-0.559,8.022,0.332,11.352,2.551c13.593,9.052,24.955,20.197,30.888,35.793
			C547.766,563.115,550.201,568.514,548.569,574.465z"/>
		<path fill="#F5C469" d="M435.955,194.549c-0.871,0.053-1.738,0.133-2.605,0.157c-3.838,0.105-5.691-2.6-4.176-6.163
			c0.433-1.027,1.047-1.98,1.605-2.951c7.109-12.295,14.182-24.612,21.381-36.854c0.961-1.634,1.121-3.732,2.798-4.935
			c2.438,0.389,4.89,0.813,7.349,1.151c2.134,0.293,2.346,1.074,1.236,2.921C454.234,163.367,445.654,179.289,435.955,194.549z"/>
		<path fill="#F5C469" d="M398.358,95.053c3.56-6.165,7.13-12.324,10.675-18.498c1.174-2.043,2.827-3.076,5.243-2.758
			c1.81,0.238,2.826,1.267,3.534,2.912c0.646,1.504,0.07,2.679-0.598,3.868c-7.119,12.616-14.222,25.242-21.423,37.813
			c-1.503,2.623-5.351,3.892-7.296,2.483c-2.828-2.046-2.285-4.702-0.791-7.31c3.539-6.177,7.112-12.333,10.672-18.499
			C398.369,95.059,398.364,95.055,398.358,95.053z"/>
		<path fill="#F5C469" d="M423.041,101.507c3.185-5.515,6.348-11.038,9.559-16.536c1.847-3.164,4.471-4.094,7.077-2.603
			c2.399,1.371,3.015,4.162,1.297,7.189c-6.284,11.074-12.626,22.114-19.009,33.133c-1.699,2.928-5.052,4.031-7.234,2.606
			c-2.435-1.588-2.848-4.327-1.014-7.553c3.082-5.427,6.232-10.816,9.352-16.222C423.059,101.517,423.05,101.512,423.041,101.507z"
			/>
		<path fill="#F5C469" d="M374.087,505.316c2.71-6.525-0.357-11.506-4.24-16.363c-5.326-6.657-8.543-14.248-8.906-22.813
			c-0.21-4.918,1.839-9.096,6.186-11.61c3.78-2.188,7.854-3.001,11.873-0.257c-0.463,0.182-0.909,0.42-1.39,0.534
			c-13.963,3.36-13.027,14.319-9.098,22.975c1.988,4.386,5.766,7.452,8.606,11.212c3.175,4.199,4.622,8.771,2.333,13.939
			c-1.209,2.729-3.003,4.803-6.114,5.791C372.787,507.354,373.988,506.434,374.087,505.316z"/>
		<path fill="#F5C469" d="M500.234,114.899c2.063-3.569,4.099-7.153,6.192-10.704c1.636-2.777,4.03-2.993,6.69-1.707
			c2.723,1.316,2.982,3.504,1.621,5.899c-4.196,7.382-8.413,14.751-12.769,22.04c-1.563,2.619-4.009,3.274-6.712,1.611
			c-2.678-1.65-2.664-3.928-1.211-6.435C496.117,122.042,498.17,118.468,500.234,114.899z"/>
		<path fill="#F5C469" d="M405.047,378.646c0.228-0.289,0.4-0.749,0.692-0.849c16.317-5.513,28.791-16.059,38.896-29.729
			c1.676,3.302,0.669,8.683-2.889,15.628c-8.667,12.398-21.716,14.896-35.499,15.693
			C405.863,379.414,405.447,378.908,405.047,378.646z"/>
		<path fill="#F5C469" d="M531.742,130.846c-1.688,2.922-3.332,5.866-5.07,8.755c-1.676,2.785-5.054,4.093-7.284,2.628
			c-2.726-1.787-2.513-4.548-1.204-6.967c3.438-6.368,6.971-12.697,10.809-18.828c1.367-2.184,4.004-2.266,6.303-0.989
			c2.24,1.244,3.248,3.167,1.947,5.603c-1.764,3.303-3.719,6.502-5.592,9.747C531.68,130.812,531.711,130.829,531.742,130.846z"/>
		<path fill="#FC8119" d="M224.851,665.506c3.439-6.083,6.799-12.217,10.363-18.225c1.481-2.499,3.603-3.678,6.586-1.858
			c2.976,1.813,2.874,3.937,1.265,6.607c-3.345,5.562-6.097,11.477-9.903,16.761c-1.095-0.54-1.458,0.435-2.096,0.953
			c-2.021,1.649-5.151,0.641-5.697-1.842C225.194,667.107,225.669,666.173,224.851,665.506z"/>
		<path fill="#FC8119" d="M650.224,243.706c-4.958-0.679-6.578-3.444-4.263-7.616c2.953-5.318,6.071-10.543,9.149-15.793
			c1.272-2.176,2.991-3.719,5.741-3.082c2.774,0.641,3.564,2.682,3.377,5.279c-1.203,2.02-2.32,4.097-3.627,6.047
			C657.192,233.631,655.359,239.802,650.224,243.706z"/>
		<path fill="#F5C469" d="M220.414,466.598c8.186-8.354,10.75-18.521,9.645-29.873c-0.132-1.363-0.344-2.719-0.486-4.084
			c-0.508-4.974-0.501-4.974,4.238-4.941c2.461,9.286,3.606,18.615,0.721,28.026c-1.618,5.272-4.728,9.291-10.061,11.248
			C223.106,467.473,221.621,468.258,220.414,466.598z"/>
		<path fill="#F5C469" d="M285.013,685.596c-1.312,2.27-2.541,4.593-3.953,6.797c-1.609,2.507-3.942,3.066-6.454,1.536
			c-2.445-1.491-3.279-3.796-1.83-6.425c2.592-4.701,5.234-9.379,8.05-13.947c1.626-2.637,4.123-3.133,6.795-1.528
			c2.613,1.573,2.925,3.88,1.528,6.444c-1.316,2.412-2.734,4.762-4.106,7.141C285.034,685.608,285.023,685.602,285.013,685.596z"/>
		<path fill="#F5C469" d="M129.242,502.809c-1.125,1.939-2.22,3.897-3.373,5.823c-1.646,2.745-4.021,2.652-6.477,1.409
			c-2.397-1.213-3.045-3.295-1.879-5.67c2.2-4.475,4.719-8.777,7.619-12.842c1.675-2.348,4-2.566,6.228-1.035
			c2.184,1.5,2.946,3.635,1.442,6.168C131.594,498.697,130.43,500.76,129.242,502.809z"/>
		<path fill="#F5C469" d="M292.818,541.518c6.378,3.186,14.591-0.066,19.106-7.574c3.863-6.425,3.584-13.521,3.339-20.613
			c-0.052-1.493-0.931-3.353,1.447-3.99c2.833,8.268,4.177,16.631,1.424,25.2c-3.028,9.409-13.031,14.241-21.806,10.482
			C294.802,544.367,292.686,543.979,292.818,541.518z"/>
		<path fill="#F5C469" d="M379.704,710.385c-1.058,1.832-2.054,3.703-3.192,5.49c-1.455,2.292-3.612,3.235-6.081,1.992
			c-2.559-1.291-3.527-3.844-2.327-6.342c1.991-4.142,4.291-8.178,6.889-11.965c1.625-2.371,4.292-2.182,6.701-0.817
			c2.494,1.414,2.423,3.565,1.302,5.78c-1.01,1.996-2.217,3.893-3.338,5.835C379.673,710.365,379.689,710.375,379.704,710.385z"/>
		<path fill="#FC8119" d="M261.253,671.432c-1.304,2.258-2.532,4.566-3.934,6.763c-1.554,2.44-3.955,2.679-6.174,1.372
			c-2.298-1.35-2.947-3.585-1.508-6.09c2.48-4.307,4.912-8.647,7.471-12.91c1.483-2.47,3.874-3.438,6.339-1.913
			c2.463,1.522,3.283,3.911,1.458,6.709c-1.29,1.973-2.383,4.075-3.563,6.12C261.312,671.465,261.282,671.447,261.253,671.432z"/>
		<path fill="#F5C469" d="M407.146,715.395c-0.999,1.73-1.896,3.531-3.021,5.175c-1.701,2.479-4.084,2.798-6.567,1.37
			c-2.468-1.418-2.953-3.691-1.636-6.113c2.031-3.729,4.24-7.361,6.412-11.012c1.611-2.711,4.042-2.859,6.453-1.5
			c2.436,1.381,2.798,3.757,1.637,6.186c-0.964,2.023-2.214,3.913-3.338,5.858C407.104,715.369,407.125,715.381,407.146,715.395z"/>
		<path fill="#FC8119" d="M302.519,689.3c0.993-1.718,1.962-3.454,2.986-5.157c1.46-2.436,3.748-2.543,5.814-1.34
			c2.028,1.175,3.227,3.451,2.141,5.719c-1.765,3.684-3.82,7.271-6.137,10.632c-1.597,2.316-4.168,2.558-6.608,1.098
			c-2.405-1.439-2.37-3.608-1.247-5.836c0.892-1.769,1.966-3.448,2.958-5.169C302.457,689.264,302.487,689.281,302.519,689.3z"/>
		<path fill="#FC8119" d="M328.192,98.869c0.237-3.142-2.517-3.417-4.386-4.262c-2.045-0.923-2.237-1.876-1.161-3.679
			c2.617-4.38,5.117-8.825,7.662-13.247c2.08-2.326,4.154-1.07,5.846,0.336c2.157,1.791,1.83,4.258,0.59,6.438
			C333.979,89.309,331.052,94.071,328.192,98.869z"/>
		<path fill="#FC8119" d="M201.356,625.074c0.998-1.729,1.936-3.494,3.006-5.174c1.521-2.383,3.673-2.418,5.842-1.109
			c2.192,1.322,3.027,3.354,1.776,5.742c-1.678,3.201-3.463,6.354-5.342,9.445c-1.628,2.676-4.063,2.564-6.488,1.303
			c-2.482-1.292-2.702-3.395-1.493-5.715c0.805-1.549,1.731-3.033,2.604-4.545C201.293,625.038,201.325,625.057,201.356,625.074z"/>
		<path fill="#FC8119" d="M214.093,438.741c2.429,10.831-2.042,22.839-9.525,25.882C204.81,454.939,208.113,446.617,214.093,438.741
			z"/>
		<path fill="#F5C469" d="M462.521,492.129c-4.812-1.224-9.373,1.402-14.491,1.11c1.278-2.815,3.286-4.577,5.263-6.341
			c1.422-1.271,1.636-2.385-0.123-3.49c7.299-1.533,11.063,0.088,16.014,7.324C466.813,491.23,464.666,491.68,462.521,492.129z"/>
		<path fill="#FC8119" d="M268.089,393.607c3.42,2.471,6.029,11.087,4.437,14.941c-1.198,2.896-3.629,1.366-5.52,1.233
			c-1.573-0.114-2.505-0.851-2.129-3.034c0.657-3.813,1.509-7.675,0.861-11.615c-0.12-0.729-0.279-1.572,0.399-2.084
			C266.928,392.451,267.497,393.202,268.089,393.607z"/>
		<path fill="#F5C469" d="M95.203,495.059c-2.857-1.564-3.789-4.763-2.243-7.683c1.487-2.809,5.462-4.077,7.999-2.554
			c2.717,1.632,3.527,4.99,1.888,7.834C101.176,495.554,97.958,496.564,95.203,495.059z"/>
		<path fill="#F5C469" d="M354.59,702.403c-1.865,3.22-5.397,4.351-8.252,2.64c-2.715-1.629-3.485-5.282-1.73-8.219
			c1.707-2.853,5.363-3.846,8.083-2.195C355.43,696.291,356.232,699.57,354.59,702.403z"/>
		<path fill="#F5C469" d="M487.437,516.992c-3.061-1.158-5.571,1.871-8.69,1.093c1.577-3.862,5.589-5.354,8.025-8.335
			c5.647-1.043,7.598-0.615,14.852,3.559c-4.7,0.42-8.295,2.059-12.141,2.85c-0.815-0.014-1.566,0.15-2.164,0.756L487.437,516.992z"
			/>
		<path fill="#FC8119" d="M280.765,404.016c0.753-2.503,1.454-2.244,2.447-1.405c2.21,1.858,3.411,4.294,3.838,7.033
			c0.299,1.919,0.633,4.407-1.598,5.267c-2.08,0.799-4.306-0.521-6.43-1.064c-0.656-0.168-0.753-1.052-0.566-1.617
			C279.465,409.197,280.662,406.224,280.765,404.016z"/>
		<path fill="#F5C469" d="M345.097,20.67c-1.383,2.459-4.734,3.431-7.049,1.895c-2.584-1.712-3.091-3.998-1.511-6.73
			c1.504-2.6,4.498-3.514,6.94-2.061C345.659,15.071,346.419,18.316,345.097,20.67z"/>
		<path fill="#F5C469" d="M41.863,546.195c-1.348,2.509-4.628,3.59-7.029,2.315c-2.486-1.313-3.301-4.455-1.828-7.048
			c1.43-2.52,4.499-3.417,7.037-2.063C42.301,540.61,43.156,543.793,41.863,546.195z"/>
		<path fill="#F5C469" d="M474.945,505.777c-4.16-1.592-7.808,1.16-12.234,1.671c2.707-4.966,7.459-6.396,11.443-8.81
			c4.075-0.674,6.422,2.539,10.17,4.188C480.972,504.557,477.527,503.893,474.945,505.777z"/>
		<path fill="#F5C469" d="M112.257,464.941c-2.156-0.975-2.894-2.693-2.58-4.955c0.759,0.453,1.426,0.375,1.975-0.352
			c2.852,2.185,3.715-0.956,5.338-2.016c0.572-0.371,0.844-1.061,0.146-1.482c-1.561-0.955-3.071-0.068-4.541,0.404
			c-1.486,0.475-0.628,1.916-1.005,2.861c-0.803-0.344-1.413-0.064-1.911,0.584c0.804-4.127,3.334-6.135,6.862-5.438
			c2.456,0.484,4.521,3.563,4.213,6.273c-0.377,3.291-3.096,5.135-7.037,4.76c1.142-1.463,3.463-0.811,4.48-2.484
			c0.484-0.797,1.545-1.98,0.223-2.452c-2.109-0.749-3.563,1.824-5.86,1.714C111.581,462.313,112.242,464.021,112.257,464.941z"/>
		<path fill="#F5C469" d="M534.867,667.092c2.994-4.96,5.09-9.591,6.586-14.449c0.896-2.92,3.642-2.918,5.604-4.636
			C547.18,656.028,542.253,663.887,534.867,667.092z"/>
		<path fill="#FC8119" d="M46.853,518.994c1.33-1.76,2.91-3.086,5.304-1.748c2.236,1.247,2.731,3.245,1.563,5.395
			c-1.148,2.113-3.128,2.844-5.394,1.811C45.816,523.307,45.968,521.256,46.853,518.994z"/>
		<path fill="#F5C469" d="M479.984,148.364c-1.885,0.823-3.098,2.229-4.128,4.023c-12.447,21.701-24.962,43.365-37.47,65.032
			c-0.675,1.17-1.14,2.518-2.435,3.231c13.353-23.197,26.687-46.403,40.095-69.566C476.852,149.696,477.193,147.103,479.984,148.364
			z"/>
		<path fill="#F5C469" d="M556.014,140.234c-1.43,2.023-3.076,3.199-5.436,2.039c-2.066-1.014-2.953-4.352-1.575-6.146
			c1.463-1.901,3.609-2.379,5.645-1.244C556.827,136.099,556.984,138.178,556.014,140.234z"/>
		<path fill="#F5C469" d="M102.353,577.381c1.663-2.414,3.706-2.914,5.992-1.739c2.354,1.205,2.575,3.329,1.386,5.407
			c-1.303,2.288-3.496,2.844-5.786,1.611C101.683,581.445,101.602,579.381,102.353,577.381z"/>
		<path fill="#F5C469" d="M406.769,645.496c-1.842-1.064-3.549-1.826-1.989-3.841c1.255-1.62,2.045-4.248,4.76-3.583
			c1.703,0.418,5.201,7.637,4.291,8.166C411.259,647.734,408.785,646.076,406.769,645.496z"/>
		<path fill="#FC8119" d="M329.714,726.93c1.263-2.109,2.899-2.887,5.054-1.808c2.145,1.076,2.663,2.92,1.527,4.927
			c-1.064,1.882-2.832,2.903-4.977,1.73C329.332,730.694,328.601,728.986,329.714,726.93z"/>
		<path fill="#FC8119" d="M349.865,51.81c-1.461-1.395-2.724-2.998-1.49-5.118c1.142-1.957,3.123-2.57,5.158-1.618
			c2.307,1.083,2.181,3.203,1.22,5.093C353.783,52.082,351.974,52.438,349.865,51.81z"/>
		<path fill="#F5C469" d="M161.488,633.713c-2.146-1.362-2.654-3.356-1.45-5.445c1.178-2.04,3.211-2.919,5.417-1.622
			c2.109,1.239,2.696,3.253,1.435,5.45C165.66,634.237,163.816,634.869,161.488,633.713z"/>
		<path fill="#F5C469" d="M455.19,627.908c-2.206-1.496-4.702-7.137-3.421-8.109c2.115-1.609,5.26-1.166,6.584,0.209
			c2.407,2.5-1.258,4.867-1.537,7.496C456.711,628.529,455.859,628.344,455.19,627.908z"/>
		<path fill="#F5C469" d="M450.043,646.62c-0.065,0.113-0.272,0.717-0.428,0.702c-2.83-0.25-3.627-2.719-4.697-4.685
			c-0.609-1.121-1.472-2.978,0.996-3.421c1.456-0.262,2.945-0.359,4.424-0.477c1.463-0.115,2.087,0.483,1.587,1.992
			C451.302,642.611,450.716,644.504,450.043,646.62z"/>
		<path fill="#F5C469" d="M479.67,89.854c-1.416,1.78-2.889,3.047-5.135,1.625c-2.163-1.368-2.673-3.474-1.443-5.476
			c1.293-2.101,3.648-2.221,5.584-0.948C480.396,86.186,480.795,88.041,479.67,89.854z M475.014,90.408
			c1.406,0.679,2.159-0.087,2.777-1.087c0.664-1.083,1.316-2.399-0.121-3.175c-1.033-0.557-2.533-0.53-3.31,0.672
			C473.516,88.131,474.162,89.373,475.014,90.408z"/>
		<path fill="#F5C469" d="M431.553,619.288c-0.574-1.253-3.792-0.801-2.404-3.1c1.025-1.696,2.5-3.743,5.062-3.547
			c0.78,0.06,2.929,6.97,2.304,7.533C434.605,621.887,433.292,619.63,431.553,619.288z"/>
		<path fill="#F5C469" d="M445.969,657.986c0.804,2.559-0.682,4.74-1.115,7.036c-0.225,1.182-1.17,1.229-1.939,0.438
			c-1.82-1.882-5.025-3.688-3.752-6.474C440.115,656.906,443.39,657.748,445.969,657.986z"/>
		<path fill="#F5C469" d="M418.155,631.373c-0.701-1.113-3.863-0.957-1.899-3.282c1.195-1.409,2.051-3.916,4.668-3.286
			c1.096,0.266,2.973,6.368,2.203,7.125C421.354,633.682,419.828,631.759,418.155,631.373z"/>
		<path fill="#F5C469" d="M438.477,683.227c-1.787-1.623-4.44-3.213-3.059-5.685c1.042-1.862,3.963-1.427,6.146-1.411
			c0.565,0.004-0.035,6.365-0.729,7.264C439.891,684.615,439.15,683.753,438.477,683.227z"/>
		<path fill="#FC8119" d="M300.281,417.088c-2.137,0.096-4.677,1.813-5.779-0.545c-0.492-1.045,1.079-4.408,1.798-4.433
			C299.17,412.005,298.105,415.875,300.281,417.088z"/>
		<path fill="#F5C469" d="M468.512,602.52c-0.995,2.5-3.413,3.953-4.095,6.846c-2.72-1.965-3.192-4.547-3.43-7.137
			c-0.136-1.512,0.872-1.832,2.224-1.371C464.917,601.434,466.647,601.939,468.512,602.52z"/>
		<path fill="#F5C469" d="M449.127,608.455c-2.844-1.471-6.163-1.48-6.154-4.408c0.006-1.355,3.068-3.811,4.502-3.016
			C449.748,602.291,448.849,605.377,449.127,608.455z"/>
		<path fill="#F5C469" d="M224.851,665.506c0.818,0.667,0.343,1.602,0.518,2.396c0.547,2.483,3.678,3.489,5.698,1.84
			c0.638-0.521,1.002-1.492,2.098-0.952c-1.658,3.317-4.193,4.663-6.645,3.216C223.953,670.493,222.815,668.337,224.851,665.506z"/>
		<path fill="#F5C469" d="M261.051,635.963c9.254,5.348,18.507,10.697,27.744,16.037C279.249,647.148,269.7,642.332,261.051,635.963
			z"/>
		<path fill="#F5C469" d="M650.224,243.706c5.136-3.904,6.969-10.075,10.378-15.163c1.307-1.951,2.423-4.028,3.627-6.047
			c-1.875,6.228-6.222,11.146-8.975,16.912C654.241,241.528,653.072,243.648,650.224,243.706z"/>
		<path fill="#F5C469" d="M203.052,426.742c0,0,0.06-0.1,0.059-0.095C203.112,426.652,203.052,426.742,203.052,426.742z"/>
		<polygon fill="#FC8119" points="577.879,197.558 577.906,197.578 578.048,197.535 		"/>
		<path fill="#F5C469" d="M377.537,652.639c-0.544-0.348-0.809-0.811-0.604-1.467C377.485,651.516,377.636,652.027,377.537,652.639z
			"/>
		<path fill="#FC8119" d="M487.318,516.914c0.598-0.605,1.35-0.77,2.164-0.756C489.043,517.219,488.661,518.439,487.318,516.914z"/>
		<path fill="#013F54" d="M175.57,342.627c-0.937,1.622-1.823,3.279-2.825,4.861c-1.902,3.018-5.02,4.075-8.017,2.8
			c-3.154-1.35-4.983-4.701-3.688-7.981c1.783-4.519,3.99-8.926,7.245-12.6c2.494-2.814,5.193-2.903,8.244-0.771
			c2.995,2.094,3.794,4.889,2.171,8.146c-0.945,1.898-2.102,3.689-3.164,5.529C175.55,342.615,175.56,342.622,175.57,342.627z"/>
		<path fill="#013F54" d="M525.602,587.809c1.957,0.065,3.918,0.041,5.867,0.211c11.917,1.037,18.288,12.603,16.901,23.232
			c-1.3,9.975-12.644,18.019-22.801,15.715c-8.85-2.004-14.463-7.889-16.042-17.129C510.188,596.617,513.35,592.281,525.602,587.809
			z M526.091,604.805c-1.364,2.417-0.587,5.389,1.765,6.754c2.703,1.573,5.051,0.783,6.745-2.225
			c1.523-2.695,0.77-4.727-1.772-6.236C530.385,601.648,527.441,602.41,526.091,604.805z"/>
		<path fill="#013F54" d="M470.601,691.141c-1.784-0.902-2.927-2.539-2.747-4.709c0.189-2.324,1.617-3.902,3.957-4.351
			c2.188-0.423,4.417-0.622,6.619-0.978c1.066-0.173,2.587,0.18,3.007-1.065c1.337-3.98,3.79-1.653,5.644-0.935
			c2.401,0.933,3.713,2.835,3.051,5.666c-0.498,2.123-2.119,3.346-3.59,4.66C482.523,693.023,475.133,693.834,470.601,691.141z"/>
		<path fill="#F5C469" d="M525.602,587.809c-12.252,4.473-15.417,8.81-16.074,22.027c-2.931-4.641-1.562-9.328,0.222-13.801
			c1.901-4.778,5.714-7.953,10.122-10.486C522.867,583.833,524.305,585.506,525.602,587.809z"/>
		<path fill="#F5C469" d="M486.129,299.863l-0.031,0.008L486.129,299.863z"/>
		<path fill="#013F54" d="M406.117,488.414c0-0.079,0-0.157,0-0.232c0.027,0.045,0.055,0.09,0.086,0.129
			C406.21,488.305,406.117,488.414,406.117,488.414z"/>
		<path fill="#F5C469" d="M585.135,248.065c0.01-0.679,0.229-0.66,0.588-0.176C585.53,247.953,585.332,248.012,585.135,248.065z"/>
		<path fill="#FC8119" d="M111.589,459.402c0.378-0.947-0.479-2.386,1.006-2.861c1.471-0.475,2.98-1.359,4.541-0.404
			c0.698,0.424,0.425,1.11-0.146,1.482c-1.623,1.06-2.488,4.199-5.338,2.016L111.589,459.402z"/>
		<path fill="#FC8119" d="M112.257,464.941c-0.017-0.923-0.677-2.629,0.3-2.582c2.298,0.108,3.753-2.465,5.861-1.716
			c1.321,0.474,0.26,1.658-0.224,2.452c-1.018,1.675-3.338,1.023-4.48,2.484C113.233,465.369,112.746,465.154,112.257,464.941z"/>
		<path fill="#FC8119" d="M111.654,459.635c-0.549,0.728-1.215,0.804-1.974,0.354l-0.001-0.001c0.498-0.649,1.108-0.929,1.911-0.585
			C111.589,459.402,111.654,459.635,111.654,459.635z"/>
		<path fill="#FC8119" d="M475.014,90.408c-0.85-1.036-1.5-2.278-0.651-3.592c0.774-1.201,2.274-1.227,3.307-0.671
			c1.44,0.777,0.788,2.093,0.121,3.175C477.173,90.322,476.42,91.088,475.014,90.408z"/>
		<path fill="#F5C469" d="M526.091,604.805c1.351-2.395,4.294-3.156,6.737-1.707c2.543,1.508,3.296,3.541,1.772,6.236
			c-1.698,3.008-4.042,3.798-6.745,2.225C525.503,610.193,524.727,607.222,526.091,604.805z"/>
	</g>
</g>
</svg>
