<?xml version="1.0" encoding="utf-8"?>
<!-- Generator: Adobe Illustrator 16.0.3, SVG Export Plug-In . SVG Version: 6.00 Build 0)  -->
<!DOCTYPE svg PUBLIC "-//W3C//DTD SVG 1.1//EN" "http://www.w3.org/Graphics/SVG/1.1/DTD/svg11.dtd">
<svg version="1.1" id="Layer_1" xmlns="http://www.w3.org/2000/svg" xmlns:xlink="http://www.w3.org/1999/xlink" x="0px" y="0px"
	 width="822.047px" height="822.047px" viewBox="0 0 822.047 822.047" enable-background="new 0 0 822.047 822.047"
	 xml:space="preserve">
<rect fill="#013F54" width="822.047" height="822.047"/>
<g>
	<g>
		<path fill="#FC8119" d="M551.254,183.389c-0.693,0.176-1.388,0.354-2.222,0.566c1.116,2.282,3.607,2.705,5.167,4.236
			c0.603,0.596,1.619,0.981,1.199,2.045c-0.332,0.846-1.268,0.673-1.975,0.686c-3.876,0.066-7.749,0.114-11.622,0.115
			c-53.118,0.019-106.236,0.025-159.355,0.044c-2.249,0-4.511-0.104-6.744,0.095c-4.388,0.385-6.647,2.768-6.511,6.604
			c0.133,3.77,2.154,5.503,6.932,5.503c16.749,0.007,33.496-0.117,50.244-0.128c47.992-0.026,95.986,0.104,143.979-0.181
			c6.902-0.041,12.163,1.711,17.35,6.271c14.887,13.079,29.107,26.744,41.187,42.514c9.854,12.861,18.51,26.479,25.447,41.14
			c1.684,3.563,1.402,3.755-2.611,3.736c-20.493-0.092-40.986-0.188-61.479-0.244c-1.484-0.006-3.029,0.077-4.439,0.483
			c-3.382,0.977-5.517,4.223-4.817,7.416c0.737,3.374,3.147,4.989,6.496,5.025c6.249,0.065,12.497-0.015,18.744-0.015
			c16.124-0.002,32.249,0.193,48.366-0.105c5.072-0.094,9.09,0.137,9.82,6.268c-1.879-0.854-3.775,0.059-5.671,0.044
			c-14.201-0.114-28.405-0.083-42.606-0.089c-1.121,0-2.254-0.053-3.36,0.084c-3.84,0.471-5.259,3.426-3.248,6.697
			c0.454,0.74,0.959,1.45,1.439,2.179c-6.188,0.085-12.378,0.188-18.565,0.251c-4.429,0.039-7.633,1.721-8.396,4.718
			c-1,3.945,1.204,6.3,4.354,8.081c1.266,0.768,2.664,0.494,4.015,0.492c25.019-0.001,50.038,0.005,75.055-0.065
			c2.07-0.006,3.894,0.343,5.547,1.563c1.953,6.134,3.341,12.344,4.302,18.753c0.908,6.068,2.008,12.129,2.862,18.23
			c2.142,15.359,2.254,30.771,1.839,46.226c-0.211,7.815-0.696,15.574-2.297,23.24c-12.014,0.819-21.889-2.957-29.697-12.551
			c-6.596-8.105-11.858-16.981-16.742-26.101c-7.432-13.868-14.959-27.766-24.645-40.11c-11.783-15.018-24.953-28.892-42.176-38.021
			c-2.315-1.23-2.767-2.592-1.635-4.767c1.981-3.806,2.863-7.989,3.972-12.075c3.411-12.577,9.598-23.509,19.004-32.551
			c6.874-6.607,11.621-14.018,9.698-24.137c8.249-4.396,7.564-15.395,2.501-22.637c-7.597-10.863-19.628-13.891-32.181-11.167
			c-16.1,3.49-24.738,14.96-30.57,29.282c-3.512,8.63-6.362,17.529-10.621,25.85c-0.277,0.543-0.693,1.015-1.045,1.52
			c-18.207-9.336-37.425-15.756-57.416-19.986c-10.528-2.229-21.164-3.286-31.906-3.896c-12.824-0.726-25.344,0.896-37.855,3.349
			c-4.457,0.872-8.821,3.559-13.506,1.818c-7.107-2.639-13.221-6.748-18.114-12.729c-5.518-6.742-8.538-14.911-13.291-22.101
			c-10.88-16.461-33.373-20.858-48.687-8.155c-5.883,4.88-12.759,9.995-9.694,19.646c0.162,0.51-0.181,1.178-0.286,1.773
			c-0.42,0.22-0.837,0.438-1.25,0.653c0.004-0.001-0.111-0.004-0.111-0.004c-3.791,1.88-7.824,2.68-11.991,2.112
			c-6.2-0.844-11.927,0.392-17.211,3.563c-5.141,3.085-10,2.776-14.465-1.05c-1.895-1.627-2.833-1.216-4.095,0.569
			c-7.153,10.135-8.206,21.058-3.297,32.214c5.396,12.259,15.499,18.432,28.638,19.606c14.592,1.303,27.014-4.227,38.443-12.688
			c1.168-0.864,2.141-2.111,3.705-2.385c1.266,0.185,1.981,0.904,2.201,2.176c0.505,2.944,1.155,5.87,1.541,8.829
			c1.437,11.063,4.174,21.798,8.513,32.057c2.668,6.305,2.829,6.078-2.124,10.74c-1.987,1.872-3.419,1.869-5.43,0.265
			c-2.334-1.867-4.875-3.432-7.806-4.327c-16.781-5.147-32.068-0.388-43.069,13.39c-1.447,1.813-2.65,4.37-5.142,4.632
			c-5.191,0.554-7.836,3.799-9.789,8.071c-12.587-4.362-21.355-1.566-27.153,9.652c-4.731,9.147-3.175,18.443,2.29,26.854
			c7.098,10.924,17.791,14.418,30.343,13.491c-3.787,0.085-3.879,2.56-3.623,5.459c0.257,2.934,1.484,4.613,4.61,4.699
			c4.143,0.116,7.873-1.454,11.491-3.034c3.286-1.437,3.634-0.232,3.354,2.564c-0.549,5.578-1.263,11.159-1.452,16.754
			c-0.487,14.354-0.227,28.695,1.632,42.967c0.266,2.014,0.526,3.937-2.542,3.543c-13.233-1.695-26.492-3.152-39.825-3.879
			c-15.355-0.834-30.125,0.209-42.905,10.409c-3.108,2.478-3.765,4.958-3.211,8.36c0.396,2.438,1.439,4.815,0.615,7.356l0.081-0.255
			c0,0,0.252,0.083,0.25,0.082c-0.669,0.153-0.938,0.615-0.967,1.26c-1.311,2.651-2.809,5.23-3.894,7.976
			c-2.512,6.344-0.06,12.005,6.211,14.585c0.863,0.359,1.528,0.639,1.846,1.593c3.594,10.827,12.161,16.155,22.101,19.971
			c0.458,0.177,0.869,0.483,1.645,0.927c-4.949,1.764-10.055,2.44-14.162,5.612c-0.612,0.476-1.946,0.192-2.902,0.019
			c-3.439-0.628-6.686,0.147-9.057,2.48c-2.488,2.446-3.561,0.985-4.748-0.95c-5.5-8.978-10.515-18.218-15.187-27.652
			c-7.534-15.208-13.353-31.091-17.474-47.503c-4.461-17.785-7.741-35.822-8.198-54.23c0.007-10.67,0.011-21.357,0.014-32.045
			c0.2-11.393,1.961-22.596,4.077-33.756c1.74-9.176,3.7-18.291,6.439-27.242c7.13-23.313,17.034-45.274,30.703-65.55
			c10.174-15.09,21.548-29.132,34.279-42.12c16.742-17.08,35.378-31.787,55.489-44.671c2.089-1.337,4.207-2.626,6.34-3.891
			c4.055-2.406,8.332-3.552,13.166-3.388c8.236,0.28,16.493,0.078,24.739,0.021c6.354-0.045,9.352-3.767,7.364-9.713
			c-0.889-2.666,0.107-3.145,2.133-3.941c12.92-5.082,26.331-8.156,39.978-10.614c21.268-3.832,42.658-4.948,64.137-3.38
			c12.895,0.941,25.729,2.8,38.392,5.682c8.616,1.961,17.173,4.022,25.306,7.515c-0.004,0.327-0.01,0.652-0.015,0.98
			c-2.239-0.001-4.477,0-6.716,0c-31.865-0.004-63.731-0.007-95.6,0.002c-1.496,0-3.021-0.06-4.487,0.176
			c-3.393,0.539-5.788,3.496-5.712,6.828c0.076,3.282,2.688,6.049,6.147,6.397c1.235,0.126,2.495,0.055,3.745,0.056
			c45.489,0.024,90.98,0.048,136.468,0.085c1.494,0.002,2.985,0.156,4.466,0.242c0.918,1.814,2.607,0.923,3.945,1.008
			c5.718,0.367,11.626-0.671,17.398,2.534C549.518,178.282,551.91,181.229,551.254,183.389z M352.53,172.918
			c-0.001-0.014,0-0.023-0.001-0.036c2.125,0,4.253,0.104,6.371-0.023c3.632-0.224,5.65-2.312,5.969-5.954
			c0.323-3.707-1.107-6.002-4.792-6.753c-4.81-0.979-9.728-0.688-14.533,0.024c-3.488,0.52-5.478,3.777-5.065,7.186
			c0.392,3.233,2.864,5.404,6.432,5.544C348.779,172.979,350.657,172.918,352.53,172.918z"/>
		<path fill="#FC8119" d="M659.824,517.035c-13.047,28.875-30.629,54.666-52.391,77.691c-14.445,15.287-30.643,28.334-48.509,39.348
			c-22.319,13.763-46.001,24.456-71.15,31.99c-31.929,9.568-64.511,12.921-97.665,10.598c-20.083-1.406-39.751-5.326-59.039-11.237
			c-6.315-1.933-12.467-4.237-18.662-6.467c-0.981-0.354-1.786-0.858-2.583-1.871c2.144-1.481,4.683-1.972,6.975-2.991
			c8.022-3.566,14.29-9.248,19.436-16.262c0.356-0.487,0.488-1.166,1.259-1.215c2.482-0.836,5.051-1.473,7.433-2.533
			c15.583-6.941,25.801-19.459,33.381-34.021c8.607-16.533,12.121-34.5,11.984-53.163c-0.063-8.747-0.14-17.501,0.064-26.244
			c0.191-8.329,2.993-15.937,7.61-22.796c8.232-12.231,20.725-18.49,34.012-23.303c12.339-4.47,25.047-7.631,37.951-10.18
			c22.066-4.357,44.054-5.473,66.127-0.402c11.393,2.619,22.129,6.777,32.066,13.07c11.375,7.203,22.092,15.361,33.6,22.393
			c13.658,8.34,28.15,13.828,44.055,15.638C650.474,515.613,655.144,516.377,659.824,517.035z"/>
	</g>
	<g>
		<path fill="#FC8119" d="M369.675,473.881c-0.095,0.074-0.184,0.205-0.291,0.22c-4.863,0.751-4.792,0.703-2.093,5.001
			c0.885,1.41,2.233,2.707,2.12,4.617c-0.079,2.074-1.15,2.446-2.962,1.852c-2.516-0.83-5.045-1.689-8.123-1.389
			c2.307,4.58,6.861,7.216,8.207,11.994c-1.182,0.637-2.135-0.262-3.176-0.5c-0.961-0.216-1.886-0.592-2.827-0.9
			c1.823,3.488,3.758,6.928,5.42,10.492c0.586,1.257,1.437,2.67,0.761,4.24c-4.085-2.246-7.696-5.646-13.353-5.508
			c2.655,3.58,6.863,5.363,7.565,9.761c-1.098-0.142-2.193-0.283-3.533-0.455c1.34,4.549,5.209,7.922,6.006,12.683
			c-3.802-0.621-7.099-3.348-11.23-2.783c0.885,3.092,4.764,3.75,5.292,6.979c1.796,5.133,6.01,9.333,5.842,15.22
			c-2.246-2.501-4.566-4.904-8.133-6.443c6.057,12.688,7.464,18.861,5.812,25.669c-1.79-2.599-3.405-5.032-5.122-7.389
			c-0.672-0.915-1.19-2.71-2.684-1.868c-0.98,0.553-0.408,2.066-0.039,3.133c2.605,7.537,2.248,15.231,1.184,22.955
			c-0.165,1.206-0.133,2.918-1.494,3.164c-1.747,0.314-1.96-1.73-2.449-2.795c-1.087-2.362-2.122-4.619-4.912-6.174
			c0.098,1.299,0.207,2.146,0.213,2.996c0.071,9.311,1.031,18.775-4.848,27.029c-1.317,1.85-1.962,4.018-2.574,6.18
			c-2.125-1.184-4.144-2.479-5.105-4.888c-1.82-0.692-2.31,0.426-2.934,1.854c-1.057,2.417-1.344,5.019-2.111,7.487
			c-6.529,20.988-31.222,28.364-48.027,14.111c-3.114-2.639-5.66-3.088-9.385-2.202c-8.676,2.06-10.847,0.346-12.319-8.313
			c-0.391-2.291,0.02-4.889-1.657-6.943c-1.207,0.723-1.211,1.793-1.487,2.73c-3.586,12.086-5.811,13.499-18.322,11.625
			c-0.492-0.072-0.982-0.186-1.467-0.301c-4.743-1.145-4.862-1.432-3.109-6.03c2.074-5.442,3.292-11.047,3.017-16.952
			c-2.107,4.829-4.777,9.289-7.154,13.904c-1.488,2.885-7.137,6.681-10.313,6.195c-10.733-1.639-19.954-5.671-24.52-16.503
			c-0.476-1.121-1.239-2.555-2.27-1.889c-4.089,2.648-5.748-0.892-7.872-2.896c-3.116-2.938-4.808-11.006-3.271-14.371
			c6.143-3.365,12.907-5.107,19.472-7.332c12.831-4.351,25.956-7.849,39.252-10.174c13.072-2.284,26.212-4.639,39.566-5.022
			c4.973-0.141,9.951-0.75,14.894-0.935c10.189-0.377,20.422,0.047,30.3,3.142c3.547,1.11,7.177,1.081,10.749,0.717
			c4.267-0.438,6.584-4.374,5.841-9.201c-0.323-2.086-0.64-4.177-0.954-6.265c0.921-1.205,3.185-1.85,2.288-3.816
			c-0.736-1.611-2.66-0.94-4.097-1.055c-3.859-0.305-7.733-0.557-11.479-1.6c-11.729-3.26-22.393-9.119-33.493-13.893
			c-11.689-5.023-23.379-10-35.589-13.634c-12.775-3.8-25.604-7.423-38.693-9.991c-2.595-0.508-5.538-1.528-8.001,0.76
			c-3.22-0.3-6.442-0.58-9.661-0.921c-0.689-0.074-1.625-0.036-1.74-1.026c-0.105-0.881,0.716-1.356,1.271-1.719
			c5.379-3.515,11.242-6.004,17.671-6.325c16.252-0.813,32.417,0.605,48.567,2.339c12.403,1.33,24.659,3.412,36.729,6.543
			c11.666,3.023,22.051,8.218,29.488,18.105c2.221,2.953,4.126,6.145,5.214,9.734c0.285,0.935,0.338,2.077,1.566,2.319
			c1.394,0.274,2.066-0.839,2.627-1.744c1.167-1.884,2.043-3.826,2.245-6.189c1.062-12.476-5.027-21.621-13.348-29.889
			c-4.125-4.101-9.452-6.304-14.979-9.821c9.372-3.766,17.331-0.404,25.436,2.225c-2.509-3.998-11.372-10.009-17.045-11.744
			c-5.129-1.567-10.307-2.823-15.673-3.248c-0.774-0.062-2.004,0.203-2.131-0.978c-0.102-0.925,0.789-1.443,1.55-1.938
			c2.554-1.658,5.295-2.794,8.355-2.911c3.24-0.124,6.492-0.013,9.728-0.19c3.163-0.174,5.977,1.627,9.843,1.564
			c-8.625-8.738-19.494-10.182-31.072-12.364c11.057-8.154,21.956-5.187,33.021-2.213c-2.122-3.561-8.209-7.8-12.767-9.26
			c-5.105-1.638-10.15-3.434-15.629-3.386c-1.048,0.011-2.563-0.031-2.699-1.435c-0.142-1.453,1.423-1.745,2.404-1.83
			c7.198-0.632,14.301-2.728,21.534-2.22c3.88,0.27,7.59,2.142,11.18,3.832c0.018-0.047,0.043-0.093,0.067-0.142
			c-0.064,0.04-0.134,0.078-0.201,0.116c-1.435-3.354-4.542-5.111-7.133-7.333c-1.364-1.168-2.115-2.427-0.71-3.727
			c4.584-4.236,5.681-10.001,7.149-15.61c0.645-2.462,1.479-5.481,3.771-6.012c2.554-0.587,3.478,2.689,4.66,4.566
			c2.109,3.351,3.536,7.102,5.948,10.295c3.136,4.151,7.119,7.115,11.875,9.215c2.703,1.193,3.174,0.047,2.76-2.194
			c-2.002-10.78-5.87-20.804-12.314-29.754c0.367-4.853-2.373-7.975-6.16-10.155c-4.353-2.504-8.993-2.188-13.148,0.451
			c-7.234,4.596-12.198,11.176-15.303,19.119c-2.265,5.791-5.042,10.939-12.049,11.853c1.678-1.771,3.586-3.322,4.734-5.569
			c0.508-0.996,1.521-1.932,1.021-3.049c-0.625-1.387-2.002-0.469-3.012-0.457c-5.032,0.064-6.482-0.678-8.896-5.141
			c7.213,0.791,12.872-1.928,16.918-7.482c2.024-2.771,3.197-6.158,4.863-9.206c8.575-15.708,21.885-17.273,36.24-10.731
			c8.229,3.75,15.105,9.691,20.563,16.852c5.036,6.605,7.916,14.357,8.473,22.751c0.254,3.851,0.043,7.727,0.044,12.437
			c3.829-2.632,4.973-6.162,5.91-9.342c4.004-13.525,1.27-25.906-7.526-36.85c-7.121-8.859-16.18-15.353-26.627-19.646
			c-6.033-2.479-10.479-7.561-16.807-9.439c-1.463-0.434-1.268-1.485,0.18-2.306c5.391-3.057,10.705-1.646,15.769,0.538
			c9.526,4.107,17.646,10.29,24.614,18.043c-0.687-3.65-5.758-11.176-9.772-15.563c-4.522-4.943-9.385-9.305-15.427-12.318
			c-1.782-0.89-1.698-1.57,0.223-2.989c5.898-4.36,10.994-2.751,15.955,1.31c4.021,3.291,8.011,6.636,11.808,10.18
			c3.788,3.532,7.098,7.534,10.443,12.113c0.116-3.789-1.848-6.512-3.121-9.297c-3.57-7.794-8.125-14.986-14.865-20.53
			c-1.738-1.431-1.444-2.024,0.592-2.949c7.286-3.305,11.478-2.02,16.102,5.267c4.087,6.44,6.819,13.5,9.085,20.712
			c4.152,13.218,10.125,25.421,19.675,35.572c7.013,7.453,14.935,13.77,25.214,16.174c4.781,1.118,9.629,1.61,14.107-1.29
			c7.793-0.393,12.955-2.211,14.979-5.314c-16.894-1.916-32.264-7.444-45.194-18.818c-0.231-0.205-0.716-0.123-1.081-0.177
			c-9.039-11.714-14.107-25.118-17.141-39.468c-1.75-8.271-1.813-16.6-1.705-24.963c0.145-11.288,2.582-21.941,8.994-31.43
			c4.897-7.249,11.455-11.941,20.371-12.879c11.303-1.19,21.992,1.433,32.545,5.089c11.145,3.861,22.117,8.146,33.096,12.438
			c2.514,0.981,5.326,1.423,8.039,1.62c5.608,0.414,9.467-2.395,12.604-6.939c7.228-10.48,11.811-22.331,17.778-33.457
			c3.621-6.747,7.495-13.072,14.561-16.825c5.011-2.664,10.069-2.922,16.391-1.122c-6.339,3.914-9.45,9.6-13.279,14.697
			c-0.663,0.881-1.416,1.434-0.163,2.373c3.544,2.654,2.059,4.501-0.644,6.933c-10.081,9.075-15.604,20.938-19.743,33.57
			c-0.617,1.88-1.326,3.728-1.991,5.597c-1.139-0.91-1.136-0.908-2.003,0.533c-3.021,5.03-5.844,10.228-10.861,13.662
			c-4.127,2.816-9.486,4.26-12.943,1.137c-4.365-3.941-7.529-3.524-12.553-1.924c-6.619,2.107-13.577,0.511-20.198-1.754
			c-10.581-3.615-19.572-9.818-28.013-16.953c-0.707-0.598-1.267-1.598-2.688-1.111c0.566,2.143,1.134,4.271,1.697,6.4
			c-0.104,5.598,2.134,10.455,5.143,14.922c1.843,2.734,0.82,3.726-1.76,4.375c-2.281,0.575-4.563,1.137-7.469,1.856
			c4.807,2.901,9.518,3.276,14.326,3.009c3.777-0.212,7.315-0.277,10.381,2.74c1.495,1.475,1.072,1.92,0.03,3.182
			c-3.134,3.797-7.681,5.248-11.786,7.429c-1.422,0.755-2.975,1.261-4.44,1.869c5.228,2.187,9.476,0.306,16.117-0.804
			c2.886-0.479,5.847-1.289,8.323-3.155c1.691-1.271,3.311-1.214,4.306,0.849c0.92,1.912,3.291,3.542,0.616,6.112
			c-6.05,5.815-13.279,9.499-20.997,12.423c-0.693,0.263-1.396,0.504-2.051,0.962c7.821,0.364,15.528,0.116,22.673-3.747
			c1.082-0.585,2.24-1.182,3.43-1.371c1.687-0.266,2.781-4.256,5.031-0.885c2.494,3.742,2.291,6.551-0.162,9.064
			c-3.706,3.795-8.718,5.079-13.255,7.277c-1.062,0.519-2.412,0.494-3.327,1.879c6.324,0.645,12.381,0.409,18.3-1.303
			c2.741-0.794,3.866-0.58,4.15,2.782c0.796,9.495-1.116,18.56-3.819,27.809c2.619-1.489,2.619-1.489,6.166-9.06
			c1.157,5.24,0.53,10.139,0.715,15.803c7.503-6.402,11.359-13.923,13.564-22.656c2.18-8.625,1.348-17.343,1.473-26.128
			c13.919,6.272,25.395,34.538,13.658,60.681c7.062-7.076,11.979-14.393,14.731-23.26c2.32-7.476,3.305-14.983,2.633-22.753
			c-0.083-0.962-0.438-2.311,0.474-2.796c1.162-0.617,1.953,0.662,2.707,1.381c10.342,9.823,13.682,22.147,12.707,35.965
			c-0.34,4.814-1.188,9.542-3.164,14.058c11.711-7.599,16.188-18.827,15.983-32.476c12.473,7.305,14.802,27.563,5.761,49.488
			c5.73-1.066,8.79-5.104,12.256-8.543c3.772-3.74,4.027-9.23,6.636-13.613c9.032,8.799,8.669,20.729-1.237,38.367
			c7.414-1.55,11.778-6.488,15.797-11.893c0.726-0.977,1.36-2.789,2.096-2.822c1.376-0.059,1.872,1.656,2.442,2.863
			c3.183,6.745,1.958,13.288-0.903,19.756c-0.686,1.545-1.992,2.854-1.957,5.063c6.417-1.479,10.273-5.717,12.97-10.969
			c1.146-2.23,1.729-2.072,3.358-0.781c4.933,3.889,5.83,10.434,2.339,18.072c-0.252,0.555-0.548,1.088-0.882,1.74
			c4.751-0.998,9.201-5.084,10.718-10.127c0.696-2.306,1.449-2.765,3.618-1.5c6.063,3.539,6.627,5.208,4.381,14.775
			c3.955-0.763,7.856-4.715,9.51-9.713c0.414-1.242,0.231-2.907,2.28-2.755c1.819,0.134,3.853-0.204,4.842,1.942
			c0.728,1.582,1.342,3.213,2.073,4.795c1.033,2.221,2.353,2.436,3.825,0.395c1.515-2.102,2.042-4.533,2.133-7.063
			c0.063-1.798,0.771-2.867,2.683-2.812c8.295,0.24,14.009-5.305,20.406-9.225c2.597-1.592,4.813-3.803,7.203-5.731
			c-5.127,9.32-12.803,16.323-20.914,22.905c-5.603,4.55-12.349,7.045-18.914,9.641c-10.098,3.988-20.787,3.822-31.383,2.691
			c-2.384-0.256-6.246-0.611-5.121-5.113c0.241-0.553,0.148-0.752-0.445-0.421c-5.294,1.706-10.584,1.685-15.779-0.293
			c-5.367-2.041-5.748-3.118-3.032-7.518c-1.388-0.899-2.896-0.347-4.339-0.367c-5.467-0.077-10.192-2.097-14.299-5.594
			c-1.729-1.472-2.164-2.978,0.282-4.401c1.441-0.84,2.926-1.779,3.991-3.512c-1.628-0.765-2.929-0.156-4.165,0.179
			c-2.577,0.696-5.183,0.736-7.806,0.61c-0.964-0.047-2.309,0.021-2.264-1.352c0.068-2.309-1.559-2.582-3.123-2.982
			c-1.724-0.44-3.251-1.275-4.701-2.256c-2.227-1.503-2.303-2.934,0.396-3.886c1.596-0.565,3.001-1.136,3.158-3.272
			c-2.199,0.018-4.229,0.262-6.24,1.002c-2.602,0.959-5.344,1.243-8.104,1.051c-0.936-0.064-2.499-0.227-1.858-1.59
			c1.682-3.592-0.825-3.261-2.941-3.568c-1.594-0.234-3.156-0.707-4.742-1.035c-2.927-0.604-3.1-1.626-1.105-3.916
			c2.361-2.713,4.896-5.569,4.203-9.93c-1.955,1.395-3.403,3.233-5.107,4.789c-5.858,5.35-11.883,6.473-17.809,3.629
			c-2.684-1.289-3.832-2.729-2.195-5.805c1.62-3.043,3.269-6.201,3.193-9.846l0.021,0.021c-2.26,0.678-3.055,2.832-4.342,4.438
			c-3.396,4.24-7.654,7.103-12.865,8.555c-0.693,0.193-1.545,0.56-2.108-0.109c-0.603-0.717-0.039-1.406,0.452-1.963
			c0.817-0.927,2.188-2.018,1.229-3.143c-1.164-1.369-2.852-0.346-4.104,0.365c-2.969,1.689-6.09,2.596-10.044,2.691
			c4.091-6.051,6.624-12.128,5.436-19.236c-0.269,0.102-0.453,0.117-0.481,0.188c-0.273,0.697-0.49,1.421-0.778,2.11
			c-3.25,7.805-7.47,14.654-16.277,17.291c-3.853,1.154-4.28,1.004-3.685-2.869c0.514-3.326,0.144-6.479-0.999-10.277
			c-0.703,1.553-1.054,2.473-1.518,3.334c-2.367,4.4-4.55,8.95-9.44,11.256c-2.172,1.021-3.168,1.016-2.789-1.965
			c0.373-2.92,1.004-5.984-0.391-9.438c-0.871,1.582-1.434,2.688-2.072,3.745c-2.021,3.345-4.301,6.39-7.948,8.229
			c-2.441,1.23-3.646,0.773-4.208-1.947c-0.531-2.555-1.006-5.164-2.402-7.452c-0.398-0.651-0.851-1.308-1.754-1.013
			c-0.717,0.234-0.721,0.947-0.801,1.551c-0.271,1.977-0.385,3.984-0.799,5.932c-0.72,3.366-2.57,4.313-5.367,2.51
			c-2.589-1.668-5.002-3.598-6.861-6.198c-2.099-2.935-3.724-6.261-6.99-9.491c0.172,1.689,0.189,2.423,0.328,3.133
			c0.825,4.168,1.624,8.366,1.445,12.617c-0.075,1.726,0.145,4.049-1.99,4.9c-2.072,0.824-3.852-0.267-5.479-1.572
			c-3.06-2.451-5.246-5.669-7.743-8.615c-2.217-2.617-4.066-5.59-6.957-7.626c-0.752,0.963-0.15,1.616,0.043,2.302
			c1.596,5.628,3.768,11.129,3.67,17.127c-0.086,5.163-2.814,6.723-7.253,3.93c-3.065-1.933-5.729-4.395-8.173-7.103
			c-2.047-2.263-3.611-5.022-6.463-6.817c-0.746,1.527-0.037,2.663,0.266,3.801c1.23,4.58,2.7,9.117,2.793,13.922
			c0.131,6.711-2.896,9.1-9.441,7.564c-5.041-1.188-8.965-4.242-12.734-7.535c-2.186-1.904-4.036-4.231-7.069-5.445
			c0.152,2.172,1.33,3.539,2.082,5.07c2.532,5.16,5.244,10.239,5.921,16.084c0.441,3.808-0.708,5.188-4.515,4.877
			c-4.89-0.398-9.54-1.873-14.132-3.525c-1.724-0.624-3.413-1.371-6.243-0.809C364.55,467.336,367.638,470.213,369.675,473.881z
			 M288.097,595.742c-7.214,5.985-9.502,13.787-6.812,22.456c3.083,9.946,15.721,15.75,25.009,11.891
			c9.898-4.116,16.729-15.417,11.669-26.255c-0.828-1.773-1.83-3.461-2.75-5.188c1.347-2.271,2.075-4.355-0.909-6.088
			c-4.397-2.556-9.054-4.27-14.144-3.526C295.395,589.725,290.65,590.879,288.097,595.742z M198.224,602.679
			c-0.063,5.272,4.331,11.267,9.452,12.949c1.874,0.616,3.744,1.409,5.831,0.778c2.782-0.842,3.774-2.929,3.381-5.475
			c-0.304-1.964,0.484-5.252-3.631-4.42c-1.288,0.259-1.744-1.232-2.426-2.071c-1.409-1.729-2.696-3.56-4.156-5.244
			c-1.561-1.801-3.639-2.249-5.747-1.252C198.959,598.875,198.112,600.683,198.224,602.679z"/>
		<path fill="#F5C469" d="M659.824,517.035c-4.681-0.658-9.353-1.424-14.047-1.956c-15.903-1.811-30.399-7.298-44.055-15.64
			c-11.508-7.027-22.226-15.186-33.602-22.391c-9.938-6.292-20.67-10.451-32.065-13.07c-22.072-5.07-44.057-3.953-66.124,0.402
			c-12.908,2.548-25.616,5.711-37.955,10.179c-13.286,4.814-25.775,11.073-34.01,23.305c-4.615,6.86-7.421,14.466-7.611,22.795
			c-0.203,8.744-0.129,17.497-0.065,26.243c0.138,18.662-3.376,36.632-11.984,53.164c-7.577,14.564-17.798,27.078-33.381,34.02
			c-2.379,1.063-4.947,1.699-7.433,2.535c2.102-5.962,4.831-11.058,10.244-15.266c15.604-12.131,25.145-28.366,29.462-47.723
			c2.878-12.902,3.144-25.949,2.988-39.061c-0.122-10.111-0.024-20.195,3.337-29.935c6.209-17.998,19.288-29.312,36.396-35.962
			c29.927-11.632,60.767-19.284,93.214-18.139c21.043,0.744,40.861,6.002,58.816,17.266c7.412,4.652,14.705,9.543,21.756,14.73
			c21.021,15.473,43.97,24.926,70.908,23.163C664.061,510.178,661.105,513.27,659.824,517.035z"/>
		<path fill="#F5C469" d="M369.675,473.881c-2.037-3.668-5.125-6.545-8.394-10.018c2.83-0.562,4.523,0.186,6.246,0.807
			c4.59,1.656,9.242,3.131,14.128,3.527c3.808,0.311,4.958-1.07,4.516-4.873c-0.677-5.849-3.389-10.929-5.92-16.086
			c-0.752-1.533-1.928-2.9-2.082-5.071c3.03,1.214,4.883,3.538,7.066,5.444c3.772,3.293,7.695,6.35,12.736,7.535
			c6.545,1.535,9.572-0.854,9.441-7.563c-0.094-4.806-1.563-9.341-2.792-13.924c-0.304-1.139-1.013-2.273-0.268-3.799
			c2.853,1.792,4.415,4.557,6.464,6.82c2.444,2.703,5.104,5.166,8.173,7.098c4.44,2.793,7.168,1.234,7.251-3.926
			c0.1-6-2.073-11.502-3.668-17.132c-0.195-0.681-0.795-1.337-0.043-2.3c2.892,2.037,4.737,5.01,6.957,7.625
			c2.498,2.946,4.685,6.166,7.743,8.615c1.628,1.311,3.409,2.398,5.479,1.574c2.136-0.852,1.919-3.176,1.989-4.899
			c0.181-4.252-0.617-8.452-1.442-12.619c-0.141-0.71-0.157-1.444-0.329-3.132c3.27,3.229,4.895,6.557,6.99,9.49
			c1.861,2.6,4.275,4.529,6.861,6.197c2.798,1.803,4.648,0.859,5.367-2.51c0.414-1.945,0.529-3.953,0.798-5.929
			c0.083-0.606,0.085-1.32,0.802-1.554c0.902-0.295,1.354,0.363,1.754,1.014c1.396,2.289,1.871,4.899,2.401,7.452
			c0.563,2.724,1.768,3.179,4.211,1.947c3.646-1.841,5.93-4.886,7.945-8.23c0.642-1.06,1.201-2.163,2.075-3.745
			c1.392,3.455,0.76,6.521,0.388,9.439c-0.379,2.98,0.618,2.986,2.792,1.963c4.891-2.303,7.072-6.854,9.438-11.256
			c0.464-0.86,0.815-1.781,1.517-3.33c1.143,3.797,1.516,6.948,1.001,10.274c-0.597,3.872-0.169,4.022,3.685,2.868
			c8.807-2.637,13.026-9.484,16.274-17.291c0.29-0.69,0.508-1.411,0.778-2.107c0.03-0.075,0.215-0.09,0.484-0.192
			c1.186,7.108-1.346,13.19-5.436,19.239c3.951-0.098,7.072-1.002,10.043-2.691c1.253-0.713,2.939-1.736,4.105-0.367
			c0.955,1.125-0.411,2.217-1.229,3.143c-0.492,0.558-1.058,1.247-0.454,1.964c0.563,0.669,1.416,0.304,2.108,0.109
			c5.211-1.455,9.471-4.313,12.866-8.554c1.285-1.607,2.083-3.76,4.341-4.439l-0.021-0.022c0.074,3.647-1.572,6.806-3.191,9.848
			c-1.64,3.076-0.491,4.517,2.193,5.808c5.924,2.842,11.949,1.717,17.81-3.633c1.706-1.557,3.152-3.393,5.106-4.789
			c0.692,4.361-1.841,7.219-4.204,9.929c-1.993,2.293-1.819,3.313,1.106,3.921c1.584,0.325,3.147,0.797,4.743,1.031
			c2.116,0.311,4.622-0.024,2.94,3.568c-0.641,1.365,0.923,1.525,1.856,1.592c2.763,0.191,5.502-0.092,8.104-1.053
			c2.012-0.74,4.043-0.981,6.243-1.002c-0.157,2.139-1.563,2.71-3.159,3.271c-2.701,0.953-2.623,2.385-0.397,3.888
			c1.448,0.979,2.977,1.813,4.702,2.257c1.563,0.4,3.192,0.675,3.121,2.983c-0.043,1.369,1.301,1.302,2.268,1.349
			c2.622,0.126,5.229,0.088,7.803-0.609c1.238-0.332,2.538-0.942,4.166-0.181c-1.065,1.732-2.549,2.675-3.992,3.513
			c-2.445,1.424-2.01,2.932-0.281,4.403c4.106,3.497,8.83,5.515,14.299,5.594c1.444,0.021,2.951-0.534,4.336,0.366
			c-2.714,4.4-2.33,5.477,3.035,7.518c5.194,1.977,10.484,1.997,15.778,0.293c0.146,0.145,0.296,0.287,0.449,0.424
			c-1.128,4.5,2.733,4.855,5.118,5.111c10.597,1.131,21.287,1.297,31.382-2.693c6.567-2.594,13.31-5.09,18.915-9.637
			c8.111-6.586,15.788-13.588,20.914-22.907c1.672-1.915,2.836-4.359,5.871-5.634c-2.875,11.381-8.029,21.063-15.953,28.986
			c-19.73,19.74-43.646,22.852-69.57,16.396c-15.827-3.942-29.027-13.063-42.049-22.426c-10.141-7.291-20.419-14.377-31.99-19.307
			c-16.866-7.179-34.432-11.311-52.8-10.963c-36.274,0.688-71.041,8.46-104.086,23.463c-10.271,4.664-18.761,11.875-25.435,21.03
			c-1.272,1.739-1.738,1.51-2.923,0.07C374.693,479.372,372.144,476.658,369.675,473.881z"/>
		<path fill="#F5C469" d="M597.458,255.557c1.923,10.118-2.823,17.527-9.697,24.135c-9.407,9.043-15.595,19.975-19.007,32.554
			c-1.107,4.086-1.988,8.269-3.969,12.075c-1.133,2.175-0.682,3.535,1.633,4.764c17.225,9.135,30.395,23.006,42.176,38.021
			c9.686,12.349,17.213,26.243,24.646,40.112c4.884,9.118,10.146,17.993,16.741,26.099c7.811,9.596,17.684,13.371,29.697,12.551
			c-0.121,0.985-0.243,1.973-0.363,2.961l0.004-0.035c-0.562,7.816-0.558,7.767-8.294,7.273
			c-13.931-0.89-23.788-8.553-31.884-19.117c-7.623-9.947-13.49-20.984-19.545-31.898c-10.332-18.625-21.868-36.359-37.283-51.303
			c-9.233-8.949-19.847-15.855-31.26-21.627c-1.149-0.579-2.943-0.996-1.271-2.793c6.458-6.939,8.025-15.979,10.746-24.557
			c3.943-12.426,9.778-23.707,19.872-32.44c4.291-3.718,8.477-7.698,5.666-14.42c-0.605-1.45,0.583-2.549,1.943-3.206
			C591.332,253.099,594.5,253.139,597.458,255.557z"/>
		<path fill="#F5C469" d="M294.784,238.125c0.105-0.598,0.448-1.268,0.287-1.773c-3.063-9.65,3.813-14.769,9.692-19.647
			c15.316-12.702,37.81-8.304,48.689,8.155c4.751,7.188,7.77,15.357,13.29,22.102c4.895,5.977,11.007,10.091,18.113,12.728
			c4.686,1.741,9.049-0.943,13.508-1.816c12.512-2.452,25.029-4.072,37.855-3.349c10.744,0.607,21.377,1.662,31.908,3.896
			c19.99,4.229,39.205,10.649,57.416,19.987c-0.079,0.361-0.072,0.771-0.248,1.08c-5.065,8.935-2.856,8.147-11.732,4.521
			c-15.256-6.236-30.592-12.273-46.832-15.37c-25.563-4.875-51.092-5.4-76.312,2.224c-2.938,0.891-5.437-0.015-7.97-0.932
			c-14.096-5.109-24.769-14.114-31.434-27.713c-2.519-5.146-5.051-10.3-8.875-14.689c-8.288-9.516-20.628-10.583-30.367-2.626
			c-3.425,2.797-6.053,6.272-8.773,9.68C300.873,237.248,298.517,239.234,294.784,238.125z"/>
		<path fill="#F5C469" d="M185.672,501.745c0.822-2.539-0.221-4.918-0.616-7.356c-0.554-3.4,0.104-5.882,3.21-8.358
			c12.781-10.198,27.552-11.244,42.909-10.409c13.332,0.726,26.588,2.184,39.822,3.879c3.071,0.395,2.807-1.528,2.544-3.543
			c-1.859-14.271-2.119-28.614-1.632-42.967c0.189-5.595,0.903-11.175,1.453-16.754c0.276-2.798-0.068-4.001-3.354-2.564
			c-3.619,1.58-7.351,3.148-11.492,3.035c-3.127-0.087-4.354-1.77-4.61-4.701c-0.255-2.9-0.163-5.373,3.624-5.459
			c12.027-1.598,21.232-8.02,28.89-17.086c1.608-1.905,3.427-3.635,5.008-5.559c1.292-1.57,1.604-0.969,2.475,0.478
			c2.177,3.626,2.309,6.38-0.708,10.06c-8.317,10.146-9.994,22.679-10.696,35.214c-1.085,19.337,0.074,38.595,3.31,57.711
			c0.199,1.178,0.024,2.42,0.025,4.008c-14.669-1.577-29.328-3.535-44.048-4.616c-12.003-0.878-24.151-2.39-35.996,1.723
			c-7.286,2.529-13.758,6.18-18.598,12.335C186.776,501.34,186.345,501.707,185.672,501.745z"/>
		<path fill="#F5C469" d="M252.048,356.551c1.954-4.273,4.598-7.521,9.791-8.069c2.489-0.264,3.691-2.818,5.14-4.633
			c11.003-13.777,26.288-18.537,43.072-13.39c2.928,0.896,5.468,2.46,7.803,4.326c2.013,1.604,3.442,1.608,5.432-0.265
			c4.952-4.662,4.792-4.437,2.124-10.739c-4.339-10.26-7.075-20.992-8.512-32.058c-0.388-2.96-1.038-5.884-1.545-8.828
			c-0.218-1.271-0.933-1.992-2.197-2.175c3.033-3.068,6.064-6.135,9.213-9.318c2.462,2.681,2.955,5.96,3.345,9.061
			c2.238,17.702,6.116,34.88,15.186,50.511c0.758,1.304,0.255,1.854-0.8,2.691c-6.546,5.189-13.057,10.447-18.545,16.791
			c-1.958,2.264-2.377,0.192-3.157-0.828c-8.175-10.73-20.376-14.01-31.806-8.461c-6.227,3.021-10.49,8.33-15.105,13.203
			c-2.487,2.624-4.776,5.436-7.306,8.015c-2.209,2.257-4.787,3.998-8.095,4.261c-2.474,0.194-3.764-0.863-3.739-3.43
			C252.367,360.99,252.993,358.733,252.048,356.551z"/>
		<path fill="#F5C469" d="M603.43,148.896c22.729,0,45.457,0,68.184,0.001c1.248-0.001,2.503-0.051,3.746,0.041
			c2.629,0.189,4.06,1.789,4.457,4.263c0.399,2.494-1.082,3.945-3.158,4.939c-1.535,0.734-3.177,0.543-4.791,0.543
			c-45.58,0.008-91.16,0.01-136.741,0.003c-1.614-0.001-3.245,0.137-4.812-0.472c-2.385-0.925-3.695-2.63-3.377-5.189
			c0.318-2.563,1.997-3.98,4.566-4.088c2.615-0.105,5.242-0.02,7.865-0.018c21.352,0,42.706-0.001,64.061-0.002
			C603.43,148.91,603.43,148.904,603.43,148.896z"/>
		<path fill="#F5C469" d="M179.943,588.481c-1.542,3.365,0.15,11.432,3.271,14.371c2.125,2.005,3.782,5.544,7.874,2.895
			c1.024-0.664,1.791,0.769,2.267,1.89c4.564,10.83,13.786,14.865,24.519,16.502c3.175,0.486,8.823-3.311,10.312-6.195
			c2.379-4.612,5.048-9.076,7.157-13.901c0.271,5.901-0.944,11.508-3.018,16.95c-1.755,4.598-1.634,4.884,3.107,6.03
			c0.483,0.116,0.975,0.229,1.468,0.303c12.513,1.872,14.735,0.459,18.321-11.627c0.278-0.938,0.281-2.006,1.487-2.729
			c1.678,2.056,1.269,4.65,1.659,6.943c1.473,8.658,3.645,10.372,12.316,8.314c3.73-0.887,6.271-0.439,9.387,2.199
			c16.806,14.252,41.498,6.878,48.026-14.111c0.771-2.471,1.059-5.068,2.112-7.488c0.624-1.428,1.113-2.545,2.932-1.851
			c-1.395,7.726-2.821,15.399-7.03,22.278c-11.38,18.598-36.014,19.193-48.082,5.876c-1.153-1.273-2.271-1.8-4.238-1.284
			c-10.784,2.838-21.719,2.891-32.825,2.11c-5.913-0.417-11.832-0.621-17.743-1.358c-21.103-2.633-38.998-15.854-43.746-37.078
			c-0.403-1.805-1.12-3.541-1.726-5.298C177.023,590.105,177.691,588.839,179.943,588.481z"/>
		<path fill="#F5C469" d="M214.794,148.922c17.5,0,35-0.001,52.499,0.004c1-0.001,2.005-0.015,2.997,0.081
			c3.06,0.294,5.023,2.061,4.953,5.06c-0.072,3.063-2.173,4.567-5.289,4.565c-11.749-0.008-23.5,0.013-35.248,0.015
			c-23.875,0.002-47.75,0.001-71.624-0.001c-0.876-0.001-1.755,0.025-2.624-0.054c-3.229-0.294-5.566-2.443-5.32-5.136
			c0.308-3.349,2.368-4.561,5.659-4.546c17.997,0.07,35.998,0.033,53.997,0.033C214.794,148.938,214.795,148.929,214.794,148.922z"
			/>
		<path fill="#FC8119" d="M267.59,273.739c12.269-1.148,23.064-5.677,31.827-14.426c5.728-5.719,11.539-11.417,15.964-18.275
			c2.938-4.556,7.604-7.267,11.679-6.318c3.758,0.874,5.919,3.912,7.827,6.834c4.745,7.271,7.932,15.094,7.041,24.07
			c-0.081,0.794-0.466,1.729,0.442,2.483c2.47-0.676,2.354-3.244,3.473-4.888c2.979,1.927,3.335,5.791,0.823,8.824
			c-0.389,0.472-0.821,0.966-1.338,1.269c-6.372,3.733-5.818,4.12-8.385-2.392c-2.419-6.143-5.834-11.749-9.729-17.109
			c-2.033-2.799-3.509-2.271-5.604-0.312c-4.485,4.191-8.25,9.188-13.634,12.392c-2.343-4.121-2.346-4.126-6.397-1.197
			c-1.113,0.804-2.179,1.665-3.295,2.462C289.006,273.786,278.917,276.651,267.59,273.739z"/>
		<path fill="#F5C469" d="M652.061,197.912c14.109,0,28.221-0.007,42.332,0.006c1.249,0.001,2.502,0.025,3.74,0.158
			c3.436,0.354,5.665,2.365,5.267,5.02c-0.483,3.224-2.733,4.496-5.841,4.496c-16.357-0.004-32.719-0.012-49.077-0.007
			c-13.361,0.004-26.723,0.021-40.085,0.036c-0.377,0-0.752,0.053-1.124,0.018c-3.052-0.287-6.36-3.123-6.171-5.27
			c0.242-2.732,2.797-4.488,6.754-4.494c14.732-0.023,29.469-0.01,44.205-0.011C652.061,197.883,652.061,197.896,652.061,197.912z"
			/>
		<path fill="#F5C469" d="M551.254,183.389c0.656-2.159-1.736-5.106,2.162-6.514c-5.771-3.207-11.682-2.168-17.396-2.535
			c-1.339-0.086-3.029,0.807-3.947-1.008c29.747,0.058,59.48,0.107,89.215,0.177c10.494,0.023,20.987,0.052,31.48,0.167
			c2.198,0.023,4.512-0.507,6.58,0.775c-5.102,0.007-10.202,0.064-15.303-0.012c-2.098-0.031-2.828,0.609-2.605,2.845
			c0.202,2.04,1.343,4.563-1.498,5.929c-12.099,0.066-24.195,0.176-36.291,0.195C586.186,183.436,568.719,183.396,551.254,183.389z"
			/>
		<path fill="#F5C469" d="M209.996,510.182c2.464-2.286,5.407-1.267,8.003-0.756c13.086,2.566,25.917,6.188,38.691,9.988
			c12.21,3.633,23.898,8.61,35.589,13.635c11.101,4.771,21.767,10.633,33.493,13.891c3.748,1.042,7.619,1.294,11.48,1.602
			c1.436,0.112,3.357-0.561,4.094,1.053c0.902,1.969-1.366,2.613-2.288,3.818c-5.972,3.288-11.953,1.89-17.697-0.381
			c-14.522-5.739-28.475-12.759-42.562-19.46c-18.633-8.863-37.782-16.286-57.806-21.286
			C217.412,511.391,213.65,510.965,209.996,510.182z"/>
		<path fill="#FC8119" d="M238.91,373.903c-0.488-1.049,0.146-1.863,0.715-3.249c1.454,3.284,3.4,5.77,6.065,7.575
			c7.46,5.06,14.8,3.001,21.688-1.015c7.827-4.563,13.061-12.115,19.534-18.247c2.162-2.047,4.199-4.222,6.994-5.429
			c3.167-1.373,7.577-0.523,9.663,1.833c2.855,3.223,3.309,6.798,1.297,10.336c-0.178,0.313-0.448,0.571-0.674,0.855
			c-1.303,1.615-1.805,4.616-3.648,4.83c-2.592,0.304-1.696-3.151-2.989-4.684c-1.774-2.103-2.692-2.975-5.108-0.497
			c-4.28,4.386-8.335,9.104-13.725,12.289c-1.74-1.741-2.912-0.053-4.178,0.74c-6.018,3.76-12.022,7.549-19.519,7.413
			C246.264,386.504,239.34,381.019,238.91,373.903z"/>
		<path fill="#F5C469" d="M458.229,304.883c-0.564-2.129-1.133-4.258-1.697-6.398c1.42-0.484,1.979,0.516,2.686,1.113
			c8.44,7.133,17.433,13.334,28.015,16.95c6.62,2.265,13.579,3.862,20.198,1.754c5.021-1.604,8.188-2.021,12.552,1.926
			c3.458,3.12,8.815,1.68,12.942-1.138c5.02-3.436,7.842-8.633,10.861-13.664c0.868-1.441,0.863-1.441,2.004-0.533
			c-1.515,6.356-3.48,12.513-7.93,17.543c-6.315,7.143-15.504,8.107-23.002,2.345c-1.096-0.841-1.93-1.158-3.34-0.644
			c-11.226,4.103-21.885,1.962-32.125-3.33c-6.299-3.256-12.168-7.16-17.04-12.429C461.135,307.064,459.611,306.04,458.229,304.883z
			"/>
		<path fill="#F5C469" d="M338.252,611.864c0.611-2.164,1.257-4.335,2.573-6.183c5.88-8.252,4.919-17.719,4.847-27.027
			c-0.005-0.851-0.117-1.697-0.209-2.996c2.787,1.554,3.823,3.811,4.909,6.172c0.488,1.064,0.704,3.11,2.451,2.795
			c1.359-0.245,1.327-1.959,1.495-3.164c1.063-7.725,1.421-15.416-1.186-22.953c-0.367-1.064-0.941-2.58,0.041-3.135
			c1.489-0.84,2.009,0.951,2.682,1.87c1.718,2.355,3.333,4.788,5.118,7.386c1.657-6.807,0.249-12.98-5.808-25.664
			c3.565,1.537,5.888,3.938,8.133,6.44c2.534,3.272,3.724,7.114,3.466,11.106c-1.042,16.297-5.013,31.71-15.553,44.646
			C347.679,605.494,344.222,610.303,338.252,611.864z"/>
		<path fill="#F5C469" d="M610.962,324.379c-0.48-0.729-0.983-1.438-1.438-2.177c-2.012-3.272-0.595-6.229,3.248-6.698
			c1.107-0.14,2.238-0.084,3.359-0.086c14.201,0.01,28.406-0.023,42.605,0.09c1.896,0.016,3.794-0.895,5.674-0.045
			c0.883,2.308,1.74,4.643,2.678,6.941c0.813,1.994,0.242,2.568-1.912,2.529C647.105,324.617,629.026,325.149,610.962,324.379z"/>
		<path fill="#F5C469" d="M678.33,242.071c7.118,0.001,14.236,0.013,21.357-0.003c2.355-0.006,4.078,0.909,5.01,3.16
			c0.698,1.687,0.316,3.08-0.756,4.517c-0.979,1.313-2.284,1.401-3.647,1.417c-14.486,0.143-28.972,0.305-43.458,0.354
			c-3.023,0.011-6.047-2.688-5.8-5.076c0.358-3.473,2.93-4.33,5.935-4.341c7.119-0.024,14.238-0.007,21.357-0.007
			C678.33,242.084,678.331,242.078,678.33,242.071z"/>
		<path fill="#F5C469" d="M685.081,266.675c6.368,0.001,12.733-0.023,19.101,0.009c3.664,0.018,5.78,1.826,5.793,4.828
			c0.012,2.764-2.098,4.691-5.578,4.718c-12.733,0.096-25.465,0.123-38.198,0.104c-3.385-0.008-6.017-2.359-5.874-4.961
			c0.157-2.903,2.323-4.631,6.033-4.656c6.241-0.043,12.482-0.01,18.725-0.012C685.082,266.693,685.082,266.685,685.081,266.675z"/>
		<path fill="#F5C469" d="M310.896,426.184c7.006-0.916,9.786-6.063,12.051-11.854c3.102-7.941,8.067-14.522,15.303-19.119
			c4.155-2.641,8.797-2.956,13.148-0.448c3.785,2.181,6.526,5.302,6.158,10.153c-0.389-0.311-0.818-0.576-1.157-0.937
			c-9.892-10.412-18.915-4.122-24.445,3.608c-2.805,3.914-3.571,8.72-5.407,13.059c-2.049,4.85-5.286,8.389-10.906,8.99
			c-2.967,0.318-5.661-0.199-8.072-2.398C308.48,426.076,309.878,426.657,310.896,426.184z"/>
		<path fill="#F5C469" d="M712.08,340.222c4.123,0.003,8.244-0.026,12.366,0.011c3.224,0.029,4.607,1.994,4.823,4.939
			c0.221,3.018-1.543,4.336-4.299,4.354c-8.49,0.058-16.98,0.09-25.471-0.037c-3.05-0.045-4.84-1.835-4.752-5.008
			c0.09-3.144,2.068-4.271,4.968-4.266C703.835,340.227,707.957,340.218,712.08,340.222z"/>
		<path fill="#F5C469" d="M436.074,389.66c0.365,0.053,0.85-0.026,1.082,0.176c12.932,11.375,28.303,16.904,45.193,18.82
			c-2.022,3.103-7.186,4.921-14.979,5.313c-15.071-1.307-23.757-11.359-31.341-22.896
			C435.818,390.751,436.048,390.139,436.074,389.66z"/>
		<path fill="#F5C469" d="M714.024,375.481c-3.374,0.001-6.746,0.048-10.117-0.014c-3.25-0.059-6.071-2.33-5.918-4.994
			c0.185-3.254,2.682-4.45,5.431-4.526c7.234-0.207,14.482-0.311,21.71-0.053c2.575,0.092,3.965,2.334,4.009,4.963
			c0.043,2.563-1.119,4.396-3.879,4.487c-3.741,0.124-7.489,0.03-11.237,0.032C714.022,375.41,714.021,375.446,714.024,375.481z"/>
		<path fill="#FC8119" d="M97.549,377.036c6.988-0.063,13.98-0.221,20.964-0.138c2.905,0.033,4.986,1.281,4.902,4.773
			c-0.083,3.484-1.972,4.458-5.09,4.399c-6.489-0.116-12.987,0.458-19.467-0.196c-0.08-1.219-1.105-1.046-1.873-1.338
			c-2.439-0.926-3.13-4.143-1.253-5.855C96.333,378.134,97.38,378.078,97.549,377.036z"/>
		<path fill="#FC8119" d="M675.525,534.52c-1.893-4.633-0.307-7.419,4.463-7.5c6.083-0.102,12.168-0.013,18.253,0.027
			c2.521,0.015,4.717,0.73,5.539,3.432c0.832,2.723-0.54,4.427-2.883,5.563c-2.351-0.032-4.708,0.039-7.05-0.116
			C687.734,535.518,681.475,537.016,675.525,534.52z"/>
		<path fill="#F5C469" d="M267.59,273.739c11.327,2.912,21.415,0.049,30.693-6.584c1.115-0.796,2.183-1.657,3.294-2.463
			c4.053-2.927,4.056-2.921,6.398,1.2c-6.812,6.773-14.318,12.43-23.912,14.637c-5.375,1.234-10.41,0.552-14.771-3.089
			C268.179,276.509,266.755,275.615,267.59,273.739z"/>
		<path fill="#F5C469" d="M110.232,439.184c-2.621-0.002-5.248,0.096-7.863-0.026c-2.976-0.14-4.626-1.881-4.557-4.82
			c0.068-2.863,1.647-4.738,4.648-4.797c5.367-0.106,10.74-0.157,16.104-0.003c3.097,0.09,4.774,2.004,4.721,5.121
			c-0.056,3.05-1.897,4.473-4.817,4.545c-2.747,0.066-5.491,0.014-8.237,0.015C110.231,439.207,110.231,439.195,110.232,439.184z"/>
		<path fill="#F5C469" d="M190.645,212.887c-2.242-0.004-4.485,0.026-6.73-0.009c-3.2-0.053-4.308-2.156-4.458-4.904
			c-0.148-2.683,1.331-4.285,3.971-4.462c4.975-0.332,9.96-0.303,14.931,0.178c2.871,0.277,4.223,2.181,4.011,4.875
			c-0.208,2.641-1.675,4.369-4.621,4.334C195.381,212.869,193.013,212.893,190.645,212.887z"/>
		<path fill="#F5C469" d="M238.91,373.903c0.43,7.115,7.353,12.603,16.112,12.759c7.496,0.133,13.501-3.656,19.521-7.415
			c1.267-0.792,2.438-2.482,4.179-0.742c-5.743,6.587-12.314,11.933-21.112,13.833c-9.662,2.082-18.849-4.164-19.98-13.643
			C237.434,377.046,236.711,375.019,238.91,373.903z"/>
		<path fill="#F5C469" d="M136.109,533.582c-2.116,0-4.234,0.073-6.35-0.02c-2.712-0.113-4.608-1.51-4.767-4.27
			c-0.161-2.862,1.566-4.977,4.329-5.187c4.583-0.347,9.227-0.373,13.806-0.017c2.866,0.223,4.036,2.627,4.059,5.395
			c0.022,2.867-1.876,3.881-4.354,4.018c-2.234,0.123-4.48,0.026-6.723,0.026C136.111,533.546,136.11,533.563,136.109,533.582z"/>
		<path fill="#FC8119" d="M110.618,411.524c-2.607-0.001-5.221,0.09-7.824-0.026c-2.891-0.125-4.297-2.086-4.276-4.66
			c0.02-2.666,1.632-4.346,4.521-4.352c4.97-0.006,9.945-0.07,14.917,0.016c2.88,0.049,4.914,1.636,4.826,4.533
			c-0.087,2.895-1.746,4.799-5.081,4.616c-2.354-0.13-4.721-0.025-7.082-0.024C110.619,411.592,110.62,411.557,110.618,411.524z"/>
		<path fill="#F5C469" d="M145.492,559.852c-1.999,0.001-4.007,0.125-5.993-0.028c-2.998-0.233-4.465-2.137-4.47-5.002
			c-0.005-2.847,1.721-4.403,4.477-4.474c4.245-0.105,8.495-0.008,12.743,0.047c3.153,0.041,4.498,2.071,4.525,4.839
			c0.022,2.8-1.854,4.301-4.539,4.511c-2.234,0.176-4.496,0.039-6.742,0.038C145.493,559.804,145.493,559.828,145.492,559.852z"/>
		<path fill="#FC8119" d="M115.777,456.195c1.984,0.002,3.973-0.027,5.96,0.008c2.839,0.047,4.076,1.975,4.067,4.365
			c-0.003,2.344-1.375,4.521-3.882,4.715c-4.072,0.313-8.207,0.326-12.276,0c-2.805-0.225-4.299-2.331-4.254-5.174
			c0.044-2.803,1.94-3.855,4.43-3.997c1.978-0.112,3.969-0.022,5.956-0.023C115.777,456.124,115.777,456.158,115.777,456.195z"/>
		<path fill="#FC8119" d="M639.941,183.213c2.839-1.365,1.7-3.889,1.498-5.929c-0.225-2.233,0.506-2.876,2.605-2.845
			c5.101,0.076,10.201,0.019,15.303,0.012c3.055,0.639,3.004,3.062,2.632,5.23c-0.472,2.765-2.772,3.713-5.28,3.73
			C651.114,183.445,645.526,183.291,639.941,183.213z"/>
		<path fill="#FC8119" d="M120.816,336.474c1.996,0,3.994-0.071,5.984,0.016c2.825,0.126,3.931,1.972,3.881,4.505
			c-0.049,2.559-1.391,4.299-4.084,4.409c-3.612,0.147-7.234,0.177-10.851,0.096c-3.131-0.072-4.252-2.236-4.373-4.967
			c-0.122-2.796,1.589-4.037,4.203-4.15c1.743-0.077,3.492-0.018,5.238-0.018C120.816,336.4,120.816,336.438,120.816,336.474z"/>
		<path fill="#FC8119" d="M288.554,254.338c-8.166,7.518-20.8,9.651-27.177,4.691C269.884,254.396,278.743,253.096,288.554,254.338z
			"/>
		<path fill="#F5C469" d="M366.533,496.176c-1.345-4.778-5.901-7.415-8.207-11.994c3.077-0.301,5.607,0.559,8.123,1.389
			c1.812,0.594,2.883,0.223,2.96-1.853c4.978,5.554,5.457,9.625,1.664,17.53C369.457,499.443,367.995,497.809,366.533,496.176z"/>
		<path fill="#FC8119" d="M354.639,278.532c-0.43,4.197-6.586,10.765-10.721,11.313c-3.108,0.41-2.999-2.46-3.829-4.163
			c-0.687-1.42-0.516-2.596,1.563-3.361c3.63-1.337,7.402-2.531,10.49-5.063c0.571-0.469,1.223-1.027,2.005-0.696
			C355.06,276.948,354.693,277.816,354.639,278.532z"/>
		<path fill="#F5C469" d="M180.336,179.533c-0.074-3.257,2.23-5.662,5.532-5.783c3.176-0.116,6.261,2.692,6.21,5.651
			c-0.054,3.169-2.558,5.548-5.84,5.551C182.895,184.954,180.41,182.673,180.336,179.533z"/>
		<path fill="#F5C469" d="M130.464,507.843c-3.721-0.006-6.466-2.5-6.412-5.827c0.053-3.167,2.832-5.66,6.252-5.609
			c3.323,0.053,6.012,2.723,5.943,5.903C136.178,505.514,133.739,507.848,130.464,507.843z"/>
		<path fill="#F5C469" d="M357.458,530.185c-0.527-3.229-4.406-3.889-5.292-6.979c4.133-0.565,7.432,2.163,11.23,2.783
			c3.727,4.369,4.332,6.271,4.345,14.641c-2.714-3.86-5.931-6.154-8.538-9.09c-0.396-0.713-0.914-1.28-1.736-1.496L357.458,530.185z
			"/>
		<path fill="#FC8119" d="M351.963,294.714c2.544-0.599,2.671,0.137,2.441,1.416c-0.504,2.844-2.014,5.102-4.172,6.841
			c-1.513,1.219-3.5,2.752-5.359,1.25c-1.732-1.401-1.702-3.99-2.293-6.101c-0.183-0.652,0.534-1.179,1.117-1.299
			C346.826,296.18,350,295.729,351.963,294.714z"/>
		<path fill="#F5C469" d="M716.116,158.754c-2.821,0.033-5.339-2.384-5.165-5.157c0.189-3.094,1.917-4.676,5.073-4.673
			c3.003,0.002,5.292,2.139,5.255,4.979C721.246,156.441,718.816,158.723,716.116,158.754z"/>
		<path fill="#F5C469" d="M109.381,158.908c-2.847,0.088-5.423-2.213-5.52-4.93c-0.105-2.81,2.208-5.086,5.189-5.106
			c2.897-0.022,5.209,2.188,5.305,5.062C114.437,156.496,112.108,158.827,109.381,158.908z"/>
		<path fill="#F5C469" d="M360.925,513.76c-0.702-4.398-4.909-6.182-7.564-9.76c5.653-0.139,9.268,3.262,13.35,5.506
			c2.622,3.192,1.013,6.832,1.459,10.9C364.996,518.368,363.849,515.054,360.925,513.76z"/>
		<path fill="#F5C469" d="M214.946,179.244c-0.234-2.354,0.885-3.853,3.001-4.712c-0.014,0.885,0.388,1.424,1.291,1.535
			c-0.466,3.562,2.686,2.739,4.415,3.614c0.607,0.311,1.34,0.201,1.357-0.614c0.047-1.829-1.476-2.693-2.62-3.729
			c-1.154-1.05-1.973,0.413-2.981,0.56c-0.104-0.867-0.65-1.256-1.461-1.363c3.977-1.368,6.98-0.18,8.141,3.224
			c0.808,2.37-0.826,5.697-3.327,6.786c-3.039,1.318-5.995-0.114-7.641-3.715c1.838,0.258,2.434,2.594,4.392,2.637
			c0.933,0.021,2.487,0.349,2.235-1.032c-0.406-2.2-3.362-2.173-4.415-4.217C216.885,177.345,215.736,178.771,214.946,179.244z"/>
		<path fill="#F5C469" d="M251.184,646.311c5.792,0.113,10.851-0.387,15.806-1.521c2.976-0.685,4.348,1.694,6.816,2.534
			C266.92,651.442,257.652,651.105,251.184,646.311z"/>
		<path fill="#FC8119" d="M135.433,149.63c2.189,0.271,4.127,0.977,4.166,3.719c0.038,2.56-1.445,3.988-3.89,4.05
			c-2.404,0.063-4.027-1.285-4.265-3.766C131.18,150.887,133.031,149.994,135.433,149.63z"/>
		<path fill="#F5C469" d="M672.974,339.418c-1.655-1.221-3.479-1.568-5.548-1.564c-25.018,0.071-50.037,0.064-75.055,0.066
			c-1.351,0.001-2.75,0.272-4.016-0.492c26.765-0.034,53.529-0.09,80.293-0.061C670.254,337.37,672.671,336.369,672.974,339.418z"/>
		<path fill="#F5C469" d="M718.028,401.196c-2.467-0.228-4.309-1.064-4.483-3.689c-0.155-2.296,2.292-4.731,4.535-4.436
			c2.379,0.315,3.865,1.937,3.9,4.266C722.018,399.832,720.295,401.008,718.028,401.196z"/>
		<path fill="#F5C469" d="M112.618,226.887c2.922,0.233,4.377,1.753,4.502,4.319c0.133,2.642-1.596,3.896-3.99,3.904
			c-2.633,0.016-4.211-1.605-4.289-4.205C108.763,228.339,110.511,227.236,112.618,226.887z"/>
		<path fill="#F5C469" d="M205.837,524.576c0-2.127-0.193-3.986,2.332-3.644c2.03,0.277,4.701-0.353,5.482,2.331
			c0.49,1.684-4.013,8.322-4.926,7.799C206.144,529.584,206.343,526.613,205.837,524.576z"/>
		<path fill="#FC8119" d="M96.786,498.563c2.458,0.038,3.95,1.068,4.092,3.473c0.141,2.396-1.197,3.766-3.502,3.785
			c-2.162,0.02-3.931-1-3.988-3.443C93.335,500.113,94.448,498.627,96.786,498.563z"/>
		<path fill="#FC8119" d="M691.532,178.454c0.478-1.964,1.235-3.858,3.688-3.85c2.266,0.011,3.787,1.419,3.98,3.657
			c0.216,2.54-1.684,3.49-3.802,3.604C693.256,181.982,692.043,180.594,691.532,178.454z"/>
		<path fill="#F5C469" d="M93.401,306.266c0.106-2.54,1.58-3.978,3.991-3.979c2.356,0,4.134,1.322,4.113,3.881
			c-0.019,2.445-1.469,3.962-4.002,3.969C95.033,310.141,93.563,308.86,93.401,306.266z"/>
		<path fill="#F5C469" d="M245.279,557.717c0.192-2.658,3.829-7.64,5.313-7.017c2.452,1.026,3.64,3.972,3.111,5.806
			c-0.961,3.334-4.844,1.345-7.26,2.418C245.502,559.345,245.237,558.514,245.279,557.717z"/>
		<path fill="#F5C469" d="M226.5,562.615c-0.131,0-0.757,0.122-0.822-0.02c-1.199-2.576,0.541-4.5,1.709-6.41
			c0.666-1.089,1.842-2.764,3.46-0.848c0.955,1.13,1.784,2.371,2.624,3.593c0.832,1.209,0.625,2.049-0.931,2.37
			C230.602,561.701,228.67,562.14,226.5,562.615z"/>
		<path fill="#F5C469" d="M723.488,309.89c-2.25-0.337-4.083-0.979-3.975-3.635c0.104-2.558,1.672-4.052,4.021-3.987
			c2.466,0.07,3.747,2.049,3.612,4.361C727.027,308.685,725.621,309.958,723.488,309.89z M720.68,306.135
			c0.115,1.557,1.154,1.826,2.33,1.861c1.271,0.033,2.736-0.06,2.688-1.691c-0.034-1.174-0.808-2.46-2.236-2.531
			C721.902,303.698,721.15,304.88,720.68,306.135z"/>
		<path fill="#F5C469" d="M240.926,532.937c0.798-1.124-1.203-3.685,1.482-3.633c1.982,0.04,4.492,0.294,5.603,2.611
			c0.338,0.705-4.572,6.021-5.373,5.762C240.202,536.879,241.5,534.612,240.926,532.937z"/>
		<path fill="#F5C469" d="M214.62,564.77c-1.813,1.976-4.446,1.779-6.651,2.552c-1.136,0.397-1.65-0.397-1.349-1.46
			c0.72-2.518,0.682-6.196,3.73-6.486C212.628,559.16,213.537,562.417,214.62,564.77z"/>
		<path fill="#F5C469" d="M223.761,527.376c0.613-1.164-1.103-3.823,1.893-3.285c1.818,0.33,4.417-0.184,5.18,2.398
			c0.317,1.082-4.029,5.758-5.069,5.472C223.36,531.301,224.264,529.018,223.761,527.376z"/>
		<path fill="#F5C469" d="M189.016,570.901c0.512-2.358,0.562-5.452,3.394-5.491c2.133-0.028,3.217,2.719,4.295,4.618
			c0.28,0.491-5.53,3.151-6.655,3C188.52,572.82,188.896,571.748,189.016,570.901z"/>
		<path fill="#FC8119" d="M350.4,318.151c-1.151-1.803-3.908-3.145-2.417-5.278c0.658-0.947,4.356-1.269,4.737-0.658
			C354.247,314.647,350.363,315.661,350.4,318.151z"/>
		<path fill="#F5C469" d="M273.927,556.56c-2.662,0.388-5.13-0.979-7.976-0.124c0.342-3.337,2.341-5.037,4.465-6.538
			c1.242-0.874,2.023-0.161,2.299,1.24C273.07,552.903,273.498,554.654,273.927,556.56z"/>
		<path fill="#F5C469" d="M259.095,542.739c-0.148-3.198-1.8-6.077,0.74-7.534c1.177-0.672,4.834,0.752,4.863,2.391
			C264.743,540.195,261.621,540.959,259.095,542.739z"/>
		<path fill="#F5C469" d="M97.549,377.036c-0.168,1.042-1.216,1.098-1.816,1.646c-1.877,1.715-1.183,4.93,1.255,5.854
			c0.77,0.291,1.793,0.121,1.874,1.34c-3.702,0.224-6.135-1.3-6.107-4.146C92.781,378.752,94.08,376.688,97.549,377.036z"/>
		<path fill="#F5C469" d="M141.233,393.615c-0.003,10.688-0.01,21.375-0.016,32.045
			C140.646,414.967,140.042,404.289,141.233,393.615z"/>
		<path fill="#F5C469" d="M675.525,534.52c5.949,2.496,12.209,0.998,18.319,1.406c2.343,0.156,4.7,0.084,7.051,0.117
			c-6.33,1.49-12.763,0.185-19.133,0.684C679.42,536.91,676.999,536.958,675.525,534.52z"/>
		<path fill="#F5C469" d="M293.425,238.776c0,0,0.116,0.002,0.111,0.003C293.533,238.783,293.425,238.776,293.425,238.776z"/>
		<polygon fill="#FC8119" points="679.318,448.793 679.314,448.828 679.422,448.928 		"/>
		<path fill="#F5C469" d="M185.036,502.832c0.028-0.646,0.297-1.105,0.968-1.256C185.982,502.227,185.614,502.612,185.036,502.832z"
			/>
		<path fill="#FC8119" d="M357.468,530.043c0.823,0.216,1.34,0.784,1.736,1.496C358.065,531.689,356.817,531.969,357.468,530.043z"
			/>
		<path fill="#013F54" d="M352.53,172.918c-1.873,0-3.751,0.062-5.623-0.016c-3.564-0.139-6.039-2.311-6.433-5.543
			c-0.408-3.406,1.58-6.666,5.068-7.184c4.805-0.715,9.725-1.008,14.534-0.027c3.684,0.753,5.11,3.047,4.79,6.755
			c-0.315,3.641-2.336,5.729-5.968,5.953c-2.116,0.13-4.246,0.024-6.371,0.024C352.53,172.895,352.529,172.906,352.53,172.918z"/>
		<path fill="#013F54" d="M315.212,598.646c0.922,1.727,1.923,3.412,2.75,5.185c5.061,10.84-1.77,22.14-11.669,26.254
			c-9.288,3.862-21.926-1.94-25.01-11.889c-2.689-8.666-0.399-16.47,6.813-22.456C299.877,589.7,305.212,590.271,315.212,598.646z
			 M300.738,607.566c-2.775,0.028-4.959,2.186-4.967,4.906c-0.01,3.127,1.848,4.766,5.299,4.729
			c3.097-0.027,4.479-1.697,4.516-4.653C305.618,609.707,303.487,607.539,300.738,607.566z"/>
		<path fill="#013F54" d="M198.224,602.679c-0.111-1.996,0.735-3.804,2.705-4.734c2.107-0.997,4.188-0.55,5.747,1.252
			c1.46,1.685,2.747,3.515,4.156,5.244c0.683,0.837,1.138,2.33,2.426,2.071c4.115-0.832,3.327,2.456,3.631,4.42
			c0.393,2.546-0.599,4.633-3.381,5.475c-2.087,0.631-3.957-0.162-5.831-0.778C202.554,613.945,198.157,607.951,198.224,602.679z"/>
		<path fill="#F5C469" d="M315.212,598.646c-10-8.375-15.338-8.949-27.114-2.908c2.555-4.858,7.298-6.017,12.063-6.709
			c5.089-0.742,9.744,0.973,14.142,3.523C317.288,594.289,316.558,596.371,315.212,598.646z"/>
		<path fill="#F5C469" d="M544.844,420.488l-0.022-0.023L544.844,420.488z"/>
		<path fill="#013F54" d="M341.548,445.472c0.069-0.04,0.137-0.079,0.202-0.116c-0.026,0.046-0.05,0.092-0.069,0.139
			C341.689,445.497,341.548,445.472,341.548,445.472z"/>
		<path fill="#F5C469" d="M639.205,480.33c0.592-0.33,0.687-0.131,0.446,0.422C639.5,480.617,639.351,480.475,639.205,480.33z"/>
		<path fill="#FC8119" d="M219.409,175.896c1.009-0.146,1.827-1.607,2.981-0.559c1.146,1.036,2.667,1.9,2.62,3.729
			c-0.018,0.816-0.749,0.924-1.357,0.614c-1.729-0.875-4.88-0.055-4.415-3.614L219.409,175.896z"/>
		<path fill="#FC8119" d="M214.946,179.244c0.791-0.475,1.938-1.899,2.386-1.029c1.055,2.043,4.011,2.017,4.417,4.217
			c0.25,1.382-1.306,1.055-2.236,1.033c-1.959-0.045-2.555-2.38-4.391-2.639C215.063,180.304,215.006,179.774,214.946,179.244z"/>
		<path fill="#FC8119" d="M219.24,176.069c-0.905-0.112-1.304-0.651-1.294-1.533l0-0.001c0.812,0.106,1.358,0.495,1.462,1.362
			C219.409,175.896,219.24,176.069,219.24,176.069z"/>
		<path fill="#FC8119" d="M720.68,306.135c0.473-1.254,1.223-2.439,2.785-2.36c1.428,0.071,2.199,1.356,2.234,2.528
			c0.047,1.636-1.419,1.729-2.689,1.693C721.834,307.961,720.795,307.693,720.68,306.135z"/>
		<path fill="#F5C469" d="M300.738,607.566c2.749-0.027,4.88,2.141,4.847,4.981c-0.035,2.956-1.419,4.626-4.516,4.653
			c-3.454,0.033-5.309-1.602-5.299-4.729C295.777,609.752,297.962,607.595,300.738,607.566z"/>
	</g>
</g>
</svg>
