<?xml version="1.0" encoding="utf-8"?>
<!-- Generator: Adobe Illustrator 16.0.3, SVG Export Plug-In . SVG Version: 6.00 Build 0)  -->
<!DOCTYPE svg PUBLIC "-//W3C//DTD SVG 1.1//EN" "http://www.w3.org/Graphics/SVG/1.1/DTD/svg11.dtd">
<svg version="1.1" id="Layer_1" xmlns="http://www.w3.org/2000/svg" xmlns:xlink="http://www.w3.org/1999/xlink" x="0px" y="0px"
	 width="822.047px" height="822.047px" viewBox="0 0 822.047 822.047" enable-background="new 0 0 822.047 822.047"
	 xml:space="preserve">
<rect fill="#013F54" width="822.047" height="822.047"/>
<g>
	<g>
		<path fill="#FC8119" d="M678.276,418.65c-0.499-0.512-0.999-1.024-1.602-1.641c-1.419,2.107-0.538,4.477-1.085,6.593
			c-0.215,0.82-0.04,1.894-1.172,2.061c-0.898,0.136-1.216-0.761-1.581-1.366c-1.995-3.324-3.974-6.653-5.91-10.008
			c-26.575-45.992-53.141-91.991-79.716-137.984c-1.125-1.947-2.166-3.959-3.454-5.793c-2.528-3.607-5.72-4.372-8.975-2.336
			c-3.198,2-3.69,4.617-1.3,8.755c8.368,14.508,16.849,28.95,25.232,43.448c24.019,41.549,47.902,83.18,72.146,124.599
			c3.487,5.958,4.601,11.39,3.245,18.161c-3.885,19.432-8.607,38.58-16.225,56.926c-6.211,14.965-13.676,29.27-22.905,42.608
			c-2.243,3.239-2.55,3.091-4.542-0.394c-10.166-17.793-20.33-35.59-30.526-53.364c-0.737-1.288-1.581-2.585-2.639-3.603
			c-2.536-2.441-6.415-2.667-8.831-0.465c-2.554,2.326-2.748,5.221-1.104,8.139c3.067,5.444,6.261,10.815,9.385,16.225
			c8.063,13.964,15.957,28.027,24.274,41.834c2.617,4.346,4.425,7.941-0.519,11.639c-0.199-2.055-1.938-3.24-2.873-4.889
			c-7.002-12.355-14.131-24.642-21.227-36.942c-0.561-0.972-1.081-1.979-1.754-2.868c-2.326-3.091-5.595-2.842-7.423,0.535
			c-0.415,0.764-0.776,1.556-1.167,2.336c-3.168-5.316-6.354-10.625-9.5-15.952c-2.248-3.816-5.307-5.75-8.284-4.913
			c-3.916,1.107-4.854,4.193-4.82,7.813c-0.032,1.48,0.903,2.554,1.581,3.723c12.51,21.666,25.015,43.337,37.584,64.967
			c1.04,1.79,1.649,3.543,1.418,5.586c-4.334,4.758-9.019,9.064-14.088,13.102c-4.802,3.82-9.501,7.803-14.357,11.594
			c-12.231,9.535-25.521,17.338-39.113,24.705c-6.875,3.726-13.836,7.186-21.274,9.631c-6.717-9.994-8.384-20.435-3.979-31.992
			c3.721-9.767,8.777-18.762,14.232-27.551c8.294-13.369,16.565-26.837,22.414-41.397c7.114-17.714,12.544-36.056,11.84-55.536
			c-0.092-2.621,0.861-3.692,3.311-3.799c4.287-0.188,8.351-1.516,12.443-2.599c12.598-3.335,25.158-3.442,37.691,0.183
			c9.16,2.65,17.951,3.056,25.752-3.67c7.932,4.946,17.115-1.145,20.855-9.152c5.608-12.01,2.215-23.943-6.42-33.453
			c-11.072-12.197-25.325-13.943-40.645-11.832c-9.229,1.273-18.362,3.253-27.697,3.726c-0.608,0.032-1.225-0.093-1.838-0.145
			c-1.019-20.437-5.067-40.289-11.4-59.718c-3.332-10.232-7.735-19.971-12.579-29.578c-5.783-11.47-13.447-21.501-21.827-31.11
			c-2.983-3.424-7.492-5.86-8.327-10.788c-1.269-7.473-0.767-14.823,1.967-22.051c3.079-8.149,8.644-14.85,12.494-22.561
			c8.815-17.653,1.378-39.33-17.28-46.241c-7.168-2.654-15.037-6.052-21.861,1.429c-0.36,0.395-1.111,0.432-1.679,0.639
			c-0.4-0.254-0.798-0.506-1.19-0.755c0.003,0.003-0.053-0.099-0.053-0.099c-3.523-2.344-6.232-5.436-7.825-9.328
			c-2.368-5.792-6.302-10.133-11.69-13.125c-5.242-2.91-7.404-7.271-6.323-13.052c0.462-2.454-0.364-3.062-2.541-3.261
			c-12.353-1.127-22.339,3.422-29.546,13.252c-7.918,10.802-8.213,22.637-2.66,34.604c6.167,13.289,17.166,21.281,30.209,26.949
			c1.333,0.58,2.9,0.798,3.918,2.016c0.475,1.189,0.208,2.168-0.783,2.994c-2.297,1.91-4.506,3.936-6.875,5.75
			c-8.863,6.775-16.791,14.514-23.506,23.4c-4.126,5.463-3.85,5.488-10.363,3.531c-2.615-0.786-3.329-2.027-2.944-4.571
			c0.449-2.955,0.534-5.938-0.155-8.924c-3.934-17.106-15.699-27.966-33.131-30.604c-2.293-0.348-5.109-0.11-6.582-2.138
			c-3.075-4.219-7.208-4.887-11.884-4.442c-2.517-13.082-9.322-19.276-21.937-18.688c-10.288,0.477-17.56,6.472-22.11,15.41
			c-5.912,11.608-3.591,22.615,3.488,33.023c-1.967-3.236-4.156-2.08-6.539-0.408c-2.412,1.689-3.253,3.592-1.765,6.342
			c1.971,3.646,5.196,6.091,8.373,8.434c2.887,2.129,2.019,3.032-0.544,4.188c-5.105,2.313-10.296,4.486-15.236,7.119
			c-12.674,6.756-24.964,14.151-36.394,22.897c-1.611,1.237-3.146,2.425-4.34-0.43c-5.148-12.309-10.516-24.52-16.553-36.43
			c-6.955-13.715-15.243-25.984-30.466-31.953c-3.7-1.452-6.177-0.781-8.846,1.399c-1.913,1.563-3.452,3.654-6.064,4.211
			l0.261-0.058c0,0,0.054,0.261,0.053,0.258c-0.467-0.503-1-0.505-1.574-0.207c-2.952,0.19-5.935,0.182-8.854,0.615
			c-6.75,0.997-10.426,5.951-9.525,12.673c0.121,0.926,0.211,1.643-0.456,2.394c-7.58,8.526-7.911,18.609-6.245,29.126
			c0.076,0.484,0.016,0.994,0.02,1.888c-4.002-3.404-7.141-7.488-11.941-9.459c-0.719-0.292-1.14-1.589-1.468-2.503
			c-1.176-3.293-3.471-5.718-6.677-6.604c-3.362-0.932-2.633-2.592-1.55-4.587c5.025-9.253,10.52-18.215,16.354-26.979
			c9.404-14.128,20.249-27.108,32.402-38.885c13.172-12.756,27.152-24.615,42.866-34.214c9.244-5.329,18.501-10.67,27.758-16.01
			c9.967-5.524,20.55-9.601,31.272-13.348c8.816-3.082,17.691-5.942,26.813-8.045c23.754-5.48,47.726-7.885,72.118-6.186
			c18.156,1.266,36.004,4.096,53.617,8.627c23.163,5.959,45.219,14.744,66.431,25.719c2.203,1.142,4.378,2.331,6.54,3.547
			c4.111,2.309,7.241,5.439,9.518,9.708c3.875,7.272,8.179,14.321,12.35,21.435c3.217,5.481,7.938,6.216,12.094,1.521
			c1.865-2.104,2.776-1.48,4.48-0.123c10.861,8.647,20.229,18.725,29.182,29.314c13.952,16.502,25.614,34.469,34.994,53.854
			c5.633,11.638,10.439,23.682,14.275,36.09c2.61,8.441,5.104,16.883,6.146,25.672c-0.286,0.16-0.569,0.318-0.856,0.479
			c-1.118-1.941-2.238-3.877-3.357-5.816c-15.93-27.599-31.861-55.197-47.802-82.791c-0.748-1.296-1.46-2.646-2.396-3.799
			c-2.163-2.668-5.922-3.264-8.771-1.531c-2.804,1.706-3.895,5.352-2.466,8.521c0.508,1.133,1.2,2.188,1.824,3.271
			c22.724,39.407,45.449,78.816,68.16,118.227c0.746,1.295,1.357,2.664,2.023,3.989c-1.113,1.702,0.505,2.72,1.1,3.921
			c2.541,5.135,6.395,9.732,6.505,16.334C681.831,414.594,680.475,418.139,678.276,418.65z M587.982,241.316
			c0.011-0.008,0.021-0.013,0.031-0.02c1.063,1.84,2.035,3.736,3.205,5.505c2.01,3.034,4.828,3.737,8.141,2.192
			c3.372-1.574,4.645-3.959,3.453-7.526c-1.557-4.655-4.269-8.768-7.287-12.573c-2.194-2.761-6.011-2.855-8.756-0.794
			c-2.604,1.956-3.248,5.183-1.586,8.343C586.054,238.098,587.046,239.693,587.982,241.316z"/>
		<path fill="#FC8119" d="M443.615,679.499c-31.53,3.138-62.657,0.808-93.479-6.527c-20.461-4.864-39.858-12.37-58.331-22.335
			c-23.079-12.447-44.18-27.609-63.279-45.623c-24.251-22.867-43.445-49.407-58.011-79.281
			c-8.823-18.096-15.263-37.089-19.788-56.748c-1.483-6.436-2.563-12.915-3.73-19.395c-0.183-1.027-0.15-1.976,0.329-3.172
			c2.356,1.115,4.049,3.068,6.079,4.545c7.1,5.163,15.153,7.75,23.8,8.7c0.601,0.064,1.254-0.16,1.682,0.483
			c1.965,1.73,3.8,3.637,5.911,5.17c13.803,10.024,29.752,12.615,46.153,11.898c18.622-0.813,35.938-6.753,52.033-16.203
			c7.543-4.428,15.086-8.871,22.761-13.066c7.309-3.999,15.298-5.377,23.546-4.807c14.709,1.014,26.376,8.702,37.187,17.803
			c10.041,8.451,19.132,17.876,27.791,27.777c14.807,16.932,26.768,35.415,33.412,57.066c3.428,11.176,5.196,22.553,4.715,34.306
			c-0.551,13.452-2.257,26.812-2.593,40.294c-0.394,15.998,2.1,31.293,8.483,45.972
			C440.172,670.689,441.846,675.116,443.615,679.499z"/>
	</g>
	<g>
		<path fill="#FC8119" d="M335.914,406.646c-0.112-0.046-0.27-0.058-0.336-0.143c-3.081-3.836-3.004-3.798-5.377,0.688
			c-0.779,1.472-1.228,3.288-2.939,4.145c-1.835,0.969-2.693,0.228-3.084-1.64c-0.539-2.594-1.06-5.214-2.858-7.729
			c-2.813,4.288-2.819,9.55-6.284,13.104c-1.143-0.705-0.841-1.979-1.155-3c-0.293-0.94-0.43-1.93-0.633-2.898
			c-2.109,3.323-4.121,6.719-6.376,9.941c-0.795,1.135-1.594,2.578-3.292,2.779c-0.097-4.662,1.041-9.488-1.907-14.318
			c-1.773,4.089-1.213,8.625-4.67,11.432c-0.427-1.022-0.852-2.041-1.373-3.287c-3.27,3.436-4.255,8.473-7.98,11.543
			c-1.363-3.603-0.65-7.821-3.205-11.117c-2.235,2.313-0.866,6.001-3.399,8.072c-3.546,4.122-5.077,9.871-10.26,12.67
			c1.043-3.196,1.964-6.406,1.514-10.266c-7.96,11.59-12.602,15.895-19.324,17.867c1.355-2.85,2.656-5.465,3.838-8.13
			c0.456-1.04,1.752-2.386,0.275-3.259c-0.969-0.572-1.993,0.681-2.732,1.532c-5.225,6.025-12.067,9.563-19.288,12.503
			c-1.126,0.461-2.593,1.344-3.487,0.289c-1.146-1.355,0.519-2.563,1.196-3.518c1.502-2.123,2.939-4.148,2.891-7.342
			c-1.076,0.734-1.756,1.253-2.489,1.683c-8.027,4.717-15.744,10.28-25.832,9.317c-2.261-0.217-4.46,0.309-6.639,0.859
			c-0.037-2.432,0.074-4.828,1.68-6.865c-0.31-1.922-1.523-1.787-3.072-1.614c-2.622,0.293-5.018,1.345-7.54,1.915
			c-21.441,4.84-40.175-12.856-36.234-34.536c0.728-4.017-0.156-6.446-2.786-9.229c-6.122-6.484-5.723-9.221,1.04-14.825
			c1.788-1.484,4.243-2.427,5.185-4.907c-1.229-0.684-2.158-0.152-3.108,0.077c-12.26,2.938-14.596,1.718-19.229-10.055
			c-0.184-0.463-0.331-0.943-0.472-1.421c-1.381-4.68-1.192-4.926,3.667-5.707c5.75-0.926,11.212-2.674,16.19-5.864
			c-5.236,0.591-10.434,0.508-15.619,0.757c-3.242,0.153-9.354-2.841-10.521-5.833c-3.948-10.114-5.066-20.117,2.032-29.486
			c0.733-0.973,1.593-2.351,0.501-2.909c-4.338-2.217-2.102-5.425-1.429-8.266c0.986-4.167,7.127-9.667,10.81-10.02
			c5.986,3.638,10.876,8.624,16.085,13.198c10.184,8.937,19.775,18.554,28.437,28.906c8.515,10.179,17.124,20.382,24.133,31.755
			c2.609,4.235,5.625,8.241,8.256,12.432c5.421,8.635,10.17,17.709,12.429,27.811c0.813,3.627,2.652,6.756,4.754,9.667
			c2.513,3.476,7.08,3.515,10.888,0.458c1.646-1.322,3.297-2.643,4.949-3.957c1.504,0.195,3.195,1.832,4.449,0.072
			c1.028-1.442-0.516-2.773-1.135-4.075c-1.666-3.494-3.384-6.975-4.354-10.741c-3.041-11.787-3.299-23.952-4.715-35.951
			c-1.494-12.635-3.03-25.247-5.988-37.639c-3.096-12.963-6.373-25.886-10.693-38.505c-0.858-2.501-1.445-5.561-4.659-6.55
			c-1.35-2.939-2.718-5.869-4.032-8.827c-0.281-0.634-0.782-1.425,0.019-2.02c0.71-0.532,1.533-0.06,2.124,0.24
			c5.733,2.9,10.82,6.734,14.313,12.142c8.83,13.668,15.685,28.377,22.258,43.229c5.05,11.406,9.375,23.062,12.699,35.08
			c3.215,11.615,3.909,23.206-0.936,34.591c-1.447,3.399-3.258,6.646-5.823,9.382c-0.667,0.714-1.63,1.331-1.225,2.516
			c0.458,1.344,1.76,1.37,2.824,1.403c2.215,0.069,4.335-0.144,6.482-1.15c11.335-5.318,16.211-15.164,19.211-26.504
			c1.489-5.621,0.733-11.338,1.016-17.883c7.947,6.233,9.016,14.808,10.792,23.141c2.208-4.172,2.982-14.853,1.648-20.634
			c-1.208-5.226-2.708-10.338-5.024-15.197c-0.334-0.701-1.178-1.634-0.219-2.334c0.75-0.551,1.644-0.038,2.454,0.372
			c2.712,1.384,5.067,3.189,6.699,5.781c1.728,2.744,3.257,5.617,5.029,8.33c1.732,2.651,1.58,5.989,3.566,9.307
			c3.255-11.839-0.929-21.974-4.828-33.092c12.59,5.498,15.469,16.42,18.427,27.489c2.023-3.617,2.65-11.009,1.636-15.686
			c-1.134-5.239-2.102-10.507-4.883-15.228c-0.533-0.903-1.254-2.234-0.107-3.056c1.188-0.849,2.223,0.359,2.788,1.167
			c4.146,5.918,9.512,11.022,12.688,17.539c1.707,3.496,1.94,7.645,2.272,11.598c0.049-0.007,0.102-0.009,0.155-0.012
			c-0.066-0.035-0.134-0.077-0.201-0.115c2.188-2.921,2.156-6.49,2.784-9.846c0.33-1.765,1.043-3.044,2.872-2.478
			c5.961,1.852,11.501-0.08,17.094-1.612c2.455-0.674,5.486-1.461,7.092,0.26c1.785,1.918-0.59,4.355-1.625,6.318
			c-1.847,3.502-4.382,6.612-5.942,10.298c-2.026,4.792-2.603,9.723-2.042,14.892c0.318,2.938,1.546,2.771,3.281,1.293
			c8.334-7.124,15.081-15.485,19.61-25.541c4.386-2.108,5.72-6.043,5.715-10.413c-0.008-5.021-2.603-8.881-6.965-11.161
			c-7.598-3.966-15.778-4.976-24.21-3.692c-6.147,0.935-11.994,1.103-16.289-4.509c2.373,0.567,4.671,1.444,7.191,1.314
			c1.117-0.058,2.433,0.352,3.15-0.64c0.889-1.233-0.594-1.969-1.11-2.837c-2.572-4.326-2.654-5.953,0.004-10.274
			c2.921,6.643,8.106,10.184,14.939,10.911c3.412,0.366,6.932-0.313,10.404-0.393c17.891-0.428,25.901,10.316,27.415,26.02
			c0.865,9.002-0.842,17.928-4.313,26.234c-3.202,7.664-8.476,14.033-15.466,18.713c-3.208,2.145-6.671,3.9-10.749,6.256
			c4.193,2,7.823,1.226,11.045,0.447c13.715-3.295,23.07-11.854,28.149-24.942c4.11-10.597,5.206-21.688,3.699-32.882
			c-0.869-6.465,1.31-12.855-0.228-19.275c-0.357-1.484,0.652-1.842,2.086-0.998c5.343,3.141,6.778,8.447,7.419,13.926
			c1.205,10.303-0.089,20.427-3.319,30.338c2.818-2.42,6.8-10.575,8.593-16.246c2.019-6.387,3.365-12.779,2.953-19.52
			c-0.12-1.988,0.511-2.256,2.7-1.301c6.726,2.928,7.88,8.145,6.844,14.472c-0.84,5.128-1.741,10.257-2.911,15.315
			c-1.165,5.047-2.977,9.914-5.271,15.102c3.341-1.794,4.717-4.855,6.492-7.352c4.964-6.988,8.916-14.529,10.348-23.139
			c0.369-2.221,1.031-2.263,2.85-0.961c6.506,4.658,7.488,8.931,3.49,16.577c-3.535,6.759-8.281,12.657-13.395,18.224
			c-9.371,10.205-16.952,21.479-20.969,34.824c-2.948,9.801-4.458,19.819-1.4,29.924c1.422,4.7,3.42,9.144,8.171,11.572
			c4.235,6.553,8.393,10.113,12.092,10.314c-6.788-15.588-9.687-31.663-6.3-48.549c0.062-0.303-0.252-0.681-0.388-1.024
			c5.624-13.685,14.699-24.776,25.609-34.577c6.286-5.651,13.47-9.87,20.766-13.959c9.849-5.52,20.292-8.734,31.716-7.926
			c8.727,0.617,16.07,3.951,21.34,11.203c6.682,9.192,9.756,19.762,11.865,30.729c2.229,11.582,4.004,23.227,5.777,34.881
			c0.406,2.668,1.43,5.323,2.615,7.771c2.446,5.064,6.807,7.002,12.312,7.446c12.69,1.019,25.245-0.938,37.864-1.333
			c7.654-0.238,15.068-0.045,21.852,4.197c4.813,3.008,7.565,7.26,9.167,13.634c-6.56-3.533-13.04-3.384-19.368-4.151
			c-1.094-0.133-1.949-0.51-2.137,1.045c-0.526,4.396-2.869,4.033-6.325,2.909c-12.901-4.192-25.935-3.044-38.944-0.313
			c-1.938,0.406-3.892,0.717-5.843,1.074c0.22-1.441,0.219-1.438-1.463-1.468c-5.866-0.101-11.779,0.054-17.263-2.575
			c-4.503-2.165-8.432-6.084-7.457-10.641c1.232-5.75-0.712-8.282-4.609-11.832c-5.135-4.68-7.23-11.504-8.58-18.37
			c-2.159-10.972-1.283-21.858,0.676-32.735c0.164-0.912,0.75-1.896-0.381-2.883c-1.573,1.561-3.133,3.116-4.694,4.668
			c-4.9,2.709-7.988,7.076-10.353,11.915c-1.447,2.964-2.816,2.573-4.668,0.665c-1.64-1.688-3.266-3.383-5.342-5.541
			c-0.11,5.613,1.92,9.881,4.557,13.912c2.072,3.164,3.898,6.195,2.816,10.359c-0.528,2.032-1.127,1.889-2.74,1.617
			c-4.854-0.814-8.385-4.028-12.325-6.493c-1.364-0.853-2.579-1.944-3.839-2.911c0.719,5.621,4.473,8.359,8.754,13.557
			c1.858,2.26,4.041,4.419,6.895,5.631c1.946,0.829,2.705,2.26,1.418,4.152c-1.195,1.752-1.422,4.621-4.985,3.59
			c-8.062-2.331-14.866-6.75-21.257-11.973c-0.574-0.469-1.134-0.957-1.859-1.294c3.596,6.955,7.664,13.505,14.582,17.761
			c1.048,0.645,2.143,1.35,2.902,2.285c1.073,1.328,5.076,0.281,3.281,3.914c-1.993,4.031-4.527,5.26-7.932,4.393
			c-5.139-1.313-8.756-5.011-12.929-7.84c-0.979-0.661-1.634-1.843-3.291-1.943c2.604,5.8,5.836,10.928,10.278,15.197
			c2.059,1.977,2.436,3.059-0.334,4.985c-7.825,5.437-16.632,8.313-25.992,10.597c2.599,1.523,2.599,1.523,10.928,0.81
			c-3.959,3.623-8.515,5.529-13.327,8.521c9.296,3.297,17.737,2.877,26.401,0.42c8.561-2.425,15.694-7.504,23.365-11.789
			c1.527,15.19-17.215,39.262-45.722,42.168c9.659,2.578,18.452,3.178,27.509,1.129c7.635-1.729,14.628-4.631,21.021-9.097
			c0.791-0.552,1.781-1.533,2.657-0.987c1.116,0.697,0.404,2.021,0.158,3.035c-3.336,13.867-12.339,22.922-24.794,28.986
			c-4.339,2.113-8.856,3.742-13.755,4.289c12.435,6.342,24.397,4.604,36.116-2.396c-0.09,14.454-16.469,26.602-39.978,29.732
			c3.788,4.432,8.814,5.062,13.525,6.344c5.126,1.396,10.008-1.127,15.108-1.061c-3.104,12.222-13.617,17.873-33.846,18.113
			c5.049,5.645,11.508,6.955,18.197,7.733c1.209,0.14,3.096-0.217,3.492,0.403c0.738,1.163-0.498,2.449-1.259,3.547
			c-4.25,6.129-10.528,8.34-17.561,9.096c-1.681,0.179-3.468-0.299-5.362,0.838c4.488,4.816,10.087,6.037,15.983,5.746
			c2.505-0.121,2.659,0.461,2.356,2.52c-0.902,6.215-6.121,10.265-14.482,11.061c-0.605,0.059-1.216,0.069-1.947,0.107
			c3.239,3.614,9.003,5.426,14.129,4.217c2.345-0.55,3.119-0.127,3.108,2.383c-0.034,7.021-1.197,8.344-10.605,11.182
			c2.638,3.045,8.011,4.447,13.166,3.381c1.282-0.264,2.634-1.254,3.525,0.596c0.795,1.643,2.104,3.235,0.739,5.165
			c-1.007,1.422-2.111,2.769-3.115,4.194c-1.407,2.004-0.934,3.254,1.57,3.509c2.577,0.261,4.947-0.497,7.184-1.685
			c1.588-0.844,2.869-0.766,3.775,0.917c3.939,7.304,11.6,9.479,18.193,13.061c2.676,1.453,5.697,2.267,8.564,3.372
			c-10.635,0.221-20.538-2.926-30.293-6.658c-6.742-2.578-12.276-7.172-17.807-11.561c-8.503-6.751-13.704-16.092-18.022-25.833
			c-0.97-2.192-2.594-5.714,1.867-6.991c0.601-0.067,0.726-0.248,0.143-0.597c-4.124-3.731-6.751-8.323-7.636-13.812
			c-0.917-5.668-0.174-6.537,4.994-6.385c0.085-1.651-1.147-2.681-1.852-3.941c-2.666-4.771-3.28-9.875-2.305-15.18
			c0.409-2.232,1.496-3.363,3.953-1.956c1.447,0.828,3.003,1.644,5.036,1.7c-0.152-1.793-1.329-2.614-2.237-3.518
			c-1.892-1.884-3.229-4.119-4.432-6.455c-0.441-0.857-1.173-1.988,0.039-2.636c2.033-1.095,1.457-2.64,1.021-4.195
			c-0.479-1.714-0.521-3.454-0.396-5.2c0.188-2.68,1.389-3.46,3.563-1.6c1.288,1.1,2.484,2.031,4.412,1.1
			c-1.114-1.896-2.34-3.531-3.986-4.902c-2.131-1.774-3.749-4.008-4.963-6.494c-0.412-0.842-1.054-2.277,0.447-2.405
			c3.951-0.339,2.412-2.345,1.62-4.331c-0.594-1.497-0.966-3.087-1.474-4.624c-0.941-2.837-0.143-3.497,2.838-2.916
			c3.529,0.688,7.271,1.457,10.701-1.323c-2.186-0.997-4.502-1.332-6.702-2.029c-7.562-2.399-11.547-7.055-12.046-13.607
			c-0.226-2.971,0.446-4.684,3.928-4.805c3.445-0.119,7.006-0.271,10.125-2.157l-0.008,0.029c-1.719-1.618-3.98-1.229-6.015-1.542
			c-5.37-0.821-9.979-3.077-13.842-6.863c-0.514-0.504-1.256-1.059-0.96-1.881c0.32-0.881,1.199-0.736,1.927-0.59
			c1.212,0.244,2.841,0.885,3.336-0.508c0.604-1.691-1.126-2.643-2.368-3.372c-2.947-1.726-5.293-3.976-7.353-7.352
			c7.286,0.519,13.815-0.327,19.377-4.911c-0.222-0.182-0.328-0.334-0.403-0.322c-0.741,0.111-1.477,0.285-2.217,0.381
			c-8.385,1.088-16.426,0.859-23.113-5.451c-2.926-2.758-3.01-3.205,0.642-4.625c3.138-1.219,5.683-3.115,8.401-6.004
			c-1.696,0.167-2.669,0.324-3.646,0.354c-4.994,0.149-10.025,0.533-14.469-2.549c-1.97-1.369-2.462-2.236,0.309-3.396
			c2.715-1.139,5.685-2.125,7.978-5.059c-1.806,0.037-3.044,0.104-4.279,0.078c-3.909-0.078-7.685-0.529-11.102-2.769
			c-2.286-1.499-2.492-2.771-0.418-4.618c1.947-1.737,3.97-3.453,5.253-5.807c0.364-0.67,0.707-1.391,0-2.025
			c-0.561-0.502-1.181-0.15-1.743,0.082c-1.847,0.754-3.643,1.659-5.536,2.275c-3.275,1.059-5.021-0.07-4.857-3.395
			c0.15-3.076,0.614-6.131,1.938-9.041c1.492-3.285,3.56-6.355,4.724-10.799c-1.376,0.994-2.003,1.375-2.549,1.85
			c-3.196,2.799-6.433,5.59-10.204,7.561c-1.532,0.797-3.434,2.149-5.239,0.728c-1.749-1.382-1.694-3.47-1.378-5.532
			c0.593-3.875,2.287-7.378,3.59-11.014c1.158-3.229,2.808-6.316,3.126-9.838c-1.21-0.17-1.476,0.678-1.972,1.189
			c-4.077,4.195-7.756,8.826-12.998,11.74c-4.514,2.508-7.229,0.925-7.029-4.316c0.141-3.621,0.941-7.158,2.064-10.629
			c0.936-2.904,2.544-5.639,2.672-9.006c-1.695,0.118-2.324,1.299-3.158,2.131c-3.352,3.354-6.545,6.896-10.66,9.38
			c-5.747,3.47-9.33,2.041-11.272-4.395c-1.492-4.96-0.809-9.885,0.158-14.796c0.557-2.846,1.647-5.611,1.182-8.844
			c-1.805,1.217-2.4,2.92-3.35,4.338c-3.203,4.771-6.245,9.66-10.969,13.169c-3.077,2.285-4.847,1.98-6.481-1.471
			c-2.1-4.436-3.148-9.199-4.013-14.003c-0.321-1.805-0.519-3.641-2.421-5.811C339.019,398.934,338.072,403.047,335.914,406.646z
			 M189.589,396.928c-8.791-3.256-16.691-1.337-22.854,5.328c-7.072,7.643-5.779,21.49,2.207,27.604
			c8.514,6.514,21.716,6.779,28.572-3.021c1.122-1.604,2.082-3.314,3.117-4.976c2.64,0.03,4.809-0.38,4.818-3.831
			c0.015-5.086-0.83-9.976-4.018-14.012C198.45,400.237,195.078,396.706,189.589,396.928z M138.646,322.563
			c-4.598,2.581-7.592,9.384-6.489,14.66c0.403,1.932,0.651,3.946,2.241,5.439c2.12,1.988,4.424,1.805,6.432,0.19
			c1.549-1.245,4.792-2.207,2.013-5.354c-0.869-0.986,0.195-2.126,0.581-3.137c0.793-2.085,1.734-4.114,2.463-6.221
			c0.779-2.252,0.128-4.276-1.789-5.604C142.308,321.297,140.318,321.469,138.646,322.563z"/>
		<path fill="#F5C469" d="M443.615,679.499c-1.77-4.383-3.443-8.812-5.329-13.144c-6.384-14.678-8.88-29.976-8.483-45.973
			c0.332-13.479,2.037-26.84,2.59-40.295c0.48-11.753-1.283-23.125-4.713-34.305c-6.646-21.65-18.605-40.131-33.41-57.063
			c-8.661-9.906-17.754-19.33-27.793-27.782c-10.812-9.099-22.477-16.785-37.187-17.801c-8.249-0.566-16.238,0.807-23.547,4.806
			c-7.674,4.196-15.217,8.638-22.76,13.065c-16.092,9.45-33.412,15.393-52.033,16.203c-16.402,0.721-32.35-1.874-46.153-11.899
			c-2.109-1.529-3.945-3.435-5.912-5.169c6.214-1.161,11.992-1.346,18.342,1.238c18.308,7.448,37.139,7.593,56.061,1.653
			c12.613-3.959,24.045-10.252,35.322-16.942c8.696-5.161,17.478-10.119,27.592-12.077c18.692-3.622,35.029,2.048,49.342,13.539
			c25.037,20.102,47.084,42.983,62.315,71.656c9.877,18.596,15.232,38.389,14.456,59.569c-0.323,8.745-0.912,17.507-1.88,26.207
			c-2.889,25.94,0.399,50.541,15.396,72.989C451.672,679.738,447.518,678.727,443.615,679.499z"/>
		<path fill="#F5C469" d="M335.914,406.646c2.158-3.599,3.105-7.712,4.479-12.278c1.901,2.17,2.101,4.01,2.424,5.813
			c0.86,4.803,1.909,9.568,4.009,13.999c1.635,3.453,3.406,3.759,6.478,1.475c4.727-3.511,7.77-8.399,10.971-13.17
			c0.951-1.419,1.547-3.12,3.351-4.339c0.463,3.231-0.623,5.998-1.182,8.842c-0.965,4.914-1.651,9.84-0.158,14.798
			c1.943,6.437,5.526,7.864,11.27,4.396c4.115-2.483,7.309-6.023,10.663-9.38c0.834-0.833,1.463-2.014,3.156-2.132
			c-0.125,3.367-1.738,6.104-2.674,9.009c-1.119,3.468-1.922,7.003-2.061,10.626c-0.199,5.242,2.515,6.825,7.025,4.318
			c5.245-2.914,8.924-7.548,13.002-11.744c0.492-0.509,0.761-1.356,1.971-1.186c-0.318,3.521-1.971,6.607-3.126,9.837
			c-1.302,3.636-2.997,7.14-3.589,11.013c-0.32,2.066-0.373,4.151,1.375,5.531c1.807,1.424,3.711,0.074,5.239-0.727
			c3.772-1.97,7.011-4.761,10.206-7.559c0.545-0.477,1.173-0.858,2.549-1.85c-1.161,4.443-3.231,7.516-4.724,10.797
			c-1.321,2.912-1.785,5.968-1.938,9.042c-0.161,3.323,1.581,4.456,4.858,3.394c1.891-0.615,3.688-1.52,5.532-2.275
			c0.567-0.23,1.187-0.586,1.747-0.082c0.705,0.635,0.361,1.355-0.001,2.026c-1.284,2.354-3.308,4.069-5.253,5.806
			c-2.077,1.85-1.869,3.12,0.419,4.62c3.417,2.237,7.196,2.692,11.101,2.766c1.238,0.026,2.474-0.041,4.281-0.075
			c-2.297,2.933-5.268,3.918-7.981,5.056c-2.771,1.162-2.277,2.028-0.304,3.399c4.439,3.084,9.473,2.697,14.467,2.546
			c0.978-0.028,1.95-0.185,3.643-0.352c-2.717,2.889-5.26,4.786-8.397,6.004c-3.652,1.42-3.567,1.865-0.642,4.625
			c6.687,6.309,14.727,6.54,23.111,5.448c0.743-0.094,1.477-0.266,2.214-0.379c0.081-0.012,0.186,0.141,0.409,0.322
			c-5.563,4.582-12.096,5.432-19.379,4.914c2.061,3.372,4.402,5.623,7.352,7.35c1.244,0.73,2.975,1.679,2.371,3.373
			c-0.496,1.391-2.125,0.752-3.336,0.508c-0.729-0.147-1.609-0.293-1.928,0.588c-0.298,0.822,0.445,1.378,0.96,1.881
			c3.865,3.785,8.471,6.045,13.841,6.865c2.034,0.31,4.297-0.075,6.016,1.54l0.008-0.03c-3.122,1.889-6.681,2.042-10.124,2.16
			c-3.484,0.117-4.157,1.833-3.933,4.805c0.501,6.549,4.487,11.205,12.051,13.605c2.2,0.7,4.514,1.035,6.701,2.029
			c-3.432,2.779-7.173,2.014-10.701,1.322c-2.982-0.58-3.779,0.081-2.842,2.92c0.51,1.533,0.883,3.123,1.479,4.621
			c0.789,1.99,2.331,3.992-1.621,4.331c-1.502,0.13-0.859,1.563-0.45,2.405c1.216,2.487,2.831,4.718,4.964,6.49
			c1.647,1.373,2.872,3.012,3.99,4.906c-1.932,0.934-3.129,0.002-4.413-1.1c-2.176-1.863-3.377-1.079-3.565,1.6
			c-0.125,1.743-0.082,3.484,0.396,5.201c0.436,1.554,1.013,3.102-1.022,4.193c-1.207,0.648-0.477,1.779-0.034,2.639
			c1.202,2.334,2.538,4.572,4.429,6.452c0.906,0.907,2.086,1.728,2.24,3.519c-2.033-0.057-3.591-0.871-5.039-1.702
			c-2.455-1.405-3.543-0.272-3.955,1.959c-0.974,5.305-0.359,10.404,2.307,15.18c0.705,1.262,1.938,2.289,1.85,3.938
			c-5.166-0.15-5.907,0.721-4.991,6.387c0.885,5.488,3.511,10.079,7.635,13.813c-0.052,0.198-0.101,0.398-0.142,0.6
			c-4.462,1.273-2.839,4.795-1.868,6.988c4.319,9.742,9.521,19.084,18.023,25.831c5.53,4.392,11.062,8.981,17.804,11.563
			c9.759,3.73,19.661,6.878,30.295,6.657c2.494,0.491,5.193,0.276,7.814,2.268c-11.293,3.201-22.255,3.577-33.079,0.677
			c-26.961-7.216-41.613-26.373-48.985-52.051c-4.5-15.677-3.201-31.67-1.603-47.629c1.243-12.426,2.241-24.871,0.725-37.356
			c-2.216-18.196-7.421-35.474-16.905-51.208c-18.734-31.07-42.848-57.293-72.363-78.409c-9.175-6.563-19.664-10.311-30.93-11.513
			c-2.143-0.232-2.176-0.75-1.522-2.496C333.667,413.736,334.742,410.172,335.914,406.646z"/>
		<path fill="#F5C469" d="M638.879,494.749c-7.801,6.724-16.59,6.319-25.75,3.669c-12.535-3.626-25.096-3.518-37.695-0.184
			c-4.092,1.084-8.155,2.412-12.441,2.602c-2.45,0.105-3.403,1.177-3.311,3.795c0.701,19.484-4.726,37.826-11.838,55.536
			c-5.854,14.562-14.121,28.028-22.416,41.399c-5.455,8.789-10.51,17.784-14.231,27.548c-4.405,11.562-2.738,22,3.979,31.995
			c-0.914,0.387-1.83,0.774-2.746,1.166l0.032-0.016c-7.05,3.422-7.005,3.4-10.446-3.545c-6.194-12.51-4.487-24.879,0.614-37.172
			c4.804-11.574,11.429-22.175,17.853-32.875c10.964-18.261,20.555-37.118,25.787-57.94c3.135-12.472,3.809-25.115,3.101-37.885
			c-0.073-1.285-0.608-3.047,1.783-2.497c9.238,2.123,17.851-1.039,26.64-2.972c12.732-2.798,25.42-3.386,38.03,0.989
			c5.364,1.857,10.905,3.492,15.321-2.303c0.953-1.25,2.498-0.77,3.748,0.08C637.944,488.215,639.494,490.979,638.879,494.749z"/>
		<path fill="#F5C469" d="M502.639,223.909c0.569-0.208,1.321-0.246,1.679-0.639c6.826-7.478,14.697-4.081,21.862-1.429
			c18.658,6.913,26.096,28.592,17.281,46.243c-3.849,7.709-9.415,14.407-12.496,22.56c-2.728,7.227-3.234,14.578-1.965,22.051
			c0.835,4.928,5.342,7.365,8.326,10.789c8.38,9.61,16.042,19.641,21.828,31.11c4.846,9.607,9.249,19.345,12.581,29.581
			c6.332,19.427,10.378,39.277,11.398,59.717c-0.353,0.112-0.705,0.324-1.061,0.326c-10.27,0.08-8.483,1.6-9.781-7.9
			c-2.228-16.33-4.667-32.629-10.104-48.242c-8.561-24.576-20.869-46.947-40.082-64.977c-2.241-2.099-2.705-4.715-3.179-7.367
			c-2.622-14.763-0.16-28.508,8.284-41.079c3.196-4.755,6.395-9.524,8.283-15.031c4.098-11.936-1.148-23.155-12.908-27.61
			c-4.135-1.568-8.459-2.105-12.77-2.758C506.441,228.744,503.544,227.697,502.639,223.909z"/>
		<path fill="#F5C469" d="M219.781,261.227c2.61-0.559,4.148-2.65,6.063-4.212c2.668-2.18,5.146-2.851,8.844-1.399
			c15.223,5.97,23.514,18.238,30.469,31.955c6.037,11.909,11.403,24.118,16.552,36.427c1.193,2.857,2.727,1.667,4.34,0.433
			c11.43-8.746,23.721-16.144,36.395-22.896c4.94-2.635,10.129-4.807,15.236-7.12c2.561-1.159,3.431-2.06,0.543-4.187
			c-3.177-2.344-6.401-4.792-8.374-8.436c-1.489-2.752-0.645-4.655,1.766-6.343c2.384-1.671,4.571-2.828,6.539,0.408
			c7.397,9.617,17.562,14.378,29.242,16.477c2.454,0.44,4.862,1.151,7.318,1.558c2.006,0.335,1.641,0.904,0.824,2.383
			c-2.051,3.698-4.371,5.188-9.066,4.417c-12.944-2.131-24.636,2.684-35.844,8.343c-17.289,8.729-33.387,19.362-48.325,31.723
			c-0.919,0.76-2.083,1.23-3.458,2.025c-5.969-13.493-11.602-27.167-18.026-40.455c-5.241-10.835-10.005-22.11-19.489-30.313
			c-5.833-5.045-12.231-8.824-19.981-9.938C220.684,261.979,220.15,261.79,219.781,261.227z"/>
		<path fill="#F5C469" d="M378.71,246.112c4.678-0.445,8.812,0.222,11.883,4.444c1.474,2.023,4.287,1.787,6.583,2.134
			c17.433,2.641,29.197,13.498,33.132,30.607c0.688,2.982,0.603,5.965,0.154,8.921c-0.383,2.545,0.328,3.784,2.945,4.571
			c6.514,1.957,6.238,1.933,10.362-3.53c6.716-8.888,14.642-16.623,23.507-23.4c2.37-1.816,4.576-3.84,6.873-5.752
			c0.99-0.824,1.258-1.805,0.785-2.99c4.173,1.092,8.345,2.185,12.676,3.32c-1.09,3.473-3.684,5.538-6.174,7.428
			c-14.211,10.789-27.148,22.736-36.15,38.405c-0.75,1.31-1.479,1.149-2.73,0.653c-7.768-3.074-15.577-6.083-23.814-7.665
			c-2.939-0.563-1.355-1.963-0.861-3.148c5.205-12.445,1.944-24.65-8.576-31.775c-5.729-3.882-12.459-4.92-18.986-6.479
			c-3.516-0.841-7.095-1.418-10.594-2.319c-3.059-0.785-5.856-2.146-7.738-4.88c-1.405-2.045-1.134-3.691,1.101-4.953
			C375.025,248.608,377.292,248.021,378.71,246.112z"/>
		<path fill="#F5C469" d="M734.235,446.59c11.364,19.684,22.729,39.367,34.091,59.049c0.625,1.081,1.295,2.144,1.838,3.266
			c1.15,2.371,0.48,4.41-1.463,5.992c-1.961,1.592-3.958,1.034-5.857-0.268c-1.404-0.961-2.059-2.479-2.866-3.876
			c-22.796-39.471-45.589-78.942-68.372-118.421c-0.807-1.398-1.742-2.742-1.998-4.403c-0.391-2.526,0.43-4.515,2.806-5.519
			c2.38-1.006,4.446-0.261,5.824,1.911c1.397,2.212,2.638,4.53,3.948,6.804c10.674,18.49,21.354,36.982,32.031,55.477
			C734.224,446.597,734.229,446.594,734.235,446.59z"/>
		<path fill="#F5C469" d="M141.8,299.633c-3.685,0.348-9.825,5.846-10.81,10.018c-0.674,2.843-2.911,6.047,1.43,8.266
			c1.087,0.556,0.23,1.937-0.503,2.909c-7.097,9.367-5.98,19.371-2.032,29.483c1.166,2.994,7.278,5.986,10.521,5.834
			c5.184-0.246,10.384-0.166,15.617-0.754c-4.975,3.187-10.438,4.937-16.188,5.862c-4.86,0.779-5.047,1.026-3.669,5.706
			c0.142,0.477,0.29,0.959,0.472,1.424c4.635,11.772,6.97,12.99,19.229,10.053c0.952-0.229,1.878-0.761,3.108-0.077
			c-0.942,2.48-3.394,3.424-5.185,4.908c-6.762,5.604-7.16,8.343-1.042,14.823c2.633,2.787,3.516,5.212,2.789,9.229
			c-3.939,21.68,14.792,39.378,36.234,34.536c2.525-0.567,4.918-1.617,7.541-1.915c1.548-0.174,2.76-0.309,3.068,1.614
			c-7.388,2.654-14.747,5.256-22.809,5.051c-21.796-0.557-34.629-21.592-29.13-38.703c0.526-1.635,0.423-2.866-1.007-4.313
			c-7.85-7.92-13.363-17.364-18.24-27.372c-2.595-5.329-5.377-10.558-7.695-16.045c-8.272-19.592-5.77-41.7,10.237-56.424
			c1.361-1.252,2.507-2.741,3.725-4.144C138.934,297.915,140.364,297.861,141.8,299.633z"/>
		<path fill="#F5C469" d="M539.896,110.035c8.748,15.154,17.5,30.31,26.245,45.467c0.501,0.865,1.015,1.729,1.429,2.637
			c1.275,2.797,0.727,5.381-1.905,6.818c-2.688,1.469-5.042,0.402-6.599-2.297c-5.868-10.18-11.761-20.346-17.637-30.519
			c-11.939-20.675-23.875-41.354-35.811-62.028c-0.438-0.76-0.9-1.508-1.266-2.299c-1.36-2.943-0.666-6.043,1.787-7.177
			c3.055-1.406,5.135-0.229,6.768,2.628c8.937,15.621,17.97,31.191,26.969,46.78C539.883,110.043,539.89,110.039,539.896,110.035z"
			/>
		<path fill="#FC8119" d="M458.198,218.166c7.129,10.051,16.448,17.135,28.407,20.35c7.816,2.102,15.656,4.284,23.809,4.688
			c5.414,0.267,10.096,2.952,11.311,6.955c1.122,3.69-0.428,7.082-2.005,10.196c-3.924,7.744-9.105,14.415-17.324,18.132
			c-0.728,0.328-1.729,0.461-1.93,1.625c1.82,1.801,3.986,0.416,5.97,0.563c-0.18,3.543-3.348,5.784-7.231,5.126
			c-0.603-0.103-1.247-0.229-1.768-0.525c-6.419-3.652-6.477-2.979-2.12-8.457c4.109-5.167,7.257-10.928,9.951-16.98
			c1.408-3.16,0.213-4.176-2.532-5.009c-5.872-1.789-12.081-2.552-17.548-5.612c2.396-4.09,2.4-4.094-2.161-6.139
			c-1.253-0.563-2.532-1.056-3.78-1.623C468.866,236.735,461.34,229.432,458.198,218.166z"/>
		<path fill="#F5C469" d="M716.103,513.213c7.055,12.219,14.116,24.438,21.16,36.664c0.624,1.082,1.229,2.18,1.732,3.318
			c1.412,3.152,0.785,6.089-1.714,7.07c-3.032,1.193-5.26-0.119-6.813-2.809c-8.176-14.169-16.35-28.343-24.533-42.507
			c-6.684-11.569-13.38-23.132-20.074-34.697c-0.188-0.325-0.421-0.624-0.576-0.964c-1.277-2.785-0.476-7.07,1.477-7.979
			c2.488-1.156,5.285,0.178,7.27,3.602c7.387,12.748,14.743,25.516,22.112,38.277C716.127,513.198,716.116,513.205,716.103,513.213z
			"/>
		<path fill="#F5C469" d="M678.276,418.65c2.198-0.512,3.555-4.057,6.723-1.385c-0.109-6.601-3.964-11.199-6.504-16.332
			c-0.595-1.203-2.214-2.221-1.1-3.924c14.823,25.791,29.646,51.566,44.454,77.352c5.227,9.1,10.448,18.201,15.596,27.348
			c1.078,1.914,2.694,3.652,2.618,6.085c-2.558-4.415-5.157-8.803-7.642-13.259c-1.021-1.832-1.941-2.145-3.767-0.833
			c-1.666,1.194-3.28,3.444-5.883,1.666c-6.106-10.444-12.249-20.865-18.314-31.331C695.702,448.926,687.002,433.779,678.276,418.65
			z"/>
		<path fill="#F5C469" d="M224.636,286.509c3.211,0.991,3.801,4.05,4.657,6.553c4.32,12.616,7.6,25.539,10.695,38.502
			c2.958,12.392,4.493,25.003,5.987,37.639c1.418,11.999,1.675,24.167,4.717,35.951c0.971,3.767,2.689,7.245,4.354,10.743
			c0.621,1.3,2.164,2.627,1.135,4.072c-1.254,1.766-2.946,0.123-4.45-0.072c-5.834-3.527-7.613-9.406-8.519-15.517
			c-2.292-15.446-3.188-31.04-4.429-46.589c-1.641-20.568-4.787-40.864-10.468-60.705
			C227.297,293.536,225.785,290.065,224.636,286.509z"/>
		<path fill="#FC8119" d="M357.114,243.41c0.665-0.947,1.686-0.806,3.171-1.005c-2.117,2.901-3.296,5.829-3.528,9.04
			c-0.652,8.989,4.801,14.317,11.723,18.275c7.865,4.497,17.022,5.253,25.569,7.793c2.854,0.849,5.756,1.525,8.199,3.342
			c2.772,2.057,4.241,6.301,3.243,9.285c-1.362,4.084-4.232,6.265-8.303,6.291c-0.36,0.002-0.718-0.102-1.077-0.156
			c-2.051-0.321-4.9,0.745-6.008-0.745c-1.559-2.093,1.881-3.044,2.562-4.931c0.934-2.587,1.229-3.818-2.124-4.672
			c-5.938-1.514-12.051-2.666-17.505-5.742c0.638-2.377-1.41-2.548-2.73-3.248c-6.265-3.332-12.548-6.637-16.179-13.197
			C349.878,256.08,351.167,247.34,357.114,243.41z"/>
		<path fill="#F5C469" d="M526.547,398.835c1.562-1.553,3.121-3.108,4.692-4.669c1.129,0.988,0.543,1.972,0.378,2.883
			c-1.956,10.876-2.83,21.764-0.672,32.736c1.35,6.865,3.445,13.691,8.581,18.369c3.899,3.547,5.843,6.08,4.608,11.832
			c-0.974,4.556,2.951,8.476,7.455,10.641c5.485,2.63,11.397,2.475,17.264,2.574c1.684,0.031,1.681,0.027,1.465,1.469
			c-6.262,1.866-12.576,3.242-19.158,1.904c-9.342-1.898-14.773-9.373-13.53-18.748c0.179-1.369,0.038-2.25-1.112-3.214
			c-9.166-7.671-12.642-17.972-13.179-29.487c-0.33-7.082,0.116-14.117,2.243-20.971
			C526.109,402.443,526.235,400.612,526.547,398.835z"/>
		<path fill="#F5C469" d="M200.705,448.424c2.18-0.553,4.383-1.078,6.641-0.863c10.087,0.967,17.805-4.599,25.83-9.315
			c0.735-0.43,1.412-0.95,2.49-1.679c0.048,3.189-1.389,5.215-2.891,7.336c-0.678,0.955-2.341,2.165-1.195,3.521
			c0.893,1.054,2.36,0.17,3.488-0.288c7.222-2.941,14.062-6.477,19.286-12.503c0.738-0.851,1.764-2.105,2.735-1.532
			c1.472,0.869,0.18,2.215-0.279,3.258c-1.181,2.666-2.48,5.28-3.837,8.125c6.723-1.968,11.366-6.274,19.322-17.861
			c0.451,3.857-0.466,7.068-1.512,10.264c-1.567,3.83-4.299,6.782-7.885,8.555c-14.635,7.247-29.969,11.514-46.441,8.854
			C210.935,453.402,205.042,452.813,200.705,448.424z"/>
		<path fill="#F5C469" d="M586.029,540.854c0.391-0.78,0.754-1.571,1.166-2.335c1.828-3.378,5.097-3.629,7.424-0.535
			c0.676,0.889,1.191,1.896,1.756,2.866c7.091,12.304,14.223,24.589,21.223,36.942c0.936,1.649,2.673,2.838,2.877,4.891
			c-1.557,1.918-3.15,3.829-4.672,5.791c-1.32,1.7-2.104,1.493-3.147-0.392C603.895,572.275,594.395,556.884,586.029,540.854z"/>
		<path fill="#F5C469" d="M690.993,558.044c3.56,6.163,7.106,12.335,10.683,18.495c1.183,2.035,1.25,3.984-0.232,5.917
			c-1.111,1.448-2.509,1.813-4.289,1.604c-1.626-0.191-2.356-1.277-3.051-2.451c-7.367-12.474-14.75-24.937-22.036-37.459
			c-1.521-2.613-0.694-6.58,1.497-7.561c3.186-1.426,5.215,0.372,6.726,2.97c3.581,6.153,7.125,12.327,10.686,18.491
			C690.983,558.049,690.988,558.048,690.993,558.044z"/>
		<path fill="#F5C469" d="M673.063,576.191c3.182,5.516,6.387,11.016,9.542,16.547c1.816,3.182,1.31,5.918-1.285,7.431
			c-2.388,1.392-5.111,0.528-6.874-2.473c-6.449-10.979-12.839-21.991-19.189-33.028c-1.686-2.936-0.966-6.39,1.359-7.566
			c2.593-1.316,5.172-0.305,7.049,2.896c3.157,5.383,6.248,10.806,9.372,16.21C673.046,576.202,673.055,576.197,673.063,576.191z"/>
		<path fill="#F5C469" d="M347.831,331.893c4.296,5.608,10.144,5.442,16.291,4.509c8.429-1.285,16.611-0.274,24.209,3.693
			c4.364,2.278,6.959,6.14,6.963,11.162c0.004,4.368-1.328,8.303-5.714,10.41c0.075-0.493,0.09-0.997,0.232-1.471
			c4.071-13.772-5.888-18.441-15.348-19.366c-4.792-0.472-9.337,1.268-14.013,1.847c-5.225,0.651-9.907-0.383-13.238-4.949
			c-1.759-2.411-2.658-5.002-1.959-8.19C346.716,329.746,346.912,331.247,347.831,331.893z"/>
		<path fill="#F5C469" d="M622.868,636.347c2.06,3.573,4.146,7.127,6.174,10.715c1.587,2.808,0.576,4.986-1.866,6.647
			c-2.503,1.699-4.526,0.831-5.921-1.546c-4.294-7.323-8.567-14.661-12.702-22.077c-1.486-2.664-0.832-5.109,1.961-6.619
			c2.766-1.494,4.731-0.344,6.178,2.169C618.74,629.209,620.809,632.774,622.868,636.347z"/>
		<path fill="#F5C469" d="M442.051,422.039c0.136,0.342,0.447,0.721,0.388,1.024c-3.385,16.886-0.488,32.963,6.298,48.548
			c-3.697-0.2-7.854-3.762-12.09-10.316c-6.404-13.705-2.041-26.254,4.158-38.59C440.978,422.361,441.623,422.254,442.051,422.039z"
			/>
		<path fill="#F5C469" d="M593.305,655.66c-1.688-2.92-3.414-5.818-5.047-8.769c-1.574-2.844-1.019-6.422,1.365-7.621
			c2.911-1.468,5.195,0.097,6.637,2.439c3.796,6.161,7.51,12.388,10.9,18.774c1.208,2.276-0.039,4.601-2.294,5.953
			c-2.198,1.318-4.367,1.229-5.825-1.115c-1.979-3.178-3.771-6.471-5.646-9.717C593.365,655.623,593.334,655.641,593.305,655.66z"/>
		<path fill="#FC8119" d="M283.72,122.555c3.548,6.02,7.181,11.996,10.601,18.086c1.424,2.533,1.384,4.959-1.683,6.633
			c-3.059,1.671-4.847,0.521-6.355-2.208c-3.144-5.678-6.89-11.019-9.563-16.958c1.016-0.678,0.354-1.479,0.222-2.291
			c-0.418-2.575,2.022-4.782,4.444-4.014C282.162,122.05,282.734,122.93,283.72,122.555z"/>
		<path fill="#FC8119" d="M436.323,701.839c3.066-3.956,6.272-3.976,8.728,0.114c3.129,5.219,6.094,10.531,9.103,15.821
			c1.248,2.19,1.726,4.45-0.202,6.513c-1.941,2.082-4.104,1.746-6.26,0.285c-1.147-2.051-2.388-4.058-3.424-6.162
			C441.564,712.912,437.137,708.238,436.323,701.839z"/>
		<path fill="#F5C469" d="M458.198,218.166c3.142,11.266,10.665,18.57,21.048,23.289c1.248,0.567,2.527,1.061,3.781,1.621
			c4.561,2.047,4.557,2.053,2.16,6.142c-9.272-2.513-17.924-6.185-24.633-13.39c-3.756-4.037-5.683-8.739-4.711-14.337
			C456.094,220.061,456.156,218.381,458.198,218.166z"/>
		<path fill="#F5C469" d="M236.241,164.612c-1.309-2.271-2.707-4.497-3.909-6.823c-1.367-2.647-0.685-4.947,1.896-6.355
			c2.515-1.373,4.928-0.943,6.479,1.627c2.776,4.595,5.507,9.223,8.054,13.944c1.472,2.727,0.652,5.137-2.074,6.649
			c-2.669,1.476-4.821,0.593-6.344-1.898c-1.431-2.347-2.758-4.749-4.131-7.127C236.22,164.622,236.23,164.617,236.241,164.612z"/>
		<path fill="#F5C469" d="M472.426,121.103c-1.118-1.943-2.266-3.871-3.357-5.832c-1.555-2.799-0.287-4.809,2.018-6.313
			c2.25-1.471,4.377-0.99,5.85,1.208c2.775,4.142,5.242,8.475,7.313,13.02c1.194,2.624,0.223,4.747-2.217,5.911
			c-2.392,1.14-4.622,0.733-6.064-1.836C474.81,125.195,473.604,123.157,472.426,121.103z"/>
		<path fill="#F5C469" d="M357.114,243.41c-5.947,3.93-7.238,12.67-2.994,20.333c3.633,6.558,9.918,9.864,16.183,13.198
			c1.319,0.701,3.369,0.87,2.732,3.247c-8.577-1.68-16.491-4.697-22.536-11.367c-6.634-7.325-5.818-18.404,1.824-24.124
			C353.654,243.703,355.048,242.064,357.114,243.41z"/>
		<path fill="#F5C469" d="M167.427,234.222c-1.058-1.832-2.18-3.63-3.157-5.51c-1.258-2.405-0.997-4.745,1.313-6.262
			c2.398-1.571,5.093-1.133,6.656,1.155c2.591,3.796,4.937,7.805,6.917,11.947c1.24,2.594-0.257,4.81-2.643,6.213
			c-2.472,1.452-4.299,0.315-5.657-1.762c-1.223-1.874-2.263-3.867-3.384-5.81C167.459,234.205,167.444,234.213,167.427,234.222z"/>
		<path fill="#FC8119" d="M260.387,151.117c-1.303-2.259-2.688-4.477-3.889-6.789c-1.337-2.565-0.342-4.765,1.898-6.033
			c2.318-1.316,4.579-0.76,6.028,1.739c2.49,4.302,5.034,8.577,7.444,12.926c1.398,2.519,1.04,5.073-1.513,6.446
			c-2.55,1.372-5.029,0.888-6.538-2.093c-1.064-2.103-2.338-4.101-3.52-6.145C260.329,151.151,260.36,151.135,260.387,151.117z"/>
		<path fill="#F5C469" d="M149.369,255.482c-1-1.731-2.112-3.408-2.972-5.204c-1.296-2.712-0.382-4.937,2.097-6.372
			c2.462-1.428,4.674-0.712,6.112,1.64c2.214,3.624,4.255,7.353,6.331,11.06c1.541,2.751,0.455,4.931-1.928,6.338
			c-2.414,1.419-4.651,0.544-6.175-1.676c-1.269-1.847-2.282-3.873-3.404-5.819C149.411,255.459,149.39,255.471,149.369,255.482z"/>
		<path fill="#FC8119" d="M224.28,177.92c0.99,1.719,2.01,3.427,2.973,5.166c1.379,2.481,0.328,4.517-1.747,5.704
			c-2.031,1.169-4.603,1.069-6.024-1.005c-2.307-3.37-4.386-6.944-6.138-10.631c-1.208-2.542-0.131-4.889,2.354-6.271
			c2.449-1.363,4.309-0.248,5.676,1.838c1.086,1.657,2.004,3.426,2.998,5.146C224.342,177.884,224.313,177.9,224.28,177.92z"/>
		<path fill="#FC8119" d="M722.772,495.368c2.601,1.776,4.217-0.472,5.883-1.666c1.821-1.312,2.744-1.001,3.767,0.833
			c2.484,4.456,5.084,8.844,7.642,13.259c0.975,2.964-1.149,4.132-3.214,4.895c-2.63,0.974-4.602-0.545-5.871-2.708
			C728.158,505.16,725.497,500.244,722.772,495.368z"/>
		<path fill="#FC8119" d="M330.482,122.423c0.998,1.729,2.059,3.424,2.978,5.19c1.303,2.51,0.258,4.391-1.96,5.614
			c-2.24,1.236-4.419,0.944-5.861-1.333c-1.934-3.054-3.77-6.177-5.508-9.35c-1.503-2.748-0.189-4.801,2.115-6.27
			c2.361-1.504,4.291-0.643,5.696,1.564c0.939,1.471,1.761,3.015,2.634,4.527C330.546,122.387,330.514,122.405,330.482,122.423z"/>
		<path fill="#FC8119" d="M485.482,226.621c-10.593-3.313-18.759-13.188-17.651-21.19
			C476.097,210.481,481.652,217.504,485.482,226.621z"/>
		<path fill="#F5C469" d="M315.034,415.07c3.465-3.554,3.471-8.817,6.284-13.104c1.799,2.515,2.319,5.135,2.858,7.729
			c0.392,1.865,1.249,2.608,3.085,1.638c-2.321,7.088-5.608,9.538-14.35,10.206C313.667,419.237,314.351,417.154,315.034,415.07z"/>
		<path fill="#FC8119" d="M497.572,295.948c-3.851,1.728-12.616-0.32-15.157-3.628c-1.909-2.486,0.631-3.827,1.69-5.396
			c0.887-1.306,1.99-1.745,3.693-0.326c2.973,2.474,5.893,5.145,9.629,6.553c0.691,0.26,1.5,0.545,1.605,1.387
			C499.154,295.521,498.219,295.638,497.572,295.948z"/>
		<path fill="#F5C469" d="M496.156,95.499c2.784-1.692,6.019-0.899,7.774,1.899c1.688,2.692,0.8,6.769-1.788,8.203
			c-2.772,1.539-6.084,0.561-7.728-2.281C492.741,100.425,493.475,97.133,496.156,95.499z"/>
		<path fill="#F5C469" d="M186.896,216.463c-1.855-3.226-1.068-6.85,1.841-8.467c2.769-1.537,6.317-0.377,7.984,2.61
			c1.615,2.905,0.647,6.568-2.141,8.099C191.77,220.246,188.529,219.302,186.896,216.463z"/>
		<path fill="#F5C469" d="M281.044,424.217c2.533-2.071,1.166-5.76,3.399-8.072c2.556,3.297,1.842,7.518,3.205,11.117
			c-1.92,5.412-3.266,6.888-10.506,11.083c1.986-4.279,2.364-8.213,3.603-11.938c0.419-0.699,0.652-1.432,0.428-2.252
			L281.044,424.217z"/>
		<path fill="#FC8119" d="M482.221,301.723c1.79,1.904,1.217,2.381-0.006,2.822c-2.715,0.984-5.426,0.807-8.012-0.193
			c-1.811-0.699-4.133-1.654-3.762-4.016c0.349-2.201,2.605-3.469,4.137-5.037c0.475-0.484,1.288-0.128,1.684,0.318
			C478.383,298.006,480.359,300.529,482.221,301.723z"/>
		<path fill="#F5C469" d="M782.042,549.108c-1.44-2.427-0.604-5.815,1.884-7.052c2.774-1.383,5.008-0.678,6.584,2.057
			c1.498,2.602,0.793,5.652-1.686,7.041C786.609,552.395,783.419,551.432,782.042,549.108z"/>
		<path fill="#F5C469" d="M478.541,23.738c-1.5-2.422-0.795-5.803,1.509-7.246c2.381-1.496,5.509-0.631,7.018,1.94
			c1.468,2.499,0.71,5.605-1.731,7.126C483.157,26.91,479.975,26.059,478.541,23.738z"/>
		<path fill="#F5C469" d="M297.002,419.007c3.458-2.808,2.899-7.342,4.671-11.431c2.946,4.827,1.809,9.657,1.907,14.314
			c-1.454,3.867-5.411,4.293-8.711,6.715C295.046,424.836,297.343,422.186,297.002,419.007z"/>
		<path fill="#F5C469" d="M513.712,125.328c1.922-1.381,3.778-1.16,5.581,0.242c-0.773,0.432-1.039,1.048-0.684,1.887
			c-3.318,1.377-1.029,3.695-0.923,5.63c0.034,0.682,0.495,1.261,1.21,0.868c1.608-0.874,1.595-2.625,1.92-4.134
			c0.332-1.525-1.344-1.503-1.975-2.302c0.699-0.523,0.762-1.191,0.449-1.947c3.174,2.76,3.646,5.955,1.279,8.662
			c-1.649,1.885-5.348,2.133-7.541,0.511c-2.661-1.972-2.898-5.248-0.604-8.474c0.696,1.721-1.029,3.404-0.087,5.121
			c0.448,0.817,0.941,2.329,2.012,1.42c1.702-1.451,0.2-3.998,1.444-5.932C516.326,126.057,514.516,125.775,513.712,125.328z"/>
		<path fill="#F5C469" d="M127.339,390.244c2.798,5.072,5.76,9.203,9.22,12.928c2.081,2.234,0.706,4.612,1.213,7.169
			C130.763,406.438,126.42,398.242,127.339,390.244z"/>
		<path fill="#FC8119" d="M499.602,41.66c0.859,2.031,1.219,4.063-1.137,5.466c-2.198,1.313-4.178,0.743-5.453-1.344
			c-1.256-2.05-0.9-4.13,1.129-5.576C496.387,38.605,498.085,39.763,499.602,41.66z"/>
		<path fill="#F5C469" d="M604.01,602.078c0.23-2.044-0.38-3.799-1.418-5.587c-12.57-21.631-25.074-43.302-37.585-64.966
			c-0.676-1.17-1.611-2.246-1.582-3.724c13.413,23.161,26.844,46.312,40.198,69.505C604.425,598.698,606.5,600.291,604.01,602.078z"
			/>
		<path fill="#F5C469" d="M573.036,671.984c-1.036-2.248-1.231-4.263,0.954-5.727c1.91-1.281,5.244-0.381,6.107,1.71
			c0.918,2.218,0.257,4.315-1.742,5.511C576.213,674.758,574.334,673.854,573.036,671.984z"/>
		<path fill="#F5C469" d="M421.288,60.53c1.259,2.647,0.671,4.667-1.489,6.06c-2.222,1.436-4.172,0.564-5.377-1.504
			c-1.329-2.272-0.715-4.45,1.498-5.817C418.104,57.918,419.932,58.88,421.288,60.53z"/>
		<path fill="#F5C469" d="M210.091,290.104c1.842-1.063,3.355-2.16,4.321,0.198c0.775,1.896,2.656,3.895,0.722,5.913
			c-1.213,1.267-9.213,0.687-9.217-0.366C205.907,292.874,208.58,291.561,210.091,290.104z"/>
		<path fill="#FC8119" d="M178.094,182.657c1.196,2.147,1.05,3.954-0.961,5.279c-2.004,1.32-3.859,0.847-5.029-1.14
			c-1.098-1.863-1.1-3.904,0.988-5.177C175.025,180.443,176.869,180.664,178.094,182.657z"/>
		<path fill="#FC8119" d="M752.689,537.668c1.938-0.568,3.959-0.858,5.178,1.27c1.124,1.967,0.665,3.989-1.178,5.275
			c-2.092,1.458-3.864,0.288-5.021-1.49C750.495,540.926,751.091,539.181,752.689,537.668z"/>
		<path fill="#F5C469" d="M342.935,83.577c2.253-1.178,4.235-0.621,5.441,1.467c1.177,2.041,0.921,4.241-1.305,5.503
			c-2.127,1.207-4.165,0.709-5.438-1.482C340.395,86.928,340.77,85.016,342.935,83.577z"/>
		<path fill="#F5C469" d="M201.111,340.833c2.399-1.162,8.531-0.504,8.733,1.092c0.337,2.638-1.62,5.139-3.473,5.598
			c-3.368,0.834-3.587-3.522-5.724-5.079C199.813,341.839,200.4,341.195,201.111,340.833z"/>
		<path fill="#F5C469" d="M187.48,327.02c-0.065-0.113-0.484-0.594-0.395-0.722c1.632-2.326,4.168-1.782,6.406-1.726
			c1.276,0.033,3.314,0.215,2.464,2.573c-0.501,1.392-1.161,2.73-1.799,4.069c-0.631,1.324-1.461,1.565-2.518,0.378
			C190.322,330.114,188.977,328.66,187.48,327.02z"/>
		<path fill="#F5C469" d="M654.841,631.061c-0.834-2.117-1.194-4.025,1.16-5.26c2.267-1.188,4.345-0.578,5.464,1.488
			c1.172,2.172,0.099,4.27-1.971,5.311C657.653,633.523,655.848,632.941,654.841,631.061z M656.688,626.75
			c-1.292,0.879-1.005,1.914-0.447,2.949c0.606,1.117,1.42,2.34,2.81,1.482c0.999-0.616,1.726-1.929,1.073-3.201
			C659.41,626.592,658.011,626.531,656.688,626.75z"/>
		<path fill="#F5C469" d="M220.395,324.672c1.373,0.13,2.589-2.883,3.887-0.532c0.956,1.736,1.992,4.037,0.54,6.157
			c-0.441,0.646-7.5-0.949-7.676-1.772C216.619,326.018,219.23,326.007,220.395,324.672z"/>
		<path fill="#F5C469" d="M179.674,317.809c-2.618-0.583-3.764-2.962-5.535-4.485c-0.913-0.785-0.481-1.627,0.589-1.897
			c2.54-0.636,5.707-2.508,7.482-0.013C183.536,313.278,181.17,315.693,179.674,317.809z"/>
		<path fill="#F5C469" d="M216.628,307.027c1.314-0.051,2.759-2.867,3.791-0.004c0.623,1.739,2.368,3.733,0.513,5.686
			c-0.778,0.816-7.001-0.61-7.273-1.654C213.029,308.643,215.458,308.283,216.628,307.027z"/>
		<path fill="#F5C469" d="M161.562,298.699c2.298-0.736,5.002-2.238,6.452,0.193c1.091,1.834-0.746,4.146-1.852,6.028
			c-0.285,0.488-5.494-3.212-5.926-4.263C159.652,299.229,160.769,299.02,161.562,298.699z"/>
		<path fill="#FC8119" d="M461.141,312.088c0.986-1.898,0.771-4.957,3.363-4.733c1.15,0.097,3.277,3.14,2.938,3.774
			C466.1,313.667,463.28,310.811,461.141,312.088z"/>
		<path fill="#F5C469" d="M216.437,365.063c-1.667-2.111-1.716-4.932-3.88-6.97c3.061-1.372,5.533-0.49,7.895,0.6
			c1.378,0.639,1.151,1.672,0.075,2.611C219.175,362.494,217.873,363.74,216.437,365.063z"/>
		<path fill="#F5C469" d="M220.99,345.309c2.695-1.728,4.363-4.597,6.895-3.125c1.17,0.682,1.766,4.562,0.361,5.406
			C226.018,348.929,223.795,346.606,220.99,345.309z"/>
		<path fill="#F5C469" d="M283.72,122.555c-0.986,0.375-1.559-0.505-2.334-0.75c-2.424-0.768-4.861,1.44-4.442,4.015
			c0.132,0.812,0.791,1.613-0.224,2.292c-2.045-3.095-1.942-5.963,0.537-7.361C279.851,119.283,282.287,119.376,283.72,122.555z"/>
		<path fill="#F5C469" d="M291.205,168.675c-9.258,5.342-18.516,10.681-27.759,16.01
			C272.419,178.844,281.365,172.981,291.205,168.675z"/>
		<path fill="#F5C469" d="M436.323,701.839c0.813,6.399,5.241,11.073,7.942,16.567c1.035,2.107,2.277,4.113,3.424,6.166
			c-4.455-4.738-6.541-10.961-10.158-16.229C436.2,706.407,434.949,704.334,436.323,701.839z"/>
		<path fill="#F5C469" d="M501.395,223.059c0,0,0.057,0.102,0.053,0.098C501.443,223.155,501.395,223.059,501.395,223.059z"/>
		<polygon fill="#FC8119" points="512.462,662.26 512.43,662.275 512.397,662.416 		"/>
		<path fill="#F5C469" d="M218.521,261.219c0.573-0.299,1.106-0.297,1.571,0.21C219.519,261.734,219,261.609,218.521,261.219z"/>
		<path fill="#FC8119" d="M281.172,424.154c0.224,0.82-0.009,1.553-0.428,2.252C280.044,425.494,279.179,424.555,281.172,424.154z"
			/>
		<path fill="#013F54" d="M587.982,241.316c-0.937-1.623-1.929-3.219-2.797-4.878c-1.662-3.156-1.019-6.386,1.583-8.343
			c2.746-2.057,6.562-1.965,8.755,0.797c3.021,3.804,5.736,7.919,7.291,12.574c1.189,3.566-0.084,5.949-3.455,7.524
			c-3.311,1.548-6.13,0.842-8.141-2.191c-1.17-1.769-2.144-3.665-3.206-5.505C588.003,241.304,587.991,241.309,587.982,241.316z"/>
		<path fill="#013F54" d="M200.632,421.861c-1.035,1.662-1.994,3.372-3.115,4.975c-6.857,9.803-20.058,9.537-28.571,3.021
			c-7.989-6.112-9.282-19.959-2.209-27.604c6.16-6.662,14.064-8.581,22.854-5.328C200.712,404.107,202.885,409.014,200.632,421.861z
			 M185.669,413.787c-1.412-2.391-4.373-3.203-6.732-1.85c-2.713,1.555-3.204,3.982-1.446,6.953
			c1.572,2.668,3.709,3.031,6.288,1.584C186.256,419.084,187.067,416.153,185.669,413.787z"/>
		<path fill="#013F54" d="M138.646,322.563c1.673-1.094,3.662-1.266,5.452-0.025c1.917,1.327,2.57,3.353,1.789,5.604
			c-0.729,2.106-1.67,4.136-2.463,6.221c-0.383,1.01-1.449,2.15-0.581,3.137c2.778,3.147-0.464,4.109-2.013,5.354
			c-2.008,1.614-4.312,1.798-6.432-0.19c-1.59-1.493-1.838-3.508-2.241-5.439C131.053,331.946,134.046,325.141,138.646,322.563z"/>
		<path fill="#F5C469" d="M200.632,421.861c2.253-12.848,0.082-17.758-11.039-24.936c5.485-0.217,8.859,3.313,11.842,7.094
			c3.188,4.035,4.03,8.924,4.02,14.008C205.443,421.48,203.275,421.889,200.632,421.861z"/>
		<path fill="#F5C469" d="M469.737,531.649l0.009-0.031L469.737,531.649z"/>
		<path fill="#013F54" d="M346.453,368.081c0.069,0.04,0.137,0.079,0.202,0.116c-0.053,0.002-0.104,0.003-0.154,0.011
			C346.501,368.217,346.453,368.081,346.453,368.081z"/>
		<path fill="#F5C469" d="M465.093,643.289c0.582,0.348,0.457,0.529-0.142,0.598C464.992,643.688,465.041,643.487,465.093,643.289z"
			/>
		<path fill="#FC8119" d="M518.842,127.52c0.631,0.801,2.306,0.778,1.975,2.302c-0.324,1.511-0.312,3.26-1.92,4.134
			c-0.716,0.393-1.174-0.188-1.21-0.868c-0.106-1.935-2.394-4.254,0.923-5.63L518.842,127.52z"/>
		<path fill="#FC8119" d="M513.712,125.328c0.806,0.447,2.613,0.729,2.084,1.551c-1.241,1.936,0.26,4.482-1.443,5.934
			c-1.071,0.907-1.566-0.604-2.013-1.42c-0.939-1.719,0.783-3.402,0.09-5.122C512.854,125.958,513.282,125.645,513.712,125.328z"/>
		<path fill="#FC8119" d="M518.608,127.459c-0.355-0.84-0.088-1.455,0.681-1.887l0.001-0.001c0.313,0.757,0.251,1.425-0.448,1.948
			L518.608,127.459z"/>
		<path fill="#FC8119" d="M656.688,626.75c1.321-0.218,2.724-0.16,3.437,1.232c0.652,1.273-0.075,2.583-1.073,3.2
			c-1.393,0.858-2.206-0.364-2.811-1.483C655.684,628.664,655.396,627.631,656.688,626.75z"/>
		<path fill="#F5C469" d="M185.669,413.787c1.398,2.366,0.586,5.297-1.89,6.688c-2.578,1.448-4.716,1.084-6.288-1.584
			c-1.756-2.975-1.268-5.398,1.446-6.953C181.297,410.583,184.257,411.396,185.669,413.787z"/>
	</g>
</g>
</svg>
