<?xml version="1.0" encoding="utf-8"?>
<!-- Generator: Adobe Illustrator 16.0.3, SVG Export Plug-In . SVG Version: 6.00 Build 0)  -->
<!DOCTYPE svg PUBLIC "-//W3C//DTD SVG 1.1//EN" "http://www.w3.org/Graphics/SVG/1.1/DTD/svg11.dtd">
<svg version="1.1" id="Layer_1" xmlns="http://www.w3.org/2000/svg" xmlns:xlink="http://www.w3.org/1999/xlink" x="0px" y="0px"
	 width="822.047px" height="822.047px" viewBox="0 0 822.047 822.047" enable-background="new 0 0 822.047 822.047"
	 xml:space="preserve">
<rect fill="#013F54" width="822.047" height="822.047"/>
<g>
	<g>
		<path fill="#FC8119" d="M183.385,270.793c0.177,0.692,0.355,1.387,0.568,2.221c2.281-1.115,2.704-3.606,4.237-5.166
			c0.594-0.604,0.98-1.619,2.043-1.199c0.846,0.332,0.673,1.268,0.686,1.976c0.065,3.874,0.114,7.748,0.116,11.621
			c0.018,53.118,0.024,106.235,0.043,159.354c0,2.249-0.104,4.512,0.095,6.745c0.385,4.388,2.767,6.646,6.604,6.511
			c3.77-0.133,5.503-2.154,5.503-6.933c0.007-16.748-0.117-33.495-0.127-50.243c-0.027-47.993,0.105-95.986-0.182-143.98
			c-0.041-6.901,1.711-12.162,6.271-17.349c13.079-14.887,26.745-29.107,42.515-41.188c12.861-9.854,26.478-18.51,41.14-25.446
			c3.563-1.684,3.754-1.402,3.736,2.61c-0.092,20.494-0.188,40.987-0.245,61.479c-0.005,1.484,0.077,3.029,0.484,4.439
			c0.975,3.382,4.222,5.517,7.416,4.817c3.374-0.738,4.988-3.148,5.024-6.497c0.067-6.248-0.013-12.496-0.015-18.744
			c-0.001-16.123,0.195-32.248-0.104-48.365c-0.094-5.073,0.136-9.09,6.267-9.821c-0.854,1.881,0.059,3.776,0.044,5.672
			c-0.114,14.201-0.082,28.404-0.089,42.605c0,1.122-0.053,2.254,0.084,3.36c0.471,3.841,3.427,5.26,6.698,3.249
			c0.74-0.454,1.451-0.959,2.178-1.439c0.086,6.188,0.189,12.377,0.25,18.565c0.041,4.428,1.722,7.633,4.718,8.395
			c3.947,1.001,6.301-1.203,8.083-4.354c0.767-1.266,0.493-2.664,0.492-4.015c-0.001-25.02,0.005-50.038-0.066-75.056
			c-0.005-2.069,0.344-3.893,1.564-5.547c6.133-1.953,12.343-3.34,18.753-4.301c6.069-0.908,12.128-2.009,18.231-2.862
			c15.358-2.143,30.77-2.254,46.224-1.839c7.815,0.21,15.575,0.695,23.241,2.297c0.819,12.014-2.957,21.888-12.553,29.697
			c-8.104,6.595-16.98,11.857-26.098,16.742c-13.869,7.432-27.767,14.958-40.112,24.645c-15.018,11.783-28.891,24.951-38.021,42.176
			c-1.23,2.315-2.592,2.767-4.766,1.635c-3.807-1.982-7.99-2.863-12.076-3.972c-12.577-3.411-23.509-9.598-32.551-19.004
			c-6.608-6.874-14.018-11.621-24.136-9.698c-4.396-8.249-15.395-7.564-22.638-2.501c-10.863,7.596-13.891,19.628-11.167,32.182
			c3.49,16.099,14.959,24.736,29.282,30.568c8.63,3.513,17.528,6.362,25.85,10.622c0.542,0.277,1.014,0.693,1.52,1.044
			c-9.336,18.208-15.756,37.425-19.986,57.416c-2.23,10.528-3.286,21.165-3.896,31.906c-0.725,12.825,0.897,25.345,3.349,37.856
			c0.872,4.457,3.558,8.821,1.817,13.506c-2.637,7.106-6.748,13.221-12.729,18.113c-6.742,5.518-14.911,8.538-22.102,13.291
			c-16.459,10.881-20.857,33.372-8.154,48.687c4.88,5.883,9.995,12.759,19.646,9.693c0.509-0.161,1.178,0.182,1.773,0.286
			c0.219,0.42,0.438,0.837,0.653,1.249c0-0.004-0.003,0.111-0.003,0.111c1.88,3.792,2.68,7.824,2.112,11.991
			c-0.844,6.199,0.392,11.928,3.563,17.212c3.084,5.141,2.776,9.999-1.05,14.465c-1.626,1.895-1.216,2.833,0.568,4.094
			c10.136,7.153,21.059,8.207,32.216,3.298c12.257-5.397,18.431-15.499,19.605-28.639c1.303-14.592-4.226-27.013-12.688-38.443
			c-0.865-1.169-2.111-2.141-2.385-3.705c0.185-1.266,0.905-1.98,2.177-2.2c2.944-0.506,5.87-1.156,8.829-1.542
			c11.062-1.437,21.798-4.174,32.057-8.513c6.305-2.668,6.078-2.828,10.741,2.124c1.872,1.987,1.868,3.42,0.264,5.431
			c-1.868,2.334-3.432,4.875-4.327,7.806c-5.147,16.781-0.388,32.068,13.39,43.069c1.812,1.447,4.37,2.649,4.632,5.142
			c0.553,5.191,3.798,7.836,8.071,9.789c-4.363,12.587-1.567,21.355,9.652,27.153c9.147,4.731,18.443,3.176,26.853-2.29
			c10.925-7.098,14.418-17.79,13.492-30.343c0.085,3.786,2.559,3.879,5.459,3.623c2.934-0.257,4.613-1.484,4.7-4.61
			c0.115-4.144-1.455-7.873-3.035-11.491c-1.437-3.286-0.232-3.635,2.563-3.354c5.579,0.55,11.16,1.263,16.754,1.453
			c14.354,0.486,28.696,0.227,42.968-1.633c2.014-0.266,3.938-0.526,3.543,2.543c-1.695,13.232-3.152,26.492-3.879,39.824
			c-0.834,15.355,0.209,30.125,10.408,42.905c2.479,3.108,4.959,3.766,8.36,3.211c2.438-0.396,4.816-1.438,7.356-0.614l-0.254-0.081
			c0,0,0.083-0.252,0.082-0.25c0.152,0.67,0.614,0.938,1.26,0.968c2.651,1.311,5.229,2.809,7.975,3.893
			c6.344,2.513,12.006,0.061,14.586-6.211c0.359-0.864,0.639-1.528,1.592-1.846c10.828-3.594,16.157-12.16,19.972-22.101
			c0.177-0.458,0.483-0.869,0.927-1.646c1.764,4.949,2.439,10.055,5.613,14.162c0.474,0.612,0.19,1.946,0.018,2.902
			c-0.628,3.439,0.147,6.686,2.48,9.057c2.446,2.488,0.985,3.562-0.95,4.748c-8.978,5.499-18.218,10.514-27.652,15.186
			c-15.208,7.534-31.091,13.354-47.503,17.475c-17.784,4.462-35.822,7.741-54.23,8.198c-10.67-0.007-21.357-0.011-32.045-0.015
			c-11.392-0.199-22.596-1.961-33.756-4.076c-9.176-1.74-18.29-3.699-27.242-6.439c-23.313-7.131-45.274-17.034-65.55-30.703
			c-15.09-10.174-29.131-21.548-42.12-34.279c-17.08-16.742-31.787-35.378-44.671-55.489c-1.336-2.089-2.625-4.206-3.891-6.341
			c-2.406-4.055-3.552-8.331-3.387-13.165c0.28-8.236,0.077-16.493,0.021-24.739c-0.045-6.354-3.767-9.352-9.713-7.363
			c-2.666,0.889-3.145-0.107-3.94-2.134c-5.083-12.921-8.156-26.331-10.615-39.978c-3.833-21.268-4.948-42.657-3.38-64.137
			c0.941-12.895,2.799-25.729,5.681-38.393c1.96-8.615,4.022-17.172,7.516-25.305c0.326,0.004,0.652,0.01,0.979,0.014
			c0,2.239,0,4.477,0,6.716c-0.003,31.866-0.007,63.732,0.002,95.601c0,1.496-0.061,3.021,0.175,4.486
			c0.54,3.394,3.497,5.789,6.828,5.712c3.283-0.075,6.049-2.688,6.398-6.146c0.125-1.235,0.055-2.495,0.055-3.745
			c0.025-45.49,0.047-90.98,0.085-136.469c0.001-1.493,0.157-2.985,0.242-4.465c1.813-0.919,0.923-2.608,1.009-3.945
			c0.367-5.718-0.672-11.627,2.534-17.398C178.28,272.528,181.227,270.137,183.385,270.793z M172.917,469.517
			c-0.014,0.001-0.024,0-0.037,0.001c0-2.125,0.104-4.254-0.023-6.371c-0.224-3.632-2.312-5.651-5.954-5.969
			c-3.707-0.322-6.002,1.107-6.754,4.791c-0.979,4.811-0.688,9.729,0.025,14.533c0.52,3.488,3.778,5.479,7.186,5.066
			c3.233-0.393,5.404-2.865,5.544-6.433C172.977,473.268,172.917,471.39,172.917,469.517z"/>
		<path fill="#FC8119" d="M517.033,162.223c28.875,13.047,54.666,30.629,77.692,52.391c15.284,14.445,28.333,30.643,39.348,48.51
			c13.762,22.318,24.455,46,31.989,71.149c9.567,31.929,12.92,64.511,10.598,97.663c-1.407,20.084-5.326,39.753-11.237,59.041
			c-1.935,6.314-4.237,12.467-6.467,18.661c-0.354,0.981-0.858,1.786-1.871,2.583c-1.483-2.145-1.972-4.683-2.991-6.976
			c-3.566-8.022-9.248-14.29-16.262-19.435c-0.487-0.356-1.166-0.488-1.215-1.26c-0.836-2.481-1.475-5.051-2.534-7.434
			c-6.94-15.582-19.458-25.801-34.021-33.381c-16.533-8.606-34.5-12.12-53.163-11.983c-8.747,0.063-17.501,0.138-26.245-0.064
			c-8.328-0.191-15.936-2.994-22.795-7.61c-12.231-8.232-18.49-20.725-23.303-34.012c-4.47-12.339-7.631-25.047-10.18-37.953
			c-4.357-22.066-5.473-44.052-0.402-66.126c2.619-11.394,6.777-22.128,13.07-32.065c7.203-11.375,15.362-22.092,22.393-33.601
			c8.34-13.657,13.828-28.151,15.637-44.055C515.61,171.573,516.375,166.903,517.033,162.223z"/>
	</g>
	<g>
		<path fill="#FC8119" d="M473.877,452.371c0.076,0.096,0.207,0.185,0.222,0.291c0.751,4.863,0.703,4.792,5.001,2.094
			c1.41-0.887,2.707-2.232,4.617-2.12c2.074,0.079,2.446,1.149,1.85,2.962c-0.829,2.516-1.688,5.045-1.387,8.123
			c4.58-2.307,7.216-6.861,11.994-8.207c0.636,1.183-0.262,2.135-0.5,3.177c-0.217,0.961-0.594,1.886-0.9,2.825
			c3.488-1.822,6.928-3.757,10.492-5.419c1.256-0.586,2.67-1.437,4.24-0.761c-2.246,4.084-5.646,7.695-5.508,13.352
			c3.58-2.654,5.362-6.863,9.761-7.564c-0.142,1.098-0.283,2.193-0.456,3.532c4.55-1.34,7.922-5.209,12.683-6.007
			c-0.62,3.802-3.347,7.1-2.782,11.231c3.092-0.886,3.75-4.765,6.979-5.292c5.132-1.797,9.333-6.01,15.22-5.842
			c-2.501,2.246-4.904,4.566-6.443,8.133c12.688-6.057,18.86-7.464,25.669-5.811c-2.599,1.789-5.032,3.402-7.389,5.121
			c-0.917,0.672-2.711,1.189-1.869,2.684c0.554,0.98,2.067,0.408,3.134,0.039c7.537-2.605,15.231-2.248,22.953-1.184
			c1.207,0.165,2.92,0.134,3.165,1.494c0.315,1.746-1.729,1.961-2.794,2.449c-2.363,1.086-4.62,2.121-6.174,4.91
			c1.298-0.098,2.146-0.205,2.996-0.211c9.311-0.072,18.774-1.031,27.029,4.848c1.85,1.316,4.018,1.962,6.18,2.572
			c-1.184,2.126-2.479,4.146-4.888,5.107c-0.692,1.819,0.426,2.309,1.854,2.934c2.417,1.057,5.017,1.344,7.486,2.111
			c20.989,6.529,28.365,31.222,14.112,48.025c-2.64,3.115-3.088,5.66-2.202,9.387c2.059,8.676,0.346,10.847-8.313,12.318
			c-2.291,0.392-4.889-0.02-6.943,1.658c0.723,1.207,1.793,1.211,2.73,1.487c12.086,3.586,13.499,5.811,11.625,18.321
			c-0.072,0.492-0.186,0.982-0.302,1.467c-1.144,4.744-1.431,4.862-6.029,3.109c-5.443-2.074-11.047-3.291-16.952-3.018
			c4.828,2.107,9.289,4.777,13.904,7.155c2.886,1.488,6.681,7.136,6.195,10.313c-1.639,10.733-5.672,19.954-16.503,24.52
			c-1.121,0.476-2.555,1.239-1.89,2.269c2.649,4.09-0.891,5.748-2.895,7.873c-2.938,3.115-11.006,4.809-14.371,3.271
			c-3.365-6.142-5.106-12.905-7.332-19.472c-4.351-12.83-7.849-25.955-10.174-39.252c-2.283-13.071-4.639-26.213-5.022-39.566
			c-0.142-4.974-0.75-9.951-0.935-14.895c-0.377-10.188,0.047-20.422,3.142-30.299c1.11-3.548,1.081-7.178,0.716-10.75
			c-0.438-4.266-4.373-6.583-9.2-5.84c-2.087,0.322-4.177,0.638-6.265,0.953c-1.205-0.922-1.85-3.187-3.816-2.288
			c-1.612,0.735-0.94,2.659-1.055,4.097c-0.305,3.859-0.559,7.732-1.601,11.479c-3.259,11.729-9.118,22.394-13.892,33.493
			c-5.023,11.69-10,23.38-13.634,35.59c-3.8,12.774-7.423,25.604-9.991,38.692c-0.508,2.596-1.527,5.538,0.76,8.002
			c-0.301,3.221-0.58,6.442-0.922,9.66c-0.073,0.69-0.035,1.626-1.026,1.741c-0.88,0.104-1.356-0.716-1.718-1.271
			c-3.515-5.379-6.004-11.243-6.324-17.672c-0.814-16.252,0.604-32.417,2.338-48.567c1.33-12.401,3.412-24.658,6.543-36.729
			c3.023-11.667,8.218-22.052,18.105-29.487c2.953-2.222,6.143-4.127,9.735-5.215c0.934-0.285,2.076-0.338,2.318-1.566
			c0.274-1.393-0.84-2.066-1.744-2.627c-1.884-1.168-3.826-2.043-6.189-2.244c-12.476-1.063-21.621,5.026-29.89,13.347
			c-4.1,4.124-6.304,9.452-9.82,14.979c-3.766-9.373-0.404-17.332,2.224-25.438c-3.999,2.51-10.008,11.373-11.743,17.046
			c-1.567,5.13-2.824,10.307-3.248,15.673c-0.061,0.774,0.203,2.004-0.979,2.131c-0.924,0.102-1.442-0.789-1.938-1.55
			c-1.658-2.554-2.793-5.294-2.911-8.354c-0.124-3.24-0.013-6.492-0.19-9.729c-0.174-3.162,1.627-5.977,1.564-9.842
			c-8.738,8.623-10.182,19.492-12.365,31.071c-8.153-11.057-5.187-21.955-2.213-33.021c-3.561,2.121-7.799,8.209-9.259,12.766
			c-1.638,5.105-3.434,10.151-3.386,15.63c0.011,1.048-0.031,2.563-1.434,2.699c-1.455,0.142-1.745-1.423-1.83-2.404
			c-0.634-7.198-2.729-14.301-2.222-21.534c0.271-3.879,2.143-7.59,3.833-11.18c-0.048-0.018-0.094-0.043-0.142-0.066
			c0.04,0.064,0.078,0.134,0.116,0.2c-3.355,1.435-5.111,4.543-7.334,7.134c-1.168,1.363-2.426,2.115-3.726,0.709
			c-4.236-4.584-10.001-5.68-15.61-7.149c-2.461-0.644-5.481-1.478-6.012-3.771c-0.587-2.554,2.689-3.478,4.566-4.66
			c3.35-2.109,7.102-3.535,10.295-5.947c4.151-3.137,7.115-7.119,9.215-11.875c1.193-2.703,0.045-3.174-2.193-2.76
			c-10.781,2.002-20.805,5.87-29.755,12.314c-4.853-0.367-7.975,2.373-10.154,6.16c-2.505,4.352-2.188,8.992,0.45,13.147
			c4.596,7.233,11.176,12.198,19.119,15.304c5.791,2.264,10.938,5.041,11.853,12.049c-1.771-1.678-3.321-3.587-5.569-4.734
			c-0.996-0.508-1.933-1.521-3.049-1.021c-1.387,0.625-0.469,2.002-0.457,3.013c0.064,5.032-0.679,6.481-5.141,8.896
			c0.791-7.213-1.928-12.872-7.482-16.918c-2.771-2.024-6.158-3.197-9.207-4.863c-15.707-8.575-17.272-21.885-10.73-36.24
			c3.75-8.229,9.691-15.105,16.852-20.563c6.605-5.036,14.357-7.917,22.751-8.473c3.85-0.254,7.727-0.043,12.437-0.044
			c-2.632-3.829-6.162-4.974-9.342-5.911c-13.525-4.003-25.906-1.269-36.85,7.526c-8.86,7.122-15.353,16.181-19.646,26.628
			c-2.479,6.033-7.561,10.479-9.439,16.807c-0.434,1.464-1.486,1.269-2.307-0.18c-3.057-5.391-1.646-10.704,0.539-15.769
			c4.107-9.526,10.29-17.646,18.042-24.614c-3.65,0.688-11.175,5.759-15.563,9.773c-4.943,4.521-9.305,9.385-12.319,15.427
			c-0.889,1.783-1.57,1.698-2.989-0.223c-4.36-5.898-2.75-10.993,1.311-15.955c3.29-4.021,6.636-8.01,10.178-11.808
			c3.533-3.788,7.535-7.098,12.113-10.444c-3.788-0.116-6.51,1.849-9.295,3.122c-7.794,3.57-14.986,8.125-20.531,14.865
			c-1.432,1.737-2.024,1.444-2.95-0.594c-3.305-7.286-2.019-11.477,5.267-16.101c6.44-4.087,13.5-6.819,20.712-9.085
			c13.217-4.153,25.421-10.125,35.571-19.676c7.453-7.012,13.771-14.934,16.175-25.213c1.118-4.781,1.61-9.629-1.29-14.107
			c-0.394-7.794-2.211-12.955-5.314-14.979c-1.916,16.894-7.445,32.263-18.818,45.194c-0.205,0.231-0.124,0.716-0.177,1.081
			c-11.714,9.039-25.118,14.107-39.468,17.141c-8.27,1.749-16.6,1.813-24.963,1.704c-11.287-0.144-21.941-2.582-31.43-8.993
			c-7.249-4.897-11.941-11.455-12.878-20.372c-1.191-11.303,1.433-21.991,5.09-32.544c3.86-11.145,8.145-22.117,12.437-33.096
			c0.981-2.514,1.422-5.327,1.621-8.039c0.414-5.608-2.396-9.468-6.94-12.604c-10.479-7.228-22.33-11.811-33.458-17.779
			c-6.747-3.621-13.072-7.494-16.825-14.56c-2.664-5.011-2.921-10.069-1.122-16.391c3.914,6.339,9.599,9.45,14.698,13.279
			c0.88,0.662,1.434,1.416,2.372,0.163c2.655-3.544,4.501-2.058,6.933,0.644c9.075,10.08,20.938,15.604,33.57,19.744
			c1.879,0.616,3.728,1.324,5.596,1.99c-0.911,1.139-0.909,1.135,0.533,2.003c5.03,3.021,10.228,5.844,13.662,10.861
			c2.817,4.127,4.26,9.485,1.138,12.942c-3.942,4.366-3.526,7.53-1.924,12.553c2.107,6.62,0.511,13.578-1.754,20.198
			c-3.616,10.581-9.818,19.572-16.953,28.014c-0.598,0.707-1.598,1.267-1.112,2.688c2.143-0.566,4.271-1.134,6.4-1.697
			c5.598,0.104,10.455-2.134,14.922-5.144c2.735-1.843,3.726-0.819,4.375,1.761c0.576,2.28,1.136,4.563,1.857,7.469
			c2.903-4.806,3.276-9.518,3.009-14.327c-0.21-3.776-0.277-7.314,2.741-10.381c1.474-1.495,1.92-1.072,3.182-0.03
			c3.796,3.135,5.247,7.681,7.428,11.787c0.753,1.422,1.26,2.975,1.869,4.44c2.188-5.229,0.306-9.476-0.802-16.117
			c-0.48-2.886-1.29-5.847-3.156-8.323c-1.272-1.692-1.214-3.313,0.849-4.306c1.912-0.921,3.542-3.291,6.112-0.616
			c5.814,6.05,9.499,13.279,12.422,20.996c0.263,0.693,0.503,1.396,0.962,2.052c0.364-7.821,0.116-15.528-3.748-22.673
			c-0.584-1.082-1.182-2.242-1.371-3.431c-0.267-1.686-4.256-2.781-0.885-5.03c3.742-2.494,6.55-2.291,9.064,0.162
			c3.795,3.705,5.079,8.717,7.278,13.254c0.519,1.063,0.494,2.412,1.878,3.328c0.645-6.324,0.411-12.382-1.302-18.3
			c-0.794-2.741-0.58-3.867,2.782-4.15c9.494-0.797,18.559,1.114,27.809,3.818c-1.49-2.618-1.49-2.618-9.06-6.166
			c5.24-1.157,10.139-0.529,15.802-0.714c-6.401-7.504-13.922-11.359-22.655-13.565c-8.625-2.179-17.343-1.347-26.127-1.472
			c6.271-13.919,34.537-25.396,60.68-13.659c-7.076-7.061-14.394-11.978-23.26-14.73c-7.476-2.32-14.983-3.306-22.754-2.634
			c-0.96,0.083-2.309,0.438-2.795-0.475c-0.616-1.16,0.662-1.951,1.382-2.705c9.822-10.342,22.147-13.682,35.964-12.708
			c4.814,0.339,9.543,1.188,14.057,3.165c-7.599-11.712-18.826-16.188-32.476-15.984c7.306-12.472,27.563-14.802,49.489-5.761
			c-1.066-5.73-5.104-8.789-8.544-12.257c-3.739-3.771-9.229-4.025-13.613-6.634c8.8-9.033,20.729-8.669,38.367,1.237
			c-1.549-7.414-6.487-11.778-11.892-15.797c-0.977-0.726-2.789-1.36-2.822-2.096c-0.059-1.377,1.655-1.872,2.863-2.442
			c6.746-3.183,13.288-1.959,19.756,0.903c1.545,0.686,2.854,1.992,5.063,1.957c-1.479-6.417-5.717-10.273-10.97-12.971
			c-2.229-1.146-2.071-1.728-0.782-3.357c3.891-4.933,10.436-5.83,18.074-2.339c0.555,0.252,1.088,0.548,1.74,0.882
			c-0.998-4.752-5.084-9.201-10.127-10.719c-2.306-0.695-2.766-1.449-1.501-3.617c3.54-6.063,5.21-6.627,14.776-4.381
			c-0.763-3.955-4.715-7.856-9.712-9.51c-1.243-0.413-2.909-0.231-2.757-2.281c0.134-1.818-0.203-3.853,1.944-4.841
			c1.581-0.728,3.212-1.342,4.792-2.073c2.223-1.033,2.438-2.353,0.396-3.825c-2.102-1.515-4.535-2.042-7.063-2.133
			c-1.798-0.063-2.867-0.771-2.812-2.682c0.24-8.296-5.305-14.01-9.225-20.407c-1.592-2.598-3.803-4.813-5.73-7.203
			c9.319,5.127,16.322,12.803,22.904,20.914c4.55,5.603,7.045,12.348,9.641,18.914c3.988,10.097,3.822,20.787,2.691,31.382
			c-0.256,2.385-0.611,6.246-5.113,5.122c-0.554-0.241-0.752-0.148-0.421,0.445c1.705,5.293,1.685,10.584-0.293,15.779
			c-2.041,5.367-3.118,5.748-7.518,3.032c-0.899,1.388-0.347,2.896-0.367,4.339c-0.079,5.467-2.097,10.192-5.593,14.298
			c-1.473,1.729-2.979,2.164-4.402-0.281c-0.84-1.442-1.779-2.926-3.513-3.992c-0.765,1.628-0.155,2.929,0.181,4.166
			c0.695,2.576,0.734,5.182,0.609,7.805c-0.047,0.965,0.021,2.31-1.352,2.266c-2.309-0.07-2.582,1.558-2.982,3.122
			c-0.44,1.724-1.276,3.251-2.256,4.701c-1.503,2.227-2.934,2.303-3.887-0.396c-0.564-1.596-1.135-3.002-3.272-3.159
			c0.02,2.199,0.262,4.229,1.003,6.241c0.959,2.602,1.244,5.344,1.051,8.104c-0.064,0.935-0.227,2.499-1.59,1.857
			c-3.592-1.682-3.261,0.826-3.568,2.94c-0.234,1.596-0.707,3.157-1.035,4.743c-0.604,2.927-1.626,3.101-3.916,1.106
			c-2.713-2.361-5.569-4.896-9.93-4.203c1.395,1.955,3.232,3.402,4.788,5.105c5.351,5.86,6.474,11.885,3.63,17.811
			c-1.289,2.684-2.729,3.832-5.806,2.194c-3.042-1.62-6.2-3.268-9.847-3.192l0.023-0.021c0.678,2.258,2.832,3.055,4.438,4.342
			c4.24,3.396,7.102,7.653,8.555,12.865c0.193,0.693,0.559,1.545-0.11,2.108c-0.716,0.603-1.405,0.038-1.962-0.454
			c-0.927-0.816-2.018-2.186-3.143-1.229c-1.369,1.165-0.346,2.854,0.365,4.104c1.689,2.97,2.596,6.091,2.691,10.044
			c-6.051-4.09-12.128-6.623-19.237-5.436c0.103,0.27,0.117,0.453,0.189,0.482c0.698,0.273,1.42,0.49,2.109,0.778
			c7.806,3.25,14.655,7.47,17.291,16.277c1.153,3.853,1.005,4.28-2.868,3.684c-3.326-0.514-6.479-0.143-10.277,1.001
			c1.553,0.701,2.473,1.053,3.334,1.516c4.4,2.367,8.95,4.551,11.256,9.439c1.021,2.173,1.016,3.17-1.965,2.791
			c-2.92-0.373-5.984-1.004-9.438,0.389c1.582,0.873,2.686,1.436,3.744,2.074c3.346,2.02,6.391,4.3,8.23,7.947
			c1.23,2.442,0.773,3.646-1.947,4.209c-2.555,0.531-5.164,1.006-7.452,2.402c-0.651,0.398-1.309,0.85-1.013,1.754
			c0.233,0.717,0.947,0.72,1.551,0.801c1.977,0.27,3.984,0.385,5.932,0.799c3.367,0.72,4.313,2.568,2.51,5.367
			c-1.668,2.588-3.598,5.002-6.198,6.861c-2.935,2.098-6.262,3.724-9.491,6.99c1.689-0.173,2.423-0.189,3.133-0.328
			c4.168-0.826,8.365-1.624,12.617-1.445c1.726,0.074,4.049-0.145,4.9,1.99c0.824,2.072-0.267,3.852-1.572,5.479
			c-2.451,3.06-5.67,5.245-8.615,7.743c-2.617,2.217-5.59,4.064-7.626,6.957c0.963,0.752,1.616,0.15,2.3-0.043
			c5.63-1.596,11.131-3.77,17.129-3.67c5.163,0.086,6.723,2.814,3.929,7.252c-1.932,3.066-4.395,5.729-7.101,8.174
			c-2.264,2.047-5.024,3.611-6.818,6.463c1.526,0.746,2.663,0.037,3.8-0.268c4.582-1.229,9.118-2.698,13.923-2.791
			c6.709-0.131,9.1,2.896,7.563,9.441c-1.186,5.041-4.242,8.965-7.533,12.734c-1.906,2.186-4.231,4.036-5.445,7.068
			c2.172-0.152,3.538-1.329,5.07-2.082c5.158-2.531,10.239-5.243,16.084-5.92c3.807-0.441,5.188,0.708,4.877,4.515
			c-0.399,4.89-1.873,9.54-3.527,14.132c-0.622,1.725-1.369,3.413-0.808,6.243C467.334,457.497,470.211,454.408,473.877,452.371z
			 M595.74,533.949c5.986,7.214,13.787,9.502,22.456,6.813c9.946-3.083,15.75-15.722,11.89-25.01
			c-4.115-9.897-15.416-16.73-26.254-11.669c-1.773,0.826-3.461,1.829-5.188,2.751c-2.271-1.348-4.355-2.076-6.089,0.908
			c-2.555,4.397-4.269,9.055-3.525,14.144C589.722,526.652,590.877,531.396,595.74,533.949z M602.677,623.823
			c5.272,0.063,11.267-4.331,12.949-9.452c0.616-1.873,1.409-3.743,0.778-5.831c-0.842-2.782-2.929-3.774-5.475-3.381
			c-1.965,0.304-5.252-0.485-4.42,3.631c0.259,1.288-1.232,1.743-2.072,2.426c-1.729,1.409-3.559,2.696-5.242,4.156
			c-1.801,1.561-2.25,3.639-1.252,5.746C598.872,623.087,600.68,623.934,602.677,623.823z"/>
		<path fill="#F5C469" d="M517.033,162.223c-0.658,4.681-1.424,9.353-1.957,14.047c-1.81,15.903-7.297,30.398-15.639,44.055
			c-7.027,11.508-15.187,22.226-22.391,33.602c-6.293,9.938-10.452,20.67-13.07,32.064c-5.07,22.072-3.954,44.057,0.401,66.125
			c2.549,12.908,5.712,25.616,10.18,37.955c4.814,13.286,11.073,25.775,23.305,34.01c6.86,4.615,14.466,7.421,22.795,7.611
			c8.744,0.203,17.497,0.129,26.243,0.064c18.662-0.137,36.632,3.377,53.163,11.984c14.564,7.578,27.079,17.799,34.021,33.381
			c1.062,2.381,1.699,4.948,2.535,7.434c-5.963-2.102-11.058-4.83-15.266-10.243c-12.131-15.604-28.366-25.145-47.723-29.462
			c-12.903-2.878-25.951-3.145-39.061-2.988c-10.111,0.121-20.195,0.023-29.935-3.337c-17.999-6.21-29.312-19.288-35.962-36.396
			c-11.632-29.927-19.284-60.767-18.139-93.214c0.744-21.043,6.002-40.862,17.266-58.816c4.652-7.414,9.542-14.707,14.73-21.756
			c15.473-21.022,24.926-43.97,23.163-70.909C510.175,157.986,513.266,160.941,517.033,162.223z"/>
		<path fill="#F5C469" d="M473.877,452.371c-3.666,2.037-6.543,5.126-10.016,8.393c-0.563-2.828,0.186-4.521,0.807-6.244
			c1.656-4.59,3.13-9.242,3.527-14.129c0.311-3.808-1.07-4.957-4.875-4.516c-5.848,0.677-10.927,3.389-16.085,5.92
			c-1.532,0.753-2.899,1.929-5.07,2.082c1.214-3.031,3.538-4.885,5.444-7.068c3.293-3.771,6.35-7.693,7.534-12.734
			c1.536-6.545-0.853-9.572-7.562-9.441c-4.805,0.093-9.341,1.563-13.924,2.792c-1.139,0.304-2.273,1.013-3.8,0.268
			c1.793-2.853,4.556-4.415,6.819-6.464c2.705-2.445,5.168-5.104,7.1-8.174c2.793-4.439,1.234-7.167-3.928-7.25
			c-5.998-0.101-11.5,2.073-17.13,3.668c-0.683,0.195-1.337,0.795-2.3,0.043c2.037-2.892,5.01-4.738,7.625-6.957
			c2.946-2.498,6.166-4.685,8.615-7.743c1.309-1.628,2.398-3.409,1.573-5.479c-0.851-2.136-3.175-1.919-4.899-1.989
			c-4.252-0.182-8.45,0.617-12.618,1.442c-0.71,0.141-1.444,0.156-3.132,0.329c3.228-3.27,6.557-4.895,9.49-6.99
			c2.6-1.861,4.53-4.275,6.197-6.861c1.803-2.799,0.859-4.648-2.51-5.367c-1.944-0.414-3.953-0.529-5.93-0.799
			c-0.605-0.082-1.319-0.084-1.553-0.801c-0.295-0.904,0.362-1.354,1.014-1.754c2.289-1.396,4.899-1.871,7.452-2.401
			c2.723-0.563,3.179-1.768,1.947-4.211c-1.841-3.646-4.886-5.93-8.23-7.945c-1.06-0.642-2.163-1.202-3.745-2.075
			c3.455-1.392,6.52-0.76,9.439-0.389c2.98,0.379,2.986-0.618,1.963-2.791c-2.303-4.891-6.855-7.073-11.256-9.439
			c-0.861-0.463-1.781-0.814-3.332-1.516c3.799-1.143,6.95-1.516,10.276-1.001c3.872,0.597,4.022,0.169,2.868-3.685
			c-2.637-8.808-9.484-13.026-17.292-16.275c-0.689-0.289-1.411-0.507-2.107-0.779c-0.074-0.029-0.089-0.213-0.191-0.482
			c7.108-1.188,13.188,1.346,19.239,5.436c-0.098-3.952-1.003-7.073-2.691-10.044c-0.713-1.252-1.736-2.938-0.367-4.104
			c1.125-0.956,2.216,0.411,3.144,1.229c0.557,0.492,1.246,1.058,1.963,0.454c0.669-0.563,0.304-1.416,0.109-2.108
			c-1.454-5.211-4.313-9.471-8.554-12.866c-1.607-1.286-3.76-2.083-4.439-4.341l-0.022,0.021c3.647-0.075,6.806,1.572,9.848,3.191
			c3.075,1.639,4.517,0.49,5.806-2.193c2.844-5.925,1.719-11.949-3.631-17.811c-1.557-1.705-3.393-3.151-4.789-5.105
			c4.361-0.692,7.219,1.841,9.93,4.204c2.291,1.993,3.313,1.818,3.918-1.106c0.327-1.585,0.799-3.147,1.033-4.744
			c0.309-2.115-0.023-4.622,3.567-2.939c1.366,0.64,1.526-0.924,1.593-1.857c0.191-2.762-0.092-5.502-1.053-8.104
			c-0.74-2.011-0.982-4.042-1.003-6.242c2.14,0.157,2.71,1.563,3.272,3.159c0.953,2.701,2.385,2.623,3.888,0.397
			c0.979-1.449,1.813-2.978,2.257-4.703c0.4-1.563,0.675-3.191,2.982-3.12c1.371,0.042,1.303-1.301,1.35-2.268
			c0.126-2.622,0.088-5.229-0.61-7.803c-0.333-1.239-0.942-2.539-0.18-4.166c1.732,1.065,2.674,2.549,3.513,3.991
			c1.424,2.445,2.932,2.01,4.402,0.281c3.498-4.105,5.516-8.83,5.595-14.298c0.021-1.444-0.534-2.951,0.366-4.338
			c4.399,2.716,5.477,2.333,7.518-3.033c1.977-5.195,1.998-10.485,0.293-15.779c0.145-0.146,0.287-0.295,0.423-0.448
			c4.501,1.128,4.856-2.733,5.111-5.119c1.132-10.596,1.298-21.286-2.692-31.382c-2.594-6.566-5.09-13.311-9.639-18.914
			c-6.584-8.111-13.586-15.788-22.905-20.914c-1.915-1.673-4.358-2.837-5.634-5.871c11.381,2.875,21.063,8.028,28.986,15.952
			c19.74,19.731,22.852,43.647,16.396,69.57c-3.941,15.828-13.062,29.028-22.425,42.05c-7.291,10.14-14.378,20.419-19.307,31.99
			c-7.18,16.865-11.311,34.431-10.963,52.8c0.687,36.272,8.46,71.041,23.463,104.086c4.663,10.271,11.875,18.761,21.029,25.435
			c1.74,1.271,1.512,1.738,0.07,2.924C479.37,447.354,476.656,449.902,473.877,452.371z"/>
		<path fill="#F5C469" d="M255.554,224.588c10.118-1.922,17.526,2.824,24.136,9.699c9.042,9.405,19.975,15.594,32.553,19.005
			c4.085,1.108,8.269,1.989,12.074,3.97c2.176,1.133,3.537,0.682,4.765-1.634c9.133-17.225,23.006-30.394,38.021-42.175
			c12.349-9.687,26.243-17.213,40.112-24.646c9.117-4.886,17.993-10.146,26.098-16.741c9.597-7.811,13.372-17.685,12.552-29.697
			c0.986,0.12,1.973,0.242,2.959,0.363l-0.033-0.004c7.816,0.562,7.767,0.558,7.273,8.293c-0.891,13.932-8.553,23.788-19.117,31.885
			c-9.949,7.623-20.984,13.49-31.898,19.545c-18.625,10.332-36.36,21.868-51.302,37.283c-8.951,9.232-15.855,19.847-21.627,31.26
			c-0.581,1.148-0.997,2.942-2.792,1.271c-6.939-6.458-15.98-8.026-24.557-10.747c-12.426-3.942-23.708-9.777-32.44-19.871
			c-3.718-4.292-7.699-8.478-14.42-5.667c-1.451,0.606-2.549-0.582-3.207-1.942C253.096,230.714,253.137,227.546,255.554,224.588z"
			/>
		<path fill="#F5C469" d="M238.123,527.262c-0.598-0.104-1.267-0.447-1.774-0.287c-9.65,3.064-14.768-3.813-19.646-9.691
			c-12.703-15.316-8.304-37.81,8.155-48.689c7.188-4.752,15.357-7.77,22.102-13.29c5.978-4.894,10.09-11.007,12.728-18.113
			c1.74-4.685-0.943-9.048-1.816-13.507c-2.453-12.512-4.073-25.029-3.35-37.855c0.608-10.743,1.664-21.377,3.896-31.907
			c4.229-19.991,10.649-39.207,19.986-57.416c0.362,0.078,0.771,0.07,1.08,0.246c8.935,5.066,8.149,2.856,4.521,11.733
			c-6.235,15.256-12.273,30.591-15.37,46.831c-4.874,25.564-5.4,51.093,2.224,76.313c0.89,2.938-0.015,5.437-0.932,7.969
			c-5.109,14.097-14.114,24.769-27.714,31.435c-5.144,2.52-10.299,5.051-14.688,8.875c-9.516,8.287-10.583,20.628-2.625,30.366
			c2.796,3.425,6.273,6.053,9.679,8.772C237.246,521.174,239.233,523.53,238.123,527.262z"/>
		<path fill="#F5C469" d="M501.743,636.374c-2.538-0.821-4.918,0.221-7.356,0.615c-3.4,0.554-5.882-0.104-8.358-3.209
			c-10.198-12.782-11.244-27.552-10.409-42.909c0.726-13.332,2.184-26.588,3.879-39.822c0.395-3.07-1.528-2.807-3.543-2.543
			c-14.271,1.858-28.613,2.118-42.967,1.631c-5.595-0.188-11.175-0.902-16.753-1.452c-2.799-0.276-4.002,0.068-2.565,3.354
			c1.58,3.619,3.148,7.35,3.035,11.492c-0.087,3.127-1.77,4.354-4.701,4.609c-2.9,0.256-5.373,0.163-5.459-3.623
			c-1.598-12.027-8.02-21.232-17.086-28.891c-1.905-1.607-3.635-3.426-5.56-5.008c-1.57-1.293-0.968-1.604,0.479-2.475
			c3.626-2.178,6.38-2.309,10.06,0.707c10.146,8.318,22.68,9.994,35.215,10.697c19.336,1.085,38.594-0.074,57.709-3.311
			c1.178-0.199,2.42-0.023,4.009-0.024c-1.577,14.67-3.535,29.327-4.616,44.048c-0.879,12.003-2.391,24.15,1.723,35.996
			c2.529,7.285,6.18,13.758,12.334,18.597C501.338,635.271,501.705,635.701,501.743,636.374z"/>
		<path fill="#F5C469" d="M356.549,569.998c-4.273-1.953-7.521-4.598-8.071-9.791c-0.263-2.488-2.817-3.69-4.633-5.14
			c-13.776-11.003-18.536-26.287-13.39-43.071c0.896-2.928,2.46-5.468,4.328-7.803c1.604-2.013,1.608-3.442-0.265-5.433
			c-4.663-4.952-4.437-4.792-10.741-2.124c-10.258,4.34-20.992,7.075-32.057,8.513c-2.96,0.387-5.884,1.037-8.828,1.545
			c-1.271,0.218-1.993,0.933-2.176,2.196c-3.068-3.032-6.134-6.063-9.318-9.213c2.681-2.462,5.961-2.954,9.062-3.346
			c17.702-2.238,34.88-6.115,50.51-15.186c1.305-0.758,1.855-0.255,2.692,0.801c5.189,6.546,10.447,13.057,16.792,18.545
			c2.263,1.958,0.192,2.378-0.829,3.156c-10.729,8.176-14.01,20.377-8.46,31.807c3.021,6.227,8.33,10.49,13.204,15.105
			c2.624,2.485,5.434,4.775,8.014,7.306c2.257,2.208,3.999,4.786,4.26,8.095c0.195,2.474-0.863,3.764-3.429,3.739
			C360.989,569.68,358.731,569.054,356.549,569.998z"/>
		<path fill="#F5C469" d="M148.894,218.617c0-22.729,0-45.457,0.002-68.184c-0.001-1.249-0.051-2.503,0.04-3.746
			c0.19-2.629,1.79-4.061,4.262-4.457c2.496-0.399,3.947,1.08,4.94,3.157c0.735,1.535,0.544,3.178,0.543,4.792
			c0.007,45.579,0.01,91.16,0.002,136.74c0,1.615,0.137,3.247-0.472,4.813c-0.925,2.384-2.629,3.696-5.189,3.377
			c-2.563-0.318-3.981-1.998-4.088-4.566c-0.105-2.616-0.019-5.243-0.019-7.865c0.001-21.354,0-42.707,0-64.061
			C148.909,218.617,148.901,218.617,148.894,218.617z"/>
		<path fill="#F5C469" d="M588.479,642.104c3.364,1.541,11.433-0.15,14.371-3.271c2.005-2.125,5.544-3.782,2.894-7.874
			c-0.664-1.025,0.77-1.791,1.89-2.267c10.832-4.564,14.866-13.786,16.503-24.52c0.486-3.175-3.311-8.823-6.195-10.312
			c-4.612-2.379-9.076-5.049-13.902-7.156c5.902-0.272,11.508,0.943,16.951,3.018c4.598,1.754,4.885,1.635,6.03-3.107
			c0.116-0.484,0.229-0.975,0.303-1.469c1.872-12.514,0.459-14.734-11.627-18.32c-0.938-0.278-2.007-0.281-2.73-1.488
			c2.057-1.678,4.651-1.269,6.944-1.658c8.658-1.473,10.372-3.645,8.313-12.316c-0.886-3.729-0.438-6.271,2.2-9.388
			c14.252-16.806,6.878-41.497-14.111-48.025c-2.471-0.771-5.068-1.059-7.488-2.112c-1.428-0.624-2.545-1.112-1.852-2.932
			c7.727,1.396,15.399,2.821,22.279,7.031c18.598,11.379,19.193,36.014,5.875,48.082c-1.272,1.152-1.799,2.271-1.283,4.236
			c2.838,10.785,2.891,21.721,2.11,32.826c-0.417,5.913-0.622,11.832-1.358,17.742c-2.634,21.104-15.854,38.999-37.079,43.747
			c-1.804,0.403-3.54,1.12-5.297,1.726C590.103,645.023,588.837,644.355,588.479,642.104z"/>
		<path fill="#F5C469" d="M148.919,607.252c0-17.499,0-34.999,0.003-52.499c0.001-0.999-0.014-2.005,0.082-2.997
			c0.295-3.06,2.061-5.023,5.06-4.952c3.063,0.072,4.567,2.173,4.565,5.288c-0.008,11.749,0.013,23.5,0.015,35.248
			c0.002,23.876,0.001,47.751-0.001,71.624c-0.001,0.876,0.026,1.756-0.052,2.624c-0.295,3.229-2.444,5.566-5.137,5.32
			c-3.348-0.309-4.56-2.367-4.545-5.658c0.069-17.998,0.032-35.998,0.032-53.998C148.935,607.252,148.927,607.252,148.919,607.252z"
			/>
		<path fill="#FC8119" d="M273.737,554.457c-1.149-12.27-5.676-23.063-14.426-31.827c-5.719-5.729-11.416-11.539-18.275-15.964
			c-4.555-2.938-7.267-7.604-6.318-11.68c0.873-3.758,3.912-5.918,6.834-7.826c7.271-4.745,15.093-7.933,24.07-7.041
			c0.794,0.08,1.728,0.466,2.484-0.442c-0.676-2.47-3.244-2.354-4.889-3.474c1.929-2.979,5.792-3.335,8.825-0.823
			c0.472,0.39,0.966,0.821,1.269,1.339c3.734,6.373,4.12,5.818-2.392,8.385c-6.142,2.42-11.748,5.835-17.109,9.729
			c-2.799,2.033-2.27,3.51-0.312,5.604c4.192,4.485,9.187,8.25,12.392,13.635c-4.121,2.343-4.126,2.347-1.198,6.397
			c0.804,1.112,1.666,2.179,2.461,3.295C273.784,533.04,276.649,543.13,273.737,554.457z"/>
		<path fill="#F5C469" d="M197.909,169.986c0-14.109-0.007-28.222,0.007-42.332c0.001-1.249,0.025-2.502,0.157-3.741
			c0.354-3.435,2.366-5.664,5.02-5.266c3.226,0.483,4.497,2.733,4.497,5.841c-0.003,16.357-0.011,32.719-0.006,49.077
			c0.003,13.361,0.021,26.723,0.035,40.085c0,0.375,0.053,0.752,0.018,1.123c-0.288,3.053-3.123,6.361-5.27,6.171
			c-2.731-0.242-4.487-2.797-4.493-6.752c-0.024-14.734-0.012-29.47-0.011-44.206C197.88,169.985,197.894,169.986,197.909,169.986z"
			/>
		<path fill="#F5C469" d="M183.385,270.793c-2.159-0.656-5.105,1.735-6.513-2.162c-3.207,5.771-2.167,11.682-2.534,17.396
			c-0.086,1.338,0.805,3.028-1.008,3.947c0.057-29.747,0.106-59.482,0.177-89.216c0.023-10.493,0.051-20.986,0.167-31.479
			c0.024-2.2-0.506-4.513,0.776-6.581c0.006,5.102,0.064,10.202-0.012,15.303c-0.03,2.098,0.61,2.828,2.845,2.605
			c2.042-0.203,4.563-1.343,5.93,1.498c0.065,12.098,0.176,24.194,0.195,36.291C183.433,235.861,183.395,253.328,183.385,270.793z"
			/>
		<path fill="#F5C469" d="M510.18,612.051c-2.286-2.464-1.268-5.407-0.756-8.004c2.565-13.086,6.188-25.917,9.988-38.691
			c3.633-12.209,8.609-23.898,13.635-35.588c4.772-11.102,10.631-21.768,13.891-33.494c1.041-3.747,1.293-7.618,1.602-11.479
			c0.112-1.437-0.561-3.358,1.053-4.095c1.969-0.901,2.613,1.365,3.817,2.288c3.29,5.971,1.891,11.952-0.38,17.696
			c-5.739,14.523-12.76,28.475-19.46,42.563c-8.863,18.633-16.286,37.781-21.286,57.805
			C511.388,604.635,510.963,608.396,510.18,612.051z"/>
		<path fill="#FC8119" d="M373.901,583.137c-1.048,0.488-1.863-0.146-3.249-0.715c3.285-1.454,5.77-3.4,7.575-6.065
			c5.061-7.459,3.001-14.8-1.015-21.688c-4.563-7.827-12.115-13.061-18.247-19.533c-2.047-2.162-4.221-4.199-5.43-6.994
			c-1.373-3.167-0.522-7.576,1.833-9.662c3.223-2.855,6.798-3.31,10.336-1.297c0.313,0.178,0.572,0.447,0.855,0.674
			c1.615,1.303,4.617,1.805,4.831,3.648c0.303,2.592-3.152,1.696-4.683,2.99c-2.104,1.773-2.976,2.691-0.499,5.107
			c4.386,4.28,9.104,8.335,12.289,13.726c-1.741,1.739-0.052,2.911,0.741,4.178c3.76,6.019,7.549,12.022,7.414,19.519
			C386.502,575.783,381.017,582.707,373.901,583.137z"/>
		<path fill="#F5C469" d="M304.881,363.818c-2.129,0.564-4.258,1.132-6.4,1.697c-0.483-1.421,0.517-1.979,1.113-2.687
			c7.135-8.44,13.335-17.433,16.952-28.014c2.264-6.62,3.863-13.579,1.754-20.198c-1.604-5.021-2.02-8.188,1.924-12.553
			c3.122-3.457,1.682-8.815-1.138-12.942c-3.434-5.019-8.632-7.841-13.662-10.861c-1.442-0.867-1.443-0.864-0.533-2.003
			c6.356,1.515,12.512,3.479,17.542,7.93c7.143,6.315,8.108,15.503,2.344,23.002c-0.841,1.095-1.157,1.929-0.645,3.34
			c4.104,11.226,1.964,21.885-3.329,32.125c-3.256,6.299-7.161,12.168-12.428,17.04
			C307.063,360.911,306.038,362.436,304.881,363.818z"/>
		<path fill="#F5C469" d="M611.861,483.794c-2.163-0.61-4.334-1.257-6.182-2.573c-8.252-5.88-17.719-4.92-27.027-4.848
			c-0.851,0.006-1.699,0.117-2.996,0.211c1.554-2.787,3.81-3.824,6.172-4.91c1.063-0.488,3.11-0.703,2.795-2.45
			c-0.246-1.36-1.959-1.328-3.165-1.495c-7.724-1.063-15.415-1.421-22.952,1.186c-1.064,0.367-2.58,0.941-3.135-0.04
			c-0.842-1.489,0.951-2.01,1.869-2.683c2.356-1.718,4.789-3.332,7.387-5.119c-6.807-1.655-12.98-0.248-25.666,5.809
			c1.539-3.564,3.939-5.888,6.442-8.133c3.271-2.533,7.113-3.723,11.105-3.466c16.298,1.042,31.711,5.013,44.646,15.554
			C605.49,474.367,610.3,477.824,611.861,483.794z"/>
		<path fill="#F5C469" d="M324.377,211.084c-0.729,0.481-1.439,0.984-2.178,1.439c-3.271,2.011-6.229,0.595-6.698-3.249
			c-0.139-1.106-0.084-2.239-0.084-3.359c0.008-14.202-0.025-28.405,0.09-42.606c0.015-1.896-0.896-3.792-0.045-5.672
			c2.306-0.883,4.641-1.74,6.94-2.678c1.995-0.813,2.568-0.242,2.531,1.912C324.617,174.94,325.147,193.02,324.377,211.084z"/>
		<path fill="#F5C469" d="M242.069,143.717c0-7.119,0.012-14.238-0.004-21.357c-0.004-2.355,0.911-4.077,3.162-5.01
			c1.687-0.698,3.081-0.316,4.517,0.756c1.312,0.979,1.401,2.283,1.417,3.647c0.143,14.486,0.305,28.972,0.354,43.458
			c0.01,3.023-2.688,6.046-5.077,5.8c-3.473-0.358-4.33-2.931-4.34-5.936c-0.023-7.118-0.006-14.237-0.006-21.357
			C242.082,143.717,242.076,143.716,242.069,143.717z"/>
		<path fill="#F5C469" d="M266.672,136.965c0-6.368-0.021-12.733,0.009-19.1c0.018-3.664,1.825-5.78,4.828-5.793
			c2.763-0.012,4.692,2.098,4.718,5.578c0.094,12.732,0.123,25.465,0.104,38.198c-0.008,3.385-2.359,6.017-4.961,5.874
			c-2.902-0.157-4.63-2.323-4.655-6.033c-0.044-6.241-0.011-12.483-0.012-18.725C266.692,136.965,266.682,136.965,266.672,136.965z"
			/>
		<path fill="#F5C469" d="M426.182,511.15c-0.916-7.006-6.063-9.785-11.854-12.05c-7.941-3.103-14.522-8.067-19.119-15.304
			c-2.641-4.154-2.955-8.797-0.448-13.147c2.18-3.785,5.302-6.526,10.153-6.159c-0.311,0.389-0.577,0.818-0.937,1.158
			c-10.412,9.892-4.122,18.914,3.608,24.445c3.914,2.804,8.72,3.57,13.059,5.406c4.85,2.049,8.389,5.285,8.99,10.905
			c0.317,2.968-0.199,5.662-2.398,8.073C426.074,513.566,426.654,512.168,426.182,511.15z"/>
		<path fill="#F5C469" d="M340.219,109.967c0.002-4.123-0.026-8.244,0.011-12.366c0.028-3.224,1.993-4.607,4.94-4.823
			c3.016-0.222,4.335,1.543,4.353,4.298c0.058,8.491,0.09,16.981-0.037,25.472c-0.045,3.05-1.834,4.84-5.007,4.751
			c-3.145-0.09-4.272-2.069-4.267-4.967C340.225,118.211,340.216,114.089,340.219,109.967z"/>
		<path fill="#F5C469" d="M389.658,385.973c0.053-0.365-0.027-0.85,0.176-1.082c11.375-12.934,16.904-28.303,18.82-45.193
			c3.102,2.021,4.92,7.185,5.313,14.979c-1.307,15.071-11.359,23.758-22.896,31.341C390.75,386.229,390.137,385.998,389.658,385.973
			z"/>
		<path fill="#F5C469" d="M375.479,108.022c0,3.374,0.047,6.746-0.014,10.117c-0.059,3.25-2.33,6.071-4.994,5.918
			c-3.254-0.186-4.45-2.683-4.526-5.431c-0.207-7.234-0.313-14.482-0.054-21.71c0.092-2.575,2.335-3.965,4.964-4.009
			c2.562-0.043,4.396,1.118,4.487,3.878c0.125,3.742,0.031,7.491,0.031,11.237C375.409,108.023,375.444,108.023,375.479,108.022z"/>
		<path fill="#FC8119" d="M377.034,724.498c-0.063-6.988-0.221-13.98-0.138-20.965c0.033-2.905,1.281-4.986,4.774-4.902
			c3.484,0.082,4.457,1.972,4.399,5.09c-0.116,6.488,0.458,12.987-0.196,19.467c-1.219,0.08-1.046,1.105-1.339,1.874
			c-0.926,2.438-4.141,3.13-5.854,1.253C378.132,725.713,378.076,724.666,377.034,724.498z"/>
		<path fill="#FC8119" d="M534.518,146.521c-4.633,1.891-7.419,0.307-7.5-4.465c-0.102-6.081-0.014-12.166,0.027-18.251
			c0.015-2.521,0.73-4.717,3.431-5.54c2.724-0.832,4.428,0.54,5.565,2.884c-0.033,2.351,0.038,4.708-0.119,7.05
			C535.516,134.313,537.014,140.572,534.518,146.521z"/>
		<path fill="#F5C469" d="M273.737,554.457c2.912-11.327,0.049-21.415-6.584-30.693c-0.796-1.115-1.657-2.183-2.462-3.294
			c-2.927-4.054-2.921-4.057,1.2-6.398c6.774,6.812,12.43,14.317,14.637,23.911c1.235,5.375,0.551,10.41-3.089,14.771
			C276.507,553.868,275.612,555.291,273.737,554.457z"/>
		<path fill="#F5C469" d="M439.181,711.814c-0.001,2.621,0.097,5.248-0.024,7.863c-0.141,2.976-1.881,4.627-4.821,4.557
			c-2.863-0.068-4.737-1.647-4.797-4.648c-0.106-5.368-0.157-10.74-0.003-16.104c0.09-3.097,2.004-4.774,5.121-4.721
			c3.049,0.056,4.473,1.897,4.545,4.816c0.066,2.747,0.014,5.491,0.015,8.237C439.205,711.815,439.192,711.814,439.181,711.814z"/>
		<path fill="#F5C469" d="M212.885,631.402c-0.004,2.242,0.026,4.485-0.009,6.729c-0.053,3.2-2.157,4.308-4.904,4.459
			c-2.683,0.147-4.285-1.331-4.462-3.972c-0.332-4.975-0.302-9.961,0.177-14.931c0.277-2.87,2.181-4.223,4.876-4.01
			c2.641,0.207,4.369,1.675,4.333,4.62C212.867,626.666,212.89,629.033,212.885,631.402z"/>
		<path fill="#F5C469" d="M373.901,583.137c7.116-0.43,12.603-7.354,12.759-16.112c0.133-7.495-3.656-13.501-7.415-19.521
			c-0.792-1.268-2.482-2.438-0.742-4.18c6.587,5.744,11.933,12.314,13.833,21.112c2.082,9.662-4.165,18.849-13.643,19.98
			C377.044,584.613,375.017,585.335,373.901,583.137z"/>
		<path fill="#F5C469" d="M533.58,685.937c0,2.116,0.072,4.234-0.019,6.352c-0.114,2.712-1.511,4.607-4.271,4.766
			c-2.862,0.161-4.977-1.565-5.187-4.329c-0.347-4.582-0.373-9.227-0.017-13.807c0.222-2.865,2.627-4.035,5.395-4.058
			c2.867-0.022,3.881,1.876,4.018,4.354c0.123,2.234,0.026,4.48,0.026,6.723C533.544,685.936,533.563,685.937,533.58,685.937z"/>
		<path fill="#FC8119" d="M411.521,711.428c0,2.608,0.091,5.222-0.025,7.824c-0.125,2.891-2.086,4.297-4.661,4.275
			c-2.665-0.02-4.345-1.631-4.351-4.521c-0.006-4.97-0.07-9.944,0.016-14.915c0.049-2.881,1.636-4.914,4.533-4.827
			c2.895,0.087,4.799,1.746,4.617,5.081c-0.131,2.354-0.026,4.721-0.025,7.081C411.59,711.428,411.555,711.428,411.521,711.428z"/>
		<path fill="#F5C469" d="M559.85,676.555c0.001,1.998,0.125,4.006-0.028,5.992c-0.233,2.998-2.138,4.465-5.002,4.471
			c-2.847,0.006-4.403-1.721-4.474-4.477c-0.105-4.245-0.008-8.496,0.047-12.743c0.04-3.153,2.071-4.497,4.839-4.524
			c2.8-0.023,4.302,1.854,4.511,4.537c0.177,2.235,0.039,4.496,0.038,6.743C559.802,676.554,559.825,676.554,559.85,676.555z"/>
		<path fill="#FC8119" d="M456.193,706.27c0.001-1.983-0.027-3.973,0.008-5.959c0.047-2.84,1.975-4.076,4.365-4.068
			c2.344,0.004,4.521,1.376,4.714,3.883c0.313,4.071,0.328,8.207,0.001,12.275c-0.225,2.805-2.331,4.3-5.174,4.255
			c-2.803-0.044-3.856-1.94-3.998-4.431c-0.111-1.978-0.021-3.969-0.022-5.955C456.122,706.27,456.156,706.27,456.193,706.27z"/>
		<path fill="#FC8119" d="M183.211,182.105c-1.365-2.84-3.889-1.701-5.93-1.498c-2.232,0.224-2.875-0.506-2.845-2.605
			c0.077-5.101,0.019-10.201,0.012-15.303c0.639-3.055,3.063-3.004,5.231-2.633c2.764,0.473,3.713,2.773,3.729,5.28
			C183.443,170.932,183.29,176.52,183.211,182.105z"/>
		<path fill="#FC8119" d="M336.472,701.23c0-1.996-0.071-3.994,0.016-5.984c0.126-2.824,1.972-3.931,4.505-3.881
			c2.559,0.049,4.298,1.391,4.409,4.084c0.148,3.611,0.178,7.234,0.096,10.852c-0.072,3.131-2.236,4.252-4.967,4.372
			c-2.796,0.122-4.037-1.589-4.151-4.203c-0.077-1.743-0.018-3.492-0.017-5.237C336.399,701.23,336.436,701.23,336.472,701.23z"/>
		<path fill="#FC8119" d="M254.335,533.492c7.52,8.166,9.652,20.8,4.692,27.178C254.395,552.162,253.094,543.303,254.335,533.492z"
			/>
		<path fill="#F5C469" d="M496.174,455.514c-4.778,1.346-7.416,5.901-11.994,8.207c-0.301-3.078,0.558-5.607,1.387-8.123
			c0.596-1.813,0.225-2.883-1.852-2.961c5.555-4.977,9.626-5.455,17.53-1.664C499.44,452.59,497.807,454.053,496.174,455.514z"/>
		<path fill="#FC8119" d="M278.53,467.407c4.197,0.43,10.765,6.587,11.313,10.722c0.411,3.107-2.46,2.998-4.164,3.828
			c-1.419,0.688-2.594,0.516-3.36-1.563c-1.338-3.631-2.531-7.402-5.063-10.49c-0.468-0.571-1.027-1.222-0.696-2.004
			C276.946,466.987,277.814,467.353,278.53,467.407z"/>
		<path fill="#F5C469" d="M179.532,641.71c-3.257,0.074-5.663-2.23-5.784-5.532c-0.117-3.176,2.691-6.262,5.65-6.211
			c3.169,0.055,5.55,2.559,5.553,5.841C184.952,639.152,182.67,641.637,179.532,641.71z"/>
		<path fill="#F5C469" d="M507.84,691.582c-0.005,3.721-2.499,6.467-5.827,6.412c-3.166-0.053-5.659-2.832-5.607-6.252
			c0.052-3.324,2.722-6.012,5.902-5.943C505.512,685.869,507.846,688.308,507.84,691.582z"/>
		<path fill="#F5C469" d="M530.183,464.588c-3.229,0.527-3.89,4.406-6.979,5.292c-0.565-4.134,2.163-7.432,2.782-11.231
			c4.37-3.727,6.272-4.332,14.642-4.344c-3.86,2.714-6.154,5.93-9.09,8.538c-0.713,0.396-1.28,0.913-1.496,1.736L530.183,464.588z"
			/>
		<path fill="#FC8119" d="M294.712,470.084c-0.6-2.545,0.137-2.671,1.417-2.441c2.843,0.504,5.101,2.014,6.84,4.172
			c1.219,1.513,2.752,3.5,1.25,5.36c-1.401,1.731-3.989,1.701-6.101,2.293c-0.652,0.183-1.179-0.534-1.299-1.118
			C296.177,475.221,295.727,472.047,294.712,470.084z"/>
		<path fill="#F5C469" d="M158.752,105.93c0.032,2.821-2.384,5.338-5.157,5.166c-3.094-0.19-4.676-1.917-4.674-5.073
			c0.002-3.004,2.138-5.292,4.98-5.255C156.44,100.801,158.721,103.23,158.752,105.93z"/>
		<path fill="#F5C469" d="M158.907,712.665c0.087,2.847-2.213,5.423-4.93,5.521c-2.81,0.105-5.086-2.208-5.107-5.19
			c-0.021-2.896,2.188-5.208,5.063-5.304C156.494,707.609,158.825,709.938,158.907,712.665z"/>
		<path fill="#F5C469" d="M513.758,461.121c-4.398,0.701-6.182,4.908-9.76,7.564c-0.139-5.653,3.262-9.268,5.506-13.352
			c3.191-2.621,6.83-1.012,10.9-1.457C518.366,457.051,515.052,458.198,513.758,461.121z"/>
		<path fill="#F5C469" d="M179.243,607.101c-2.355,0.233-3.854-0.886-4.712-3.001c0.883,0.013,1.422-0.389,1.534-1.292
			c3.562,0.466,2.739-2.686,3.614-4.415c0.311-0.607,0.201-1.34-0.614-1.356c-1.829-0.047-2.693,1.477-3.73,2.62
			c-1.049,1.154,0.414,1.974,0.56,2.98c-0.867,0.104-1.255,0.651-1.363,1.462c-1.368-3.977-0.18-6.98,3.224-8.141
			c2.369-0.809,5.697,0.825,6.785,3.326c1.319,3.04-0.114,5.995-3.714,7.642c0.258-1.838,2.594-2.434,2.638-4.392
			c0.021-0.933,0.348-2.487-1.033-2.235c-2.201,0.405-2.174,3.361-4.218,4.414C177.343,605.162,178.769,606.311,179.243,607.101z"/>
		<path fill="#F5C469" d="M646.309,570.863c0.113-5.793-0.387-10.852-1.521-15.807c-0.685-2.977,1.694-4.349,2.534-6.816
			C651.44,555.125,651.103,564.395,646.309,570.863z"/>
		<path fill="#FC8119" d="M149.627,686.613c0.272-2.188,0.977-4.127,3.719-4.165c2.56-0.038,3.988,1.444,4.051,3.89
			c0.062,2.404-1.287,4.027-3.766,4.266C150.886,690.867,149.992,689.015,149.627,686.613z"/>
		<path fill="#F5C469" d="M339.415,149.073c-1.22,1.655-1.567,3.479-1.563,5.548c0.071,25.018,0.064,50.037,0.066,75.055
			c0,1.351,0.272,2.75-0.493,4.016c-0.036-26.766-0.09-53.529-0.06-80.294C337.368,151.793,336.368,149.376,339.415,149.073z"/>
		<path fill="#F5C469" d="M401.193,104.018c-0.227,2.468-1.064,4.309-3.688,4.484c-2.297,0.155-4.733-2.292-4.438-4.536
			c0.316-2.378,1.937-3.864,4.267-3.899C399.83,100.029,401.006,101.752,401.193,104.018z"/>
		<path fill="#F5C469" d="M226.885,709.428c0.232-2.922,1.752-4.377,4.319-4.502c2.641-0.133,3.894,1.596,3.904,3.99
			c0.016,2.633-1.605,4.211-4.206,4.288C228.337,713.283,227.234,711.536,226.885,709.428z"/>
		<path fill="#F5C469" d="M524.574,616.209c-2.127,0-3.986,0.193-3.643-2.331c0.276-2.03-0.354-4.701,2.33-5.483
			c1.684-0.488,8.322,4.014,7.799,4.928C529.582,615.902,526.611,615.703,524.574,616.209z"/>
		<path fill="#FC8119" d="M498.561,725.261c0.039-2.458,1.067-3.95,3.473-4.093c2.396-0.141,3.766,1.197,3.785,3.503
			c0.02,2.162-1,3.931-3.444,3.987C500.111,728.712,498.624,727.599,498.561,725.261z"/>
		<path fill="#FC8119" d="M178.451,130.514c-1.962-0.478-3.857-1.234-3.849-3.688c0.01-2.266,1.419-3.788,3.658-3.98
			c2.539-0.216,3.49,1.684,3.603,3.801C181.981,128.791,180.592,130.004,178.451,130.514z"/>
		<path fill="#F5C469" d="M306.264,728.646c-2.541-0.106-3.977-1.58-3.979-3.991c0-2.355,1.322-4.134,3.881-4.113
			c2.446,0.019,3.961,1.469,3.968,4.003C310.139,727.014,308.858,728.482,306.264,728.646z"/>
		<path fill="#F5C469" d="M557.715,576.767c-2.658-0.192-7.641-3.829-7.018-5.313c1.027-2.45,3.973-3.64,5.807-3.11
			c3.335,0.962,1.344,4.844,2.417,7.261C559.342,576.545,558.512,576.811,557.715,576.767z"/>
		<path fill="#F5C469" d="M562.613,595.546c0,0.131,0.122,0.757-0.02,0.821c-2.576,1.199-4.5-0.541-6.41-1.708
			c-1.088-0.666-2.764-1.843-0.848-3.461c1.13-0.954,2.371-1.784,3.592-2.624c1.21-0.831,2.05-0.625,2.371,0.932
			C561.699,591.445,562.138,593.377,562.613,595.546z"/>
		<path fill="#F5C469" d="M309.888,98.558c-0.337,2.251-0.978,4.084-3.635,3.976c-2.557-0.104-4.051-1.672-3.987-4.021
			c0.068-2.466,2.049-3.747,4.362-3.613C308.682,95.019,309.956,96.426,309.888,98.558z M306.132,101.367
			c1.558-0.116,1.827-1.155,1.863-2.33c0.033-1.271-0.06-2.736-1.693-2.688c-1.173,0.034-2.459,0.807-2.53,2.235
			C303.696,100.144,304.877,100.896,306.132,101.367z"/>
		<path fill="#F5C469" d="M532.934,581.121c-1.123-0.799-3.684,1.202-3.632-1.482c0.04-1.981,0.294-4.492,2.61-5.603
			c0.705-0.338,6.021,4.571,5.762,5.372C536.877,581.846,534.611,580.547,532.934,581.121z"/>
		<path fill="#F5C469" d="M564.768,607.426c1.976,1.814,1.779,4.446,2.553,6.651c0.396,1.136-0.398,1.649-1.461,1.349
			c-2.518-0.719-6.197-0.682-6.486-3.729C559.158,609.418,562.415,608.51,564.768,607.426z"/>
		<path fill="#F5C469" d="M527.374,598.285c-1.164-0.613-3.824,1.104-3.286-1.893c0.33-1.818-0.182-4.417,2.399-5.18
			c1.082-0.318,5.759,4.028,5.471,5.069C531.299,598.686,529.016,597.783,527.374,598.285z"/>
		<path fill="#F5C469" d="M570.9,633.031c-2.359-0.512-5.453-0.563-5.492-3.394c-0.028-2.134,2.719-3.218,4.618-4.296
			c0.491-0.279,3.151,5.531,3,6.656C572.818,633.527,571.746,633.15,570.9,633.031z"/>
		<path fill="#FC8119" d="M318.149,471.646c-1.803,1.151-3.145,3.908-5.277,2.418c-0.949-0.659-1.271-4.357-0.659-4.738
			C314.646,467.8,315.659,471.684,318.149,471.646z"/>
		<path fill="#F5C469" d="M556.557,548.119c0.389,2.662-0.979,5.131-0.123,7.976c-3.338-0.342-5.038-2.341-6.538-4.465
			c-0.874-1.242-0.161-2.022,1.239-2.3C552.901,548.977,554.652,548.549,556.557,548.119z"/>
		<path fill="#F5C469" d="M542.737,562.952c-3.198,0.147-6.077,1.8-7.534-0.74c-0.673-1.178,0.752-4.834,2.391-4.863
			C540.193,557.303,540.957,560.425,542.737,562.952z"/>
		<path fill="#F5C469" d="M377.034,724.498c1.042,0.168,1.098,1.215,1.646,1.816c1.715,1.877,4.93,1.183,5.854-1.256
			c0.292-0.77,0.122-1.793,1.341-1.873c0.223,3.701-1.3,6.135-4.146,6.106C378.75,729.266,376.687,727.967,377.034,724.498z"/>
		<path fill="#F5C469" d="M393.612,680.813c10.688,0.004,21.377,0.011,32.046,0.017C414.965,681.4,404.287,682.004,393.612,680.813z
			"/>
		<path fill="#F5C469" d="M534.518,146.521c2.496-5.949,0.998-12.209,1.405-18.32c0.157-2.344,0.085-4.7,0.118-7.051
			c1.49,6.331,0.185,12.764,0.684,19.135C536.908,142.627,536.956,145.048,534.518,146.521z"/>
		<path fill="#F5C469" d="M238.774,528.621c0,0,0.002-0.116,0.003-0.111C238.78,528.514,238.774,528.621,238.774,528.621z"/>
		<polygon fill="#FC8119" points="448.791,142.729 448.824,142.732 448.926,142.624 		"/>
		<path fill="#F5C469" d="M502.83,637.012c-0.646-0.029-1.105-0.298-1.256-0.969C502.224,636.064,502.61,636.433,502.83,637.012z"/>
		<path fill="#FC8119" d="M530.041,464.579c0.216-0.823,0.784-1.341,1.496-1.736C531.688,463.981,531.967,465.229,530.041,464.579z"
			/>
		<path fill="#013F54" d="M172.917,469.517c0,1.873,0.061,3.751-0.016,5.622c-0.139,3.564-2.31,6.039-5.542,6.434
			c-3.406,0.408-6.666-1.58-7.185-5.068c-0.715-4.805-1.007-9.725-0.026-14.534c0.752-3.684,3.046-5.11,6.754-4.79
			c3.641,0.316,5.731,2.337,5.954,5.969c0.13,2.116,0.024,4.246,0.024,6.37C172.893,469.517,172.905,469.518,172.917,469.517z"/>
		<path fill="#013F54" d="M598.644,506.834c1.728-0.922,3.413-1.924,5.186-2.751c10.84-5.06,22.14,1.771,26.254,11.67
			c3.862,9.288-1.94,21.926-11.889,25.01c-8.666,2.689-16.47,0.399-22.458-6.813C589.698,522.17,590.27,516.834,598.644,506.834z
			 M607.564,521.309c0.027,2.775,2.186,4.96,4.905,4.967c3.128,0.011,4.766-1.847,4.729-5.299c-0.028-3.096-1.697-4.479-4.653-4.515
			C609.705,516.428,607.537,518.561,607.564,521.309z"/>
		<path fill="#013F54" d="M602.677,623.823c-1.997,0.11-3.805-0.736-4.733-2.705c-0.998-2.107-0.551-4.188,1.252-5.746
			c1.684-1.46,3.514-2.747,5.242-4.156c0.838-0.683,2.331-1.138,2.072-2.426c-0.832-4.116,2.455-3.327,4.42-3.631
			c2.546-0.394,4.633,0.599,5.475,3.381c0.631,2.088-0.162,3.958-0.778,5.831C613.943,619.492,607.948,623.89,602.677,623.823z"/>
		<path fill="#F5C469" d="M598.644,506.834c-8.374,10-8.947,15.338-2.907,27.113c-4.858-2.553-6.017-7.297-6.709-12.063
			c-0.742-5.089,0.972-9.744,3.523-14.143C594.287,504.759,596.369,505.488,598.644,506.834z"/>
		<path fill="#F5C469" d="M420.486,277.203l-0.023,0.022L420.486,277.203z"/>
		<path fill="#013F54" d="M445.469,480.498c-0.039-0.068-0.078-0.136-0.116-0.201c0.046,0.025,0.093,0.051,0.14,0.068
			C445.495,480.357,445.469,480.498,445.469,480.498z"/>
		<path fill="#F5C469" d="M480.328,182.842c-0.33-0.593-0.131-0.687,0.422-0.446C480.615,182.547,480.473,182.696,480.328,182.842z"
			/>
		<path fill="#FC8119" d="M175.895,602.637c-0.146-1.009-1.607-1.826-0.56-2.98c1.037-1.146,1.901-2.667,3.73-2.62
			c0.816,0.019,0.923,0.749,0.614,1.356c-0.875,1.729-0.055,4.881-3.614,4.415L175.895,602.637z"/>
		<path fill="#FC8119" d="M179.243,607.101c-0.476-0.791-1.901-1.938-1.031-2.387c2.044-1.055,2.018-4.011,4.218-4.416
			c1.381-0.251,1.054,1.306,1.032,2.235c-0.044,1.959-2.379,2.556-2.638,4.392C180.302,606.983,179.772,607.041,179.243,607.101z"/>
		<path fill="#FC8119" d="M176.067,602.807c-0.112,0.904-0.65,1.304-1.533,1.293h-0.001c0.107-0.812,0.495-1.358,1.362-1.463
			C175.895,602.637,176.067,602.807,176.067,602.807z"/>
		<path fill="#FC8119" d="M306.132,101.367c-1.253-0.473-2.438-1.224-2.359-2.785c0.07-1.428,1.356-2.2,2.528-2.234
			c1.635-0.047,1.729,1.418,1.692,2.689C307.959,100.213,307.69,101.252,306.132,101.367z"/>
		<path fill="#F5C469" d="M607.564,521.309c-0.027-2.748,2.141-4.881,4.981-4.847c2.956,0.034,4.625,1.419,4.653,4.515
			c0.033,3.453-1.602,5.31-4.729,5.299C609.75,526.27,607.592,524.084,607.564,521.309z"/>
	</g>
</g>
</svg>
