<?xml version="1.0" encoding="utf-8"?>
<!-- Generator: Adobe Illustrator 16.0.3, SVG Export Plug-In . SVG Version: 6.00 Build 0)  -->
<!DOCTYPE svg PUBLIC "-//W3C//DTD SVG 1.1//EN" "http://www.w3.org/Graphics/SVG/1.1/DTD/svg11.dtd">
<svg version="1.1" id="Layer_1" xmlns="http://www.w3.org/2000/svg" xmlns:xlink="http://www.w3.org/1999/xlink" x="0px" y="0px"
	 width="822.047px" height="822.047px" viewBox="0 0 822.047 822.047" enable-background="new 0 0 822.047 822.047"
	 xml:space="preserve">
<rect fill="#013F54" width="822.047" height="822.047"/>
<g>
	<g>
		<path fill="#FC8119" d="M646.284,284.002c-0.688-0.194-1.378-0.388-2.207-0.62c-0.175,2.534,1.771,4.146,2.356,6.252
			c0.225,0.817,0.912,1.659,0.016,2.37c-0.71,0.566-1.434-0.051-2.053-0.393c-3.39-1.881-6.768-3.775-10.122-5.712
			c-46.011-26.543-92.017-53.097-138.028-79.64c-1.947-1.124-3.854-2.346-5.888-3.29c-3.993-1.86-7.14-0.927-8.94,2.464
			c-1.77,3.332-0.887,5.844,3.252,8.232c14.501,8.38,29.066,16.646,43.576,25.011c41.575,23.974,83.074,48.084,124.779,71.833
			c5.999,3.416,9.679,7.563,11.891,14.105c6.353,18.771,11.836,37.715,14.412,57.412c2.104,16.064,2.791,32.186,1.468,48.352
			c-0.323,3.928-0.663,3.952-4.13,1.93c-17.701-10.326-35.401-20.656-53.119-30.951c-1.283-0.747-2.662-1.447-4.087-1.801
			c-3.417-0.846-6.889,0.898-7.88,4.014c-1.049,3.291,0.23,5.895,3.113,7.6c5.379,3.182,10.83,6.236,16.24,9.359
			c13.965,8.061,27.832,16.293,41.939,24.092c4.439,2.455,7.803,4.664,5.37,10.338c-1.2-1.679-3.299-1.836-4.933-2.797
			c-12.242-7.199-24.559-14.274-36.854-21.38c-0.972-0.561-1.926-1.173-2.953-1.607c-3.561-1.513-6.267,0.337-6.161,4.176
			c0.022,0.868,0.105,1.735,0.157,2.606c-5.402-3.021-10.814-6.025-16.203-9.065c-3.855-2.181-7.471-2.326-9.631-0.112
			c-2.838,2.917-2.106,6.059-0.269,9.176c0.712,1.298,2.06,1.76,3.23,2.434c21.667,12.509,43.332,25.023,65.032,37.471
			c1.796,1.03,3.2,2.244,4.021,4.128c-1.375,6.288-3.278,12.36-5.65,18.392c-2.248,5.709-4.326,11.508-6.637,17.219
			c-5.825,14.373-13.434,27.775-21.521,40.952c-4.091,6.663-8.39,13.14-13.608,18.978c-10.814-5.297-17.479-13.505-19.443-25.717
			c-1.66-10.318-1.779-20.637-1.449-30.976c0.498-15.726,0.928-31.524-1.287-47.059c-2.696-18.897-7.165-37.497-17.516-54.016
			c-1.39-2.224-1.1-3.628,0.968-4.945c3.619-2.306,6.475-5.487,9.478-8.472c9.242-9.187,20.066-15.561,32.732-18.688
			c9.258-2.285,17.074-6.329,20.468-16.055c9.342,0.318,14.249-9.549,13.484-18.354c-1.147-13.205-10.053-21.844-22.286-25.761
			c-15.688-5.027-28.903,0.587-41.115,10.074c-7.356,5.718-14.275,11.999-22.123,17.075c-0.512,0.332-1.107,0.533-1.664,0.794
			c-11.101-17.188-24.533-32.357-39.731-46.017c-8.003-7.195-16.686-13.428-25.684-19.326
			c-10.743-7.041-22.396-11.896-34.458-16.028c-4.296-1.474-9.419-1.329-12.605-5.179c-4.836-5.838-8.076-12.454-9.322-20.08
			c-1.408-8.598,0.061-17.183-0.46-25.785c-1.192-19.696-18.472-34.75-38.086-31.406c-7.534,1.285-16.048,2.277-18.218,12.168
			c-0.115,0.521-0.746,0.93-1.135,1.393c-0.474-0.02-0.943-0.039-1.408-0.059c0.004,0.001-0.096-0.06-0.096-0.06
			c-4.223-0.268-8.115-1.591-11.44-4.166c-4.947-3.831-10.524-5.624-16.687-5.521c-5.995,0.101-10.048-2.596-12.002-8.142
			c-0.827-2.356-1.846-2.47-3.831-1.554c-11.262,5.2-17.635,14.133-18.962,26.249c-1.456,13.314,4.206,23.712,14.998,31.299
			c11.986,8.425,25.508,9.847,39.637,8.233c1.444-0.164,2.91-0.759,4.401-0.213c1.005,0.793,1.264,1.773,0.818,2.984
			c-1.034,2.803-1.935,5.661-3.079,8.417c-4.288,10.299-7.285,20.965-8.657,32.019c-0.841,6.794-0.589,6.678-7.209,8.239
			c-2.657,0.627-3.896-0.091-4.835-2.486c-1.088-2.784-2.507-5.409-4.597-7.65c-11.959-12.849-27.579-16.37-43.994-9.938
			c-2.16,0.846-4.48,2.46-6.769,1.44c-4.772-2.116-8.686-0.628-12.513,2.095c-8.72-10.071-17.711-12.033-28.342-5.217
			c-8.671,5.557-11.972,14.385-11.443,24.4c0.685,13.01,8.198,21.382,19.532,26.855c-3.322-1.819-4.639,0.277-5.867,2.916
			c-1.244,2.669-1.021,4.737,1.643,6.375c3.53,2.172,7.545,2.677,11.468,3.117c3.564,0.399,3.264,1.616,1.623,3.898
			c-3.265,4.556-6.673,9.033-9.635,13.783c-7.598,12.188-14.544,24.737-20.069,38.026c-0.776,1.877-1.513,3.673-3.974,1.798
			c-10.613-8.086-21.367-15.977-32.55-23.272c-12.881-8.399-26.193-14.882-42.361-12.438c-3.931,0.592-5.74,2.411-6.961,5.635
			c-0.875,2.31-1.162,4.891-3.146,6.679l0.198-0.181c0,0,0.177,0.198,0.175,0.196c-0.656-0.202-1.119,0.063-1.467,0.607
			c-2.461,1.642-5.048,3.125-7.36,4.96c-5.348,4.238-6.054,10.367-1.913,15.737c0.568,0.742,1.004,1.317,0.802,2.302
			c-2.301,11.174,2.454,20.071,9.154,28.346c0.308,0.382,0.511,0.854,0.961,1.625c-5.168-0.947-9.928-2.914-15.07-2.221
			c-0.768,0.106-1.782-0.807-2.523-1.435c-2.665-2.264-5.864-3.216-9.083-2.38c-3.378,0.874-3.577-0.928-3.636-3.197
			c-0.274-10.525,0.003-21.034,0.674-31.541c1.08-16.938,3.981-33.602,8.619-49.876c5.029-17.633,11.207-34.894,20.015-51.063
			c5.341-9.237,10.688-18.491,16.035-27.744c5.87-9.768,12.997-18.589,20.409-27.195c6.094-7.077,12.35-13.991,19.198-20.373
			c17.832-16.624,37.389-30.691,59.364-41.416c16.355-7.981,33.227-14.455,50.747-19.338c23.039-6.421,46.532-9.84,70.39-10.941
			c2.479-0.113,4.957-0.171,7.437-0.199c4.716-0.057,8.991,1.09,13.097,3.649c6.992,4.36,14.244,8.313,21.413,12.388
			c5.526,3.139,9.981,1.414,11.233-4.729c0.563-2.754,1.665-2.67,3.818-2.347c13.73,2.059,26.882,6.102,39.93,10.797
			c20.334,7.314,39.417,17.043,57.233,29.141c10.696,7.263,20.882,15.289,30.407,24.117c6.481,6.006,12.861,12.069,18.158,19.16
			c-0.167,0.281-0.334,0.561-0.503,0.842c-1.938-1.121-3.877-2.238-5.815-3.357c-27.595-15.937-55.19-31.872-82.793-47.799
			c-1.296-0.748-2.588-1.563-3.975-2.092c-3.207-1.229-6.76,0.135-8.36,3.059c-1.575,2.88-0.697,6.582,2.125,8.613
			c1.007,0.727,2.134,1.295,3.216,1.921c39.383,22.766,78.768,45.532,118.142,68.308c1.293,0.748,2.507,1.628,3.747,2.442
			c-0.113,2.03,1.797,2.103,2.912,2.846c4.769,3.177,10.404,5.231,13.801,10.894C647.334,278.711,647.932,282.46,646.284,284.002z
			 M479.42,175.572c0.006-0.012,0.012-0.021,0.018-0.031c1.84,1.062,3.631,2.217,5.528,3.164c3.257,1.623,6.05,0.823,8.146-2.172
			c2.134-3.049,2.043-5.751-0.772-8.244c-3.676-3.253-8.08-5.459-12.598-7.245c-3.28-1.294-6.633,0.532-7.979,3.69
			c-1.277,2.996-0.222,6.112,2.799,8.018C476.141,173.75,477.798,174.636,479.42,175.572z"/>
		<path fill="#FC8119" d="M573.486,627.233c-25.737,18.483-53.859,32.028-84.219,41.087c-20.152,6.018-40.703,9.217-61.684,9.822
			c-26.21,0.76-52.065-1.82-77.612-7.871c-32.436-7.678-62.329-21.065-89.879-39.654c-16.689-11.26-31.762-24.488-45.51-39.251
			c-4.503-4.832-8.678-9.903-12.928-14.932c-0.672-0.798-1.118-1.636-1.301-2.911c2.598-0.212,5.041,0.633,7.536,0.896
			c8.73,0.922,16.999-0.864,24.962-4.365c0.552-0.244,1.006-0.766,1.698-0.423c2.567,0.517,5.11,1.25,7.704,1.522
			c16.966,1.78,32.074-3.951,45.919-12.772c15.721-10.015,27.747-23.817,36.96-40.049c4.319-7.606,8.63-15.226,13.178-22.696
			c4.33-7.117,10.56-12.305,17.988-15.936c13.246-6.477,27.193-5.651,41.106-3.176c12.921,2.299,25.507,5.915,37.956,10.16
			c21.289,7.26,40.889,17.287,57.469,32.715c8.557,7.965,15.776,16.934,21.236,27.353c6.249,11.926,11.451,24.349,17.901,36.192
			c7.658,14.052,17.465,26.051,30.333,35.57C566.099,621.326,569.762,624.323,573.486,627.233z"/>
	</g>
	<g>
		<path fill="#FC8119" d="M343.787,444.786c-0.12,0.017-0.262,0.085-0.362,0.045c-4.586-1.781-4.501-1.787-4.313,3.284
			c0.062,1.664,0.58,3.461-0.473,5.059c-1.105,1.757-2.219,1.544-3.491,0.122c-1.764-1.977-3.525-3.985-6.34-5.264
			c-0.292,5.12,2.334,9.68,1.11,14.49c-1.342-0.039-1.718-1.294-2.501-2.021c-0.724-0.668-1.337-1.456-1.998-2.193
			c-0.165,3.933-0.209,7.879-0.552,11.797c-0.121,1.381-0.091,3.03-1.461,4.053c-2.415-3.988-3.842-8.737-8.81-11.446
			c0.509,4.428,3.262,8.076,1.671,12.235c-0.88-0.672-1.758-1.342-2.832-2.16c-1.114,4.609,0.551,9.465-1.14,13.986
			c-2.982-2.438-4.474-6.448-8.334-8.025c-0.779,3.12,2.25,5.63,1.093,8.69c-1.011,5.343,0.539,11.087-2.551,16.102
			c-0.694-3.289-1.502-6.53-3.822-9.646c-1.099,14.017-2.966,20.066-7.801,25.136c-0.251-3.146-0.433-6.061-0.741-8.96
			c-0.125-1.129,0.324-2.942-1.391-2.96c-1.125-0.012-1.386,1.586-1.6,2.693c-1.513,7.83-5.669,14.315-10.453,20.472
			c-0.745,0.962-1.574,2.46-2.875,1.993c-1.67-0.601-0.833-2.479-0.723-3.645c0.24-2.589,0.472-5.062-1.167-7.803
			c-0.564,1.174-0.895,1.963-1.314,2.701c-4.593,8.099-8.494,16.775-17.712,20.984c-2.066,0.943-3.708,2.498-5.319,4.064
			c-1.248-2.088-2.35-4.219-1.978-6.785c-1.23-1.51-2.213-0.786-3.468,0.138c-2.124,1.564-3.673,3.674-5.572,5.429
			c-16.148,14.912-41.221,8.953-48.648-11.793c-1.377-3.842-3.358-5.504-7.027-6.6c-8.544-2.555-9.566-5.124-6.512-13.359
			c0.807-2.18,2.461-4.224,2.037-6.842c-1.407,0.022-1.945,0.947-2.653,1.621c-9.148,8.674-11.782,8.785-21.68,0.906
			c-0.39-0.309-0.758-0.651-1.12-0.994c-3.536-3.362-3.495-3.67,0.323-6.776c4.517-3.677,8.374-7.921,11.089-13.173
			c-4.239,3.129-8.782,5.656-13.148,8.465c-2.731,1.754-9.521,2.217-12.029,0.209c-8.476-6.785-14.445-14.889-12.983-26.552
			c0.148-1.209,0.204-2.832-1.021-2.771c-4.865,0.25-4.532-3.646-5.37-6.443c-1.23-4.102,1.339-11.936,4.352-14.082
			c7.002,0.157,13.731,2.03,20.529,3.387c13.287,2.647,26.403,6.181,39.08,10.815c12.463,4.558,25.02,9.089,36.777,15.434
			c4.377,2.364,8.993,4.325,13.366,6.638c9.013,4.768,17.663,10.252,24.67,17.871c2.517,2.734,5.675,4.524,8.95,5.994
			c3.914,1.754,7.889-0.496,9.659-5.047c0.763-1.969,1.534-3.938,2.307-5.902c1.4-0.583,3.683-0.01,3.89-2.161
			c0.168-1.764-1.833-2.145-3.021-2.962c-3.189-2.193-6.418-4.349-9.142-7.125c-8.527-8.688-14.833-19.094-22.06-28.777
			c-7.611-10.195-15.247-20.35-24.004-29.602c-9.164-9.679-18.462-19.231-28.514-28c-1.994-1.737-4.032-4.093-7.31-3.343
			c-2.639-1.87-5.289-3.724-7.906-5.628c-0.56-0.408-1.39-0.844-0.994-1.759c0.349-0.815,1.298-0.817,1.959-0.854
			c6.416-0.354,12.738,0.422,18.466,3.358c14.481,7.422,27.771,16.732,40.891,26.309c10.076,7.354,19.649,15.284,28.538,24.031
			c8.591,8.451,14.988,18.143,16.484,30.424c0.447,3.668,0.501,7.385-0.352,11.037c-0.22,0.952-0.746,1.968,0.197,2.791
			c1.069,0.935,2.209,0.307,3.147-0.196c1.953-1.048,3.683-2.292,5.039-4.237c7.157-10.273,6.457-21.238,3.385-32.559
			c-1.521-5.613-5.034-10.186-8.062-15.995c9.999,1.425,15.211,8.315,20.916,14.645c-0.174-4.717-4.844-14.354-8.889-18.693
			c-3.659-3.922-7.515-7.599-11.949-10.649c-0.64-0.44-1.837-0.826-1.357-1.912c0.375-0.852,1.405-0.855,2.311-0.904
			c3.041-0.158,5.983,0.229,8.692,1.657c2.868,1.513,5.629,3.235,8.52,4.699c2.826,1.431,4.363,4.397,7.742,6.276
			c-3.1-11.88-11.791-18.564-20.727-26.244c13.653-1.533,21.607,6.486,29.703,14.594c-0.057-4.145-3.209-10.859-6.426-14.402
			c-3.603-3.971-7.074-8.049-11.842-10.746c-0.914-0.516-2.204-1.309-1.621-2.593c0.604-1.329,2.105-0.8,2.998-0.383
			c6.549,3.052,13.749,4.789,19.758,8.845c3.226,2.174,5.502,5.65,7.766,8.908c0.039-0.031,0.084-0.059,0.129-0.088
			c-0.076,0.002-0.155,0-0.232,0c0.435-3.623-1.378-6.698-2.511-9.918c-0.597-1.693-0.618-3.158,1.249-3.582
			c6.088-1.377,9.92-5.82,13.997-9.943c1.79-1.811,4.021-4.008,6.271-3.321c2.505,0.769,1.667,4.067,1.752,6.284
			c0.152,3.957-0.489,7.918,0.003,11.89c0.641,5.163,2.607,9.722,5.677,13.918c1.744,2.385,2.725,1.627,3.488-0.521
			c3.656-10.337,5.318-20.951,4.212-31.925c2.744-4.019,1.932-8.093-0.257-11.875c-2.518-4.345-6.694-6.39-11.613-6.183
			c-8.563,0.363-16.152,3.579-22.813,8.906c-4.856,3.883-9.835,6.952-16.361,4.24c2.338-0.695,4.767-1.085,6.885-2.457
			c0.938-0.608,2.283-0.912,2.408-2.13c0.153-1.513-1.499-1.407-2.38-1.901c-4.391-2.461-5.275-3.828-5.134-8.9
			c5.852,4.292,12.112,4.767,18.393,1.979c3.138-1.388,5.847-3.735,8.814-5.541c15.28-9.316,27.589-4.017,36.751,8.826
			c5.251,7.362,8.235,15.946,9.382,24.876c1.059,8.238-0.323,16.392-4.037,23.939c-1.706,3.461-3.827,6.713-6.181,10.791
			c4.632-0.364,7.388-2.85,9.789-5.135c10.229-9.711,14.053-21.801,11.907-35.676c-1.738-11.232-6.336-21.386-13.237-30.326
			c-3.985-5.164-5.294-11.787-9.835-16.579c-1.051-1.107-0.355-1.921,1.308-1.907c6.197,0.049,10.094,3.927,13.388,8.351
			c6.195,8.32,10.137,17.734,12.294,27.933c1.231-3.505,0.602-12.558-0.681-18.365c-1.445-6.541-3.476-12.75-7.202-18.381
			c-1.099-1.662-0.686-2.209,1.688-2.478c7.288-0.827,10.896,3.114,13.163,9.111c1.837,4.861,3.62,9.753,5.137,14.72
			c1.514,4.953,2.379,10.074,2.986,15.713c1.996-3.224,1.656-6.563,1.946-9.612c0.805-8.534,0.456-17.041-2.608-25.212
			c-0.79-2.108-0.238-2.476,1.988-2.258c7.962,0.781,10.949,3.99,11.311,12.611c0.318,7.621-0.844,15.102-2.488,22.479
			c-3.013,13.523-3.941,27.077-0.747,40.644c2.347,9.961,6.049,19.393,13.749,26.614c3.582,3.359,7.533,6.209,12.862,5.937
			c6.944,3.557,12.325,4.563,15.629,2.887c-13.673-10.105-24.22-22.578-29.73-38.895c-0.098-0.293-0.558-0.464-0.848-0.693
			c-1.972-14.664,0.342-28.807,4.89-42.75c2.619-8.037,6.73-15.282,11.005-22.471c5.769-9.704,13.206-17.711,23.504-22.723
			c7.866-3.828,15.892-4.613,24.081-0.968c10.384,4.62,18.33,12.237,25.641,20.68c7.721,8.916,15.081,18.112,22.443,27.319
			c1.686,2.106,3.9,3.895,6.151,5.422c4.65,3.163,9.396,2.66,14.385,0.293c11.499-5.463,21.394-13.435,32.125-20.086
			c6.51-4.033,13.027-7.573,21.022-7.291c5.672,0.198,10.182,2.504,14.756,7.224c-7.447,0.22-12.984,3.589-18.85,6.089
			c-1.014,0.432-1.942,0.533-1.327,1.973c1.742,4.071-0.468,4.928-4.023,5.683c-13.269,2.819-23.982,10.331-33.884,19.201
			c-1.475,1.319-3.012,2.565-4.522,3.852c-0.53-1.358-0.529-1.354-2.001-0.54c-5.131,2.846-10.175,5.936-16.237,6.401
			c-4.982,0.376-10.345-1.054-11.778-5.487c-1.809-5.596-4.758-6.816-9.908-7.942c-6.786-1.485-12.014-6.347-16.615-11.618
			c-7.355-8.422-12.041-18.289-15.783-28.688c-0.313-0.872-0.299-2.018-1.771-2.307c-0.581,2.139-1.154,4.266-1.73,6.391
			c-2.89,4.796-3.38,10.122-3.008,15.494c0.229,3.29-1.152,3.637-3.711,2.91c-2.264-0.643-4.52-1.297-7.396-2.127
			c2.712,4.916,6.604,7.596,10.902,9.769c3.377,1.705,6.474,3.417,7.619,7.563c0.559,2.024-0.031,2.199-1.564,2.771
			c-4.611,1.722-9.275,0.704-13.921,0.54c-1.608-0.057-3.206-0.395-4.78-0.602c3.434,4.508,8.053,5.003,14.359,7.363
			c2.739,1.027,5.709,1.807,8.786,1.429c2.101-0.255,3.474,0.604,3.305,2.888c-0.159,2.115,1.079,4.713-2.522,5.602
			c-8.146,2.012-16.25,1.587-24.396,0.26c-0.731-0.119-1.46-0.262-2.257-0.191c6.592,4.226,13.39,7.864,21.509,8.091
			c1.229,0.034,2.53,0.097,3.655,0.527c1.594,0.613,4.537-2.295,4.8,1.749c0.289,4.488-1.291,6.818-4.673,7.77
			c-5.106,1.434-10.089,0.039-15.117-0.325c-1.179-0.082-2.336-0.778-3.821-0.036c5.155,3.72,10.518,6.545,16.499,8.021
			c2.771,0.683,3.639,1.431,2.204,4.484c-4.059,8.621-10.247,15.516-17.212,22.174c3.013,0.02,3.013,0.02,9.869-4.764
			c-1.617,5.117-4.609,9.046-7.281,14.043c9.698-1.793,16.799-6.377,23.074-12.838c6.201-6.38,9.839-14.346,14.34-21.892
			c8.918,12.392,4.723,42.608-18.512,59.38c9.653-2.598,17.569-6.475,24.387-12.777c5.748-5.314,10.354-11.324,13.657-18.389
			c0.409-0.874,0.776-2.219,1.808-2.184c1.315,0.046,1.361,1.549,1.654,2.549c4.045,13.678,0.775,26.021-6.979,37.5
			c-2.701,4-5.799,7.67-9.768,10.592c13.94-0.725,23.432-8.211,30.079-20.133c7.149,12.563-0.962,31.271-19.755,45.738
			c5.496,1.942,10.164-0.024,14.885-1.27c5.138-1.354,8.104-5.98,12.554-8.473c3.423,12.137-2.856,22.287-20.255,32.609
			c7.195,2.364,13.444,0.27,19.627-2.401c1.116-0.483,2.572-1.735,3.226-1.396c1.222,0.638,0.793,2.37,0.684,3.701
			c-0.616,7.433-4.948,12.487-10.66,16.657c-1.366,0.995-3.152,1.475-4.226,3.406c6.296,1.928,11.755,0.186,16.716-3.015
			c2.108-1.358,2.533-0.931,3.3,1.003c2.326,5.834-0.168,11.95-7.012,16.82c-0.495,0.354-1.018,0.668-1.633,1.066
			c4.613,1.511,10.51,0.197,14.345-3.412c1.756-1.648,2.638-1.67,3.884,0.51c3.48,6.097,3.135,7.824-3.594,14.986
			c3.807,1.317,9.161-0.154,13.092-3.656c0.979-0.869,1.654-2.402,3.352-1.246c1.51,1.025,3.439,1.75,3.223,4.104
			c-0.161,1.734-0.444,3.453-0.602,5.189c-0.216,2.439,0.819,3.285,3.115,2.254c2.362-1.063,4.035-2.904,5.379-5.051
			c0.953-1.525,2.102-2.098,3.729-1.094c7.063,4.355,14.785,2.41,22.285,2.215c3.045-0.08,6.068-0.887,9.104-1.362
			c-9.1,5.509-19.249,7.735-29.564,9.38c-7.127,1.139-14.217-0.073-21.201-1.108c-10.738-1.595-19.913-7.083-28.523-13.36
			c-1.937-1.414-5.104-3.652-1.879-6.988c0.486-0.358,0.505-0.578-0.175-0.588c-5.438-1.17-10.009-3.833-13.519-8.143
			c-3.628-4.451-3.419-5.575,1.133-8.027c-0.752-1.473-2.334-1.748-3.574-2.487c-4.695-2.8-7.778-6.912-9.586-11.993
			c-0.762-2.139-0.386-3.661,2.445-3.671c1.668-0.007,3.423-0.078,5.212-1.046c-1.028-1.477-2.458-1.6-3.696-1.928
			c-2.58-0.686-4.856-1.953-7.065-3.374c-0.812-0.522-2.01-1.136-1.284-2.303c1.213-1.965-0.059-3.015-1.214-4.144
			c-1.272-1.244-2.178-2.73-2.943-4.305c-1.177-2.415-0.527-3.691,2.286-3.167c1.665,0.308,3.167,0.517,4.371-1.255
			c-1.913-1.084-3.793-1.888-5.904-2.252c-2.732-0.471-5.25-1.596-7.545-3.143c-0.777-0.523-2.051-1.445-0.814-2.307
			c3.252-2.27,0.916-3.236-0.763-4.561c-1.263-1-2.38-2.19-3.589-3.268c-2.233-1.986-1.872-2.958,1-3.944
			c3.401-1.169,7.025-2.374,8.605-6.497c-2.391,0.229-4.564,1.098-6.818,1.594c-7.748,1.703-13.527-0.336-17.236-5.762
			c-1.68-2.459-1.955-4.279,1-6.125c2.925-1.825,5.932-3.736,7.689-6.93l0.008,0.029c-2.297-0.543-4.063,0.925-5.979,1.672
			c-5.062,1.974-10.181,2.324-15.419,0.977c-0.697-0.18-1.617-0.289-1.771-1.149c-0.163-0.923,0.67-1.237,1.373-1.474
			c1.172-0.395,2.903-0.654,2.636-2.107c-0.323-1.768-2.297-1.726-3.737-1.736c-3.415-0.021-6.571-0.797-10.043-2.69
			c6.568-3.194,11.801-7.191,14.325-13.941c-0.283-0.046-0.451-0.125-0.511-0.077c-0.586,0.467-1.136,0.984-1.729,1.438
			c-6.718,5.135-13.796,8.957-22.742,6.836c-3.913-0.926-4.209-1.271-1.757-4.326c2.108-2.624,3.363-5.539,4.273-9.4
			c-1.385,0.993-2.148,1.615-2.98,2.129c-4.25,2.627-8.416,5.476-13.805,5.027c-2.391-0.201-3.25-0.705-1.432-3.096
			c1.782-2.343,3.861-4.682,4.38-8.369c-1.546,0.935-2.585,1.611-3.667,2.207c-3.424,1.887-6.92,3.384-10.998,3.153
			c-2.73-0.155-3.544-1.153-2.671-3.79c0.817-2.479,1.711-4.976,1.646-7.655c-0.02-0.763-0.083-1.558-1.013-1.754
			c-0.737-0.155-1.098,0.46-1.469,0.942c-1.223,1.576-2.325,3.258-3.657,4.738c-2.307,2.555-4.383,2.449-5.903-0.511
			c-1.408-2.739-2.533-5.616-2.843-8.798c-0.351-3.592-0.095-7.284-1.309-11.715c-0.695,1.549-1.047,2.192-1.282,2.877
			c-1.369,4.021-2.776,8.057-5.057,11.648c-0.929,1.457-1.899,3.579-4.174,3.25c-2.206-0.322-3.202-2.157-3.96-4.102
			c-1.424-3.652-1.708-7.533-2.397-11.333c-0.611-3.375-0.727-6.874-2.212-10.083c-1.133,0.458-0.938,1.324-1.113,2.016
			c-1.433,5.672-2.303,11.521-5.386,16.667c-2.655,4.429-5.799,4.415-8.246-0.224c-1.688-3.206-2.764-6.67-3.526-10.237
			c-0.642-2.983-0.616-6.155-2.188-9.136c-1.409,0.95-1.364,2.288-1.671,3.425c-1.225,4.581-2.22,9.245-4.541,13.453
			c-3.242,5.878-7.059,6.433-11.959,1.83c-3.772-3.549-5.643-8.156-7.261-12.893c-0.941-2.742-1.379-5.683-3.399-8.25
			c-0.954,1.957-0.618,3.729-0.732,5.432c-0.388,5.734-0.578,11.489-2.915,16.89c-1.521,3.518-3.207,4.139-6.348,1.967
			c-4.036-2.791-7.326-6.393-10.477-10.12c-1.181-1.402-2.27-2.894-5.002-3.821C342.62,436.555,343.856,440.591,343.787,444.786z
			 M212.207,509.532c-9.241,1.576-15.123,7.188-17.127,16.042c-2.304,10.154,5.74,21.5,15.713,22.802
			c10.63,1.384,22.197-4.987,23.233-16.903c0.17-1.949,0.146-3.911,0.212-5.867c2.302-1.294,3.975-2.734,2.257-5.727
			c-2.53-4.412-5.707-8.225-10.485-10.126C221.536,507.969,216.85,506.597,212.207,509.532z M130.906,470.603
			c-2.691,4.534-1.883,11.923,1.71,15.94c1.315,1.471,2.538,3.092,4.661,3.59c2.831,0.662,4.733-0.649,5.666-3.051
			c0.719-1.853,3.046-4.307-0.934-5.644c-1.245-0.42-0.894-1.938-1.065-3.007c-0.355-2.202-0.555-4.431-0.977-6.619
			c-0.452-2.34-2.027-3.768-4.351-3.958C133.445,467.676,131.808,468.818,130.906,470.603z"/>
		<path fill="#F5C469" d="M573.486,627.233c-3.725-2.91-7.389-5.909-11.188-8.718c-12.867-9.52-22.678-21.52-30.333-35.571
			c-6.452-11.84-11.655-24.264-17.904-36.192c-5.461-10.418-12.675-19.385-21.234-27.352c-16.58-15.427-36.178-25.451-57.466-32.713
			c-12.453-4.248-25.04-7.863-37.96-10.163c-13.913-2.474-27.858-3.298-41.105,3.178c-7.427,3.634-13.66,8.817-17.989,15.936
			c-4.548,7.471-8.86,15.089-13.178,22.694c-9.211,16.23-21.239,30.036-36.96,40.049c-13.844,8.825-28.953,14.552-45.919,12.771
			c-2.591-0.27-5.134-1.002-7.705-1.521c4.801-4.112,9.712-7.161,16.504-8.099c19.579-2.704,35.959-11.994,49.376-26.598
			c8.943-9.735,15.697-20.901,22.118-32.334c4.95-8.817,10.077-17.502,17.857-24.256c14.376-12.482,31.36-15.74,49.501-12.945
			c31.733,4.89,62.268,13.683,89.795,30.898c17.852,11.166,32.386,25.629,42.304,44.36c4.093,7.735,7.963,15.617,11.476,23.636
			c10.469,23.91,25.616,43.57,49.827,55.514C580.583,623.413,576.479,624.613,573.486,627.233z"/>
		<path fill="#F5C469" d="M343.787,444.786c0.07-4.195-1.167-8.231-2.26-12.872c2.731,0.929,3.824,2.422,5.005,3.821
			c3.147,3.729,6.438,7.332,10.472,10.119c3.143,2.173,4.829,1.552,6.348-1.962c2.338-5.404,2.529-11.159,2.916-16.892
			c0.115-1.704-0.22-3.476,0.733-5.433c2.017,2.566,2.46,5.506,3.397,8.248c1.621,4.738,3.49,9.347,7.262,12.895
			c4.901,4.602,8.717,4.047,11.958-1.829c2.322-4.208,3.318-8.87,4.545-13.454c0.306-1.139,0.26-2.476,1.667-3.424
			c1.575,2.979,1.546,6.154,2.188,9.139c0.765,3.563,1.837,7.025,3.528,10.232c2.449,4.64,5.591,4.653,8.243,0.227
			c3.086-5.146,3.955-10.998,5.389-16.671c0.172-0.688-0.02-1.556,1.113-2.013c1.485,3.209,1.598,6.707,2.212,10.082
			c0.69,3.8,0.974,7.682,2.398,11.332c0.755,1.949,1.753,3.781,3.957,4.103c2.275,0.33,3.25-1.791,4.173-3.249
			c2.282-3.592,3.691-7.628,5.061-11.648c0.232-0.686,0.586-1.33,1.281-2.877c1.217,4.43,0.96,8.125,1.309,11.713
			c0.312,3.183,1.438,6.061,2.843,8.799c1.521,2.959,3.597,3.068,5.903,0.51c1.331-1.479,2.435-3.159,3.654-4.736
			c0.376-0.483,0.734-1.101,1.472-0.944c0.929,0.196,0.991,0.992,1.013,1.755c0.064,2.681-0.83,5.179-1.646,7.654
			c-0.874,2.641-0.059,3.637,2.673,3.792c4.077,0.229,7.578-1.267,10.996-3.155c1.085-0.597,2.122-1.272,3.67-2.205
			c-0.522,3.688-2.603,6.026-4.384,8.368c-1.818,2.392-0.958,2.896,1.436,3.096c5.387,0.451,9.553-2.399,13.803-5.028
			c0.832-0.514,1.597-1.135,2.979-2.126c-0.909,3.86-2.162,6.775-4.271,9.398c-2.453,3.056-2.157,3.399,1.757,4.326
			c8.945,2.12,16.023-1.7,22.739-6.837c0.597-0.453,1.146-0.969,1.728-1.436c0.064-0.051,0.231,0.029,0.516,0.075
			c-2.527,6.749-7.76,10.751-14.326,13.944c3.471,1.891,6.625,2.668,10.043,2.689c1.441,0.01,3.414-0.033,3.738,1.735
			c0.266,1.452-1.464,1.714-2.635,2.107c-0.705,0.237-1.539,0.552-1.375,1.474c0.153,0.861,1.074,0.971,1.771,1.148
			c5.24,1.346,10.358,1,15.419-0.975c1.917-0.749,3.685-2.214,5.979-1.674l-0.008-0.03c-1.76,3.196-4.765,5.108-7.688,6.933
			c-2.959,1.844-2.684,3.666-1.004,6.127c3.709,5.422,9.489,7.461,17.239,5.758c2.256-0.494,4.427-1.361,6.817-1.594
			c-1.582,4.123-5.204,5.331-8.605,6.496c-2.873,0.989-3.232,1.96-1.002,3.949c1.209,1.073,2.326,2.264,3.592,3.264
			c1.678,1.328,4.015,2.291,0.762,4.561c-1.236,0.863,0.037,1.783,0.813,2.308c2.297,1.547,4.811,2.671,7.545,3.14
			c2.112,0.365,3.992,1.172,5.908,2.254c-1.206,1.774-2.709,1.566-4.372,1.254c-2.815-0.525-3.464,0.754-2.288,3.168
			c0.764,1.572,1.671,3.059,2.943,4.307c1.154,1.128,2.428,2.18,1.211,4.144c-0.721,1.165,0.477,1.778,1.29,2.302
			c2.208,1.42,4.483,2.69,7.062,3.373c1.238,0.332,2.67,0.453,3.699,1.928c-1.789,0.967-3.545,1.041-5.215,1.045
			c-2.829,0.011-3.205,1.535-2.445,3.674c1.809,5.081,4.891,9.19,9.587,11.993c1.241,0.74,2.823,1.013,3.571,2.485
			c-4.55,2.453-4.756,3.578-1.129,8.027c3.51,4.31,8.08,6.973,13.518,8.144c0.055,0.198,0.112,0.396,0.177,0.591
			c-3.227,3.334-0.061,5.572,1.877,6.986c8.611,6.277,17.786,11.767,28.524,13.358c6.984,1.038,14.07,2.247,21.199,1.112
			c10.317-1.648,20.467-3.874,29.565-9.382c2.405-0.822,4.636-2.357,7.901-1.943c-8.18,8.419-17.484,14.226-28.309,17.126
			c-26.957,7.23-49.225-2.033-68.448-20.585c-11.735-11.327-18.607-25.826-25.202-40.446c-5.137-11.384-10.495-22.66-18.051-32.715
			c-11.018-14.65-24.164-27.011-40.245-35.895c-31.759-17.541-65.753-28.193-101.873-31.723
			c-11.227-1.096-22.185,0.903-32.542,5.495c-1.972,0.87-2.26,0.438-2.566-1.4C345.387,452.051,344.536,448.426,343.787,444.786z"/>
		<path fill="#F5C469" d="M650.215,369.604c-3.395,9.724-11.209,13.768-20.467,16.053c-12.668,3.127-23.492,9.501-32.736,18.688
			c-3.002,2.985-5.856,6.167-9.475,8.474c-2.068,1.316-2.358,2.721-0.969,4.941c10.35,16.523,14.82,35.121,17.516,54.016
			c2.213,15.537,1.785,31.334,1.287,47.061c-0.33,10.339-0.209,20.656,1.449,30.973c1.966,12.216,8.629,20.422,19.443,25.719
			c-0.598,0.793-1.197,1.586-1.795,2.383l0.021-0.029c-4.395,6.488-4.366,6.447-10.819,2.152
			c-11.619-7.736-16.325-19.301-18.054-32.498c-1.628-12.426-1.19-24.918-0.978-37.397c0.365-21.296-0.758-42.422-6.637-63.071
			c-3.521-12.367-9.26-23.654-16.258-34.359c-0.706-1.076-2.051-2.334,0.296-3.054c9.063-2.78,14.939-9.825,21.585-15.894
			c9.627-8.789,20.321-15.642,33.43-18.158c5.574-1.074,11.189-2.429,12.117-9.655c0.2-1.559,1.779-1.915,3.285-1.805
			C646.138,364.412,648.861,366.03,650.215,369.604z"/>
		<path fill="#F5C469" d="M396.807,203.17c0.39-0.465,1.021-0.874,1.135-1.393c2.173-9.889,10.688-10.883,18.219-12.168
			c19.615-3.343,36.896,11.713,38.088,31.406c0.521,8.601-0.95,17.185,0.458,25.785c1.251,7.623,4.487,14.243,9.323,20.08
			c3.188,3.85,8.309,3.707,12.605,5.18c12.063,4.133,23.713,8.988,34.459,16.028c9,5.897,17.682,12.128,25.686,19.327
			c15.197,13.658,28.627,28.826,39.73,46.018c-0.25,0.273-0.449,0.633-0.756,0.813c-8.854,5.204-6.547,5.627-12.421-1.951
			c-10.094-13.029-20.356-25.925-32.872-36.727c-19.701-17.004-41.547-30.223-67.2-36.23c-2.99-0.697-4.7-2.73-6.437-4.791
			c-9.652-11.474-14.393-24.608-13.365-39.718c0.391-5.716,0.775-11.445-0.342-17.159c-2.42-12.385-12.572-19.479-24.984-17.457
			c-4.365,0.71-8.379,2.406-12.438,3.996C402.518,205.455,399.484,205.997,396.807,203.17z"/>
		<path fill="#F5C469" d="M170.503,376.916c1.981-1.788,2.268-4.369,3.145-6.679c1.221-3.222,3.031-5.042,6.959-5.634
			c16.168-2.441,29.482,4.038,42.365,12.439c11.183,7.295,21.934,15.186,32.547,23.271c2.462,1.878,3.195,0.08,3.975-1.796
			c5.526-13.289,12.472-25.841,20.07-38.026c2.961-4.751,6.369-9.227,9.635-13.783c1.638-2.284,1.941-3.499-1.623-3.897
			c-3.924-0.441-7.94-0.949-11.47-3.118c-2.665-1.639-2.886-3.709-1.642-6.376c1.229-2.64,2.545-4.735,5.867-2.916
			c11.215,4.63,22.398,3.671,33.563-0.352c2.346-0.846,4.786-1.435,7.117-2.311c1.905-0.713,1.873-0.037,1.904,1.651
			c0.073,4.229-1.19,6.679-5.643,8.358c-12.275,4.627-19.994,14.643-26.87,25.147c-10.608,16.204-19.233,33.461-25.989,51.634
			c-0.416,1.119-1.188,2.107-1.982,3.483c-11.916-8.7-23.631-17.726-35.838-26.021c-9.956-6.763-19.72-14.146-32.034-16.507
			c-7.574-1.452-15.005-1.526-22.273,1.385C171.662,377.116,171.105,377.22,170.503,376.916z"/>
		<path fill="#F5C469" d="M300.583,284.362c3.829-2.725,7.742-4.214,12.514-2.093c2.288,1.016,4.606-0.596,6.768-1.443
			c16.417-6.43,32.035-2.909,43.996,9.94c2.088,2.239,3.505,4.864,4.594,7.648c0.941,2.396,2.177,3.113,4.837,2.486
			c6.619-1.562,6.368-1.445,7.209-8.238c1.373-11.055,4.368-21.717,8.657-32.019c1.145-2.758,2.043-5.614,3.076-8.418
			c0.446-1.209,0.188-2.191-0.815-2.982c4.16-1.141,8.319-2.28,12.638-3.463c0.793,3.553-0.421,6.639-1.633,9.52
			c-6.912,16.449-12.143,33.265-12.104,51.336c0.005,1.509-0.706,1.734-2.038,1.932c-8.264,1.221-16.531,2.52-24.457,5.269
			c-2.828,0.981-2.155-1.022-2.32-2.296c-1.715-13.381-10.641-22.32-23.314-23.23c-6.903-0.497-13.25,1.969-19.683,3.882
			c-3.466,1.029-6.854,2.319-10.335,3.288c-3.042,0.85-6.144,1.069-9.141-0.357c-2.239-1.068-2.828-2.63-1.523-4.84
			C298.64,288.366,300.31,286.725,300.583,284.362z"/>
		<path fill="#F5C469" d="M708.716,280.219c19.684,11.364,39.367,22.729,59.048,34.093c1.082,0.623,2.193,1.208,3.225,1.908
			c2.182,1.479,2.621,3.579,1.729,5.921c-0.902,2.359-2.91,2.875-5.205,2.697c-1.697-0.131-3.023-1.117-4.421-1.924
			c-39.478-22.784-78.952-45.572-118.423-68.369c-1.397-0.808-2.879-1.504-3.932-2.814c-1.602-1.992-1.885-4.125-0.329-6.182
			c1.558-2.062,3.72-2.449,5.999-1.258c2.316,1.217,4.549,2.604,6.82,3.918c18.49,10.676,36.984,21.352,55.479,32.028
			C708.709,280.23,708.712,280.226,708.716,280.219z"/>
		<path fill="#F5C469" d="M122.173,449.168c-3.018,2.143-5.586,9.975-4.353,14.08c0.838,2.799,0.503,6.692,5.372,6.443
			c1.219-0.063,1.167,1.562,1.019,2.771c-1.463,11.661,4.506,19.767,12.982,26.55c2.507,2.01,9.296,1.545,12.028-0.209
			c4.367-2.805,8.91-5.336,13.148-8.461c-2.715,5.247-6.572,9.494-11.088,13.171c-3.819,3.104-3.857,3.412-0.324,6.776
			c0.361,0.342,0.73,0.686,1.121,0.996c9.9,7.878,12.531,7.766,21.68-0.908c0.709-0.675,1.246-1.598,2.653-1.621
			c0.425,2.619-1.227,4.662-2.036,6.843c-3.054,8.234-2.029,10.806,6.509,13.358c3.674,1.098,5.651,2.756,7.03,6.599
			c7.429,20.745,32.5,26.706,48.648,11.792c1.903-1.754,3.451-3.859,5.573-5.429c1.253-0.925,2.236-1.647,3.464-0.137
			c-5.071,5.993-10.143,11.926-17.228,15.778c-19.154,10.416-40.785-1.385-44.578-18.952c-0.362-1.679-1.067-2.694-3.028-3.231
			c-10.758-2.934-20.255-8.356-29.482-14.585c-4.912-3.317-9.936-6.454-14.687-10.048c-16.959-12.831-25.847-33.229-19.346-53.983
			c0.553-1.765,0.8-3.627,1.154-5.451C118.833,449.113,120.044,448.352,122.173,449.168z"/>
		<path fill="#F5C469" d="M372.135,85.923c15.155,8.75,30.311,17.499,45.463,26.253c0.866,0.499,1.743,0.99,2.556,1.569
			c2.502,1.784,3.319,4.296,1.759,6.857c-1.594,2.616-4.166,2.869-6.862,1.31c-10.172-5.881-20.358-11.739-30.533-17.611
			c-20.678-11.936-41.354-23.875-62.028-35.813c-0.758-0.439-1.533-0.855-2.246-1.358c-2.649-1.869-3.598-4.899-2.04-7.108
			c1.941-2.745,4.331-2.766,7.174-1.107c15.55,9.06,31.158,18.027,46.746,27.027C372.127,85.937,372.132,85.93,372.135,85.923z"/>
		<path fill="#FC8119" d="M355.449,220.416c11.199,5.14,22.813,6.615,34.776,3.42c7.82-2.088,15.701-4.118,22.963-7.845
			c4.822-2.477,10.219-2.491,13.273,0.368c2.816,2.635,3.17,6.347,3.361,9.832c0.474,8.669-0.678,17.037-5.938,24.365
			c-0.467,0.647-1.268,1.264-0.858,2.372c2.477,0.649,3.66-1.633,5.451-2.497c1.616,3.158-0.007,6.684-3.699,8.055
			c-0.573,0.213-1.194,0.426-1.794,0.429c-7.385,0.047-7.098,0.659-6.064-6.264c0.976-6.529,0.821-13.092,0.128-19.682
			c-0.36-3.44-1.903-3.722-4.697-3.071c-5.979,1.387-11.738,3.831-18.003,3.914c0.031-4.74,0.031-4.746-4.941-4.236
			c-1.366,0.141-2.721,0.353-4.085,0.485C373.972,231.164,363.802,228.602,355.449,220.416z"/>
		<path fill="#F5C469" d="M726.324,346.982c12.219,7.055,24.443,14.105,36.657,21.172c1.081,0.625,2.153,1.272,3.159,2.007
			c2.799,2.024,3.725,4.881,2.052,6.98c-2.03,2.55-4.615,2.526-7.306,0.974c-14.164-8.183-28.33-16.37-42.499-24.545
			c-11.573-6.678-23.153-13.343-34.733-20.012c-0.326-0.188-0.677-0.33-0.981-0.547c-2.499-1.773-3.946-5.885-2.71-7.648
			c1.576-2.245,4.666-2.488,8.097-0.516c12.771,7.347,25.525,14.727,38.288,22.094C726.338,346.957,726.332,346.969,726.324,346.982
			z"/>
		<path fill="#F5C469" d="M646.284,284.002c1.647-1.542,1.05-5.291,5.13-4.561c-3.396-5.662-9.033-7.718-13.799-10.893
			c-1.117-0.744-3.027-0.816-2.914-2.848c25.732,14.924,51.457,29.834,77.174,44.762c9.076,5.267,18.149,10.538,27.18,15.885
			c1.892,1.119,4.16,1.816,5.311,3.961c-4.422-2.545-8.867-5.045-13.247-7.662c-1.801-1.075-2.754-0.886-3.679,1.162
			c-0.846,1.867-1.119,4.623-4.262,4.385c-10.511-5.992-21.041-11.945-31.526-17.977
			C676.513,301.508,661.405,292.741,646.284,284.002z"/>
		<path fill="#F5C469" d="M187.35,396.384c3.277-0.747,5.316,1.606,7.309,3.347c10.049,8.766,19.351,18.317,28.513,27.996
			c8.758,9.252,16.392,19.406,24.004,29.603c7.228,9.683,13.534,20.092,22.061,28.776c2.724,2.776,5.951,4.93,9.142,7.127
			c1.188,0.815,3.188,1.193,3.019,2.959c-0.203,2.156-2.49,1.58-3.89,2.163c-6.816-0.138-11.296-4.34-15.136-9.179
			c-9.708-12.231-18.28-25.287-27.129-38.133c-11.705-16.992-24.578-32.996-39.418-47.338
			C193.167,401.139,190.123,398.89,187.35,396.384z"/>
		<path fill="#FC8119" d="M280.529,292.82c0.102-1.152,1.058-1.541,2.244-2.456c-0.383,3.571,0.06,6.696,1.465,9.593
			c3.931,8.111,11.317,9.999,19.29,9.966c9.06-0.038,17.368-3.962,26.04-6.036c2.896-0.691,5.747-1.557,8.771-1.204
			c3.43,0.395,6.823,3.335,7.452,6.419c0.861,4.218-0.533,7.541-4.045,9.6c-0.311,0.182-0.673,0.271-1.012,0.403
			c-1.936,0.747-3.871,3.096-5.575,2.358c-2.396-1.032,0.107-3.577-0.247-5.551c-0.485-2.707-0.844-3.922-4.175-2.984
			c-5.899,1.658-11.77,3.717-18.031,3.78c-0.636-2.378-2.495-1.502-3.989-1.448c-7.091,0.247-14.186,0.526-20.61-3.339
			C280.598,307.41,277.344,299.197,280.529,292.82z"/>
		<path fill="#F5C469" d="M504.975,342.706c0.576-2.126,1.148-4.253,1.729-6.39c1.472,0.291,1.456,1.436,1.769,2.307
			c3.744,10.397,8.431,20.264,15.787,28.688c4.601,5.271,9.828,10.134,16.615,11.617c5.15,1.122,8.101,2.344,9.907,7.943
			c1.435,4.432,6.794,5.863,11.776,5.486c6.065-0.465,11.108-3.555,16.238-6.402c1.473-0.814,1.469-0.816,2.003,0.54
			c-4.49,4.747-9.271,9.096-15.64,11.228c-9.04,3.027-17.48-0.73-21.092-9.471c-0.529-1.275-1.092-1.967-2.57-2.227
			c-11.773-2.061-19.934-9.244-26.156-18.947c-3.827-5.969-6.958-12.284-8.543-19.283C506.4,346.049,505.594,344.4,504.975,342.706z
			"/>
		<path fill="#F5C469" d="M247.582,548.572c1.612-1.568,3.256-3.126,5.32-4.068c9.219-4.206,13.12-12.885,17.711-20.982
			c0.421-0.739,0.748-1.528,1.317-2.699c1.636,2.738,1.405,5.211,1.165,7.799c-0.109,1.166-0.945,3.046,0.725,3.646
			c1.3,0.467,2.129-1.033,2.876-1.993c4.783-6.158,8.939-12.64,10.45-20.471c0.214-1.105,0.475-2.705,1.603-2.694
			c1.709,0.017,1.264,1.828,1.388,2.961c0.31,2.898,0.492,5.813,0.739,8.955c4.838-5.066,6.706-11.117,7.803-25.13
			c2.319,3.114,3.13,6.354,3.823,9.645c0.558,4.101-0.332,8.022-2.551,11.351c-9.051,13.594-20.196,24.956-35.792,30.889
			C258.931,547.769,253.532,550.204,247.582,548.572z"/>
		<path fill="#F5C469" d="M627.498,435.957c-0.053-0.871-0.133-1.737-0.158-2.604c-0.105-3.84,2.6-5.692,6.162-4.177
			c1.029,0.433,1.98,1.047,2.953,1.605c12.293,7.109,24.611,14.183,36.852,21.381c1.635,0.961,3.733,1.122,4.937,2.797
			c-0.39,2.44-0.813,4.892-1.151,7.352c-0.293,2.133-1.074,2.345-2.921,1.234C658.68,454.235,642.757,445.656,627.498,435.957z"/>
		<path fill="#F5C469" d="M726.994,398.361c6.164,3.559,12.322,7.129,18.498,10.676c2.043,1.172,3.076,2.826,2.758,5.241
			c-0.238,1.81-1.266,2.825-2.912,3.534c-1.504,0.646-2.68,0.071-3.868-0.598c-12.616-7.119-25.242-14.221-37.813-21.422
			c-2.624-1.503-3.892-5.352-2.484-7.297c2.046-2.828,4.702-2.285,7.31-0.791c6.178,3.538,12.334,7.113,18.5,10.672
			C726.988,398.371,726.992,398.367,726.994,398.361z"/>
		<path fill="#F5C469" d="M720.539,423.043c5.514,3.186,11.039,6.347,16.537,9.559c3.164,1.848,4.093,4.471,2.603,7.078
			c-1.372,2.398-4.162,3.014-7.189,1.296c-11.075-6.284-22.114-12.626-33.133-19.009c-2.928-1.699-4.031-5.051-2.606-7.232
			c1.588-2.437,4.327-2.85,7.553-1.017c5.426,3.083,10.814,6.233,16.222,9.353C720.53,423.061,720.535,423.053,720.539,423.043z"/>
		<path fill="#F5C469" d="M316.73,374.09c6.525,2.709,11.506-0.358,16.363-4.24c6.657-5.327,14.248-8.543,22.813-8.906
			c4.918-0.209,9.097,1.838,11.611,6.186c2.188,3.781,3.001,7.854,0.256,11.872c-0.181-0.464-0.42-0.908-0.534-1.39
			c-3.36-13.963-14.32-13.027-22.975-9.098c-4.386,1.987-7.452,5.767-11.212,8.605c-4.199,3.176-8.771,4.622-13.939,2.333
			c-2.729-1.208-4.803-3.003-5.792-6.113C314.692,372.788,315.612,373.99,316.73,374.09z"/>
		<path fill="#F5C469" d="M707.147,500.236c3.569,2.064,7.153,4.1,10.704,6.192c2.777,1.638,2.992,4.03,1.707,6.689
			c-1.317,2.724-3.504,2.983-5.9,1.622c-7.381-4.195-14.75-8.413-22.039-12.768c-2.619-1.564-3.274-4.01-1.611-6.713
			c1.648-2.678,3.926-2.664,6.435-1.211C700.004,496.118,703.578,498.172,707.147,500.236z"/>
		<path fill="#F5C469" d="M443.4,405.049c0.289,0.229,0.748,0.401,0.849,0.693c5.512,16.316,16.059,28.791,29.729,38.895
			c-3.303,1.676-8.683,0.67-15.629-2.889c-12.399-8.667-14.895-21.716-15.694-35.499C442.633,405.865,443.138,405.449,443.4,405.049
			z"/>
		<path fill="#F5C469" d="M691.201,531.744c-2.922-1.686-5.866-3.332-8.755-5.07c-2.785-1.676-4.093-5.053-2.628-7.283
			c1.787-2.727,4.547-2.514,6.967-1.205c6.368,3.438,12.697,6.973,18.827,10.809c2.185,1.367,2.267,4.004,0.99,6.303
			c-1.244,2.24-3.167,3.248-5.603,1.947c-3.303-1.764-6.502-3.719-9.748-5.592C691.235,531.682,691.217,531.713,691.201,531.744z"/>
		<path fill="#FC8119" d="M156.541,224.854c6.083,3.438,12.217,6.798,18.224,10.362c2.5,1.481,3.678,3.603,1.859,6.585
			c-1.813,2.977-3.937,2.875-6.607,1.266c-5.562-3.346-11.477-6.098-16.761-9.904c0.541-1.095-0.434-1.458-0.953-2.095
			c-1.649-2.021-0.64-5.153,1.842-5.698C154.938,225.195,155.874,225.671,156.541,224.854z"/>
		<path fill="#FC8119" d="M578.341,650.227c0.678-4.959,3.444-6.579,7.615-4.265c5.319,2.954,10.544,6.073,15.794,9.15
			c2.176,1.272,3.719,2.991,3.081,5.741c-0.641,2.773-2.681,3.564-5.278,3.377c-2.02-1.203-4.097-2.32-6.047-3.625
			C588.416,657.195,582.245,655.362,578.341,650.227z"/>
		<path fill="#F5C469" d="M355.449,220.416c8.354,8.186,18.521,10.75,29.873,9.645c1.364-0.132,2.719-0.344,4.085-0.486
			c4.973-0.508,4.973-0.501,4.941,4.239c-9.286,2.46-18.615,3.605-28.027,0.72c-5.272-1.618-9.291-4.727-11.248-10.061
			C354.574,223.109,353.788,221.623,355.449,220.416z"/>
		<path fill="#F5C469" d="M136.451,285.016c-2.269-1.313-4.593-2.541-6.796-3.954c-2.507-1.609-3.066-3.942-1.536-6.452
			c1.491-2.446,3.796-3.28,6.424-1.83c4.701,2.591,9.38,5.233,13.947,8.049c2.638,1.626,3.133,4.123,1.528,6.796
			c-1.574,2.612-3.879,2.924-6.444,1.527c-2.413-1.316-4.763-2.733-7.141-4.105C136.438,285.035,136.444,285.025,136.451,285.016z"
			/>
		<path fill="#F5C469" d="M319.238,129.243c-1.94-1.124-3.897-2.22-5.824-3.372c-2.745-1.646-2.652-4.021-1.409-6.477
			c1.213-2.398,3.295-3.046,5.67-1.879c4.474,2.2,8.777,4.719,12.842,7.619c2.347,1.676,2.566,4,1.036,6.228
			c-1.5,2.183-3.635,2.946-6.169,1.442C323.349,131.596,321.287,130.433,319.238,129.243z"/>
		<path fill="#F5C469" d="M280.529,292.82c-3.185,6.377,0.067,14.591,7.574,19.105c6.425,3.863,13.521,3.584,20.613,3.339
			c1.493-0.052,3.353-0.931,3.99,1.446c-8.267,2.834-16.63,4.178-25.2,1.424c-9.409-3.027-14.241-13.03-10.482-21.805
			C277.679,294.804,278.067,292.688,280.529,292.82z"/>
		<path fill="#F5C469" d="M111.662,379.706c-1.832-1.058-3.703-2.054-5.489-3.192c-2.292-1.454-3.236-3.611-1.993-6.08
			c1.292-2.56,3.844-3.527,6.342-2.327c4.142,1.991,8.177,4.29,11.964,6.888c2.371,1.626,2.182,4.294,0.817,6.701
			c-1.414,2.494-3.565,2.423-5.78,1.303c-1.996-1.011-3.893-2.217-5.835-3.339C111.681,379.676,111.672,379.69,111.662,379.706z"/>
		<path fill="#FC8119" d="M150.615,261.256c-2.258-1.305-4.566-2.533-6.763-3.936c-2.44-1.553-2.679-3.955-1.373-6.174
			c1.35-2.299,3.586-2.947,6.09-1.508c4.307,2.48,8.648,4.911,12.91,7.472c2.47,1.482,3.438,3.874,1.913,6.339
			c-1.522,2.464-3.911,3.283-6.708,1.457c-1.974-1.289-4.075-2.382-6.121-3.562C150.582,261.314,150.6,261.284,150.615,261.256z"/>
		<path fill="#F5C469" d="M106.653,407.147c-1.732-0.999-3.533-1.896-5.176-3.021c-2.479-1.701-2.799-4.084-1.37-6.567
			c1.418-2.468,3.692-2.953,6.113-1.636c3.729,2.031,7.361,4.24,11.012,6.412c2.71,1.612,2.859,4.043,1.5,6.453
			c-1.381,2.436-3.756,2.797-6.186,1.637c-2.022-0.965-3.913-2.214-5.858-3.338C106.678,407.106,106.666,407.127,106.653,407.147z"
			/>
		<path fill="#FC8119" d="M132.747,302.521c1.717,0.994,3.454,1.963,5.158,2.987c2.436,1.46,2.542,3.748,1.339,5.813
			c-1.174,2.028-3.452,3.229-5.719,2.143c-3.683-1.766-7.271-3.821-10.631-6.138c-2.316-1.598-2.558-4.169-1.097-6.608
			c1.439-2.405,3.607-2.369,5.835-1.246c1.769,0.892,3.448,1.965,5.169,2.957C132.783,302.459,132.765,302.488,132.747,302.521z"/>
		<path fill="#FC8119" d="M723.178,328.193c3.141,0.237,3.416-2.518,4.262-4.385c0.922-2.047,1.876-2.238,3.679-1.162
			c4.38,2.617,8.825,5.117,13.247,7.662c2.326,2.08,1.07,4.153-0.336,5.846c-1.791,2.158-4.258,1.829-6.438,0.59
			C732.737,333.98,727.976,331.054,723.178,328.193z"/>
		<path fill="#FC8119" d="M196.972,201.358c1.729,0.998,3.495,1.936,5.174,3.006c2.383,1.521,2.418,3.673,1.109,5.842
			c-1.322,2.191-3.354,3.027-5.742,1.776c-3.202-1.678-6.354-3.464-9.445-5.343c-2.676-1.628-2.564-4.063-1.304-6.487
			c1.293-2.482,3.395-2.702,5.715-1.493c1.548,0.805,3.033,1.73,4.545,2.604C197.009,201.295,196.99,201.327,196.972,201.358z"/>
		<path fill="#FC8119" d="M383.305,214.096c-10.831,2.428-22.839-2.041-25.882-9.525
			C367.107,204.812,375.43,208.115,383.305,214.096z"/>
		<path fill="#F5C469" d="M329.917,462.522c1.224-4.811-1.403-9.372-1.11-14.49c2.815,1.278,4.576,3.287,6.34,5.264
			c1.272,1.42,2.386,1.635,3.49-0.124c1.534,7.299-0.087,11.064-7.324,16.014C330.816,466.814,330.367,464.668,329.917,462.522z"/>
		<path fill="#FC8119" d="M428.438,268.091c-2.471,3.421-11.086,6.03-14.94,4.437c-2.896-1.198-1.367-3.63-1.234-5.52
			c0.115-1.573,0.852-2.506,3.035-2.129c3.812,0.656,7.676,1.509,11.615,0.86c0.729-0.12,1.572-0.278,2.084,0.399
			C429.596,266.93,428.844,267.498,428.438,268.091z"/>
		<path fill="#F5C469" d="M326.988,95.204c1.565-2.857,4.763-3.788,7.683-2.242c2.809,1.487,4.077,5.462,2.553,7.999
			c-1.631,2.718-4.989,3.526-7.833,1.888C326.493,101.178,325.481,97.96,326.988,95.204z"/>
		<path fill="#F5C469" d="M119.643,354.593c-3.22-1.866-4.35-5.398-2.639-8.253c1.629-2.716,5.283-3.485,8.219-1.731
			c2.852,1.708,3.845,5.364,2.195,8.084C125.755,355.432,122.476,356.234,119.643,354.593z"/>
		<path fill="#F5C469" d="M305.055,487.438c1.158-3.061-1.871-5.571-1.093-8.69c3.862,1.577,5.354,5.59,8.334,8.025
			c1.043,5.647,0.616,7.598-3.558,14.852c-0.42-4.699-2.059-8.295-2.849-12.141c0.014-0.815-0.151-1.565-0.756-2.164
			L305.055,487.438z"/>
		<path fill="#FC8119" d="M418.031,280.768c2.502,0.753,2.244,1.453,1.405,2.446c-1.858,2.211-4.295,3.411-7.034,3.838
			c-1.918,0.3-4.406,0.634-5.266-1.597c-0.799-2.08,0.521-4.307,1.064-6.43c0.168-0.656,1.051-0.755,1.617-0.566
			C412.849,279.468,415.822,280.664,418.031,280.768z"/>
		<path fill="#F5C469" d="M801.377,345.099c-2.461-1.382-3.432-4.733-1.895-7.049c1.711-2.585,3.998-3.091,6.729-1.511
			c2.6,1.504,3.514,4.499,2.062,6.94C806.976,345.661,803.73,346.422,801.377,345.099z"/>
		<path fill="#F5C469" d="M275.852,41.865c-2.509-1.348-3.59-4.628-2.315-7.029c1.313-2.486,4.455-3.301,7.047-1.828
			c2.521,1.43,3.417,4.499,2.063,7.036C281.436,42.304,278.254,43.158,275.852,41.865z"/>
		<path fill="#F5C469" d="M316.269,474.947c1.591-4.16-1.16-7.808-1.67-12.234c4.965,2.707,6.396,7.459,8.809,11.443
			c0.674,4.076-2.539,6.423-4.187,10.17C317.49,480.974,318.154,477.529,316.269,474.947z"/>
		<path fill="#F5C469" d="M357.105,112.259c0.975-2.156,2.693-2.894,4.956-2.58c-0.455,0.76-0.376,1.427,0.35,1.976
			c-2.184,2.852,0.957,3.715,2.016,5.337c0.371,0.573,1.06,0.845,1.482,0.146c0.956-1.561,0.068-3.07-0.404-4.54
			c-0.475-1.486-1.916-0.629-2.861-1.006c0.343-0.803,0.064-1.412-0.584-1.911c4.128,0.804,6.134,3.335,5.438,6.862
			c-0.486,2.457-3.564,4.521-6.274,4.213c-3.291-0.377-5.135-3.096-4.76-7.037c1.463,1.143,0.811,3.463,2.485,4.479
			c0.797,0.483,1.98,1.546,2.452,0.224c0.749-2.108-1.825-3.563-1.715-5.859C359.734,111.583,358.026,112.244,357.105,112.259z"/>
		<path fill="#F5C469" d="M154.955,534.869c4.96,2.994,9.59,5.091,14.449,6.586c2.919,0.895,2.918,3.642,4.636,5.603
			C166.017,547.182,158.159,542.256,154.955,534.869z"/>
		<path fill="#FC8119" d="M303.052,46.855c1.76,1.33,3.086,2.909,1.748,5.303c-1.247,2.236-3.246,2.732-5.394,1.563
			c-2.113-1.147-2.845-3.126-1.81-5.394C298.74,45.817,300.79,45.971,303.052,46.855z"/>
		<path fill="#F5C469" d="M673.682,479.987c-0.822-1.885-2.229-3.099-4.021-4.129c-21.702-12.447-43.366-24.963-65.033-37.47
			c-1.17-0.675-2.518-1.139-3.231-2.434c23.196,13.352,46.403,26.686,69.565,40.094
			C672.351,476.854,674.944,477.195,673.682,479.987z"/>
		<path fill="#F5C469" d="M681.811,556.016c-2.021-1.43-3.198-3.076-2.037-5.437c1.014-2.065,4.351-2.952,6.145-1.573
			c1.903,1.463,2.38,3.609,1.246,5.645C685.948,556.829,683.869,556.986,681.811,556.016z"/>
		<path fill="#F5C469" d="M244.666,102.354c2.414,1.663,2.915,3.707,1.74,5.992c-1.206,2.354-3.33,2.575-5.408,1.386
			c-2.288-1.303-2.844-3.496-1.612-5.786C240.601,101.685,242.666,101.604,244.666,102.354z"/>
		<path fill="#F5C469" d="M176.551,406.771c1.063-1.842,1.826-3.549,3.841-1.989c1.619,1.255,4.248,2.045,3.582,4.76
			c-0.417,1.703-7.636,5.201-8.166,4.291C174.312,411.261,175.97,408.787,176.551,406.771z"/>
		<path fill="#FC8119" d="M95.117,329.717c2.11,1.262,2.886,2.899,1.807,5.053c-1.075,2.146-2.919,2.663-4.926,1.527
			c-1.882-1.064-2.904-2.831-1.732-4.977C91.353,329.334,93.06,328.604,95.117,329.717z"/>
		<path fill="#FC8119" d="M770.236,349.867c1.395-1.461,2.999-2.723,5.119-1.489c1.957,1.142,2.57,3.122,1.618,5.157
			c-1.083,2.309-3.203,2.182-5.095,1.221C769.965,353.785,769.608,351.977,770.236,349.867z"/>
		<path fill="#F5C469" d="M188.333,161.49c1.362-2.146,3.357-2.655,5.446-1.45c2.04,1.179,2.918,3.212,1.622,5.418
			c-1.239,2.108-3.253,2.696-5.451,1.436C187.809,165.662,187.177,163.818,188.333,161.49z"/>
		<path fill="#F5C469" d="M194.138,455.192c1.496-2.206,7.136-4.702,8.109-3.421c1.61,2.115,1.166,5.26-0.209,6.584
			c-2.499,2.406-4.868-1.258-7.497-1.536C193.517,456.713,193.703,455.861,194.138,455.192z"/>
		<path fill="#F5C469" d="M175.426,450.045c-0.113-0.065-0.716-0.272-0.702-0.428c0.25-2.83,2.719-3.627,4.685-4.697
			c1.122-0.609,2.978-1.472,3.42,0.996c0.262,1.456,0.359,2.945,0.476,4.424c0.116,1.463-0.482,2.087-1.991,1.587
			C179.435,451.305,177.543,450.718,175.426,450.045z"/>
		<path fill="#F5C469" d="M732.193,479.672c-1.78-1.416-3.047-2.889-1.625-5.135c1.369-2.163,3.474-2.673,5.476-1.443
			c2.101,1.295,2.221,3.648,0.948,5.584C735.86,480.398,734.006,480.798,732.193,479.672z M731.639,475.016
			c-0.68,1.406,0.086,2.159,1.087,2.777c1.083,0.664,2.399,1.316,3.174-0.121c0.558-1.033,0.53-2.533-0.671-3.31
			C733.916,473.518,732.674,474.164,731.639,475.016z"/>
		<path fill="#F5C469" d="M202.758,431.555c1.253-0.574,0.8-3.792,3.1-2.404c1.696,1.025,3.743,2.5,3.546,5.063
			c-0.06,0.779-6.97,2.928-7.534,2.303C200.16,434.607,202.417,433.293,202.758,431.555z"/>
		<path fill="#F5C469" d="M164.061,445.971c-2.559,0.805-4.74-0.683-7.036-1.116c-1.183-0.224-1.23-1.169-0.438-1.938
			c1.882-1.82,3.688-5.025,6.474-3.752C165.14,440.117,164.299,443.392,164.061,445.971z"/>
		<path fill="#F5C469" d="M190.674,418.157c1.113-0.701,0.956-3.862,3.281-1.898c1.409,1.194,3.917,2.049,3.287,4.667
			c-0.266,1.096-6.368,2.972-7.126,2.204C188.364,421.355,190.288,419.83,190.674,418.157z"/>
		<path fill="#F5C469" d="M138.82,438.479c1.623-1.787,3.213-4.44,5.685-3.059c1.862,1.042,1.426,3.963,1.41,6.146
			c-0.003,0.565-6.364-0.035-7.263-0.729C137.432,439.893,138.294,439.152,138.82,438.479z"/>
		<path fill="#FC8119" d="M404.958,300.283c-0.095-2.137-1.812-4.678,0.546-5.78c1.044-0.491,4.407,1.08,4.432,1.799
			C410.042,299.172,406.172,298.107,404.958,300.283z"/>
		<path fill="#F5C469" d="M219.526,468.514c-2.499-0.995-3.953-3.413-6.845-4.096c1.965-2.719,4.546-3.191,7.136-3.429
			c1.513-0.136,1.833,0.872,1.371,2.224C220.613,464.919,220.107,466.649,219.526,468.514z"/>
		<path fill="#F5C469" d="M213.592,449.129c1.47-2.844,1.48-6.162,4.408-6.154c1.355,0.006,3.81,3.068,3.016,4.502
			C219.755,449.75,216.67,448.851,213.592,449.129z"/>
		<path fill="#F5C469" d="M156.541,224.854c-0.667,0.817-1.602,0.342-2.396,0.518c-2.483,0.547-3.489,3.678-1.84,5.697
			c0.521,0.637,1.492,1.002,0.953,2.098c-3.318-1.658-4.664-4.193-3.216-6.645C151.554,223.955,153.71,222.817,156.541,224.854z"/>
		<path fill="#F5C469" d="M186.083,261.053c-5.347,9.255-10.696,18.507-16.036,27.744
			C174.898,279.251,179.714,269.701,186.083,261.053z"/>
		<path fill="#F5C469" d="M578.341,650.227c3.904,5.136,10.075,6.969,15.162,10.377c1.95,1.307,4.028,2.423,6.048,3.627
			c-6.228-1.875-11.146-6.222-16.912-8.975C580.519,654.244,578.398,653.074,578.341,650.227z"/>
		<path fill="#F5C469" d="M395.305,203.055c0,0,0.099,0.06,0.095,0.059C395.395,203.114,395.305,203.055,395.305,203.055z"/>
		<polygon fill="#FC8119" points="624.489,577.881 624.469,577.91 624.512,578.049 		"/>
		<path fill="#F5C469" d="M169.408,377.539c0.347-0.545,0.81-0.81,1.466-0.604C170.53,377.487,170.019,377.638,169.408,377.539z"/>
		<path fill="#FC8119" d="M305.133,487.32c0.604,0.599,0.769,1.35,0.756,2.164C304.827,489.045,303.607,488.663,305.133,487.32z"/>
		<path fill="#013F54" d="M479.42,175.572c-1.622-0.937-3.279-1.822-4.861-2.825c-3.018-1.902-4.074-5.021-2.8-8.017
			c1.35-3.154,4.7-4.983,7.98-3.688c4.519,1.783,8.927,3.99,12.601,7.244c2.814,2.494,2.902,5.193,0.771,8.244
			c-2.093,2.995-4.888,3.794-8.146,2.172c-1.897-0.946-3.688-2.102-5.529-3.164C479.432,175.552,479.424,175.562,479.42,175.572z"/>
		<path fill="#013F54" d="M234.237,525.604c-0.065,1.957-0.041,3.917-0.21,5.866c-1.037,11.918-12.602,18.288-23.232,16.901
			c-9.975-1.299-18.018-12.644-15.715-22.801c2.004-8.85,7.889-14.463,17.128-16.041
			C225.43,510.189,229.765,513.352,234.237,525.604z M217.242,526.093c-2.418-1.363-5.388-0.587-6.755,1.765
			c-1.572,2.703-0.783,5.051,2.225,6.744c2.695,1.525,4.728,0.771,6.237-1.771C220.398,530.387,219.636,527.443,217.242,526.093z"/>
		<path fill="#013F54" d="M130.906,470.603c0.901-1.784,2.539-2.927,4.709-2.748c2.324,0.19,3.902,1.618,4.351,3.958
			c0.422,2.188,0.622,4.417,0.977,6.619c0.173,1.066-0.18,2.587,1.065,3.007c3.98,1.337,1.653,3.791,0.934,5.644
			c-0.932,2.401-2.835,3.713-5.666,3.051c-2.123-0.498-3.346-2.119-4.661-3.59C129.023,482.525,128.212,475.135,130.906,470.603z"/>
		<path fill="#F5C469" d="M234.237,525.604c-4.473-12.253-8.808-15.419-22.027-16.075c4.642-2.931,9.329-1.562,13.802,0.222
			c4.778,1.901,7.952,5.714,10.485,10.122C238.214,522.869,236.54,524.307,234.237,525.604z"/>
		<path fill="#F5C469" d="M522.184,486.131l-0.008-0.031L522.184,486.131z"/>
		<path fill="#013F54" d="M333.632,406.119c0.08,0,0.158,0,0.233,0c-0.045,0.027-0.089,0.055-0.129,0.086
			C333.741,406.212,333.632,406.119,333.632,406.119z"/>
		<path fill="#F5C469" d="M573.981,585.137c0.678,0.01,0.66,0.229,0.176,0.588C574.094,585.532,574.035,585.334,573.981,585.137z"/>
		<path fill="#FC8119" d="M362.645,111.592c0.947,0.378,2.386-0.479,2.861,1.006c0.475,1.471,1.36,2.979,0.404,4.54
			c-0.424,0.698-1.111,0.426-1.482-0.146c-1.06-1.622-4.199-2.487-2.016-5.337L362.645,111.592z"/>
		<path fill="#FC8119" d="M357.105,112.259c0.922-0.016,2.628-0.676,2.581,0.302c-0.107,2.297,2.466,3.752,1.717,5.86
			c-0.475,1.321-1.659,0.26-2.453-0.224c-1.674-1.019-1.022-3.338-2.483-4.48C356.677,113.234,356.892,112.748,357.105,112.259z"/>
		<path fill="#FC8119" d="M362.412,111.656c-0.728-0.55-0.803-1.216-0.354-1.975l0.001-0.001c0.65,0.499,0.929,1.108,0.585,1.911
			C362.645,111.592,362.412,111.656,362.412,111.656z"/>
		<path fill="#FC8119" d="M731.639,475.016c1.035-0.85,2.278-1.501,3.592-0.651c1.201,0.776,1.227,2.274,0.671,3.308
			c-0.777,1.439-2.093,0.787-3.176,0.121C731.725,477.175,730.959,476.424,731.639,475.016z"/>
		<path fill="#F5C469" d="M217.242,526.093c2.394,1.351,3.156,4.294,1.707,6.737c-1.508,2.543-3.542,3.297-6.237,1.771
			c-3.008-1.697-3.797-4.041-2.225-6.744C211.854,525.505,214.824,524.729,217.242,526.093z"/>
	</g>
</g>
</svg>
